<svg width="82" height="82" viewBox="0 0 82 82" fill="none" xmlns="http://www.w3.org/2000/svg">
<path d="M63.115 57.0824H18.8851C16.7504 57.0824 15.0206 55.3827 15.0206 53.2852V28.7147C15.0206 26.6172 16.7504 24.9175 18.8851 24.9175H63.115C65.2496 24.9175 66.9794 26.6172 66.9794 28.7147V53.2852C66.9794 55.3827 65.2496 57.0824 63.115 57.0824Z" stroke="#A0B2B8" stroke-width="2" stroke-miterlimit="10" stroke-linecap="round" stroke-linejoin="round"/>
<path d="M39.7522 48.8352H21.6293C21.1687 48.8352 20.7938 48.4743 20.7938 48.031V44.6908C20.7938 44.2475 21.1687 43.8867 21.6293 43.8867H39.7522C40.2128 43.8867 40.5876 44.2475 40.5876 44.6908V48.031C40.5876 48.4743 40.2128 48.8352 39.7522 48.8352Z" stroke="#A0B2B8" stroke-width="2" stroke-miterlimit="10" stroke-linecap="round" stroke-linejoin="round"/>
<path d="M15.0206 30.6907H66.9794" stroke="#A0B2B8" stroke-width="2" stroke-miterlimit="10" stroke-linecap="round" stroke-linejoin="round"/>
<path d="M47.1855 43.8867H61.2062" stroke="#A0B2B8" stroke-width="2" stroke-miterlimit="10" stroke-linecap="round" stroke-linejoin="round"/>
<path d="M15.0206 38.1133H66.9794" stroke="#A0B2B8" stroke-width="2" stroke-miterlimit="10" stroke-linecap="round" stroke-linejoin="round"/>
<path d="M47.1855 48.835H52.9587" stroke="#A0B2B8" stroke-width="2" stroke-miterlimit="10" stroke-linecap="round" stroke-linejoin="round"/>
<path d="M41 81C63.0914 81 81 63.0914 81 41C81 18.9086 63.0914 1 41 1C18.9086 1 1 18.9086 1 41C1 63.0914 18.9086 81 41 81Z" stroke="#A0B2B8" stroke-width="2" stroke-miterlimit="10" stroke-linecap="round" stroke-linejoin="round"/>
<path d="M12.5464 12.5464L69.4536 69.4536" stroke="#A0B2B8" stroke-width="2" stroke-miterlimit="10" stroke-linecap="round" stroke-linejoin="round"/>
</svg>
