<svg width="28" height="28" viewBox="0 0 28 28" fill="none" xmlns="http://www.w3.org/2000/svg">
<mask id="path-1-inside-1" fill="white">
<path fill-rule="evenodd" clip-rule="evenodd" d="M12.3229 20.4712C10.3648 19.8861 8.28138 16.1918 8.28138 16.1918C8.12386 16.025 8.12386 15.7535 8.28144 15.5867C8.3844 15.4777 8.50471 15.4613 8.56712 15.4613C8.62966 15.4613 8.75003 15.4775 8.85305 15.5867L10.8941 17.7478C10.8959 17.7497 10.8977 17.7516 10.8995 17.7535C11.2794 18.1483 11.7821 18.3657 12.3147 18.3657C12.8545 18.3657 13.3619 18.1431 13.7437 17.7391C14.5316 16.9048 14.5316 15.5473 13.7437 14.713C13.7437 14.713 11.4197 11.1953 9.28139 10.326C7.14312 9.45681 4.36541 9.81882 3.40343 10.5779C1.53009 12.0562 1.62731 14.206 3.13118 17.816C4.63506 21.426 8.90231 24.391 10.5305 24.6254C13.7846 25.7031 20.0469 23.7666 20.0469 23.7666C21.2616 23.1721 22.5304 22.967 21.5893 21.0882C20.6482 19.2094 14.281 21.0563 12.3229 20.4712Z"/>
</mask>
<path fill-rule="evenodd" clip-rule="evenodd" d="M12.3229 20.4712C10.3648 19.8861 8.28138 16.1918 8.28138 16.1918C8.12386 16.025 8.12386 15.7535 8.28144 15.5867C8.3844 15.4777 8.50471 15.4613 8.56712 15.4613C8.62966 15.4613 8.75003 15.4775 8.85305 15.5867L10.8941 17.7478C10.8959 17.7497 10.8977 17.7516 10.8995 17.7535C11.2794 18.1483 11.7821 18.3657 12.3147 18.3657C12.8545 18.3657 13.3619 18.1431 13.7437 17.7391C14.5316 16.9048 14.5316 15.5473 13.7437 14.713C13.7437 14.713 11.4197 11.1953 9.28139 10.326C7.14312 9.45681 4.36541 9.81882 3.40343 10.5779C1.53009 12.0562 1.62731 14.206 3.13118 17.816C4.63506 21.426 8.90231 24.391 10.5305 24.6254C13.7846 25.7031 20.0469 23.7666 20.0469 23.7666C21.2616 23.1721 22.5304 22.967 21.5893 21.0882C20.6482 19.2094 14.281 21.0563 12.3229 20.4712Z" stroke="black" stroke-width="1.94" stroke-linejoin="round" mask="url(#path-1-inside-1)"/>
<path d="M11.2508 20.1155C11.2508 20.1155 14.1548 19.239 15.754 19.3983C17.2789 19.7196 17.5705 20.659 17.5705 20.659" stroke="black" stroke-width="0.97" stroke-linecap="round"/>
<mask id="path-3-inside-2" fill="white">
<path fill-rule="evenodd" clip-rule="evenodd" d="M21.9235 4C20.7661 4 19.6128 4.5543 18.8668 5.45392C18.1206 4.5543 16.9666 4 15.8099 4C13.7081 4 12.0767 5.66326 12.0767 7.80694C12.0767 10.7849 14.384 12.5874 17.9153 15.7718L18.8668 16.61L19.8184 15.7718C23.3493 12.5873 25.6567 10.4408 25.6567 7.80694C25.6566 5.66333 24.0255 4 21.9235 4Z"/>
</mask>
<path fill-rule="evenodd" clip-rule="evenodd" d="M21.9235 4C20.7661 4 19.6128 4.5543 18.8668 5.45392C18.1206 4.5543 16.9666 4 15.8099 4C13.7081 4 12.0767 5.66326 12.0767 7.80694C12.0767 10.7849 14.384 12.5874 17.9153 15.7718L18.8668 16.61L19.8184 15.7718C23.3493 12.5873 25.6567 10.4408 25.6567 7.80694C25.6566 5.66333 24.0255 4 21.9235 4Z" stroke="black" stroke-width="1.94" mask="url(#path-3-inside-2)"/>
</svg>
