<svg width="106" height="90" viewBox="0 0 106 90" fill="none" xmlns="http://www.w3.org/2000/svg">
<path d="M55.0273 80.2165H55.0768V79.3557L55.057 79.89L55.0273 80.2165Z" fill="#854D2D"/>
<path d="M53.1398 65.5246V65.5444H55.0788V65.5246H53.1398Z" fill="url(#paint0_linear)"/>
<path d="M51.9413 65.5246V65.5444H53.0394V65.5246H51.9413Z" fill="#975935"/>
<path d="M48.0347 65.9098C48.1007 65.8834 48.1732 65.8603 48.2523 65.8405C48.8855 65.6624 49.6703 65.5635 50.6069 65.5437C50.6596 65.5437 50.7124 65.5437 50.7651 65.5437H51.9424V65.5239H53.0405H53.1394H55.0785H55.4247C56.0051 65.491 56.4008 65.4184 56.6119 65.3063C56.8229 65.1875 56.9021 65.0424 56.8493 64.8709C56.7833 64.6928 56.3876 64.6005 55.6621 64.5939H55.1477V65.0688H49.8847C48.7833 65.1414 47.7709 65.4217 46.8475 65.9098C46.1682 66.2528 45.5384 66.698 44.958 67.2455C43.4675 68.7032 42.7057 70.4512 42.6727 72.4893V72.5883C42.6727 72.608 42.6727 72.6245 42.6727 72.6377V72.6575C42.7387 74.6957 43.5004 76.437 44.958 77.8816C45.7033 78.6269 46.5211 79.2008 47.4114 79.6031C48.1369 79.9131 48.9218 80.1077 49.766 80.1869L53.1394 80.0879L55.029 80.2165L55.0587 79.89V78.7324L50.1815 78.7522C48.4139 78.7192 46.8904 78.0629 45.6109 76.7833C44.3974 75.5762 43.7511 74.1449 43.6719 72.4893C43.6719 72.4695 43.6719 72.4464 43.6719 72.4201C43.6719 72.4069 43.6719 72.3904 43.6719 72.3706V72.3211C43.6719 72.2552 43.6719 72.1925 43.6719 72.1331C43.6719 70.2994 44.3183 68.7362 45.6109 67.4434C46.0001 67.0674 46.4123 66.7442 46.8475 66.4738C47.2235 66.2429 47.6192 66.0549 48.0347 65.9098Z" fill="#9C184D"/>
<path d="M48.2521 66.3754C48.1729 66.4018 48.1004 66.4249 48.0344 66.4447C47.6189 66.5898 47.2232 66.7778 46.8473 67.0087C46.412 67.2791 45.9998 67.6023 45.6107 67.9783C44.3839 69.2051 43.7376 70.6694 43.6717 72.3712C43.6717 72.391 43.6717 72.4075 43.6717 72.4207C43.6717 72.4471 43.6717 72.4702 43.6717 72.4899C43.7508 74.1455 44.3971 75.5769 45.6107 76.7839C46.8902 78.0636 48.4137 78.7199 50.1812 78.7529L55.0584 78.7331L56.5127 78.7232C56.7699 78.743 56.9875 78.6869 57.1656 78.555C57.3239 78.4428 57.4228 78.2087 57.4624 77.8525L57.4822 77.7635V77.7536C57.4624 74.2313 57.4393 70.7057 57.4129 67.1769L57.403 65.4553C57.3635 65.5147 57.3239 65.5773 57.2843 65.6433C57.0733 65.8873 56.6776 66.0423 56.0972 66.1083L53.1392 66.0786V66.0588H53.0403V66.0786H50.7649C50.7121 66.0786 50.6594 66.0786 50.6066 66.0786C49.6701 66.0984 48.8852 66.1974 48.2521 66.3754ZM13.1817 56.8772C12.4232 56.7783 12.0209 56.6035 11.9747 56.3528V87.3013C12.0671 87.7498 12.2188 88.139 12.4298 88.4688C12.8519 89.1416 14.2105 89.4219 16.5057 89.3098H50.4978C52.2125 89.3098 53.4426 88.8349 54.1878 87.885C54.3923 87.6278 54.5605 87.3442 54.6924 87.0341C54.7056 86.988 54.7221 86.9385 54.7418 86.8857C54.9661 86.2855 55.0782 85.5731 55.0782 84.7486V80.2172H55.0287L53.1392 80.0886L49.7657 80.1875C48.9215 80.1083 48.1367 79.9138 47.4112 79.6037C46.5208 79.2014 45.703 78.6275 44.9577 77.8822C43.5002 76.4377 42.7384 74.6963 42.6725 72.6581V72.6384C42.6725 72.6252 42.6725 72.6087 42.6725 72.5889V72.4899C42.7054 70.4518 43.4672 68.7038 44.9577 67.2461C45.5381 66.6987 46.168 66.2534 46.8473 65.9104C47.7706 65.4223 48.783 65.142 49.8844 65.0694H55.1474V64.5945H55.0782V64.1196V61.28C55.0584 60.8447 55.0089 60.4456 54.9298 60.0829C54.9496 60.2675 54.9661 60.472 54.9793 60.6963C54.9793 60.8084 54.9793 60.9205 54.9793 61.0327V61.28C54.9133 59.7695 54.4549 58.6614 53.6041 57.9556L53.159 57.639C53.0798 57.5995 52.9941 57.5566 52.9018 57.5104C52.3807 57.273 51.7707 57.1114 51.0716 57.0256H16.4068C16.3606 57.0256 16.3243 57.0256 16.2979 57.0256C16.2452 57.0256 16.2023 57.0256 16.1693 57.0256C14.9756 57.0256 13.9797 56.9761 13.1817 56.8772ZM50.2801 83.1458C50.2603 83.0007 50.2406 82.849 50.2208 82.6907V82.2257C50.2537 82.4169 50.2735 82.595 50.2801 82.7599C50.2801 82.8919 50.2801 83.0205 50.2801 83.1458Z" fill="#C82164"/>
<path d="M48.0333 66.4452C48.0993 66.4254 48.1718 66.4023 48.251 66.3759C48.8841 66.1978 49.669 66.0989 50.6055 66.0791C50.6583 66.0791 50.711 66.0791 50.7638 66.0791H53.0392V66.0593H53.1381V66.0791L56.0961 66.1088C56.6765 66.0428 57.0722 65.8878 57.2832 65.6438C57.3228 65.5778 57.3624 65.5151 57.4019 65.4558V65.06C57.4019 65.0336 57.4019 65.0105 57.4019 64.9907C57.3888 64.938 57.3756 64.8819 57.3624 64.8225C57.3294 64.7434 57.2898 64.6708 57.2437 64.6049C56.9996 64.3608 56.5281 64.1992 55.829 64.1201H55.0771V64.595H55.1464H55.6608C56.3863 64.6016 56.782 64.6939 56.8479 64.872C56.9007 65.0435 56.8216 65.1886 56.6105 65.3074C56.3995 65.4195 56.0037 65.492 55.4234 65.525H55.0771V65.5448H53.1381V65.525H53.0392V65.5448H51.9411H50.7638C50.711 65.5448 50.6583 65.5448 50.6055 65.5448C49.669 65.5646 48.8841 65.6635 48.251 65.8416C48.1718 65.8614 48.0993 65.8845 48.0333 65.9109C47.6178 66.056 47.2221 66.244 46.8462 66.4748C46.4109 66.7453 45.9987 67.0685 45.6096 67.4445C44.3169 68.7373 43.6706 70.3005 43.6706 72.1342C43.6706 72.1936 43.6706 72.2562 43.6706 72.3222V72.3717C43.7365 70.6699 44.3829 69.2056 45.6096 67.9787C45.9987 67.6028 46.4109 67.2796 46.8462 67.0091C47.2221 66.7783 47.6178 66.5903 48.0333 66.4452ZM11.9736 56.3533C12.0198 56.6039 12.4221 56.7787 13.1806 56.8777C13.9786 56.9766 14.9745 57.0261 16.1682 57.0261C16.2012 57.0261 16.2441 57.0261 16.2968 57.0261C16.3232 57.0261 16.3595 57.0261 16.4057 57.0261H51.0705C51.7696 57.1118 52.3796 57.2734 52.9007 57.5109C52.993 57.557 53.0787 57.5999 53.1579 57.6395L53.6031 57.9561C54.4539 58.6619 54.9122 59.77 54.9782 61.2805V61.0331C54.9782 60.921 54.9782 60.8089 54.9782 60.6967C54.965 60.4725 54.9485 60.268 54.9287 60.0833C54.7374 58.5926 54.101 57.5636 53.0194 56.9964C52.9534 56.8909 52.8809 56.7952 52.8017 56.7095C52.4918 56.3401 52.1158 56.0499 51.6739 55.8388C50.9683 55.5024 50.1306 55.3342 49.1611 55.3342H16.2968C13.5532 55.2023 12.1121 55.476 11.9736 56.1554C11.967 56.2016 11.9637 56.251 11.9637 56.3038C11.9637 56.317 11.967 56.3335 11.9736 56.3533ZM13.4675 56.3533C12.8409 56.2873 12.6497 56.1983 12.8937 56.0861C13.1377 55.9674 14.2721 55.9113 16.2968 55.9179H49.8536C50.5396 56.0103 51.1463 56.1785 51.6739 56.4225C51.8059 56.4885 51.9443 56.5611 52.0894 56.6402C51.575 56.5083 51.0111 56.4423 50.3978 56.4423H16.2968C15.0174 56.4489 14.0742 56.4192 13.4675 56.3533Z" fill="#DE7FA6"/>
<path d="M12.8931 56.0844C12.6491 56.1965 12.8404 56.2856 13.4669 56.3515C14.0737 56.4175 15.0168 56.4472 16.2963 56.4406H50.3972C51.0106 56.4406 51.5745 56.5065 52.0889 56.6385C51.9438 56.5593 51.8053 56.4868 51.6734 56.4208C51.1458 56.1767 50.539 56.0085 49.8531 55.9162H16.2963C14.2715 55.9096 13.1372 55.9657 12.8931 56.0844Z" fill="#6A1135"/>
<path d="M44.4537 56.0661C44.4453 56.0871 44.4387 56.1102 44.4339 56.1354C44.4388 56.1123 44.4454 56.0925 44.4537 56.076C44.4867 55.9771 44.5163 55.8781 44.5427 55.7792C44.5097 55.8649 44.4801 55.9606 44.4537 56.0661ZM29.6242 56.4421V56.4619H43.7018V56.4421C43.715 56.4091 43.7282 56.3761 43.7414 56.3431C43.7744 56.2574 43.8008 56.165 43.8205 56.0661C44.0646 55.2746 44.1866 54.4501 44.1866 53.5926C44.1536 51.5017 43.3984 49.7306 41.9211 48.2795C40.424 46.8086 38.6366 46.0962 36.5591 46.1424C34.475 46.1556 32.7042 46.9141 31.2466 48.418C29.8023 49.8955 29.09 51.6765 29.1098 53.7608C29.1295 54.5721 29.2582 55.3405 29.4956 56.0661C29.5286 56.198 29.5714 56.3233 29.6242 56.4421ZM28.8921 56.1354C28.8889 56.1142 28.8823 56.0911 28.8723 56.0661C28.8591 56.0265 28.8492 55.9902 28.8427 55.9573C28.8492 55.9968 28.8591 56.0364 28.8723 56.076C28.8822 56.0958 28.8888 56.1156 28.8921 56.1354Z" fill="url(#paint1_linear)"/>
<path d="M28.5223 53.7614V53.7713C28.5223 54.477 28.6114 55.1531 28.7894 55.7995L28.8389 55.9578C28.8455 55.9908 28.8554 56.0271 28.8686 56.0667C28.8786 56.0916 28.8852 56.1147 28.8884 56.1359L28.8983 56.1557L28.9082 56.1755L28.9181 56.2151L28.9378 56.2646C28.9378 56.2975 28.9444 56.3239 28.9576 56.3437C28.9642 56.3767 28.9741 56.4097 28.9873 56.4426H29.6205C29.5677 56.3239 29.5248 56.1986 29.4918 56.0667C29.2544 55.3411 29.1258 54.5727 29.106 53.7614C29.0862 51.677 29.7985 49.8961 31.2429 48.4186C32.7005 46.9147 34.4713 46.1562 36.5554 46.143C38.6329 46.0968 40.4202 46.8092 41.9174 48.2801C43.3947 49.7312 44.1499 51.5022 44.1828 53.5932C44.1828 54.4507 44.0608 55.2752 43.8168 56.0667C43.797 56.1656 43.7706 56.258 43.7377 56.3437C43.7245 56.3767 43.7113 56.4097 43.6981 56.4426H44.3213C44.3279 56.4031 44.3444 56.3602 44.3708 56.314L44.4203 56.1755L44.4302 56.1359C44.435 56.1108 44.4415 56.0877 44.4499 56.0667C44.4763 55.9611 44.506 55.8655 44.539 55.7797L44.7665 53.5734V53.5536C44.7665 53.3689 44.7632 53.1743 44.7566 52.9698C44.7434 52.9369 44.7368 52.9039 44.7368 52.8709C44.6577 51.9013 44.417 51.0075 44.0147 50.1896L42.8275 48.4186C42.6626 48.2273 42.4911 48.0426 42.3131 47.8645C40.7236 46.2815 38.8044 45.5032 36.5554 45.5296C34.3064 45.5691 32.4004 46.387 30.8373 47.9833C29.327 49.5267 28.5553 51.3802 28.5223 53.5437C28.5223 53.6097 28.5223 53.6822 28.5223 53.7614Z" fill="#D19236"/>
<path d="M28.5256 53.7708V53.7609C28.5256 53.6817 28.5256 53.6092 28.5256 53.5432C28.5586 51.3797 29.3303 49.5263 30.8406 47.9828C32.4037 46.3866 34.3097 45.5687 36.5587 45.5291C38.8077 45.5027 40.7269 46.281 42.3164 47.8641C42.4945 48.0422 42.6659 48.2269 42.8308 48.4181L44.018 50.1892C44.4203 51.0071 44.661 51.9008 44.7401 52.8704C44.7401 52.9034 44.7467 52.9364 44.7599 52.9694C44.7665 53.1739 44.7698 53.3684 44.7698 53.5531V53.5729L44.5423 55.7793C44.5159 55.8782 44.4862 55.9772 44.4533 56.0761C44.445 56.0926 44.4384 56.1124 44.4335 56.1355L44.4236 56.175L44.3741 56.3136C44.3609 56.3597 44.3477 56.4026 44.3345 56.4422C44.3279 56.4422 44.3246 56.4488 44.3246 56.462H45.304C45.304 56.4488 45.3106 56.4422 45.3238 56.4422C45.337 56.4026 45.3469 56.3597 45.3535 56.3136C45.3865 56.2344 45.4096 56.1553 45.4228 56.0761C45.6338 55.278 45.7327 54.437 45.7195 53.5531C45.7195 53.3223 45.7097 53.0947 45.6899 52.8704C45.4986 50.6674 44.6016 48.7743 42.999 47.1913C41.1985 45.4433 39.0451 44.5826 36.5389 44.6089C34.0459 44.6419 31.9189 45.5555 30.158 47.3496C28.6213 48.9062 27.7771 50.7465 27.6254 52.8704C27.599 53.1739 27.5858 53.4806 27.5858 53.7906C27.599 54.5953 27.7012 55.3571 27.8925 56.0761C27.9123 56.1684 27.9321 56.2575 27.9519 56.3432C27.965 56.3762 27.9782 56.4158 27.9914 56.462H28.9906V56.4422C28.9774 56.4092 28.9675 56.3762 28.9609 56.3432C28.9477 56.3235 28.9411 56.2971 28.9411 56.2641L28.9214 56.2146L28.9115 56.175L28.9016 56.1553L28.8917 56.1355C28.8884 56.1157 28.8818 56.0959 28.8719 56.0761C28.8587 56.0365 28.8488 55.9969 28.8422 55.9574L28.7928 55.7991C28.6147 55.1527 28.5256 54.4766 28.5256 53.7708Z" fill="url(#paint2_linear)"/>
<path d="M34.0553 28.9765C33.8311 28.8644 33.6167 28.8479 33.4123 28.927C33.1946 29.0128 33.0297 29.1678 32.9176 29.3921C32.8055 29.5833 32.7923 29.7911 32.8781 30.0154C33.4057 31.5391 33.7354 33.1617 33.8673 34.8832C33.9003 35.1075 33.9993 35.2922 34.1641 35.4373C34.3356 35.6022 34.5434 35.6748 34.7874 35.655C35.0116 35.622 35.1963 35.523 35.3414 35.3581C35.5063 35.1866 35.5722 34.9921 35.5393 34.7744C35.4073 32.9011 35.0446 31.1334 34.451 29.4712C34.3719 29.2535 34.24 29.0886 34.0553 28.9765ZM19.9579 15.5998C19.7139 15.5207 19.4896 15.547 19.2852 15.679C19.1005 15.7911 18.9785 15.9593 18.9191 16.1836C18.8334 16.4078 18.8631 16.6189 19.0082 16.8168C19.1203 17.0081 19.2819 17.1466 19.4929 17.2323C21.0296 17.6479 22.4806 18.2382 23.8458 19.0033C24.0371 19.1287 24.2448 19.1748 24.4691 19.1419C24.6867 19.0495 24.8483 18.9077 24.9538 18.7164C25.0725 18.5317 25.1154 18.3273 25.0824 18.103C24.9967 17.8787 24.8582 17.7105 24.6669 17.5984C23.1962 16.7079 21.6265 16.0417 19.9579 15.5998ZM5.90995 16.9652C5.81102 16.7409 5.64943 16.609 5.42519 16.5694C5.20755 16.4441 4.9965 16.4441 4.79205 16.5694C3.23556 17.2356 1.75162 18.1195 0.340231 19.221C0.135777 19.3529 0.023657 19.5475 0.00387114 19.8048C-0.0159147 20.029 0.0401452 20.2236 0.172051 20.3885C0.303957 20.593 0.498517 20.7051 0.755733 20.7249C0.979973 20.7447 1.18443 20.6886 1.36909 20.5567C2.64858 19.5541 4.00721 18.7362 5.44498 18.103C5.66922 17.9909 5.82421 17.8227 5.90995 17.5984C6.00228 17.3807 6.00228 17.1697 5.90995 16.9652ZM9.75829 15.0952C9.50108 15.1282 9.31641 15.2403 9.20429 15.4316C9.07238 15.5965 9.03281 15.801 9.08558 16.045C9.11855 16.2693 9.23067 16.454 9.42194 16.5991C9.58682 16.7112 9.79127 16.7508 10.0353 16.7178C11.2093 16.4936 12.4195 16.3814 13.666 16.3814C14.0287 16.3814 14.3882 16.3979 14.7443 16.4309C14.9686 16.4639 15.1697 16.3979 15.3478 16.233C15.5061 16.0879 15.6017 15.9032 15.6347 15.679C15.6677 15.4217 15.5951 15.2172 15.417 15.0655C15.2851 14.894 15.1071 14.7918 14.8828 14.7588C14.4937 14.739 14.0881 14.7291 13.666 14.7291C12.3074 14.7291 11.0048 14.8512 9.75829 15.0952ZM31.2952 26.0677C31.5194 26.0941 31.7272 26.0512 31.9184 25.939C32.1163 25.8005 32.2416 25.6224 32.2944 25.4048C32.3274 25.1805 32.2845 24.9661 32.1658 24.7617C31.3084 23.482 30.3125 22.275 29.1781 21.1405C29.0528 21.0283 28.9407 20.9162 28.8417 20.8041C28.6769 20.6392 28.4823 20.5567 28.2581 20.5567C28.0338 20.5567 27.8393 20.6392 27.6744 20.8041C27.5029 20.9756 27.4172 21.1734 27.4172 21.3977C27.4172 21.6154 27.5029 21.8099 27.6744 21.9814C27.7865 22.087 27.892 22.1958 27.991 22.3079C29.0792 23.3897 30.0124 24.5143 30.7906 25.6818C30.9028 25.8731 31.0709 26.0017 31.2952 26.0677Z" fill="#CCCCCC"/>
<path d="M31.928 36.7536C31.7499 36.6019 31.5455 36.5426 31.3146 36.5755C31.0904 36.5887 30.9057 36.6712 30.7606 36.8229C30.6024 37.0142 30.5364 37.2252 30.5628 37.4561C30.5694 37.6936 30.6617 37.8848 30.8398 38.03L34.6387 41.2653C34.8167 41.3972 35.0212 41.4599 35.252 41.4533C35.4895 41.4401 35.684 41.3444 35.8357 41.1664C35.9808 41.0015 36.0369 40.797 36.0039 40.5529C35.9841 40.3023 35.8951 40.111 35.7368 39.9791L31.928 36.7536Z" fill="#CCCCCC"/>
<path d="M38.9625 36.2392C38.7844 36.0941 38.5668 36.0347 38.3096 36.0611C38.0853 36.0611 37.9007 36.1502 37.7556 36.3283L34.5206 40.1276C34.3887 40.299 34.326 40.5134 34.3326 40.7707C34.359 40.9883 34.4546 41.1697 34.6195 41.3148C34.7844 41.4599 34.9889 41.516 35.2329 41.483C35.4835 41.483 35.6748 41.3874 35.8067 41.1961L39.0318 37.4067C39.1835 37.2286 39.2494 37.0241 39.2296 36.7933C39.1966 36.569 39.1076 36.3843 38.9625 36.2392Z" fill="#CCCCCC"/>
<path d="M69.2779 47.2394L69.2582 47.2197C69.2518 47.2197 69.2419 47.2197 69.2285 47.2197C69.2423 47.2201 69.2588 47.2267 69.2779 47.2394Z" fill="#AE6E4C"/>
<path d="M77.5083 40.1067C77.3104 39.8495 77.0664 39.5592 76.7762 39.236C76.0507 38.6952 75.256 38.3291 74.392 38.1378C73.5082 37.8806 72.4035 37.7519 71.0779 37.7519C69.0663 37.7519 66.9921 38.2862 64.8552 39.3548C62.9954 40.2716 61.6137 41.3468 60.7101 42.5802C60.5914 42.633 60.4958 42.7616 60.4232 42.9661C60.4032 42.9541 60.3867 42.9871 60.3737 43.065C60.288 43.2629 60.1891 43.5201 60.077 43.8368C60.0308 44.1797 59.9352 44.6052 59.7901 45.1131C59.7505 45.2714 59.7109 45.4561 59.6713 45.6671C59.5394 46.2476 59.4801 46.6368 59.4933 46.8346C59.4933 46.8478 59.4933 46.8643 59.4933 46.8841C59.4801 46.9896 59.4867 47.0952 59.5131 47.2007C59.5328 47.5041 59.5757 47.8108 59.6417 48.1209C59.7736 48.9124 60.0901 49.694 60.5914 50.4657C60.6573 49.1399 61.1817 47.9098 62.1644 46.7753C62.7645 46.0959 63.5098 45.4363 64.4002 44.7965C66.9921 42.9496 69.96 42.0229 73.3038 42.0163C74.4184 42.0229 75.4143 42.2504 76.2915 42.6989C76.8587 43.0749 77.2873 43.5135 77.5775 44.0148C77.6435 44.3512 77.6831 44.658 77.6963 44.935C77.6963 45.4825 77.5578 45.9607 77.2808 46.3696C77.5446 46.0794 77.815 45.6803 78.092 45.1724C78.27 44.836 78.4085 44.5491 78.5075 44.3117C78.5866 44.0808 78.6394 43.8829 78.6658 43.718C78.7383 43.0914 78.6592 42.4516 78.4283 41.7986C78.2832 41.3962 78.0821 40.984 77.8249 40.5618C77.7259 40.4365 77.6204 40.2848 77.5083 40.1067ZM60.0473 35.6841C59.9352 35.7171 59.8626 35.7566 59.8296 35.8028C59.4075 36.2711 59.1107 36.6372 58.9393 36.9011C58.7546 37.1583 58.5831 37.5046 58.4248 37.9399C58.2666 38.3621 58.2006 38.8996 58.227 39.5526C58.2138 39.8033 58.2303 40.0539 58.2764 40.3046C58.3424 40.5882 58.4314 40.8554 58.5436 41.106C58.5633 41.1324 58.5798 41.1621 58.593 41.1951C58.7447 41.4523 58.9459 41.7359 59.1965 42.0459C59.7505 40.5882 61.1751 39.269 63.4702 38.0883C66.2402 36.6504 68.9212 35.9314 71.5132 35.9314C72.8586 35.9182 74.1051 36.1986 75.2527 36.7724C76.4596 37.3727 77.0664 38.0685 77.073 38.8601C77.0664 38.8996 77.0631 38.9524 77.0631 39.0184C77.3269 38.7743 77.538 38.4907 77.6963 38.1675C77.716 38.0817 77.7358 37.9927 77.7556 37.9003C77.815 37.7354 77.8776 37.3958 77.9436 36.8813C78.0359 36.1029 77.97 35.4532 77.7457 34.9321C77.7127 34.8662 77.6831 34.8035 77.6567 34.7442C77.5248 34.5463 77.3698 34.3517 77.1917 34.1604C77.1917 34.1736 77.1917 34.1901 77.1917 34.2099C77.1455 34.1307 77.0895 34.0747 77.0235 34.0417C77.0169 34.0219 77.007 34.0054 76.9939 33.9922C76.9345 33.9263 76.8718 33.8702 76.8059 33.824C75.7375 32.8808 73.9699 32.4158 71.5033 32.429C69.6302 32.429 67.401 32.7555 64.8157 33.4085C62.1776 34.1142 60.5881 34.8728 60.0473 35.6841ZM59.2756 28.9067C59.2756 28.9133 59.2756 28.9232 59.2756 28.9364C59.1107 29.1672 58.9591 29.3684 58.8206 29.5399C58.5304 29.9818 58.3259 30.4436 58.2072 30.9251C58.0159 31.5451 57.9434 32.1189 57.9896 32.6466C57.9896 32.9434 58.0522 33.2996 58.1775 33.7152C58.2501 33.9922 58.3655 34.2923 58.5238 34.6155C58.5765 34.6815 58.6095 34.7475 58.6227 34.8134C60.1462 33.0655 61.8511 31.8749 63.7373 31.2417C65.6038 30.5953 67.7011 30.2556 70.0292 30.2226C72.364 30.1896 74.1843 30.4732 75.4901 31.0735C76.7234 31.6275 77.3401 32.2245 77.3401 32.8643C77.3401 33.1875 77.3203 33.5272 77.2808 33.8834C77.5248 33.6591 77.7127 33.3128 77.8446 32.8445C77.9568 32.363 78.0227 32.0662 78.0425 31.954L78.0623 31.8947C78.1744 31.0768 78.1282 30.3743 77.9238 29.7873C77.8908 29.6619 77.8414 29.5399 77.7754 29.4212C77.6897 29.1771 77.5578 28.9529 77.3797 28.7484C77.3137 28.6824 77.2445 28.6165 77.1719 28.5505C76.9741 28.3592 76.7366 28.1712 76.4596 27.9865C76.4003 27.9404 76.3508 27.9107 76.3112 27.8975C76.054 27.7326 75.7572 27.5776 75.4209 27.4325C74.0293 26.7531 72.0276 26.3507 69.4159 26.2254C66.7976 26.1067 64.5848 26.3738 62.7777 27.0268C60.9574 27.6996 59.7901 28.3262 59.2756 28.9067ZM61.462 21.1993C59.734 22.1029 58.659 23.1055 58.2369 24.207C57.8016 25.302 57.6631 26.1529 57.8214 26.7597C57.9533 27.3731 58.1379 27.848 58.3754 28.1844C58.4084 28.2042 58.4479 28.2306 58.4941 28.2636C58.6722 28.5142 58.8865 28.7055 59.1371 28.8374C59.0844 28.7781 59.0514 28.722 59.0382 28.6692C59.0184 28.6099 59.025 28.4483 59.058 28.1844C59.0712 28.1383 59.0778 28.0888 59.0778 28.036C59.1107 27.7986 59.2262 27.4688 59.424 27.0466C59.5493 26.8224 59.6713 26.6377 59.7901 26.4926C59.9615 26.3145 60.1462 26.1496 60.3441 25.9979C60.8123 25.6615 61.3235 25.3547 61.8775 25.0777C63.6252 24.2004 65.7093 23.7618 68.1298 23.7618C71.5198 23.7618 74.0787 24.4346 75.8067 25.7802C76.0178 25.9385 76.2024 26.1001 76.3607 26.265C77.0466 26.918 77.4291 27.5809 77.5083 28.2537C77.8183 27.9041 77.9897 27.5974 78.0227 27.3335C78.2074 25.9748 77.9799 24.7611 77.3401 23.6925C76.918 23 76.3442 22.347 75.6187 21.7335C76.5487 21.938 77.3302 22.5613 77.9634 23.6035C78.6295 24.7446 78.8834 25.955 78.7251 27.2346C78.6724 27.6238 78.5569 28.0228 78.3789 28.4318C78.6361 28.722 78.8372 29.2695 78.9823 30.0742C79.1142 30.8525 79.1571 31.4429 79.1109 31.8452C79.0252 32.5576 78.7812 33.237 78.3789 33.8834C78.6097 34.2923 78.7944 34.7969 78.9329 35.3972C79.078 36.0304 79.1208 36.5943 79.0615 37.089C78.9955 37.6101 78.7614 38.2268 78.3591 38.9392C78.3525 38.9854 78.336 39.025 78.3096 39.0579C78.9032 39.7044 79.3253 40.5322 79.5759 41.5413C79.7936 42.4582 79.8463 43.3717 79.7342 44.282C79.5231 45.8848 78.6493 47.0193 77.1126 47.6855C75.7408 48.266 74.0194 48.4276 71.9485 48.1703C71.3021 48.0978 70.4217 47.7878 69.3071 47.2403H69.2774C69.2582 47.2275 69.2417 47.2209 69.2279 47.2205C69.1949 47.2007 69.1719 47.1842 69.1587 47.171C68.6047 46.9402 68.2386 46.6302 68.0605 46.241C67.9946 46.0497 67.9616 45.8353 67.9616 45.5979C67.9682 45.5319 67.9847 45.4495 68.0111 45.3505C67.9451 45.3967 67.8825 45.4363 67.8231 45.4693C67.7572 45.4891 67.6912 45.5154 67.6253 45.5484C67.0251 45.8848 66.5403 46.241 66.171 46.617C65.9402 46.9006 65.7456 47.1512 65.5873 47.3689C65.3895 47.6525 65.2608 47.9032 65.2015 48.1209C65.0102 48.5694 65.0399 49.0443 65.2905 49.5456C65.3301 49.6248 65.373 49.7006 65.4191 49.7732C65.4389 49.8061 65.4554 49.8358 65.4686 49.8622C65.8709 50.4756 67.1009 51.1154 69.1587 51.7816C71.2098 52.4083 73.2642 52.7579 75.322 52.8304C77.3731 52.9096 79.5231 52.2269 81.7721 50.7824C83.9947 49.3246 85.3897 47.5041 85.9568 45.3209C85.97 45.2285 85.9832 45.1428 85.9964 45.0636C86.069 45.9013 86.069 46.6598 85.9964 47.3392C85.8843 48.2099 85.6996 49.0179 85.4424 49.7633C85.9437 49.605 86.5174 49.4599 87.1638 49.3279C88.9973 48.9454 90.989 48.7541 93.1391 48.7541C94.7286 48.7541 96.4038 48.8431 98.1647 49.0212C99.6684 49.1795 100.859 49.3708 101.736 49.5951C104.552 50.3932 105.974 48.2396 106 43.1343C106.006 38.0224 104.809 35.4829 102.409 35.5159C102.165 35.5489 101.914 35.5753 101.657 35.595C99.5992 35.7863 96.8061 35.882 93.2776 35.882C91.3056 35.882 89.9734 35.7698 89.2809 35.5456C89.2479 35.8952 89.2083 36.2513 89.1622 36.6141C89.0896 37.3397 88.7499 38.5435 88.1432 40.2254C88.3213 39.2558 88.3377 38.0751 88.1926 36.6834C87.942 34.0648 87.4441 31.8947 86.6988 30.1731C85.947 28.4582 84.8884 26.542 83.5232 24.4247C82.1646 22.3865 81.2511 20.6683 80.7828 19.2699C80.0508 17.0207 79.8727 14.4087 80.2486 11.4339C80.4465 9.84423 80.8983 8.14576 81.604 6.33845C81.6106 6.30547 81.6303 6.26589 81.6633 6.21972C81.6765 6.16695 81.6963 6.10759 81.7227 6.04163C81.7556 5.63927 81.881 5.14787 82.0986 4.56742C82.4218 3.80229 82.6163 3.13939 82.6823 2.57873C82.7878 1.81359 82.7449 1.25293 82.5537 0.896744C82.4613 0.659288 82.2998 0.497686 82.0689 0.411938C81.937 0.345978 81.7985 0.306402 81.6534 0.29321C81.5545 0.280018 81.4094 0.303104 81.2181 0.362468C80.9477 0.448216 80.6872 0.593328 80.4366 0.797804C79.6979 1.12101 78.9164 1.6388 78.092 2.35116C76.9576 3.30759 76.0507 4.48827 75.3714 5.89322C74.7185 7.2454 74.2799 8.81525 74.0557 10.6028C73.8446 12.3243 73.8776 13.815 74.1546 15.0749C74.4646 16.4468 74.547 18.3267 74.4019 20.7144C74.3821 20.754 74.3722 20.7903 74.3722 20.8233C74.3261 20.7903 74.2799 20.7672 74.2337 20.754C72.7234 19.9493 70.6525 19.5964 68.021 19.6954C65.3829 19.7877 63.1965 20.289 61.462 21.1993Z" fill="#F7BA7F"/>
<path d="M77.0609 39.1063C77.0609 39.0601 77.0609 39.0304 77.0609 39.0172C77.0609 38.9513 77.0642 38.8985 77.0708 38.8589C77.0642 38.0674 76.4574 37.3715 75.2505 36.7713C74.1029 36.1974 72.8564 35.9171 71.511 35.9303C68.919 35.9303 66.238 36.6493 63.468 38.0872C61.1729 39.2679 59.7483 40.5871 59.1943 42.0448C59.5107 42.3348 59.9196 42.6415 60.421 42.9649C60.4935 42.7605 60.5892 42.6318 60.7079 42.5791C61.6114 41.3456 62.9932 40.2705 64.853 39.3536C66.9899 38.2851 69.0641 37.7508 71.0757 37.7508C72.4013 37.7508 73.506 37.8794 74.3898 38.1367C75.2538 38.3279 76.0485 38.694 76.774 39.2349C76.807 39.2613 76.8334 39.2778 76.8531 39.2844C76.9323 39.2184 77.0015 39.159 77.0609 39.1063ZM85.9942 45.0625C85.981 45.1416 85.9678 45.2274 85.9546 45.3197C85.3874 47.503 83.9925 49.3235 81.7699 50.7812C79.5209 52.2257 77.3709 52.9084 75.3197 52.8293C73.262 52.7567 71.2076 52.4071 69.1564 51.7805C67.0987 51.1143 65.8687 50.4745 65.4664 49.8611C65.4532 49.8347 65.4367 49.805 65.4169 49.772C65.3708 49.6995 65.3279 49.6236 65.2883 49.5444C65.0377 49.0432 65.008 48.5682 65.1993 48.1197C65.2586 47.902 65.3872 47.6514 65.5851 47.3678C65.7434 47.1501 65.9379 46.8994 66.1688 46.6158C66.5381 46.2398 67.0229 45.8837 67.623 45.5473C67.689 45.5143 67.7549 45.4879 67.8209 45.4681C67.8803 45.4351 67.9429 45.3956 68.0089 45.3494C67.9825 45.4483 67.966 45.5308 67.9594 45.5967C67.9594 45.8342 67.9924 46.0486 68.0583 46.2398C68.2364 46.629 68.6024 46.939 69.1564 47.1699C69.1696 47.1831 69.1927 47.1996 69.2257 47.2194C69.2391 47.2194 69.249 47.2194 69.2554 47.2194L69.2752 47.2391H69.3048C70.1424 47.5492 71.0625 47.7371 72.065 47.8031C73.0543 47.8691 74.3271 47.6745 75.8836 47.2194C76.3849 47.0413 76.7872 46.8071 77.0906 46.5169C77.1697 46.4509 77.2324 46.4014 77.2785 46.3685C77.5555 45.9595 77.694 45.4813 77.694 44.9338C77.6808 44.6568 77.6413 44.3501 77.5753 44.0137C77.2851 43.5124 76.8564 43.0738 76.2892 42.6978C75.4121 42.2493 74.4162 42.0217 73.3016 42.0151C69.9578 42.0217 66.9899 42.9484 64.398 44.7953C63.5076 45.4351 62.7623 46.0947 62.1621 46.7741C61.1795 47.9086 60.6551 49.1388 60.5892 50.4646C61.1498 51.3748 61.9676 52.2092 63.0426 52.9678C64.6453 53.8912 66.7162 54.6366 69.2554 55.2038C71.7946 55.7843 74.7525 55.6557 78.1293 54.818C81.5127 53.9869 83.9497 52.3016 85.4402 49.7621C85.6974 49.0168 85.8821 48.2088 85.9942 47.3381C86.0667 46.6587 86.0667 45.9002 85.9942 45.0625ZM73.6676 45.3494C73.6544 45.4417 73.6313 45.544 73.5984 45.6561C73.1763 46.4015 72.3683 46.7016 71.1746 46.5565C71.1218 46.5565 71.079 46.5499 71.046 46.5367C71.8902 46.3124 72.2892 46.1178 72.243 45.9529C72.2101 45.788 72.0946 45.6099 71.8968 45.4186C71.666 45.2076 71.3824 45.0789 71.046 45.0328C70.7228 44.9998 70.1655 45.0229 69.3741 45.102C68.9322 45.1482 68.5827 45.1911 68.3254 45.2307C69.539 44.6964 70.7855 44.5084 72.065 44.6667C72.7113 44.7524 73.2224 44.9734 73.5984 45.3296C73.6247 45.3428 73.6478 45.3494 73.6676 45.3494ZM82.0667 0.410791C82.2975 0.496539 82.4591 0.658142 82.5515 0.895598C82.7427 1.25178 82.7856 1.81244 82.6801 2.57758C82.6141 3.13824 82.4196 3.80114 82.0964 4.56628C81.8787 5.14672 81.7534 5.63813 81.7205 6.04048C81.6941 6.10644 81.6743 6.16581 81.6611 6.21858C81.6281 6.26475 81.6083 6.30432 81.6017 6.3373C80.896 8.14461 80.4443 9.84308 80.2464 11.4327C79.8705 14.4075 80.0486 17.0195 80.7806 19.2688C81.2489 20.6671 82.1623 22.3854 83.521 24.4236C84.8862 26.5409 85.9447 28.457 86.6966 30.172C87.4419 31.8935 87.9398 34.0636 88.1904 36.6822C88.3355 38.074 88.319 39.2547 88.141 40.2243C88.7477 38.5423 89.0874 37.3385 89.1599 36.613C89.2061 36.2502 89.2457 35.894 89.2787 35.5444C89.4435 33.4535 89.2885 31.6561 88.8137 30.1522C88.4246 28.8726 87.6331 27.4874 86.4394 25.9967C84.6455 23.6815 83.5836 22.2766 83.2539 21.7819C82.8384 21.142 82.4657 20.466 82.136 19.7536C81.4896 18.0386 81.1665 16.3105 81.1665 14.5691C81.1665 12.0297 82.1459 8.69538 84.1047 4.56628C84.2497 4.24307 84.3948 3.92646 84.5399 3.61645C84.5399 3.59666 84.5432 3.57028 84.5498 3.5373C84.629 2.81174 84.5465 2.16863 84.3025 1.60797C83.9793 0.921982 83.4187 0.522923 82.6207 0.410791C82.4426 0.391003 82.258 0.391003 82.0667 0.410791ZM59.8274 35.8017C59.8604 35.7555 59.9329 35.7159 60.0451 35.6829C60.5859 34.8716 62.1753 34.1131 64.8135 33.4073C67.3988 32.7543 69.628 32.4278 71.5011 32.4278C73.9677 32.4146 75.7352 32.8796 76.8037 33.8229C76.8696 33.869 76.9323 33.9251 76.9916 33.9911C77.0048 34.0043 77.0147 34.0207 77.0213 34.0405C77.0873 34.0735 77.1433 34.1296 77.1895 34.2087C77.1895 34.1889 77.1895 34.1725 77.1895 34.1593C77.1565 34.1065 77.1137 34.0636 77.0609 34.0306C77.1268 33.9713 77.1994 33.9218 77.2785 33.8822C77.3181 33.526 77.3379 33.1864 77.3379 32.8631C77.3379 32.2233 76.7212 31.6264 75.4879 31.0723C74.1821 30.4721 72.3618 30.1885 70.027 30.2214C67.6989 30.2544 65.6016 30.5941 63.7351 31.2405C61.8489 31.8737 60.144 33.0643 58.6205 34.8123C58.9239 35.4389 59.3262 35.7687 59.8274 35.8017ZM61.8753 25.0766C61.3213 25.3536 60.8101 25.6603 60.3419 25.9967C60.144 26.1484 59.9593 26.3133 59.7878 26.4914C59.6691 26.6365 59.5471 26.8212 59.4218 27.0455C59.224 27.4676 59.1085 27.7974 59.0756 28.0349C59.0756 28.0876 59.069 28.1371 59.0558 28.1833C59.0228 28.4471 59.0162 28.6087 59.036 28.6681C59.0492 28.7209 59.0822 28.7769 59.1349 28.8363C59.1811 28.8429 59.2272 28.866 59.2734 28.9055C59.7878 28.3251 60.9552 27.6985 62.7755 27.0257C64.5826 26.3727 66.7953 26.1055 69.4137 26.2243C72.0254 26.3496 74.0271 26.7519 75.4187 27.4313C75.755 27.5764 76.0518 27.7315 76.309 27.8964C76.3486 27.9095 76.3981 27.9392 76.4574 27.9854C76.7344 28.1701 76.9719 28.3581 77.1697 28.5494C77.2423 28.6153 77.3115 28.6813 77.3775 28.7472C77.3445 28.6747 77.2884 28.6021 77.2093 28.5296C77.3082 28.424 77.4071 28.3317 77.5061 28.2525C77.4269 27.5797 77.0444 26.9168 76.3585 26.2638C76.2002 26.0989 76.0155 25.9373 75.8045 25.779C74.0765 24.4335 71.5176 23.7607 68.1276 23.7607C65.7071 23.7607 63.623 24.1993 61.8753 25.0766Z" fill="#E8A06F"/>
<path d="M73.6011 45.6576C73.634 45.5455 73.6571 45.4433 73.6703 45.3509C73.6505 45.3509 73.6274 45.3443 73.6011 45.3311C73.2251 44.975 72.714 44.754 72.0677 44.6682C70.7882 44.5099 69.5417 44.6979 68.3281 45.2322C68.5853 45.1926 68.9349 45.1498 69.3768 45.1036C70.1682 45.0244 70.7255 45.0013 71.0487 45.0343C71.385 45.0805 71.6686 45.2091 71.8995 45.4202C72.0973 45.6115 72.2127 45.7896 72.2457 45.9545C72.2919 46.1194 71.8929 46.3139 71.0487 46.5382C71.0817 46.5514 71.1245 46.558 71.1773 46.558C72.371 46.7031 73.179 46.403 73.6011 45.6576Z" fill="#C17F5D"/>
<path d="M77.9634 23.6029C77.3303 22.5607 76.5487 21.9374 75.6188 21.7329C76.3443 22.3464 76.9181 22.9994 77.3402 23.6919C77.9799 24.7605 78.2075 25.9742 78.0228 27.3329C77.9898 27.5968 77.8183 27.9035 77.5084 28.2531C77.4094 28.3322 77.3105 28.4246 77.2116 28.5301C77.2907 28.6027 77.3468 28.6752 77.3798 28.7478C77.5578 28.9523 77.6897 29.1765 77.7755 29.4206C77.8414 29.5393 77.8909 29.6613 77.9239 29.7866C78.1283 30.3737 78.1745 31.0762 78.0624 31.8941L78.0426 31.9534C78.0228 32.0656 77.9568 32.3624 77.8447 32.8439C77.7128 33.3122 77.5249 33.6585 77.2808 33.8828C77.2017 33.9223 77.1291 33.9718 77.0632 34.0312C77.1159 34.0642 77.1588 34.107 77.1918 34.1598C77.3699 34.3511 77.5249 34.5457 77.6568 34.7435C77.6831 34.8029 77.7128 34.8656 77.7458 34.9315C77.97 35.4526 78.036 36.1023 77.9437 36.8807C77.8777 37.3951 77.815 37.7348 77.7557 37.8997C77.7359 37.9921 77.7161 38.0811 77.6963 38.1669C77.538 38.4901 77.327 38.7737 77.0632 39.0178C77.0632 39.031 77.0632 39.0606 77.0632 39.1068C77.0038 39.1596 76.9346 39.2189 76.8554 39.2849C76.8356 39.2783 76.8093 39.2618 76.7763 39.2354C77.0665 39.5586 77.3105 39.8489 77.5084 40.1061C77.6205 40.2842 77.726 40.4359 77.8249 40.5612C78.0822 40.9834 78.2833 41.3956 78.4284 41.798C78.6592 42.451 78.7384 43.0908 78.6658 43.7174C78.6395 43.8823 78.5867 44.0802 78.5075 44.3111C78.4086 44.5485 78.2701 44.8354 78.092 45.1718C77.815 45.6797 77.5446 46.0788 77.2808 46.369C77.2347 46.402 77.172 46.4515 77.0929 46.5174C76.7895 46.8076 76.3872 47.0418 75.8859 47.2199C74.3294 47.675 73.0565 47.8696 72.0673 47.8036C71.0648 47.7377 70.1447 47.5497 69.3071 47.2397C70.4217 47.7872 71.3022 48.0972 71.9485 48.1697C74.0195 48.427 75.7408 48.2654 77.1126 47.6849C78.6493 47.0187 79.5232 45.8842 79.7343 44.2814C79.8464 43.3711 79.7936 42.4576 79.576 41.5407C79.3254 40.5315 78.9033 39.7037 78.3097 39.0573C78.3361 39.0244 78.3526 38.9848 78.3592 38.9386C78.7615 38.2262 78.9956 37.6095 79.0616 37.0884C79.1209 36.5937 79.078 36.0298 78.9329 35.3966C78.7944 34.7963 78.6098 34.2917 78.3789 33.8828C78.7813 33.2364 79.0253 32.557 79.111 31.8446C79.1572 31.4422 79.1143 30.8519 78.9824 30.0736C78.8373 29.2689 78.6362 28.7214 78.3789 28.4312C78.557 28.0222 78.6724 27.6232 78.7252 27.234C78.8835 25.9544 78.6296 24.744 77.9634 23.6029Z" fill="#D7905F"/>
<path d="M28.9596 66.9993C28.8606 66.9664 28.765 66.94 28.6727 66.9202C28.732 66.9664 28.8013 67.0158 28.8804 67.0686C29.0123 67.1939 29.1673 67.372 29.3454 67.6029C29.6422 68.025 29.7906 68.5197 29.7906 69.087C29.8038 69.6542 29.7345 70.1127 29.5828 70.4622C29.5103 70.6074 29.4245 70.7525 29.3256 70.8976C29.3058 70.9042 29.2827 70.924 29.2564 70.9569C29.2168 70.9899 29.1838 71.0295 29.1574 71.0757C28.7023 71.544 28.1121 71.7551 27.3866 71.7089C27.1426 71.6891 26.8985 71.6231 26.6545 71.511C26.2126 71.2801 25.9191 70.9668 25.774 70.5711C25.7279 70.4326 25.6982 70.3336 25.685 70.2743C25.6322 69.9972 25.6289 69.7202 25.6751 69.4432C25.7279 69.1068 25.8664 68.8264 26.0906 68.6022C26.2225 68.4702 26.361 68.3647 26.5061 68.2856C26.5523 68.2658 26.5952 68.2427 26.6347 68.2163C26.8062 68.1635 26.981 68.1306 27.1591 68.1174H27.1689C27.2283 68.1174 27.2811 68.124 27.3272 68.1372C27.6372 68.1833 27.9076 68.3614 28.1385 68.6714C28.3627 68.9946 28.4418 69.3508 28.3759 69.74C28.3297 69.9181 28.2506 70.0731 28.1385 70.205C28.1319 70.2314 28.1286 70.2545 28.1286 70.2743C27.9703 70.4392 27.7922 70.5216 27.5943 70.5216C27.3701 70.5216 27.192 70.4392 27.0601 70.2743C27.0337 70.2413 27.0107 70.2149 26.9909 70.1951C26.9249 70.083 26.8952 69.9774 26.9018 69.8785C26.9018 69.8059 26.9315 69.7367 26.9909 69.6707C26.9909 69.7829 27.0469 69.8884 27.1591 69.9873C27.2712 70.0995 27.4196 70.139 27.6042 70.1061C27.8944 70.0533 28.0527 69.8323 28.0791 69.4432C28.0791 69.2717 28.0329 69.12 27.9406 68.988C27.8285 68.7968 27.6339 68.6681 27.3569 68.6022C27.0469 68.6154 26.7864 68.7275 26.5754 68.9386C26.3841 69.1364 26.2885 69.4102 26.2885 69.7598C26.2885 69.9379 26.3215 70.1094 26.3874 70.2743C26.4204 70.3534 26.4698 70.4359 26.5358 70.5216C26.5622 70.5546 26.5919 70.5942 26.6248 70.6403C26.8491 70.8844 27.1096 71.0064 27.4064 71.0064C27.9076 71.0394 28.3033 70.8778 28.5935 70.5216C28.6595 70.4359 28.7155 70.3534 28.7617 70.2743C28.8804 70.05 28.953 69.8224 28.9793 69.5916C29.0915 68.866 28.9167 68.2823 28.455 67.8403C27.967 67.3918 27.4064 67.2137 26.7732 67.3061C26.516 67.339 26.2753 67.405 26.051 67.5039C25.4113 67.8601 24.9628 68.4043 24.7056 69.1364C24.6397 69.3805 24.6067 69.6377 24.6067 69.9082C24.5935 69.9544 24.5869 69.9939 24.5869 70.0269C24.5869 70.205 24.5968 70.3699 24.6166 70.5216C24.7155 71.3263 25.0552 72.0189 25.6355 72.5993C25.9125 72.8896 26.3149 73.127 26.8425 73.3117C27.3635 73.503 27.9802 73.5887 28.6925 73.569C29.3388 73.536 29.8631 73.4008 30.2654 73.1633C30.2984 73.1303 30.338 73.0973 30.3841 73.0644C30.3841 73.1105 30.3841 73.1501 30.3841 73.1831C30.3578 73.2293 30.3347 73.2721 30.3149 73.3117C30.3017 73.3117 30.2951 73.3183 30.2951 73.3315C30.2423 73.3843 30.1764 73.4568 30.0972 73.5492C30.0511 73.5953 30.0016 73.6382 29.9489 73.6778C29.7378 73.8493 29.4905 73.9911 29.2069 74.1032C29.1541 74.1098 29.1014 74.1263 29.0486 74.1527C28.8771 74.1857 28.7023 74.2187 28.5243 74.2516C28.4122 74.2714 28.3 74.2813 28.1879 74.2813C28.0692 74.2945 27.9472 74.3011 27.8219 74.3011C27.8021 74.3011 27.7856 74.3011 27.7724 74.3011C27.7394 74.3011 27.7131 74.3011 27.6933 74.3011H27.6735C26.6644 74.3011 25.7971 73.9515 25.0716 73.2524L25.0321 73.193C24.9991 73.16 24.9628 73.1237 24.9233 73.0842C24.8177 72.9786 24.7287 72.8731 24.6561 72.7675C24.6298 72.7412 24.6133 72.7247 24.6067 72.7181C24.6067 72.7049 24.6001 72.6983 24.5869 72.6983V72.6785C24.5605 72.6587 24.544 72.6356 24.5374 72.6092C24.5242 72.5763 24.5077 72.5565 24.488 72.5499L24.3989 72.4114V72.4312C24.7353 73.4997 25.4278 74.5221 26.4764 75.4983C26.5094 75.5247 26.5358 75.5544 26.5556 75.5873C27.5449 76.4778 28.4122 77.1176 29.1574 77.5068C29.474 77.6717 29.7642 77.7871 30.028 77.8531C30.061 77.8663 30.0907 77.8795 30.117 77.8926C30.183 77.8992 30.2489 77.9157 30.3149 77.9421V77.9223C30.3281 77.9355 30.338 77.9421 30.3446 77.9421H30.3841C30.4369 77.9157 30.5029 77.8992 30.582 77.8926C30.615 77.8795 30.6414 77.8663 30.6611 77.8531C30.9381 77.7871 31.2283 77.6717 31.5317 77.5068C32.2902 77.1176 33.1575 76.4778 34.1336 75.5873C34.1665 75.5544 34.1962 75.5247 34.2226 75.4983C35.568 74.2319 36.3199 72.9028 36.4782 71.511C36.5178 71.168 36.5375 70.8382 36.5375 70.5216C36.5046 69.5586 36.2539 68.7539 35.7857 68.1075C35.601 67.837 35.3966 67.6128 35.1723 67.4347L35.1525 67.4149C34.8755 67.2038 34.5689 67.0488 34.2325 66.9499C34.2325 66.9433 34.2292 66.94 34.2226 66.94C34.1105 66.9136 33.9918 66.8905 33.8665 66.8707C33.7543 66.8377 33.6389 66.8212 33.5202 66.8212C33.4411 66.8081 33.3619 66.8015 33.2828 66.8015H33.2531C33.2399 66.8015 33.2168 66.8015 33.1838 66.8015H33.1641C33.0915 66.8015 33.0091 66.8015 32.9167 66.8015C32.4814 66.8147 32.0857 66.8806 31.7296 66.9993C31.4724 67.0917 31.2448 67.2038 31.047 67.3357C31.014 67.3489 30.9909 67.3654 30.9777 67.3852C30.9579 67.3984 30.9381 67.4083 30.9184 67.4149C30.8458 67.4743 30.7832 67.5303 30.7304 67.5831L30.7106 67.6029C30.671 67.6227 30.6381 67.649 30.6117 67.682C30.5919 67.7084 30.5688 67.7282 30.5424 67.7414C30.4897 67.8139 30.4369 67.8898 30.3841 67.969L30.3644 67.9887L30.3446 67.969C30.2325 67.8238 30.1566 67.7282 30.117 67.682C29.9719 67.5303 29.8038 67.4083 29.6125 67.3159C29.5993 67.2962 29.5828 67.2797 29.563 67.2665C29.3718 67.1543 29.1706 67.0653 28.9596 66.9993Z" fill="white"/>
<defs>
<linearGradient id="paint0_linear" x1="32.9533" y1="65.5418" x2="32.9533" y2="65.5621" gradientUnits="userSpaceOnUse">
<stop stop-color="#B1764A"/>
<stop offset="1" stop-color="#925331"/>
</linearGradient>
<linearGradient id="paint1_linear" x1="43.6054" y1="50.8548" x2="31.1385" y2="56.8912" gradientUnits="userSpaceOnUse">
<stop offset="0.145098" stop-color="#FACA51"/>
<stop offset="0.266667" stop-color="#FBD661"/>
<stop offset="0.364706" stop-color="#FFFF99"/>
<stop offset="0.486275" stop-color="#FDF992"/>
<stop offset="0.584314" stop-color="#F3E176"/>
<stop offset="0.788235" stop-color="#DEAE3B"/>
</linearGradient>
<linearGradient id="paint2_linear" x1="45.445" y1="50.2986" x2="32.9913" y2="56.3286" gradientUnits="userSpaceOnUse">
<stop offset="0.145098" stop-color="#FACF58"/>
<stop offset="0.266667" stop-color="#FBD661"/>
<stop offset="0.364706" stop-color="#FFFF99"/>
<stop offset="0.486275" stop-color="#FDF992"/>
<stop offset="0.584314" stop-color="#F3E176"/>
<stop offset="0.788235" stop-color="#DEAE3B"/>
</linearGradient>
</defs>
</svg>
