<svg width="115" height="92" viewBox="0 0 115 92" fill="none" xmlns="http://www.w3.org/2000/svg">
<path d="M28.4976 68.0438C28.3757 67.7999 28.3577 67.5667 28.4438 67.3443C28.5371 67.1076 28.7057 66.9282 28.9497 66.8063C29.1577 66.6843 29.3837 66.67 29.6277 66.7632C31.2851 67.3372 33.0501 67.6959 34.9227 67.8394C35.1667 67.8752 35.3675 67.9828 35.5254 68.1622C35.7048 68.3487 35.7837 68.5747 35.7622 68.8401C35.7263 69.084 35.6187 69.2849 35.4393 69.4428C35.2528 69.6221 35.0411 69.6938 34.8043 69.658C32.7667 69.5145 30.8438 69.1199 29.0358 68.4743C28.799 68.3882 28.6196 68.2447 28.4976 68.0438ZM13.9471 52.7093C13.861 52.4438 13.8897 52.1999 14.0332 51.9775C14.1551 51.7767 14.3381 51.6439 14.5821 51.5794C14.826 51.4861 15.0556 51.5184 15.2708 51.6762C15.4789 51.7982 15.6296 51.9739 15.7229 52.2035C16.1749 53.8751 16.817 55.4534 17.6493 56.9384C17.7856 57.1464 17.8358 57.3724 17.8 57.6163C17.6995 57.8531 17.5453 58.0288 17.3372 58.1436C17.1363 58.2728 16.9139 58.3194 16.6699 58.2835C16.426 58.1903 16.243 58.0396 16.1211 57.8316C15.1525 56.2317 14.4278 54.5243 13.9471 52.7093ZM15.4323 37.4286C15.1883 37.321 15.0448 37.1452 15.0018 36.9013C14.8655 36.6645 14.8655 36.435 15.0018 36.2126C15.7264 34.5195 16.6879 32.9053 17.8861 31.3701C18.0296 31.1477 18.2412 31.0257 18.521 31.0042C18.765 30.9827 18.9766 31.0437 19.156 31.1871C19.3784 31.3306 19.5004 31.5423 19.5219 31.8221C19.5434 32.066 19.4825 32.2884 19.339 32.4892C18.2484 33.881 17.3587 35.3589 16.6699 36.9228C16.548 37.1667 16.365 37.3353 16.1211 37.4286C15.8843 37.529 15.6547 37.529 15.4323 37.4286ZM13.3982 41.6146C13.4341 41.3348 13.556 41.134 13.7641 41.012C13.9435 40.8685 14.1659 40.8255 14.4314 40.8829C14.6753 40.9187 14.8762 41.0407 15.0341 41.2487C15.156 41.4281 15.1991 41.6505 15.1632 41.9159C14.9193 43.1929 14.7973 44.5094 14.7973 45.8652C14.7973 46.2598 14.8152 46.6508 14.8511 47.0382C14.887 47.2821 14.8152 47.5009 14.6359 47.6946C14.478 47.8668 14.2771 47.9708 14.0332 48.0067C13.7534 48.0426 13.5309 47.9637 13.3659 47.77C13.1794 47.6265 13.0682 47.4328 13.0323 47.1889C13.0108 46.7656 13 46.3244 13 45.8652C13 44.3874 13.1327 42.9705 13.3982 41.6146ZM25.3335 65.0415C25.3622 65.2854 25.3156 65.5114 25.1936 65.7194C25.043 65.9346 24.8492 66.0709 24.6125 66.1283C24.3685 66.1642 24.1353 66.1176 23.9129 65.9884C22.521 65.0558 21.208 63.9725 19.9739 62.7386C19.852 62.6023 19.73 62.4803 19.608 62.3727C19.4287 62.1934 19.339 61.9817 19.339 61.7378C19.339 61.4939 19.4287 61.2823 19.608 61.1029C19.7946 60.9164 20.0098 60.8231 20.2538 60.8231C20.4905 60.8231 20.7022 60.9164 20.8887 61.1029C21.0035 61.2249 21.1219 61.3397 21.2439 61.4473C22.4206 62.631 23.6439 63.6461 24.9138 64.4927C25.1219 64.6146 25.2618 64.7976 25.3335 65.0415Z" fill="#CCCCCC"/>
<path d="M36.9571 65.7297C36.7921 65.536 36.7275 65.3136 36.7634 65.0625C36.7777 64.8186 36.8674 64.6177 37.0324 64.4599C37.2405 64.2877 37.4701 64.2159 37.7212 64.2446C37.9795 64.2518 38.1876 64.3523 38.3454 64.546L41.8647 68.6782C42.0082 68.8719 42.0764 69.0943 42.0692 69.3454C42.0548 69.6037 41.9508 69.8153 41.7571 69.9803C41.5777 70.1381 41.3553 70.1991 41.0898 70.1632C40.8172 70.1417 40.6091 70.0449 40.4656 69.8727L36.9571 65.7297Z" fill="#CCCCCC"/>
<path d="M36.3981 73.3825C36.2403 73.1888 36.1757 72.952 36.2044 72.6722C36.2044 72.4283 36.3012 72.2274 36.495 72.0696L40.6277 68.5507C40.8142 68.4073 41.0474 68.3391 41.3272 68.3463C41.564 68.375 41.7613 68.479 41.9191 68.6583C42.077 68.8377 42.138 69.0601 42.1021 69.3255C42.1021 69.5981 41.9981 69.8062 41.79 69.9497L37.668 73.4578C37.4743 73.6228 37.2519 73.6945 37.0008 73.673C36.7568 73.6371 36.5559 73.5403 36.3981 73.3825Z" fill="#CCCCCC"/>
<path fill-rule="evenodd" clip-rule="evenodd" d="M53.4181 22.7803H53.4038L53.2614 22.8946C52.6535 23.3235 51.4711 23.7142 49.7141 24.0668C46.9979 24.6099 43.7308 24.8815 39.9129 24.8815C36.076 24.8815 32.809 24.6099 30.1117 24.0668C28.6777 23.7809 27.6235 23.4664 26.9492 23.1233C26.9397 23.1138 26.9254 23.109 26.9064 23.109C26.8019 23.0423 26.7022 22.9804 26.6072 22.9232C26.5028 22.847 26.4126 22.7803 26.3366 22.7231C26.2511 22.6373 26.1846 22.5563 26.1371 22.4801C26.0991 22.4039 26.0707 22.3276 26.0517 22.2514V22.2085V22.1656C26.0517 21.4128 27.4383 20.7838 30.2115 20.2788C32.9942 19.7547 36.4464 19.5069 40.5682 19.5355C44.6996 19.5641 47.9286 19.8214 50.2555 20.3074C52.4209 20.7553 53.5795 21.3175 53.7315 21.9941V22.3229C53.684 22.4658 53.5795 22.6183 53.4181 22.7803ZM54.1871 23.5951C54.1396 23.3663 53.9734 23.1519 53.6885 22.9518L53.6172 24.0668C53.5698 24.143 53.4985 24.224 53.4036 24.3098C52.8432 24.7862 51.6133 25.2151 49.7139 25.5962C46.9976 26.1394 43.7306 26.411 39.9127 26.411C38.3646 26.411 36.9115 26.3729 35.5534 26.2967C37.035 26.4206 38.64 26.4825 40.3685 26.4825C44.1864 26.4825 47.4535 26.2109 50.1697 25.6677C51.1574 25.4676 51.9647 25.258 52.5915 25.0388H52.6058C53.0806 24.8577 53.451 24.6767 53.717 24.4956L53.8594 24.3812C54.0304 24.2192 54.1396 24.0668 54.1871 23.9238V23.5951ZM26.5205 24.3954C26.454 24.3382 26.3922 24.2858 26.3353 24.2381C26.2593 24.1714 26.1975 24.0999 26.1501 24.0237C25.3238 24.3572 24.9107 24.7289 24.9107 25.1387V25.1815V25.2244C24.9297 25.3007 24.9582 25.3769 24.9961 25.4531C25.0436 25.5294 25.1101 25.6104 25.1956 25.6961C25.2431 25.7342 25.2953 25.7724 25.3523 25.8105C25.3808 25.8391 25.4188 25.8677 25.4663 25.8962C25.5707 25.963 25.6847 26.0297 25.8082 26.0964C26.4825 26.4394 27.5367 26.7539 28.9708 27.0398C30.3384 27.3161 31.8532 27.521 33.5152 27.6544C32.461 27.5306 31.478 27.3781 30.5663 27.197C29.1322 26.9016 28.078 26.5871 27.4037 26.2536C27.1568 26.1202 26.9526 25.982 26.7911 25.8391C26.7057 25.7628 26.6392 25.6818 26.5917 25.5961L26.5632 25.5389L26.5205 24.3954ZM24.9107 29.7558V29.7986C24.9297 29.8749 24.9582 29.9511 24.9961 30.0273C25.0436 30.1036 25.1101 30.1846 25.1956 30.2703C25.2716 30.3275 25.3618 30.3942 25.4663 30.4705C25.5707 30.5372 25.6847 30.6039 25.8082 30.6706C25.8556 30.6896 25.9031 30.7135 25.9506 30.7421C26.6249 31.0565 27.6316 31.3472 28.9708 31.614C29.6736 31.7569 30.4191 31.8761 31.2074 31.9714C30.59 31.8761 29.9965 31.7712 29.4266 31.6569C27.9925 31.3615 26.9383 31.047 26.264 30.7135C26.0171 30.5801 25.8129 30.4419 25.6515 30.2989C25.566 30.2227 25.4995 30.1417 25.452 30.0559L25.4235 29.9988L25.4093 29.6843C25.2478 29.6176 25.0959 29.5509 24.9534 29.4842C24.9249 29.5604 24.9107 29.6366 24.9107 29.7129V29.7558ZM52.1204 35.6024C51.5125 36.0312 50.3301 36.422 48.5731 36.7746C45.8569 37.3177 42.5898 37.5893 38.7719 37.5893C34.935 37.5893 31.668 37.3177 28.9708 36.7746C27.5367 36.4887 26.4825 36.1742 25.8082 35.8311C25.6847 35.7644 25.5707 35.6977 25.4663 35.631C25.3618 35.5548 25.2716 35.4881 25.1956 35.4309C25.1101 35.3451 25.0436 35.2641 24.9961 35.1879C24.9582 35.1116 24.9297 35.0354 24.9107 34.9592V34.9163V34.8734C24.9107 34.5875 25.1101 34.3207 25.509 34.0729C25.509 34.0825 25.5137 34.0872 25.5232 34.0872L25.5375 34.8019L25.566 34.8591C25.6135 34.9449 25.6799 35.0259 25.7654 35.1021C25.9269 35.2451 26.1311 35.3832 26.378 35.5167C27.0523 35.8502 28.1065 36.1647 29.5406 36.4601C32.2378 37.0033 35.5049 37.2749 39.3418 37.2749C43.1597 37.2749 46.4267 37.0033 49.143 36.4601C50.4536 36.1933 51.4461 35.9074 52.1204 35.6024ZM52.5905 31.5998C52.5715 31.5235 52.5382 31.4473 52.4908 31.371L52.4765 31.614C52.429 31.6903 52.3578 31.7713 52.2628 31.857C51.7025 32.3335 50.4726 32.7624 48.5731 33.1435C45.8569 33.6867 42.5898 33.9583 38.7719 33.9583C34.935 33.9583 31.668 33.6867 28.9708 33.1435C27.5367 32.8481 26.4825 32.5336 25.8082 32.2001C25.5612 32.0667 25.357 31.9285 25.1956 31.7856C25.1101 31.7093 25.0436 31.6283 24.9961 31.5426C24.9866 31.5235 24.9819 31.5092 24.9819 31.4997C24.9344 31.5855 24.9107 31.676 24.9107 31.7713V31.8142V31.857C24.9297 31.9333 24.9582 32.0095 24.9961 32.0858C25.0436 32.162 25.1101 32.243 25.1956 32.3288C25.2716 32.3859 25.3618 32.4526 25.4663 32.5289C25.5137 32.5575 25.566 32.5908 25.623 32.6289C25.6799 32.6575 25.7417 32.6909 25.8082 32.729C26.4825 33.0721 27.5367 33.3865 28.9708 33.6724C31.668 34.2156 34.935 34.4872 38.7719 34.4872C42.5898 34.4872 45.8569 34.2156 48.5731 33.6724C50.3301 33.3198 51.5125 32.9291 52.1204 32.5003L52.2628 32.3859C52.3673 32.2906 52.448 32.2001 52.505 32.1143C52.543 32.0476 52.5715 31.9857 52.5905 31.9285V31.5998ZM53.1619 32.8581V33.1869C53.1144 33.3298 53.0052 33.4823 52.8343 33.6443L52.6918 33.7586C52.5399 33.8635 52.3499 33.9683 52.122 34.0731C52.046 34.1112 51.97 34.1446 51.894 34.1732C52.0365 34.0874 52.16 34.0016 52.2644 33.9159C52.3594 33.8301 52.4306 33.7491 52.4781 33.6729L52.5778 32.1577C52.9102 32.3769 53.1049 32.6103 53.1619 32.8581ZM47.6625 28.8689C48.7641 28.6497 49.6426 28.4162 50.298 28.1685C49.8041 28.3019 49.2295 28.4353 48.5742 28.5687C45.858 29.1119 42.5909 29.3835 38.773 29.3835C34.9361 29.3835 31.6691 29.1119 28.9718 28.5687C27.5377 28.2733 26.4835 27.9588 25.8092 27.6253C25.5623 27.4919 25.3581 27.3537 25.1967 27.2108C25.1112 27.1345 25.0447 27.0535 24.9972 26.9678L24.9687 26.9106L24.9402 25.9815C24.3134 26.2864 24 26.6152 24 26.9678V27.0106V27.0535C24.019 27.1298 24.0475 27.206 24.0855 27.2822C24.133 27.3585 24.1994 27.4395 24.2849 27.5252C24.3609 27.5824 24.4511 27.6491 24.5556 27.7254C24.6601 27.7921 24.774 27.8588 24.8975 27.9255C25.04 28.0017 25.2014 28.0732 25.3819 28.1399C26.0372 28.3972 26.9299 28.6402 28.0601 28.8689C30.7573 29.4121 34.0244 29.6837 37.8613 29.6837C41.6792 29.6837 44.9462 29.4121 47.6625 28.8689ZM49.0294 30.1267L48.2886 30.2696C49.8366 29.9171 50.8576 29.5311 51.3515 29.1118C51.4464 29.026 51.5177 28.945 51.5651 28.8688L51.6506 27.6681C51.907 27.5442 52.1112 27.4156 52.2632 27.2821C52.2727 27.2726 52.2869 27.2631 52.3059 27.2536C52.7333 27.5013 52.9802 27.7682 53.0467 28.054V28.3828C52.9992 28.5257 52.89 28.6782 52.7191 28.8402L52.5766 28.9546C52.5006 29.0022 52.4246 29.0546 52.3487 29.1118C51.6839 29.4739 50.5774 29.8122 49.0294 30.1267Z" fill="#F3B33F"/>
<path fill-rule="evenodd" clip-rule="evenodd" d="M53.4036 22.8059H53.4178C53.5793 22.6446 53.6837 22.4929 53.7312 22.3506L53.6885 22.9766L53.6173 24.0864C53.5698 24.1623 53.4985 24.2429 53.4036 24.3282C52.8432 24.8025 51.6133 25.2293 49.7139 25.6087C46.9977 26.1494 43.7306 26.4197 39.9127 26.4197C38.3646 26.4197 36.9116 26.3818 35.5534 26.3059C37.035 26.4292 38.6401 26.4909 40.3686 26.4909C44.1865 26.4909 47.4535 26.2205 50.1698 25.6799C51.1575 25.4807 51.9647 25.272 52.5916 25.0539H52.6058C53.0807 24.8736 53.4511 24.6934 53.717 24.5132L53.8594 24.3994C54.0304 24.2381 54.1396 24.0864 54.1871 23.9441L54.0731 25.6799C54.0256 25.7558 53.9544 25.8364 53.8594 25.9218C53.5745 26.1589 53.1234 26.3865 52.5061 26.6047L52.4776 27.0458C52.4396 27.1122 52.3826 27.1833 52.3066 27.2592C52.2876 27.2687 52.2734 27.2781 52.2639 27.2876C52.1119 27.4204 51.9078 27.5485 51.6513 27.6718L51.5659 28.8669C51.5184 28.9428 51.4471 29.0234 51.3522 29.1088C50.8583 29.5261 49.8373 29.9103 48.2893 30.2612L49.0301 30.119C50.5781 29.8059 51.6846 29.4692 52.3494 29.1088C52.4254 29.0519 52.5013 28.9997 52.5773 28.9523L52.7198 28.8385C52.8907 28.6772 52.9999 28.5254 53.0474 28.3832L52.9335 30.119C52.886 30.1948 52.8147 30.2755 52.7198 30.3608C52.6723 30.4083 52.6153 30.4509 52.5488 30.4889L52.4918 31.3568L52.4776 31.5986C52.4301 31.6745 52.3589 31.7551 52.2639 31.8405C51.7036 32.3148 50.4737 32.7416 48.5742 33.121C45.858 33.6617 42.5909 33.932 38.773 33.932C34.9361 33.932 31.6691 33.6617 28.9718 33.121C27.5377 32.827 26.4835 32.514 25.8092 32.182C25.5623 32.0492 25.3581 31.9117 25.1967 31.7694C25.1112 31.6935 25.0447 31.6129 24.9972 31.5275C24.9877 31.5085 24.983 31.4943 24.983 31.4848L24.9687 31.4706L24.9117 29.7917C24.9307 29.8676 24.9592 29.9435 24.9972 30.0194C25.0447 30.0952 25.1112 30.1759 25.1967 30.2612C25.2726 30.3181 25.3629 30.3845 25.4673 30.4604C25.5718 30.5268 25.6858 30.5932 25.8092 30.6596C25.8567 30.6786 25.9042 30.7023 25.9517 30.7307C26.626 31.0438 27.6327 31.3331 28.9718 31.5986C29.6746 31.7409 30.4202 31.8595 31.2084 31.9543C30.5911 31.8595 29.9975 31.7551 29.4277 31.6413C27.9936 31.3473 26.9394 31.0343 26.2651 30.7023C26.0182 30.5695 25.814 30.432 25.6525 30.2897C25.5671 30.2138 25.5006 30.1332 25.4531 30.0478L25.4246 29.9909L25.4103 29.6779C25.2489 29.6115 25.0969 29.5451 24.9545 29.4787L24.8975 29.4502C24.6506 29.3175 24.4464 29.1799 24.2849 29.0376C24.1994 28.9618 24.133 28.8811 24.0855 28.7958L24.057 28.7389L24 27.06C24.019 27.1359 24.0475 27.2117 24.0855 27.2876C24.133 27.3635 24.1994 27.4441 24.2849 27.5295C24.3609 27.5864 24.4511 27.6528 24.5556 27.7287C24.6601 27.7951 24.774 27.8615 24.8975 27.9279C25.04 28.0038 25.2014 28.0749 25.3819 28.1413C26.0372 28.3974 26.9299 28.6393 28.0601 28.8669C30.7573 29.4076 34.0244 29.6779 37.8613 29.6779C41.6792 29.6779 44.9462 29.4076 47.6625 28.8669C48.7642 28.6488 49.6427 28.4164 50.298 28.1697C49.8041 28.3025 49.2295 28.4353 48.5742 28.5681C45.858 29.1088 42.5909 29.3791 38.773 29.3791C34.9361 29.3791 31.6691 29.1088 28.9718 28.5681C27.5377 28.2741 26.4835 27.9611 25.8092 27.6291C25.5623 27.4963 25.3581 27.3588 25.1967 27.2165C25.1112 27.1406 25.0447 27.06 24.9972 26.9746L24.9687 26.9177L24.9402 25.9929L24.9117 25.2388C24.9307 25.3147 24.9592 25.3906 24.9972 25.4665C25.0447 25.5424 25.1112 25.623 25.1967 25.7083C25.2441 25.7463 25.2964 25.7842 25.3534 25.8222C25.3819 25.8506 25.4198 25.8791 25.4673 25.9075C25.5718 25.9739 25.6858 26.0403 25.8092 26.1067C26.4835 26.4482 27.5377 26.7612 28.9718 27.0458C30.3394 27.3208 31.8542 27.5248 33.5163 27.6575C32.4621 27.5342 31.4791 27.3825 30.5674 27.2023C29.1333 26.9082 28.0791 26.5952 27.4048 26.2632C27.1578 26.1304 26.9537 25.9929 26.7922 25.8506C26.7067 25.7747 26.6402 25.6941 26.5928 25.6087L26.5643 25.5518L26.5215 24.4136C26.455 24.3567 26.3933 24.3045 26.3363 24.2571C26.2604 24.1907 26.1986 24.1196 26.1511 24.0437C26.1416 24.0342 26.1369 24.0247 26.1369 24.0152L26.1084 23.9583L26.0514 22.2794C26.0704 22.3553 26.0989 22.4312 26.1369 22.5071C26.1844 22.583 26.2509 22.6636 26.3363 22.749C26.4123 22.8059 26.5025 22.8723 26.607 22.9482C26.702 23.0051 26.8017 23.0667 26.9062 23.1331C26.9252 23.1331 26.9394 23.1379 26.9489 23.1473C27.6232 23.4888 28.6774 23.8018 30.1115 24.0864C32.8087 24.627 36.0758 24.8974 39.9127 24.8974C43.7306 24.8974 46.9977 24.627 49.7139 24.0864C51.4709 23.7354 52.6533 23.3465 53.2611 22.9197L53.4036 22.8059ZM52.505 32.0959C52.543 32.0295 52.5715 31.9679 52.5905 31.911L52.5762 32.1386L52.4765 33.6468C52.429 33.7226 52.3578 33.8033 52.2628 33.8886C52.1584 33.974 52.0349 34.0594 51.8924 34.1447C51.9684 34.1163 52.0444 34.0831 52.1204 34.0451C52.3483 33.9408 52.5382 33.8365 52.6902 33.7321L52.8327 33.6183C53.0036 33.4571 53.1128 33.3053 53.1603 33.163L53.0464 34.8988C52.9989 34.9747 52.9276 35.0553 52.8327 35.1407C52.7567 35.2071 52.6712 35.2735 52.5762 35.3399L52.4765 36.7342C52.429 36.8101 52.3578 36.8907 52.2628 36.9761C51.7025 37.4503 50.4726 37.8772 48.5731 38.2566C45.8569 38.7972 42.5898 39.0675 38.7719 39.0675C34.935 39.0675 31.668 38.7972 28.9708 38.2566C27.5367 37.9625 26.4825 37.6495 25.8082 37.3175C25.5612 37.1847 25.357 37.0472 25.1956 36.9049C25.1101 36.829 25.0436 36.7484 24.9961 36.663L24.9677 36.6061L24.9107 34.9273C24.9297 35.0031 24.9582 35.079 24.9961 35.1549C25.0436 35.2308 25.1101 35.3114 25.1956 35.3968C25.2716 35.4537 25.3618 35.5201 25.4663 35.596C25.5707 35.6624 25.6847 35.7288 25.8082 35.7952C26.4825 36.1366 27.5367 36.4496 28.9708 36.7342C31.668 37.2748 34.935 37.5452 38.7719 37.5452C42.5898 37.5452 45.8569 37.2748 48.5731 36.7342C50.3301 36.3832 51.5125 35.9943 52.1204 35.5675C51.4461 35.871 50.4536 36.1556 49.143 36.4212C46.4267 36.9618 43.1597 37.2322 39.3418 37.2322C35.5049 37.2322 32.2378 36.9618 29.5406 36.4212C28.1065 36.1271 27.0523 35.8141 26.378 35.4821C26.1311 35.3493 25.9269 35.2118 25.7654 35.0695C25.6799 34.9937 25.6135 34.913 25.566 34.8277L25.5375 34.7708L25.5232 34.0594C25.5137 34.0594 25.509 34.0546 25.509 34.0451C25.3855 33.9693 25.2811 33.8934 25.1956 33.8175C25.1101 33.7416 25.0436 33.661 24.9961 33.5756L24.9677 33.5187L24.9107 31.8398C24.9297 31.9157 24.9582 31.9916 24.9961 32.0675C25.0436 32.1434 25.1101 32.224 25.1956 32.3093C25.2716 32.3663 25.3618 32.4327 25.4663 32.5085C25.5137 32.537 25.566 32.5702 25.623 32.6081C25.6799 32.6366 25.7417 32.6698 25.8082 32.7077C26.4825 33.0492 27.5367 33.3622 28.9708 33.6468C31.668 34.1874 34.935 34.4577 38.7719 34.4577C42.5898 34.4577 45.8569 34.1874 48.5731 33.6468C50.3301 33.2958 51.5125 32.9069 52.1204 32.4801L52.2628 32.3663C52.3673 32.2714 52.448 32.1813 52.505 32.0959Z" fill="#D29119"/>
<path d="M52.6706 31.8833C52.6706 31.8649 52.6706 31.8511 52.6706 31.842C52.6706 31.7869 52.6601 31.7318 52.639 31.6767V31.9935C52.6495 31.9659 52.6548 31.943 52.6548 31.9246L52.6706 31.8833Z" fill="url(#paint0_linear)"/>
<path d="M53.1686 33.1557C53.1792 33.1281 53.1844 33.1052 53.1844 33.0868L53.2003 33.0455C53.2003 33.0271 53.2003 33.0134 53.2003 33.0042C53.2003 32.9491 53.1897 32.894 53.1686 32.8389V33.1557Z" fill="url(#paint1_linear)"/>
<path d="M53.0624 28.4048C53.073 28.3773 53.0782 28.3543 53.0782 28.3359L53.0941 28.2946C53.0941 28.2763 53.0941 28.2625 53.0941 28.2533C53.0941 28.1982 53.0835 28.1431 53.0624 28.088V28.4048Z" fill="url(#paint2_linear)"/>
<path d="M54.258 23.8591C54.258 23.8407 54.258 23.827 54.258 23.8178C54.258 23.7627 54.2475 23.7076 54.2264 23.6525V23.9693C54.2369 23.9417 54.2422 23.9188 54.2422 23.9004L54.258 23.8591Z" fill="url(#paint3_linear)"/>
<path d="M53.8029 22.3854C53.8134 22.3578 53.8187 22.3349 53.8187 22.3165L53.8346 22.2752C53.8346 22.2568 53.8346 22.2431 53.8346 22.2339C53.8346 22.1788 53.824 22.1237 53.8029 22.0686V22.3854Z" fill="url(#paint4_linear)"/>
<path d="M27.3085 20.9671C27.3085 20.9763 27.3085 20.99 27.3085 21.0084L27.3243 21.0497C27.3243 21.0681 27.3296 21.091 27.3402 21.1186V20.8018C27.3191 20.8569 27.3085 20.912 27.3085 20.9671Z" fill="url(#paint5_linear)"/>
<path d="M55.0309 21.0127C55.0119 21.0881 54.9834 21.1636 54.9455 21.2391C54.898 21.3146 54.8316 21.3947 54.7462 21.4797C54.6703 21.5363 54.5802 21.6023 54.4758 21.6778C54.3714 21.7438 54.2576 21.8098 54.1342 21.8759C53.4605 22.2155 52.4073 22.5268 50.9746 22.8099C48.2799 23.3476 45.0159 23.6165 41.1826 23.6165C37.3682 23.6165 34.1042 23.3476 31.3905 22.8099C29.6352 22.4608 28.4539 22.074 27.8466 21.6495C27.7992 21.6117 27.7517 21.574 27.7043 21.5363C27.5335 21.3759 27.4244 21.2249 27.377 21.0834L27.4908 22.8099C27.5383 22.8853 27.6094 22.9655 27.7043 23.0504C28.2641 23.5221 29.4929 23.9467 31.3905 24.324C34.1042 24.8618 37.3682 25.1307 41.1826 25.1307C45.0159 25.1307 48.2799 24.8618 50.9746 24.324C52.4073 24.0316 53.4605 23.7203 54.1342 23.3901C54.3809 23.258 54.5849 23.1212 54.7462 22.9797C54.8316 22.9042 54.898 22.824 54.9455 22.7391C54.955 22.7202 54.9644 22.7014 54.9739 22.6825L55.0309 21.0127Z" fill="#D29119"/>
<path d="M55.0309 20.9601C55.0309 20.9409 55.0309 20.9266 55.0309 20.917C55.0309 20.1589 53.6456 19.5257 50.875 19.0171C48.0949 18.4894 44.6458 18.2399 40.5279 18.2687C36.4004 18.2975 33.1744 18.5566 30.8497 19.0459C28.6864 19.4969 27.5288 20.063 27.377 20.7442V21.0753C27.4244 21.2192 27.5335 21.3727 27.7043 21.5358C27.7517 21.5742 27.7992 21.6126 27.8466 21.651C28.4539 22.0828 29.6352 22.4762 31.3905 22.8312C34.1042 23.3781 37.3682 23.6516 41.1826 23.6516C45.0159 23.6516 48.2799 23.3781 50.9746 22.8312C52.4073 22.5433 53.4605 22.2267 54.1342 21.8813C54.2576 21.8141 54.3714 21.7469 54.4758 21.6798C54.5802 21.603 54.6703 21.5358 54.7462 21.4783C54.8316 21.3919 54.898 21.3104 54.9455 21.2336C54.9834 21.1568 55.0119 21.0801 55.0309 21.0033C55.0309 20.9841 55.0309 20.9697 55.0309 20.9601Z" fill="#F3B33F"/>
<path d="M29.8737 19.5338V19.217C29.8526 19.2721 29.8421 19.3272 29.8421 19.3823C29.8421 19.3915 29.8421 19.4052 29.8421 19.4236L29.8579 19.4649C29.8579 19.4833 29.8632 19.5062 29.8737 19.5338Z" fill="url(#paint6_linear)"/>
<path d="M33.9241 21.2473C36.6378 21.7942 39.9018 22.0677 43.7161 22.0677C47.5494 22.0677 50.8134 21.7942 53.5081 21.2473C54.9409 20.9594 55.9941 20.6428 56.6678 20.2974C56.7911 20.2302 56.905 20.163 57.0094 20.0959C57.1137 20.0191 57.2039 19.9519 57.2798 19.8944C57.3652 19.808 57.4316 19.7264 57.479 19.6497C57.517 19.5729 57.5455 19.4962 57.5644 19.4194C57.5644 19.4002 57.5644 19.3858 57.5644 19.3762C57.5644 19.357 57.5644 19.3426 57.5644 19.333C57.5644 18.575 56.1791 17.9418 53.4085 17.4332C50.6284 16.9055 47.1794 16.656 43.0614 16.6848C38.934 16.7136 35.7079 16.9727 33.3833 17.462C31.2199 17.913 30.0623 18.4791 29.9105 19.1603V19.4914C29.958 19.6353 30.0671 19.7888 30.2379 19.9519C30.2853 19.9903 30.3328 20.0287 30.3802 20.0671C30.9875 20.4989 32.1688 20.8923 33.9241 21.2473Z" fill="#F3B33F"/>
<path d="M33.9241 22.7392C36.6378 23.277 39.9018 23.5459 43.7161 23.5459C47.5494 23.5459 50.8134 23.277 53.5081 22.7392C54.9409 22.4468 55.9941 22.1355 56.6678 21.8053C56.9145 21.6732 57.1185 21.5364 57.2798 21.3949C57.3652 21.3194 57.4316 21.2392 57.479 21.1543C57.4885 21.1354 57.498 21.1166 57.5075 21.0977L57.5644 19.4279C57.5455 19.5033 57.517 19.5788 57.479 19.6543C57.4316 19.7297 57.3652 19.8099 57.2798 19.8948C57.2039 19.9515 57.1137 20.0175 57.0094 20.093C56.905 20.159 56.7911 20.225 56.6678 20.2911C55.9941 20.6307 54.9409 20.942 53.5081 21.2251C50.8134 21.7628 47.5494 22.0317 43.7161 22.0317C39.9018 22.0317 36.6378 21.7628 33.9241 21.2251C32.1688 20.876 30.9875 20.4892 30.3802 20.0647C30.3328 20.0269 30.2853 19.9892 30.2379 19.9515C30.0671 19.7911 29.958 19.6401 29.9105 19.4986L30.0244 21.2251C30.0718 21.3005 30.143 21.3807 30.2379 21.4656C30.7977 21.9373 32.0264 22.3619 33.9241 22.7392Z" fill="#D29119"/>
<path d="M26.9027 17.5648C26.9027 17.5831 26.908 17.6061 26.9185 17.6336V17.3168C26.8974 17.3719 26.8869 17.427 26.8869 17.4821C26.8869 17.4913 26.8869 17.5051 26.8869 17.5234L26.9027 17.5648Z" fill="url(#paint7_linear)"/>
<path d="M54.6109 17.6331C54.592 17.7086 54.5635 17.784 54.5255 17.8595C54.4781 17.935 54.4117 18.0152 54.3263 18.1001C54.2504 18.1567 54.1602 18.2227 54.0559 18.2982C53.9515 18.3642 53.8376 18.4303 53.7143 18.4963C53.0406 18.836 51.9874 19.1473 50.5547 19.4303C47.8599 19.968 44.5959 20.2369 40.7626 20.2369C36.9483 20.2369 33.6843 19.968 30.9706 19.4303C29.2153 19.0812 28.034 18.6944 27.4267 18.2699C27.3793 18.2322 27.3318 18.1944 27.2844 18.1567C27.1136 17.9963 27.0045 17.8454 26.957 17.7039L27.0709 19.4303C27.1183 19.5058 27.1895 19.586 27.2844 19.6709C27.8442 20.1426 29.0729 20.5671 30.9706 20.9445C33.6843 21.4822 36.9483 21.7511 40.7626 21.7511C44.5959 21.7511 47.8599 21.4822 50.5547 20.9445C51.9874 20.652 53.0406 20.3407 53.7143 20.0105C53.961 19.8784 54.165 19.7416 54.3263 19.6001C54.4117 19.5246 54.4781 19.4445 54.5255 19.3595C54.535 19.3407 54.5445 19.3218 54.554 19.3029L54.6109 17.6331Z" fill="#D29119"/>
<path d="M50.455 15.6385C47.6749 15.1107 44.2259 14.8613 40.1079 14.89C35.9805 14.9188 32.7544 15.1779 30.4298 15.6672C28.2664 16.1182 27.1088 16.6843 26.957 17.3656V17.6966C27.0045 17.8405 27.1136 17.994 27.2844 18.1572C27.3318 18.1955 27.3793 18.2339 27.4267 18.2723C28.034 18.7041 29.2153 19.0975 30.9706 19.4525C33.6843 19.9994 36.9483 20.2729 40.7626 20.2729C44.5959 20.2729 47.8599 19.9994 50.5547 19.4525C51.9874 19.1646 53.0406 18.848 53.7143 18.5026C53.8376 18.4354 53.9515 18.3683 54.0559 18.3011C54.1602 18.2243 54.2504 18.1572 54.3263 18.0996C54.4117 18.0132 54.4781 17.9317 54.5255 17.8549C54.5635 17.7782 54.592 17.7014 54.6109 17.6246C54.6109 17.6054 54.6109 17.5911 54.6109 17.5815C54.6109 17.5623 54.6109 17.5479 54.6109 17.5383C54.6109 16.7803 53.2256 16.147 50.455 15.6385Z" fill="#F3B33F"/>
<path d="M27.1154 15.3466C27.1154 15.3649 27.1206 15.3879 27.1312 15.4154V15.0986C27.1101 15.1537 27.0995 15.2088 27.0995 15.2639C27.0995 15.2731 27.0995 15.2869 27.0995 15.3052L27.1154 15.3466Z" fill="url(#paint8_linear)"/>
<path d="M27.4934 15.8336C27.5408 15.8719 27.5882 15.9103 27.6357 15.9487C28.2429 16.3805 29.4243 16.7739 31.1796 17.1289C33.8933 17.6758 37.1573 17.9493 40.9716 17.9493C44.8049 17.9493 48.0689 17.6758 50.7636 17.1289C52.1964 16.841 53.2496 16.5244 53.9233 16.179C54.0466 16.1118 54.1605 16.0446 54.2649 15.9775C54.3692 15.9007 54.4594 15.8336 54.5353 15.776C54.6207 15.6896 54.6871 15.6081 54.7345 15.5313C54.7725 15.4545 54.801 15.3778 54.8199 15.301C54.8199 15.2818 54.8199 15.2674 54.8199 15.2578C54.8199 15.2387 54.8199 15.2243 54.8199 15.2147C54.8199 14.4567 53.4346 13.8234 50.664 13.3148C47.8839 12.7871 44.4349 12.5376 40.3169 12.5664C36.1895 12.5952 32.9634 12.8543 30.6388 13.3436C28.4754 13.7946 27.3178 14.3607 27.166 15.042V15.373C27.2135 15.5169 27.3226 15.6704 27.4934 15.8336Z" fill="#F3B33F"/>
<path d="M27.6357 15.9481C27.5882 15.9103 27.5408 15.8726 27.4934 15.8348C27.3226 15.6745 27.2135 15.5235 27.166 15.382L27.2799 17.1085C27.3273 17.1839 27.3985 17.2641 27.4934 17.349C28.0532 17.8207 29.2819 18.2453 31.1796 18.6226C33.8933 19.1604 37.1573 19.4293 40.9716 19.4293C44.8049 19.4293 48.0689 19.1604 50.7636 18.6226C52.1964 18.3302 53.2496 18.0188 53.9233 17.6887C54.17 17.5566 54.374 17.4198 54.5353 17.2783C54.6207 17.2028 54.6871 17.1226 54.7345 17.0377C54.744 17.0188 54.7535 17 54.763 16.9811L54.8199 15.3112C54.801 15.3867 54.7725 15.4622 54.7345 15.5377C54.6871 15.6131 54.6207 15.6933 54.5353 15.7782C54.4594 15.8348 54.3692 15.9009 54.2649 15.9764C54.1605 16.0424 54.0466 16.1084 53.9233 16.1745C53.2496 16.5141 52.1964 16.8254 50.7636 17.1085C48.0689 17.6462 44.8049 17.9151 40.9716 17.9151C37.1573 17.9151 33.8933 17.6462 31.1796 17.1085C29.4243 16.7594 28.2429 16.3726 27.6357 15.9481Z" fill="#D29119"/>
<path d="M26.4951 13.8315V13.5147C26.474 13.5698 26.4634 13.6249 26.4634 13.68C26.4634 13.6892 26.4634 13.703 26.4634 13.7213L26.4792 13.7626C26.4792 13.781 26.4845 13.804 26.4951 13.8315Z" fill="url(#paint9_linear)"/>
<path d="M26.7564 14.2505C26.8039 14.2889 26.8513 14.3273 26.8988 14.3657C27.506 14.7974 28.6873 15.1908 30.4427 15.5459C33.1563 16.0928 36.4204 16.3662 40.2347 16.3662C44.068 16.3662 47.332 16.0928 50.0267 15.5459C51.4595 15.258 52.5127 14.9414 53.1863 14.5959C53.3097 14.5288 53.4235 14.4616 53.5279 14.3945C53.6323 14.3177 53.7224 14.2505 53.7983 14.193C53.8837 14.1066 53.9502 14.025 53.9976 13.9483C54.0355 13.8715 54.064 13.7948 54.083 13.718C54.083 13.6988 54.083 13.6844 54.083 13.6748C54.083 13.6556 54.083 13.6412 54.083 13.6316C54.083 12.8736 52.6977 12.2403 49.9271 11.7318C47.147 11.2041 43.6979 10.9546 39.58 10.9834C35.4525 11.0122 32.2265 11.2712 29.9018 11.7606C27.7385 12.2116 26.5809 12.7777 26.4291 13.4589V13.79C26.4765 13.9339 26.5856 14.0874 26.7564 14.2505Z" fill="#F3B33F"/>
<path d="M26.8988 14.3641C26.8513 14.3264 26.8039 14.2887 26.7564 14.2509C26.5856 14.0905 26.4765 13.9396 26.4291 13.7981L26.5429 15.5245C26.5904 15.6 26.6615 15.6802 26.7564 15.7651C27.3162 16.2368 28.545 16.6613 30.4427 17.0387C33.1563 17.5765 36.4204 17.8453 40.2347 17.8453C44.068 17.8453 47.332 17.5765 50.0267 17.0387C51.4595 16.7462 52.5127 16.4349 53.1863 16.1047C53.433 15.9726 53.637 15.8359 53.7983 15.6943C53.8837 15.6189 53.9502 15.5387 53.9976 15.4538C54.0071 15.4349 54.0166 15.416 54.0261 15.3972L54.083 13.7273C54.064 13.8028 54.0355 13.8783 53.9976 13.9537C53.9502 14.0292 53.8837 14.1094 53.7983 14.1943C53.7224 14.2509 53.6323 14.317 53.5279 14.3924C53.4235 14.4585 53.3097 14.5245 53.1863 14.5905C52.5127 14.9302 51.4595 15.2415 50.0267 15.5245C47.332 16.0623 44.068 16.3311 40.2347 16.3311C36.4204 16.3311 33.1563 16.0623 30.4427 15.5245C28.6873 15.1755 27.506 14.7887 26.8988 14.3641Z" fill="#D29119"/>
<path d="M28.2683 12.7802C28.2208 12.7425 28.1734 12.7047 28.1259 12.667C27.9551 12.5066 27.846 12.3557 27.7986 12.2142L27.9124 13.9406C27.9599 14.0161 28.031 14.0963 28.1259 14.1812C28.6857 14.6529 29.9145 15.0774 31.8122 15.4548C34.5259 15.9925 37.7899 16.2614 41.6042 16.2614C45.4375 16.2614 48.7015 15.9925 51.3962 15.4548C52.829 15.1623 53.8822 14.851 54.5558 14.5208C54.8025 14.3887 55.0065 14.2519 55.1678 14.1104C55.2532 14.0349 55.3197 13.9548 55.3671 13.8698C55.3766 13.851 55.3861 13.8321 55.3956 13.8132L55.4525 12.1434C55.4335 12.2189 55.4051 12.2943 55.3671 12.3698C55.3197 12.4453 55.2532 12.5255 55.1678 12.6104C55.0919 12.667 55.0018 12.733 54.8974 12.8085C54.7931 12.8745 54.6792 12.9406 54.5558 13.0066C53.8822 13.3463 52.829 13.6576 51.3962 13.9406C48.7015 14.4784 45.4375 14.7472 41.6042 14.7472C37.7899 14.7472 34.5259 14.4784 31.8122 13.9406C30.0568 13.5915 28.8755 13.2047 28.2683 12.7802Z" fill="#D29119"/>
<path d="M27.7986 11.875V12.206C27.846 12.35 27.9551 12.5035 28.1259 12.6666C28.1734 12.705 28.2208 12.7434 28.2683 12.7817C28.8755 13.2135 30.0568 13.6069 31.8122 13.9619C34.5259 14.5089 37.7899 14.7823 41.6042 14.7823C45.4375 14.7823 48.7015 14.5089 51.3962 13.9619C52.829 13.6741 53.8822 13.3574 54.5558 13.012C54.6792 12.9449 54.7931 12.8777 54.8974 12.8105C55.0018 12.7338 55.0919 12.6666 55.1678 12.609C55.2532 12.5227 55.3197 12.4411 55.3671 12.3644C55.4051 12.2876 55.4335 12.2108 55.4525 12.1341C55.4525 12.1149 55.4525 12.1005 55.4525 12.0909C55.4525 12.0717 55.4525 12.0573 55.4525 12.0477C55.4525 11.2897 54.0672 10.6564 51.2966 10.1479C48.5165 9.62015 45.0675 9.37068 40.9495 9.39947C36.822 9.42825 33.596 9.68732 31.2713 10.1767C29.108 10.6276 27.9504 11.1937 27.7986 11.875Z" fill="#F3B33F"/>
<path d="M27.8524 12.1787C27.8524 12.1971 27.8577 12.22 27.8682 12.2476V11.9308C27.8471 11.9859 27.8366 12.041 27.8366 12.0961C27.8366 12.1053 27.8366 12.119 27.8366 12.1374L27.8524 12.1787Z" fill="url(#paint10_linear)"/>
<path d="M27.4267 10.9846C27.3793 10.9468 27.3318 10.9091 27.2844 10.8714C27.1136 10.711 27.0045 10.56 26.957 10.4185L27.0709 12.145C27.1183 12.2204 27.1895 12.3006 27.2844 12.3855C27.8442 12.8572 29.0729 13.2818 30.9706 13.6591C33.6843 14.1969 36.9483 14.4658 40.7626 14.4658C44.5959 14.4658 47.8599 14.1969 50.5547 13.6591C51.9874 13.3667 53.0406 13.0554 53.7143 12.7252C53.961 12.5931 54.165 12.4563 54.3263 12.3148C54.4117 12.2393 54.4781 12.1591 54.5255 12.0742C54.535 12.0553 54.5445 12.0365 54.554 12.0176L54.6109 10.3478C54.592 10.4232 54.5635 10.4987 54.5255 10.5742C54.4781 10.6497 54.4117 10.7298 54.3263 10.8148C54.2504 10.8714 54.1602 10.9374 54.0559 11.0129C53.9515 11.0789 53.8376 11.1449 53.7143 11.211C53.0406 11.5506 51.9874 11.8619 50.5547 12.145C47.8599 12.6827 44.5959 12.9516 40.7626 12.9516C36.9483 12.9516 33.6843 12.6827 30.9706 12.145C29.2153 11.7959 28.034 11.4091 27.4267 10.9846Z" fill="#D29119"/>
<path d="M26.957 10.0802V10.4113C27.0045 10.5552 27.1136 10.7087 27.2844 10.8718C27.3318 10.9102 27.3793 10.9486 27.4267 10.987C28.034 11.4188 29.2153 11.8122 30.9706 12.1672C33.6843 12.7141 36.9483 12.9876 40.7626 12.9876C44.5959 12.9876 47.8599 12.7141 50.5547 12.1672C51.9874 11.8793 53.0406 11.5627 53.7143 11.2173C53.8376 11.1501 53.9515 11.0829 54.0559 11.0158C54.1602 10.939 54.2504 10.8718 54.3263 10.8143C54.4117 10.7279 54.4781 10.6464 54.5255 10.5696C54.5635 10.4928 54.592 10.4161 54.6109 10.3393C54.6109 10.3201 54.6109 10.3057 54.6109 10.2961C54.6109 10.2769 54.6109 10.2626 54.6109 10.253C54.6109 9.49495 53.2256 8.86167 50.455 8.35313C47.6749 7.8254 44.2259 7.57593 40.1079 7.60471C35.9805 7.6335 32.7544 7.89256 30.4298 8.38191C28.2664 8.83288 27.1088 9.399 26.957 10.0802Z" fill="#F3B33F"/>
<path d="M26.9027 10.2785C26.9027 10.2969 26.908 10.3199 26.9185 10.3474V10.0306C26.8974 10.0857 26.8869 10.1408 26.8869 10.1959C26.8869 10.2051 26.8869 10.2189 26.8869 10.2372L26.9027 10.2785Z" fill="url(#paint11_linear)"/>
<path d="M25.3347 8.97519V8.65842C25.3136 8.71351 25.303 8.7686 25.303 8.82369C25.303 8.83287 25.303 8.84664 25.303 8.86501L25.3188 8.90632C25.3188 8.92469 25.3241 8.94764 25.3347 8.97519Z" fill="url(#paint12_linear)"/>
<path d="M25.6969 9.49875C25.7443 9.53713 25.7917 9.57551 25.8392 9.61389C26.4464 10.0457 27.6277 10.4391 29.3831 10.7941C32.0968 11.341 35.3608 11.6145 39.1751 11.6145C43.0084 11.6145 46.2724 11.341 48.9671 10.7941C50.3999 10.5062 51.4531 10.1896 52.1268 9.84417C52.2501 9.777 52.364 9.70984 52.4683 9.64267C52.5727 9.56591 52.6629 9.49875 52.7388 9.44118C52.8242 9.35482 52.8906 9.27326 52.938 9.1965C52.976 9.11974 53.0044 9.04298 53.0234 8.96622C53.0234 8.94703 53.0234 8.93264 53.0234 8.92304C53.0234 8.90385 53.0234 8.88946 53.0234 8.87986C53.0234 8.12185 51.6381 7.48858 48.8675 6.98004C46.0874 6.45231 42.6384 6.20283 38.5204 6.23162C34.393 6.2604 31.1669 6.51947 28.8423 7.00882C26.6789 7.45979 25.5213 8.0259 25.3695 8.70715V9.03818C25.4169 9.18211 25.5261 9.33563 25.6969 9.49875Z" fill="#F3B33F"/>
<path d="M25.8392 9.61236C25.7917 9.57462 25.7443 9.53689 25.6969 9.49915C25.5261 9.33877 25.4169 9.18782 25.3695 9.04631L25.4834 10.7728C25.5308 10.8482 25.602 10.9284 25.6969 11.0133C26.2567 11.485 27.4854 11.9096 29.3831 12.2869C32.0968 12.8247 35.3608 13.0936 39.1751 13.0936C43.0084 13.0936 46.2724 12.8247 48.9671 12.2869C50.3999 11.9945 51.4531 11.6832 52.1268 11.353C52.3735 11.2209 52.5775 11.0841 52.7388 10.9426C52.8242 10.8671 52.8906 10.7869 52.938 10.702C52.9475 10.6831 52.957 10.6643 52.9665 10.6454L53.0234 8.97556C53.0044 9.05103 52.976 9.1265 52.938 9.20197C52.8906 9.27745 52.8242 9.35764 52.7388 9.44255C52.6629 9.49915 52.5727 9.56519 52.4683 9.64066C52.364 9.7067 52.2501 9.77274 52.1268 9.83878C51.4531 10.1784 50.3999 10.4897 48.9671 10.7728C46.2724 11.3105 43.0084 11.5794 39.1751 11.5794C35.3608 11.5794 32.0968 11.3105 29.3831 10.7728C27.6277 10.4237 26.4464 10.0369 25.8392 9.61236Z" fill="#D29119"/>
<path d="M26.9027 6.89985C26.9027 6.91821 26.908 6.94117 26.9185 6.96871V6.65195C26.8974 6.70704 26.8869 6.76213 26.8869 6.81722C26.8869 6.8264 26.8869 6.84017 26.8869 6.85853L26.9027 6.89985Z" fill="url(#paint13_linear)"/>
<path d="M27.2844 7.38774C27.3318 7.42612 27.3793 7.4645 27.4267 7.50288C28.034 7.93466 29.2153 8.32806 30.9706 8.68308C33.6843 9.23 36.9483 9.50346 40.7626 9.50346C44.5959 9.50346 47.8599 9.23 50.5547 8.68308C51.9874 8.39522 53.0406 8.07859 53.7143 7.73316C53.8376 7.666 53.9515 7.59883 54.0559 7.53167C54.1602 7.45491 54.2504 7.38774 54.3263 7.33017C54.4117 7.24381 54.4781 7.16225 54.5255 7.08549C54.5635 7.00873 54.592 6.93197 54.6109 6.85521C54.6109 6.83602 54.6109 6.82163 54.6109 6.81203C54.6109 6.79284 54.6109 6.77845 54.6109 6.76886C54.6109 6.01084 53.2256 5.37757 50.455 4.86903C47.6749 4.3413 44.2259 4.09183 40.1079 4.12061C35.9805 4.1494 32.7544 4.40846 30.4298 4.89781C28.2664 5.34878 27.1088 5.91489 26.957 6.59614V6.92718C27.0045 7.0711 27.1136 7.22462 27.2844 7.38774Z" fill="#F3B33F"/>
<path d="M27.4267 7.49958C27.3793 7.46185 27.3318 7.42411 27.2844 7.38637C27.1136 7.22599 27.0045 7.07505 26.957 6.93353L27.0709 8.65998C27.1183 8.73546 27.1895 8.81565 27.2844 8.90055C27.8442 9.37226 29.0729 9.7968 30.9706 10.1742C33.6843 10.7119 36.9483 10.9808 40.7626 10.9808C44.5959 10.9808 47.8599 10.7119 50.5547 10.1742C51.9874 9.8817 53.0406 9.57038 53.7143 9.24018C53.961 9.1081 54.165 8.97131 54.3263 8.8298C54.4117 8.75432 54.4781 8.67413 54.5255 8.58923C54.535 8.57036 54.5445 8.55149 54.554 8.53262L54.6109 6.86278C54.592 6.93825 54.5635 7.01372 54.5255 7.0892C54.4781 7.16467 54.4117 7.24486 54.3263 7.32977C54.2504 7.38637 54.1602 7.45241 54.0559 7.52789C53.9515 7.59392 53.8376 7.65996 53.7143 7.726C53.0406 8.06563 51.9874 8.37696 50.5547 8.65998C47.8599 9.19773 44.5959 9.4666 40.7626 9.4666C36.9483 9.4666 33.6843 9.19773 30.9706 8.65998C29.2153 8.31092 28.034 7.92412 27.4267 7.49958Z" fill="#D29119"/>
<path fill-rule="evenodd" clip-rule="evenodd" d="M28.0574 5.70725L27.9151 5.5921C27.7443 5.42899 27.6352 5.27547 27.5878 5.13154V4.80051C27.7396 4.11926 28.8972 3.55314 31.0605 3.10218C33.3852 2.61283 36.6112 2.35376 40.7387 2.32497C44.8566 2.29619 48.3057 2.54566 51.0858 3.07339C53.8564 3.58193 55.2417 4.21521 55.2417 4.97322V5.0164V5.05958C55.2227 5.13634 55.1942 5.2131 55.1563 5.28986C55.1088 5.36662 55.0424 5.44818 54.957 5.53453C54.8811 5.5921 54.791 5.65927 54.6866 5.73603C54.5822 5.8032 54.4684 5.87036 54.345 5.93753C53.6714 6.28295 52.6181 6.59959 51.1854 6.88744C48.4907 7.43436 45.2267 7.70782 41.3934 7.70782C37.579 7.70782 34.315 7.43436 31.6014 6.88744C29.846 6.53242 28.6647 6.13902 28.0574 5.70725ZM28.6294 5.0466C28.6768 5.16174 28.7812 5.28168 28.9425 5.40641L28.971 5.4352C28.9994 5.45439 29.0374 5.47358 29.0848 5.49277C29.6447 5.819 30.7311 6.12125 32.3441 6.39951C34.8395 6.82169 37.8521 7.03278 41.3818 7.03278C44.9115 7.03278 47.9193 6.82169 50.4053 6.39951C51.7336 6.16922 52.7062 5.92455 53.3229 5.66548C53.4463 5.61751 53.5554 5.56473 53.6503 5.50716C53.7167 5.46878 53.7736 5.4304 53.8211 5.39202C53.84 5.38243 53.859 5.36803 53.878 5.34884C53.9729 5.29127 54.0393 5.22891 54.0773 5.16174C54.1057 5.10417 54.1294 5.0514 54.1484 5.00342V4.96024V4.93146C54.1484 4.34616 52.8722 3.8616 50.3199 3.4778C47.7485 3.07481 44.5651 2.88291 40.7698 2.9021C36.9649 2.92129 33.9903 3.12278 31.846 3.50659C29.8534 3.84241 28.7812 4.2694 28.6294 4.78753V5.0466Z" fill="url(#paint14_linear)"/>
<path fill-rule="evenodd" clip-rule="evenodd" d="M29.1115 5.53252C29.064 5.51331 29.026 5.49409 28.9975 5.47487V5.37399C29.14 4.85513 30.1799 4.42756 32.1172 4.09126C34.2064 3.70692 37.1124 3.50515 40.835 3.48593C44.5387 3.46671 47.6441 3.65888 50.1512 4.06243C52.5158 4.42756 53.7551 4.88396 53.8691 5.43164C53.8216 5.47007 53.7646 5.5085 53.6981 5.54694C53.6032 5.60459 53.494 5.65743 53.3705 5.70548C52.7532 5.9649 51.7798 6.20992 50.4503 6.44052C47.9622 6.86329 44.9518 7.07468 41.4191 7.07468C37.8863 7.07468 34.8712 6.86329 32.3736 6.44052C30.7592 6.16188 29.6718 5.85921 29.1115 5.53252ZM27.6199 5.17147C27.6104 5.14265 27.6057 5.11863 27.6057 5.09941L27.5914 5.05618V5.01294C27.5914 4.95529 27.6009 4.89764 27.6199 4.83999V5.17147Z" fill="url(#paint15_linear)"/>
<path fill-rule="evenodd" clip-rule="evenodd" d="M28.939 5.35368C28.7777 5.2292 28.6733 5.10951 28.6259 4.99461V4.73607C28.7777 4.219 29.8499 3.7929 31.8424 3.45776C33.9868 3.07475 36.9614 2.87367 40.7663 2.85452C44.5616 2.83537 47.745 3.02687 50.3163 3.42904C52.8687 3.81205 54.1449 4.29561 54.1449 4.8797V4.90843V4.95152C54.1259 4.9994 54.1022 5.05206 54.0737 5.10951C54.0358 5.17654 53.9694 5.23878 53.8745 5.29623C53.8555 5.31538 53.8365 5.32974 53.8176 5.33932C53.7037 4.79352 52.4655 4.3387 50.1028 3.97483C47.5979 3.57267 44.4952 3.38116 40.7947 3.40031C37.0753 3.41946 34.1718 3.62054 32.0844 4.00356C30.1488 4.3387 29.1098 4.7648 28.9675 5.28187V5.38241L28.939 5.35368ZM27.915 5.54083L28.0573 5.65573C28.6646 6.08662 29.8459 6.47921 31.6012 6.8335C34.3149 7.37929 37.5789 7.65219 41.3933 7.65219C45.2266 7.65219 48.4906 7.37929 51.1853 6.8335C52.618 6.54624 53.6712 6.23025 54.3449 5.88554C54.4683 5.81852 54.5821 5.75149 54.6865 5.68446C54.7909 5.60786 54.881 5.54083 54.9569 5.48338C55.0423 5.3972 55.1087 5.31581 55.1562 5.23921C55.1941 5.16261 55.2226 5.086 55.2416 5.0094L55.1846 6.70423L55.1562 6.76169C55.1087 6.84786 55.0423 6.92925 54.9569 7.00586C54.7956 7.14949 54.5916 7.28833 54.3449 7.42238C53.6712 7.75752 52.618 8.07351 51.1853 8.37034C48.4906 8.91613 45.2266 9.18903 41.3933 9.18903C37.5789 9.18903 34.3149 8.91613 31.6012 8.37034C29.7036 7.98733 28.4748 7.55644 27.915 7.07767C27.8201 6.99149 27.7489 6.9101 27.7015 6.8335L27.5876 5.08122C27.6351 5.22484 27.7442 5.37805 27.915 5.54083Z" fill="#D29119"/>
<path fill-rule="evenodd" clip-rule="evenodd" d="M30.1798 4.5667C28.2663 4.18383 27.0288 3.75311 26.4671 3.27452C26.2672 3.10223 26.1529 2.92516 26.1244 2.74329C26.1149 2.72415 26.1101 2.70501 26.1101 2.68586V2.64279C26.1101 1.8962 27.281 1.27883 29.6229 0.790671C31.9552 0.292944 35.1919 0.0297226 39.333 0.00100755C43.4645 -0.0181358 46.9249 0.235514 49.7142 0.761956C52.4845 1.26926 53.8696 1.8962 53.8696 2.64279V2.68586V2.75765C53.86 2.82465 53.8362 2.89166 53.7982 2.95866C53.7506 3.0448 53.6839 3.13095 53.5983 3.21709C53.4459 3.3511 53.2413 3.48989 52.9842 3.63346C52.3083 3.96847 51.2469 4.27955 49.7999 4.5667C47.1058 5.11229 43.8358 5.38508 39.9898 5.38508C36.1629 5.38508 32.8929 5.11229 30.1798 4.5667ZM26.9542 2.48487V2.52794C26.9542 2.5758 26.9637 2.62366 26.9828 2.67152C27.0018 2.72895 27.0304 2.78159 27.0684 2.82945C27.4873 3.36547 28.9486 3.82969 31.4523 4.22213C32.6613 4.41356 34.351 4.61457 36.5215 4.82515C38.6825 5.02615 41.4575 4.98786 44.8465 4.71029C48.245 4.42314 50.6059 4.02113 51.9291 3.50426C52.7478 3.17882 53.1429 2.86295 53.1143 2.55666C53.1048 2.36523 52.9287 2.17858 52.586 1.99672C52.2243 1.80528 51.615 1.59949 50.7582 1.37934C50.4822 1.30277 50.1823 1.2262 49.8586 1.14962C47.8595 0.661468 45.6223 0.436534 43.1472 0.47482C41.9763 0.41739 40.7578 0.398247 39.4917 0.41739C38.4445 0.369532 37.4021 0.383889 36.3644 0.460463C34.0987 0.604038 32.3281 0.757185 31.0524 0.919903L30.8525 0.948618C29.634 1.11134 28.4869 1.42242 27.4111 1.88186C27.1446 2.05415 27.0018 2.23122 26.9828 2.41308C26.9637 2.4418 26.9542 2.46573 26.9542 2.48487Z" fill="#FDF992"/>
<path d="M47.8341 2.05264C47.815 2.00432 47.7865 1.95599 47.7484 1.90767C47.4152 1.48241 45.5829 1.01849 42.2513 0.51591C42.2322 0.506245 42.2084 0.501413 42.1799 0.501413C42.4845 0.491748 42.7891 0.486915 43.0937 0.486915C41.9229 0.428925 40.7044 0.409595 39.4384 0.428925C40.6664 0.486915 41.9038 0.63189 43.1508 0.863849C45.0926 1.21179 46.0493 1.58389 46.0207 1.98015C46.0207 2.05747 45.9826 2.13479 45.9065 2.21211C45.7923 2.37642 45.4829 2.53106 44.9784 2.67603C44.9403 2.69536 44.8975 2.70503 44.8499 2.70503C44.669 2.76302 44.4691 2.81617 44.2502 2.8645C43.0032 3.09646 41.2803 3.21244 39.0815 3.21244C37.7869 3.19311 36.6542 3.09646 35.6833 2.92249C35.5595 2.90316 35.431 2.88383 35.2978 2.8645C35.0693 2.81617 34.8837 2.76302 34.7409 2.70503C34.7123 2.70503 34.6885 2.69536 34.6695 2.67603C34.3839 2.56972 34.2316 2.45857 34.2126 2.34259V2.32809C34.2126 2.1058 34.6505 1.92216 35.5262 1.77719C36.4019 1.63222 37.5299 1.5549 38.9101 1.54523C40.081 1.59356 40.9424 1.68054 41.4945 1.80618C41.8562 1.89317 42.0323 1.99948 42.0228 2.12513C41.9562 2.37642 41.247 2.52623 39.8953 2.57455C39.1338 2.59388 38.5104 2.56489 38.0249 2.48757C37.5394 2.42958 37.2777 2.36192 37.2396 2.2846C37.0397 2.32326 36.9255 2.36675 36.8969 2.41508C36.8969 2.43441 36.9017 2.44891 36.9112 2.45857C36.9493 2.5069 37.0778 2.56489 37.2967 2.63254C37.3824 2.64221 37.4633 2.6567 37.5394 2.67603C37.5965 2.69536 37.6584 2.70503 37.7251 2.70503C38.2962 2.80168 39.0101 2.85483 39.8668 2.8645C40.6569 2.85483 41.3517 2.80168 41.9514 2.70503C42.0276 2.70503 42.1037 2.69536 42.1799 2.67603C42.2179 2.67603 42.2608 2.66154 42.3084 2.63254C42.8034 2.54556 43.1222 2.44407 43.265 2.32809C43.3507 2.25077 43.3888 2.17345 43.3792 2.09613C43.3412 1.9125 42.9747 1.74336 42.2798 1.58872C41.2899 1.37609 40.1143 1.26011 38.7531 1.24078C38.5342 1.23112 38.3152 1.22629 38.0963 1.22629C38.0773 1.22629 38.0535 1.22629 38.0249 1.22629C37.2634 1.22629 36.54 1.24562 35.8546 1.28428C34.2459 1.3616 33.3654 1.6902 33.2131 2.2701C33.1941 2.30876 33.1846 2.35226 33.1846 2.40058C33.1846 2.5069 33.256 2.60838 33.3987 2.70503C33.6748 2.91766 34.2554 3.10129 35.1407 3.25593C36.5685 3.47823 38.4961 3.58937 40.9234 3.58937C43.3412 3.58937 45.1688 3.4299 46.4062 3.11096C47.4914 2.82101 47.9673 2.46824 47.8341 2.05264Z" fill="white"/>
<path d="M31.0268 0.959365C29.7461 1.10292 28.5366 1.42353 27.3982 1.9212C27.1515 2.0839 27.014 2.25138 26.9855 2.42365V2.43801C26.9673 2.47472 26.9578 2.50822 26.957 2.5385C26.957 2.58635 26.9665 2.6342 26.9855 2.68206C27.0045 2.73948 27.0329 2.79212 27.0709 2.83997C27.4883 3.37592 28.9445 3.84009 31.4395 4.23248C32.6443 4.42389 34.3281 4.62487 36.4911 4.83542C38.6445 5.0364 41.4099 4.99812 44.7871 4.72057C48.1739 4.43346 50.5265 4.0315 51.8452 3.51469C52.661 3.18929 53.0547 2.87347 53.0263 2.56721C52.9978 2.38537 52.8223 2.20832 52.4998 2.03605C52.1108 1.8255 51.4183 1.59102 50.4222 1.33261C50.223 1.28476 50.0095 1.23212 49.7818 1.1747C47.8655 0.705747 45.7216 0.48084 43.3499 0.499981C42.9894 0.499981 42.6242 0.504766 42.2542 0.514337C45.5745 1.012 47.4007 1.47139 47.7327 1.89249C47.7707 1.94034 47.7991 1.98819 47.8181 2.03605C47.9794 2.45715 47.505 2.81604 46.3951 3.11273C45.1713 3.42856 43.3499 3.58647 40.9308 3.58647C38.5212 3.58647 36.6049 3.47641 35.1819 3.25629C34.2902 3.10316 33.7068 2.9261 33.4316 2.72512C33.2799 2.61028 33.2087 2.49543 33.2182 2.38059C33.2182 2.33273 33.2277 2.28967 33.2467 2.25138C33.3984 1.67715 34.276 1.35176 35.8792 1.27519C36.5622 1.23691 37.2832 1.21777 38.0421 1.21777C38.0706 1.21777 38.0943 1.21777 38.1133 1.21777C38.3315 1.21777 38.5497 1.22255 38.7679 1.23212C40.1245 1.25127 41.2961 1.36611 42.2827 1.57666C42.9752 1.72979 43.3404 1.89727 43.3784 2.07911C43.3973 2.15568 43.3641 2.23703 43.2788 2.32316C43.127 2.43801 42.8092 2.54807 42.3254 2.65334C42.2779 2.65334 42.2305 2.66292 42.1831 2.68206C42.1072 2.69163 42.0313 2.70598 41.9554 2.72512C41.3577 2.80169 40.6652 2.84954 39.8778 2.86868C39.024 2.84954 38.3173 2.80169 37.7575 2.72512C37.6817 2.70598 37.6152 2.69163 37.5583 2.68206C37.4919 2.66292 37.4113 2.64856 37.3164 2.63899C37.0603 2.56243 36.9322 2.49543 36.9322 2.43801C36.9227 2.42844 36.918 2.41408 36.918 2.39494C36.9464 2.34709 37.0603 2.30402 37.2595 2.26574C37.2974 2.3423 37.5583 2.4093 38.0421 2.46672C38.526 2.54328 39.1473 2.572 39.9063 2.55285C41.2534 2.505 41.9601 2.35666 42.0265 2.10783C42.017 2.00255 41.8415 1.90685 41.5 1.82071C40.9498 1.69629 40.0913 1.61016 38.9244 1.56231C37.5488 1.56231 36.4247 1.63409 35.5519 1.77764C34.7076 1.93077 34.2712 2.10783 34.2428 2.30881V2.32316C34.2617 2.43801 34.4135 2.54807 34.6981 2.65334C34.7171 2.67249 34.7408 2.68206 34.7693 2.68206C34.9116 2.73948 35.0966 2.79212 35.3242 2.83997C35.457 2.85911 35.5851 2.87825 35.7084 2.89739C36.6761 3.06966 37.805 3.16537 39.0952 3.18451C41.2866 3.18451 43.0036 3.06966 44.2464 2.83997C44.4646 2.79212 44.6638 2.73948 44.8441 2.68206C44.8915 2.68206 44.9342 2.67249 44.9721 2.65334C45.4749 2.50979 45.7832 2.35666 45.8971 2.19396C45.973 2.1174 46.0109 2.04083 46.0109 1.96427C45.9919 1.58145 45.0385 1.21777 43.1507 0.873231C41.8226 0.624397 40.4992 0.48084 39.1805 0.442558C38.2224 0.404276 37.2737 0.418631 36.3346 0.485625C35.4902 0.543048 34.7123 0.605256 34.0008 0.67225L31.7952 0.873231C31.5201 0.901942 31.264 0.930654 31.0268 0.959365Z" fill="url(#paint16_linear)"/>
<path d="M26.5861 5.107C27.2048 5.53475 28.3898 5.92448 30.1411 6.27619C32.8537 6.80851 36.1231 7.07467 39.9493 7.07467C43.7946 7.07467 47.064 6.80851 49.7576 6.27619C51.2043 5.98152 52.2656 5.66783 52.9413 5.33513C53.1031 5.24958 53.2459 5.15928 53.3696 5.06422L53.5552 3.16785C53.403 3.30093 53.1983 3.43876 52.9413 3.58134C52.2656 3.91404 51.2043 4.22297 49.7576 4.50814C47.064 5.04996 43.7946 5.32087 39.9493 5.32087C36.1231 5.32087 32.8537 5.04996 30.1411 4.50814C28.228 4.12792 26.9906 3.70016 26.4291 3.22488L26.5861 5.107Z" fill="#D29119"/>
<ellipse cx="79" cy="62.5" rx="30" ry="29.5" fill="#E3E9EA"/>
<mask id="mask0" mask-type="alpha" maskUnits="userSpaceOnUse" x="48" y="30" width="62" height="62">
<path d="M110 61C110 78.1208 96.1208 92 79 92C61.8792 92 48 78.1208 48 61C48 43.8792 61.8792 30 79 30C96.1208 30 110 43.8792 110 61Z" fill="#C4C4C4"/>
</mask>
<g mask="url(#mask0)">
<path d="M106.021 86.79C105.926 86.8662 105.834 86.9583 105.745 87.0663C105.059 87.8095 104.433 88.1811 103.868 88.1811C103.658 88.1811 103.487 88.0541 103.353 87.8C103.226 87.5713 103.163 87.295 103.163 86.971C103.163 86.1325 103.42 84.7287 103.934 82.7595C103.604 83.039 103.287 83.2994 102.982 83.5408C102.848 84.0299 102.718 84.6715 102.591 85.4655C102.47 86.2723 102.378 87.206 102.315 88.2669C102.302 88.5908 102.311 88.883 102.343 89.1435C102.413 89.7215 102.594 90.1408 102.886 90.4012C103.204 90.6426 103.706 90.5982 104.392 90.2678C104.671 90.1281 104.97 89.9375 105.288 89.6961C106.418 88.8513 107.072 88.0954 107.25 87.4284C107.435 86.7741 107.619 86.0213 107.803 85.1701C107.301 85.8371 106.911 86.4088 106.631 86.8853C106.224 87.3998 106.021 87.368 106.021 86.79Z" fill="url(#paint17_linear)"/>
<path d="M92.9672 74.9457C93.793 74.9457 94.5712 74.8854 95.3017 74.7647C94.0185 74.7202 92.8211 74.5074 91.7095 74.1263C91.8048 74.3994 91.9032 74.6599 92.0049 74.9076C92.3161 74.933 92.6369 74.9457 92.9672 74.9457Z" fill="#994118"/>
<path d="M105.488 81.5114C105.069 81.8418 104.659 82.1816 104.259 82.531C104.157 82.6136 104.049 82.6898 103.935 82.7597C103.421 84.7289 103.163 86.1327 103.163 86.9712C103.163 87.2952 103.227 87.5715 103.354 87.8002C103.487 88.0543 103.659 88.1813 103.868 88.1813C104.434 88.1813 105.059 87.8097 105.746 87.0665C105.834 86.9585 105.927 86.8664 106.022 86.7902C105.99 86.409 106.05 85.8214 106.203 85.0274C106.203 85.0084 106.203 84.9957 106.203 84.9893C106.552 82.9312 106.978 81.5559 107.48 80.8635C107.511 80.7936 107.543 80.7333 107.575 80.6825C107.448 80.6253 107.289 80.5745 107.099 80.53C106.895 80.4792 106.359 80.8063 105.488 81.5114Z" fill="url(#paint18_linear)"/>
<path d="M104.811 70.3343C105.37 69.1465 105.65 68.2222 105.65 67.5616C105.65 66.5897 105.561 65.7067 105.383 64.9127C104.951 66.5579 104.303 68.1364 103.439 69.6483C101.457 73.0595 98.9193 74.765 95.8258 74.765C95.6479 74.765 95.4732 74.765 95.3017 74.765C94.5712 74.8857 93.793 74.9461 92.9673 74.9461C92.6369 74.9461 92.3161 74.9334 92.0049 74.908C92.2145 75.4225 92.4305 75.918 92.6528 76.3944C92.6655 76.4325 92.6814 76.477 92.7005 76.5278C93.1197 77.4425 93.5612 78.281 94.0249 79.0433C96.1402 78.6939 98.0745 77.8554 99.8277 76.5278C99.8912 76.477 99.9516 76.4325 100.009 76.3944C100.784 75.7846 101.536 75.0668 102.267 74.241C103.321 73.0404 104.169 71.7382 104.811 70.3343Z" fill="url(#paint19_linear)"/>
<path d="M92.4907 63.1116C92.4907 63.0989 92.4843 63.083 92.4716 63.0639C92.4335 63.0322 92.3986 63.0163 92.3668 63.0163C92.3541 63.0163 92.3351 63.0258 92.3097 63.0449C92.2779 63.0576 92.262 63.0798 92.262 63.1116V63.1306C92.2112 63.372 92.1858 63.6388 92.1858 63.931C92.1858 64.9855 92.4716 65.9288 93.0433 66.7609C93.8437 67.9552 95.0443 68.5586 96.6451 68.5713C97.7758 68.5713 98.6969 68.1076 99.4083 67.1802C99.9927 66.4179 100.275 65.6556 100.256 64.8934C100.256 64.0866 99.9896 63.4768 99.456 63.0639C98.9732 62.7018 98.4872 62.5113 97.9981 62.4922C97.9346 62.4922 97.8742 62.4922 97.8171 62.4922C97.7663 62.4922 97.7186 62.4922 97.6741 62.4922C97.1151 62.6574 96.6896 62.9242 96.3973 63.2926C96.1687 63.5975 96.0448 63.9469 96.0257 64.3407C96.013 64.7409 96.1528 65.0776 96.445 65.3507C96.7372 65.6366 97.0485 65.7954 97.3788 65.8272C97.7281 65.8589 97.9791 65.8208 98.1315 65.7128C98.284 65.5921 98.3888 65.481 98.446 65.3793C98.4841 65.2523 98.5095 65.1411 98.5222 65.0458C98.5412 64.9442 98.5349 64.8299 98.5031 64.7028C98.465 64.6012 98.3856 64.49 98.2649 64.3693C98.195 64.2931 98.1061 64.2391 97.9981 64.2073C97.9346 64.1946 97.8584 64.1883 97.7694 64.1883C97.6297 64.1883 97.5153 64.2327 97.4264 64.3217C97.4137 64.3217 97.3978 64.328 97.3788 64.3407C97.3089 64.4487 97.274 64.5472 97.274 64.6361C97.274 64.7187 97.293 64.76 97.3311 64.76L97.3788 64.7028C97.3978 64.6901 97.4137 64.6679 97.4264 64.6361C97.4455 64.6234 97.4677 64.6012 97.4931 64.5694C97.5693 64.4932 97.6456 64.4551 97.7218 64.4551C97.8742 64.4551 97.9949 64.4932 98.0839 64.5694C98.1474 64.6456 98.1792 64.7377 98.1792 64.8457C98.1792 64.9982 98.141 65.1189 98.0648 65.2078C97.9886 65.3349 97.8806 65.4047 97.7408 65.4174H97.7218C97.69 65.4174 97.6614 65.4238 97.636 65.4365C97.5852 65.4365 97.528 65.4301 97.4645 65.4174C97.166 65.4047 96.9309 65.2904 96.7594 65.0744V65.0458C96.5943 64.868 96.5117 64.6583 96.5117 64.417C96.5117 64.2137 96.5403 64.0358 96.5974 63.8834C96.6292 63.8071 96.6832 63.7246 96.7594 63.6356C96.842 63.5276 96.9436 63.426 97.0643 63.3307C97.2422 63.1402 97.4931 63.029 97.8171 62.9972C98.2871 62.9782 98.7286 63.1433 99.1415 63.4927C99.5227 63.8294 99.7228 64.3185 99.7418 64.9601C99.7418 65.5826 99.4655 66.2686 98.9128 67.0182C98.3602 67.7297 97.5058 68.0727 96.3497 68.0473C95.1872 68.0155 94.3201 67.5804 93.7484 66.7419C93.1704 65.9034 92.856 65.1411 92.8051 64.4551C92.7607 63.7563 92.7988 63.245 92.9195 62.921C92.8941 62.9083 92.8655 62.9083 92.8337 62.921C92.802 62.9528 92.7861 62.9782 92.7861 62.9972C92.7861 63.029 92.7766 63.0512 92.7575 63.0639C92.6686 63.083 92.5796 63.0989 92.4907 63.1116ZM123.487 58.3759V58.3474C123.455 58.1187 123.239 57.9694 122.839 57.8995C121.606 57.6073 120.707 57.3913 120.142 57.2516C119.564 57.1309 119.069 57.1118 118.656 57.1944C118.236 57.2643 117.897 57.5978 117.636 58.1949C116.321 61.1487 115.054 64.0898 113.834 67.0182C113.688 67.3485 113.644 67.6153 113.701 67.8186H113.72C113.739 67.6661 113.777 67.4978 113.834 67.3136C113.847 67.2882 113.863 67.2596 113.882 67.2278L117.722 58.576C117.982 57.9726 118.278 57.6073 118.608 57.4803C118.951 57.3469 119.342 57.3183 119.78 57.3945L121.924 57.8519C122.14 57.8964 122.489 57.9821 122.972 58.1092C123.036 58.1409 123.099 58.1695 123.163 58.1949C123.29 58.2394 123.366 58.3156 123.391 58.4236C123.404 58.4554 123.42 58.4935 123.439 58.5379V58.5189C123.452 58.4681 123.452 58.4268 123.439 58.395H123.458L123.487 58.3759Z" fill="white"/>
<path d="M121.448 67.2758C121.734 65.8846 122.039 64.8206 122.362 64.0837C122.591 63.5247 122.613 62.9022 122.429 62.2162C122.372 62.8705 122.143 63.5438 121.743 64.2362C121.362 64.9159 121.156 65.5479 121.124 66.1323C121.111 66.7231 120.946 67.4504 120.628 68.3144C120.304 69.1846 119.898 69.9628 119.409 70.6488C118.907 71.3221 116.684 73.8853 112.739 78.3382C108.762 82.7721 106.872 84.7064 107.069 84.141C107.12 83.4677 107.241 82.6959 107.431 81.8256C107.59 81.0951 107.806 80.5774 108.079 80.2725C107.908 80.4249 107.755 80.5711 107.622 80.7108C107.559 80.7553 107.511 80.8061 107.479 80.8633C106.977 81.5557 106.552 82.9309 106.202 84.9891C106.202 84.9954 106.202 85.0081 106.202 85.0272C106.05 85.8212 105.99 86.4088 106.021 86.7899C106.021 87.368 106.225 87.3997 106.631 86.8852C106.911 86.4088 107.301 85.8371 107.803 85.1701C107.835 85.1066 107.873 85.0494 107.917 84.9986C109.15 83.3533 111.04 81.1173 113.587 78.2906C113.796 78.0619 114.016 77.811 114.244 77.5378C115.623 75.9625 117.414 73.9107 119.618 71.3825C120.552 70.0422 121.162 68.6733 121.448 67.2758ZM73.5389 53.3548C73.5389 53.5072 73.5548 53.7867 73.5866 54.1933C73.6183 54.3775 73.6469 54.5395 73.6723 54.6792C73.7994 55.0985 73.9233 55.4637 74.0439 55.775C74.3298 56.569 74.6728 57.2328 75.073 57.7664C75.2572 58.0269 75.4541 58.246 75.6638 58.4239C76.1084 58.8177 76.5753 59.0527 77.0644 59.129C76.2704 58.7796 75.5971 57.9792 75.0444 56.7278C74.4854 55.4828 74.2758 54.2123 74.4156 52.9165C74.549 51.6015 75.0413 50.763 75.8925 50.401C76.1402 50.293 76.5912 50.185 77.2455 50.077C77.9125 49.9563 78.4524 49.8134 78.8653 49.6482C79.9325 49.2226 80.7456 48.6033 81.3046 47.7902C81.8572 46.9961 82.1336 46.0687 82.1336 45.0079C82.1336 44.6522 82.0954 44.2932 82.0192 43.9312C82.0065 43.9947 82.0002 44.055 82.0002 44.1122C81.8922 46.0496 81.4189 47.2947 80.5804 47.8473C79.6657 48.4381 78.2619 48.8859 76.3689 49.1908C74.4823 49.5085 73.5389 50.8964 73.5389 53.3548Z" fill="#DA9A6D"/>
<path d="M117.589 61.3303C117.525 61.6288 117.783 62.2514 118.361 63.1979C118.907 64.1443 119.18 64.9765 119.18 65.6943C119.18 66.4057 119.19 66.933 119.209 67.276C119.209 67.3459 119.215 67.4126 119.228 67.4761C119.228 67.5206 119.228 67.5587 119.228 67.5904C119.247 67.6794 119.256 67.7778 119.256 67.8858C119.301 68.2543 119.361 68.5655 119.437 68.8196C118.935 69.385 118.335 70.0583 117.636 70.8396C116.658 71.9322 115.032 73.5616 112.758 75.7277C112.243 76.2105 111.751 76.6742 111.281 77.1188C110.049 78.3194 109.02 79.3263 108.194 80.1394C108.149 80.1838 108.111 80.2283 108.079 80.2727C107.806 80.5777 107.59 81.0954 107.431 81.8259C107.241 82.6961 107.12 83.4679 107.069 84.1413C106.872 84.7066 108.762 82.7724 112.739 78.3385C116.684 73.8855 118.907 71.3224 119.409 70.6491C119.898 69.963 120.304 69.1849 120.628 68.3146C120.946 67.4507 121.111 66.7234 121.124 66.1326C121.156 65.5482 121.362 64.9161 121.743 64.2364C122.143 63.5441 122.372 62.8707 122.429 62.2164C122.372 62.0195 122.299 61.8067 122.21 61.578L122.181 61.559C122.169 61.5272 122.162 61.5018 122.162 61.4827C122.131 61.4383 122.105 61.4033 122.086 61.3779C122.054 61.3144 122.032 61.2572 122.019 61.2064C121.683 60.6157 121.235 60.1297 120.676 59.7486C120.504 59.6406 120.317 59.5358 120.114 59.4341C119.174 58.945 118.542 58.8053 118.218 59.0149C117.887 59.2118 117.729 59.4468 117.741 59.72C117.76 59.9804 117.83 60.2409 117.951 60.5013C118.04 60.7046 118.116 60.9364 118.18 61.1969C118.167 61.1651 118.145 61.1302 118.113 61.0921C117.821 60.9396 117.646 61.019 117.589 61.3303ZM75.8925 50.4012C75.0413 50.7633 74.549 51.6018 74.4156 52.9167C74.2758 54.2126 74.4855 55.483 75.0445 56.7281C75.5971 57.9795 76.2704 58.7798 77.0645 59.1292C77.1534 59.1419 77.2519 59.1483 77.3599 59.1483C77.7728 59.1483 78.1761 59.0593 78.57 58.8815C78.6271 58.837 78.6875 58.8053 78.751 58.7862C78.9289 58.6973 79.1036 58.5829 79.2751 58.4432C79.7324 58.0938 80.1739 57.6206 80.5995 57.0234C80.7202 56.8583 80.8345 56.6931 80.9425 56.528C80.9934 56.4517 81.0346 56.3819 81.0664 56.3183C81.2887 55.9563 81.5079 55.5592 81.7239 55.1273C81.7366 55.0828 81.7588 55.0542 81.7906 55.0415C82.3242 53.9172 82.7339 52.8341 83.0197 51.7924C83.0705 51.6272 83.1118 51.4652 83.1436 51.3064C83.1563 51.281 83.1627 51.2524 83.1627 51.2207C83.1817 51.1889 83.1912 51.1571 83.1912 51.1254C83.2484 50.8268 83.2992 50.5314 83.3437 50.2392C83.7248 47.6539 83.3278 45.4909 82.1526 43.7504C82.1209 43.7059 82.0891 43.6678 82.0574 43.636C82.051 43.6043 82.0383 43.5789 82.0192 43.5598C82.0192 43.6551 82.0192 43.7504 82.0192 43.8457C82.0192 43.8584 82.0192 43.8774 82.0192 43.9028C82.0068 43.9032 82.0068 43.9127 82.0192 43.9314C82.0955 44.2935 82.1336 44.6524 82.1336 45.0081C82.1336 46.069 81.8573 46.9964 81.3046 47.7904C80.7456 48.6035 79.9325 49.2229 78.8653 49.6485C78.4524 49.8136 77.9125 49.9565 77.2455 50.0772C76.5912 50.1852 76.1402 50.2932 75.8925 50.4012Z" fill="#F7BA7F"/>
<path d="M84.5253 75.1081C84.4999 74.9239 84.4808 74.7651 84.4681 74.6317C83.7821 77.4203 83.1691 80.8918 82.6291 85.0462C81.8605 91.1126 81.4762 97.1631 81.4762 103.198C81.4762 106.298 81.6858 109.652 82.1051 113.26C82.5561 116.9 82.7816 119.263 82.7816 120.349C82.7816 120.971 82.6863 121.883 82.4957 123.084C82.3306 124.227 82.1495 125.158 81.9526 125.875C81.9018 126.104 81.797 126.384 81.6382 126.714C81.6191 126.835 81.6096 126.958 81.6096 127.086C82.0225 127.149 82.3592 127.216 82.6196 127.286C82.8483 127.349 83.0674 127.409 83.2771 127.467C84.3697 127.791 84.9572 128.061 85.0398 128.277C85.0716 128.397 85.1002 128.55 85.1256 128.734C86.2436 127.438 87.0662 126.349 87.5934 125.466C88.0381 124.703 88.3208 124.033 88.4415 123.455C88.4732 123.207 88.4891 122.772 88.4891 122.15C88.4891 122.01 88.3081 121.073 87.946 119.339C87.4823 117.084 87.0853 114.873 86.7549 112.707C85.5798 105.135 84.9922 96.9154 84.9922 88.0476C84.916 86.2055 84.8905 84.5444 84.916 83.0643C84.9668 81.4381 85.097 80.0216 85.3066 78.8146C85.2177 78.5034 85.1446 78.1889 85.0875 77.8713C84.8143 76.6834 84.6269 75.7624 84.5253 75.1081Z" fill="#E69595"/>
<path d="M84.4672 74.6319C84.4799 74.7653 84.499 74.9241 84.5244 75.1083C84.626 75.7626 84.8134 76.6837 85.0865 77.8716C85.1437 78.1892 85.2168 78.5036 85.3057 78.8149C86.6905 84.6018 88.2023 89.2771 89.8412 92.8407C92.0772 97.751 94.399 100.206 96.8065 100.206C99.1822 100.206 101.148 98.634 102.705 95.4896C103.257 94.3843 103.699 93.1742 104.029 91.8593C104.181 91.2367 104.302 90.7063 104.391 90.268C103.705 90.5983 103.203 90.6428 102.886 90.4014C102.593 90.141 102.412 89.7217 102.342 89.1437C101.669 90.7 100.967 92.034 100.237 93.1456C99.0425 94.8798 97.9975 95.7469 97.1019 95.7469C94.8976 95.7469 92.2392 92.431 89.1266 85.7992C87.3416 81.9942 85.8075 78.1479 84.5244 74.2603C84.518 74.3874 84.499 74.5112 84.4672 74.6319ZM89.3076 66.3994V66.3708C89.1869 66.0976 89.044 65.8277 88.8788 65.5609C88.6946 65.2687 88.3738 65.1226 87.9165 65.1226C87.872 65.1226 87.8244 65.1226 87.7736 65.1226C87.4877 65.1226 87.1669 65.1448 86.8112 65.1893C86.6905 65.5069 86.5698 65.8213 86.4491 66.1326C86.0299 67.2442 85.6805 68.2701 85.401 69.2103C85.2993 69.5152 85.2072 69.8296 85.1247 70.1536C84.6991 71.6591 84.4704 72.9168 84.4386 73.9268C84.4259 74.0157 84.4196 74.1047 84.4196 74.1936C84.4196 74.2952 84.4354 74.4414 84.4672 74.6319C84.499 74.5112 84.518 74.3874 84.5244 74.2603C85.8075 78.1479 87.3416 81.9942 89.1266 85.7992C92.2392 92.431 94.8976 95.7469 97.1019 95.7469C97.9975 95.7469 99.0425 94.8798 100.237 93.1456C100.967 92.034 101.669 90.7 102.342 89.1437C102.311 88.8832 102.301 88.591 102.314 88.2671C102.377 87.2062 102.47 86.2725 102.59 85.4657C102.717 84.6717 102.847 84.0301 102.981 83.541C103.286 83.2996 103.603 83.0391 103.934 82.7596C104.048 82.6898 104.156 82.6135 104.258 82.531C104.181 82.4611 104.115 82.4007 104.058 82.3499C103.765 82.1721 103.467 82.0831 103.162 82.0831C102.768 82.0831 102.19 82.2896 101.428 82.7025C100.685 83.1217 99.7539 83.3314 98.6359 83.3314C97.5243 83.3314 96.2507 82.3182 94.815 80.2918C94.5482 79.898 94.2846 79.4819 94.0242 79.0436C93.5605 78.2813 93.119 77.4428 92.6997 76.5281C92.6807 76.4773 92.6648 76.4328 92.6521 76.3947C92.4298 75.9183 92.2138 75.4228 92.0042 74.9082C91.9025 74.6605 91.8041 74.4001 91.7088 74.1269C90.8512 71.9163 90.0508 69.3405 89.3076 66.3994Z" fill="url(#paint20_linear)"/>
<path d="M79.208 60.2535C79.1318 60.2408 79.0555 60.2185 78.9793 60.1868C78.9793 60.4599 78.992 60.6664 79.0174 60.8061C79.0809 61.0348 79.0905 61.1015 79.046 61.0062C79.1858 61.5525 78.4775 61.8257 76.9212 61.8257C75.3522 61.813 74.6566 61.4255 74.8344 60.6632C74.917 60.2821 74.9805 59.8565 75.025 59.3864C74.3072 59.2784 73.7228 59.2308 73.2718 59.2435C72.9288 59.2435 72.6683 59.2657 72.4905 59.3102C72.0585 59.4499 71.8139 59.6564 71.7568 59.9295C71.6932 60.1899 71.6551 60.3805 71.6424 60.5012C71.5662 61.4032 71.4773 62.1369 71.3756 62.7023C71.3439 62.8801 71.3026 63.0294 71.2518 63.1501C71.2327 63.2009 71.2168 63.2486 71.2041 63.293C71.0707 63.7631 71.004 64.1442 71.004 64.4364C71.004 65.4274 71.9188 66.2119 73.7482 66.79C75.1648 67.2473 76.6036 67.476 78.0646 67.476C79.9067 67.476 80.9422 67.2092 81.1708 66.6756C81.2788 66.4596 81.3169 66.0785 81.2852 65.5322C81.2852 65.4877 81.2852 65.4496 81.2852 65.4179C81.2852 65.2781 81.2852 65.1415 81.2852 65.0081C81.3805 63.7885 81.463 63.1025 81.5329 62.95C81.7044 62.6133 81.7044 62.1782 81.5329 61.6446C81.3551 61.111 80.5801 60.6473 79.208 60.2535Z" fill="url(#paint21_linear)"/>
<path d="M79.2754 58.443C79.1039 58.5828 78.9292 58.6971 78.7513 58.7861C78.6878 58.8051 78.6275 58.8369 78.5703 58.8813C78.1764 59.0592 77.7731 59.1481 77.3602 59.1481C77.2522 59.1481 77.1537 59.1418 77.0648 59.1291C76.5757 59.0529 76.1088 58.8178 75.6641 58.424C75.4545 58.2461 75.2576 58.027 75.0734 57.7665C75.0734 58.3573 75.0575 58.8972 75.0257 59.3864C74.9813 59.8564 74.9177 60.282 74.8351 60.6632C74.6573 61.4254 75.3529 61.8129 76.9219 61.8256C78.4782 61.8256 79.1865 61.5525 79.0467 61.0062C79.0912 61.1015 79.0816 61.0348 79.0181 60.8061C78.9927 60.6663 78.98 60.4599 78.98 60.1867C78.98 60.0343 78.98 59.8596 78.98 59.6627C79.0054 59.11 79.1039 58.7035 79.2754 58.443Z" fill="url(#paint22_linear)"/>
<path d="M81.0385 57.5947C80.994 57.2453 80.9622 56.8896 80.9432 56.5275C80.8352 56.6926 80.7208 56.8578 80.6002 57.023C80.1745 57.6201 79.7331 58.0933 79.2757 58.4427C79.1042 58.7031 79.0057 59.1097 78.9803 59.6623C78.9803 59.8593 78.9803 60.0339 78.9803 60.1864C79.0566 60.2182 79.1328 60.2404 79.209 60.2531C80.5811 60.6469 81.3561 61.1107 81.5339 61.6442C81.7054 62.1778 81.7054 62.613 81.5339 62.9496C81.4641 63.1021 81.3815 63.7881 81.2862 65.0078C82.1819 65.1412 82.8298 65.2301 83.23 65.2746C83.2935 65.2746 83.3412 65.2746 83.3729 65.2746C83.4174 65.2746 83.4618 65.2841 83.5063 65.3031C84.0971 65.3349 84.6148 65.3508 85.0594 65.3508C83.8144 64.4678 82.8393 63.2387 82.1342 61.6633C82.0135 61.4092 81.8992 61.1424 81.7912 60.8629C81.4101 59.8275 81.1592 58.7381 81.0385 57.5947ZM73.5872 54.193C73.5555 53.7865 73.5396 53.507 73.5396 53.3545C73.5396 50.8962 74.4829 49.5082 76.3695 49.1906C78.2625 48.8857 79.6664 48.4379 80.5811 47.8471C81.4196 47.2945 81.8928 46.0494 82.0008 44.112C81.9373 44.2517 81.8674 44.382 81.7912 44.5026C81.8992 44.2168 81.9691 44.0167 82.0008 43.9024H82.0199C82.0199 43.8769 82.0199 43.8579 82.0199 43.8452C81.9564 43.6165 81.8643 43.3561 81.7436 43.0639C81.7118 42.9813 81.6832 42.9114 81.6578 42.8542C81.4418 44.2263 81.1147 45.1792 80.6764 45.7128C80.2317 46.2463 79.8252 46.6434 79.4567 46.9038C79.0756 47.1515 78.5357 47.3802 77.8369 47.5898C77.1191 47.7741 76.341 47.9646 75.5025 48.1616C74.664 48.3585 73.7905 48.9969 72.8821 50.0768C71.9484 51.1312 71.3512 52.3668 71.0908 53.7833C70.8812 54.9394 70.7764 56.2575 70.7764 57.7376C70.7764 58.2267 70.8812 59.2685 71.0908 60.8629C71.1797 61.568 71.275 62.181 71.3767 62.7019C71.4783 62.1365 71.5672 61.4029 71.6435 60.5008C71.6562 60.3801 71.6943 60.1896 71.7578 59.9291C71.815 59.656 72.0595 59.4495 72.4915 59.3098C72.6693 59.2653 72.9298 59.2431 73.2728 59.2431C73.7238 59.2304 74.3082 59.278 75.026 59.386C75.0578 58.8969 75.0737 58.3569 75.0737 57.7662C74.6735 57.2326 74.3305 56.5688 74.0446 55.7747C73.9239 55.4635 73.8 55.0982 73.673 54.679C73.6476 54.5392 73.619 54.3772 73.5872 54.193Z" fill="#B24F19"/>
<path d="M82.0197 43.9315C82.0072 43.9128 82.0072 43.9032 82.0197 43.9029H82.0006C81.9689 44.0172 81.899 44.2173 81.791 44.5032C81.8672 44.3825 81.9371 44.2523 82.0006 44.1125C82.0006 44.0554 82.007 43.995 82.0197 43.9315Z" fill="#D05E1F"/>
<path d="M71.0905 53.7835C71.3509 52.3669 71.9481 51.1314 72.8818 50.077C73.7902 48.9971 74.6637 48.3587 75.5022 48.1617C76.3407 47.9648 77.1188 47.7743 77.8366 47.59C78.5354 47.3804 79.0753 47.1517 79.4564 46.904C79.8249 46.6435 80.2314 46.2465 80.6761 45.7129C81.1144 45.1794 81.4415 44.2265 81.6575 42.8544C81.6829 42.9116 81.7115 42.9815 81.7433 43.064C81.864 43.3562 81.9561 43.6167 82.0196 43.8454C82.0196 43.7501 82.0196 43.6548 82.0196 43.5595C82.0386 43.5786 82.0513 43.604 82.0577 43.6357C82.0895 43.6675 82.1212 43.7056 82.153 43.7501C83.3281 45.4906 83.7252 47.6536 83.344 50.2389C83.2996 50.5311 83.2487 50.8265 83.1916 51.1251C83.1916 51.1568 83.182 51.1886 83.163 51.2204C83.163 51.2521 83.1566 51.2807 83.1439 51.3061C83.1122 51.4649 83.0709 51.6269 83.0201 51.7921C82.7342 52.8338 82.3245 53.9169 81.7909 55.0412C81.7591 55.054 81.7369 55.0825 81.7242 55.127C81.5082 55.559 81.2891 55.956 81.0667 56.3181C81.035 56.3816 80.9937 56.4515 80.9429 56.5277C80.9619 56.8898 80.9937 57.2455 81.0382 57.5949C81.1589 58.7383 81.4098 59.8277 81.7909 60.8631C81.8989 61.1426 82.0132 61.4094 82.1339 61.6635C82.839 63.2389 83.8141 64.468 85.0591 65.351C85.5673 65.351 85.9866 65.3192 86.3169 65.2557C86.4884 65.2239 86.6536 65.2017 86.8124 65.189C87.1681 65.1445 87.4889 65.1223 87.7747 65.1223C87.8256 65.1223 87.8732 65.1223 87.9177 65.1223C88.375 65.1223 88.6958 65.2684 88.88 65.5606C89.0452 65.8274 89.1881 66.0974 89.3088 66.3705V66.3991C90.052 69.3402 90.8524 71.916 91.71 74.1266C92.8216 74.5078 94.019 74.7206 95.3022 74.765C95.4737 74.765 95.6484 74.765 95.8262 74.765C98.9198 74.765 101.458 73.0595 103.439 69.6483C104.303 68.1364 104.951 66.5579 105.383 64.9127C105.123 63.8328 104.704 62.9244 104.125 62.1875C103.91 61.9335 103.687 61.6984 103.458 61.4824C102.226 60.3708 100.511 59.815 98.3132 59.815C96.7759 59.815 95.5118 60.1453 94.5208 60.8059C93.6951 61.3459 93.1615 62.051 92.9201 62.9212C92.7994 63.2452 92.7613 63.7566 92.8057 64.4553C92.8566 65.1414 93.171 65.9036 93.749 66.7421C94.3207 67.5806 95.1878 68.0158 96.3503 68.0475C97.5064 68.0729 98.3608 67.7299 98.9134 67.0184C99.4661 66.2689 99.7424 65.5828 99.7424 64.9603C99.7234 64.3187 99.5233 63.8296 99.1421 63.4929C98.7292 63.1436 98.2877 62.9784 97.8177 62.9975C97.4937 63.0292 97.2428 63.1404 97.0649 63.331C96.9442 63.4262 96.8426 63.5279 96.76 63.6359C96.6838 63.7248 96.6298 63.8074 96.598 63.8836C96.5409 64.0361 96.5123 64.2139 96.5123 64.4172C96.5123 64.6586 96.5949 64.8682 96.76 65.0461V65.0747C96.9315 65.2906 97.1666 65.405 97.4651 65.4177C97.5286 65.4304 97.5858 65.4367 97.6366 65.4367C97.662 65.424 97.6906 65.4177 97.7224 65.4177H97.7414C97.8812 65.405 97.9892 65.3351 98.0654 65.2081C98.1416 65.1191 98.1798 64.9984 98.1798 64.846C98.1798 64.738 98.148 64.6459 98.0845 64.5697C97.9955 64.4934 97.8748 64.4553 97.7224 64.4553C97.6462 64.4553 97.5699 64.4934 97.4937 64.5697C97.4683 64.6014 97.4461 64.6236 97.427 64.6363C97.4143 64.6681 97.3984 64.6903 97.3794 64.703L97.3317 64.7602C97.2936 64.7602 97.2746 64.7189 97.2746 64.6363C97.2746 64.5474 97.3095 64.449 97.3794 64.341C97.3984 64.3283 97.4143 64.3219 97.427 64.3219C97.5159 64.233 97.6303 64.1885 97.77 64.1885C97.859 64.1885 97.9352 64.1949 97.9987 64.2076C98.1067 64.2393 98.1956 64.2933 98.2655 64.3696C98.3862 64.4902 98.4656 64.6014 98.5037 64.703C98.5355 64.8301 98.5418 64.9444 98.5228 65.0461C98.5101 65.1414 98.4847 65.2525 98.4466 65.3796C98.3894 65.4812 98.2846 65.5924 98.1321 65.7131C97.9797 65.821 97.7287 65.8592 97.3794 65.8274C97.0491 65.7956 96.7378 65.6368 96.4456 65.351C96.1534 65.0778 96.0136 64.7412 96.0263 64.341C96.0454 63.9471 96.1693 63.5978 96.3979 63.2928C96.6901 62.9244 97.1157 62.6576 97.6747 62.4925C97.7192 62.4925 97.7669 62.4925 97.8177 62.4925C97.8748 62.4925 97.9352 62.4925 97.9987 62.4925C98.4878 62.5115 98.9738 62.7021 99.4566 63.0642C99.9902 63.4771 100.257 64.0869 100.257 64.8936C100.276 65.6559 99.9933 66.4182 99.4089 67.1804C98.6975 68.1079 97.7764 68.5716 96.6457 68.5716C95.0449 68.5589 93.8443 67.9554 93.0439 66.7612C92.4722 65.929 92.1864 64.9857 92.1864 63.9312C92.1864 63.639 92.2118 63.3722 92.2626 63.1309C91.3479 63.1626 90.3633 62.7974 89.3088 62.0351C89.0357 61.8382 88.7466 61.6095 88.4417 61.3491C88.321 61.2284 88.2003 61.114 88.0796 61.006C87.9717 60.9107 87.87 60.8123 87.7747 60.7106C86.1295 58.9765 85.2783 56.2323 85.2211 52.4781C85.1703 48.5016 84.9035 45.3191 84.4207 42.9306C83.9189 40.5295 82.4198 39.2559 79.9233 39.1098C77.4523 38.9255 74.7939 40.2659 71.9481 43.1307C69.0768 45.9829 67.4221 50.6391 66.9838 57.0994C67.0409 58.1666 67.2156 59.491 67.5078 61.0727C67.565 61.3649 67.6349 61.6635 67.7174 61.9684C68.1685 62.1971 68.6862 62.4607 69.2706 62.7593C69.3405 62.7783 69.4135 62.8037 69.4897 62.8355C70.0868 62.9879 70.6586 63.1404 71.2048 63.2928C71.2176 63.2484 71.2334 63.2007 71.2525 63.1499C71.3033 63.0292 71.3446 62.8799 71.3764 62.7021C71.2747 62.1812 71.1794 61.5682 71.0905 60.8631C70.8809 59.2687 70.7761 58.2269 70.7761 57.7378C70.7761 56.2577 70.8809 54.9396 71.0905 53.7835ZM72.0338 44.2075C72.2434 43.9788 72.4848 43.7628 72.758 43.5595C73.4504 43.2292 73.6346 43.2705 73.3106 43.6834C73.0057 44.0899 72.993 44.3472 73.2725 44.4552C73.5393 44.5632 73.7966 44.5695 74.0443 44.4742C74.273 44.3726 74.5176 44.3663 74.778 44.4552C75.0511 44.5505 75.1814 44.6743 75.1687 44.8268C75.1369 44.9729 75.0067 45.1857 74.778 45.4652C74.5493 45.7383 74.4413 45.9607 74.454 46.1322C74.4667 46.291 74.724 46.3672 75.2258 46.3609C75.3338 46.2973 75.6006 46.2275 76.0262 46.1512C76.4391 46.075 76.6932 46.2084 76.7885 46.5514C74.8383 47.2565 73.4345 48.076 72.5769 49.0098C72.6087 48.9462 72.65 48.8859 72.7008 48.8287C72.8024 48.6763 72.9295 48.4095 73.0819 48.0283C73.2217 47.6472 73.0692 47.5773 72.6246 47.8187C72.1736 48.0601 71.8369 47.9902 71.6146 47.6091C71.424 47.247 71.3573 46.9739 71.4145 46.7897C71.478 46.5927 71.5161 46.418 71.5288 46.2656C71.5606 46.075 71.4843 45.9797 71.3001 45.9797C71.1604 45.9797 70.9253 46.1195 70.595 46.399C70.5633 46.4435 70.522 46.4911 70.4712 46.5419C70.9031 45.6653 71.424 44.8871 72.0338 44.2075Z" fill="url(#paint23_linear)"/>
<path d="M72.758 43.5596C72.4849 43.7629 72.2435 43.9789 72.0339 44.2076C71.424 44.8873 70.9031 45.6654 70.4712 46.542C70.522 46.4912 70.5633 46.4436 70.5951 46.3991C70.9254 46.1196 71.1604 45.9798 71.3002 45.9798C71.4844 45.9798 71.5606 46.0751 71.5288 46.2657C71.5161 46.4181 71.478 46.5928 71.4145 46.7898C71.3573 46.974 71.424 47.2471 71.6146 47.6092C71.8369 47.9903 72.1736 48.0602 72.6246 47.8188C73.0693 47.5774 73.2217 47.6473 73.082 48.0284C72.9295 48.4096 72.8025 48.6764 72.7008 48.8288C72.65 48.886 72.6087 48.9464 72.577 49.0099C73.4345 48.0761 74.8384 47.2566 76.7885 46.5515C76.6932 46.2085 76.4391 46.0751 76.0263 46.1514C75.6006 46.2276 75.3339 46.2975 75.2259 46.361C74.724 46.3673 74.4668 46.2911 74.4541 46.1323C74.4414 45.9608 74.5493 45.7385 74.778 45.4653C75.0067 45.1858 75.1369 44.973 75.1687 44.8269C75.1814 44.6745 75.0512 44.5506 74.778 44.4553C74.5176 44.3664 74.273 44.3727 74.0443 44.4744C73.7966 44.5696 73.5393 44.5633 73.2725 44.4553C72.993 44.3473 73.0057 44.09 73.3107 43.6835C73.6346 43.2706 73.4504 43.2293 72.758 43.5596Z" fill="#FADEBC"/>
<path d="M60.4177 80.1392C60.6019 80.965 60.7163 81.848 60.7607 82.7881C60.7607 82.9278 60.7671 83.0644 60.7798 83.1978C60.7862 83.2931 60.7893 83.3916 60.7893 83.4932C60.802 83.8934 60.8084 84.3063 60.8084 84.7319C60.7766 85.3544 60.7322 86.0023 60.675 86.6757C60.332 90.3918 59.3029 94.8098 57.5878 99.9297C54.6784 108.505 52.5822 114.47 51.299 117.824C50.0159 121.165 49.8698 123.551 50.8607 124.98C51.7755 126.276 52.9665 127.641 54.4339 129.077C54.6308 128.251 55.9235 127.575 58.3119 127.048C60.8084 126.476 65.0072 126.269 70.9085 126.428C71.0165 126.428 71.1213 126.428 71.2229 126.428C76.0697 126.562 79.4713 126.774 81.4278 127.067C81.485 127.067 81.5454 127.073 81.6089 127.086C81.6089 126.959 81.6184 126.835 81.6375 126.714C81.7963 126.384 81.9011 126.104 81.9519 125.876C82.1488 125.158 82.3299 124.227 82.495 123.084C82.6856 121.883 82.7809 120.972 82.7809 120.349C82.7809 119.263 82.5554 116.9 82.1044 113.26C81.6851 109.652 81.4755 106.298 81.4755 103.198C81.4755 97.1633 81.8598 91.1127 82.6284 85.0463C83.1684 80.8919 83.7814 77.4204 84.4674 74.6318C84.4356 74.4412 84.4198 74.2951 84.4198 74.1935C84.4198 74.1045 84.4261 74.0156 84.4388 73.9267C84.4706 72.9167 84.6993 71.6589 85.1249 70.1534C85.2074 69.8295 85.2996 69.515 85.4012 69.2101C85.6807 68.27 86.0301 67.2441 86.4493 66.1325C86.57 65.8212 86.6907 65.5068 86.8114 65.1891C86.6526 65.2018 86.4874 65.2241 86.3159 65.2558C85.9856 65.3194 85.5663 65.3511 85.0582 65.3511C84.6135 65.3511 84.0958 65.3352 83.505 65.3035C83.4606 65.2844 83.4161 65.2749 83.3716 65.2749C83.3399 65.2749 83.2922 65.2749 83.2287 65.2749C82.8285 65.2304 82.1806 65.1415 81.2849 65.0081C81.2849 65.1415 81.2849 65.2781 81.2849 65.4178C81.2849 65.4496 81.2849 65.4877 81.2849 65.5322C81.3167 66.0785 81.2786 66.4596 81.1706 66.6756C80.9419 67.2092 79.9065 67.476 78.0643 67.476C76.6033 67.476 75.1645 67.2473 73.748 66.7899C71.9185 66.2119 71.0038 65.4273 71.0038 64.4364C71.0038 64.1442 71.0705 63.7631 71.2039 63.293C70.6576 63.1405 70.0859 62.9881 69.4888 62.8356C69.4125 62.8039 69.3395 62.7785 69.2696 62.7594C68.6852 62.4608 68.1675 62.1972 67.7165 61.9685C66.5222 61.3841 65.7282 61.0856 65.3344 61.0729C65.0549 61.0538 64.8008 61.0792 64.5721 61.1491C64.6229 61.7716 64.6483 62.1718 64.6483 62.3497C64.6483 62.6101 64.5435 64.0457 64.3339 66.6565C64.0989 69.2546 63.9813 70.6775 63.9813 70.9252C63.9813 71.2301 64.0226 71.5795 64.1052 71.9734C64.1052 72.0115 64.1116 72.0432 64.1243 72.0686C64.0671 72.3481 64.0067 72.6276 63.9432 72.9071C63.2826 75.6577 62.1074 78.0684 60.4177 80.1392Z" fill="url(#paint24_linear)"/>
<path d="M40.8471 91.6875C39.6592 90.3408 39.0653 88.6543 39.0653 86.6279C39.0653 86.5898 39.0653 86.5549 39.0653 86.5231C39.0335 86.5231 38.9986 86.5231 38.9604 86.5231C38.7445 87.3553 38.6365 88.235 38.6365 89.1625C38.6365 89.3721 38.6397 89.5817 38.646 89.7913C38.7603 91.4938 38.9446 92.5736 39.1987 93.031C39.4782 93.9203 39.8783 94.7239 40.3992 95.4417C40.8058 95.988 41.2695 96.4581 41.7904 96.8519C43.0418 97.8047 44.6203 98.2812 46.526 98.2812C47.8409 98.2812 49.0066 98.0556 50.0229 97.6046C51.2108 97.0774 52.3955 96.1754 53.577 94.8986C55.1778 93.1771 57.0231 90.4298 59.113 86.6565C59.6784 85.4305 60.2278 84.141 60.7614 82.788C60.717 81.8478 60.6026 80.9649 60.4184 80.1391C62.1081 78.0682 63.2833 75.6576 63.9439 72.907C64.0074 72.6275 64.0678 72.348 64.125 72.0685C64.1122 72.0431 64.1059 72.0113 64.1059 71.9732C63.585 73.2246 63.0292 74.422 62.4384 75.5654C61.5046 77.3631 60.2151 79.5102 58.5699 82.0066C56.3593 85.3606 54.2249 88.1969 52.1668 90.5155C51.6332 91.1253 51.106 91.6907 50.5851 92.2116C49.0097 93.3359 47.5106 93.8981 46.0877 93.8981C43.8834 93.8981 42.1366 93.1612 40.8471 91.6875Z" fill="url(#paint25_linear)"/>
<path d="M39.0659 86.628C39.0659 88.6544 39.6599 90.3409 40.8477 91.6876C42.1372 93.1613 43.8841 93.8982 46.0884 93.8982C47.5113 93.8982 49.0104 93.336 50.5858 92.2117C51.1066 91.6908 51.6339 91.1254 52.1675 90.5156C54.2256 88.197 56.36 85.3608 58.5706 82.0068C60.2158 79.5103 61.5053 77.3632 62.4391 75.5656C63.0299 74.4221 63.5857 73.2247 64.1066 71.9733C64.024 71.5795 63.9827 71.2301 63.9827 70.9252C63.9827 70.6775 64.1002 69.2546 64.3352 66.6565C64.5449 64.0457 64.6497 62.6101 64.6497 62.3497C64.6497 62.1718 64.6243 61.7716 64.5735 61.1491C64.5607 61.1491 64.548 61.1523 64.5353 61.1586C63.9509 61.3301 62.5534 63.5216 60.3428 67.7332C58.0687 72.0337 56.4553 74.9081 55.5024 76.3564C54.5432 77.8047 53.619 79.0942 52.7296 80.2249C51.8403 81.3556 51.0939 82.191 50.4905 82.7309C49.8934 83.2772 49.4233 83.4011 49.0803 83.1025C48.985 83.0136 48.8961 82.9278 48.8135 82.8452C48.5086 82.5467 48.2577 82.3085 48.0607 82.1306C47.0507 81.1714 45.8851 80.6918 44.5638 80.6918C43.1663 80.6918 41.8514 81.4986 40.619 83.112C39.9203 84.0331 39.4026 85.0368 39.0659 86.123C39.0659 86.2437 39.0659 86.3771 39.0659 86.5232C39.0659 86.555 39.0659 86.5899 39.0659 86.628Z" fill="url(#paint26_linear)"/>
<path d="M98.837 83.3785C98.9132 83.3658 98.9831 83.3594 99.0466 83.3594C99.0466 83.3404 99.0466 83.3245 99.0466 83.3118C98.964 83.1721 98.6877 83.1784 98.2177 83.3309C98.1478 83.3626 98.0716 83.3944 97.989 83.4261C97.8365 83.5214 97.6904 83.6516 97.5507 83.8168C97.4046 84.001 97.2712 84.2138 97.1505 84.4552C97.0997 84.5505 97.052 84.6426 97.0076 84.7315C96.7471 85.3541 96.3977 86.5197 95.9594 88.2285C95.8705 88.5778 95.7689 88.959 95.6545 89.3719C95.248 91.0298 94.9304 92.6592 94.7017 94.2599C94.6572 94.6411 94.6096 95.0159 94.5588 95.3843C94.527 95.6257 94.4984 95.8766 94.473 96.137C94.473 96.3085 94.473 96.4737 94.473 96.6325C94.3777 97.5981 94.3301 98.5668 94.3301 99.5387C94.3237 99.8182 94.3205 100.094 94.3205 100.368C94.3205 100.444 94.3237 100.549 94.3301 100.682C94.3301 101.031 94.346 101.587 94.3777 102.35C94.3968 102.534 94.4063 102.689 94.4063 102.816C94.419 103.09 94.4254 103.341 94.4254 103.569C94.0125 103.569 93.5869 103.569 93.1485 103.569C92.7674 103.55 92.399 103.55 92.0433 103.569C91.8146 103.569 91.0999 103.62 89.8994 103.722C88.9402 103.804 88.1271 104.862 87.4601 106.895C86.8312 109.683 87.1425 111.795 88.3939 113.231C89.8231 114.864 91.9384 115.68 94.7398 115.68C96.1055 115.68 97.1822 115.543 97.9699 115.27C98.7767 114.978 99.4564 114.489 100.009 113.803C100.492 113.193 101.003 112.272 101.543 111.039C101.664 110.766 102.232 109.312 103.249 106.675C101.972 111.795 100.616 114.768 99.18 115.594C97.7317 116.394 96.0261 116.741 94.0633 116.633C92.075 116.499 90.3758 115.899 88.9656 114.832C87.53 113.765 86.7963 111.999 86.7645 109.534C86.1738 112.227 85.9641 114.498 86.1356 116.347C86.3135 118.405 86.6788 119.767 87.2314 120.434C87.765 121.089 89.1879 121.46 91.5001 121.549C93.0056 121.632 94.4158 121.708 95.7307 121.778C95.7943 121.778 95.861 121.787 95.9308 121.807C100.949 122.048 104.538 122.131 106.698 122.054C105.618 122.042 104.932 121.568 104.64 120.635C104.322 119.65 104.163 118.014 104.163 115.727C104.163 114.825 104.179 113.949 104.211 113.098C104.236 112.011 104.29 110.957 104.373 109.934C104.373 109.864 104.386 109.785 104.411 109.696C104.525 108.324 104.687 107.165 104.897 106.218C104.897 106.186 104.897 106.161 104.897 106.142C104.897 106.104 104.903 106.059 104.916 106.008C105.113 104.916 105.678 104.43 106.612 104.551C106.669 104.551 106.73 104.551 106.793 104.551C105.847 104.309 104.551 104.093 102.906 103.903C102.035 103.833 101.089 103.772 100.066 103.722C99.9963 103.391 99.9296 103.051 99.8661 102.702C99.7771 102.118 99.6628 101.012 99.523 99.3862L99.4564 99.4053L98.8179 99.7197C98.7862 99.7388 98.7608 99.7578 98.7417 99.7769C98.7608 100.323 98.7703 100.625 98.7703 100.682C98.8592 101.463 98.9418 102.137 99.018 102.702C99.0625 103.083 99.1165 103.407 99.18 103.674C98.8307 103.661 98.4781 103.655 98.1224 103.655C98.0017 103.63 97.881 103.617 97.7603 103.617C97.4109 103.598 97.0615 103.588 96.7122 103.588C96.2675 103.576 95.8324 103.569 95.4068 103.569C95.3941 103.353 95.3718 103.102 95.3401 102.816C95.3083 102.365 95.2861 101.654 95.2734 100.682C95.2734 100.669 95.2734 100.653 95.2734 100.634C95.2607 100.406 95.2543 100.187 95.2543 99.977C95.2353 99.202 95.2416 98.4556 95.2734 97.7378C95.2861 97.4329 95.3083 97.128 95.3401 96.8231C95.3718 96.334 95.4131 95.8544 95.4639 95.3843C95.4894 95.2763 95.5021 95.162 95.5021 95.0413C95.5465 94.7681 95.5942 94.5077 95.645 94.2599C95.7022 93.6946 95.7625 93.1928 95.826 92.7545C95.8959 92.1573 96.1373 91.0425 96.5502 89.41C96.6582 88.9907 96.7566 88.5969 96.8456 88.2285C97.1251 87.1486 97.3696 86.272 97.5793 85.5986C97.7127 85.1286 97.8429 84.7474 97.9699 84.4552C98.0652 84.1694 98.1478 83.9502 98.2177 83.7978C98.2812 83.6771 98.3669 83.5754 98.4749 83.4928C98.5639 83.4357 98.6782 83.3976 98.8179 83.3785H98.837Z" fill="#CF5085"/>
<path d="M79.8862 52.9356C79.9052 53.2469 79.9973 53.4152 80.1625 53.4406C80.3594 53.4851 80.55 53.393 80.7342 53.1643C80.9502 52.9229 81.109 52.6117 81.2106 52.2305C81.3313 51.8494 81.3726 51.5127 81.3345 51.2205C81.3345 50.9283 81.2265 50.7536 81.0105 50.6964C80.8708 50.652 80.6961 50.76 80.4865 51.0204C80.2578 51.211 80.0831 51.4968 79.9624 51.878C79.8735 52.2909 79.8481 52.6434 79.8862 52.9356ZM76.0272 52.4497C76.1542 52.7101 76.2971 52.8499 76.456 52.8689C76.6465 52.8435 76.8022 52.6911 76.9228 52.4116C77.0245 52.1193 77.069 51.7763 77.0562 51.3825C77.0245 51.122 76.98 50.8711 76.9228 50.6297C76.9038 50.5535 76.872 50.4678 76.8276 50.3725C76.7005 50.1311 76.5417 50.0009 76.3511 49.9818C76.1987 50.0009 76.0589 50.1565 75.9319 50.4487C75.8112 50.7219 75.7509 51.0585 75.7509 51.4587H75.7985C75.7985 51.8335 75.8747 52.1638 76.0272 52.4497Z" fill="#994118"/>
</g>
<defs>
<linearGradient id="paint0_linear" x1="46.6495" y1="35.7004" x2="36.3844" y2="19.4315" gradientUnits="userSpaceOnUse">
<stop offset="0.145098" stop-color="#F9BA3B"/>
<stop offset="0.32549" stop-color="#FBD661"/>
<stop offset="0.392157" stop-color="#FFFF99"/>
<stop offset="0.447059" stop-color="#FDF992"/>
<stop offset="0.494118" stop-color="#F3E176"/>
<stop offset="0.498039" stop-color="#F0D86C"/>
<stop offset="0.788235" stop-color="#D18D14"/>
</linearGradient>
<linearGradient id="paint1_linear" x1="47.1791" y1="36.8625" x2="36.9145" y2="20.5939" gradientUnits="userSpaceOnUse">
<stop offset="0.145098" stop-color="#F9BA3B"/>
<stop offset="0.32549" stop-color="#FBD661"/>
<stop offset="0.392157" stop-color="#FFFF99"/>
<stop offset="0.447059" stop-color="#FDF992"/>
<stop offset="0.494118" stop-color="#F3E176"/>
<stop offset="0.498039" stop-color="#F0D86C"/>
<stop offset="0.788235" stop-color="#D18D14"/>
</linearGradient>
<linearGradient id="paint2_linear" x1="47.0729" y1="32.1116" x2="36.8083" y2="15.843" gradientUnits="userSpaceOnUse">
<stop offset="0.145098" stop-color="#F9BA3B"/>
<stop offset="0.32549" stop-color="#FBD661"/>
<stop offset="0.392157" stop-color="#FFFF99"/>
<stop offset="0.447059" stop-color="#FDF992"/>
<stop offset="0.494118" stop-color="#F3E176"/>
<stop offset="0.498039" stop-color="#F0D86C"/>
<stop offset="0.788235" stop-color="#D18D14"/>
</linearGradient>
<linearGradient id="paint3_linear" x1="48.2369" y1="27.6761" x2="37.9723" y2="11.4075" gradientUnits="userSpaceOnUse">
<stop offset="0.145098" stop-color="#F9BA3B"/>
<stop offset="0.32549" stop-color="#FBD661"/>
<stop offset="0.392157" stop-color="#FFFF99"/>
<stop offset="0.447059" stop-color="#FDF992"/>
<stop offset="0.494118" stop-color="#F3E176"/>
<stop offset="0.498039" stop-color="#F0D86C"/>
<stop offset="0.788235" stop-color="#D18D14"/>
</linearGradient>
<linearGradient id="paint4_linear" x1="47.8133" y1="26.0923" x2="37.5483" y2="9.82332" gradientUnits="userSpaceOnUse">
<stop offset="0.145098" stop-color="#F9BA3B"/>
<stop offset="0.32549" stop-color="#FBD661"/>
<stop offset="0.392157" stop-color="#FFFF99"/>
<stop offset="0.447059" stop-color="#FDF992"/>
<stop offset="0.494118" stop-color="#F3E176"/>
<stop offset="0.498039" stop-color="#F0D86C"/>
<stop offset="0.788235" stop-color="#D18D14"/>
</linearGradient>
<linearGradient id="paint5_linear" x1="49.5956" y1="35.0889" x2="59.8607" y2="18.8201" gradientUnits="userSpaceOnUse">
<stop offset="0.145098" stop-color="#F9BA3B"/>
<stop offset="0.32549" stop-color="#FBD661"/>
<stop offset="0.392157" stop-color="#FFFF99"/>
<stop offset="0.447059" stop-color="#FDF992"/>
<stop offset="0.494118" stop-color="#F3E176"/>
<stop offset="0.498039" stop-color="#F0D86C"/>
<stop offset="0.788235" stop-color="#D18D14"/>
</linearGradient>
<linearGradient id="paint6_linear" x1="52.1292" y1="33.5036" x2="62.3938" y2="17.2351" gradientUnits="userSpaceOnUse">
<stop offset="0.145098" stop-color="#F9BA3B"/>
<stop offset="0.32549" stop-color="#FBD661"/>
<stop offset="0.392157" stop-color="#FFFF99"/>
<stop offset="0.447059" stop-color="#FDF992"/>
<stop offset="0.494118" stop-color="#F3E176"/>
<stop offset="0.498039" stop-color="#F0D86C"/>
<stop offset="0.788235" stop-color="#D18D14"/>
</linearGradient>
<linearGradient id="paint7_linear" x1="49.174" y1="31.6039" x2="59.4391" y2="15.3352" gradientUnits="userSpaceOnUse">
<stop offset="0.145098" stop-color="#F9BA3B"/>
<stop offset="0.32549" stop-color="#FBD661"/>
<stop offset="0.392157" stop-color="#FFFF99"/>
<stop offset="0.447059" stop-color="#FDF992"/>
<stop offset="0.494118" stop-color="#F3E176"/>
<stop offset="0.498039" stop-color="#F0D86C"/>
<stop offset="0.788235" stop-color="#D18D14"/>
</linearGradient>
<linearGradient id="paint8_linear" x1="49.3866" y1="29.3857" x2="59.6517" y2="13.117" gradientUnits="userSpaceOnUse">
<stop offset="0.145098" stop-color="#F9BA3B"/>
<stop offset="0.32549" stop-color="#FBD661"/>
<stop offset="0.392157" stop-color="#FFFF99"/>
<stop offset="0.447059" stop-color="#FDF992"/>
<stop offset="0.494118" stop-color="#F3E176"/>
<stop offset="0.498039" stop-color="#F0D86C"/>
<stop offset="0.788235" stop-color="#D18D14"/>
</linearGradient>
<linearGradient id="paint9_linear" x1="48.7505" y1="27.8018" x2="59.0156" y2="11.533" gradientUnits="userSpaceOnUse">
<stop offset="0.145098" stop-color="#F9BA3B"/>
<stop offset="0.32549" stop-color="#FBD661"/>
<stop offset="0.392157" stop-color="#FFFF99"/>
<stop offset="0.447059" stop-color="#FDF992"/>
<stop offset="0.494118" stop-color="#F3E176"/>
<stop offset="0.498039" stop-color="#F0D86C"/>
<stop offset="0.788235" stop-color="#D18D14"/>
</linearGradient>
<linearGradient id="paint10_linear" x1="50.1237" y1="26.2179" x2="60.3888" y2="9.94913" gradientUnits="userSpaceOnUse">
<stop offset="0.145098" stop-color="#F9BA3B"/>
<stop offset="0.32549" stop-color="#FBD661"/>
<stop offset="0.392157" stop-color="#FFFF99"/>
<stop offset="0.447059" stop-color="#FDF992"/>
<stop offset="0.494118" stop-color="#F3E176"/>
<stop offset="0.498039" stop-color="#F0D86C"/>
<stop offset="0.788235" stop-color="#D18D14"/>
</linearGradient>
<linearGradient id="paint11_linear" x1="49.174" y1="24.3179" x2="59.4393" y2="8.04907" gradientUnits="userSpaceOnUse">
<stop offset="0.145098" stop-color="#F9BA3B"/>
<stop offset="0.32549" stop-color="#FBD661"/>
<stop offset="0.392157" stop-color="#FFFF99"/>
<stop offset="0.447059" stop-color="#FDF992"/>
<stop offset="0.494118" stop-color="#F3E176"/>
<stop offset="0.498039" stop-color="#F0D86C"/>
<stop offset="0.788235" stop-color="#D18D14"/>
</linearGradient>
<linearGradient id="paint12_linear" x1="47.5903" y1="22.9455" x2="57.8554" y2="6.67667" gradientUnits="userSpaceOnUse">
<stop offset="0.145098" stop-color="#F9BA3B"/>
<stop offset="0.32549" stop-color="#FBD661"/>
<stop offset="0.392157" stop-color="#FFFF99"/>
<stop offset="0.447059" stop-color="#FDF992"/>
<stop offset="0.494118" stop-color="#F3E176"/>
<stop offset="0.498039" stop-color="#F0D86C"/>
<stop offset="0.788235" stop-color="#D18D14"/>
</linearGradient>
<linearGradient id="paint13_linear" x1="49.174" y1="20.9388" x2="59.4388" y2="4.67015" gradientUnits="userSpaceOnUse">
<stop offset="0.145098" stop-color="#F9BA3B"/>
<stop offset="0.32549" stop-color="#FBD661"/>
<stop offset="0.392157" stop-color="#FFFF99"/>
<stop offset="0.447059" stop-color="#FDF992"/>
<stop offset="0.494118" stop-color="#F3E176"/>
<stop offset="0.498039" stop-color="#F0D86C"/>
<stop offset="0.788235" stop-color="#D18D14"/>
</linearGradient>
<linearGradient id="paint14_linear" x1="85.2267" y1="14.9206" x2="85.5801" y2="-2.26675" gradientUnits="userSpaceOnUse">
<stop offset="0.145098" stop-color="#F9BA3B"/>
<stop offset="0.32549" stop-color="#FBD661"/>
<stop offset="0.392157" stop-color="#FFFF99"/>
<stop offset="0.447059" stop-color="#FDF992"/>
<stop offset="0.494118" stop-color="#F3E176"/>
<stop offset="0.498039" stop-color="#F0D86C"/>
<stop offset="0.788235" stop-color="#D18D14"/>
</linearGradient>
<linearGradient id="paint15_linear" x1="102.645" y1="15.052" x2="102.818" y2="-2.06818" gradientUnits="userSpaceOnUse">
<stop offset="0.145098" stop-color="#F9BA3B"/>
<stop offset="0.32549" stop-color="#FBD661"/>
<stop offset="0.392157" stop-color="#FFFF99"/>
<stop offset="0.447059" stop-color="#FDF992"/>
<stop offset="0.494118" stop-color="#F3E176"/>
<stop offset="0.498039" stop-color="#F0D86C"/>
<stop offset="0.788235" stop-color="#D18D14"/>
</linearGradient>
<linearGradient id="paint16_linear" x1="87.5661" y1="12.8456" x2="87.8484" y2="-4.27049" gradientUnits="userSpaceOnUse">
<stop offset="0.145098" stop-color="#F9BA3B"/>
<stop offset="0.32549" stop-color="#FBD661"/>
<stop offset="0.392157" stop-color="#FFFF99"/>
<stop offset="0.447059" stop-color="#FDF992"/>
<stop offset="0.494118" stop-color="#F3E176"/>
<stop offset="0.498039" stop-color="#F0D86C"/>
<stop offset="0.788235" stop-color="#D18D14"/>
</linearGradient>
<linearGradient id="paint17_linear" x1="104.188" y1="82.4522" x2="107.591" y2="87.714" gradientUnits="userSpaceOnUse">
<stop offset="0.262745" stop-color="#F6B7B7"/>
<stop offset="0.831373" stop-color="#E59292"/>
</linearGradient>
<linearGradient id="paint18_linear" x1="105.145" y1="83.2194" x2="108.18" y2="87.9146" gradientUnits="userSpaceOnUse">
<stop offset="0.0588235" stop-color="#FFCCCC"/>
<stop offset="0.498039" stop-color="#F6B7B7"/>
<stop offset="0.831373" stop-color="#E59292"/>
</linearGradient>
<linearGradient id="paint19_linear" x1="79.7437" y1="40.1579" x2="95.3829" y2="77.5675" gradientUnits="userSpaceOnUse">
<stop offset="0.262745" stop-color="#D05E1F"/>
<stop offset="0.831373" stop-color="#994118"/>
</linearGradient>
<linearGradient id="paint20_linear" x1="101.044" y1="75.3656" x2="87.8704" y2="87.248" gradientUnits="userSpaceOnUse">
<stop offset="0.203922" stop-color="#FFCCCC"/>
<stop offset="0.611765" stop-color="#F6B7B7"/>
<stop offset="1" stop-color="#E59292"/>
</linearGradient>
<linearGradient id="paint21_linear" x1="76.3209" y1="59.2125" x2="76.3209" y2="67.4498" gradientUnits="userSpaceOnUse">
<stop offset="0.333333" stop-color="#FFCCCC"/>
<stop offset="0.823529" stop-color="#F6B7B7"/>
<stop offset="1" stop-color="#E59292"/>
</linearGradient>
<linearGradient id="paint22_linear" x1="76.8242" y1="61.6329" x2="77.0171" y2="58.9475" gradientUnits="userSpaceOnUse">
<stop offset="0.54902" stop-color="#F7BA7F"/>
<stop offset="0.956863" stop-color="#DA8B66"/>
</linearGradient>
<linearGradient id="paint23_linear" x1="85.1282" y1="39.7381" x2="87.6427" y2="71.9288" gradientUnits="userSpaceOnUse">
<stop offset="0.227451" stop-color="#D05E1F"/>
<stop offset="0.831373" stop-color="#B24F19"/>
</linearGradient>
<linearGradient id="paint24_linear" x1="69.8223" y1="64.0719" x2="69.8223" y2="126.03" gradientUnits="userSpaceOnUse">
<stop offset="0.333333" stop-color="#FFCCCC"/>
<stop offset="0.823529" stop-color="#F6B7B7"/>
<stop offset="1" stop-color="#E59292"/>
</linearGradient>
<linearGradient id="paint25_linear" x1="38.4968" y1="66.5278" x2="62.5373" y2="88.0372" gradientUnits="userSpaceOnUse">
<stop offset="0.211765" stop-color="#FFCCCC"/>
<stop offset="0.6" stop-color="#F6B7B7"/>
<stop offset="1" stop-color="#E59292"/>
</linearGradient>
<linearGradient id="paint26_linear" x1="59.3373" y1="73.5503" x2="37.1444" y2="93.5991" gradientUnits="userSpaceOnUse">
<stop offset="0.333333" stop-color="#FFCCCC"/>
<stop offset="0.823529" stop-color="#F6B7B7"/>
<stop offset="1" stop-color="#E59292"/>
</linearGradient>
</defs>
</svg>
