<?xml version="1.0" standalone="no"?>
<!DOCTYPE svg PUBLIC "-//W3C//DTD SVG 20010904//EN"
 "http://www.w3.org/TR/2001/REC-SVG-20010904/DTD/svg10.dtd">
<svg version="1.0" xmlns="http://www.w3.org/2000/svg"
 width="260.000000pt" height="260.000000pt" viewBox="0 0 260.000000 260.000000"
 preserveAspectRatio="xMidYMid meet">
<metadata>
Created by potrace 1.14, written by Peter Selinger 2001-2017
</metadata>
<g transform="translate(0.000000,260.000000) scale(0.100000,-0.100000)"
fill="#000000" stroke="none">
<path d="M1708 2295 c-2 -1 -25 -5 -53 -8 -115 -13 -261 -85 -361 -179 l-31
-29 -34 31 c-61 57 -225 157 -237 145 -3 -2 10 -19 29 -37 41 -41 109 -146
109 -168 0 -9 4 -20 9 -25 15 -17 29 -118 26 -185 -9 -175 -108 -330 -253
-398 -48 -23 -70 -27 -142 -26 -73 0 -93 5 -143 29 -165 81 -243 281 -171 435
76 164 247 219 372 119 114 -91 103 -281 -19 -344 -59 -31 -144 -9 -179 47
-25 39 -23 119 3 146 20 19 35 8 17 -13 -20 -24 -6 -94 22 -113 57 -41 102
-34 141 22 41 62 23 139 -44 187 -89 65 -216 -16 -227 -145 -5 -66 11 -117 51
-162 117 -134 312 -91 396 86 22 46 26 69 26 145 0 78 -4 97 -28 147 -83 169
-279 253 -452 193 -137 -48 -255 -189 -299 -360 -10 -39 -14 -91 -12 -155 4
-122 11 -150 58 -245 84 -168 237 -291 428 -344 133 -37 327 -19 465 44 94 43
108 38 53 -19 -49 -49 -131 -94 -227 -126 -79 -26 -96 -28 -211 -26 -96 2
-141 8 -195 25 -143 46 -282 140 -362 245 -13 17 -23 24 -23 17 0 -37 118
-251 184 -332 11 -15 30 -39 41 -55 42 -58 151 -170 245 -252 93 -79 388 -251
505 -292 11 -4 31 -12 45 -17 63 -25 361 118 569 274 294 219 532 587 576 888
4 28 9 61 11 75 33 221 -50 445 -222 598 -63 57 -190 123 -271 142 -46 10
-178 21 -185 15z"/>
</g>
</svg>
