<svg width="28" height="28" viewBox="0 0 28 28" fill="none" xmlns="http://www.w3.org/2000/svg">
<path fill-rule="evenodd" clip-rule="evenodd" d="M1.8667 14C1.8667 7.30486 7.30486 1.8667 14 1.8667C20.6952 1.8667 26.1334 7.30486 26.1334 14C26.1334 20.6952 20.6952 26.1334 14 26.1334C7.30486 26.1334 1.8667 20.6952 1.8667 14ZM25.0783 14C25.0783 7.87564 20.1244 2.92174 14 2.92174C7.87564 2.92174 2.92174 7.87564 2.92174 14C2.92174 20.1244 7.87564 25.0783 14 25.0783C20.1244 25.0783 25.0783 20.1244 25.0783 14ZM14 4.50437C12.8399 4.50437 11.8899 5.45435 11.8899 6.61452C11.8899 7.77469 12.8399 8.72466 14 8.72466C15.1602 8.72466 16.1102 7.77469 16.1102 6.61452C16.1102 5.45435 15.1602 4.50437 14 4.50437ZM15.0551 6.61456C15.0551 6.0252 14.5894 5.55948 14.0001 5.55948C13.4107 5.55948 12.945 6.0252 12.945 6.61456C12.945 7.20391 13.4107 7.66963 14.0001 7.66963C14.5894 7.66963 15.0551 7.20391 15.0551 6.61456ZM7.57071 8.42792C7.03493 8.46913 6.54448 8.81739 6.36726 9.3511C6.13235 10.0538 6.51151 10.8327 7.20802 11.0821L11.3624 12.5658V16.0442L10.0435 21.3361C9.83952 22.1562 10.468 22.9681 11.3129 22.9681C11.8775 22.9681 12.3886 22.5993 12.5658 22.0614L14.0001 17.7587L15.4343 22.0614C15.6115 22.5993 16.1226 22.9681 16.6872 22.9681C17.5321 22.9681 18.1606 22.1562 17.9566 21.3361L16.6377 16.0442V12.5658L20.7921 11.0821C21.4886 10.8327 21.8678 10.0538 21.6328 9.3511C21.3959 8.64017 20.5963 8.25688 19.8854 8.49386L16.0443 9.77973H11.9559L8.11473 8.49386C7.93751 8.4341 7.74999 8.41349 7.57071 8.42792ZM7.76848 9.49952C7.72521 9.48509 7.67781 9.48097 7.6366 9.48303C7.51502 9.49128 7.41611 9.56958 7.37283 9.69734C7.31719 9.86632 7.40374 10.0332 7.57066 10.093L12.0712 11.6921L12.4174 11.8075V16.1761L11.0656 21.5834C11.0203 21.7627 11.1295 21.9131 11.3129 21.9131C11.4283 21.9131 11.5416 21.841 11.5766 21.7318L13.456 16.0937C13.4292 15.8444 13.5796 15.6095 13.8187 15.5332C13.8455 15.525 13.8722 15.5208 13.9011 15.5167C13.9279 15.5085 13.9547 15.5044 13.9835 15.5002H14C14.0289 15.5044 14.0556 15.5085 14.0824 15.5167H14.0989C14.3709 15.5579 14.5646 15.8032 14.544 16.0772V16.1267L16.4234 21.7318C16.4584 21.841 16.5717 21.9131 16.6871 21.9131C16.8705 21.9131 16.9798 21.7627 16.9344 21.5834L15.5826 16.1761V11.8075L15.9288 11.6921L20.4294 10.093C20.5963 10.0332 20.6828 9.86632 20.6272 9.69734C20.5695 9.52631 20.4026 9.44182 20.2315 9.49952L16.275 10.8019L16.1926 10.8348H11.8074L11.725 10.8019L7.76848 9.49952Z" fill="black"/>
</svg>
