<svg xmlns="http://www.w3.org/2000/svg" width="106" height="78" fill="none" viewBox="0 0 106 78">
    <path fill="#D92E76" d="M103.375.625c-.031.008-.062.02-.094.031-.261.067-.488.235-.625.47L82.219 32.812 68.156 20.125c-.246-.312-.656-.449-1.043-.347-.386.101-.671.425-.73.82-.059.394.121.785.461.996l14.906 13.5c.219.191.512.277.801.234.29-.043.543-.207.7-.453l21.093-32.687c.23-.328.242-.762.031-1.102-.211-.34-.605-.52-1-.46z"/>
    <path fill="#000" fill-rule="evenodd" d="M44.312 24c-2.652 0-4.887 2.02-5.188 4.594-.025-.004-.051-.01-.078-.016-.026-.006-.053-.012-.078-.015-7.689-1.312-12.527 5.621-15.377 9.706-.877 1.256-1.566 2.243-2.092 2.637-.781.574-2.528.79-4.486 1.033-.617.076-1.254.155-1.889.248-1.328.196-2.652.489-3.812 1.157-1.16.668-2.14 1.789-2.5 3.343h.031c-.453 1.06-.375 2.282.031 3.5.457 1.368 1.329 2.805 2.532 4.282 2.332 2.863 5.933 5.89 10.375 8.625C22.699 66.5 25.796 69 29.499 69c1.11 0 2.168-.223 3.125-.625C35.741 69.422 38.523 70 40.906 70c2.316 0 4.257-.61 5.25-2.156h.03c.022-.025.037-.055.052-.085.013-.025.026-.05.043-.072.863-1.105 1.539-2.398 1.468-4.03-.074-1.704-.859-3.657-2.5-6.376-.617-1.027-.449-2.648.25-4.781.352-1.073.82-2.243 1.313-3.471.486-1.215.995-2.486 1.437-3.779.891-2.602 1.543-5.336 1.032-8-.262-1.363-.844-2.691-1.813-3.906 1.234-.989 2.031-2.477 2.031-4.157 0-2.851-2.336-5.187-5.187-5.187zm0 2c1.75 0 3.188 1.438 3.188 3.188 0 1.14-.54 2.097-1.438 2.718-.699-.601-1.523-1.172-2.469-1.687h-.03c-.856-.465-1.677-.817-2.47-1.094.036-1.719 1.493-3.125 3.22-3.125zm-1.687 5.969c-2.227-1.211-4.149-1.715-5.844-1.719-4.92-.013-7.879 4.215-10.43 7.86-1.258 1.798-2.417 3.454-3.664 4.39-1.502 1.1-3.506 1.29-5.459 1.473-.402.038-.803.075-1.197.12 4.285.423 9.902 2.423 15.656 5.75 4.98 2.895 9.102 6.188 11.781 9.282.582.676 1.086 1.348 1.532 2-.348-.805-.805-1.715-1.47-2.813-1.132-1.874-.694-4.128.063-6.437.393-1.195.898-2.436 1.411-3.696.478-1.175.964-2.367 1.37-3.554.844-2.46 1.34-4.898.938-7-.402-2.102-1.629-3.984-4.687-5.656zM14.405 46c3.774 0 9.993 1.926 16.282 5.563 4.82 2.804 8.808 6.019 11.28 8.874 1.235 1.426 2.09 2.747 2.5 3.844.403 1.082.364 1.863.063 2.406-.437.754-1.605 1.313-3.625 1.313-1.683 0-3.726-.379-6.062-1.063 1.625-1.46 2.656-3.57 2.656-5.937 0-4.43-3.57-8-8-8-4.281 0-7.738 3.34-7.969 7.563-3.683-2.422-6.683-5.032-8.593-7.376-1.098-1.347-1.813-2.597-2.157-3.624-.343-1.028-.293-1.739 0-2.25.446-.743 1.622-1.313 3.625-1.313zM35.5 61c0-3.371-2.63-6-6-6-3.371 0-6 2.629-6 6s2.629 6 6 6c3.37 0 6-2.629 6-6z" clip-rule="evenodd"/>
</svg>
