<svg xmlns="http://www.w3.org/2000/svg" width="76" height="57" fill="none" viewBox="0 0 76 57">
    <path fill="#F7FAFB" fill-rule="evenodd" d="M68.054 10.65c8.602 9.88 7.513 21.09 6.665 24.583-1.367 5.633-3.721 10.472-8.534 14.558-10.937 9.285-39.466 8.483-49.447 2.825-4.982-2.825-13.803-9.011-15.732-20.33-.047-.276-.074-.483-.1-.664-.24-1.75-1.516-12.601 8.148-21.448 1.383-1.267 3.878-3.305 7.684-5.195 13.916-6.91 35.467-6.932 47.279 1.856 1.987 1.48 3.155 2.802 4.037 3.815z" clip-rule="evenodd"/>
    <circle cx="38.481" cy="28.432" r="20" fill="#8EBD3A"/>
    <rect width="25.867" height="17.653" x="25.736" y="20.773" stroke="#fff" stroke-width="1.12" rx="1.84"/>
    <path fill="#fff" d="M26.349 23.734H50.989000000000004V27.254H26.349zM28.696 29.6H38.083V30.773000000000003H28.696z"/>
</svg>
