<svg width="25" height="25" viewBox="0 0 25 25" fill="none" xmlns="http://www.w3.org/2000/svg">
    <path d="m14.006 17.779-5.124 3.247L1.428 15.9" stroke="#000" stroke-miterlimit="10" stroke-linecap="round" stroke-linejoin="round"/>
    <path d="M15.404 7.05v.931M8.882 11.242v.932" stroke="#000" stroke-miterlimit="10"/>
    <path d="M14.006 13.078 6.338 7.893 9.79 5.81l2.027 1.271 5.916 3.713v7.453l-3.727 2.404v-7.574z" stroke="#000" stroke-miterlimit="10" stroke-linecap="round" stroke-linejoin="round"/>
    <path d="m16.196 9.83 2.664-1.686c-.405-.256-.489-.62 0-.927l-2.93-1.854a1.377 1.377 0 0 1-1.467 0L11.78 7.06M8.332 9.244l-2.916 1.84c.49.308.41.666.005.923l2.93 1.854a1.36 1.36 0 0 1 1.463.004l2.762-1.747" stroke="#000" stroke-miterlimit="10"/>
    <path d="m14.006 13.12-5.124 3.247-7.454-4.658 5.511-3.41M10.307 6.132l5.097-3.275 7.453 4.659-5.152 3.26" stroke="#000" stroke-miterlimit="10" stroke-linecap="round" stroke-linejoin="round"/>
    <path d="m14.006 15.458-5.124 3.237-7.454-5.124M22.857 9.845l-5.124 3.242M14.006 20.108l-5.124 3.247-7.454-5.125M22.857 14.503l-5.124 3.247M22.857 12.174l-5.124 3.247" stroke="#000" stroke-miterlimit="10" stroke-linecap="round" stroke-linejoin="round"/>
</svg>
