<svg width="75" height="62" viewBox="0 0 75 62" fill="none" xmlns="http://www.w3.org/2000/svg">
    <path d="M28.432 40.291c.76-.36 1.055-.912.965-1.84l-.721-8.307a1.666 1.666 0 0 0-.152-.572c-.252-.533-.837-.71-1.434-.427-.513.243-.698.609-.61 1.212l.996 7.764-.045.021-5.371-5.669c-.415-.455-.84-.548-1.366-.299-.617.292-.854.866-.593 1.418.089.188.208.354.359.505l5.928 5.771c.664.663 1.278.786 2.044.423zm9.412-4.417c2.773-1.313 3.64-3.997 2.229-6.978-1.414-2.987-4.044-4.023-6.816-2.71-2.78 1.316-3.638 4.004-2.223 6.99 1.411 2.981 4.03 4.014 6.81 2.698zm-.775-1.636c-1.539.729-3.107-.047-4.035-2.008-.932-1.968-.535-3.682.997-4.408 1.533-.725 3.104.057 4.035 2.025.93 1.96.536 3.665-.997 4.391zm7.526-1.6c.617-.292.802-.841.498-1.484l-3.588-7.578c-.308-.65-.85-.854-1.467-.562-.617.293-.802.841-.494 1.49l3.588 7.579c.304.643.846.847 1.463.555zm3.461-1.79 2.598-1.23c2.812-1.331 3.64-3.862 2.232-6.836s-3.857-3.866-6.67-2.534l-2.597 1.23c-.617.292-.802.84-.497 1.483l3.468 7.325c.307.65.85.854 1.466.562zm.212-2.088-2.902-6.13 1.383-.655c1.727-.818 3.212-.2 4.14 1.76.96 2.026.516 3.54-1.238 4.37l-1.383.655zM0 28.189 59.107.202l1.749 3.693L1.749 31.883zM13.994 57.74 73.1 29.755l1.749 3.693-59.107 27.988z" fill="#E30000"/>
</svg>
