<svg xmlns="http://www.w3.org/2000/svg" width="106" height="78" fill="none" viewBox="0 0 106 78">
    <path fill="#D92E76" d="M103.375.625c-.031.008-.062.02-.094.031-.261.067-.488.235-.625.47L82.219 32.812 68.156 20.125c-.246-.312-.656-.449-1.043-.347-.386.101-.671.425-.73.82-.059.394.121.785.461.996l14.906 13.5c.219.191.512.277.801.234.29-.043.543-.207.7-.453l21.093-32.687c.23-.328.242-.762.031-1.102-.211-.34-.605-.52-1-.46z"/>
    <rect width="45" height="31" x="9" y="32.5" stroke="#000" rx="2.5"/>
    <path fill="#000" d="M10.5 38H52.5V44H10.5zM14.5 48H30.5V50H14.5z"/>
</svg>
