<svg width="28" height="28" viewBox="0 0 28 28" fill="none" xmlns="http://www.w3.org/2000/svg">
<path fill-rule="evenodd" clip-rule="evenodd" d="M3.73328 8.86666C3.73328 7.58333 4.78328 6.53333 6.06661 6.53333H22.8666C24.1499 6.53333 25.1999 7.58333 25.1999 8.86666V19.1333C25.1999 20.4167 24.1499 21.4667 22.8666 21.4667H6.06661C4.78328 21.4667 3.73328 20.4167 3.73328 19.1333V8.86666ZM22.8666 7.46666H6.06661C5.28822 7.46666 4.66661 8.08827 4.66661 8.86666V9.79999H24.2666V8.86666C24.2666 8.08827 23.645 7.46666 22.8666 7.46666ZM4.66661 12.1333H24.2666V19.1333C24.2666 19.9117 23.645 20.5333 22.8666 20.5333H6.06661C5.28822 20.5333 4.66661 19.9117 4.66661 19.1333V12.1333ZM6.99994 14.4667V13.5333H14.4666V14.4667H6.99994Z" fill="black"/>
</svg>
