<svg width="28" height="28" viewBox="0 0 28 28" fill="none" xmlns="http://www.w3.org/2000/svg">
<path d="M9.86667 18.1997C9.86667 20.8139 7.74748 22.9331 5.13333 22.9331C2.51919 22.9331 0.4 20.8139 0.4 18.1997C0.4 15.5856 2.51919 13.4664 5.13333 13.4664C7.74748 13.4664 9.86667 15.5856 9.86667 18.1997Z" stroke="#D83275" stroke-width="0.8"/>
<path d="M4.37811 21.6914C4.51093 21.6914 4.61249 21.5977 4.61249 21.457V20.957C5.53436 20.8867 6.29999 20.375 6.29999 19.4336C6.29999 18.6133 5.73749 18.1992 4.73358 17.957L4.61249 17.9297V16.1523C5.07733 16.2148 5.37811 16.4688 5.54999 16.9219C5.60468 17.0898 5.71405 17.1992 5.89764 17.1992C6.08514 17.1992 6.21796 17.0703 6.21796 16.8828C6.21796 16.8242 6.21014 16.7656 6.19452 16.707C6.01483 16.043 5.38983 15.6094 4.61249 15.5391V15.0391C4.61249 14.8984 4.51093 14.8047 4.37811 14.8047C4.2453 14.8047 4.14374 14.8984 4.14374 15.0391V15.543C3.21796 15.625 2.5578 16.1797 2.5578 17.0195C2.5578 17.7891 3.08124 18.2227 4.05389 18.457L4.14374 18.4805V20.3438C3.54608 20.2773 3.24921 19.9727 3.1203 19.5703C3.05389 19.375 2.9328 19.293 2.77264 19.293C2.58514 19.293 2.45233 19.4219 2.45233 19.6094C2.45233 19.668 2.46014 19.7266 2.47577 19.7852C2.65936 20.4766 3.34686 20.8828 4.14374 20.9531V21.457C4.14374 21.5977 4.2453 21.6914 4.37811 21.6914ZM3.23749 16.9727C3.23749 16.5938 3.54999 16.2344 4.14374 16.1562V17.8164C3.47186 17.6523 3.23749 17.3555 3.23749 16.9727ZM4.63593 18.5977C5.40936 18.7852 5.6203 19.0586 5.6203 19.4883C5.6203 19.9375 5.33905 20.293 4.61249 20.3477V18.5938L4.63593 18.5977Z" fill="#D83275"/>
<path d="M12.3667 6.23301C12.5876 6.23301 12.7667 6.05392 12.7667 5.83301C12.7667 5.61209 12.5876 5.43301 12.3667 5.43301V6.23301ZM4.50002 11.1997C4.50002 11.4206 4.67911 11.5997 4.90002 11.5997C5.12094 11.5997 5.30002 11.4206 5.30002 11.1997H4.50002ZM10.2667 6.23301H11.9V5.43301H10.2667V6.23301ZM11.9 6.23301H12.3667V5.43301H11.9V6.23301ZM5.30002 11.1997C5.30002 8.45666 7.52368 6.23301 10.2667 6.23301V5.43301C7.08185 5.43301 4.50002 8.01483 4.50002 11.1997H5.30002Z" fill="#D83275"/>
<path d="M12.014 4.00174C11.9044 3.80993 11.66 3.74329 11.4682 3.8529C11.2764 3.9625 11.2098 4.20684 11.3194 4.39865L12.014 4.00174ZM12.6 5.83353L12.8603 6.13723C13.006 6.01237 13.0425 5.80166 12.9473 5.63507L12.6 5.83353ZM10.7064 6.92983C10.5386 7.07359 10.5192 7.32611 10.663 7.49384C10.8067 7.66158 11.0593 7.681 11.227 7.53723L10.7064 6.92983ZM11.3194 4.39865L12.2527 6.03198L12.9473 5.63507L12.014 4.00174L11.3194 4.39865ZM12.3397 5.52983L10.7064 6.92983L11.227 7.53723L12.8603 6.13723L12.3397 5.52983Z" fill="#D83275"/>
<path d="M10.5 9.56706H27.5333M10.5 9.56706L19.1333 4.90039L27.5333 9.56706M10.5 9.56706V10.7337H27.5333V9.56706M10.5 10.9671C10.5 11.3559 10.6867 12.1337 11.4333 12.1337C12.18 12.1337 14.4667 12.1337 13.7667 12.1337C14.1556 12.1337 14.9333 11.9004 14.9333 10.9671M10.5 22.4004C10.5 22.0115 10.6867 21.2337 11.4333 21.2337C12.18 21.2337 13.3778 21.2337 14 21.2337C14.3111 21.2337 14.9333 21.4671 14.9333 22.4004M16.8 10.9671C16.8 11.3559 16.9867 12.1337 17.7333 12.1337C18.48 12.1337 20.7667 12.1337 20.0667 12.1337C20.4556 12.1337 21.2333 11.9004 21.2333 10.9671M16.5667 22.4004C16.5667 22.0115 16.7533 21.2337 17.5 21.2337C18.2467 21.2337 19.6778 21.2337 20.3 21.2337C20.6111 21.2337 21.2333 21.4671 21.2333 22.4004M23.1 10.9671C23.1 11.3559 23.2867 12.1337 24.0333 12.1337C24.78 12.1337 27.0667 12.1337 26.3667 12.1337C26.7556 12.1337 27.5333 11.9004 27.5333 10.9671M22.8667 22.4004C22.8667 22.0115 23.0533 21.2337 23.8 21.2337C24.5467 21.2337 25.9778 21.2337 26.6 21.2337C26.9111 21.2337 27.5333 21.4671 27.5333 22.4004M11.6667 12.3671V21.0004H13.7667V12.3671H11.6667ZM17.9667 12.3671V21.0004H20.0667V12.3671H17.9667ZM24.2667 12.3671V21.0004H26.3667V12.3671H24.2667ZM10.5 22.6337H27.5333V23.8004H10.5V22.6337Z" stroke="#D83275" stroke-width="0.8" stroke-linecap="round" stroke-linejoin="round"/>
</svg>
