<svg xmlns="http://www.w3.org/2000/svg" width="25" height="25" fill="none" viewBox="0 0 25 25">
    <path fill="#000" fill-rule="evenodd" d="M1.667 12.707c0-6.092 4.948-11.04 11.04-11.04 6.091 0 11.04 4.948 11.04 11.04 0 6.091-4.949 11.04-11.04 11.04-6.092 0-11.04-4.949-11.04-11.04zm21.12 0c0-5.573-4.508-10.08-10.08-10.08-5.573 0-10.08 4.507-10.08 10.08 0 5.572 4.507 10.08 10.08 10.08 5.572 0 10.08-4.508 10.08-10.08zm-10.08-8.64c-4.766 0-8.64 3.873-8.64 8.64 0 4.766 3.874 8.64 8.64 8.64 1.677 0 3.247-.48 4.574-1.31.225-.14.293-.436.153-.66-.14-.226-.436-.294-.661-.154-1.18.737-2.571 1.164-4.066 1.164-4.248 0-7.68-3.433-7.68-7.68 0-4.248 3.432-7.68 7.68-7.68 4.247 0 7.68 3.432 7.68 7.68 0 2.613-2.176 4.32-4.32 4.32-.796 0-1.056-.314-1.218-.784-.156-.454-.101-1.084.038-1.475l2.583-6.197c.065-.15.05-.323-.042-.459-.09-.136-.245-.216-.409-.212-.193.004-.364.123-.436.302l-.4.959c-.232-.445-.537-.807-.91-1.075-.673-.483-1.514-.66-2.428-.66-1.107 0-2.41.665-3.495 1.85-1.085 1.184-1.923 2.921-1.923 5.1 0 .966.29 1.864.863 2.53.573.667 1.435 1.08 2.455 1.08 1.17 0 2.044-.418 2.657-.983.193-.178.356-.368.507-.562l.012.045c.006.023.012.046.02.068.261.762 1.002 1.433 2.126 1.433 2.656 0 5.28-2.134 5.28-5.28 0-4.767-3.874-8.64-8.64-8.64zm2.006 4.798c-.453-.326-1.077-.479-1.868-.479-.686 0-1.85.515-2.787 1.538-.936 1.023-1.671 2.518-1.671 4.451 0 .774.233 1.443.632 1.906.398.464.955.745 1.726.745.954 0 1.542-.3 2.008-.73.466-.429.793-1.009 1.092-1.555.011-.022.024-.043.04-.062l.11-.266.006-.02.007-.023c.011-.032.026-.062.043-.091l.001-.002 1.58-3.793c-.166-.815-.482-1.306-.92-1.62z" clip-rule="evenodd"/>
</svg>
