<svg width="80" height="80" viewBox="0 0 80 80" fill="none" xmlns="http://www.w3.org/2000/svg">
<circle cx="40" cy="40" r="38.5" stroke="#22CFA8" stroke-width="3"/>
<path d="M25.25 57V57.75H26H53H53.75V57V23C53.75 22.0335 52.9665 21.25 52 21.25H27C26.0335 21.25 25.25 22.0335 25.25 23V57Z" stroke="#22CFA8" stroke-width="1.5"/>
<path d="M41.9581 29.244H37.0418C36.7724 29.244 36.5541 29.0185 36.5541 28.7401V25.5552C36.5541 25.2768 36.7724 25.0513 37.0418 25.0513H41.9581C42.2276 25.0513 42.4458 25.2768 42.4458 25.5552V28.7388C42.4458 29.0172 42.2276 29.244 41.9581 29.244ZM37.5296 28.2361H41.4704V26.0591H37.5296V28.2361Z" fill="#22CFA8"/>
<path d="M41.9581 35.0697H37.0418C36.7724 35.0697 36.5541 34.8442 36.5541 34.5657V31.3809C36.5541 31.1025 36.7724 30.877 37.0418 30.877H41.9581C42.2276 30.877 42.4458 31.1025 42.4458 31.3809V34.5645C42.4458 34.8442 42.2276 35.0697 41.9581 35.0697ZM37.5296 34.0618H41.4704V31.8848H37.5296V34.0618Z" fill="#22CFA8"/>
<path d="M41.9581 40.8954H37.0418C36.7724 40.8954 36.5541 40.6698 36.5541 40.3914V37.2066C36.5541 36.9281 36.7724 36.7026 37.0418 36.7026H41.9581C42.2276 36.7026 42.4458 36.9281 42.4458 37.2066V40.3914C42.4458 40.6698 42.2276 40.8954 41.9581 40.8954ZM37.5296 39.8875H41.4704V37.7105H37.5296V39.8875Z" fill="#22CFA8"/>
<path d="M41.9581 46.722H37.0418C36.7724 46.722 36.5541 46.4965 36.5541 46.2181V43.0332C36.5541 42.7548 36.7724 42.5293 37.0418 42.5293H41.9581C42.2276 42.5293 42.4458 42.7548 42.4458 43.0332V46.2181C42.4458 46.4965 42.2276 46.722 41.9581 46.722ZM37.5296 45.7142H41.4704V43.5372H37.5296V45.7142Z" fill="#22CFA8"/>
<path d="M33.3547 29.244H28.4384C28.169 29.244 27.9507 29.0185 27.9507 28.7401V25.5552C27.9507 25.2768 28.169 25.0513 28.4384 25.0513H33.3547C33.6241 25.0513 33.8424 25.2768 33.8424 25.5552V28.7388C33.8424 29.0172 33.6241 29.244 33.3547 29.244ZM28.9261 28.2361H32.8669V26.0591H28.9261V28.2361Z" fill="#22CFA8"/>
<path d="M33.3547 35.0697H28.4384C28.169 35.0697 27.9507 34.8442 27.9507 34.5657V31.3809C27.9507 31.1025 28.169 30.877 28.4384 30.877H33.3547C33.6241 30.877 33.8424 31.1025 33.8424 31.3809V34.5645C33.8424 34.8442 33.6241 35.0697 33.3547 35.0697ZM28.9261 34.0618H32.8669V31.8848H28.9261V34.0618Z" fill="#22CFA8"/>
<path d="M33.3547 40.8954H28.4384C28.169 40.8954 27.9507 40.6698 27.9507 40.3914V37.2066C27.9507 36.9281 28.169 36.7026 28.4384 36.7026H33.3547C33.6241 36.7026 33.8424 36.9281 33.8424 37.2066V40.3914C33.8424 40.6698 33.6241 40.8954 33.3547 40.8954ZM28.9261 39.8875H32.8669V37.7105H28.9261V39.8875Z" fill="#22CFA8"/>
<path d="M33.3547 46.722H28.4384C28.169 46.722 27.9507 46.4965 27.9507 46.2181V43.0332C27.9507 42.7548 28.169 42.5293 28.4384 42.5293H33.3547C33.6241 42.5293 33.8424 42.7548 33.8424 43.0332V46.2181C33.8424 46.4965 33.6241 46.722 33.3547 46.722ZM28.9261 45.7142H32.8669V43.5372H28.9261V45.7142Z" fill="#22CFA8"/>
<path d="M50.5615 29.244H45.6453C45.3758 29.244 45.1576 29.0185 45.1576 28.7401V25.5552C45.1576 25.2768 45.3758 25.0513 45.6453 25.0513H50.5615C50.831 25.0513 51.0493 25.2768 51.0493 25.5552V28.7388C51.0493 29.0172 50.831 29.244 50.5615 29.244ZM46.133 28.2361H50.0738V26.0591H46.133V28.2361Z" fill="#22CFA8"/>
<path d="M50.5615 35.0697H45.6453C45.3758 35.0697 45.1576 34.8442 45.1576 34.5657V31.3809C45.1576 31.1025 45.3758 30.877 45.6453 30.877H50.5615C50.831 30.877 51.0493 31.1025 51.0493 31.3809V34.5645C51.0493 34.8442 50.831 35.0697 50.5615 35.0697ZM46.133 34.0618H50.0738V31.8848H46.133V34.0618Z" fill="#22CFA8"/>
<path d="M50.5615 40.8954H45.6453C45.3758 40.8954 45.1576 40.6698 45.1576 40.3914V37.2066C45.1576 36.9281 45.3758 36.7026 45.6453 36.7026H50.5615C50.831 36.7026 51.0493 36.9281 51.0493 37.2066V40.3914C51.0493 40.6698 50.831 40.8954 50.5615 40.8954ZM46.133 39.8875H50.0738V37.7105H46.133V39.8875Z" fill="#22CFA8"/>
<path d="M50.5615 46.722H45.6453C45.3758 46.722 45.1576 46.4965 45.1576 46.2181V43.0332C45.1576 42.7548 45.3758 42.5293 45.6453 42.5293H50.5615C50.831 42.5293 51.0493 42.7548 51.0493 43.0332V46.2181C51.0493 46.4965 50.831 46.722 50.5615 46.722ZM46.133 45.7142H50.0738V43.5372H46.133V45.7142Z" fill="#22CFA8"/>
<path d="M42.0873 58.0001H36.9126C36.6431 58.0001 36.4249 57.7746 36.4249 57.4962V49.563C36.4249 49.2846 36.6431 49.0591 36.9126 49.0591H42.0873C42.3568 49.0591 42.5751 49.2846 42.5751 49.563V57.4962C42.5751 57.7746 42.3568 58.0001 42.0873 58.0001ZM37.4003 56.9922H41.5996V50.0669H37.4003V56.9922Z" fill="#22CFA8"/>
</svg>
