<svg xmlns="http://www.w3.org/2000/svg" width="46" height="46" fill="none" viewBox="0 0 46 46">
    <path fill="#000" fill-rule="evenodd" d="M23.83 39.596c-.458 0-.83.372-.83.83 0 .459.372.83.83.83h16.597c.459 0 .83-.371.83-.83 0-.458-.372-.83-.83-.83H23.83z" clip-rule="evenodd"/>
    <mask id="9apfqxgsua" width="19" height="19" x="23" y="23" maskUnits="userSpaceOnUse">
        <path fill="#fff" fill-rule="evenodd" d="M23 41.256h18.265V23H23v18.256z" clip-rule="evenodd"/>
    </mask>
    <g mask="url(#9apfqxgsua)">
        <path fill="#000" fill-rule="evenodd" d="M26.734 37.438h2.49v-7.469h-2.49v7.469zm4.15 0h2.489v-7.469h-2.49v7.469zm4.149 0h2.49v-7.469h-2.49v7.469zm-10.166 0c-.458 0-.83.372-.83.83 0 .459.372.83.83.83H39.39c.458 0 .83-.371.83-.83 0-.458-.372-.83-.83-.83h-.207V29.97h.207c.23 0 .414-.186.414-.415 0-.229-.186-.414-.414-.414H24.867c-.229 0-.414.185-.414.414 0 .23.185.415.414.415h.208v7.469h-.208zM23.83 28.394h16.605c.459 0 .83-.372.83-.83 0-.365-.235-.674-.56-.786l-8.235-3.705c-.217-.097-.464-.097-.681 0l-8.3 3.734c-.357.16-.553.549-.47.931.082.383.42.656.811.656z" clip-rule="evenodd"/>
    </g>
    <path fill="#000" fill-rule="evenodd" d="M28.1 4.003c-1.613 0-3.227.615-4.456 1.843l-3.5 3.5c-1.744 1.744-2.243 4.263-1.51 6.459l2.515-2.515c.105-.719.423-1.412.975-1.964l3.5-3.5c.683-.682 1.58-1.024 2.476-1.024.896 0 1.793.341 2.474 1.024 1.365 1.365 1.365 3.585 0 4.949l-3.5 3.5c-.552.552-1.245.869-1.964.975l-2.516 2.515c.65.217 1.326.332 2.005.332 1.613 0 3.227-.614 4.455-1.843l3.5-3.5c2.457-2.456 2.456-6.452 0-8.908-1.228-1.228-2.84-1.843-4.454-1.843zm-4.227 9.083c-.364.011-.71.163-.963.424l-8.4 8.4c-.366.352-.513.873-.385 1.363.128.491.511.874 1.002 1.002.49.128 1.012-.02 1.363-.385l8.4-8.4c.414-.402.538-1.018.313-1.55-.225-.531-.753-.87-1.33-.854zm-13.527 6.059c1.309-1.309 3.052-1.916 4.768-1.828.572.029 1.141.135 1.69.318L14.29 20.15c-.719.106-1.412.424-1.965.977l-3.5 3.5c-1.364 1.364-1.364 3.584 0 4.949 1.365 1.365 3.585 1.365 4.95 0l3.5-3.5c.552-.552.87-1.246.974-1.965l2.516-2.515c.734 2.195.234 4.714-1.51 6.458l-3.5 3.5c-1.23 1.229-2.842 1.843-4.455 1.843s-3.226-.614-4.454-1.841c-2.457-2.457-2.457-6.454 0-8.91l3.5-3.5z" clip-rule="evenodd"/>
</svg>
