<svg width="25" height="25" viewBox="0 0 25 25" fill="none" xmlns="http://www.w3.org/2000/svg">
<path fill-rule="evenodd" clip-rule="evenodd" d="M7.96666 7.45C7.96666 4.72152 10.1882 2.5 12.9167 2.5C15.6451 2.5 17.8667 4.72152 17.8667 7.45C17.8667 10.1785 15.6451 12.4 12.9167 12.4C10.1882 12.4 7.96666 10.1785 7.96666 7.45ZM16.9666 7.45001C16.9666 5.20792 15.1587 3.40001 12.9166 3.40001C10.6746 3.40001 8.86665 5.20792 8.86665 7.45001C8.86665 9.69209 10.6746 11.5 12.9166 11.5C15.1587 11.5 16.9666 9.69209 16.9666 7.45001ZM12.4667 4.29999V5.09628C11.2751 5.29608 11.2371 6.35501 11.2371 6.48056C11.2371 7.59446 12.1385 7.79589 12.8633 7.95787L12.8639 7.958C13.5146 8.1038 13.8826 8.20791 13.8826 8.64531C13.8826 8.90766 13.7572 9.34843 12.9175 9.34843C12.8991 9.34843 12.4625 9.34518 12.1889 9.07158C12.0274 8.91003 11.9492 8.67647 11.9569 8.37812L11.9578 8.34999H11.1219L11.1228 8.379C11.1498 9.324 11.5918 9.86396 12.4675 10.0305V10.6H12.5106H13.3297H13.3667V10.0445C14.6474 9.83663 14.7167 8.8439 14.7167 8.63915C14.7171 7.56361 13.8159 7.3565 13.0915 7.19003L13.0907 7.18984C12.44 7.04044 12.072 6.93538 12.072 6.52363C12.072 6.03088 12.3444 5.80117 12.9298 5.80117C13.567 5.80117 13.7348 6.19314 13.7578 6.54999H14.5927C14.5932 6.20079 14.4514 5.82516 14.2016 5.55156C13.9829 5.31261 13.6956 5.15881 13.3658 5.09716V4.29999H13.3297H12.5097H12.4667ZM5.45851 12.8692C6.01808 12.6396 6.60185 12.4 7.72585 12.4C9.9762 12.4 10.8875 13.4298 11.3736 13.9793C11.5005 14.1226 11.5984 14.2332 11.6836 14.2844V14.2835C11.8442 14.3798 12.3864 14.5758 12.9879 14.7379C13.2808 14.5524 15.2951 13.2775 15.9691 12.8764C16.4548 12.5872 17.1267 12.3763 17.7726 12.4264C18.0956 12.4514 18.4427 12.5536 18.6841 12.8412C18.7525 12.9228 18.785 13.0264 18.8175 13.1301C18.8236 13.1495 18.8298 13.169 18.8361 13.1884C19.3997 12.9292 19.969 12.7744 20.4717 12.8737H20.4726C20.8558 12.9496 21.1968 13.1835 21.3498 13.5153C21.3726 13.5649 21.3681 13.6187 21.3635 13.6725C21.3601 13.7126 21.3567 13.7528 21.3647 13.7913C21.8606 13.5687 22.311 13.4264 22.6875 13.4336C23.2198 13.4437 23.6398 13.6968 23.8749 14.004C24.1739 14.3951 24.2345 14.927 24.0463 15.3733C23.858 15.8197 23.4849 16.2028 22.9687 16.5687V16.5678C22.2913 17.0484 16.6516 20.8075 15.7142 21.3499C15.6058 21.4128 15.4945 21.4837 15.3782 21.5579L15.3779 21.5581L15.3778 21.5581C15.0204 21.7861 14.6155 22.0443 14.0988 22.191C13.4137 22.3855 12.5591 22.3365 11.4964 21.8192C10.9954 21.5752 9.45848 20.7767 8.35489 20.2033C7.96802 20.0023 7.63441 19.829 7.41735 19.7169C7.01565 19.5093 6.78964 19.4551 6.62018 19.4646C6.45184 19.4741 6.26842 19.551 5.95837 19.7485L4.74372 20.5404C4.609 20.6304 4.43629 20.6411 4.29153 20.5683C4.14678 20.4955 4.05232 20.3505 4.04422 20.1887C4.03613 20.0269 4.11564 19.8732 4.25241 19.7863L5.46618 18.9944L5.4697 18.9918C5.82729 18.7634 6.1675 18.5882 6.56921 18.5655C6.97092 18.5429 7.36409 18.6761 7.83044 18.9171C8.0557 19.0334 8.4061 19.2154 8.81048 19.4255L8.8112 19.4259C9.92172 20.0027 11.439 20.7909 11.8901 21.0106H11.891C12.8126 21.4591 13.3762 21.4606 13.8527 21.3253C14.2006 21.2265 14.5167 21.0298 14.8631 20.8143L14.8631 20.8143C14.9913 20.7345 15.1237 20.6521 15.2633 20.5712C15.9622 20.1668 21.9081 16.2173 22.4484 15.8339C22.8826 15.5261 23.1307 15.2292 23.2175 15.0235C23.3042 14.8178 23.2938 14.7252 23.1603 14.5507C23.0683 14.4304 22.9591 14.3391 22.6708 14.3336C22.3825 14.3281 21.8986 14.4464 21.1968 14.8627L17.1495 17.5847C17.1197 17.6052 17.0875 17.622 17.0537 17.6348C16.9568 17.7454 16.8454 17.8427 16.7188 17.9178C16.2978 18.1677 15.7757 18.25 15.1667 18.25H12.5563C11.2318 18.25 9.64274 17.7824 9.64274 17.7824C9.48366 17.7421 9.35913 17.6184 9.31777 17.4596C9.2764 17.3008 9.32476 17.1321 9.44396 17.0193C9.56316 16.9065 9.73431 16.8675 9.8906 16.9176C9.8906 16.9176 11.4544 17.35 12.5563 17.35H15.1667C15.6844 17.35 16.0619 17.2605 16.2592 17.1435C16.4564 17.0264 16.5167 16.9369 16.5167 16.675C16.5167 16.4516 16.4594 16.3491 16.2618 16.225C16.0642 16.1009 15.6926 16 15.1667 16C14.568 16 13.7863 15.8641 13.0476 15.6854H13.0467C12.9689 15.6859 12.8923 15.6662 12.8244 15.6282C12.1674 15.4612 11.5927 15.2788 11.2213 15.0561H11.2204C10.9076 14.8683 10.6955 14.6338 10.4822 14.3978C9.98935 13.8526 9.48975 13.3 7.72585 13.3C6.75833 13.3 6.38169 13.4576 5.86478 13.6738C5.7698 13.7135 5.67009 13.7553 5.5611 13.7983C4.41469 14.2527 2.31179 15.2617 2.31179 15.2617C2.16671 15.3315 1.99543 15.3185 1.86249 15.2277C1.72955 15.137 1.65516 14.9821 1.66734 14.8216C1.67953 14.6611 1.77643 14.5193 1.92155 14.4496C1.92155 14.4496 4.01169 13.4443 5.22976 12.9616H5.23063C5.30699 12.9314 5.38249 12.9004 5.45844 12.8693L5.45848 12.8693L5.45851 12.8692ZM17.7032 13.3237C17.883 13.3377 17.969 13.3897 17.9941 13.4195C18.0132 13.4423 18.043 13.4847 18.0292 13.6173L15.8074 15.1492C15.6061 15.1195 15.3957 15.1 15.1667 15.1C14.9285 15.1 14.6026 15.0643 14.2473 15.0077C15.0303 14.5138 16.0007 13.9037 16.4288 13.6489C16.7306 13.4692 17.3435 13.2959 17.7032 13.3237ZM20.2977 13.7562C20.2197 13.7407 20.117 13.7381 19.998 13.7491C19.6522 13.7811 19.1679 13.9304 18.7394 14.2176C18.725 14.2303 18.7097 14.242 18.6937 14.2527L16.8366 15.5324C17.1048 15.7338 17.2968 16.0235 17.3754 16.3481L20.5456 14.2158C20.5613 14.0608 20.5545 13.9403 20.5324 13.8924C20.5027 13.8279 20.4847 13.7932 20.2977 13.7562Z" fill="black"/>
</svg>
