<svg xmlns="http://www.w3.org/2000/svg" width="25" height="25" fill="none" viewBox="0 0 25 25">
    <path fill="#000" fill-rule="evenodd" d="M3.08 1.667c-.775 0-1.413.638-1.413 1.413v2.826c0 .36.141.692.368.942-.227.25-.368.581-.368.942v2.826c0 .36.141.692.368.942-.227.25-.368.581-.368.942v2.826c0 .775.638 1.413 1.413 1.413h2.826c.36 0 .692-.142.942-.368.25.226.581.368.942.368h2.826c.245 0 .462-.08.662-.191l.236.795-.213-.02c-.15-.014-.288-.028-.597-.04-.813-.03-1.733-.042-2.384.148-.99.289-1.807.905-2.37 1.59-.563.684-.933 1.436-.721 2.163.175.6.353 1.237.353 1.237.035.121.116.224.226.285.11.06.241.075.363.038l2.811-.824 5.652 1.03.412.295c.212.154.508.108.663-.103.154-.212.108-.508-.103-.662l-.5-.368c-.058-.039-.124-.063-.192-.074l-5.858-1.06c-.072-.018-.15-.018-.221 0l-2.473.721c-.03-.104-.058-.193-.088-.292-.04-.129-.085-.274-.147-.488-.052-.174.093-.748.544-1.295.451-.546 1.14-1.069 1.914-1.295.36-.105 1.295-.134 2.075-.103.78.031 1.443.103 1.443.103.156.016.31-.046.412-.168.1-.121.134-.285.088-.436l-.618-2.12c-.002-.077-.022-.152-.059-.22l-.015-.015-2.576-8.846c-.163-.563.144-1.146.707-1.31.563-.164 1.146.143 1.31.706l1.854 6.345c.094.22.337.336.567.268.23-.068.374-.298.331-.534-.163-.563.159-1.146.722-1.31.563-.163 1.131.159 1.295.722l.147.486c.094.22.337.336.567.268.23-.068.373-.298.331-.533-.164-.563.158-1.147.721-1.31.563-.164 1.146.158 1.31.72h-.014l.22.707c.065.225.284.37.516.339h.029c.248-.039.423-.265.397-.515-.055-.499.25-.972.751-1.119.563-.164 1.132.143 1.295.707.074.252.337.397.59.323.251-.073.396-.336.323-.588-.307-1.053-1.42-1.662-2.473-1.355-.421.124-.767.381-1.016.707-.47-.705-1.339-1.075-2.193-.824-.353.103-.651.301-.883.559V7.79c0-.36-.142-.692-.368-.942.227-.25.368-.582.368-.942V3.08c0-.775-.638-1.413-1.413-1.413H12.5c-.36 0-.692.141-.942.368-.25-.227-.581-.368-.942-.368H7.79c-.36 0-.692.141-.942.368-.25-.227-.582-.368-.942-.368H3.08zm0 .942h2.826c.267 0 .47.204.47.47v2.827c0 .267-.203.47-.47.47H3.08c-.267 0-.471-.203-.471-.47V3.08c0-.267.204-.471.47-.471zm7.536 0H7.79c-.267 0-.471.204-.471.47v2.827c0 .267.204.47.47.47h.56c-.068-.92.512-1.808 1.428-2.075.263-.077.537-.09.795-.059.178.02.351.067.515.133V3.08c0-.267-.204-.471-.471-.471zm1.884 0h2.826c.267 0 .471.204.471.47v2.827c0 .267-.204.47-.47.47h-2.871l-.206-.706c-.052-.176-.129-.336-.221-.485v-.162c.002-.024.002-.05 0-.074v-1.87c0-.266.204-.47.471-.47zm-6.594 4.71H3.08c-.267 0-.471.204-.471.47v2.827c0 .267.204.47.47.47h2.827c.267 0 .47-.203.47-.47V7.79c0-.267-.203-.471-.47-.471zm1.884 0h.795l1.104 3.768h-1.9c-.266 0-.47-.204-.47-.471V7.79c0-.267.204-.471.47-.471zm7.536 0h-2.59l.912 3.106c.243-.28.534-.523.913-.633.427-.125.853-.09 1.236.059V7.79c0-.267-.204-.471-.47-.471zM3.08 12.029h2.826c.267 0 .47.204.47.471v2.826c0 .267-.203.471-.47.471H3.08c-.267 0-.471-.204-.471-.471V12.5c0-.267.204-.471.47-.471zm6.874 0H7.79c-.267 0-.471.204-.471.471v2.826c0 .267.204.471.47.471h2.827c.16 0 .296-.085.383-.206l-1.045-3.562z" clip-rule="evenodd"/>
</svg>
