<svg xmlns="http://www.w3.org/2000/svg" width="25" height="25" fill="none" viewBox="0 0 25 25">
    <path stroke="#000" stroke-linejoin="round" stroke-width="1.2" d="M17.5 16.25H20l2.5 6.667H2.085l2.5-6.667h2.917m5 3.75c-2.084-2.5-6.25-8.333-6.25-11.667 0-4.166 2.916-6.666 6.25-6.666 3.333 0 6.25 2.916 6.25 6.666 0 3-4.167 9.028-6.25 11.667z"/>
    <path stroke="#000" d="M12.5 9.667c1.197 0 2.167-.97 2.167-2.167 0-1.197-.97-2.167-2.166-2.167-1.197 0-2.167.97-2.167 2.167 0 1.197.97 2.167 2.167 2.167z"/>
</svg>
