<svg width="153" height="112" viewBox="0 0 153 112" fill="none" xmlns="http://www.w3.org/2000/svg">
<circle cx="122.75" cy="30" r="30" fill="#0A97B0"/>
<path d="M137.89 15.5468C137.863 15.5537 137.836 15.5639 137.808 15.5742C137.579 15.6323 137.381 15.7792 137.262 15.9843L119.379 43.7109L107.074 32.6093C106.859 32.3359 106.5 32.2163 106.161 32.3051C105.823 32.394 105.574 32.6777 105.522 33.0229C105.471 33.3681 105.628 33.7099 105.926 33.8945L118.969 45.707C119.16 45.8745 119.416 45.9496 119.669 45.9121C119.922 45.8745 120.144 45.7309 120.281 45.5156L138.738 16.914C138.94 16.6269 138.95 16.2475 138.765 15.9501C138.581 15.6528 138.236 15.4955 137.89 15.5468Z" fill="white" stroke="white"/>
<path fill-rule="evenodd" clip-rule="evenodd" d="M67.3397 85.8995C67.3965 85.227 67.1883 84.5962 66.8058 84.1201L60.8269 76.6776C60.0014 75.65 58.5326 75.5259 57.5464 76.4003C56.5601 77.2748 56.4298 78.8168 57.2553 79.8443L59.5079 82.6477C59.4078 82.6252 59.3052 82.6092 59.2004 82.6003C49.1084 81.7475 44.9603 76.0104 46.146 64.3143C46.2849 62.9434 45.3454 61.7233 44.0474 61.5892C42.7494 61.4551 41.5845 62.4577 41.4456 63.8286C39.9869 78.2171 45.9685 86.4901 58.7802 87.5728C58.9301 87.5854 59.0779 87.583 59.2224 87.5668L59.214 87.6655L56.3822 90.1764C55.3959 91.0509 55.2656 92.5928 56.0911 93.6204C56.9166 94.648 58.3854 94.7721 59.3716 93.8976L66.5147 87.5641C66.9717 87.1588 67.2828 86.572 67.3397 85.8995Z" fill="#0A97B0"/>
<path d="M119.879 74.1644H84.0436C80.551 74.1644 77.7197 76.9957 77.7197 80.4883V103.676C77.7197 107.169 80.551 110 84.0436 110H119.879C123.372 110 126.203 107.169 126.203 103.676V80.4883C126.203 76.9957 123.372 74.1644 119.879 74.1644Z" stroke="#0A97B0" stroke-width="3.75"/>
<path d="M116.716 95.2437C118.462 95.2437 119.878 93.828 119.878 92.0818C119.878 90.3355 118.462 88.9198 116.716 88.9198C114.969 88.9198 113.554 90.3355 113.554 92.0818C113.554 93.828 114.969 95.2437 116.716 95.2437Z" stroke="#0A97B0" stroke-width="3.75"/>
<path d="M77.7197 88.9198V74.164C77.7197 70.6714 80.551 67.8401 84.0436 67.8401H107.231C110.724 67.8401 113.555 70.6714 113.555 74.164V75.1772" stroke="#0A97B0" stroke-width="3.75" stroke-linejoin="round"/>
<rect x="2.125" y="22.875" width="73.25" height="47.25" rx="9.375" stroke="#0A97B0" stroke-width="3.75"/>
<rect x="3.25" y="30" width="71" height="13" fill="#0A97B0"/>
</svg>
