<svg xmlns="http://www.w3.org/2000/svg" width="60" height="60" fill="none" viewBox="0 0 60 60">
    <path fill="#000" fill-rule="evenodd" d="M7.391 4C5.532 4 4 5.532 4 7.391v6.783c0 .865.34 1.66.883 2.26C4.34 17.036 4 17.83 4 18.697v6.782c0 .866.34 1.66.883 2.261C4.34 28.34 4 29.134 4 30v6.783c0 1.859 1.532 3.39 3.391 3.39h6.783c.865 0 1.66-.34 2.26-.882.601.543 1.396.883 2.262.883h6.782c.588 0 1.109-.194 1.59-.46l.565 1.908c-.197-.016-.356-.03-.51-.046-.36-.035-.692-.067-1.433-.095-1.952-.075-4.16-.102-5.723.353-2.375.694-4.336 2.173-5.687 3.816-1.351 1.642-2.239 3.448-1.731 5.192.42 1.44.848 2.968.848 2.968.084.291.278.538.543.684.265.146.578.181.87.093l6.747-1.978 13.565 2.472.99.707c.507.371 1.218.26 1.59-.247.37-.508.26-1.219-.248-1.59l-1.201-.883c-.137-.093-.296-.15-.46-.177l-14.06-2.543c-.172-.044-.357-.044-.53 0l-5.934 1.73c-.073-.249-.14-.464-.213-.702-.095-.308-.203-.656-.352-1.17-.124-.419.225-1.797 1.307-3.108 1.082-1.312 2.738-2.566 4.592-3.109.866-.252 3.109-.322 4.981-.247 1.872.075 3.462.247 3.462.247.376.04.747-.11.99-.402.238-.291.322-.684.211-1.046l-1.483-5.087c-.005-.186-.053-.367-.142-.53l-.035-.035-6.182-21.231c-.393-1.352.344-2.751 1.695-3.144 1.352-.393 2.752.344 3.145 1.695l4.45 15.226c.226.53.809.808 1.36.645.553-.164.897-.716.795-1.281-.392-1.351.38-2.751 1.731-3.144 1.352-.393 2.716.38 3.11 1.73l.352 1.167c.226.53.809.808 1.36.644.553-.163.897-.715.795-1.28-.393-1.352.38-2.751 1.731-3.144 1.352-.393 2.751.38 3.144 1.73h-.035l.53 1.696c.154.54.68.888 1.236.813h.071c.596-.093 1.016-.636.954-1.236-.133-1.197.6-2.332 1.801-2.685 1.352-.393 2.716.344 3.11 1.695.176.605.807.954 1.412.777.605-.176.954-.808.777-1.413-.737-2.525-3.409-3.987-5.934-3.25-1.012.296-1.842.915-2.438 1.696-1.13-1.691-3.215-2.579-5.264-1.978-.847.247-1.563.724-2.12 1.342v-5.263c0-.866-.34-1.66-.882-2.261.543-.6.883-1.396.883-2.261V7.39C40.174 5.532 38.642 4 36.783 4H30c-.866 0-1.66.34-2.26.883C27.138 4.34 26.343 4 25.477 4h-6.782c-.866 0-1.66.34-2.261.883-.6-.543-1.396-.883-2.261-.883H7.39zm0 2.26h6.783c.64 0 1.13.491 1.13 1.131v6.783c0 .64-.49 1.13-1.13 1.13H7.39c-.64 0-1.13-.49-1.13-1.13V7.391c0-.64.49-1.13 1.13-1.13zm18.087 0h-6.782c-.64 0-1.13.491-1.13 1.131v6.783c0 .64.49 1.13 1.13 1.13h1.342c-.163-2.207 1.228-4.34 3.427-4.98.631-.186 1.29-.217 1.907-.142.429.049.844.16 1.237.318V7.391c0-.64-.49-1.13-1.13-1.13zm4.522 0h6.783c.64 0 1.13.491 1.13 1.131v6.783c0 .64-.49 1.13-1.13 1.13h-6.889L29.4 13.61c-.124-.424-.31-.808-.53-1.166v-.389c.004-.057.004-.119 0-.176V7.39c0-.64.49-1.13 1.13-1.13zM14.174 17.566H7.39c-.64 0-1.13.49-1.13 1.13v6.783c0 .64.49 1.13 1.13 1.13h6.783c.64 0 1.13-.49 1.13-1.13v-6.782c0-.64-.49-1.13-1.13-1.13zm4.522 0h1.907l2.65 9.044h-4.557c-.64 0-1.13-.49-1.13-1.13v-6.783c0-.64.49-1.13 1.13-1.13zm18.087 0h-6.218l2.19 7.454c.583-.671 1.281-1.254 2.19-1.519 1.025-.3 2.05-.216 2.968.141v-4.945c0-.64-.49-1.13-1.13-1.13zM7.39 28.87h6.783c.64 0 1.13.49 1.13 1.13v6.783c0 .64-.49 1.13-1.13 1.13H7.39c-.64 0-1.13-.49-1.13-1.13V30c0-.64.49-1.13 1.13-1.13zm16.498 0h-5.193c-.64 0-1.13.49-1.13 1.13v6.783c0 .64.49 1.13 1.13 1.13h6.782c.384 0 .711-.203.919-.494l-2.508-8.55z" clip-rule="evenodd"/>
</svg>
