<svg xmlns="http://www.w3.org/2000/svg" width="15" height="16" fill="none" viewBox="0 0 15 16">
    <circle cx="7.5" cy="8" r="6.5" fill="#D92E76"/>
    <path fill="#fff" d="M7.344 9.522c.302 0 .42-.21.42-.517 0-.513.175-.786.796-1.152.625-.376 1.02-.904 1.02-1.67 0-1.045-.86-1.783-2.07-1.783-.938 0-1.656.406-1.944 1.099-.087.19-.127.356-.127.566 0 .254.137.4.386.4.22 0 .327-.092.41-.39.161-.586.591-.913 1.24-.913.718 0 1.197.43 1.197 1.065 0 .498-.22.815-.786 1.162-.67.4-.977.835-.977 1.494v.137c0 .278.132.502.435.502zm-.005 2.027c.317 0 .557-.244.557-.557 0-.317-.24-.557-.557-.557-.313 0-.557.24-.557.557 0 .313.244.557.557.557z"/>
</svg>
