<svg xmlns="http://www.w3.org/2000/svg" width="61" height="60" fill="none" viewBox="0 0 61 60">
    <path fill="#000" fill-rule="evenodd" d="M24.389 6.166C26.689 4.943 28.463 4 30.5 4s3.81.943 6.111 2.166c.47.25.962.512 1.483.78 3.074 1.581 7.187 3.488 13.62 4.898l.786.176v.8c0 29.66-21.547 40.766-21.547 40.766l-.433.219-.442-.203s-5.46-2.532-10.844-8.883C13.855 38.37 8.5 28.144 8.5 12.82v-.8l.785-.176c6.434-1.41 10.547-3.317 13.621-4.899.52-.267 1.013-.529 1.483-.779zm11.68 1.982C33.575 6.851 31.94 6 30.5 6c-1.44 0-3.075.85-5.569 2.148-.353.185-.724.378-1.115.579-2.976 1.53-7.18 3.386-13.253 4.82.18 14.414 5.171 23.945 10.203 29.879 4.765 5.629 9.093 7.793 9.718 8.093 1.293-.68 19.598-10.84 19.953-37.972-6.074-1.434-10.277-3.29-13.253-4.82-.39-.201-.762-.394-1.115-.579z" clip-rule="evenodd"/>
    <path fill="#000" d="M24.5 25c0-.552.448-1 1-1h10c.552 0 1 .448 1 1v10c0 .552-.448 1-1 1h-10c-.552 0-1-.448-1-1V25z"/>
    <path stroke="#000" stroke-width=".8" d="M26.5 25v-5c0-1.333.8-4 4-4s4 2.667 4 4v5"/>
</svg>
