<svg width="20" height="20" viewBox="0 0 20 20" fill="none" xmlns="http://www.w3.org/2000/svg">
<path d="M18.3597 5.71403L18.8311 6.18543L19.3025 5.71403L18.8311 5.24262L18.3597 5.71403ZM14.117 0.528577C13.8567 0.268227 13.4346 0.268226 13.1742 0.528576C12.9139 0.788927 12.9139 1.21104 13.1742 1.47138L14.117 0.528577ZM13.1746 9.95631C12.9142 10.2167 12.9142 10.6388 13.1746 10.8991C13.4349 11.1595 13.857 11.1595 14.1174 10.8991L13.1746 9.95631ZM10.0003 5.71402L10.0003 5.04736L10.0001 5.04736L10.0003 5.71402ZM3.83363 18.5003C3.83363 18.8685 4.13211 19.167 4.5003 19.167C4.86849 19.167 5.16696 18.8685 5.16696 18.5003L3.83363 18.5003ZM18.8311 5.24262L14.117 0.528577L13.1742 1.47138L17.8883 6.18543L18.8311 5.24262ZM17.8883 5.24262L13.1746 9.95631L14.1174 10.8991L18.8311 6.18543L17.8883 5.24262ZM18.3597 5.04736L10.0003 5.04736L10.0003 6.38069L18.3597 6.38069L18.3597 5.04736ZM10.0001 5.04736C8.65045 5.04785 7.11724 5.39286 5.90515 6.3298C4.6656 7.28797 3.83363 8.81133 3.83363 10.9998H5.16696C5.16696 9.18827 5.83509 8.06921 6.72059 7.38471C7.63355 6.679 8.85034 6.38112 10.0005 6.38069L10.0001 5.04736ZM3.83363 10.9998C3.83363 12.9998 3.83363 14.6666 3.83363 15.9375C3.83363 17.2084 3.83363 18.0835 3.83363 18.5003L5.16696 18.5003C5.16696 18.0835 5.16696 17.2084 5.16696 15.9375C5.16696 14.6666 5.16696 12.9998 5.16696 10.9998H3.83363Z" fill="white"/>
</svg>
