<svg width="21" height="20" viewBox="0 0 21 20" fill="none" xmlns="http://www.w3.org/2000/svg">
    <path d="M12.5 7.5a.5.5 0 0 0 0 1v-1zm-4 1a.5.5 0 0 0 0-1v1zM10 13a.5.5 0 0 0 1 0h-1zm1-10.333a.5.5 0 0 0-1 0h1zM6.18 5.283a.5.5 0 1 0 .64.768l-.64-.768zm4.32-2.95.32-.384a.5.5 0 0 0-.64 0l.32.384zm3.68 3.718a.5.5 0 0 0 .64-.768l-.64.768zM16 10v6h1v-6h-1zm-1.5 7.5h-8v1h8v-1zM5 16v-6H4v6h1zm7.5-7.5h2v-1h-2v1zm-6 0h2v-1h-2v1zM11 13V2.667h-1V13h1zM6.82 6.05l4-3.333-.64-.768-4 3.334.64.768zm3.36-3.333 4 3.334.64-.768-4-3.334-.64.768zM6.5 17.5A1.5 1.5 0 0 1 5 16H4a2.5 2.5 0 0 0 2.5 2.5v-1zM16 16a1.5 1.5 0 0 1-1.5 1.5v1A2.5 2.5 0 0 0 17 16h-1zm1-6a2.5 2.5 0 0 0-2.5-2.5v1A1.5 1.5 0 0 1 16 10h1zM5 10a1.5 1.5 0 0 1 1.5-1.5v-1A2.5 2.5 0 0 0 4 10h1z" fill="#fff"/>
</svg>
