<svg width="28" height="28" viewBox="0 0 28 28" fill="none" xmlns="http://www.w3.org/2000/svg">
<path fill-rule="evenodd" clip-rule="evenodd" d="M3.73334 2.7998V23.3331H4.2H4.66667H18.9328L18.0943 22.3998H13.6664H4.66667V3.73314H14.9333V8.3998H19.6V9.7998V10.2665V12.2872L20.5333 13.2205V10.2665V9.7998V7.73991L15.5932 2.7998H3.73334ZM15.8667 4.39303L18.9401 7.46647H15.8667V4.39303ZM14.3719 10.1708C14.6171 9.92588 14.9421 9.80345 15.2669 9.80345C15.592 9.80345 15.9176 9.92545 16.1629 10.1708L20.1624 14.1712C20.6537 14.6618 20.6537 15.4716 20.1624 15.9622C19.9167 16.2078 19.5894 16.3331 19.2664 16.3331C18.9432 16.3331 18.6167 16.2075 18.3713 15.9622L18.3486 15.9394L17.5237 16.7643L23.3743 21.9969L23.3834 22.0061C23.9967 22.6193 23.9372 23.6309 23.3178 24.251C22.698 24.8714 21.6861 24.9298 21.0729 24.3166L21.0638 24.3075L15.8311 18.4568L15.0062 19.2817L15.029 19.3045C15.5204 19.7951 15.5204 20.6049 15.029 21.0955C14.7834 21.3412 14.4561 21.4665 14.1331 21.4665C13.8098 21.4665 13.4833 21.3408 13.238 21.0955L9.23853 17.096C8.74717 16.6054 8.74717 15.7947 9.23853 15.3041C9.48376 15.0592 9.80873 14.9368 10.1336 14.9368C10.4587 14.9368 10.7842 15.0588 11.0295 15.3041L11.0806 15.3551L14.4229 12.0137L14.3719 11.9627C13.8805 11.4721 13.8805 10.6614 14.3719 10.1708ZM15.2678 10.7304C15.352 10.7304 15.4356 10.7642 15.503 10.8316L19.5025 14.8311C19.6364 14.9648 19.6364 15.1685 19.5025 15.3023C19.4354 15.3693 19.3522 15.3998 19.2664 15.3998C19.1799 15.3998 19.0986 15.3696 19.0312 15.3023L15.0308 11.3019C14.8969 11.1681 14.8969 10.9654 15.0308 10.8316H15.0318C15.0991 10.7642 15.1837 10.7304 15.2678 10.7304ZM17.6887 15.2795L15.0828 12.6736L11.7405 16.016L14.3464 18.6218L17.6887 15.2795ZM10.1345 15.8637C10.2186 15.8637 10.3023 15.8976 10.3696 15.9649L14.3691 19.9644C14.5031 20.0982 14.5031 20.3018 14.3691 20.4356C14.3021 20.5026 14.2188 20.5331 14.1331 20.5331C14.0465 20.5331 13.9653 20.503 13.8979 20.4356L9.89751 16.4352C9.76354 16.3014 9.76354 16.0987 9.89751 15.9649H9.89842C9.96578 15.8976 10.0504 15.8637 10.1345 15.8637ZM22.7245 22.6687L16.8629 17.4251L16.4919 17.796L21.7356 23.6576C21.9618 23.8814 22.3677 23.8816 22.6579 23.5911C22.9486 23.3002 22.9482 22.895 22.7245 22.6687Z" fill="#D83275"/>
</svg>
