<svg width="25" height="25" viewBox="0 0 25 25" fill="none" xmlns="http://www.w3.org/2000/svg">
    <path d="M6.042 17.751c-.1 1.256-.401 2.66-1.155 4.11-.417.802-.2 1.082.596.664 2.182-1.149 3.796-2.247 5.013-3.273.633.092 1.334.21 2.004.21 6.042 0 11.071-3.917 11.071-8.68 0-4.764-5.077-8.64-11.119-8.64-6.041 0-11.024 3.876-11.024 8.64 0 2.874 1.872 5.401 4.614 6.969z" stroke="#000" stroke-miterlimit="10"/>
    <path d="m10.391 13.335 4.745-4.596M15.136 13.335l-4.745-4.596" stroke="#000" stroke-miterlimit="10" stroke-linecap="round"/>
</svg>
