<svg xmlns="http://www.w3.org/2000/svg" width="20" height="21" fill="none" viewBox="0 0 20 21">
    <path fill="#D92E76" fill-rule="evenodd" d="M10 19c4.97 0 9-4.03 9-9s-4.03-9-9-9-9 4.03-9 9 4.03 9 9 9zm2.584-4.933c.132.136.316.227.527.227.413 0 .739-.344.739-.77 0-.218-.08-.399-.22-.544l-2.628-2.7 2.637-2.726c.158-.145.22-.317.22-.526 0-.417-.326-.76-.739-.76-.193 0-.36.072-.51.235L9.956 9.22 7.319 6.51c-.131-.144-.298-.226-.51-.226-.404 0-.738.335-.738.752 0 .209.08.399.22.526l2.628 2.718-2.628 2.717c-.14.136-.22.317-.22.526 0 .426.334.77.739.77.21 0 .395-.082.527-.227l2.619-2.717 2.628 2.717z" clip-rule="evenodd"/>
</svg>