<svg xmlns="http://www.w3.org/2000/svg" width="72" height="74" fill="none" viewBox="0 0 72 74">
    <path fill="#D92E76" fill-rule="evenodd" d="M37.09 0c-3.514 0-6.363 2.849-6.363 6.364 0 3.514 2.849 6.363 6.364 6.363 3.515 0 6.364-2.849 6.364-6.363C43.455 2.849 40.605 0 37.09 0zM21.182 4.773c-3.222 0-5.833 2.611-5.833 5.833s2.61 5.833 5.833 5.833c3.222 0 5.833-2.611 5.833-5.833s-2.611-5.833-5.833-5.833zM9.515 16.97c-2.93 0-5.303 2.374-5.303 5.303s2.374 5.303 5.303 5.303 5.303-2.374 5.303-5.303c0-2.93-2.374-5.303-5.303-5.303zM10.045 38.181c0-2.635-2.137-4.772-4.772-4.772C2.636 33.41.5 35.546.5 38.181c0 2.637 2.136 4.773 4.773 4.773 2.635 0 4.772-2.136 4.772-4.773zM9.514 49.848c-2.343 0-4.242 1.9-4.242 4.243 0 2.343 1.9 4.242 4.242 4.242 2.344 0 4.243-1.899 4.243-4.242 0-2.344-1.9-4.243-4.243-4.243zM21.18 62.045c-2.05 0-3.711 1.662-3.711 3.712 0 2.051 1.662 3.713 3.712 3.713 2.05 0 3.712-1.662 3.712-3.713 0-2.05-1.662-3.712-3.712-3.712zM37.09 66.818c-1.757 0-3.182 1.425-3.182 3.182s1.425 3.18 3.182 3.18 3.182-1.423 3.182-3.18c0-1.757-1.425-3.182-3.182-3.182zM53 63.106c-1.464 0-2.651 1.187-2.651 2.651 0 1.465 1.187 2.652 2.65 2.652 1.465 0 2.652-1.187 2.652-2.652 0-1.464-1.187-2.651-2.651-2.651zM64.666 51.97c-1.171 0-2.121.95-2.121 2.121s.95 2.121 2.12 2.121c1.173 0 2.122-.95 2.122-2.12 0-1.173-.95-2.122-2.121-2.122zM68.908 36.591c-.879 0-1.59.712-1.59 1.59 0 .88.711 1.592 1.59 1.592.878 0 1.591-.713 1.591-1.592 0-.878-.713-1.59-1.59-1.59zM53 11.136c.293 0 .53-.237.53-.53 0-.293-.237-.53-.53-.53-.293 0-.53.237-.53.53 0 .293.237.53.53.53zM64.666 23.334c.587 0 1.062-.476 1.062-1.061s-.475-1.061-1.061-1.061c-.585 0-1.062.476-1.062 1.06 0 .587.477 1.062 1.062 1.062z" clip-rule="evenodd"/>
</svg>
