<svg width="115" height="90" viewBox="0 0 115 90" fill="none" xmlns="http://www.w3.org/2000/svg">
<path fill-rule="evenodd" clip-rule="evenodd" d="M74.9445 10.3223L23.2615 7.09529C22.0715 7.03329 21.0005 8.43429 21.0005 9.61229V81.4193C21.0005 83.0513 22.5455 83.3803 23.7355 83.2483L74.9445 77.6053C75.8805 77.5023 76.6345 76.5793 76.6345 75.5423V12.2883C76.6345 11.2523 75.8805 10.3713 74.9445 10.3223Z" fill="#B976E7"/>
<path fill-rule="evenodd" clip-rule="evenodd" d="M75.7941 9.7519L24.0101 7.0029C22.8191 6.9389 21.8501 7.8499 21.8501 9.0359V81.4039C21.8501 82.5899 22.8191 83.4429 24.0101 83.3119L75.7941 77.5609C76.7301 77.4569 77.4851 76.5259 77.4851 75.4809V11.7329C77.4851 10.6889 76.7301 9.8019 75.7941 9.7519Z" fill="#D8DEE8"/>
<path fill-rule="evenodd" clip-rule="evenodd" d="M24.0099 82.3301C23.3669 82.4001 22.8439 81.9371 22.8439 81.2981V9.08409C22.8439 8.44509 23.3669 7.95209 24.0099 7.98409L75.7939 10.6241C76.2999 10.6491 76.7109 11.1311 76.7109 11.6951V75.5631C76.7109 76.1291 76.2999 76.6341 75.7939 76.6881L24.0099 82.3301Z" fill="url(#paint0_linear)"/>
<path fill-rule="evenodd" clip-rule="evenodd" d="M75.0607 74.7119L25.7587 79.4619V10.7299L75.0607 12.5869V74.7119Z" fill="white"/>
<path fill-rule="evenodd" clip-rule="evenodd" d="M70.2199 33.7236L31.7359 34.3026V32.4316L70.2199 31.9646V33.7236Z" fill="#D8DEE8"/>
<path fill-rule="evenodd" clip-rule="evenodd" d="M70.2199 38.624L31.7359 39.515V37.644L70.2199 36.864V38.624Z" fill="#D8DEE8"/>
<path fill-rule="evenodd" clip-rule="evenodd" d="M70.2199 43.5234L31.7359 44.7264V42.8554L70.2199 41.7644V43.5234Z" fill="#D8DEE8"/>
<path fill-rule="evenodd" clip-rule="evenodd" d="M70.2199 48.2978L31.7359 49.8048V48.0678L70.2199 46.6648V48.2978Z" fill="#D8DEE8"/>
<path fill-rule="evenodd" clip-rule="evenodd" d="M70.2199 53.1982L31.7359 55.0152V53.2792L70.2199 51.5652V53.1982Z" fill="#D8DEE8"/>
<path fill-rule="evenodd" clip-rule="evenodd" d="M48.5021 66.9883L31.7351 68.1123V67.5773L48.5021 66.4673V66.9883Z" fill="#D8DEE8"/>
<path fill-rule="evenodd" clip-rule="evenodd" d="M70.2199 58.2246L60.8799 58.7396V57.3356L70.2199 56.8416V58.2246Z" fill="#D8DEE8"/>
<path fill-rule="evenodd" clip-rule="evenodd" d="M70.2199 61.8682L60.8799 62.4392V61.0362L70.2199 60.4852V61.8682Z" fill="#D8DEE8"/>
<path fill-rule="evenodd" clip-rule="evenodd" d="M70.2199 65.5117L60.8799 66.1387V64.6087L70.2199 64.0037V65.5117Z" fill="#D8DEE8"/>
<path fill-rule="evenodd" clip-rule="evenodd" d="M35.1623 68.918C35.1623 68.918 35.3463 68.6 35.6773 68.05C35.8423 67.775 36.0463 67.444 36.2833 67.067C36.5203 66.69 36.7913 66.268 37.0953 65.812C37.3993 65.357 37.7333 64.869 38.1183 64.372C38.3123 64.125 38.5163 63.875 38.7583 63.636C38.8183 63.576 38.8823 63.518 38.9523 63.462C39.0233 63.406 39.0993 63.351 39.1993 63.306C39.2503 63.285 39.3083 63.265 39.3843 63.265C39.4233 63.266 39.4643 63.271 39.5043 63.288C39.5443 63.306 39.5833 63.332 39.6113 63.362C39.7243 63.49 39.7253 63.627 39.7423 63.694C39.8033 64.04 39.8303 64.397 39.8203 64.763C39.8143 64.945 39.8003 65.13 39.7703 65.317C39.7403 65.505 39.7003 65.693 39.6253 65.887C39.5873 65.983 39.5423 66.081 39.4653 66.182C39.4263 66.23 39.3793 66.282 39.3093 66.324C39.2433 66.366 39.1493 66.391 39.0663 66.378C38.9843 66.366 38.9163 66.325 38.8723 66.29L38.8593 66.28L38.8423 66.266C38.8303 66.256 38.8193 66.246 38.8093 66.236C38.7893 66.217 38.7683 66.194 38.7493 66.169C38.7103 66.119 38.6753 66.055 38.6553 65.979C38.6353 65.902 38.6353 65.816 38.6493 65.741C38.6823 65.59 38.7533 65.484 38.8213 65.397C38.8913 65.311 38.9653 65.24 39.0403 65.177C39.1913 65.051 39.3483 64.951 39.5063 64.862C39.8233 64.686 40.1493 64.552 40.4823 64.447C40.8143 64.345 41.1523 64.269 41.5033 64.257C41.6793 64.254 41.8593 64.262 42.0483 64.338C42.1413 64.377 42.2403 64.439 42.3173 64.545C42.3263 64.558 42.3353 64.571 42.3443 64.586C42.3523 64.601 42.3603 64.616 42.3633 64.623L42.3923 64.679L42.4493 64.793C42.5233 64.943 42.5943 65.089 42.6693 65.221C42.7453 65.351 42.8263 65.468 42.9193 65.545C43.0103 65.625 43.1113 65.663 43.2273 65.671C43.3433 65.676 43.4713 65.648 43.5983 65.603C43.8523 65.507 44.1003 65.352 44.3353 65.188C44.5773 65.018 44.8133 64.852 45.0483 64.695C45.1653 64.617 45.2823 64.541 45.4033 64.472C45.5243 64.402 45.6493 64.336 45.7893 64.291C45.9303 64.245 46.0823 64.234 46.2113 64.246C46.3413 64.258 46.4543 64.281 46.5613 64.301C46.6153 64.311 46.6683 64.32 46.7213 64.33C46.7703 64.339 46.8293 64.351 46.8573 64.352C46.9333 64.358 46.9983 64.344 47.0483 64.313C47.0993 64.281 47.1403 64.232 47.1723 64.17C47.2043 64.107 47.2243 64.033 47.2323 63.959C47.2503 63.81 47.2283 63.663 47.1843 63.547C47.1433 63.427 47.0783 63.339 47.0123 63.275C46.9443 63.212 46.8723 63.177 46.8103 63.154C46.7493 63.133 46.6973 63.125 46.6623 63.121C46.6273 63.117 46.6083 63.116 46.6083 63.116C46.5643 63.114 46.5333 63.075 46.5363 63.026C46.5403 62.985 46.5683 62.952 46.6033 62.944C46.6033 62.944 46.6263 62.939 46.6693 62.934C46.7123 62.928 46.7763 62.922 46.8613 62.934C46.9463 62.943 47.0533 62.974 47.1613 63.045C47.2703 63.116 47.3763 63.232 47.4543 63.39C47.5303 63.547 47.5813 63.744 47.5693 63.973C47.5613 64.087 47.5393 64.209 47.4853 64.332C47.4333 64.454 47.3433 64.58 47.2173 64.659C47.0923 64.742 46.9483 64.772 46.8153 64.764C46.7393 64.76 46.6943 64.749 46.6403 64.74C46.5873 64.731 46.5333 64.721 46.4783 64.711C46.3713 64.691 46.2633 64.67 46.1623 64.662C46.0603 64.653 45.9723 64.661 45.8753 64.692C45.6803 64.757 45.4563 64.902 45.2303 65.052C45.0043 65.204 44.7703 65.37 44.5293 65.54C44.2803 65.715 44.0123 65.889 43.6993 66.007C43.5433 66.064 43.3703 66.105 43.1863 66.099C43.0943 66.094 43.0003 66.074 42.9113 66.039C42.8213 66.005 42.7403 65.952 42.6683 65.892C42.5233 65.769 42.4223 65.616 42.3343 65.467C42.2473 65.316 42.1743 65.164 42.1003 65.017L42.0463 64.908L42.0173 64.853C42.0123 64.842 42.0103 64.838 42.0083 64.835C42.0063 64.831 42.0033 64.828 42.0013 64.824C41.9813 64.797 41.9423 64.768 41.8903 64.746C41.7823 64.701 41.6373 64.689 41.4903 64.693C41.1933 64.703 40.8793 64.773 40.5723 64.869C40.2643 64.967 39.9593 65.094 39.6733 65.253C39.5303 65.332 39.3923 65.421 39.2723 65.521C39.2133 65.569 39.1583 65.622 39.1153 65.675C39.0733 65.727 39.0453 65.781 39.0413 65.809C39.0383 65.823 39.0383 65.83 39.0403 65.839C39.0433 65.848 39.0483 65.861 39.0603 65.878C39.0673 65.887 39.0753 65.896 39.0843 65.904L39.0983 65.916L39.1033 65.922L39.1153 65.931C39.1363 65.947 39.1413 65.946 39.1403 65.947C39.1383 65.945 39.1293 65.95 39.1363 65.947C39.1413 65.944 39.1553 65.932 39.1713 65.912C39.2043 65.871 39.2373 65.806 39.2653 65.736C39.3213 65.595 39.3583 65.432 39.3853 65.269C39.4113 65.105 39.4263 64.939 39.4323 64.772C39.4433 64.44 39.4193 64.109 39.3653 63.797L39.3543 63.736L39.3513 63.721L39.3493 63.712C39.3493 63.706 39.3483 63.7 39.3463 63.695C39.3413 63.676 39.3333 63.665 39.3383 63.671C39.3423 63.677 39.3613 63.684 39.3593 63.682C39.3583 63.682 39.3423 63.684 39.3203 63.693C39.2763 63.712 39.2193 63.75 39.1653 63.793C39.1093 63.836 39.0553 63.887 39.0013 63.939C38.7853 64.149 38.5863 64.391 38.3973 64.628C38.0203 65.107 37.6833 65.584 37.3773 66.03C36.7653 66.924 36.2803 67.693 35.9413 68.232C35.6023 68.772 35.4143 69.084 35.4143 69.084C35.3673 69.163 35.2723 69.189 35.2033 69.143C35.1353 69.097 35.1163 68.997 35.1613 68.919L35.1623 68.918Z" fill="#97A6B7"/>
<path fill-rule="evenodd" clip-rule="evenodd" d="M52.9699 24.7949C52.7759 24.9399 52.4659 25.0149 52.0789 25.0449V23.0169C52.4339 23.1419 52.7299 23.2779 52.9459 23.4309C53.1859 23.6009 53.3059 23.8309 53.3059 24.1219C53.3059 24.4019 53.1949 24.6269 52.9699 24.7949ZM51.2589 19.8029C50.8949 19.6789 50.6169 19.5309 50.4289 19.3619C50.2399 19.1929 50.1449 18.9769 50.1449 18.7129C50.1449 18.3799 50.2699 18.1309 50.5209 17.9659C50.7059 17.8429 50.9719 17.7859 51.2759 17.7629V19.8079C51.2709 19.8069 51.2639 19.8049 51.2589 19.8029ZM55.6549 22.0639C55.3709 21.6239 54.9729 21.2619 54.4559 20.9769C53.9349 20.6909 53.3119 20.4379 52.5819 20.2169C52.4009 20.1639 52.2409 20.1139 52.0789 20.0649V17.7869C52.2629 17.8159 52.4479 17.8569 52.6309 17.9119C52.9749 18.0179 53.2899 18.1409 53.5769 18.2809C53.8649 18.4229 54.1009 18.5599 54.2909 18.6909C54.4799 18.8229 54.5949 18.9059 54.6369 18.9409L55.7409 16.7529C55.4209 16.5309 55.0499 16.3129 54.6279 16.0959C54.2029 15.8779 53.7449 15.6909 53.2499 15.5339C52.9379 15.4349 52.6099 15.3709 52.2749 15.3229V13.6089L51.0939 13.5389V15.2589C50.5289 15.2889 49.9919 15.4059 49.4869 15.6119C48.8049 15.8899 48.2579 16.3199 47.8489 16.9049C47.4369 17.4939 47.2299 18.2349 47.2299 19.1259C47.2299 19.7469 47.3499 20.2699 47.5879 20.6929C47.8249 21.1139 48.1899 21.4679 48.6769 21.7519C49.1609 22.0339 49.7679 22.2939 50.4949 22.5299C50.7729 22.6079 51.0329 22.6839 51.2759 22.7559V25.0379C51.0389 25.0119 50.8039 24.9699 50.5709 24.9049C50.1299 24.7839 49.7229 24.6449 49.3509 24.4859C48.9769 24.3259 48.6649 24.1729 48.4189 24.0259C48.1719 23.8799 48.0189 23.7719 47.9619 23.7029L46.7029 26.2639C47.1949 26.5519 47.7339 26.8009 48.3159 27.0109C48.8939 27.2199 49.4869 27.3729 50.0939 27.4739C50.4329 27.5289 50.7649 27.5599 51.0939 27.5759V29.5479L52.2749 29.4779V27.5379C52.6829 27.4949 53.0809 27.4289 53.4579 27.3159C53.9609 27.1659 54.4079 26.9409 54.8009 26.6429C55.1909 26.3459 55.4999 25.9599 55.7329 25.4849C55.9629 25.0119 56.0779 24.4519 56.0779 23.8049C56.0779 23.0809 55.9379 22.5009 55.6549 22.0639Z" fill="#D8DEE8"/>
<path fill-rule="evenodd" clip-rule="evenodd" d="M91.0589 66.1645H91.0419L90.8721 66.3008C90.1477 66.8118 88.7386 67.2775 86.6447 67.6977C83.4076 68.345 79.5141 68.6687 74.9641 68.6687C70.3915 68.6687 66.4979 68.345 63.2835 67.6977C61.5744 67.357 60.3181 66.9822 59.5145 66.5734C59.5032 66.562 59.4862 66.5563 59.4635 66.5563C59.339 66.4768 59.2202 66.403 59.107 66.3349C58.9825 66.244 58.875 66.1645 58.7844 66.0964C58.6826 65.9942 58.6033 65.8976 58.5468 65.8068C58.5015 65.7159 58.4675 65.6251 58.4449 65.5342V65.4831V65.432C58.4449 64.5348 60.0974 63.7853 63.4023 63.1834C66.7186 62.5587 70.8329 62.2634 75.7451 62.2975C80.6686 62.3316 84.5168 62.6382 87.2898 63.2174C89.8704 63.7512 91.2513 64.4212 91.4324 65.2276V65.6194C91.3758 65.7897 91.2513 65.9714 91.0589 66.1645ZM91.9753 67.1355C91.9187 66.8629 91.7206 66.6074 91.3811 66.3689L91.2962 67.6977C91.2396 67.7885 91.1547 67.8851 91.0415 67.9873C90.3737 68.5551 88.908 69.0662 86.6443 69.5204C83.4073 70.1678 79.5137 70.4915 74.9637 70.4915C73.1188 70.4915 71.3871 70.446 69.7686 70.3552C71.5343 70.5028 73.4471 70.5766 75.507 70.5766C80.057 70.5766 83.9505 70.253 87.1876 69.6056C88.3647 69.3671 89.3268 69.1173 90.0738 68.8561H90.0908C90.6567 68.6403 91.0981 68.4245 91.415 68.2087L91.5848 68.0724C91.7885 67.8794 91.9187 67.6977 91.9753 67.5273V67.1355ZM59.0053 68.0894C58.9261 68.0213 58.8525 67.9588 58.7846 67.902C58.6941 67.8225 58.6205 67.7374 58.5639 67.6465C57.5792 68.044 57.0869 68.4869 57.0869 68.9753V69.0264V69.0775C57.1095 69.1683 57.1435 69.2592 57.1887 69.35C57.2453 69.4409 57.3246 69.5374 57.4264 69.6396C57.483 69.6851 57.5453 69.7305 57.6132 69.7759C57.6471 69.81 57.6924 69.8441 57.749 69.8781C57.8735 69.9576 58.0093 70.0371 58.1565 70.1166C58.9601 70.5255 60.2164 70.9002 61.9255 71.2409C63.5553 71.5703 65.3606 71.8145 67.3413 71.9735C66.085 71.8258 64.9135 71.6441 63.827 71.4283C62.1179 71.0763 60.8616 70.7015 60.058 70.304C59.7637 70.145 59.5203 69.9803 59.3279 69.81C59.2261 69.7191 59.1468 69.6226 59.0902 69.5204L59.0563 69.4523L59.0053 68.0894ZM57.0869 74.4776V74.5287C57.1095 74.6196 57.1435 74.7105 57.1887 74.8013C57.2453 74.8922 57.3246 74.9887 57.4264 75.0909C57.517 75.159 57.6245 75.2385 57.749 75.3294C57.8735 75.4089 58.0093 75.4884 58.1565 75.5679C58.2131 75.5906 58.2696 75.619 58.3262 75.6531C59.1298 76.0278 60.3296 76.3742 61.9255 76.6922C62.7631 76.8626 63.6515 77.0045 64.591 77.1181C63.8553 77.0045 63.1479 76.8796 62.4688 76.7433C60.7597 76.3913 59.5034 76.0165 58.6997 75.619C58.4055 75.46 58.1621 75.2953 57.9697 75.125C57.8678 75.0341 57.7886 74.9376 57.732 74.8354L57.6981 74.7672L57.6811 74.3925C57.4887 74.313 57.3076 74.2335 57.1378 74.154C57.1039 74.2448 57.0869 74.3357 57.0869 74.4265V74.4776ZM89.5141 81.4456C88.7897 81.9566 87.3806 82.4223 85.2867 82.8425C82.0496 83.4898 78.1561 83.8135 73.6061 83.8135C69.0334 83.8135 65.1399 83.4898 61.9255 82.8425C60.2164 82.5018 58.9601 82.127 58.1565 81.7181C58.0093 81.6386 57.8735 81.5591 57.749 81.4796C57.6245 81.3888 57.517 81.3093 57.4264 81.2412C57.3246 81.1389 57.2453 81.0424 57.1887 80.9516C57.1435 80.8607 57.1095 80.7698 57.0869 80.679V80.6279V80.5768C57.0869 80.2361 57.3246 79.9181 57.7999 79.6228C57.7999 79.6342 57.8056 79.6398 57.8169 79.6398L57.8339 80.4916L57.8678 80.5597C57.9244 80.662 58.0037 80.7585 58.1055 80.8493C58.2979 81.0197 58.5413 81.1844 58.8356 81.3434C59.6392 81.7409 60.8955 82.1156 62.6046 82.4677C65.819 83.115 69.7125 83.4387 74.2852 83.4387C78.8352 83.4387 82.7287 83.115 85.9658 82.4677C87.5277 82.1497 88.7105 81.809 89.5141 81.4456ZM90.0743 76.675C90.0517 76.5841 90.0121 76.4933 89.9555 76.4024L89.9385 76.692C89.8819 76.7828 89.7971 76.8794 89.6839 76.9816C89.0161 77.5494 87.5503 78.0605 85.2867 78.5148C82.0496 79.1621 78.1561 79.4858 73.6061 79.4858C69.0334 79.4858 65.1399 79.1621 61.9255 78.5148C60.2164 78.1627 58.9601 77.7879 58.1565 77.3904C57.8622 77.2314 57.6188 77.0668 57.4264 76.8964C57.3246 76.8056 57.2453 76.709 57.1887 76.6068C57.1774 76.5841 57.1718 76.5671 57.1718 76.5557C57.1152 76.6579 57.0869 76.7658 57.0869 76.8794V76.9305V76.9816C57.1095 77.0724 57.1435 77.1633 57.1887 77.2542C57.2453 77.345 57.3246 77.4415 57.4264 77.5438C57.517 77.6119 57.6245 77.6914 57.749 77.7822C57.8056 77.8163 57.8678 77.8561 57.9358 77.9015C58.0037 77.9356 58.0772 77.9753 58.1565 78.0207C58.9601 78.4296 60.2164 78.8044 61.9255 79.1451C65.1399 79.7924 69.0334 80.1161 73.6061 80.1161C78.1561 80.1161 82.0496 79.7924 85.2867 79.1451C87.3806 78.7249 88.7897 78.2592 89.5141 77.7482L89.6839 77.6119C89.8084 77.4983 89.9046 77.3904 89.9725 77.2882C90.0178 77.2087 90.0517 77.1349 90.0743 77.0668V76.675ZM90.7537 78.1746V78.5664C90.6971 78.7368 90.5669 78.9185 90.3632 79.1116L90.1934 79.2479C90.0123 79.3728 89.786 79.4977 89.5143 79.6226C89.4238 79.6681 89.3332 79.7078 89.2427 79.7419C89.4125 79.6397 89.5596 79.5374 89.6841 79.4352C89.7973 79.333 89.8822 79.2365 89.9388 79.1456L90.0576 77.3399C90.4538 77.6011 90.6858 77.8794 90.7537 78.1746ZM84.1998 73.4211C85.5127 73.1599 86.5597 72.8816 87.3406 72.5864C86.7521 72.7453 86.0673 72.9043 85.2864 73.0633C82.0493 73.7107 78.1558 74.0343 73.6058 74.0343C69.0331 74.0343 65.1396 73.7107 61.9252 73.0633C60.2161 72.7113 58.9598 72.3365 58.1562 71.939C57.8619 71.78 57.6185 71.6153 57.4261 71.445C57.3243 71.3541 57.245 71.2576 57.1884 71.1554L57.1545 71.0873L57.1205 69.98C56.3735 70.3434 56 70.7352 56 71.1554V71.2065V71.2576C56.0226 71.3485 56.0566 71.4393 56.1019 71.5302C56.1585 71.621 56.2377 71.7176 56.3396 71.8198C56.4301 71.8879 56.5376 71.9674 56.6621 72.0583C56.7866 72.1378 56.9224 72.2173 57.0696 72.2968C57.2394 72.3876 57.4318 72.4728 57.6468 72.5523C58.4278 72.8589 59.4917 73.1485 60.8386 73.4211C64.053 74.0684 67.9466 74.3921 72.5192 74.3921C77.0692 74.3921 80.9627 74.0684 84.1998 73.4211ZM85.8286 74.9206L84.9458 75.091C86.7906 74.6708 88.0074 74.2108 88.5959 73.7111C88.7091 73.6089 88.794 73.5124 88.8506 73.4215L88.9525 71.9906C89.2581 71.8429 89.5014 71.6896 89.6825 71.5306C89.6938 71.5192 89.7108 71.5079 89.7334 71.4965C90.2428 71.7918 90.537 72.1098 90.6163 72.4505V72.8423C90.5597 73.0127 90.4295 73.1944 90.2258 73.3874L90.056 73.5237C89.9655 73.5805 89.8749 73.643 89.7844 73.7111C88.9921 74.1427 87.6735 74.5458 85.8286 74.9206Z" fill="#F3B33F"/>
<path fill-rule="evenodd" clip-rule="evenodd" d="M91.0418 66.1944H91.0587C91.2512 66.0022 91.3757 65.8213 91.4323 65.6518L91.3813 66.3978L91.2964 67.7204C91.2398 67.8108 91.1549 67.9069 91.0418 68.0086C90.374 68.5738 88.9082 69.0825 86.6446 69.5347C83.4075 70.179 79.514 70.5012 74.964 70.5012C73.1191 70.5012 71.3874 70.456 69.7688 70.3655C71.5345 70.5125 73.4473 70.586 75.5073 70.586C80.0573 70.586 83.9508 70.2638 87.1878 69.6195C88.365 69.3821 89.327 69.1334 90.074 68.8734H90.091C90.6569 68.6586 91.0984 68.4439 91.4153 68.2291L91.585 68.0934C91.7888 67.9013 91.9189 67.7204 91.9755 67.5508L91.8397 69.6195C91.7831 69.7099 91.6982 69.806 91.585 69.9077C91.2455 70.1903 90.7079 70.4616 89.9722 70.7216L89.9382 71.2472C89.8929 71.3264 89.825 71.4111 89.7345 71.5016C89.7119 71.5129 89.6949 71.5242 89.6836 71.5355C89.5025 71.6937 89.2591 71.8464 88.9535 71.9933L88.8517 73.4176C88.7951 73.508 88.7102 73.6041 88.597 73.7059C88.0084 74.2032 86.7917 74.661 84.9468 75.0793L85.8296 74.9097C87.6745 74.5367 88.9931 74.1354 89.7854 73.7059C89.876 73.638 89.9665 73.5759 90.0571 73.5193L90.2268 73.3837C90.4306 73.1915 90.5607 73.0107 90.6173 72.8411L90.4815 74.9097C90.4249 75.0002 90.34 75.0962 90.2268 75.198C90.1702 75.2545 90.1023 75.3054 90.0231 75.3506L89.9552 76.3849L89.9382 76.6732C89.8816 76.7636 89.7967 76.8597 89.6836 76.9614C89.0158 77.5266 87.55 78.0353 85.2864 78.4874C82.0493 79.1318 78.1558 79.4539 73.6058 79.4539C69.0331 79.4539 65.1396 79.1318 61.9252 78.4874C60.2161 78.137 58.9598 77.764 58.1562 77.3684C57.8619 77.2101 57.6185 77.0462 57.4261 76.8766C57.3243 76.7862 57.245 76.6901 57.1884 76.5884C57.1771 76.5658 57.1715 76.5488 57.1715 76.5375L57.1545 76.5206L57.0866 74.5197C57.1092 74.6102 57.1432 74.7006 57.1884 74.791C57.245 74.8815 57.3243 74.9776 57.4261 75.0793C57.5167 75.1471 57.6242 75.2262 57.7487 75.3167C57.8732 75.3958 58.009 75.4749 58.1562 75.5541C58.2127 75.5767 58.2693 75.6049 58.3259 75.6388C59.1295 76.0119 60.3293 76.3566 61.9252 76.6732C62.7627 76.8427 63.6512 76.984 64.5907 77.0971C63.855 76.984 63.1476 76.8597 62.4685 76.724C60.7594 76.3736 59.503 76.0006 58.6994 75.6049C58.4052 75.4467 58.1618 75.2828 57.9694 75.1132C57.8675 75.0228 57.7883 74.9267 57.7317 74.825L57.6978 74.7571L57.6808 74.3841C57.4884 74.305 57.3073 74.2258 57.1375 74.1467L57.0696 74.1128C56.7753 73.9545 56.532 73.7906 56.3396 73.6211C56.2377 73.5306 56.1585 73.4346 56.1019 73.3328L56.0679 73.265L56 71.2642C56.0226 71.3546 56.0566 71.4451 56.1019 71.5355C56.1585 71.6259 56.2377 71.722 56.3396 71.8237C56.4301 71.8916 56.5376 71.9707 56.6621 72.0611C56.7866 72.1403 56.9224 72.2194 57.0696 72.2985C57.2394 72.3889 57.4318 72.4737 57.6468 72.5529C58.4278 72.8581 59.4917 73.1463 60.8386 73.4176C64.053 74.0619 67.9466 74.3841 72.5192 74.3841C77.0692 74.3841 80.9627 74.0619 84.1998 73.4176C85.5127 73.1576 86.5597 72.8807 87.3407 72.5868C86.7521 72.745 86.0673 72.9033 85.2864 73.0615C82.0493 73.7059 78.1558 74.028 73.6058 74.028C69.0331 74.028 65.1396 73.7059 61.9252 73.0615C60.2161 72.7111 58.9598 72.3381 58.1562 71.9424C57.8619 71.7842 57.6185 71.6203 57.4261 71.4507C57.3243 71.3603 57.245 71.2642 57.1884 71.1625L57.1545 71.0946L57.1205 69.9925L57.0866 69.0938C57.1092 69.1843 57.1432 69.2747 57.1884 69.3651C57.245 69.4556 57.3243 69.5516 57.4261 69.6534C57.4827 69.6986 57.545 69.7438 57.6129 69.789C57.6468 69.8229 57.6921 69.8568 57.7487 69.8908C57.8732 69.9699 58.009 70.049 58.1562 70.1281C58.9598 70.5351 60.2161 70.9081 61.9252 71.2472C63.555 71.5751 65.3603 71.8181 67.341 71.9763C66.0847 71.8294 64.9132 71.6485 63.8267 71.4338C62.1176 71.0833 60.8613 70.7103 60.0576 70.3147C59.7634 70.1564 59.52 69.9925 59.3276 69.8229C59.2257 69.7325 59.1465 69.6364 59.0899 69.5347L59.056 69.4669L59.005 68.1104C58.9258 68.0426 58.8522 67.9804 58.7843 67.9239C58.6938 67.8447 58.6202 67.76 58.5636 67.6695C58.5523 67.6582 58.5466 67.6469 58.5466 67.6356L58.5127 67.5678L58.4448 65.567C58.4674 65.6574 58.5014 65.7478 58.5466 65.8383C58.6032 65.9287 58.6825 66.0248 58.7843 66.1265C58.8749 66.1944 58.9824 66.2735 59.1069 66.3639C59.2201 66.4317 59.3389 66.5052 59.4634 66.5843C59.4861 66.5843 59.503 66.59 59.5144 66.6013C60.318 67.0082 61.5743 67.3813 63.2834 67.7204C66.4978 68.3647 70.3913 68.6869 74.964 68.6869C79.514 68.6869 83.4075 68.3647 86.6446 67.7204C88.7385 67.3021 90.1476 66.8387 90.872 66.33L91.0418 66.1944ZM89.9725 77.2656C90.0178 77.1865 90.0517 77.113 90.0743 77.0452L90.0574 77.3165L89.9385 79.1138C89.8819 79.2042 89.797 79.3003 89.6839 79.402C89.5594 79.5038 89.4122 79.6055 89.2424 79.7072C89.333 79.6733 89.4235 79.6338 89.5141 79.5886C89.7857 79.4642 90.0121 79.3399 90.1932 79.2155L90.363 79.0799C90.5667 78.8877 90.6969 78.7068 90.7534 78.5373L90.6176 80.6059C90.561 80.6963 90.4761 80.7924 90.363 80.8942C90.2724 80.9733 90.1706 81.0524 90.0574 81.1315L89.9385 82.7932C89.8819 82.8837 89.797 82.9798 89.6839 83.0815C89.0161 83.6467 87.5503 84.1554 85.2867 84.6075C82.0496 85.2519 78.1561 85.574 73.6061 85.574C69.0334 85.574 65.1399 85.2519 61.9255 84.6075C60.2164 84.2571 58.9601 83.8841 58.1565 83.4884C57.8622 83.3302 57.6188 83.1663 57.4264 82.9967C57.3246 82.9063 57.2453 82.8102 57.1887 82.7085L57.1548 82.6406L57.0869 80.6398C57.1095 80.7303 57.1435 80.8207 57.1887 80.9111C57.2453 81.0016 57.3246 81.0976 57.4264 81.1994C57.517 81.2672 57.6245 81.3463 57.749 81.4368C57.8735 81.5159 58.0093 81.595 58.1565 81.6741C58.9601 82.0811 60.2164 82.4541 61.9255 82.7932C65.1399 83.4376 69.0334 83.7597 73.6061 83.7597C78.1561 83.7597 82.0496 83.4376 85.2867 82.7932C87.3806 82.375 88.7897 81.9115 89.5141 81.4028C88.7105 81.7646 87.5277 82.1037 85.9658 82.4202C82.7287 83.0645 78.8352 83.3867 74.2852 83.3867C69.7125 83.3867 65.819 83.0645 62.6046 82.4202C60.8955 82.0698 59.6392 81.6967 58.8356 81.3011C58.5413 81.1429 58.2979 80.9789 58.1055 80.8094C58.0037 80.719 57.9244 80.6229 57.8678 80.5211L57.8339 80.4533L57.8169 79.6055C57.8056 79.6055 57.7999 79.5999 57.7999 79.5886C57.6528 79.4981 57.5283 79.4077 57.4264 79.3173C57.3246 79.2268 57.2453 79.1307 57.1887 79.029L57.1548 78.9612L57.0869 76.9604C57.1095 77.0508 57.1435 77.1412 57.1887 77.2317C57.2453 77.3221 57.3246 77.4182 57.4264 77.5199C57.517 77.5877 57.6245 77.6669 57.749 77.7573C57.8056 77.7912 57.8678 77.8308 57.9358 77.876C58.0037 77.9099 58.0772 77.9495 58.1565 77.9947C58.9601 78.4016 60.2164 78.7747 61.9255 79.1138C65.1399 79.7581 69.0334 80.0803 73.6061 80.0803C78.1561 80.0803 82.0496 79.7581 85.2867 79.1138C87.3806 78.6955 88.7897 78.2321 89.5141 77.7234L89.6839 77.5877C89.8084 77.4747 89.9046 77.3673 89.9725 77.2656Z" fill="#D29119"/>
<path d="M90.1695 77.0128C90.1695 76.9909 90.1695 76.9745 90.1695 76.9636C90.1695 76.8979 90.1569 76.8323 90.1317 76.7666V77.1441C90.1443 77.1113 90.1506 77.0839 90.1506 77.0621L90.1695 77.0128Z" fill="url(#paint1_linear)"/>
<path d="M90.7613 78.5285C90.7739 78.4957 90.7802 78.4684 90.7802 78.4465L90.799 78.3972C90.799 78.3754 90.799 78.3589 90.799 78.348C90.799 78.2824 90.7865 78.2167 90.7613 78.151V78.5285Z" fill="url(#paint2_linear)"/>
<path d="M90.635 72.8667C90.6475 72.8339 90.6538 72.8065 90.6538 72.7846L90.6727 72.7354C90.6727 72.7135 90.6727 72.6971 90.6727 72.6862C90.6727 72.6205 90.6601 72.5548 90.635 72.4892V72.8667Z" fill="url(#paint3_linear)"/>
<path d="M92.0583 67.4492C92.0583 67.4274 92.0583 67.4109 92.0583 67.4C92.0583 67.3343 92.0457 67.2687 92.0205 67.203V67.5805C92.0331 67.5477 92.0394 67.5204 92.0394 67.4985L92.0583 67.4492Z" fill="url(#paint4_linear)"/>
<path d="M91.5174 65.6929C91.5299 65.6601 91.5362 65.6327 91.5362 65.6108L91.5551 65.5616C91.5551 65.5397 91.5551 65.5233 91.5551 65.5123C91.5551 65.4467 91.5425 65.381 91.5174 65.3154V65.6929Z" fill="url(#paint5_linear)"/>
<path d="M59.9428 64.0027C59.9428 64.0136 59.9428 64.03 59.9428 64.0519L59.9617 64.1011C59.9617 64.123 59.968 64.1504 59.9806 64.1832V63.8057C59.9554 63.8714 59.9428 63.937 59.9428 64.0027Z" fill="url(#paint6_linear)"/>
<path d="M92.9801 64.0573C92.9575 64.1473 92.9236 64.2372 92.8783 64.3271C92.8218 64.4171 92.7426 64.5127 92.6409 64.6138C92.5504 64.6813 92.443 64.76 92.3186 64.85C92.1942 64.9287 92.0585 65.0074 91.9115 65.0861C91.1087 65.4908 89.8535 65.8618 88.146 66.1991C84.9346 66.84 81.0447 67.1604 76.4764 67.1604C71.9306 67.1604 68.0407 66.84 64.8067 66.1991C62.7148 65.7831 61.3069 65.3222 60.5832 64.8162C60.5267 64.7713 60.4702 64.7263 60.4136 64.6813C60.2101 64.4902 60.08 64.3103 60.0235 64.1416L60.1592 66.1991C60.2157 66.2891 60.3005 66.3846 60.4136 66.4858C61.0808 67.048 62.5451 67.5539 64.8067 68.0037C68.0407 68.6445 71.9306 68.9649 76.4764 68.9649C81.0447 68.9649 84.9346 68.6445 88.146 68.0037C89.8535 67.6551 91.1087 67.2841 91.9115 66.8906C92.2055 66.7332 92.4486 66.5702 92.6409 66.4015C92.7426 66.3116 92.8218 66.216 92.8783 66.1148C92.8896 66.0923 92.901 66.0698 92.9123 66.0473L92.9801 64.0573Z" fill="#D29119"/>
<path d="M92.9801 63.9954C92.9801 63.9725 92.9801 63.9553 92.9801 63.9439C92.9801 63.0406 91.3292 62.2858 88.0273 61.6798C84.7141 61.0509 80.6037 60.7536 75.6961 60.7879C70.7772 60.8222 66.9326 61.1309 64.1622 61.7141C61.584 62.2515 60.2044 62.9262 60.0235 63.7381V64.1326C60.08 64.3041 60.2101 64.4871 60.4136 64.6815C60.4702 64.7272 60.5267 64.7729 60.5832 64.8187C61.3069 65.3333 62.7148 65.8021 64.8067 66.2252C68.0407 66.877 71.9306 67.2029 76.4764 67.2029C81.0447 67.2029 84.9346 66.877 88.146 66.2252C89.8535 65.8821 91.1087 65.5048 91.9115 65.0931C92.0585 65.0131 92.1942 64.933 92.3186 64.853C92.443 64.7615 92.5504 64.6815 92.6409 64.6129C92.7426 64.5099 92.8218 64.4127 92.8783 64.3213C92.9236 64.2298 92.9575 64.1383 92.9801 64.0468C92.9801 64.024 92.9801 64.0068 92.9801 63.9954Z" fill="#F3B33F"/>
<path d="M62.9999 62.2955V61.918C62.9748 61.9837 62.9622 62.0493 62.9622 62.115C62.9622 62.1259 62.9622 62.1423 62.9622 62.1642L62.981 62.2135C62.981 62.2354 62.9873 62.2627 62.9999 62.2955Z" fill="url(#paint7_linear)"/>
<path d="M67.826 64.3375C71.0601 64.9893 74.95 65.3152 79.4957 65.3152C84.0641 65.3152 87.9539 64.9893 91.1654 64.3375C92.8728 63.9945 94.128 63.6171 94.9309 63.2055C95.0779 63.1254 95.2136 63.0454 95.3379 62.9653C95.4623 62.8738 95.5697 62.7938 95.6602 62.7252C95.762 62.6223 95.8411 62.5251 95.8977 62.4336C95.9429 62.3421 95.9768 62.2506 95.9994 62.1592C95.9994 62.1363 95.9994 62.1191 95.9994 62.1077C95.9994 62.0848 95.9994 62.0677 95.9994 62.0562C95.9994 61.1529 94.3485 60.3982 91.0466 59.7921C87.7334 59.1632 83.6231 58.8659 78.7155 58.9002C73.7966 58.9345 69.9519 59.2432 67.1815 59.8264C64.6033 60.3639 63.2238 61.0385 63.0428 61.8504V62.2449C63.0994 62.4165 63.2294 62.5994 63.433 62.7938C63.4895 62.8395 63.546 62.8853 63.6026 62.931C64.3263 63.4456 65.7341 63.9144 67.826 64.3375Z" fill="#F3B33F"/>
<path d="M67.826 66.1149C71.0601 66.7557 74.95 67.0761 79.4957 67.0761C84.0641 67.0761 87.9539 66.7557 91.1654 66.1149C92.8728 65.7663 94.128 65.3953 94.9309 65.0018C95.2249 64.8444 95.468 64.6813 95.6602 64.5127C95.762 64.4228 95.8411 64.3272 95.8977 64.226C95.909 64.2035 95.9203 64.181 95.9316 64.1585L95.9994 62.1685C95.9768 62.2584 95.9429 62.3484 95.8977 62.4383C95.8411 62.5283 95.762 62.6239 95.6602 62.725C95.5697 62.7925 95.4623 62.8712 95.3379 62.9611C95.2136 63.0398 95.0779 63.1186 94.9309 63.1973C94.128 63.602 92.8728 63.973 91.1654 64.3103C87.9539 64.9512 84.0641 65.2716 79.4957 65.2716C74.95 65.2716 71.0601 64.9512 67.826 64.3103C65.7341 63.8943 64.3263 63.4334 63.6026 62.9274C63.546 62.8824 63.4895 62.8375 63.433 62.7925C63.2294 62.6014 63.0994 62.4215 63.0428 62.2528L63.1785 64.3103C63.2351 64.4003 63.3199 64.4958 63.433 64.597C64.1001 65.1592 65.5645 65.6651 67.826 66.1149Z" fill="#D29119"/>
<path d="M59.4608 59.949C59.4608 59.9709 59.4671 59.9982 59.4796 60.031V59.6535C59.4545 59.7192 59.4419 59.7848 59.4419 59.8505C59.4419 59.8614 59.4419 59.8778 59.4419 59.8997L59.4608 59.949Z" fill="url(#paint8_linear)"/>
<path d="M92.4792 60.0304C92.4566 60.1203 92.4226 60.2103 92.3774 60.3002C92.3209 60.3901 92.2417 60.4857 92.1399 60.5869C92.0495 60.6544 91.9421 60.7331 91.8177 60.823C91.6933 60.9017 91.5576 60.9804 91.4106 61.0591C90.6077 61.4639 89.3526 61.8349 87.6451 62.1722C84.4337 62.813 80.5438 63.1335 75.9754 63.1335C71.4297 63.1335 67.5398 62.813 64.3058 62.1722C62.2138 61.7562 60.806 61.2952 60.0823 60.7893C60.0258 60.7443 59.9692 60.6993 59.9127 60.6544C59.7092 60.4632 59.5791 60.2833 59.5226 60.1147L59.6583 62.1722C59.7148 62.2621 59.7996 62.3577 59.9127 62.4589C60.5799 63.021 62.0442 63.527 64.3058 63.9767C67.5398 64.6176 71.4297 64.938 75.9754 64.938C80.5438 64.938 84.4337 64.6176 87.6451 63.9767C89.3526 63.6282 90.6077 63.2571 91.4106 62.8636C91.7046 62.7062 91.9477 62.5432 92.1399 62.3746C92.2417 62.2846 92.3209 62.189 92.3774 62.0879C92.3887 62.0654 92.4 62.0429 92.4113 62.0204L92.4792 60.0304Z" fill="#D29119"/>
<path d="M87.5264 57.6529C84.2132 57.0239 80.1028 56.7266 75.1952 56.7609C70.2763 56.7952 66.4317 57.104 63.6612 57.6872C61.0831 58.2246 59.7035 58.8993 59.5226 59.7111V60.1057C59.5791 60.2772 59.7092 60.4601 59.9127 60.6545C59.9692 60.7003 60.0258 60.746 60.0823 60.7918C60.806 61.3063 62.2138 61.7752 64.3058 62.1983C67.5398 62.85 71.4297 63.1759 75.9754 63.1759C80.5438 63.1759 84.4337 62.85 87.6451 62.1983C89.3526 61.8552 90.6077 61.4778 91.4106 61.0662C91.5576 60.9861 91.6933 60.9061 91.8177 60.8261C91.9421 60.7346 92.0495 60.6545 92.1399 60.5859C92.2417 60.483 92.3209 60.3858 92.3774 60.2943C92.4226 60.2028 92.4566 60.1114 92.4792 60.0199C92.4792 59.997 92.4792 59.9799 92.4792 59.9684C92.4792 59.9456 92.4792 59.9284 92.4792 59.917C92.4792 59.0136 90.8282 58.2589 87.5264 57.6529Z" fill="#F3B33F"/>
<path d="M59.7113 57.3053C59.7113 57.3272 59.7176 57.3546 59.7301 57.3874V57.0099C59.705 57.0755 59.6924 57.1412 59.6924 57.2068C59.6924 57.2178 59.6924 57.2342 59.6924 57.2561L59.7113 57.3053Z" fill="url(#paint9_linear)"/>
<path d="M60.1631 57.8856C60.2197 57.9314 60.2762 57.9771 60.3327 58.0229C61.0564 58.5374 62.4643 59.0063 64.5562 59.4294C67.7902 60.0812 71.6801 60.4071 76.2259 60.4071C80.7942 60.4071 84.6841 60.0812 87.8955 59.4294C89.603 59.0863 90.8582 58.709 91.661 58.2973C91.808 58.2173 91.9437 58.1372 92.0681 58.0572C92.1925 57.9657 92.2999 57.8856 92.3904 57.817C92.4921 57.7141 92.5713 57.6169 92.6278 57.5254C92.6731 57.434 92.707 57.3425 92.7296 57.251C92.7296 57.2281 92.7296 57.211 92.7296 57.1995C92.7296 57.1767 92.7296 57.1595 92.7296 57.1481C92.7296 56.2447 91.0787 55.49 87.7768 54.884C84.4636 54.255 80.3532 53.9577 75.4456 53.992C70.5267 54.0263 66.6821 54.3351 63.9117 54.9183C61.3335 55.4557 59.9539 56.1304 59.773 56.9423V57.3368C59.8295 57.5083 59.9596 57.6913 60.1631 57.8856Z" fill="#F3B33F"/>
<path d="M60.3327 58.0215C60.2762 57.9766 60.2197 57.9316 60.1631 57.8866C59.9596 57.6955 59.8295 57.5156 59.773 57.347L59.9087 59.4045C59.9652 59.4944 60.0501 59.59 60.1631 59.6912C60.8303 60.2533 62.2947 60.7593 64.5562 61.209C67.7902 61.8498 71.6801 62.1703 76.2259 62.1703C80.7942 62.1703 84.6841 61.8498 87.8955 61.209C89.603 60.8604 90.8582 60.4894 91.661 60.0959C91.955 59.9385 92.1981 59.7755 92.3904 59.6068C92.4921 59.5169 92.5713 59.4213 92.6278 59.3201C92.6392 59.2976 92.6505 59.2752 92.6618 59.2527L92.7296 57.2626C92.707 57.3526 92.6731 57.4425 92.6278 57.5325C92.5713 57.6224 92.4921 57.718 92.3904 57.8192C92.2999 57.8866 92.1925 57.9653 92.0681 58.0553C91.9437 58.134 91.808 58.2127 91.661 58.2914C90.8582 58.6961 89.603 59.0672 87.8955 59.4045C84.6841 60.0453 80.7942 60.3657 76.2259 60.3657C71.6801 60.3657 67.7902 60.0453 64.5562 59.4045C62.4643 58.9885 61.0564 58.5275 60.3327 58.0215Z" fill="#D29119"/>
<path d="M58.9742 55.4997V55.1222C58.949 55.1879 58.9364 55.2535 58.9364 55.3192C58.9364 55.3301 58.9364 55.3465 58.9364 55.3684L58.9553 55.4177C58.9553 55.4395 58.9616 55.4669 58.9742 55.4997Z" fill="url(#paint10_linear)"/>
<path d="M59.2854 55.9991C59.3419 56.0449 59.3985 56.0906 59.455 56.1364C60.1787 56.6509 61.5865 57.1198 63.6785 57.5429C66.9125 58.1947 70.8024 58.5206 75.3481 58.5206C79.9165 58.5206 83.8064 58.1947 87.0178 57.5429C88.7253 57.1998 89.9804 56.8225 90.7833 56.4108C90.9303 56.3307 91.066 56.2507 91.1904 56.1707C91.3147 56.0792 91.4222 55.9991 91.5126 55.9305C91.6144 55.8276 91.6936 55.7304 91.7501 55.6389C91.7953 55.5475 91.8293 55.456 91.8519 55.3645C91.8519 55.3416 91.8519 55.3245 91.8519 55.313C91.8519 55.2902 91.8519 55.273 91.8519 55.2616C91.8519 54.3582 90.2009 53.6035 86.899 52.9975C83.5859 52.3685 79.4755 52.0712 74.5679 52.1055C69.649 52.1398 65.8043 52.4486 63.0339 53.0318C60.4557 53.5692 59.0762 54.2439 58.8953 55.0557V55.4503C58.9518 55.6218 59.0818 55.8047 59.2854 55.9991Z" fill="#F3B33F"/>
<path d="M59.455 56.1339C59.3985 56.0889 59.3419 56.0439 59.2854 55.999C59.0818 55.8078 58.9518 55.6279 58.8953 55.4593L59.031 57.5168C59.0875 57.6067 59.1723 57.7023 59.2854 57.8035C59.9525 58.3656 61.4169 58.8716 63.6785 59.3213C66.9125 59.9622 70.8024 60.2826 75.3481 60.2826C79.9165 60.2826 83.8064 59.9622 87.0178 59.3213C88.7253 58.9728 89.9804 58.6018 90.7833 58.2082C91.0773 58.0508 91.3204 57.8878 91.5126 57.7192C91.6144 57.6292 91.6936 57.5337 91.7501 57.4325C91.7614 57.41 91.7727 57.3875 91.784 57.365L91.8519 55.375C91.8293 55.4649 91.7953 55.5549 91.7501 55.6448C91.6936 55.7348 91.6144 55.8303 91.5126 55.9315C91.4222 55.999 91.3147 56.0777 91.1904 56.1676C91.066 56.2463 90.9303 56.325 90.7833 56.4037C89.9804 56.8085 88.7253 57.1795 87.0178 57.5168C83.8064 58.1576 79.9165 58.4781 75.3481 58.4781C70.8024 58.4781 66.9125 58.1576 63.6785 57.5168C61.5865 57.1008 60.1787 56.6398 59.455 56.1339Z" fill="#D29119"/>
<path d="M61.0865 54.2462C61.0299 54.2012 60.9734 54.1563 60.9169 54.1113C60.7133 53.9202 60.5833 53.7403 60.5267 53.5716L60.6624 55.6291C60.719 55.7191 60.8038 55.8146 60.9169 55.9158C61.584 56.478 63.0484 56.9839 65.3099 57.4336C68.544 58.0745 72.4339 58.3949 76.9796 58.3949C81.5479 58.3949 85.4378 58.0745 88.6493 57.4336C90.3567 57.0851 91.6119 56.7141 92.4147 56.3206C92.7088 56.1632 92.9519 56.0001 93.1441 55.8315C93.2459 55.7416 93.325 55.646 93.3816 55.5448C93.3929 55.5223 93.4042 55.4998 93.4155 55.4773L93.4833 53.4873C93.4607 53.5772 93.4268 53.6672 93.3816 53.7571C93.325 53.8471 93.2459 53.9427 93.1441 54.0438C93.0536 54.1113 92.9462 54.19 92.8218 54.2799C92.6974 54.3586 92.5618 54.4374 92.4147 54.5161C91.6119 54.9208 90.3567 55.2918 88.6493 55.6291C85.4378 56.27 81.5479 56.5904 76.9796 56.5904C72.4339 56.5904 68.544 56.27 65.3099 55.6291C63.218 55.2131 61.8102 54.7522 61.0865 54.2462Z" fill="#D29119"/>
<path d="M60.5267 53.1681V53.5626C60.5833 53.7341 60.7133 53.9171 60.9169 54.1115C60.9734 54.1572 61.0299 54.2029 61.0865 54.2487C61.8102 54.7633 63.218 55.2321 65.3099 55.6552C68.544 56.307 72.4339 56.6329 76.9796 56.6329C81.5479 56.6329 85.4378 56.307 88.6493 55.6552C90.3567 55.3121 91.6119 54.9348 92.4147 54.5231C92.5618 54.4431 92.6974 54.363 92.8218 54.283C92.9462 54.1915 93.0536 54.1115 93.1441 54.0429C93.2459 53.9399 93.325 53.8427 93.3816 53.7513C93.4268 53.6598 93.4607 53.5683 93.4833 53.4768C93.4833 53.454 93.4833 53.4368 93.4833 53.4254C93.4833 53.4025 93.4833 53.3853 93.4833 53.3739C93.4833 52.4705 91.8324 51.7158 88.5305 51.1098C85.2173 50.4809 81.1069 50.1836 76.1994 50.2179C71.2805 50.2522 67.4358 50.5609 64.6654 51.1441C62.0872 51.6815 60.7077 52.3562 60.5267 53.1681Z" fill="#F3B33F"/>
<path d="M60.5913 53.53C60.5913 53.5519 60.5976 53.5792 60.6102 53.6121V53.2345C60.585 53.3002 60.5725 53.3659 60.5725 53.4315C60.5725 53.4424 60.5725 53.4589 60.5725 53.4807L60.5913 53.53Z" fill="url(#paint11_linear)"/>
<path d="M60.0823 52.1069C60.0258 52.062 59.9692 52.017 59.9127 51.972C59.7092 51.7809 59.5791 51.601 59.5226 51.4323L59.6583 53.4898C59.7148 53.5798 59.7996 53.6754 59.9127 53.7765C60.5799 54.3387 62.0442 54.8446 64.3058 55.2944C67.5398 55.9352 71.4297 56.2557 75.9754 56.2557C80.5438 56.2557 84.4337 55.9352 87.6451 55.2944C89.3526 54.9458 90.6077 54.5748 91.4106 54.1813C91.7046 54.0239 91.9477 53.8609 92.1399 53.6922C92.2417 53.6023 92.3209 53.5067 92.3774 53.4055C92.3887 53.383 92.4 53.3605 92.4113 53.3381L92.4792 51.348C92.4566 51.438 92.4226 51.5279 92.3774 51.6179C92.3209 51.7078 92.2417 51.8034 92.1399 51.9046C92.0495 51.972 91.9421 52.0507 91.8177 52.1407C91.6933 52.2194 91.5576 52.2981 91.4106 52.3768C90.6077 52.7815 89.3526 53.1526 87.6451 53.4898C84.4337 54.1307 80.5438 54.4511 75.9754 54.4511C71.4297 54.4511 67.5398 54.1307 64.3058 53.4898C62.2138 53.0738 60.806 52.6129 60.0823 52.1069Z" fill="#D29119"/>
<path d="M59.5226 51.0288V51.4233C59.5791 51.5948 59.7092 51.7778 59.9127 51.9722C59.9692 52.0179 60.0258 52.0637 60.0823 52.1094C60.806 52.624 62.2138 53.0928 64.3058 53.5159C67.5398 54.1677 71.4297 54.4936 75.9754 54.4936C80.5438 54.4936 84.4337 54.1677 87.6451 53.5159C89.3526 53.1729 90.6077 52.7955 91.4106 52.3838C91.5576 52.3038 91.6933 52.2238 91.8177 52.1437C91.9421 52.0522 92.0495 51.9722 92.1399 51.9036C92.2417 51.8007 92.3209 51.7035 92.3774 51.612C92.4226 51.5205 92.4566 51.429 92.4792 51.3375C92.4792 51.3147 92.4792 51.2975 92.4792 51.2861C92.4792 51.2632 92.4792 51.2461 92.4792 51.2346C92.4792 50.3313 90.8282 49.5766 87.5264 48.9705C84.2132 48.3416 80.1028 48.0443 75.1952 48.0786C70.2763 48.1129 66.4317 48.4216 63.6612 49.0048C61.0831 49.5423 59.7035 50.2169 59.5226 51.0288Z" fill="#F3B33F"/>
<path d="M59.4608 51.2655C59.4608 51.2874 59.4671 51.3147 59.4796 51.3476V50.97C59.4545 51.0357 59.4419 51.1013 59.4419 51.167C59.4419 51.1779 59.4419 51.1944 59.4419 51.2162L59.4608 51.2655Z" fill="url(#paint12_linear)"/>
<path d="M57.5909 49.7115V49.334C57.5657 49.3996 57.5531 49.4653 57.5531 49.5309C57.5531 49.5419 57.5531 49.5583 57.5531 49.5802L57.572 49.6294C57.572 49.6513 57.5783 49.6787 57.5909 49.7115Z" fill="url(#paint13_linear)"/>
<path d="M58.0238 50.3361C58.0804 50.3819 58.1369 50.4276 58.1935 50.4733C58.9172 50.9879 60.325 51.4568 62.4169 51.8798C65.651 52.5316 69.5408 52.8575 74.0866 52.8575C78.6549 52.8575 82.5448 52.5316 85.7562 51.8798C87.4637 51.5368 88.7189 51.1594 89.5217 50.7478C89.6687 50.6677 89.8044 50.5877 89.9288 50.5076C90.0532 50.4162 90.1606 50.3361 90.2511 50.2675C90.3529 50.1646 90.432 50.0674 90.4886 49.9759C90.5338 49.8844 90.5677 49.793 90.5903 49.7015C90.5903 49.6786 90.5903 49.6615 90.5903 49.65C90.5903 49.6272 90.5903 49.61 90.5903 49.5986C90.5903 48.6952 88.9394 47.9405 85.6375 47.3344C82.3243 46.7055 78.2139 46.4082 73.3063 46.4425C68.3875 46.4768 64.5428 46.7856 61.7724 47.3688C59.1942 47.9062 57.8147 48.5809 57.6337 49.3927V49.7872C57.6903 49.9588 57.8203 50.1417 58.0238 50.3361Z" fill="#F3B33F"/>
<path d="M58.1935 50.4709C58.1369 50.4259 58.0804 50.3809 58.0238 50.336C57.8203 50.1448 57.6903 49.9649 57.6337 49.7963L57.7694 51.8538C57.826 51.9437 57.9108 52.0393 58.0238 52.1405C58.691 52.7026 60.1554 53.2086 62.4169 53.6583C65.651 54.2992 69.5408 54.6196 74.0866 54.6196C78.6549 54.6196 82.5448 54.2992 85.7562 53.6583C87.4637 53.3098 88.7189 52.9388 89.5217 52.5452C89.8157 52.3878 90.0589 52.2248 90.2511 52.0562C90.3529 51.9662 90.432 51.8707 90.4886 51.7695C90.4999 51.747 90.5112 51.7245 90.5225 51.702L90.5903 49.712C90.5677 49.8019 90.5338 49.8919 90.4886 49.9818C90.432 50.0717 90.3529 50.1673 90.2511 50.2685C90.1606 50.336 90.0532 50.4147 89.9288 50.5046C89.8044 50.5833 89.6687 50.662 89.5217 50.7407C88.7189 51.1455 87.4637 51.5165 85.7562 51.8538C82.5448 52.4946 78.6549 52.8151 74.0866 52.8151C69.5408 52.8151 65.651 52.4946 62.4169 51.8538C60.325 51.4378 58.9172 50.9768 58.1935 50.4709Z" fill="#D29119"/>
<path d="M59.4608 47.2385C59.4608 47.2604 59.4671 47.2878 59.4796 47.3206V46.9431C59.4545 47.0087 59.4419 47.0744 59.4419 47.14C59.4419 47.151 59.4419 47.1674 59.4419 47.1893L59.4608 47.2385Z" fill="url(#paint14_linear)"/>
<path d="M59.9127 47.82C59.9692 47.8657 60.0258 47.9115 60.0823 47.9572C60.806 48.4718 62.2138 48.9406 64.3058 49.3637C67.5398 50.0155 71.4297 50.3414 75.9754 50.3414C80.5438 50.3414 84.4337 50.0155 87.6451 49.3637C89.3526 49.0207 90.6077 48.6433 91.4106 48.2317C91.5576 48.1516 91.6933 48.0716 91.8177 47.9915C91.9421 47.9 92.0495 47.82 92.1399 47.7514C92.2417 47.6485 92.3209 47.5513 92.3774 47.4598C92.4226 47.3683 92.4566 47.2768 92.4792 47.1854C92.4792 47.1625 92.4792 47.1453 92.4792 47.1339C92.4792 47.111 92.4792 47.0939 92.4792 47.0824C92.4792 46.1791 90.8282 45.4244 87.5264 44.8183C84.2132 44.1894 80.1028 43.8921 75.1952 43.9264C70.2763 43.9607 66.4317 44.2694 63.6612 44.8526C61.0831 45.3901 59.7035 46.0647 59.5226 46.8766V47.2711C59.5791 47.4427 59.7092 47.6256 59.9127 47.82Z" fill="#F3B33F"/>
<path d="M60.0823 47.9536C60.0258 47.9086 59.9692 47.8637 59.9127 47.8187C59.7092 47.6276 59.5791 47.4477 59.5226 47.279L59.6583 49.3365C59.7148 49.4265 59.7996 49.522 59.9127 49.6232C60.5799 50.1854 62.0442 50.6913 64.3058 51.141C67.5398 51.7819 71.4297 52.1023 75.9754 52.1023C80.5438 52.1023 84.4337 51.7819 87.6451 51.141C89.3526 50.7925 90.6077 50.4215 91.4106 50.028C91.7046 49.8706 91.9477 49.7075 92.1399 49.5389C92.2417 49.4489 92.3209 49.3534 92.3774 49.2522C92.3887 49.2297 92.4 49.2072 92.4113 49.1847L92.4792 47.1947C92.4566 47.2846 92.4226 47.3746 92.3774 47.4645C92.3209 47.5545 92.2417 47.65 92.1399 47.7512C92.0495 47.8187 91.9421 47.8974 91.8177 47.9873C91.6933 48.066 91.5576 48.1447 91.4106 48.2234C90.6077 48.6282 89.3526 48.9992 87.6451 49.3365C84.4337 49.9774 80.5438 50.2978 75.9754 50.2978C71.4297 50.2978 67.5398 49.9774 64.3058 49.3365C62.2138 48.9205 60.806 48.4596 60.0823 47.9536Z" fill="#D29119"/>
<path fill-rule="evenodd" clip-rule="evenodd" d="M60.836 45.8179L60.6664 45.6807C60.4628 45.4863 60.3328 45.3034 60.2762 45.1318V44.7373C60.4572 43.9255 61.8367 43.2508 64.4149 42.7133C67.1853 42.1302 71.03 41.8214 75.9489 41.7871C80.8565 41.7528 84.9668 42.0501 88.28 42.679C91.5819 43.2851 93.2328 44.0398 93.2328 44.9432V44.9946V45.0461C93.2102 45.1376 93.1763 45.229 93.1311 45.3205C93.0745 45.412 92.9954 45.5092 92.8936 45.6121C92.8032 45.6807 92.6957 45.7608 92.5713 45.8523C92.447 45.9323 92.3113 46.0123 92.1643 46.0924C91.3614 46.504 90.1062 46.8814 88.3988 47.2244C85.1873 47.8762 81.2975 48.2021 76.7291 48.2021C72.1834 48.2021 68.2935 47.8762 65.0594 47.2244C62.9675 46.8014 61.5597 46.3325 60.836 45.8179ZM61.5179 45.0291C61.5745 45.1663 61.6989 45.3092 61.8911 45.4579L61.925 45.4922C61.9589 45.515 62.0042 45.5379 62.0607 45.5608C62.7279 45.9496 64.0226 46.3098 65.9449 46.6414C68.9189 47.1445 72.5091 47.3961 76.7156 47.3961C80.9221 47.3961 84.5067 47.1445 87.4694 46.6414C89.0525 46.367 90.2115 46.0754 90.9465 45.7666C91.0935 45.7094 91.2236 45.6465 91.3366 45.5779C91.4158 45.5322 91.4836 45.4865 91.5402 45.4407C91.5628 45.4293 91.5854 45.4121 91.608 45.3893C91.7211 45.3207 91.8003 45.2463 91.8455 45.1663C91.8794 45.0977 91.9077 45.0348 91.9303 44.9776V44.9261V44.8918C91.9303 44.1943 90.4094 43.6168 87.3676 43.1594C84.3032 42.6792 80.5094 42.4505 75.9863 42.4733C71.4519 42.4962 67.9069 42.7363 65.3513 43.1937C62.9766 43.594 61.6989 44.1028 61.5179 44.7203V45.0291Z" fill="url(#paint15_linear)"/>
<path fill-rule="evenodd" clip-rule="evenodd" d="M62.0933 45.6094C62.0367 45.5865 61.9915 45.5636 61.9575 45.5407V45.4205C62.1273 44.8022 63.3665 44.2926 65.6753 43.8918C68.1652 43.4338 71.6284 43.1933 76.0649 43.1704C80.4787 43.1475 84.1795 43.3765 87.1674 43.8575C89.9855 44.2926 91.4624 44.8365 91.5982 45.4892C91.5416 45.535 91.4737 45.5808 91.3945 45.6266C91.2813 45.6953 91.1512 45.7583 91.004 45.8156C90.2684 46.1247 89.1083 46.4167 87.5239 46.6916C84.5587 47.1954 80.971 47.4473 76.7609 47.4473C72.5508 47.4473 68.9574 47.1954 65.9809 46.6916C64.0569 46.3595 62.7611 45.9988 62.0933 45.6094ZM60.3129 45.1793C60.3016 45.1449 60.2959 45.1163 60.2959 45.0934L60.2789 45.0419V44.9903C60.2789 44.9216 60.2902 44.8529 60.3129 44.7842V45.1793Z" fill="url(#paint16_linear)"/>
<path fill-rule="evenodd" clip-rule="evenodd" d="M61.8877 45.3955C61.6955 45.2472 61.5711 45.1045 61.5146 44.9676V44.6595C61.6955 44.0432 62.9733 43.5354 65.3479 43.136C67.9035 42.6796 71.4485 42.4399 75.9829 42.4171C80.5061 42.3943 84.2998 42.6225 87.3642 43.1018C90.406 43.5583 91.9269 44.1345 91.9269 44.8306V44.8649V44.9162C91.9043 44.9733 91.8761 45.036 91.8421 45.1045C91.7969 45.1844 91.7177 45.2586 91.6047 45.327C91.5821 45.3499 91.5594 45.367 91.5368 45.3784C91.4011 44.7279 89.9255 44.1859 87.1098 43.7523C84.1246 43.273 80.4269 43.0447 76.0169 43.0676C71.5842 43.0904 68.124 43.33 65.6363 43.7865C63.3295 44.1859 62.0913 44.6937 61.9217 45.3099V45.4297L61.8877 45.3955ZM60.6662 45.6179L60.8358 45.7548C61.5595 46.2683 62.9673 46.7362 65.0593 47.1584C68.2933 47.8089 72.1832 48.1341 76.7289 48.1341C81.2973 48.1341 85.1872 47.8089 88.3986 47.1584C90.1061 46.8161 91.3612 46.4395 92.1641 46.0287C92.3111 45.9488 92.4468 45.8689 92.5712 45.789C92.6955 45.6977 92.803 45.6179 92.8934 45.5494C92.9952 45.4467 93.0744 45.3497 93.1309 45.2584C93.1761 45.1671 93.21 45.0758 93.2327 44.9845L93.1648 47.0044L93.1309 47.0728C93.0744 47.1755 92.9952 47.2725 92.8934 47.3638C92.7012 47.535 92.4581 47.7004 92.1641 47.8602C91.3612 48.2596 90.1061 48.6362 88.3986 48.9899C85.1872 49.6404 81.2973 49.9656 76.7289 49.9656C72.1832 49.9656 68.2933 49.6404 65.0593 48.9899C62.7977 48.5335 61.3333 48.02 60.6662 47.4494C60.5531 47.3467 60.4683 47.2497 60.4118 47.1584L60.2761 45.0701C60.3326 45.2413 60.4626 45.4239 60.6662 45.6179Z" fill="#D29119"/>
<path fill-rule="evenodd" clip-rule="evenodd" d="M63.3662 44.4579C61.0858 44.0017 59.6109 43.4883 58.9416 42.918C58.7033 42.7127 58.5672 42.5016 58.5331 42.2849C58.5218 42.2621 58.5161 42.2393 58.5161 42.2165V42.1651C58.5161 41.2754 59.9116 40.5396 62.7025 39.9579C65.482 39.3647 69.3394 39.051 74.2745 39.0168C79.1983 38.994 83.3222 39.2962 86.6464 39.9236C89.9478 40.5282 91.5985 41.2754 91.5985 42.1651V42.2165V42.302C91.5872 42.3819 91.5588 42.4617 91.5134 42.5416C91.4567 42.6442 91.3773 42.7469 91.2752 42.8495C91.0936 43.0092 90.8497 43.1746 90.5434 43.3458C89.7379 43.745 88.4729 44.1157 86.7485 44.4579C83.5378 45.1081 79.6407 45.4332 75.0573 45.4332C70.4966 45.4332 66.5995 45.1081 63.3662 44.4579ZM59.5208 41.9777V42.029C59.5208 42.086 59.5321 42.1431 59.5548 42.2001C59.5775 42.2685 59.6115 42.3313 59.6569 42.3883C60.1561 43.0271 61.8976 43.5804 64.8813 44.048C66.3222 44.2762 68.3359 44.5157 70.9226 44.7667C73.498 45.0062 76.8051 44.9606 80.8439 44.6298C84.8941 44.2876 87.7077 43.8085 89.2847 43.1925C90.2604 42.8047 90.7312 42.4282 90.6972 42.0632C90.6858 41.8351 90.4759 41.6126 90.0675 41.3959C89.6364 41.1678 88.9103 40.9225 87.8893 40.6601C87.5602 40.5689 87.2029 40.4776 86.8171 40.3864C84.4347 39.8046 81.7686 39.5366 78.8188 39.5822C77.4234 39.5137 75.9712 39.4909 74.4623 39.5137C73.2143 39.4567 71.972 39.4738 70.7354 39.5651C68.0353 39.7362 65.9251 39.9187 64.4048 40.1126L64.1666 40.1468C62.7144 40.3407 61.3473 40.7115 60.0653 41.259C59.7477 41.4643 59.5775 41.6754 59.5548 41.8921C59.5321 41.9263 59.5208 41.9548 59.5208 41.9777Z" fill="#FDF992"/>
<path d="M84.4031 41.4625C84.3804 41.4049 84.3464 41.3473 84.301 41.2897C83.904 40.7829 81.7203 40.2301 77.7498 39.6311C77.7271 39.6196 77.6988 39.6138 77.6647 39.6138C78.0278 39.6023 78.3908 39.5965 78.7538 39.5965C77.3585 39.5274 75.9064 39.5044 74.3976 39.5274C75.861 39.5965 77.3358 39.7693 78.8218 40.0458C81.136 40.4604 82.2761 40.9039 82.2421 41.3761C82.2421 41.4683 82.1967 41.5604 82.106 41.6526C81.9698 41.8484 81.6011 42.0327 80.9999 42.2054C80.9545 42.2285 80.9035 42.24 80.8468 42.24C80.6312 42.3091 80.393 42.3724 80.1321 42.43C78.646 42.7065 76.5927 42.8447 73.9722 42.8447C72.4294 42.8217 71.0795 42.7065 69.9224 42.4991C69.7749 42.4761 69.6218 42.4531 69.463 42.43C69.1907 42.3724 68.9695 42.3091 68.7993 42.24C68.7653 42.24 68.7369 42.2285 68.7143 42.2054C68.3739 42.0787 68.1924 41.9463 68.1697 41.8081V41.7908C68.1697 41.5259 68.6916 41.307 69.7352 41.1342C70.7789 40.9615 72.1232 40.8693 73.768 40.8578C75.1634 40.9154 76.19 41.0191 76.848 41.1688C77.279 41.2725 77.4889 41.3992 77.4776 41.5489C77.3982 41.8484 76.553 42.0269 74.9422 42.0845C74.0346 42.1075 73.2916 42.073 72.713 41.9808C72.1345 41.9117 71.8225 41.8311 71.7772 41.7389C71.5389 41.785 71.4028 41.8368 71.3688 41.8944C71.3688 41.9175 71.3744 41.9348 71.3858 41.9463C71.4312 42.0039 71.5843 42.073 71.8452 42.1536C71.9473 42.1651 72.0437 42.1824 72.1345 42.2054C72.2026 42.2285 72.2763 42.24 72.3557 42.24C73.0364 42.3552 73.8872 42.4185 74.9081 42.43C75.8497 42.4185 76.6778 42.3552 77.3925 42.24C77.4832 42.24 77.574 42.2285 77.6647 42.2054C77.7101 42.2054 77.7612 42.1882 77.8179 42.1536C78.4078 42.0499 78.7878 41.929 78.958 41.7908C79.0601 41.6986 79.1054 41.6065 79.0941 41.5143C79.0487 41.2955 78.612 41.0939 77.7839 40.9096C76.6041 40.6562 75.2031 40.518 73.5809 40.495C73.32 40.4835 73.059 40.4777 72.7981 40.4777C72.7754 40.4777 72.7471 40.4777 72.713 40.4777C71.8055 40.4777 70.9434 40.5007 70.1266 40.5468C68.2094 40.6389 67.1601 41.0306 66.9786 41.7217C66.9559 41.7677 66.9446 41.8196 66.9446 41.8772C66.9446 42.0039 67.0297 42.1248 67.1998 42.24C67.5288 42.4934 68.2208 42.7122 69.2758 42.8965C70.9774 43.1614 73.2746 43.2939 76.1673 43.2939C79.0487 43.2939 81.2268 43.1039 82.7015 42.7238C83.9947 42.3782 84.5619 41.9578 84.4031 41.4625Z" fill="white"/>
<path d="M64.3727 40.1596C62.8465 40.3307 61.405 40.7128 60.0483 41.3059C59.7543 41.4998 59.5904 41.6994 59.5565 41.9047V41.9218C59.5348 41.9655 59.5235 42.0054 59.5226 42.0415C59.5226 42.0986 59.5339 42.1556 59.5565 42.2126C59.5791 42.281 59.613 42.3438 59.6583 42.4008C60.1557 43.0395 61.8911 43.5927 64.8645 44.0603C66.3003 44.2884 68.3071 44.528 70.8848 44.7789C73.4512 45.0184 76.7468 44.9728 80.7716 44.642C84.8078 44.2998 87.6116 43.8208 89.1831 43.2049C90.1554 42.8171 90.6246 42.4407 90.5906 42.0757C90.5567 41.859 90.3476 41.648 89.9632 41.4427C89.4996 41.1918 88.6743 40.9124 87.4872 40.6044C87.2498 40.5474 86.9954 40.4847 86.7241 40.4162C84.4403 39.8573 81.8853 39.5893 79.0588 39.6121C78.6292 39.6121 78.1939 39.6178 77.753 39.6292C81.71 40.2223 83.8864 40.7698 84.2821 41.2716C84.3273 41.3287 84.3612 41.3857 84.3838 41.4427C84.576 41.9446 84.0107 42.3723 82.688 42.7259C81.2295 43.1023 79.0588 43.2904 76.1759 43.2904C73.3042 43.2904 71.0205 43.1593 69.3246 42.897C68.2619 42.7145 67.5666 42.5035 67.2387 42.2639C67.0578 42.1271 66.973 41.9902 66.9843 41.8533C66.9843 41.7963 66.9956 41.745 67.0183 41.6994C67.1992 41.015 68.2449 40.6272 70.1556 40.536C70.9696 40.4904 71.8288 40.4675 72.7333 40.4675C72.7672 40.4675 72.7955 40.4675 72.8181 40.4675C73.0781 40.4675 73.3381 40.4732 73.5982 40.4847C75.2149 40.5075 76.6111 40.6443 77.7869 40.8953C78.6123 41.0777 79.0475 41.2773 79.0927 41.4941C79.1154 41.5853 79.0758 41.6822 78.974 41.7849C78.7931 41.9218 78.4144 42.0529 77.8378 42.1784C77.7813 42.1784 77.7248 42.1898 77.6682 42.2126C77.5778 42.224 77.4873 42.2411 77.3969 42.2639C76.6846 42.3552 75.8593 42.4122 74.9209 42.435C73.9034 42.4122 73.0612 42.3552 72.3941 42.2639C72.3037 42.2411 72.2245 42.224 72.1567 42.2126C72.0776 42.1898 71.9815 42.1727 71.8684 42.1613C71.5632 42.07 71.4105 41.9902 71.4105 41.9218C71.3992 41.9104 71.3936 41.8933 71.3936 41.8704C71.4275 41.8134 71.5632 41.7621 71.8006 41.7165C71.8458 41.8077 72.1567 41.8875 72.7333 41.956C73.3099 42.0472 74.0504 42.0814 74.9549 42.0586C76.5603 42.0016 77.4025 41.8248 77.4817 41.5283C77.4704 41.4028 77.2612 41.2888 76.8542 41.1861C76.1985 41.0378 75.1753 40.9352 73.7847 40.8781C72.1454 40.8781 70.8057 40.9637 69.7655 41.1348C68.7593 41.3173 68.2393 41.5283 68.2054 41.7678V41.7849C68.228 41.9218 68.4089 42.0529 68.748 42.1784C68.7706 42.2012 68.7989 42.2126 68.8328 42.2126C69.0024 42.281 69.2229 42.3438 69.4942 42.4008C69.6525 42.4236 69.8051 42.4464 69.9521 42.4692C71.1053 42.6745 72.4506 42.7886 73.9882 42.8114C76.5998 42.8114 78.6462 42.6745 80.1272 42.4008C80.3872 42.3438 80.6247 42.281 80.8395 42.2126C80.896 42.2126 80.9469 42.2012 80.9921 42.1784C81.5913 42.0073 81.9587 41.8248 82.0944 41.6309C82.1849 41.5397 82.2301 41.4484 82.2301 41.3572C82.2075 40.901 81.0712 40.4675 78.8214 40.0569C77.2386 39.7604 75.6615 39.5893 74.09 39.5437C72.9481 39.4981 71.8175 39.5152 70.6983 39.595C69.6921 39.6634 68.765 39.7376 67.9171 39.8174L65.2885 40.0569C64.9606 40.0912 64.6554 40.1254 64.3727 40.1596Z" fill="url(#paint17_linear)"/>
<path d="M59.0824 45.1019C59.8197 45.6117 61.2319 46.0761 63.319 46.4953C66.5518 47.1297 70.4481 47.4469 75.008 47.4469C79.5906 47.4469 83.487 47.1297 86.697 46.4953C88.4212 46.1441 89.6859 45.7703 90.4913 45.3738C90.6841 45.2718 90.8543 45.1642 91.0017 45.0509L91.2229 42.7909C91.0414 42.9495 90.7976 43.1138 90.4913 43.2837C89.6859 43.6802 88.4212 44.0484 86.697 44.3882C83.487 45.0339 79.5906 45.3568 75.008 45.3568C70.4481 45.3568 66.5518 45.0339 63.319 44.3882C61.0391 43.9351 59.5645 43.4253 58.8953 42.8589L59.0824 45.1019Z" fill="#D29119"/>
<defs>
<linearGradient id="paint0_linear" x1="51.0303" y1="-11.4708" x2="6.07434" y2="50.7715" gradientUnits="userSpaceOnUse">
<stop stop-color="#DDAEF5"/>
<stop offset="1" stop-color="#B976E7"/>
</linearGradient>
<linearGradient id="paint1_linear" x1="82.9938" y1="81.5618" x2="70.7603" y2="62.1734" gradientUnits="userSpaceOnUse">
<stop offset="0.145098" stop-color="#F9BA3B"/>
<stop offset="0.32549" stop-color="#FBD661"/>
<stop offset="0.392157" stop-color="#FFFF99"/>
<stop offset="0.447059" stop-color="#FDF992"/>
<stop offset="0.494118" stop-color="#F3E176"/>
<stop offset="0.498039" stop-color="#F0D86C"/>
<stop offset="0.788235" stop-color="#D18D14"/>
</linearGradient>
<linearGradient id="paint2_linear" x1="83.6233" y1="82.9461" x2="71.3904" y2="63.558" gradientUnits="userSpaceOnUse">
<stop offset="0.145098" stop-color="#F9BA3B"/>
<stop offset="0.32549" stop-color="#FBD661"/>
<stop offset="0.392157" stop-color="#FFFF99"/>
<stop offset="0.447059" stop-color="#FDF992"/>
<stop offset="0.494118" stop-color="#F3E176"/>
<stop offset="0.498039" stop-color="#F0D86C"/>
<stop offset="0.788235" stop-color="#D18D14"/>
</linearGradient>
<linearGradient id="paint3_linear" x1="83.497" y1="77.2843" x2="71.2641" y2="57.8961" gradientUnits="userSpaceOnUse">
<stop offset="0.145098" stop-color="#F9BA3B"/>
<stop offset="0.32549" stop-color="#FBD661"/>
<stop offset="0.392157" stop-color="#FFFF99"/>
<stop offset="0.447059" stop-color="#FDF992"/>
<stop offset="0.494118" stop-color="#F3E176"/>
<stop offset="0.498039" stop-color="#F0D86C"/>
<stop offset="0.788235" stop-color="#D18D14"/>
</linearGradient>
<linearGradient id="paint4_linear" x1="84.8825" y1="71.9981" x2="72.6497" y2="52.61" gradientUnits="userSpaceOnUse">
<stop offset="0.145098" stop-color="#F9BA3B"/>
<stop offset="0.32549" stop-color="#FBD661"/>
<stop offset="0.392157" stop-color="#FFFF99"/>
<stop offset="0.447059" stop-color="#FDF992"/>
<stop offset="0.494118" stop-color="#F3E176"/>
<stop offset="0.498039" stop-color="#F0D86C"/>
<stop offset="0.788235" stop-color="#D18D14"/>
</linearGradient>
<linearGradient id="paint5_linear" x1="84.3793" y1="70.1106" x2="72.1459" y2="50.722" gradientUnits="userSpaceOnUse">
<stop offset="0.145098" stop-color="#F9BA3B"/>
<stop offset="0.32549" stop-color="#FBD661"/>
<stop offset="0.392157" stop-color="#FFFF99"/>
<stop offset="0.447059" stop-color="#FDF992"/>
<stop offset="0.494118" stop-color="#F3E176"/>
<stop offset="0.498039" stop-color="#F0D86C"/>
<stop offset="0.788235" stop-color="#D18D14"/>
</linearGradient>
<linearGradient id="paint6_linear" x1="86.5035" y1="80.8323" x2="98.737" y2="61.444" gradientUnits="userSpaceOnUse">
<stop offset="0.145098" stop-color="#F9BA3B"/>
<stop offset="0.32549" stop-color="#FBD661"/>
<stop offset="0.392157" stop-color="#FFFF99"/>
<stop offset="0.447059" stop-color="#FDF992"/>
<stop offset="0.494118" stop-color="#F3E176"/>
<stop offset="0.498039" stop-color="#F0D86C"/>
<stop offset="0.788235" stop-color="#D18D14"/>
</linearGradient>
<linearGradient id="paint7_linear" x1="89.5228" y1="78.9441" x2="101.756" y2="59.5561" gradientUnits="userSpaceOnUse">
<stop offset="0.145098" stop-color="#F9BA3B"/>
<stop offset="0.32549" stop-color="#FBD661"/>
<stop offset="0.392157" stop-color="#FFFF99"/>
<stop offset="0.447059" stop-color="#FDF992"/>
<stop offset="0.494118" stop-color="#F3E176"/>
<stop offset="0.498039" stop-color="#F0D86C"/>
<stop offset="0.788235" stop-color="#D18D14"/>
</linearGradient>
<linearGradient id="paint8_linear" x1="86.0026" y1="76.6802" x2="98.2361" y2="57.2919" gradientUnits="userSpaceOnUse">
<stop offset="0.145098" stop-color="#F9BA3B"/>
<stop offset="0.32549" stop-color="#FBD661"/>
<stop offset="0.392157" stop-color="#FFFF99"/>
<stop offset="0.447059" stop-color="#FDF992"/>
<stop offset="0.494118" stop-color="#F3E176"/>
<stop offset="0.498039" stop-color="#F0D86C"/>
<stop offset="0.788235" stop-color="#D18D14"/>
</linearGradient>
<linearGradient id="paint9_linear" x1="86.2531" y1="74.0365" x2="98.4866" y2="54.6482" gradientUnits="userSpaceOnUse">
<stop offset="0.145098" stop-color="#F9BA3B"/>
<stop offset="0.32549" stop-color="#FBD661"/>
<stop offset="0.392157" stop-color="#FFFF99"/>
<stop offset="0.447059" stop-color="#FDF992"/>
<stop offset="0.494118" stop-color="#F3E176"/>
<stop offset="0.498039" stop-color="#F0D86C"/>
<stop offset="0.788235" stop-color="#D18D14"/>
</linearGradient>
<linearGradient id="paint10_linear" x1="85.4971" y1="72.1489" x2="97.7306" y2="52.7605" gradientUnits="userSpaceOnUse">
<stop offset="0.145098" stop-color="#F9BA3B"/>
<stop offset="0.32549" stop-color="#FBD661"/>
<stop offset="0.392157" stop-color="#FFFF99"/>
<stop offset="0.447059" stop-color="#FDF992"/>
<stop offset="0.494118" stop-color="#F3E176"/>
<stop offset="0.498039" stop-color="#F0D86C"/>
<stop offset="0.788235" stop-color="#D18D14"/>
</linearGradient>
<linearGradient id="paint11_linear" x1="87.1331" y1="70.2612" x2="99.3666" y2="50.8729" gradientUnits="userSpaceOnUse">
<stop offset="0.145098" stop-color="#F9BA3B"/>
<stop offset="0.32549" stop-color="#FBD661"/>
<stop offset="0.392157" stop-color="#FFFF99"/>
<stop offset="0.447059" stop-color="#FDF992"/>
<stop offset="0.494118" stop-color="#F3E176"/>
<stop offset="0.498039" stop-color="#F0D86C"/>
<stop offset="0.788235" stop-color="#D18D14"/>
</linearGradient>
<linearGradient id="paint12_linear" x1="86.0026" y1="67.9969" x2="98.2363" y2="48.6085" gradientUnits="userSpaceOnUse">
<stop offset="0.145098" stop-color="#F9BA3B"/>
<stop offset="0.32549" stop-color="#FBD661"/>
<stop offset="0.392157" stop-color="#FFFF99"/>
<stop offset="0.447059" stop-color="#FDF992"/>
<stop offset="0.494118" stop-color="#F3E176"/>
<stop offset="0.498039" stop-color="#F0D86C"/>
<stop offset="0.788235" stop-color="#D18D14"/>
</linearGradient>
<linearGradient id="paint13_linear" x1="84.114" y1="66.3606" x2="96.3474" y2="46.9722" gradientUnits="userSpaceOnUse">
<stop offset="0.145098" stop-color="#F9BA3B"/>
<stop offset="0.32549" stop-color="#FBD661"/>
<stop offset="0.392157" stop-color="#FFFF99"/>
<stop offset="0.447059" stop-color="#FDF992"/>
<stop offset="0.494118" stop-color="#F3E176"/>
<stop offset="0.498039" stop-color="#F0D86C"/>
<stop offset="0.788235" stop-color="#D18D14"/>
</linearGradient>
<linearGradient id="paint14_linear" x1="86.0026" y1="63.9695" x2="98.2358" y2="44.5813" gradientUnits="userSpaceOnUse">
<stop offset="0.145098" stop-color="#F9BA3B"/>
<stop offset="0.32549" stop-color="#FBD661"/>
<stop offset="0.392157" stop-color="#FFFF99"/>
<stop offset="0.447059" stop-color="#FDF992"/>
<stop offset="0.494118" stop-color="#F3E176"/>
<stop offset="0.498039" stop-color="#F0D86C"/>
<stop offset="0.788235" stop-color="#D18D14"/>
</linearGradient>
<linearGradient id="paint15_linear" x1="128.968" y1="56.798" x2="129.389" y2="36.3149" gradientUnits="userSpaceOnUse">
<stop offset="0.145098" stop-color="#F9BA3B"/>
<stop offset="0.32549" stop-color="#FBD661"/>
<stop offset="0.392157" stop-color="#FFFF99"/>
<stop offset="0.447059" stop-color="#FDF992"/>
<stop offset="0.494118" stop-color="#F3E176"/>
<stop offset="0.498039" stop-color="#F0D86C"/>
<stop offset="0.788235" stop-color="#D18D14"/>
</linearGradient>
<linearGradient id="paint16_linear" x1="149.732" y1="56.9543" x2="149.939" y2="36.5513" gradientUnits="userSpaceOnUse">
<stop offset="0.145098" stop-color="#F9BA3B"/>
<stop offset="0.32549" stop-color="#FBD661"/>
<stop offset="0.392157" stop-color="#FFFF99"/>
<stop offset="0.447059" stop-color="#FDF992"/>
<stop offset="0.494118" stop-color="#F3E176"/>
<stop offset="0.498039" stop-color="#F0D86C"/>
<stop offset="0.788235" stop-color="#D18D14"/>
</linearGradient>
<linearGradient id="paint17_linear" x1="131.754" y1="54.325" x2="132.09" y2="33.9269" gradientUnits="userSpaceOnUse">
<stop offset="0.145098" stop-color="#F9BA3B"/>
<stop offset="0.32549" stop-color="#FBD661"/>
<stop offset="0.392157" stop-color="#FFFF99"/>
<stop offset="0.447059" stop-color="#FDF992"/>
<stop offset="0.494118" stop-color="#F3E176"/>
<stop offset="0.498039" stop-color="#F0D86C"/>
<stop offset="0.788235" stop-color="#D18D14"/>
</linearGradient>
</defs>
</svg>
