<svg width="115" height="92" viewBox="0 0 115 92" fill="none" xmlns="http://www.w3.org/2000/svg">
<path d="M87.8083 3.19066C87.8083 2.30709 87.4975 1.55442 86.8758 0.932654C86.254 0.310885 85.5014 0 84.6179 0H69.7087C68.8293 0 68.0767 0.310885 67.4508 0.932654C66.8496 1.53806 66.5387 2.26414 66.5182 3.11089V11.6152C66.5182 11.8975 66.551 12.1654 66.6164 12.419C66.6369 12.5172 66.6655 12.6133 66.7023 12.7074C66.78 12.9242 66.8823 13.1328 67.0091 13.3333C67.1318 13.5214 67.279 13.7014 67.4508 13.8732C68.0726 14.495 68.8252 14.8059 69.7087 14.8059H76.1694C76.1816 15.3745 76.1203 15.9962 75.9853 16.6712C75.789 17.6734 75.4904 18.5017 75.0895 19.1562C75.0445 19.2299 74.9995 19.2994 74.9545 19.3648C74.7459 19.6635 74.5414 19.8639 74.341 19.9662C74.57 19.958 74.8236 19.8884 75.1018 19.7575C75.2368 19.6921 75.3779 19.6123 75.5251 19.5182C76.335 19.0151 77.0733 18.2215 77.74 17.1375C78.2227 16.348 78.5683 15.5708 78.7769 14.8059H84.6179C85.4973 14.8059 86.2479 14.495 86.8696 13.8732L86.8758 13.8671C87.4975 13.2453 87.8083 12.4947 87.8083 11.6152V3.19066ZM86.526 1.2824C87.0537 1.81009 87.3175 2.44617 87.3175 3.19066V11.6152C87.3175 12.3597 87.0537 12.9958 86.526 13.5235C85.9984 14.0512 85.3623 14.315 84.6179 14.315H78.4947C78.462 14.4786 78.4231 14.6423 78.3781 14.8059C78.19 15.4972 77.8709 16.2069 77.421 16.935C76.8606 17.8472 76.2573 18.5345 75.611 18.9967C75.9669 18.3463 76.2368 17.5589 76.4209 16.6344C76.5518 15.9799 76.6152 15.3704 76.6111 14.8059C76.6111 14.6382 76.605 14.4745 76.5927 14.315H69.7087C68.9643 14.315 68.3282 14.0512 67.8006 13.5235C67.5511 13.274 67.3609 13.0019 67.23 12.7074C67.1891 12.6133 67.1543 12.5172 67.1257 12.419C67.052 12.1818 67.0132 11.9322 67.0091 11.6704V6.72493C67.0091 6.71266 67.0091 6.70243 67.0091 6.69425V3.19066C67.0091 2.44617 67.2709 1.81009 67.7944 1.2824L67.8006 1.27626C68.3282 0.752668 68.9643 0.490871 69.7087 0.490871H84.6179C85.3623 0.490871 85.9984 0.754714 86.526 1.2824Z" fill="#009933"/>
<path d="M87.3182 3.19069C87.3182 2.44621 87.0544 1.81012 86.5268 1.28243C85.9991 0.754749 85.3631 0.490906 84.6186 0.490906H69.7094C68.965 0.490906 68.329 0.752703 67.8013 1.2763L67.7952 1.28243C67.2716 1.81012 67.0098 2.44621 67.0098 3.19069V6.69428C67.0098 6.70246 67.0098 6.71269 67.0098 6.72496V11.6705C67.0139 11.9323 67.0528 12.1818 67.1264 12.4191C67.155 12.5172 67.1898 12.6134 67.2307 12.7074C67.3616 13.002 67.5518 13.274 67.8013 13.5235C68.329 14.0512 68.965 14.315 69.7094 14.315H76.5934C76.6057 14.4746 76.6118 14.6382 76.6118 14.8059C76.6159 15.3704 76.5525 15.9799 76.4216 16.6344C76.2376 17.5589 75.9676 18.3463 75.6118 18.9967C76.258 18.5345 76.8614 17.8473 77.4217 16.9351C77.8717 16.2069 78.1907 15.4972 78.3789 14.8059C78.4239 14.6423 78.4627 14.4787 78.4954 14.315H84.6186C85.3631 14.315 85.9991 14.0512 86.5268 13.5235C87.0544 12.9958 87.3182 12.3597 87.3182 11.6153V3.19069Z" fill="white"/>
<path d="M81.6911 2.55263L80.1817 2.03108L77.3226 9.20393L75.5188 5.89669L73.0646 7.82335L76.617 12.2535L78.7338 11.9405L81.6911 2.55263Z" fill="#009933"/>
<path d="M54.942 31.4481C54.944 31.4747 54.944 31.501 54.942 31.527C55.0676 33.1351 55.045 34.7581 54.8744 36.3961C54.6866 38.1994 54.4987 40.525 54.3109 43.3728C54.3 43.5409 54.2887 43.7175 54.2771 43.9026C54.1903 45.7606 54.2016 48.4732 54.3109 52.0402L58.4133 52.2092L58.988 45.9877C59.0796 45.2829 59.166 44.5878 59.2473 43.9026C59.5006 41.8336 59.7147 39.8536 59.8897 37.9628C60.1226 35.4381 60.239 32.9434 60.239 30.4788C60.239 30.3135 60.239 30.1595 60.239 30.0167C60.239 29.9416 60.239 29.8702 60.239 29.8026C60.209 30.2309 60.1188 30.6479 59.9686 31.0537C59.916 31.1739 59.8671 31.2941 59.822 31.4143C59.3863 32.3611 58.6875 32.8345 57.7258 32.8345C56.8016 32.8345 56.0202 32.4588 55.3816 31.7074C55.3045 31.6161 55.2332 31.5259 55.1674 31.4369C55.1642 31.4361 55.1604 31.4324 55.1562 31.4256C55.0586 31.2919 54.9759 31.1642 54.9082 31.0424C54.9209 31.1781 54.9322 31.3134 54.942 31.4481Z" fill="#333333"/>
<path d="M56.3387 25.3057C56.3237 25.2832 56.3124 25.2644 56.3049 25.2494V25.2381C56.2974 25.2306 56.2936 25.2231 56.2936 25.2156C56.2507 25.1226 56.2132 25.0324 56.1809 24.9451C55.2029 25.2029 54.429 25.8491 53.8593 26.8837C53.7316 27.1091 53.555 27.4923 53.3296 28.0333C52.999 28.8147 52.7961 29.2881 52.721 29.4534C52.6534 29.5962 52.5482 29.7765 52.4054 29.9944C52.3069 30.1324 52.228 30.2414 52.1688 30.3213C52.119 30.3979 52.0852 30.4505 52.0673 30.4791C52.0448 30.5242 51.9584 30.6181 51.8081 30.7609C51.6994 30.9131 51.6017 31.0333 51.5151 31.1215C51.5087 31.135 51.5012 31.1462 51.4925 31.1553C51.4684 31.181 51.4459 31.2035 51.4249 31.223C51.2747 31.3507 51.3348 31.3996 51.6052 31.3695C51.8581 31.3402 52.1812 31.1448 52.5745 30.7834C52.6192 30.7448 52.6642 30.7034 52.7097 30.6594C52.9679 30.4097 53.1858 30.188 53.3634 29.9944C53.5087 29.8505 53.6289 29.7228 53.724 29.6112C53.9909 29.2815 54.1675 29.3491 54.2537 29.8141C54.2757 29.9143 54.2907 30.0307 54.2988 30.1635C54.3116 30.3079 54.3191 30.4694 54.3214 30.6482C54.3258 30.9914 54.3258 31.3483 54.3214 31.7189C54.3097 32.5968 54.2721 33.5511 54.2087 34.5817C54.1062 33.3761 54.016 32.4557 53.9382 31.8203C53.9021 31.4832 53.8683 31.2277 53.8367 31.0539C53.8332 31.0337 53.8294 31.0149 53.8255 30.9976C53.7652 30.6952 53.6751 30.5299 53.555 30.5016C53.3296 30.697 53.0253 30.9149 52.6421 31.1553C52.2536 31.3944 51.923 31.5147 51.6503 31.516C51.3723 31.516 51.2183 31.5047 51.1882 31.4822L51.1206 31.4259L51.2333 31.2681C51.2435 31.257 51.2547 31.2458 51.2671 31.2342C51.3191 31.1751 51.3829 31.0999 51.4587 31.0088C51.5051 30.9567 51.5539 30.9004 51.6052 30.8398C51.7084 30.7228 51.8061 30.5876 51.8983 30.434C52.1121 30.0989 52.2999 29.6781 52.4618 29.1717C52.6722 28.548 52.9088 28.007 53.1718 27.5486V27.5374C52.8947 27.1306 52.5979 26.9878 52.2815 27.1091C51.8758 27.2371 51.2259 27.5076 50.3317 27.9206C48.7942 28.6368 47.6898 29.1403 47.0183 29.4309C46.7724 29.5371 46.4907 29.6498 46.173 29.769C46.0837 29.8132 45.9973 29.8546 45.9138 29.893C45.9101 29.8879 45.9063 29.8804 45.9025 29.8705C45.8798 29.8829 45.8572 29.8941 45.8349 29.9043C45.3576 30.0832 44.8091 30.2785 44.1894 30.4904C42.982 30.9073 42.1593 31.129 41.7213 31.1553C41.5176 31.1672 41.0705 31.1034 40.3801 30.9637C39.5893 30.8127 38.4774 30.561 37.0441 30.2086C36.3466 30.0411 35.7229 29.8758 35.1733 29.7127C34.3412 29.4789 33.6838 29.2573 33.201 29.0477C33.3497 29.4264 33.4511 29.8622 33.5053 30.3551C33.5204 30.4459 33.5316 30.536 33.5391 30.6256C33.5473 30.7201 33.5548 30.8177 33.5616 30.9187C33.5657 31.0029 33.5695 31.0893 33.5729 31.1779C33.5729 31.2305 33.5729 31.2906 33.5729 31.3582C33.5729 31.6311 33.5541 31.864 33.5166 32.057C34.1454 32.2369 35.3138 32.5751 37.0216 33.0714C39.6515 33.8348 41.1354 34.2105 41.4733 34.1985C41.811 34.1869 42.3557 34.0666 43.1075 33.8378C43.3509 33.7651 43.5875 33.6899 43.8175 33.6124C44.3302 33.4522 44.8299 33.2832 45.3165 33.1052C45.6675 32.9829 46.0957 32.8401 46.6013 32.6769C47.1206 32.5161 47.7217 32.3358 48.4045 32.1359C48.8042 32.0194 49.225 31.8916 49.6668 31.7527C49.9222 31.6926 50.2904 31.5949 50.7712 31.4597C51.1544 31.4597 51.4061 31.8767 51.5264 32.7107C51.5865 33.139 51.6165 33.8716 51.6165 34.9086C51.6165 36.5015 51.5489 38.2748 51.4136 40.2285C51.3486 41.2144 51.2735 42.1349 51.1882 42.9899C51.1695 43.1228 51.1508 43.2543 51.1319 43.3843C51.0207 44.1398 50.9192 44.8612 50.8276 45.5484C50.5271 47.9911 50.3768 50.0349 50.3768 51.6798C50.3768 51.742 50.3768 51.8021 50.3768 51.8601L54.3101 52.0404C54.2008 48.4734 54.1895 45.7609 54.2763 43.9028C54.2879 43.7177 54.2992 43.5412 54.3101 43.3731C54.4979 40.5253 54.6858 38.1997 54.8736 36.3963C55.0442 34.7584 55.0668 33.1354 54.9412 31.5273C54.9432 31.5012 54.9432 31.4749 54.9412 31.4484C54.9314 31.3136 54.9201 31.1784 54.9074 31.0426C54.9027 30.9891 54.8952 30.9365 54.8849 30.8848C54.8579 30.5542 54.8203 30.2574 54.7722 29.9944C54.7694 29.9674 54.7657 29.9411 54.7609 29.9155L54.7384 28.7997L54.7045 27.6614C54.7045 27.6088 54.7083 27.5562 54.7158 27.5036C54.7534 27.1053 54.8811 26.6921 55.099 26.2638C55.3635 25.7347 55.7767 25.4191 56.3387 25.317C56.3406 25.3151 56.3406 25.3114 56.3387 25.3057ZM72.2748 31.8091C72.3771 31.9195 72.024 31.8219 71.2154 31.516C70.719 31.3253 70.0428 31.0548 69.1868 30.7045C68.8986 30.582 68.5868 30.4505 68.2513 30.31C68.0257 30.216 67.7966 30.1183 67.5639 30.017C67.5443 30.0124 67.5256 30.0049 67.5075 29.9944C66.3185 29.489 65.0337 28.9141 63.6531 28.27C63.5949 28.2462 63.5348 28.2199 63.4728 28.1911L62.0189 27.6501C61.9856 27.6691 61.9518 27.6879 61.9175 27.7064C61.6996 27.8417 61.5118 27.9506 61.354 28.0333C61.5794 28.965 61.7597 29.6263 61.8949 30.017C62.0452 30.4528 62.2781 30.9149 62.5937 31.4033C62.7197 31.5969 62.8174 31.751 62.8867 31.8654C62.8986 31.8807 62.9062 31.892 62.9093 31.8992C63.0069 32.0522 63.0558 32.1348 63.0558 32.1472C63.0483 32.1622 63.0445 32.181 63.0445 32.2035C63.037 32.2261 62.9356 32.2261 62.7402 32.2035C62.5449 32.181 62.3119 32.1284 62.0415 32.0458C61.7109 31.9406 61.4704 31.8053 61.3202 31.64C61.2525 31.7527 61.1736 32.0758 61.0835 32.6093C60.9558 33.4058 60.7829 34.2549 60.5651 35.1565L60.8694 30.1184C60.8919 29.7803 60.9896 29.8968 61.1624 30.4678C61.3352 31.0314 61.6432 31.4409 62.0865 31.6964C62.327 31.8316 62.5073 31.9218 62.6275 31.9669C62.5066 31.834 62.3901 31.6949 62.2781 31.5498C61.9145 31.0663 61.6253 30.5253 61.4103 29.9268C61.2826 29.5887 61.0985 28.9012 60.8581 27.8642C60.8003 27.6089 60.7364 27.3722 60.6665 27.1542C60.5344 26.7058 60.3841 26.3489 60.2157 26.0834C60.0919 25.8703 59.9454 25.6824 59.7761 25.5199C59.7298 25.5799 59.6847 25.64 59.6409 25.7002C59.6259 25.7077 59.6108 25.719 59.5958 25.734C59.5808 25.7415 59.5695 25.7528 59.562 25.7678C59.5453 25.7817 59.5265 25.7968 59.5057 25.8129C59.632 26.0197 59.7372 26.2526 59.8212 26.5117C59.8497 26.6143 59.876 26.7345 59.9001 26.8724C59.9454 27.1075 59.9868 27.3931 60.0241 27.729C60.0842 28.255 60.118 28.5442 60.1255 28.5968C60.1706 28.8673 60.2007 29.1529 60.2157 29.4534C60.2232 29.5661 60.2307 29.6826 60.2382 29.8028C60.2382 29.8705 60.2382 29.9418 60.2382 30.017C60.2382 30.1597 60.2382 30.3138 60.2382 30.4791C60.2382 32.9437 60.1218 35.4383 59.8888 37.963C59.7139 39.8539 59.4998 41.8338 59.2464 43.9028C59.1652 44.5881 59.0788 45.2831 58.9872 45.9879L58.4124 52.2095L63.2136 52.4349C63.341 49.5809 63.4086 46.7369 63.4164 43.9028C63.4164 43.73 63.4164 43.5572 63.4164 43.3843C63.4164 40.2285 63.3563 37.7075 63.2361 35.8215C63.2211 35.6562 63.2248 35.1979 63.2474 34.4465C63.2489 34.4016 63.2489 34.3565 63.2474 34.3112C63.2364 34.0176 63.2514 33.6907 63.2924 33.3306V33.3194V33.3081C63.2297 32.3805 64.3041 32.343 66.5157 33.1954C68.7283 34.055 70.0506 34.5284 70.4828 34.6155C70.9228 34.7103 71.4037 34.7141 71.9254 34.6268C72.4553 34.5451 72.9324 34.4587 73.3567 34.3676C73.7791 34.2773 75.1653 33.8716 77.5155 33.1503C79.7995 32.429 81.0693 31.9443 81.3248 31.6964C81.2659 31.545 81.2096 31.3685 81.1557 31.1666C81.1407 31.099 81.1257 31.0426 81.1107 30.9976C81.0672 30.802 81.0296 30.6179 80.998 30.4453C80.999 30.444 80.999 30.4403 80.998 30.434C80.9712 30.2736 80.9487 30.1195 80.9303 29.9719C80.8964 29.6164 80.8926 29.2933 80.9191 29.0026C80.2618 29.2567 79.6532 29.4896 79.0933 29.7014C78.3306 29.9893 77.6582 30.2373 77.0759 30.4453C76.1257 30.7875 75.4157 31.0242 74.9458 31.1553C73.9766 31.4259 73.0863 31.6438 72.2748 31.8091ZM50.7712 32.8009C50.7743 32.7685 50.7743 32.7347 50.7712 32.6995C50.7668 32.7013 50.7592 32.7013 50.7487 32.6995C50.7548 32.7083 50.7586 32.7158 50.76 32.722C50.766 32.7498 50.7698 32.7761 50.7712 32.8009Z" fill="url(#paint0_linear)"/>
<path d="M59.3483 25.9708C59.3009 26.0043 59.2633 26.0419 59.2356 26.0835C59.1003 26.1962 58.9651 26.2939 58.8299 26.3765C58.7806 26.395 58.7355 26.4138 58.6946 26.4329C58.6877 26.4363 58.6802 26.4401 58.6721 26.4441C58.6495 26.4516 58.6232 26.4667 58.5932 26.4892C58.4053 26.5719 58.21 26.617 58.0071 26.6245C57.932 26.617 57.8681 26.6132 57.8155 26.6132C57.7479 26.6057 57.6803 26.5907 57.6127 26.5681C57.515 26.5456 57.4248 26.5155 57.3422 26.4779C57.1769 26.3953 57.0229 26.2826 56.8801 26.1398C56.8726 26.1398 56.8651 26.1361 56.8576 26.1285C56.8576 26.1361 56.8576 26.1473 56.8576 26.1624C56.8547 26.1595 56.851 26.1558 56.8463 26.1511C56.7843 26.0881 56.7317 26.0243 56.6885 25.9595C56.5989 25.84 56.4937 25.6521 56.373 25.3959C56.3192 25.8806 56.2178 26.4141 56.0687 26.9964C56.0161 27.1993 55.9597 27.3947 55.8996 27.5825C55.3812 27.7854 54.9942 28.1911 54.7388 28.7998L54.7613 29.9156C54.7661 29.9411 54.7698 29.9674 54.7726 29.9945C54.8207 30.2574 54.8583 30.5542 54.8853 30.8849C54.8956 30.9365 54.9031 30.9891 54.9078 31.0427C54.9755 31.1645 55.0581 31.2922 55.1558 31.4259C55.16 31.4327 55.1637 31.4364 55.167 31.4372C55.2328 31.5262 55.3041 31.6164 55.3812 31.7077C56.0198 32.4591 56.8012 32.8348 57.7254 32.8348C58.6871 32.8348 59.3859 32.3614 59.8216 31.4146C59.8667 31.2944 59.9156 31.1742 59.9682 31.054C60.1184 30.6482 60.2086 30.2312 60.2386 29.8029C60.2311 29.6827 60.2236 29.5662 60.2161 29.4535C60.2011 29.1529 60.171 28.8674 60.1259 28.5969C59.9982 28.4541 59.8479 28.3189 59.6751 28.1911C59.6601 28.1761 59.6488 28.1648 59.6413 28.1573C59.5286 28.0822 59.4159 28.0108 59.3032 27.9432C59.2807 27.7854 59.2694 27.6313 59.2694 27.4811C59.2694 27.187 59.2769 26.9089 59.2919 26.647C59.3042 26.4098 59.3229 26.1843 59.3483 25.9708Z" fill="url(#paint1_linear)"/>
<path d="M45.3178 33.105C44.8312 33.2829 44.3315 33.452 43.8188 33.6122C43.5889 33.6897 43.3522 33.7648 43.1088 33.8376C42.357 34.0664 41.8123 34.1866 41.4746 34.1983C41.1367 34.2103 39.6528 33.8346 37.0229 33.0712C35.3151 32.5748 34.1467 32.2367 33.5179 32.0568C33.4347 32.5076 33.2506 32.733 32.9656 32.733C32.9281 32.733 32.8943 32.7293 32.8642 32.7218C34.8703 33.4506 36.7787 34.0705 38.5895 34.5815C38.7247 34.6305 38.8562 34.6756 38.9839 34.7167C40.3398 35.1532 41.3391 35.3674 41.9818 35.3592C42.3721 35.2775 42.7928 35.1686 43.2441 35.0323C43.4691 34.965 43.7283 34.8824 44.0217 34.7843C44.3198 34.6908 44.6504 34.5819 45.0135 34.4575C45.4234 34.319 45.923 34.1537 46.5124 33.9616C46.9906 33.8164 47.5278 33.6511 48.1241 33.4656C48.7772 33.2708 49.491 33.0604 50.2654 32.8345L49.9611 32.9472C50.3673 32.9533 50.5889 33.0885 50.626 33.3529C50.6561 33.5633 50.6711 34.1644 50.6711 35.1563C50.6711 35.6372 50.6411 36.336 50.581 37.2527C50.5567 37.5876 50.5304 37.8919 50.5021 38.1656C50.4615 38.5067 50.4089 38.9011 50.3443 39.3491C50.1888 40.4996 49.9746 42.0174 49.7019 43.9025C49.6545 44.226 49.6056 44.5604 49.5554 44.9057C49.2323 47.0997 48.9994 49.3953 48.8566 51.7922L50.3781 51.8598C50.3781 51.8018 50.3781 51.7417 50.3781 51.6795C50.3781 50.0347 50.5284 47.9909 50.8289 45.5481C50.9205 44.8609 51.022 44.1396 51.1332 43.3841C51.1521 43.254 51.1709 43.1225 51.1896 42.9896C51.2748 42.1346 51.35 41.2142 51.415 40.2282C51.5502 38.2746 51.6178 36.5013 51.6178 34.9083C51.6178 33.8714 51.5878 33.1388 51.5277 32.7105C51.4074 31.8764 51.1557 31.4594 50.7726 31.4594C50.2917 31.5947 49.9235 31.6923 49.6681 31.7525C49.2263 31.8914 48.8056 32.0191 48.4058 32.1357C47.723 32.3355 47.1219 32.5159 46.6026 32.6767C46.097 32.8399 45.6688 32.9826 45.3178 33.105ZM50.7726 32.6992C50.7756 32.7345 50.7756 32.7683 50.7726 32.8007C50.7711 32.7759 50.7673 32.7496 50.7613 32.7218C50.7599 32.7156 50.7561 32.7081 50.75 32.6992C50.7606 32.7011 50.7681 32.7011 50.7726 32.6992ZM82.115 32.4625C81.8059 32.4917 81.543 32.2362 81.3261 31.6961C81.0706 31.9441 79.8009 32.4287 77.5168 33.1501C75.1667 33.8713 73.7804 34.2771 73.3581 34.3673C72.9338 34.4585 72.4566 34.5449 71.9267 34.6265C71.405 34.7138 70.9241 34.7101 70.4842 34.6153C70.052 34.5281 68.7296 34.0547 66.517 33.1951C64.3054 32.3427 63.231 32.3803 63.2938 33.3078L65.8859 34.2433C66.9414 34.616 67.8092 34.9204 68.4893 35.1563C69.1019 35.368 69.564 35.5258 69.8756 35.6297C70.6795 35.8927 71.1453 36.0054 71.2731 35.9678C71.3858 35.9302 72.2949 35.7048 74.0005 35.2915C75.706 34.8708 78.4372 33.9278 82.1939 32.4625H82.1714C82.1563 32.47 82.1376 32.47 82.115 32.4625Z" fill="#53789C"/>
<path d="M53.1945 27.5595C53.1862 27.554 53.1787 27.5465 53.172 27.537V27.5483C52.909 28.0066 52.6723 28.5476 52.462 29.1713C52.3001 29.6777 52.1123 30.0985 51.8985 30.4336C51.8063 30.5872 51.7086 30.7225 51.6054 30.8394C51.5541 30.9 51.5053 30.9564 51.4589 31.0085C51.3831 31.0996 51.3192 31.1747 51.2673 31.2339C51.2549 31.2454 51.2436 31.2566 51.2335 31.2677L51.1208 31.4255L51.1884 31.4818C51.2185 31.5044 51.3725 31.5156 51.6505 31.5156C51.9232 31.5143 52.2538 31.3941 52.6423 31.155C53.0255 30.9145 53.3298 30.6966 53.5552 30.5013C53.6753 30.5295 53.7654 30.6948 53.8257 30.9972C53.8296 31.0145 53.8333 31.0333 53.8369 31.0535C53.8685 31.2273 53.9023 31.4828 53.9384 31.82C54.0162 32.4553 54.1064 33.3758 54.2088 34.5813C54.2723 33.5507 54.3098 32.5965 54.3215 31.7185C54.326 31.3479 54.326 30.991 54.3215 30.6478C54.3193 30.4691 54.3117 30.3075 54.299 30.1631C54.2909 30.0303 54.2759 29.9139 54.2539 29.8137C54.1677 29.3488 53.9911 29.2811 53.7242 29.6109C53.6291 29.7224 53.5089 29.8501 53.3636 29.9941C53.186 30.1876 52.9681 30.4093 52.7099 30.6591C52.6644 30.7031 52.6193 30.7444 52.5747 30.783C52.1814 31.1445 51.8583 31.3398 51.6054 31.3691C51.3349 31.3992 51.2748 31.3503 51.4251 31.2226C51.4461 31.2031 51.4686 31.1806 51.4927 31.155C51.5014 31.1458 51.5089 31.1346 51.5153 31.1212C51.6019 31.033 51.6996 30.9127 51.8083 30.7605C51.8834 30.6478 51.9623 30.5276 52.045 30.3998C52.0505 30.391 52.0542 30.3797 52.0562 30.366C52.3162 29.9543 52.5529 29.432 52.7663 28.7993C52.9279 28.2863 53.0707 27.873 53.1945 27.5595ZM32.9983 30.6478C32.8105 30.5501 32.6339 30.4599 32.4686 30.3773C32.1994 30.236 31.959 30.112 31.7473 30.0053C31.7626 30.1137 31.7814 30.2302 31.8037 30.3547C31.8412 30.6403 31.9126 30.9709 32.0178 31.3466C32.2507 32.1881 32.5325 32.6465 32.8631 32.7216C32.8931 32.7292 32.9269 32.7329 32.9645 32.7329C33.2495 32.7329 33.4335 32.5075 33.5167 32.0567C33.5543 31.8636 33.5731 31.6307 33.5731 31.3579C33.5731 31.2902 33.5731 31.2301 33.5731 31.1775C33.5697 31.0889 33.5659 31.0025 33.5618 30.9183C33.3629 30.825 33.1751 30.7348 32.9983 30.6478ZM32.6715 28.2809C32.5813 28.2508 32.4911 28.2208 32.401 28.1907C32.2657 28.1982 32.123 28.2734 31.9727 28.4161C31.9602 28.4287 31.9489 28.44 31.9389 28.4499C32.1225 28.556 32.3404 28.6537 32.5926 28.743C32.6514 28.7674 32.7115 28.79 32.7729 28.8106C32.8631 28.8407 32.9532 28.8707 33.0434 28.9008C33.0738 28.9105 33.1038 28.918 33.1336 28.9233C32.9977 28.6241 32.8549 28.4175 32.7053 28.3034C32.6903 28.2959 32.679 28.2884 32.6715 28.2809ZM56.3727 25.3842C56.3615 25.3617 56.3502 25.3392 56.3389 25.3166C55.7769 25.4188 55.3637 25.7343 55.0992 26.2634C54.8813 26.6917 54.7536 27.1049 54.716 27.5032C54.7085 27.5558 54.7047 27.6084 54.7047 27.661L54.7385 28.7993C54.994 28.1907 55.3809 27.785 55.8994 27.5821C55.9595 27.3942 56.0158 27.1989 56.0684 26.996C56.2176 26.4137 56.319 25.8802 56.3727 25.3955V25.3842ZM61.3542 28.0329C61.3316 27.9352 61.3091 27.8413 61.2865 27.7511C61.2415 27.6234 61.1964 27.5032 61.1513 27.3905C61.1964 27.6309 61.2377 27.8601 61.2753 28.078C61.403 28.7693 61.5232 29.3441 61.6359 29.8025C61.7712 30.3885 61.9552 30.8732 62.1882 31.2564C62.2712 31.3959 62.35 31.5198 62.4248 31.6284C62.5213 31.7724 62.6114 31.8926 62.6953 31.989C62.6803 31.9815 62.6653 31.9778 62.6502 31.9778L62.6277 31.9665C62.5075 31.9214 62.3272 31.8312 62.0867 31.696C61.6434 31.4405 61.3354 31.031 61.1626 30.4674C60.9898 29.8964 60.8921 29.7799 60.8695 30.118L60.5652 35.1562C60.7831 34.2545 60.9559 33.4054 61.0837 32.6089C61.1738 32.0754 61.2527 31.7523 61.3203 31.6396C61.4706 31.8049 61.711 31.9402 62.0416 32.0454C62.3121 32.128 62.545 32.1806 62.7404 32.2032C62.9357 32.2257 63.0372 32.2257 63.0447 32.2032C63.0447 32.1806 63.0484 32.1618 63.056 32.1468C63.056 32.1344 63.0071 32.0518 62.9094 31.8989C62.9063 31.8916 62.8988 31.8803 62.8869 31.865C62.8176 31.7506 62.7199 31.5966 62.5939 31.4029C62.2783 30.9145 62.0454 30.4524 61.8951 30.0166C61.7599 29.6259 61.5796 28.9647 61.3542 28.0329ZM59.4157 25.9027C59.4082 25.9177 59.3969 25.9328 59.3819 25.9478C59.3744 25.9478 59.3668 25.9553 59.3593 25.9703H59.3481C59.3227 26.1839 59.3039 26.4093 59.2917 26.6466C59.2767 26.9085 59.2692 27.1865 59.2692 27.4806C59.2692 27.6309 59.2804 27.785 59.303 27.9428C59.4157 28.0104 59.5284 28.0818 59.6411 28.1569C59.6486 28.1644 59.6599 28.1757 59.6749 28.1907C59.8477 28.3185 59.998 28.4537 60.1257 28.5965C60.1182 28.5439 60.0844 28.2546 60.0243 27.7286C59.9869 27.3927 59.9456 27.1072 59.9003 26.872C59.8762 26.7341 59.8499 26.6139 59.8214 26.5113C59.7374 26.2522 59.6322 26.0193 59.5058 25.8125C59.4788 25.8395 59.4488 25.8696 59.4157 25.9027ZM82.6549 30.0279C82.6455 29.9012 82.6304 29.781 82.6098 29.6672C82.4254 29.7607 82.2225 29.8621 82.0012 29.9715C81.7245 30.1083 81.3902 30.2661 80.9981 30.4449C81.0298 30.6176 81.0674 30.8016 81.1108 30.9972C81.1259 31.0423 81.1409 31.0986 81.1559 31.1662C81.2097 31.3681 81.2661 31.5447 81.325 31.696C81.5418 32.2361 81.8048 32.4916 82.1139 32.4624C82.1364 32.4699 82.1552 32.4699 82.1702 32.4624H82.1928L82.204 32.4511C82.5196 32.3459 82.6849 31.8688 82.6999 31.0197C82.7074 30.644 82.6924 30.3134 82.6549 30.0279ZM81.2574 28.0555C81.2523 28.0576 81.2448 28.0576 81.2348 28.0555C81.2343 28.0634 81.2306 28.071 81.2235 28.078C81.1054 28.2032 81.0227 28.4135 80.9756 28.7092C81.2271 28.6439 81.4713 28.5762 81.7082 28.5063C81.8838 28.4542 82.0491 28.4016 82.204 28.3485C82.192 28.3331 82.1807 28.318 82.1702 28.3034C82.1101 28.2433 82.05 28.187 81.9899 28.1344C81.8021 28.0141 81.6368 27.954 81.494 27.954C81.4114 27.9841 81.3325 28.0179 81.2574 28.0555Z" fill="#395571"/>
<path d="M29.5735 28.8332C29.4683 28.8332 29.3781 28.8369 29.303 28.8444C29.2729 28.8519 29.2504 28.8557 29.2354 28.8557C29.2053 28.8782 29.1903 28.9008 29.1903 28.9233C29.1903 29.0586 29.3143 29.1262 29.5622 29.1262C29.6975 29.1262 29.8627 29.0924 30.0581 29.0248C30.0806 29.0172 30.1069 29.0097 30.137 29.0022C30.1445 28.9797 30.152 28.9609 30.1595 28.9459C30.1746 28.9308 30.1821 28.8933 30.1821 28.8332C30.1821 28.728 30.152 28.6415 30.0919 28.5739C29.9717 28.4537 29.75 28.3936 29.427 28.3936C28.9311 28.3936 28.4728 28.4499 28.052 28.5627C27.7965 28.6303 27.6162 28.7843 27.511 29.0248C27.4885 29.3779 27.342 29.5507 27.0715 29.5432C26.9964 29.5357 26.9137 29.5169 26.8235 29.4869C26.8912 29.547 26.9738 29.6033 27.0715 29.6559C27.342 29.7987 27.7214 29.9077 28.2098 29.9828C29.0212 30.0955 29.6148 30.0617 29.9905 29.8814C30.3511 29.6935 30.5916 29.5883 30.7118 29.5658C30.7958 29.5546 31.1414 29.7011 31.7486 30.0053C31.9603 30.112 32.2007 30.236 32.4699 30.3773C32.6352 30.4599 32.8118 30.5501 32.9996 30.6478C33.1764 30.7348 33.3642 30.825 33.5631 30.9183C33.5563 30.8174 33.5488 30.7197 33.5406 30.6252C33.5331 30.5357 33.5219 30.4455 33.5068 30.3547C33.3052 30.2658 33.1174 30.1831 32.9433 30.1068C32.5676 29.9264 32.2708 29.7874 32.0529 29.6897C31.2565 29.3366 30.7681 29.16 30.5878 29.16L30.1032 29.2051C29.9679 29.2051 29.8665 29.2051 29.7989 29.2051C29.8214 29.1901 29.8515 29.1788 29.889 29.1713C29.8966 29.1638 29.9078 29.1563 29.9229 29.1487C29.72 29.2239 29.5096 29.2502 29.2917 29.2276C29.0288 29.2051 28.8597 29.1713 28.7846 29.1262C28.6944 29.0736 28.6381 29.0398 28.6155 29.0248C28.608 29.0097 28.6005 28.9872 28.593 28.9571C28.5028 28.9797 28.3413 29.0097 28.1084 29.0473C28.2135 28.8144 28.5817 28.6979 29.2128 28.6979C29.303 28.6979 29.4007 28.7167 29.5059 28.7543C29.6035 28.7693 29.6824 28.7993 29.7425 28.8444C29.6824 28.8369 29.6261 28.8332 29.5735 28.8332ZM54.1087 17.303C54.0111 17.3255 53.9246 17.3819 53.8495 17.472C53.6467 17.6674 53.5152 18.0168 53.4551 18.5202C53.3874 19.1364 53.4889 19.7488 53.7594 20.3574C54.0824 21.0637 54.5332 21.4507 55.1118 21.5183C55.1944 21.5258 55.2921 21.507 55.4048 21.4619C55.4724 22.3862 55.6866 23.4043 56.0472 24.5164C56.0472 24.5239 56.051 24.5314 56.0585 24.5389C56.0735 24.5765 56.0885 24.6253 56.1036 24.6854C56.1111 24.7155 56.1223 24.7456 56.1374 24.7756C56.1374 24.7889 56.1374 24.8039 56.1374 24.8207C56.1418 24.8309 56.1456 24.8422 56.1486 24.8545C56.1486 24.862 56.1524 24.8695 56.1599 24.877C56.1674 24.8921 56.1749 24.9109 56.1824 24.9334C56.1839 24.9377 56.1839 24.9415 56.1824 24.9447C56.2147 25.032 56.2522 25.1222 56.2951 25.2152C56.2951 25.2227 56.2989 25.2302 56.3064 25.2377V25.249C56.3139 25.264 56.3252 25.2828 56.3402 25.3053C56.3421 25.311 56.3421 25.3147 56.3402 25.3166C56.3515 25.3392 56.3628 25.3617 56.374 25.3842V25.3955C56.4948 25.6517 56.6 25.8395 56.6896 25.9591C56.7328 26.0238 56.7854 26.0877 56.8474 26.1507C56.8521 26.1553 56.8558 26.1591 56.8587 26.1619C56.8587 26.1469 56.8587 26.1356 56.8587 26.1281C56.8662 26.1356 56.8737 26.1394 56.8812 26.1394C57.024 26.2822 57.178 26.3949 57.3433 26.4775C57.4259 26.5151 57.5161 26.5451 57.6138 26.5677C57.5537 26.5301 57.4973 26.485 57.4447 26.4324C57.4363 26.4224 57.4251 26.4111 57.4109 26.3986C57.3858 26.366 57.3558 26.3322 57.3207 26.2972C57.3132 26.2897 57.3095 26.2822 57.3095 26.2746C57.1888 26.1429 57.0761 25.9814 56.9714 25.79C56.9327 25.7242 56.8951 25.6529 56.8587 25.5758C56.7535 25.3354 56.6558 25.0874 56.5656 24.832C56.5055 24.6817 56.4529 24.5239 56.4079 24.3586C56.3853 24.2609 56.359 24.1519 56.329 24.0317C55.9984 22.7318 55.8594 21.7888 55.912 21.2027C55.9646 20.6166 56.0021 20.2597 56.0247 20.132C55.957 20.1921 55.9007 20.2484 55.8556 20.301C55.6903 20.4889 55.5851 20.7105 55.54 20.966C55.3672 21.0412 55.2095 21.075 55.0667 21.0675C54.8037 21.0374 54.537 20.8759 54.2665 20.5828C53.8232 20.1094 53.6467 19.4144 53.7368 18.4977C53.7443 18.3775 53.8119 18.1333 53.9397 17.7651C54.0148 17.5697 54.0712 17.4157 54.1087 17.303ZM84.8313 27.954C84.7637 28.0066 84.7261 28.0855 84.7186 28.1907C84.7111 28.2433 84.7149 28.2809 84.7299 28.3034C84.7374 28.326 84.7412 28.341 84.7412 28.3485C84.7787 28.3635 84.805 28.3748 84.82 28.3823C85.0154 28.48 85.1769 28.5364 85.3047 28.5514C85.5451 28.5739 85.6728 28.5176 85.6879 28.3823C85.6879 28.3598 85.6766 28.3372 85.654 28.3147C85.6465 28.3147 85.624 28.3072 85.5864 28.2921C85.5188 28.2771 85.4324 28.2658 85.3272 28.2583C85.3122 28.2583 85.3009 28.2583 85.2934 28.2583C85.2558 28.2508 85.2183 28.2471 85.1807 28.2471H85.1694C85.2295 28.2095 85.3084 28.187 85.4061 28.1794C85.5113 28.1644 85.6052 28.1607 85.6879 28.1682C86.071 28.1982 86.3528 28.2696 86.5331 28.3823C86.6533 28.4575 86.7285 28.5439 86.7585 28.6415C86.5331 28.5739 86.3753 28.5251 86.2852 28.495C86.2777 28.5025 86.2739 28.5101 86.2739 28.5176C86.2664 28.5326 86.2589 28.5439 86.2514 28.5514C86.2363 28.5664 86.18 28.5927 86.0823 28.6303C86.0673 28.6378 86.0448 28.6453 86.0147 28.6528C85.887 28.7505 85.7968 28.8031 85.7442 28.8106C85.7066 28.8332 85.5977 28.8444 85.4174 28.8444C85.3347 28.8444 85.1582 28.8219 84.8877 28.7768C84.6172 28.7242 84.4143 28.6979 84.2791 28.6979C84.0462 28.6979 83.7907 28.743 83.5127 28.8332C83.3925 28.8707 83.2685 28.9196 83.1408 28.9797C82.412 29.3178 81.7358 29.6221 81.1122 29.8926C81.0673 29.913 81.0072 29.9393 80.9318 29.9715C80.9502 30.1192 80.9727 30.2732 80.9995 30.4336C81.0005 30.4399 81.0005 30.4436 80.9995 30.4449C81.3915 30.2661 81.7258 30.1083 82.0025 29.9715C82.2239 29.8621 82.4267 29.7607 82.6111 29.6672C82.9786 29.4986 83.2791 29.3671 83.5127 29.2727C83.6479 29.2201 83.7607 29.1788 83.8508 29.1487C84.1063 29.0661 84.373 29.0774 84.651 29.1826C85.1544 29.4756 85.7668 29.6033 86.488 29.5658C87.2018 29.5432 87.7015 29.4268 87.987 29.2164C87.9419 29.2239 87.9081 29.2314 87.8855 29.2389C87.5099 29.2765 87.3333 29.0924 87.3558 28.6866C87.2882 28.4312 87.1267 28.2583 86.8712 28.1682C86.4655 28.0029 86.0147 27.8939 85.5188 27.8413C85.2032 27.7962 84.9741 27.8338 84.8313 27.954ZM62.3134 22.1044C62.1857 22.0969 62.0617 22.0518 61.9415 21.9691C61.8814 21.9165 61.7875 21.8301 61.6598 21.7099C61.5846 21.9729 61.4832 22.2998 61.3555 22.6905C61.4081 22.5703 61.4531 22.4538 61.4907 22.3411C62.2421 22.6191 62.8619 22.3787 63.3503 21.6197C63.0197 21.9804 62.6741 22.142 62.3134 22.1044ZM84.9666 26.624C84.9515 26.6316 84.9328 26.6428 84.9102 26.6579C84.7825 26.7105 84.6998 26.8006 84.6623 26.9284C84.7074 26.9885 84.7637 27.0298 84.8313 27.0523C84.8614 27.0298 84.8839 27.0148 84.8989 27.0073C85.1168 26.872 85.4888 26.8307 86.0147 26.8833C86.0898 26.8908 86.1687 26.8983 86.2514 26.9058C86.4542 26.8908 86.7435 26.981 87.1192 27.1763C87.1417 27.1763 87.1643 27.1801 87.1868 27.1876C87.1868 27.1726 87.1906 27.1575 87.1981 27.1425C87.2056 26.9171 87.0253 26.7555 86.6571 26.6579C86.2664 26.5301 85.932 26.4775 85.654 26.5001C85.361 26.5301 85.1319 26.5714 84.9666 26.624ZM85.2145 25.249C85.207 25.249 85.1882 25.2565 85.1582 25.2715C84.9553 25.3467 84.8163 25.4631 84.7412 25.6209C84.7787 25.666 84.8088 25.7111 84.8313 25.7562C85.0793 25.5909 85.4249 25.5045 85.8682 25.497C85.9659 25.4819 86.0748 25.4819 86.195 25.497C86.7811 25.5195 87.1943 25.5909 87.4347 25.7111C87.4423 25.7186 87.4535 25.7261 87.4685 25.7336C87.4761 25.7487 87.4836 25.7599 87.4911 25.7675C87.5211 25.775 87.5437 25.7862 87.5587 25.8013C87.5888 25.6585 87.4986 25.5157 87.2882 25.373C87.0703 25.2527 86.766 25.1663 86.3753 25.1137C86.0072 25.0837 85.6465 25.1213 85.2934 25.2264C85.2633 25.234 85.237 25.2415 85.2145 25.249ZM87.8855 24.3473C87.9231 24.3623 87.9607 24.3774 87.9982 24.3924H88.0095C87.8893 24.197 87.724 24.028 87.5136 23.8852C87.2281 23.7124 86.86 23.5997 86.4092 23.5471C86.041 23.502 85.6503 23.5659 85.237 23.7387C85.0718 23.8063 84.9365 23.8852 84.8313 23.9754C84.6961 24.1031 84.6397 24.2421 84.6623 24.3924C84.6848 24.4225 84.7073 24.4488 84.7299 24.4713C84.7449 24.4788 84.7599 24.4863 84.775 24.4938C84.9027 24.3811 85.0793 24.2872 85.3047 24.2121C85.7405 24.0543 86.2326 24.0054 86.7811 24.0655C86.9914 24.0881 87.2431 24.1444 87.5362 24.2346C87.6263 24.2571 87.7203 24.2872 87.8179 24.3248C87.833 24.3323 87.8555 24.3398 87.8855 24.3473ZM30.1708 27.289C30.1483 27.2665 30.1295 27.2515 30.1144 27.2439C29.9642 27.1688 29.7463 27.1049 29.4608 27.0523C29.1828 26.9997 28.8447 27.011 28.4465 27.0862C28.0407 27.1613 27.8454 27.3228 27.8604 27.5708C27.8679 27.5633 27.8867 27.5595 27.9168 27.5595C28.2999 27.4017 28.6005 27.3416 28.8184 27.3792C29.472 27.3717 29.9116 27.4581 30.137 27.6384C30.152 27.6535 30.1708 27.6685 30.1933 27.6835C30.261 27.6685 30.3211 27.6384 30.3737 27.5933C30.3586 27.4581 30.291 27.3567 30.1708 27.289ZM30.0243 25.8576C30.0093 25.8426 29.9905 25.8313 29.9679 25.8238C29.6223 25.6735 29.2579 25.5984 28.8747 25.5984C28.484 25.5984 28.1797 25.651 27.9618 25.7562C27.7364 25.8614 27.6312 25.9891 27.6463 26.1394C27.6613 26.1244 27.6801 26.1131 27.7026 26.1056C27.7252 26.0906 27.7515 26.0793 27.7815 26.0718C28.0219 25.9816 28.4314 25.9553 29.01 25.9929C29.6186 26.0304 30.0619 26.1657 30.3399 26.3986C30.3774 26.3535 30.415 26.316 30.4526 26.2859C30.4 26.1206 30.276 25.9854 30.0806 25.8802C30.0506 25.8651 30.0318 25.8576 30.0243 25.8576ZM30.5427 25.1588C30.5878 25.1288 30.6291 25.1025 30.6667 25.0799C30.7043 24.9221 30.6592 24.7719 30.5314 24.6291C30.4488 24.5314 30.3286 24.4375 30.1708 24.3473C29.7801 24.1294 29.4007 24.0205 29.0325 24.0205C28.5742 24.0205 28.1985 24.0918 27.9055 24.2346C27.6651 24.3548 27.4772 24.5013 27.342 24.6742H27.3532C27.3908 24.6667 27.4284 24.6591 27.4659 24.6516C27.6012 24.6216 27.7289 24.599 27.8491 24.584C28.1422 24.5239 28.3939 24.4938 28.6042 24.4938C29.1527 24.4938 29.6373 24.599 30.0581 24.8094C30.2685 24.9146 30.43 25.0311 30.5427 25.1588Z" fill="#9D6351"/>
<path d="M30.8573 18.757C30.8423 18.757 30.8235 18.757 30.801 18.757C30.6808 18.8698 30.5756 19.0088 30.4854 19.1741C30.3953 19.3168 30.3164 19.4596 30.2487 19.6024C30.0384 20.0457 29.9332 20.5116 29.9332 21C29.9332 21.3531 29.982 21.7476 30.0797 22.1834C30.1623 22.6117 30.2037 22.9837 30.2037 23.2992V23.4232C30.6394 23.7839 30.8573 24.1333 30.8573 24.4714C30.8573 24.6818 30.831 24.8208 30.7784 24.8884C30.7634 24.926 30.7484 24.9636 30.7334 25.0012L30.7221 25.0124C30.7071 25.0425 30.6883 25.065 30.6657 25.0801C30.6282 25.1026 30.5868 25.1289 30.5418 25.159C30.5868 25.204 30.6244 25.2641 30.6545 25.3393C30.692 25.467 30.6995 25.6248 30.677 25.8127C30.647 25.9705 30.5831 26.117 30.4854 26.2522C30.4704 26.2597 30.4591 26.271 30.4516 26.286C30.414 26.3161 30.3765 26.3537 30.3389 26.3988C30.3614 26.4213 30.3877 26.4476 30.4178 26.4777C30.4253 26.4852 30.4328 26.4964 30.4403 26.5115L30.4516 26.5227C30.5342 26.6279 30.5756 26.7557 30.5756 26.906C30.5756 27.2366 30.508 27.4657 30.3727 27.5935C30.3201 27.6386 30.26 27.6686 30.1924 27.6836C30.2224 27.7137 30.245 27.74 30.26 27.7625C30.3877 27.9203 30.4328 28.1232 30.3953 28.3712C30.3427 28.6567 30.2938 28.837 30.2487 28.9122C30.2412 28.9197 30.2262 28.9347 30.2037 28.9573C30.1586 29.0023 30.0947 29.0512 30.0121 29.1038C29.997 29.1113 29.982 29.1188 29.967 29.1263C29.9595 29.1263 29.952 29.1301 29.9444 29.1376C29.9369 29.1376 29.9294 29.1414 29.9219 29.1489C29.9069 29.1564 29.8956 29.1639 29.8881 29.1714C29.8505 29.1789 29.8205 29.1902 29.7979 29.2052C29.8656 29.2052 29.967 29.2052 30.1022 29.2052L30.5868 29.1601C30.7672 29.1601 31.2555 29.3367 32.052 29.6899C32.2699 29.7876 32.5666 29.9266 32.9423 30.1069C33.1164 30.1833 33.3043 30.2659 33.5058 30.3549C33.4517 29.862 33.3502 29.4262 33.2015 29.0474C33.1933 29.0338 33.1858 29.0187 33.179 29.0023C33.1715 28.9948 33.164 28.9873 33.1565 28.9798C33.1491 28.9628 33.1416 28.944 33.1339 28.9235C33.1042 28.9181 33.0742 28.9106 33.0437 28.9009C32.9536 28.8709 32.8634 28.8408 32.7733 28.8107C32.7118 28.7901 32.6517 28.7676 32.5929 28.7431C32.3408 28.6538 32.1229 28.5561 31.9393 28.4501C31.5191 28.2216 31.2749 27.9661 31.2067 27.6836C31.109 27.2478 31.1504 26.7219 31.3307 26.1057C31.496 25.4896 31.5936 24.9448 31.6237 24.4714C31.6462 23.998 31.5636 23.5096 31.3758 23.0062C31.1879 22.5028 31.094 21.973 31.094 21.417C31.094 21.0037 31.1729 20.5454 31.3307 20.0419C31.3983 19.8616 31.4509 19.7151 31.4885 19.6024C31.5411 19.4446 31.5674 19.3507 31.5674 19.3206C31.5674 19.1177 31.4885 18.9674 31.3307 18.8698H31.3194C31.1917 18.7946 31.0377 18.757 30.8573 18.757ZM62.7971 16.1873C62.7971 15.9468 62.7483 15.6838 62.6506 15.3983C62.2223 15.2781 61.8504 15.218 61.5348 15.218C61.3094 15.218 61.069 15.2555 60.8136 15.3307C60.5506 15.4058 60.3627 15.4434 60.25 15.4434C59.8744 15.4434 59.4386 15.2631 58.9427 14.9024C58.8826 14.8648 58.8262 14.8235 58.7736 14.7784C58.5633 14.6206 58.3416 14.4929 58.1087 14.3952C57.8082 14.2599 57.4851 14.1735 57.1395 14.136C56.7863 14.5342 56.5008 15.2142 56.2829 16.176C56.2112 16.4515 56.1286 16.7971 56.035 17.2129C55.9519 17.6249 55.8579 18.1058 55.7532 18.6556L55.742 18.8247C55.7344 18.8021 55.7307 18.7833 55.7307 18.7683V18.757C55.6706 18.5842 55.603 18.4227 55.5278 18.2724C55.4827 18.1747 55.4339 18.0845 55.3813 18.0019C55.3362 17.9343 55.2911 17.8704 55.2461 17.8103C54.9906 17.5097 54.7539 17.3332 54.536 17.2806H54.5248C54.4872 17.273 54.4571 17.2693 54.4346 17.2693C54.3144 17.2618 54.2055 17.273 54.1078 17.3031C54.0702 17.4158 54.0139 17.5698 53.9387 17.7652C53.811 18.1334 53.7434 18.3776 53.7359 18.4978C53.6457 19.4145 53.8223 20.1096 54.2656 20.5829C54.536 20.876 54.8028 21.0375 55.0657 21.0676C55.2085 21.0751 55.3663 21.0413 55.5391 20.9662C55.5842 20.7107 55.6894 20.489 55.8547 20.3012C55.8997 20.2486 55.9561 20.1922 56.0237 20.1321C56.0012 20.2598 55.9636 20.6168 55.911 21.2028C55.8584 21.7889 55.9974 22.7319 56.328 24.0319C56.3581 24.1521 56.3844 24.261 56.4069 24.3587C56.452 24.524 56.5046 24.6818 56.5647 24.8321C56.6548 25.0876 56.7525 25.3355 56.8577 25.576C56.8942 25.653 56.9318 25.7244 56.9704 25.7901C57.0751 25.9815 57.1878 26.1431 57.3085 26.2748C57.3085 26.2823 57.3123 26.2898 57.3198 26.2973C57.3548 26.3324 57.3849 26.3662 57.4099 26.3988C57.4241 26.4113 57.4354 26.4225 57.4438 26.4326C57.4964 26.4852 57.5527 26.5303 57.6128 26.5678C57.6804 26.5904 57.7481 26.6054 57.8157 26.6129C57.8683 26.6129 57.9321 26.6167 58.0073 26.6242C58.2101 26.6167 58.4055 26.5716 58.5933 26.4889C58.6234 26.4664 58.6497 26.4514 58.6722 26.4438C58.6803 26.4398 58.6879 26.436 58.6947 26.4326C58.7357 26.4135 58.7807 26.3947 58.83 26.3762C58.9652 26.2936 59.1005 26.1959 59.2357 26.0832C59.2634 26.0416 59.301 26.004 59.3484 25.9705H59.3597C59.3672 25.9554 59.3747 25.9479 59.3822 25.9479C59.3973 25.9329 59.4085 25.9179 59.416 25.9028C59.4492 25.8697 59.4792 25.8397 59.5062 25.8127C59.5271 25.7965 59.5459 25.7815 59.5626 25.7676C59.5701 25.7526 59.5813 25.7413 59.5964 25.7338C59.6114 25.7187 59.6264 25.7075 59.6414 25.7C59.6853 25.6397 59.7303 25.5796 59.7767 25.5196C59.7959 25.497 59.8147 25.4744 59.833 25.452C59.8481 25.437 59.8631 25.4257 59.8781 25.4182V25.4069C59.8781 25.3844 59.8894 25.3656 59.9119 25.3506C59.9363 25.3066 59.9664 25.2616 60.0021 25.2153C60.0186 25.1988 60.0373 25.1801 60.0584 25.159C60.0584 25.1439 60.066 25.1289 60.081 25.1139C60.1261 25.0462 60.1749 24.9786 60.2275 24.911C60.483 24.5353 60.7459 24.0544 61.0164 23.4683C61.1291 23.2279 61.2418 22.9686 61.3545 22.6906C61.4823 22.2999 61.5837 21.973 61.6588 21.71C61.7865 21.8303 61.8805 21.9167 61.9406 21.9693C62.0608 22.0519 62.1848 22.097 62.3125 22.1045C62.6731 22.1421 63.0188 21.9805 63.3493 21.6199C63.3794 21.5673 63.4057 21.5184 63.4282 21.4733C63.6912 21.0826 63.849 20.6844 63.9016 20.2786C63.9016 20.2335 63.9053 20.196 63.9129 20.1659C63.9129 19.948 63.8678 19.7639 63.7776 19.6136C63.7476 19.5535 63.7175 19.5047 63.6875 19.4671C63.5522 19.2868 63.4095 19.1891 63.2592 19.1741C63.0714 19.159 62.8722 19.2304 62.6619 19.3882C62.5717 19.4558 62.4778 19.5423 62.3801 19.6475C62.3501 19.685 62.3238 19.7188 62.3012 19.7489C62.2712 19.8015 62.2411 19.8503 62.2111 19.8954C62.2111 19.9029 62.2073 19.9104 62.1998 19.918C62.2073 19.8804 62.2186 19.8466 62.2336 19.8165C62.2787 19.546 62.3576 19.1327 62.4703 18.5767C62.5777 18.0619 62.6566 17.6073 62.7069 17.2129C62.7671 16.8073 62.7971 16.4654 62.7971 16.1873ZM59.8669 19.1966C59.957 18.8359 60.0772 18.5391 60.2275 18.3062C60.4078 18.0808 60.5769 17.9869 60.7347 18.0244C60.8924 18.062 60.9826 18.1973 61.0051 18.4302C61.0577 18.6631 61.0352 18.9374 60.9375 19.253C60.8398 19.5761 60.7046 19.8691 60.5318 20.1321C60.3665 20.3951 60.205 20.504 60.0472 20.459C59.8894 20.4214 59.803 20.2899 59.788 20.0645C59.7579 19.8391 59.7842 19.5498 59.8669 19.1966ZM58.0974 17.4158C58.2627 17.4233 58.3905 17.5736 58.4806 17.8666C58.5633 18.1522 58.582 18.4941 58.537 18.8923C58.5069 19.283 58.4431 19.5873 58.3454 19.8052C58.2477 20.0307 58.1162 20.1396 57.9509 20.1321C57.7856 20.1246 57.6616 19.9555 57.579 19.6249C57.5039 19.2943 57.4701 18.9524 57.4776 18.5993C57.4926 18.2386 57.5565 17.9493 57.6692 17.7314C57.7894 17.5135 57.9321 17.4083 58.0974 17.4158ZM84.4923 18.3513C84.4622 18.4114 84.4434 18.4865 84.4359 18.5767C84.4209 18.6218 84.466 18.8735 84.5712 19.3319C84.6613 19.8503 84.6839 20.3124 84.6388 20.7182C84.5787 21.2742 84.4322 21.7889 84.1992 22.2623C83.9588 22.7357 83.8198 23.2128 83.7822 23.6937C83.7747 23.7914 83.771 23.8966 83.771 24.0093C83.771 24.4 83.8085 24.8471 83.8837 25.3506C83.9663 25.8164 84.0076 26.1696 84.0076 26.41C84.0001 26.6505 83.8987 26.9773 83.7034 27.3906C83.6583 27.4808 83.5944 27.5672 83.5118 27.6498C83.2587 27.8969 82.823 28.1298 82.2044 28.3486C82.0495 28.4017 81.8842 28.4543 81.7085 28.5064C81.4716 28.5764 81.2275 28.644 80.976 28.7093C80.9718 28.7367 80.9681 28.763 80.9647 28.7882C80.9572 28.7957 80.9497 28.7995 80.9422 28.7995C80.9346 28.8671 80.9271 28.9347 80.9196 29.0023C80.8932 29.2931 80.8969 29.6162 80.9309 29.9717C81.0063 29.9394 81.0664 29.9131 81.1112 29.8928C81.7348 29.6223 82.411 29.3179 83.1398 28.9798C83.2676 28.9197 83.3915 28.8709 83.5118 28.8333C83.7898 28.7431 84.0452 28.698 84.2781 28.698C84.4134 28.698 84.6162 28.7243 84.8867 28.7769C85.1572 28.822 85.3338 28.8446 85.4164 28.8446C85.5967 28.8446 85.7057 28.8333 85.7433 28.8107C85.7958 28.8032 85.886 28.7506 86.0137 28.6529C85.9311 28.683 85.7958 28.698 85.608 28.698C85.593 28.698 85.578 28.698 85.5629 28.698C85.5404 28.698 85.5178 28.698 85.4953 28.698C85.33 28.7131 85.1797 28.683 85.0445 28.6079H85.0558C85.0483 28.5853 85.0257 28.5703 84.9882 28.5628C84.9806 28.5553 84.9694 28.5478 84.9543 28.5402C84.9468 28.5327 84.9393 28.529 84.9318 28.529L84.9205 28.5177C84.9055 28.5102 84.8942 28.5027 84.8867 28.4952C84.8792 28.4801 84.8717 28.4726 84.8642 28.4726L84.8529 28.4613C84.7778 28.4012 84.7252 28.3524 84.6951 28.3148C84.6801 28.2998 84.6688 28.2885 84.6613 28.281C84.6538 28.266 84.6463 28.2547 84.6388 28.2472C84.6087 28.1871 84.5824 28.0143 84.5599 27.7287C84.5524 27.4657 84.6162 27.2666 84.7515 27.1314C84.7665 27.1163 84.7778 27.1051 84.7853 27.0976C84.8003 27.075 84.8153 27.06 84.8304 27.0525C84.7627 27.0299 84.7064 26.9886 84.6613 26.9285C84.5486 26.7932 84.511 26.5603 84.5486 26.2297C84.5636 26.0869 84.6162 25.9629 84.7064 25.8578L84.7289 25.8465C84.7289 25.839 84.7365 25.8352 84.7515 25.8352C84.774 25.8202 84.7928 25.8052 84.8078 25.7901C84.8153 25.7751 84.8229 25.7638 84.8304 25.7563C84.8078 25.7112 84.7778 25.6661 84.7402 25.6211C84.7327 25.606 84.7252 25.5948 84.7177 25.5872C84.62 25.437 84.5712 25.2829 84.5712 25.1251C84.5712 24.9448 84.5975 24.7908 84.65 24.663C84.6876 24.5954 84.7289 24.5391 84.774 24.494C84.759 24.4865 84.744 24.4789 84.7289 24.4714C84.7064 24.4489 84.6839 24.4226 84.6613 24.3925C84.6388 24.3775 84.6237 24.3625 84.6162 24.3474L84.605 24.3362C84.5824 24.2911 84.5712 24.2498 84.5712 24.2122C84.5186 24.1295 84.5073 23.9868 84.5373 23.7839C84.5749 23.4458 84.8304 23.1189 85.3037 22.8033L85.315 22.7019V22.6906C85.3601 22.3901 85.4465 22.0256 85.5742 21.5973C85.7094 21.169 85.7996 20.7858 85.8447 20.4477C85.9198 19.7865 85.8109 19.159 85.5179 18.5654C85.4352 18.3926 85.3413 18.2423 85.2361 18.1146C85.2211 18.1146 85.2023 18.1071 85.1797 18.0921H85.1685C84.9882 18.077 84.8341 18.1033 84.7064 18.171H84.6951C84.6125 18.216 84.5449 18.2762 84.4923 18.3513ZM89.0905 23.9868C88.9628 23.7238 88.7637 23.4909 88.4932 23.288C88.2603 23.0776 88.0086 22.9311 87.7381 22.8484C87.4826 22.7507 87.1858 22.7019 86.8477 22.7019C86.4946 22.6944 86.0926 22.8033 85.6418 23.0287C85.1835 23.2617 84.9205 23.4495 84.8529 23.5923C84.7853 23.7351 84.7778 23.8628 84.8304 23.9755C84.9356 23.8853 85.0708 23.8064 85.2361 23.7388C85.6493 23.566 86.04 23.5021 86.4082 23.5472C86.859 23.5998 87.2272 23.7125 87.5127 23.8853C87.7231 24.0281 87.8884 24.1972 88.0086 24.3925H87.9973C88.0499 24.4226 88.0912 24.4639 88.1213 24.5165C88.1513 24.5916 88.1626 24.648 88.1551 24.6856C88.1476 24.7457 88.1138 24.7983 88.0536 24.8434C87.8433 24.6179 87.569 24.4677 87.2309 24.3925C86.7951 24.2873 86.427 24.2422 86.1264 24.2573C85.856 24.2648 85.5817 24.3211 85.3037 24.4263C85.0407 24.5315 84.913 24.6818 84.9205 24.8772C84.9356 25.0951 85.0144 25.2266 85.1572 25.2717C85.1873 25.2566 85.206 25.2491 85.2136 25.2491C85.2361 25.2416 85.2624 25.2341 85.2924 25.2266C85.6456 25.1214 86.0062 25.0838 86.3744 25.1139C86.7651 25.1665 87.0694 25.2529 87.2873 25.3731C87.4977 25.5159 87.5878 25.6586 87.5578 25.8014C87.5427 25.7864 87.5202 25.7751 87.4901 25.7676C87.5653 25.8277 87.6254 25.9291 87.6705 26.0719V26.0944C87.5728 26.0193 87.4451 25.9592 87.2873 25.9141C86.9943 25.8239 86.6411 25.7601 86.2279 25.7225C85.8146 25.6924 85.4653 25.73 85.1797 25.8352C84.9168 25.9554 84.7928 26.0907 84.8078 26.241C84.8078 26.4138 84.8116 26.5152 84.8191 26.5453C84.8266 26.5678 84.8567 26.6054 84.9093 26.658C84.9318 26.643 84.9506 26.6317 84.9656 26.6242C85.1309 26.5716 85.3601 26.5303 85.6531 26.5002C85.9311 26.4777 86.2654 26.5303 86.6561 26.658C87.0243 26.7557 87.2046 26.9172 87.1971 27.1426C87.1896 27.1577 87.1858 27.1727 87.1858 27.1877C87.2309 27.2178 87.2647 27.2591 87.2873 27.3117C87.3098 27.3793 87.3211 27.4394 87.3211 27.492C87.3211 27.4996 87.3173 27.5221 87.3098 27.5597C87.2873 27.5296 87.2572 27.5071 87.2197 27.492C87.1295 27.4094 87.0205 27.3455 86.8928 27.3004C86.6449 27.2103 86.3406 27.1464 85.9799 27.1088C85.6118 27.0637 85.3225 27.0825 85.1121 27.1652C84.9017 27.2403 84.7928 27.3756 84.7853 27.5709C84.7853 27.7513 84.789 27.849 84.7966 27.864C84.8041 27.894 84.8153 27.9241 84.8304 27.9541C84.9731 27.8339 85.2023 27.7964 85.5179 27.8414C86.0137 27.894 86.4646 28.003 86.8703 28.1683C87.1257 28.2585 87.2873 28.4313 87.3549 28.6868C87.3324 29.0925 87.5089 29.2766 87.8846 29.239C87.9071 29.2315 87.9409 29.224 87.986 29.2165C88.0461 29.1714 88.0987 29.1226 88.1438 29.07C88.234 28.9573 88.3016 28.8558 88.3467 28.7657C88.4293 28.6004 88.4444 28.4613 88.3918 28.3486C88.3316 28.2284 88.3279 28.1195 88.3805 28.0218C88.3955 27.9767 88.4218 27.9354 88.4594 27.8978C88.5871 27.7851 88.6773 27.6724 88.7299 27.5597C88.7749 27.462 88.7862 27.3455 88.7637 27.2103C88.7562 27.1652 88.7486 27.1239 88.7411 27.0863C88.681 26.8834 88.6397 26.7632 88.6172 26.7256C88.6096 26.7106 88.6096 26.6918 88.6172 26.6693C88.6172 26.6392 88.6397 26.5979 88.6848 26.5453C88.7599 26.4551 88.8163 26.3988 88.8538 26.3762C88.8839 26.3462 88.9064 26.3199 88.9215 26.2973C89.0116 26.1395 89.0642 25.9892 89.0792 25.8465C89.1018 25.6586 89.0717 25.5046 88.9891 25.3844C88.8764 25.1289 88.8576 24.9786 88.9327 24.9335C89.0003 24.8884 89.083 24.8246 89.1807 24.7419C89.1882 24.7194 89.1919 24.7044 89.1919 24.6968C89.1919 24.6518 89.1957 24.5804 89.2032 24.4827C89.2107 24.4226 89.207 24.3512 89.1919 24.2685C89.1769 24.1934 89.1431 24.0995 89.0905 23.9868ZM30.5305 24.6292C30.5981 24.5315 30.6131 24.4076 30.5756 24.2573C30.523 24.0995 30.2825 23.8816 29.8543 23.6036C29.426 23.318 29.0391 23.1602 28.6934 23.1302C28.3553 23.0926 28.051 23.1076 27.7806 23.1753C27.5401 23.2354 27.3035 23.3406 27.0705 23.4909C27.0405 23.5059 27.0142 23.5209 26.9916 23.5359C26.6911 23.7088 26.4657 23.9154 26.3154 24.1558C26.2027 24.3362 26.1464 24.494 26.1464 24.6292C26.1464 24.7344 26.1426 24.8096 26.1351 24.8546L26.1464 24.8884C26.2215 24.9936 26.2967 25.0688 26.3718 25.1139C26.4394 25.174 26.4018 25.328 26.2591 25.576C26.1689 25.6812 26.1238 25.8277 26.1238 26.0155C26.1238 26.1583 26.1577 26.3086 26.2253 26.4664C26.2328 26.504 26.2553 26.534 26.2929 26.5566C26.3154 26.5866 26.3605 26.6467 26.4281 26.7369C26.4807 26.8346 26.4958 26.9022 26.4732 26.9398C26.4432 26.9773 26.3906 27.0938 26.3154 27.2892C26.2403 27.477 26.229 27.6273 26.2816 27.74C26.3117 27.8602 26.3868 27.9842 26.507 28.1119C26.6122 28.2547 26.616 28.4087 26.5183 28.5741C26.4206 28.7469 26.4732 28.9948 26.6761 29.3179C26.7136 29.3705 26.7625 29.4269 26.8226 29.487C26.9128 29.5171 26.9954 29.5358 27.0705 29.5434C27.341 29.5509 27.4875 29.378 27.5101 29.0249C27.6153 28.7844 27.7956 28.6304 28.051 28.5628C28.4718 28.4501 28.9301 28.3937 29.426 28.3937C29.7491 28.3937 29.9707 28.4538 30.091 28.5741C30.1135 28.5515 30.1323 28.529 30.1473 28.5064C30.1548 28.4839 30.1698 28.3824 30.1924 28.2021C30.2149 28.0218 30.121 27.879 29.9106 27.7738C29.7078 27.6686 29.4223 27.616 29.0541 27.616C28.6934 27.616 28.3816 27.6423 28.1187 27.6949C27.9909 27.725 27.8745 27.7738 27.7693 27.8414C27.7392 27.864 27.7129 27.8865 27.6904 27.9091C27.6829 27.8715 27.6791 27.849 27.6791 27.8414C27.6791 27.7888 27.6979 27.7325 27.7355 27.6724C27.7655 27.6198 27.8069 27.586 27.8595 27.5709C27.8444 27.323 28.0398 27.1614 28.4455 27.0863C28.8437 27.0111 29.1818 26.9999 29.4598 27.0525C29.7453 27.1051 29.9632 27.1689 30.1135 27.2441C30.1285 27.2516 30.1473 27.2666 30.1698 27.2892C30.2224 27.2516 30.2525 27.214 30.26 27.1765C30.2675 27.1539 30.2901 27.06 30.3276 26.8947C30.3577 26.7294 30.245 26.5753 29.9895 26.4326C29.719 26.2898 29.3772 26.2147 28.9639 26.2072C28.5507 26.1921 28.1976 26.2184 27.9045 26.286C27.7392 26.3161 27.6002 26.3574 27.4875 26.41V26.3988C27.5552 26.256 27.6265 26.1583 27.7017 26.1057C27.6791 26.1132 27.6603 26.1245 27.6453 26.1395C27.6303 25.9892 27.7355 25.8615 27.9609 25.7563C28.1788 25.6511 28.4831 25.5985 28.8738 25.5985C29.257 25.5985 29.6214 25.6737 29.967 25.8239C29.9895 25.8315 30.0083 25.8427 30.0233 25.8578C30.0308 25.8578 30.0496 25.8653 30.0797 25.8803C30.2224 25.8502 30.3164 25.7338 30.3614 25.5309C30.3915 25.328 30.2788 25.159 30.0233 25.0237C29.7754 24.8884 29.5087 24.7983 29.2231 24.7532C28.9376 24.7081 28.5657 24.7119 28.1074 24.7645C27.7768 24.8096 27.4913 24.9335 27.2509 25.1364C27.1908 25.0913 27.1607 25.035 27.1607 24.9673C27.1607 24.9223 27.1832 24.8697 27.2283 24.8096C27.2509 24.757 27.2922 24.7119 27.3523 24.6743H27.341C27.4763 24.5015 27.6641 24.355 27.9045 24.2347C28.1976 24.092 28.5732 24.0206 29.0316 24.0206C29.3997 24.0206 29.7791 24.1295 30.1698 24.3474C30.3276 24.4376 30.4478 24.5315 30.5305 24.6292Z" fill="#C4806B"/>
<path d="M52.4066 26.2074C52.1854 26.3068 51.9487 26.412 51.6966 26.523C51.965 26.4167 52.2806 26.2928 52.6433 26.151C52.5631 26.1523 52.4842 26.1711 52.4066 26.2074ZM45.915 29.893C45.9985 29.8545 46.0849 29.8132 46.1742 29.769C46.0869 29.8065 45.9967 29.8403 45.9037 29.8704C45.9076 29.8804 45.9113 29.8879 45.915 29.893Z" fill="#E6E679"/>
<path d="M53.2848 27.3342C53.2593 27.3844 53.233 27.4333 53.2059 27.4807C53.1926 27.494 53.1814 27.5128 53.1721 27.537C53.1789 27.5466 53.1864 27.5541 53.1947 27.5596C53.2014 27.5424 53.209 27.5236 53.2172 27.5032C53.2397 27.4431 53.2623 27.3943 53.2848 27.3567C53.2848 27.3498 53.2848 27.3423 53.2848 27.3342Z" fill="#939325"/>
<path d="M56.115 24.7642C56.1 24.7116 56.0812 24.6665 56.0587 24.6289C55.4693 24.7712 54.9659 25.0304 54.5485 25.4066C54.3535 25.5914 54.1769 25.8018 54.0187 26.0378C53.9586 26.1129 53.8985 26.2068 53.8384 26.3195C53.7633 26.4473 53.6769 26.5938 53.5792 26.7591C53.245 26.3428 52.9332 26.1399 52.6438 26.1505C52.281 26.2922 51.9655 26.4162 51.6971 26.5224C51.6811 26.5337 51.6623 26.5412 51.6407 26.545C51.4952 26.6194 51.3411 26.6946 51.1787 26.7704C51.0066 26.8508 50.77 26.956 50.4686 27.086C50.0797 27.2654 49.58 27.487 48.9697 27.751C48.8758 27.796 48.7819 27.8374 48.6879 27.8749C48.3382 28.0222 47.9475 28.1838 47.5158 28.3596C45.8146 29.0505 44.6087 29.5276 43.8981 29.791C43.4483 29.9609 43.0764 30.0887 42.7824 30.1742C42.6235 30.2257 42.4882 30.2633 42.3766 30.2869C42.0634 30.3534 41.8605 30.4023 41.768 30.4334C41.6847 30.4637 41.2227 30.4036 40.3818 30.2531C39.9581 30.1732 39.5336 30.0868 39.1083 29.9939C38.9224 29.956 38.7496 29.9184 38.5898 29.8812C37.7905 29.7208 37.2909 29.6156 37.0909 29.5656C36.2419 29.3552 35.3741 29.1147 34.4875 28.8442C34.3823 28.8142 33.7775 28.6263 32.673 28.2807C32.6805 28.2882 32.6918 28.2957 32.7068 28.3032C32.8564 28.4173 32.9992 28.6239 33.1351 28.9231C33.1427 28.9437 33.1503 28.9625 33.1576 28.9795C33.1651 28.987 33.1726 28.9945 33.1801 29.002C33.187 29.0184 33.1945 29.0334 33.2027 29.0471C33.6855 29.2567 34.3429 29.4784 35.175 29.7121C35.7246 29.8752 36.3482 30.0406 37.0458 30.208C38.479 30.5604 39.591 30.8121 40.3818 30.9632C41.0722 31.1028 41.5192 31.1667 41.723 31.1548C42.1609 31.1284 42.9837 30.9067 44.1911 30.4898C44.8108 30.278 45.3593 30.0826 45.8366 29.9037C45.8589 29.8936 45.8815 29.8823 45.9042 29.8699C45.9971 29.8398 46.0873 29.806 46.1747 29.7685C46.4923 29.6492 46.7741 29.5365 47.0199 29.4303C47.6914 29.1397 48.7959 28.6363 50.3334 27.92C51.2276 27.5071 51.8775 27.2365 52.2831 27.1085C52.5996 26.9872 52.8964 27.13 53.1735 27.5368C53.1827 27.5125 53.194 27.4938 53.2073 27.4805C53.2344 27.433 53.2607 27.3842 53.2862 27.3339C53.2862 27.342 53.2862 27.3496 53.2862 27.3565C53.2636 27.394 53.2411 27.4429 53.2186 27.503C53.2103 27.5234 53.2028 27.5422 53.196 27.5594C53.0722 27.8728 52.9294 28.2861 52.7678 28.7992C52.5544 29.4319 52.3177 29.9541 52.0577 30.3658C52.0557 30.3796 52.052 30.3908 52.0465 30.3996C51.9638 30.5274 51.8849 30.6476 51.8098 30.7603C51.9601 30.6175 52.0465 30.5236 52.069 30.4785C52.0868 30.45 52.1207 30.3974 52.1704 30.3207C52.2297 30.2408 52.3086 30.1319 52.4071 29.9939C52.5499 29.776 52.6551 29.5956 52.7227 29.4529C52.7978 29.2876 53.0007 28.8142 53.3313 28.0327C53.5567 27.4917 53.7332 27.1085 53.861 26.8831C54.4307 25.8486 55.2046 25.2024 56.1826 24.9445C56.1841 24.9413 56.1841 24.9376 56.1826 24.9332C56.1751 24.9107 56.1676 24.8919 56.1601 24.8769C56.1526 24.8694 56.1488 24.8618 56.1488 24.8543C56.1457 24.842 56.142 24.8307 56.1376 24.8205C56.1317 24.8013 56.1242 24.7825 56.115 24.7642ZM59.8793 25.4179C59.8642 25.4254 59.8492 25.4367 59.8342 25.4517C59.8158 25.4741 59.7971 25.4967 59.7778 25.5193C59.9471 25.6819 60.0936 25.8697 60.2174 26.0829C60.3858 26.3483 60.5361 26.7053 60.6682 27.1536C60.7381 27.3717 60.802 27.6084 60.8598 27.8637C61.1002 28.9006 61.2843 29.5881 61.412 29.9263C61.627 30.5247 61.9162 31.0657 62.2798 31.5493C62.3918 31.6944 62.5082 31.8334 62.6292 31.9663L62.6517 31.9776C62.6668 31.9776 62.6818 31.9813 62.6968 31.9888C62.6129 31.8924 62.5228 31.7722 62.4263 31.6282C62.3515 31.5197 62.2727 31.3957 62.1897 31.2562C61.9567 30.873 61.7727 30.3884 61.6374 29.8023C61.5247 29.3439 61.4045 28.7691 61.2768 28.0778C61.2392 27.8599 61.1979 27.6307 61.1528 27.3903C61.1453 27.3903 61.1453 27.3865 61.1528 27.379L61.1415 27.3677C61.1402 27.3622 61.1364 27.3547 61.1303 27.3452C61.1327 27.3415 61.1327 27.334 61.1303 27.3227C61.0222 26.8902 60.8682 26.4957 60.6682 26.1392C60.4882 25.797 60.2666 25.489 60.0032 25.215C59.9675 25.2613 59.9375 25.3063 59.9131 25.3502C59.8905 25.3653 59.8793 25.3841 59.8793 25.4066V25.4179ZM72.254 31.0534C72.0045 30.9693 71.5537 30.804 70.9015 30.5574C70.2566 30.3187 68.6788 29.6312 66.168 28.4948C63.6581 27.3654 62.3282 26.8131 62.1784 26.838C62.0349 26.8631 61.8546 26.9344 61.6374 27.0522C61.4285 27.1788 61.2669 27.2727 61.1528 27.3339L61.2091 27.3565C61.2072 27.3612 61.2035 27.365 61.1979 27.3677C61.1828 27.3753 61.1678 27.3828 61.1528 27.3903C61.1979 27.503 61.243 27.6232 61.288 27.751C61.3106 27.8411 61.3331 27.9351 61.3557 28.0327C61.5134 27.9501 61.7013 27.8411 61.9192 27.7059C61.9535 27.6873 61.9873 27.6685 62.0206 27.6495L63.4745 28.1905C63.5364 28.2194 63.5965 28.2457 63.6548 28.2694C65.0354 28.9136 66.3202 29.4884 67.5092 29.9939C67.5272 30.0043 67.546 30.0118 67.5655 30.0164C67.7983 30.1178 68.0274 30.2155 68.253 30.3095C68.5885 30.45 68.9003 30.5815 69.1885 30.704C70.0445 31.0543 70.7207 31.3248 71.2171 31.5155C72.0257 31.8213 72.3788 31.919 72.2765 31.8085C73.0879 31.6432 73.9783 31.4253 74.9475 31.1548C75.4174 31.0236 76.1274 30.787 77.0776 30.4447C77.6599 30.2367 78.3323 29.9888 79.095 29.7008C79.6549 29.489 80.2635 29.2561 80.9207 29.002C80.9283 28.9344 80.9358 28.8668 80.9433 28.7992C80.9508 28.7992 80.9583 28.7954 80.9658 28.7879C80.9692 28.7626 80.973 28.7363 80.9771 28.709C81.0242 28.4134 81.1068 28.203 81.225 28.0778C81.2321 28.0708 81.2358 28.0633 81.2363 28.0553C80.3544 28.4395 79.667 28.7213 79.1739 28.9006C76.5066 29.7722 74.1999 30.4898 72.254 31.0534Z" fill="#8AB2DB"/>
<path d="M58.4816 17.8665C58.3915 17.5735 58.2638 17.4232 58.0985 17.4157C57.9332 17.4082 57.7904 17.5134 57.6702 17.7313C57.5575 17.9492 57.4936 18.2385 57.4786 18.5991C57.4711 18.9523 57.5049 19.2942 57.58 19.6248C57.6627 19.9554 57.7866 20.1245 57.9519 20.132C58.1172 20.1395 58.2487 20.0306 58.3464 19.8051C58.4441 19.5872 58.5079 19.2829 58.538 18.8922C58.5831 18.4939 58.5643 18.1521 58.4816 17.8665ZM60.2285 18.3061C60.0783 18.539 59.958 18.8358 59.8679 19.1965C59.7852 19.5497 59.7589 19.8389 59.789 20.0644C59.804 20.2898 59.8904 20.4213 60.0482 20.4589C60.206 20.5039 60.3675 20.395 60.5328 20.132C60.7056 19.869 60.8409 19.576 60.9386 19.2529C61.0362 18.9373 61.0588 18.663 61.0062 18.4301C60.9836 18.1971 60.8935 18.0619 60.7357 18.0243C60.5779 17.9868 60.4088 18.0807 60.2285 18.3061ZM64.6915 14.2598C64.669 14.1321 64.6239 14.0081 64.5563 13.8879C64.4511 13.7075 64.3309 13.5347 64.1956 13.3694C64.143 13.2943 64.0829 13.2229 64.0153 13.1553C63.9853 13.1252 63.9515 13.0952 63.9139 13.0651C63.7711 12.9374 63.6209 12.8247 63.4631 12.727C63.2752 12.6218 63.0761 12.5241 62.8658 12.4339C62.708 12.3738 62.5427 12.3175 62.3699 12.2649C62.1294 12.2048 61.8852 12.1484 61.6373 12.0958C61.3743 12.0507 61.1114 12.0207 60.8484 12.0056C60.623 11.9981 60.3976 11.9981 60.1722 12.0056C60.0444 12.0131 59.913 12.0207 59.7777 12.0282C58.553 12.1709 57.6138 12.4189 56.9602 12.7721C56.3591 13.0876 56.051 13.561 56.036 14.1922C56.2238 14.1396 56.4417 14.1133 56.6897 14.1133C56.8475 14.1133 56.9977 14.1208 57.1405 14.1358C57.4861 14.1734 57.8092 14.2598 58.1097 14.3951C58.3426 14.4928 58.5643 14.6205 58.7747 14.7783C58.8273 14.8234 58.8836 14.8647 58.9437 14.9023C59.4396 15.2629 59.8754 15.4433 60.2511 15.4433C60.3638 15.4433 60.5516 15.4057 60.8146 15.3306C61.07 15.2554 61.3105 15.2179 61.5359 15.2179C61.8514 15.2179 62.2234 15.278 62.6516 15.3982C62.8094 15.4358 62.9747 15.4846 63.1475 15.5447C63.403 15.6349 63.6359 15.7326 63.8463 15.8378C64.3722 15.4019 64.6502 15.1014 64.6803 14.9361C64.7028 14.8309 64.7141 14.7257 64.7141 14.6205C64.7216 14.5003 64.7141 14.38 64.6915 14.2598Z" fill="black"/>
<path d="M56.689 14.1131C56.441 14.1131 56.2231 14.1394 56.0353 14.192C56.0353 14.2522 56.0353 14.3123 56.0353 14.3724C56.0353 14.455 56.0315 14.5377 56.024 14.6203C56.024 14.688 56.0165 14.7556 56.0015 14.8232C56.0015 14.8533 55.9489 15.4732 55.8437 16.6829L55.7535 18.6553C55.8583 18.1056 55.9522 17.6247 56.0353 17.2127C56.1289 16.7969 56.2115 16.4512 56.2832 16.1757C56.5011 15.2139 56.7866 14.5339 57.1398 14.1357C56.997 14.1207 56.8468 14.1131 56.689 14.1131ZM62.6509 15.398C62.7486 15.6836 62.7974 15.9466 62.7974 16.187C62.7974 16.4651 62.7674 16.807 62.7073 17.2127C62.6569 17.607 62.578 18.0616 62.4706 18.5764C62.3579 19.1325 62.279 19.5457 62.2339 19.8163C62.4975 18.7361 62.7568 17.8682 63.0116 17.2127C63.2904 16.523 63.5647 16.0685 63.8343 15.8489L63.8456 15.8376C63.6352 15.7324 63.4023 15.6347 63.1468 15.5446C62.974 15.4844 62.8087 15.4356 62.6509 15.398Z" fill="#8D6559"/>
<path d="M85.4947 28.698C85.5172 28.698 85.5398 28.698 85.5623 28.698C85.3519 28.683 85.1491 28.6304 84.9537 28.5402C84.9688 28.5477 84.98 28.5552 84.9875 28.5627C85.0251 28.5702 85.0476 28.5853 85.0552 28.6078H85.0439C85.1791 28.683 85.3294 28.713 85.4947 28.698ZM86.1371 19.0839C85.9493 18.5128 85.6487 18.1897 85.2355 18.1145C85.3407 18.2423 85.4346 18.3926 85.5172 18.5654C85.8103 19.159 85.9192 19.7864 85.8441 20.4476C85.799 20.7858 85.7088 21.169 85.5736 21.5973C85.4459 22.0256 85.3595 22.39 85.3144 22.6906V22.7018L85.3031 22.8033C85.3181 22.7882 85.3407 22.777 85.3707 22.7695C85.5586 22.6567 85.7502 22.5591 85.9455 22.4764C85.953 22.4539 85.9643 22.4238 85.9793 22.3862C85.9943 22.2886 86.0244 22.1571 86.0695 21.9918C86.1897 21.5184 86.2536 21.2028 86.2611 21.045C86.2986 20.7595 86.3174 20.4852 86.3174 20.2222C86.2949 19.8089 86.2348 19.4295 86.1371 19.0839ZM29.4592 21.5635C29.4592 21.7213 29.4893 22.0368 29.5494 22.5102C29.5719 22.7206 29.5907 22.8897 29.6057 23.0174C29.8011 23.1151 29.9852 23.2353 30.158 23.3781C30.173 23.3856 30.188 23.4006 30.2031 23.4232V23.2992C30.2031 22.9836 30.1617 22.6117 30.0791 22.1834C29.9814 21.7476 29.9326 21.3531 29.9326 20.9999C29.9326 20.5115 30.0378 20.0456 30.2481 19.6023C30.3158 19.4595 30.3947 19.3168 30.4848 19.174C30.575 19.0087 30.6802 18.8697 30.8004 18.757C30.3947 18.787 30.0716 19.0688 29.8311 19.6023C29.8236 19.6098 29.8161 19.6211 29.8086 19.6361C29.5757 20.1696 29.4592 20.8121 29.4592 21.5635Z" fill="#CD8C7C"/>
<path d="M85.6872 28.168C85.6046 28.1605 85.5107 28.1642 85.4055 28.1792C85.3078 28.1868 85.2289 28.2093 85.1688 28.2469H85.1801C85.2176 28.2469 85.2552 28.2506 85.2928 28.2581C85.3003 28.2581 85.3116 28.2581 85.3266 28.2581C85.4318 28.2657 85.5182 28.2769 85.5858 28.292C85.6234 28.307 85.6459 28.3145 85.6534 28.3145C85.676 28.337 85.6872 28.3596 85.6872 28.3821C85.6722 28.5174 85.5445 28.5737 85.3041 28.5512C85.1763 28.5362 85.0148 28.4798 84.8194 28.3821C84.8044 28.3746 84.7781 28.3633 84.7405 28.3483C84.7706 28.3859 84.8082 28.4234 84.8532 28.461L84.8645 28.4723C84.872 28.4723 84.8795 28.4798 84.8871 28.4948C84.8946 28.5023 84.9058 28.5099 84.9209 28.5174L84.9321 28.5286C84.9396 28.5286 84.9472 28.5324 84.9547 28.5399C85.15 28.6301 85.3529 28.6827 85.5633 28.6977C85.5783 28.6977 85.5933 28.6977 85.6083 28.6977C85.7962 28.6977 85.9314 28.6827 86.0141 28.6526C86.0441 28.6451 86.0667 28.6376 86.0817 28.6301C86.1794 28.5925 86.2357 28.5662 86.2507 28.5512C86.2583 28.5437 86.2658 28.5324 86.2733 28.5174C86.2733 28.5099 86.277 28.5023 86.2846 28.4948C86.3747 28.5249 86.5325 28.5737 86.7579 28.6414C86.7279 28.5437 86.6527 28.4573 86.5325 28.3821C86.3522 28.2694 86.0704 28.198 85.6872 28.168ZM29.3024 28.8442C29.3775 28.8367 29.4677 28.833 29.5729 28.833C29.6254 28.833 29.6818 28.8367 29.7419 28.8442C29.6818 28.7991 29.6029 28.7691 29.5052 28.7541C29.4 28.7165 29.3024 28.6977 29.2122 28.6977C28.5811 28.6977 28.2129 28.8142 28.1077 29.0471C28.3406 29.0095 28.5022 28.9795 28.5923 28.9569C28.5999 28.987 28.6074 29.0095 28.6149 29.0246C28.6374 29.0396 28.6938 29.0734 28.7839 29.126C28.8591 29.1711 29.0281 29.2049 29.2911 29.2274C29.509 29.25 29.7194 29.2237 29.9222 29.1485C29.9297 29.141 29.9373 29.1373 29.9448 29.1373C29.9523 29.1298 29.9598 29.126 29.9673 29.126C29.9823 29.1185 29.9974 29.111 30.0124 29.1035C30.065 29.0659 30.1063 29.0321 30.1364 29.002C30.1063 29.0095 30.08 29.0171 30.0575 29.0246C29.8621 29.0922 29.6968 29.126 29.5616 29.126C29.3136 29.126 29.1897 29.0584 29.1897 28.9231C29.1897 28.9006 29.2047 28.878 29.2347 28.8555C29.2498 28.8555 29.2723 28.8517 29.3024 28.8442Z" fill="#71483C"/>
<path d="M84.7854 27.0978C84.7779 27.1053 84.7666 27.1166 84.7516 27.1316C84.6164 27.2668 84.5525 27.466 84.56 27.7289C84.5826 28.0145 84.6088 28.1873 84.6389 28.2474C84.6464 28.2549 84.6539 28.2662 84.6614 28.2812C84.669 28.2887 84.6802 28.3 84.6953 28.315C84.7253 28.3526 84.7779 28.4014 84.853 28.4616C84.808 28.424 84.7704 28.3864 84.7403 28.3489C84.7403 28.3413 84.7366 28.3263 84.7291 28.3038C84.714 28.2812 84.7103 28.2437 84.7178 28.1911C84.7253 28.0859 84.7629 28.007 84.8305 27.9544C84.8155 27.9243 84.8042 27.8943 84.7967 27.8642C84.7892 27.8492 84.7854 27.7515 84.7854 27.5712C84.7929 27.3758 84.9019 27.2405 85.1123 27.1654C85.3226 27.0827 85.6119 27.064 85.9801 27.109C86.3407 27.1466 86.645 27.2105 86.8929 27.3007C87.0207 27.3457 87.1296 27.4096 87.2198 27.4923C87.2574 27.5073 87.2874 27.5298 87.3099 27.5599C87.3175 27.5223 87.3212 27.4998 87.3212 27.4923C87.3212 27.4397 87.3099 27.3795 87.2874 27.3119C87.2649 27.2593 87.231 27.218 87.186 27.1879C87.1634 27.1804 87.1409 27.1767 87.1183 27.1767C86.7427 26.9813 86.4534 26.8911 86.2505 26.9062C86.1679 26.8987 86.089 26.8911 86.0139 26.8836C85.4879 26.831 85.116 26.8724 84.8981 27.0076C84.8831 27.0151 84.8605 27.0301 84.8305 27.0527C84.8155 27.0602 84.8004 27.0752 84.7854 27.0978ZM86.1942 25.4973C86.074 25.4823 85.965 25.4823 85.8674 25.4973C85.4241 25.5048 85.0784 25.5912 84.8305 25.7565C84.823 25.764 84.8155 25.7753 84.808 25.7903C84.7929 25.8054 84.7741 25.8204 84.7516 25.8354C84.7366 25.8354 84.7291 25.8392 84.7291 25.8467L84.7065 25.858C84.6164 25.9632 84.5638 26.0871 84.5487 26.2299C84.5112 26.5605 84.5487 26.7935 84.6614 26.9287C84.699 26.801 84.7817 26.7108 84.9094 26.6582C84.8568 26.6056 84.8267 26.568 84.8192 26.5455C84.8117 26.5154 84.808 26.414 84.808 26.2412C84.7929 26.0909 84.9169 25.9557 85.1799 25.8354C85.4654 25.7302 85.8148 25.6927 86.228 25.7227C86.6412 25.7603 86.9944 25.8242 87.2874 25.9143C87.4452 25.9594 87.5729 26.0195 87.6706 26.0947V26.0721C87.6255 25.9294 87.5654 25.8279 87.4903 25.7678C87.4827 25.7603 87.4752 25.749 87.4677 25.734C87.4527 25.7265 87.4414 25.719 87.4339 25.7114C87.1935 25.5912 86.7802 25.5198 86.1942 25.4973ZM87.9974 24.3927C87.9599 24.3777 87.9223 24.3627 87.8847 24.3477C87.8547 24.3401 87.8321 24.3326 87.8171 24.3251C87.7194 24.2876 87.6255 24.2575 87.5353 24.235C87.2423 24.1448 86.9906 24.0884 86.7802 24.0659C86.2318 24.0058 85.7396 24.0546 85.3038 24.2124C85.0784 24.2876 84.9019 24.3815 84.7741 24.4942C84.7291 24.5393 84.6877 24.5956 84.6502 24.6632C84.5976 24.791 84.5713 24.945 84.5713 25.1254C84.5713 25.2832 84.6201 25.4372 84.7178 25.5875C84.7253 25.595 84.7328 25.6063 84.7403 25.6213C84.8155 25.4635 84.9545 25.347 85.1573 25.2719C85.0146 25.2268 84.9357 25.0953 84.9207 24.8774C84.9131 24.682 85.0409 24.5318 85.3038 24.4266C85.5818 24.3214 85.8561 24.265 86.1266 24.2575C86.4271 24.2425 86.7953 24.2876 87.231 24.3927C87.5692 24.4679 87.8434 24.6182 88.0538 24.8436C88.1139 24.7985 88.1477 24.7459 88.1552 24.6858C88.1627 24.6482 88.1515 24.5919 88.1214 24.5167C88.0913 24.4641 88.05 24.4228 87.9974 24.3927ZM87.5353 22.3865C87.4226 22.364 87.3137 22.3489 87.2085 22.3414C86.7652 22.2888 86.3445 22.3339 85.9462 22.4767C85.7509 22.5593 85.5593 22.657 85.3715 22.7697C85.3414 22.7772 85.3189 22.7885 85.3038 22.8035C84.8305 23.1191 84.575 23.446 84.5375 23.7841C84.5074 23.987 84.5187 24.1298 84.5713 24.2124C84.5713 24.25 84.5826 24.2913 84.6051 24.3364L84.6164 24.3477C84.6239 24.3627 84.6389 24.3777 84.6614 24.3927C84.6389 24.2425 84.6953 24.1035 84.8305 23.9757C84.7779 23.863 84.7854 23.7353 84.853 23.5925C84.9207 23.4497 85.1836 23.2619 85.642 23.029C86.0928 22.8035 86.4947 22.6946 86.8479 22.7021C87.186 22.7021 87.4827 22.7509 87.7382 22.8486C88.0087 22.9313 88.2604 23.0778 88.4933 23.2882C88.7638 23.4911 88.9629 23.724 89.0906 23.987C89.1432 24.0997 89.177 24.1936 89.1921 24.2688C89.2071 24.3514 89.2108 24.4228 89.2033 24.4829C89.1958 24.5806 89.1921 24.652 89.1921 24.6971C89.1921 24.7046 89.1883 24.7196 89.1808 24.7421C89.1883 24.7421 89.1921 24.7384 89.1921 24.7309C89.2973 24.6257 89.3574 24.4604 89.3724 24.235C89.4175 23.9043 89.2071 23.5249 88.7413 23.0966C88.3581 22.7359 87.9561 22.4992 87.5353 22.3865ZM29.9108 27.774C30.1211 27.8792 30.2151 28.022 30.1925 28.2023C30.17 28.3827 30.155 28.4841 30.1474 28.5066C30.1324 28.5292 30.1136 28.5517 30.0911 28.5743C30.1512 28.6419 30.1812 28.7283 30.1812 28.8335C30.1812 28.8936 30.1737 28.9312 30.1587 28.9462C30.1512 28.9612 30.1437 28.98 30.1362 29.0026C30.1061 29.0326 30.0648 29.0664 30.0122 29.104C30.0948 29.0514 30.1587 29.0026 30.2038 28.9575C30.2263 28.9349 30.2414 28.9199 30.2489 28.9124C30.294 28.8373 30.3428 28.6569 30.3954 28.3714C30.4329 28.1234 30.3879 27.9206 30.2601 27.7628C30.2451 27.7402 30.2226 27.7139 30.1925 27.6839C30.17 27.6688 30.1512 27.6538 30.1362 27.6388C29.9108 27.4584 29.4712 27.372 28.8176 27.3795C28.5997 27.342 28.2991 27.4021 27.9159 27.5599C27.8859 27.5599 27.8671 27.5636 27.8596 27.5712C27.807 27.5862 27.7657 27.62 27.7356 27.6726C27.698 27.7327 27.6793 27.7891 27.6793 27.8417C27.6793 27.8492 27.683 27.8717 27.6905 27.9093C27.7131 27.8867 27.7394 27.8642 27.7694 27.8417C27.8746 27.774 27.9911 27.7252 28.1188 27.6951C28.3818 27.6425 28.6936 27.6162 29.0542 27.6162C29.4224 27.6162 29.7079 27.6688 29.9108 27.774ZM29.9897 26.4328C30.2451 26.5756 30.3578 26.7296 30.3278 26.8949C30.2902 27.0602 30.2677 27.1541 30.2601 27.1767C30.2526 27.2142 30.2226 27.2518 30.17 27.2894C30.2902 27.357 30.3578 27.4584 30.3728 27.5937C30.5081 27.466 30.5757 27.2368 30.5757 26.9062C30.5757 26.7559 30.5344 26.6282 30.4517 26.523L30.4405 26.5117C30.4329 26.4967 30.4254 26.4854 30.4179 26.4779C30.3879 26.4478 30.3616 26.4215 30.339 26.399C30.061 26.166 29.6177 26.0308 29.0091 25.9932C28.4306 25.9557 28.0211 25.982 27.7807 26.0721C27.7506 26.0796 27.7243 26.0909 27.7018 26.1059C27.6267 26.1585 27.5553 26.2562 27.4877 26.399V26.4102C27.6004 26.3576 27.7394 26.3163 27.9047 26.2863C28.1977 26.2186 28.5508 26.1923 28.9641 26.2074C29.3773 26.2149 29.7192 26.29 29.9897 26.4328ZM30.6546 25.3395C30.6245 25.2644 30.587 25.2043 30.5419 25.1592C30.4292 25.0314 30.2677 24.915 30.0573 24.8098C29.6365 24.5994 29.1519 24.4942 28.6034 24.4942C28.393 24.4942 28.1413 24.5242 27.8483 24.5844C27.7281 24.5994 27.6004 24.6219 27.4651 24.652C27.4276 24.6595 27.39 24.667 27.3524 24.6745C27.2923 24.7121 27.251 24.7572 27.2285 24.8098C27.1834 24.8699 27.1608 24.9225 27.1608 24.9676C27.1608 25.0352 27.1909 25.0915 27.251 25.1366C27.4914 24.9338 27.7769 24.8098 28.1075 24.7647C28.5659 24.7121 28.9378 24.7083 29.2233 24.7534C29.5088 24.7985 29.7755 24.8887 30.0235 25.0239C30.2789 25.1592 30.3916 25.3282 30.3616 25.5311C30.3165 25.734 30.2226 25.8505 30.0798 25.8805C30.2752 25.9857 30.3991 26.121 30.4517 26.2863C30.4592 26.2712 30.4705 26.26 30.4855 26.2525C30.5832 26.1172 30.6471 25.9707 30.6771 25.8129C30.6997 25.625 30.6922 25.4672 30.6546 25.3395ZM30.2038 23.4234C30.1888 23.4009 30.1737 23.3859 30.1587 23.3784C29.9859 23.2356 29.8018 23.1154 29.6065 23.0177C29.2308 22.8298 28.8213 22.7359 28.378 22.7359C27.9422 22.7359 27.5065 22.8637 27.0707 23.1191C26.9655 23.1717 26.864 23.2356 26.7664 23.3107C26.2555 23.6939 26 24.0509 26 24.3815C26 24.6069 26.0451 24.7722 26.1352 24.8774C26.1352 24.8849 26.139 24.8887 26.1465 24.8887L26.1352 24.8549C26.1428 24.8098 26.1465 24.7346 26.1465 24.6294C26.1465 24.4942 26.2029 24.3364 26.3156 24.1561C26.4658 23.9156 26.6912 23.709 26.9918 23.5362C27.0143 23.5211 27.0406 23.5061 27.0707 23.4911C27.3036 23.3408 27.5403 23.2356 27.7807 23.1755C28.0512 23.1079 28.3555 23.0928 28.6936 23.1304C29.0392 23.1605 29.4261 23.3182 29.8544 23.6038C30.2827 23.8818 30.5231 24.0997 30.5757 24.2575C30.6133 24.4078 30.5982 24.5318 30.5306 24.6294C30.6584 24.7722 30.7034 24.9225 30.6659 25.0803C30.6884 25.0652 30.7072 25.0427 30.7222 25.0126L30.7335 25.0014C30.7485 24.9638 30.7635 24.9262 30.7786 24.8887C30.8312 24.821 30.8575 24.682 30.8575 24.4716C30.8575 24.1335 30.6396 23.7841 30.2038 23.4234Z" fill="#D79C8A"/>
<path d="M103.977 50.2985C103.977 48.5778 103.271 47.6874 101.859 47.6273L11.0208 43.6036C9.05223 43.4909 8.06796 44.4527 8.06796 46.489L8.00017 88.8339C7.98531 90.8477 8.95831 91.8245 10.9193 91.7644L101.836 89.1157C103.264 89.0481 103.985 88.1577 104 86.4445L103.977 50.2985ZM14.5258 59.2477L14.5371 56.2158L56.6989 57.264V60.1043L14.5258 59.2477ZM14.5145 68.3095L14.5258 65.2438L56.6989 65.7285L56.6764 68.58L14.5145 68.3095ZM14.5145 74.3057V71.24L75.0919 71.3752V74.1366L14.5145 74.3057ZM100.112 57.2415C100.683 57.2415 100.972 57.5908 100.98 58.2896V62.1894C100.972 62.8807 100.683 63.2263 100.112 63.2263L80.558 62.8995C79.9419 62.8694 79.6376 62.4937 79.6449 61.7724V57.7486C79.6449 57.0123 79.9531 56.6591 80.5692 56.6892L100.112 57.2415ZM98.6579 85.7682C98.7255 85.7232 98.7894 85.6856 98.8495 85.6555V85.6781C98.6391 86.0613 98.1508 86.3731 97.3844 86.6136C96.588 86.8465 95.6225 86.9404 94.4879 86.8953C93.3083 86.8277 92.5269 86.8089 92.1437 86.839C91.7305 86.8315 91.0806 86.7901 90.194 86.715C89.2924 86.6323 88.7852 86.5572 88.6725 86.4896C88.6349 86.5196 88.4283 86.5572 88.0527 86.6023C87.6319 86.6323 86.5988 86.7751 84.9533 87.0306C83.2929 87.2936 81.6512 87.38 80.0283 87.2898C78.3753 87.1696 77.4699 87.0419 77.3121 86.9066C77.1544 86.7338 77.1281 86.6098 77.2332 86.5347C77.3234 86.437 77.5976 86.2717 78.056 86.0387C78.4993 85.7833 79.3032 85.6518 80.4678 85.6443C81.6023 85.6142 83.1388 85.7232 85.0773 85.9711C86.9782 86.174 88.5786 86.2228 89.8784 86.1176C91.0355 86.0275 91.9897 85.8434 92.7411 85.5654C93.6201 85.2423 94.2137 84.7726 94.5217 84.1565C94.6495 83.8634 94.7058 83.5967 94.6908 83.3563C94.6758 83.0256 94.5631 82.8002 94.3527 82.68C94.1724 82.5598 93.8756 82.5786 93.4623 82.7364C93.0491 82.8566 92.7598 82.8491 92.5945 82.7138C92.4443 82.5861 92.3541 82.4057 92.3241 82.1728C92.3165 82.1427 92.3128 82.1202 92.3128 82.1052C92.1625 82.2179 91.9634 82.4133 91.7155 82.6913C91.46 82.9618 91.2759 83.1534 91.1632 83.2661C91.043 83.3713 90.8326 83.4652 90.5321 83.5479C90.2165 83.608 90.07 83.4352 90.0926 83.0294C90.085 82.6086 90.1038 82.3005 90.1489 82.1052C90.1865 81.8798 90.2579 81.598 90.363 81.2599L89.4614 82.263C89.2961 82.4133 89.1496 82.5185 89.0219 82.5786C88.8791 82.6312 88.7777 82.6424 88.7176 82.6124C88.6199 82.5673 88.5598 82.5335 88.5373 82.5109C88.5222 82.4809 88.5185 82.4358 88.526 82.3757C88.5185 82.1953 88.5222 82.0676 88.5373 81.9925L88.6387 81.7445C88.6763 81.6393 88.7213 81.5454 88.7739 81.4627C88.7138 81.4853 88.6349 81.5454 88.5373 81.6431C88.3569 81.8309 88.124 82.0488 87.8385 82.2968C87.5305 82.5222 87.3163 82.5898 87.1961 82.4997C87.0534 82.3794 87.0008 82.2029 87.0383 81.9699C87.0458 81.7295 87.0571 81.5529 87.0721 81.4402C87.0646 81.4026 87.1059 81.2636 87.1961 81.0232C87.2111 80.948 87.2337 80.8879 87.2637 80.8428L87.1736 80.8992C87.0383 80.9894 86.9294 81.1096 86.8467 81.2599C86.7641 81.3275 86.704 81.3989 86.6664 81.474C86.5913 81.5416 86.5086 81.6769 86.4185 81.8798C86.3058 82.0225 86.178 82.0977 86.0353 82.1052L85.8888 82.0601C85.8587 82.0451 85.8437 82.03 85.8437 82.015C85.8362 81.9925 85.8437 81.9699 85.8662 81.9474L86.2043 81.4853L86.4861 80.7977C86.5612 80.5573 86.5049 80.4296 86.317 80.4145C86.1217 80.3995 85.8963 80.5761 85.6408 80.9443C85.3703 81.2749 85.175 81.4965 85.0548 81.6093C84.912 81.6694 84.7655 81.8685 84.6152 82.2066C84.4499 82.5222 84.3485 83.1684 84.3109 84.1452C84.2959 84.4308 84.326 84.6562 84.4011 84.8215C84.4387 84.9192 84.4988 84.9905 84.5814 85.0356C84.6265 85.0582 84.7092 85.0845 84.8294 85.1145C84.8369 85.1296 84.8482 85.1559 84.8632 85.1934C84.8406 85.2235 84.8181 85.246 84.7956 85.261C84.6979 85.2986 84.5814 85.3249 84.4462 85.3399C84.1982 85.3174 84.0142 85.2423 83.8939 85.1145C83.7812 85.0018 83.7023 84.8403 83.6573 84.6299C83.6197 84.4721 83.6084 84.2917 83.6235 84.0889C83.646 83.4802 83.7362 82.9392 83.8939 82.4659C83.7437 82.5335 83.6047 82.5861 83.4769 82.6236C83.1764 82.6537 82.9923 82.5635 82.9247 82.3531C82.9022 82.263 82.9059 82.1766 82.936 82.0939C82.8308 82.0789 82.7293 82.0676 82.6317 82.0601C82.519 82.0225 82.4401 81.9662 82.395 81.891C82.38 81.8384 82.38 81.7633 82.395 81.6656C82.4551 81.3876 82.5979 81.0758 82.8233 80.7301C83.1388 80.2342 83.5108 79.7383 83.939 79.2424C83.9015 79.2649 83.8639 79.3025 83.8263 79.3551C82.504 80.4746 81.4107 81.5191 80.5467 82.4884C80.186 82.8491 79.9156 83.0294 79.7352 83.0294C79.5399 83.0144 79.4422 82.9768 79.4422 82.9167C79.4197 82.8641 79.4873 82.7852 79.6451 82.68L82.9134 79.7045C83.1163 79.5166 83.3154 79.3476 83.5108 79.1973C83.4582 79.1973 83.4093 79.2048 83.3642 79.2198C83.0938 79.2424 82.7256 79.1334 82.2598 78.893C81.9066 78.6901 81.6512 78.5285 81.4934 78.4083C81.4183 78.3332 81.3657 78.2618 81.3356 78.1942C81.283 78.119 81.2417 78.0026 81.2116 77.8448C81.159 77.6344 81.1515 77.4916 81.1891 77.4165C81.1966 77.3413 81.253 77.2549 81.3581 77.1572C81.7714 76.7365 82.4326 76.357 83.3417 76.0189C83.9578 75.7784 84.4875 75.6544 84.9308 75.6469C85.036 75.6469 85.1149 75.6695 85.1675 75.7145C85.2651 75.7671 85.299 75.94 85.2689 76.233C85.2088 76.4284 85.1525 76.5636 85.0999 76.6388C84.9947 76.774 84.882 76.8041 84.7617 76.7289C84.7242 76.7064 84.6979 76.6726 84.6829 76.6275C84.6753 76.5899 84.6904 76.5185 84.7279 76.4133C84.8031 76.233 84.8256 76.0564 84.7956 75.8836C83.6159 76.1541 82.8158 76.4547 82.395 76.7853C81.9743 77.0934 81.7676 77.3676 81.7751 77.6081C81.7376 77.8185 81.824 78.0289 82.0344 78.2392C82.2222 78.4271 82.4438 78.5999 82.6993 78.7577C82.9247 78.9005 83.0938 78.9831 83.2065 79.0057C83.3116 78.9906 83.4657 78.9343 83.6685 78.8366L84.2884 78.5323C84.7092 78.1491 85.0473 77.8786 85.3027 77.7208C85.4605 77.6006 85.6108 77.5029 85.7535 77.4277C86.1067 77.0896 86.4861 76.774 86.8918 76.481C87.2299 76.1879 87.5117 76.1015 87.7371 76.2217C87.7671 76.2368 87.7934 76.2743 87.816 76.3344C87.7859 76.357 87.7634 76.3871 87.7484 76.4246C85.8024 77.8898 84.371 79.3701 83.4544 80.8654C83.214 81.2336 83.0862 81.5454 83.0712 81.8009C83.0862 81.7858 83.0975 81.7858 83.105 81.8009C83.12 81.7708 83.1351 81.737 83.1501 81.6994C83.2628 81.489 83.3567 81.3463 83.4319 81.2711C83.522 81.1058 83.676 80.9856 83.8939 80.9105C84.0818 80.8053 84.341 80.7715 84.6716 80.809C85.0022 80.824 85.0172 81.0269 84.7167 81.4177C84.8594 81.2974 84.9496 81.2411 84.9872 81.2486C85.1149 81.1885 85.2727 80.9856 85.4605 80.64C85.6258 80.2793 85.8512 80.0651 86.1367 79.9975C86.3997 79.8923 86.5612 79.8472 86.6213 79.8623C86.6814 79.8472 86.7941 79.866 86.9594 79.9186C87.1022 79.9261 87.1322 80.0651 87.0496 80.3356C86.9669 80.5611 86.8843 80.7489 86.8017 80.8992L87.151 80.5498C87.4065 80.3394 87.6169 80.2492 87.7822 80.2793C87.9249 80.2718 88.0038 80.2793 88.0188 80.3018C88.0188 80.3244 88.0264 80.3432 88.0414 80.3582V80.3807C88.0188 80.4183 88.0001 80.4483 87.985 80.4709L87.6131 81.1584C87.5455 81.3087 87.5154 81.4364 87.5229 81.5416C87.538 81.7145 87.6094 81.8121 87.7371 81.8347C87.7972 81.8347 87.8798 81.7934 87.985 81.7107C88.4509 81.2824 88.8679 80.8053 89.236 80.2793L90.5208 78.2505C90.8439 77.7396 91.1069 77.3977 91.3097 77.2249C91.6554 76.8942 92.0085 76.7665 92.3691 76.8416C92.4292 76.8492 92.4593 76.8867 92.4593 76.9544C92.4518 76.9769 92.433 77.007 92.4029 77.0445C92.155 77.1873 91.9108 77.4165 91.6704 77.7321C91.5201 77.8823 91.3097 78.1679 91.0393 78.5886C90.5133 79.3626 90.0888 80.0163 89.7657 80.5498C89.7582 80.5573 89.7507 80.5648 89.7432 80.5723C89.5929 80.7902 89.4652 80.9856 89.36 81.1584C89.3525 81.181 89.345 81.1997 89.3374 81.2148C89.2773 81.3049 89.236 81.3989 89.2135 81.4965C89.0557 81.7821 88.9768 82.0263 88.9768 82.2292C89.345 81.8309 89.6267 81.5379 89.8221 81.35C90.1452 80.9894 90.4119 80.6738 90.6223 80.4033L90.7011 80.2793C90.7838 80.2117 90.9003 80.2079 91.0505 80.268C91.0806 80.283 91.1069 80.2943 91.1294 80.3018C91.1369 80.3319 91.1031 80.3958 91.028 80.4934C90.9679 80.5385 90.9228 80.6775 90.8927 80.9105C90.8702 81.0758 90.8214 81.335 90.7462 81.6882C90.6786 81.9662 90.6636 82.2141 90.7011 82.432C90.7312 82.5297 90.765 82.5936 90.8026 82.6236C90.8777 82.6687 90.9942 82.6312 91.152 82.5109C91.2872 82.3832 91.4863 82.2029 91.7493 81.9699C91.9822 81.7145 92.17 81.5717 92.3128 81.5416C92.4105 81.4965 92.4931 81.474 92.5607 81.474C92.5833 81.4515 92.6171 81.4515 92.6622 81.474C92.7148 81.474 92.7674 81.5003 92.8199 81.5529C92.7974 81.5754 92.7786 81.6017 92.7636 81.6318C92.7486 81.7445 92.7373 81.9098 92.7298 82.1277C92.7373 82.3456 92.8162 82.4884 92.9665 82.556C93.0416 82.5936 93.1505 82.5823 93.2933 82.5222C93.7065 82.3945 94.0522 82.3569 94.3302 82.4095C94.4879 82.4396 94.6457 82.5222 94.8035 82.6575C94.9463 82.7777 95.0439 82.9355 95.0965 83.1308C95.1566 83.3563 95.1491 83.6005 95.074 83.8634C94.9312 84.3293 94.6532 84.7351 94.24 85.0807C93.947 85.2686 93.53 85.479 92.989 85.7119C91.9747 86.0801 91.0956 86.2792 90.3518 86.3092C92.5081 86.5422 94.7584 86.5084 97.1026 86.2078C97.7338 86.1101 98.2522 85.9636 98.6579 85.7682ZM76.0611 56.9259V56.4074L76.388 56.4299V56.9259C76.7035 56.9785 76.959 57.1024 77.1544 57.2978C77.4023 57.5307 77.5526 57.8576 77.6052 58.2784L77.0078 58.3685C76.9703 58.1131 76.9064 57.914 76.8162 57.7712C76.696 57.6134 76.5721 57.5307 76.4443 57.5232C76.2715 57.4781 76.1062 57.4706 75.9484 57.5007C75.7756 57.5157 75.6404 57.5984 75.5427 57.7486C75.415 57.9215 75.3511 58.1168 75.3511 58.3347C75.3511 58.5526 75.4075 58.7442 75.5202 58.9096C75.6028 59.0598 75.8996 59.2101 76.4105 59.3604C76.8764 59.4881 77.222 59.7023 77.4474 60.0028C77.5 60.108 77.5601 60.232 77.6277 60.3748C77.6653 60.5251 77.6953 60.7129 77.7179 60.9383C77.7104 61.3741 77.5864 61.7386 77.3459 62.0316C77.083 62.3322 76.7637 62.49 76.388 62.505L76.3767 63.1587H76.0611V62.505C75.7606 62.4524 75.5314 62.3772 75.3737 62.2796C75.1858 62.1593 75.028 61.9828 74.9003 61.7498C74.7726 61.5094 74.6899 61.2276 74.6524 60.9045L75.2497 60.7918C75.2948 61.1224 75.3887 61.3816 75.5314 61.5695C75.6366 61.7198 75.9034 61.7987 76.3316 61.8062C76.7374 61.7987 76.9966 61.6033 77.1093 61.2201C77.1168 61.1299 77.1205 61.0398 77.1205 60.9496C77.1205 60.7167 77.083 60.5476 77.0078 60.4424C76.9177 60.2846 76.7749 60.1869 76.5796 60.1494C76.3692 60.0742 76.1588 59.9991 75.9484 59.9239C75.7306 59.8112 75.5314 59.6948 75.3511 59.5745C75.1483 59.4318 75.0093 59.2627 74.9341 59.0673C74.8214 58.8494 74.7651 58.624 74.7651 58.3911C74.7651 57.9027 74.9116 57.5232 75.2046 57.2527C75.4 57.0649 75.6855 56.9559 76.0611 56.9259Z" fill="url(#paint2_linear)"/>
<path d="M76.0603 56.407V56.9254C75.6847 56.9555 75.3991 57.0644 75.2038 57.2523C74.9108 57.5228 74.7643 57.9022 74.7643 58.3907C74.7643 58.6236 74.8206 58.849 74.9333 59.0669C75.0084 59.2623 75.1474 59.4313 75.3503 59.5741C75.5306 59.6943 75.7297 59.8108 75.9476 59.9235C76.158 59.9986 76.3684 60.0738 76.5788 60.1489C76.7741 60.1865 76.9169 60.2842 77.007 60.442C77.0822 60.5472 77.1197 60.7162 77.1197 60.9492C77.1197 61.0393 77.116 61.1295 77.1085 61.2197C76.9958 61.6029 76.7365 61.7982 76.3308 61.8057C75.9025 61.7982 75.6358 61.7193 75.5306 61.5691C75.3879 61.3812 75.294 61.122 75.2489 60.7914L74.6516 60.9041C74.6891 61.2272 74.7718 61.5089 74.8995 61.7494C75.0272 61.9823 75.185 62.1589 75.3728 62.2791C75.5306 62.3768 75.7598 62.4519 76.0603 62.5045V63.1583H76.3759L76.3872 62.5045C76.7628 62.4895 77.0822 62.3317 77.3451 62.0312C77.5856 61.7381 77.7095 61.3737 77.717 60.9379C77.6945 60.7125 77.6645 60.5246 77.6269 60.3743C77.5593 60.2316 77.4992 60.1076 77.4466 60.0024C77.2212 59.7018 76.8755 59.4877 76.4097 59.36C75.8988 59.2097 75.602 59.0594 75.5194 58.9091C75.4067 58.7438 75.3503 58.5522 75.3503 58.3343C75.3503 58.1164 75.4142 57.921 75.5419 57.7482C75.6396 57.5979 75.7748 57.5153 75.9476 57.5002C76.1054 57.4702 76.2707 57.4777 76.4435 57.5228C76.5712 57.5303 76.6952 57.613 76.8154 57.7708C76.9056 57.9135 76.9695 58.1126 77.007 58.3681L77.6043 58.2779C77.5517 57.8572 77.4015 57.5303 77.1535 57.2974C76.9582 57.102 76.7027 56.978 76.3872 56.9254V56.4295L76.0603 56.407Z" fill="#BCECAA"/>
<path d="M98.8493 85.6544C98.7892 85.6845 98.7254 85.7221 98.6577 85.7671C98.252 85.9625 97.7336 86.109 97.1025 86.2067C94.7583 86.5073 92.508 86.5411 90.3516 86.3081C91.0954 86.2781 91.9745 86.079 92.9888 85.7108C93.5298 85.4779 93.9468 85.2675 94.2398 85.0796C94.6531 84.734 94.9311 84.3282 95.0738 83.8624C95.149 83.5994 95.1565 83.3552 95.0964 83.1297C95.0438 82.9344 94.9461 82.7766 94.8033 82.6564C94.6455 82.5211 94.4878 82.4385 94.33 82.4084C94.052 82.3558 93.7064 82.3934 93.2931 82.5211C93.1504 82.5812 93.0414 82.5925 92.9663 82.5549C92.816 82.4873 92.7371 82.3445 92.7296 82.1266C92.7371 81.9087 92.7484 81.7434 92.7634 81.6307C92.7785 81.6006 92.7972 81.5743 92.8198 81.5518C92.7672 81.4992 92.7146 81.4729 92.662 81.4729C92.6169 81.4504 92.5831 81.4504 92.5606 81.4729C92.4929 81.4729 92.4103 81.4955 92.3126 81.5405C92.1699 81.5706 91.982 81.7134 91.7491 81.9688C91.4861 82.2018 91.287 82.3821 91.1518 82.5098C90.994 82.6301 90.8775 82.6676 90.8024 82.6225C90.7648 82.5925 90.731 82.5286 90.701 82.4309C90.6634 82.213 90.6784 81.9651 90.7461 81.6871C90.8212 81.3339 90.87 81.0747 90.8926 80.9094C90.9226 80.6764 90.9677 80.5374 91.0278 80.4923C91.103 80.3947 91.1368 80.3308 91.1292 80.3007C91.1067 80.2932 91.0804 80.2819 91.0504 80.2669C90.9001 80.2068 90.7836 80.2106 90.701 80.2782L90.6221 80.4022C90.4117 80.6727 90.145 80.9883 89.8219 81.3489C89.6266 81.5368 89.3448 81.8298 88.9766 82.2281C88.9766 82.0252 89.0555 81.781 89.2133 81.4955C89.2359 81.3978 89.2772 81.3038 89.3373 81.2137C89.3448 81.1986 89.3523 81.1799 89.3598 81.1573C89.465 80.9845 89.5927 80.7891 89.743 80.5712C89.7505 80.5637 89.758 80.5562 89.7656 80.5487C90.0886 80.0152 90.5131 79.3615 91.0391 78.5875C91.3096 78.1668 91.5199 77.8812 91.6702 77.731C91.9106 77.4154 92.1548 77.1862 92.4028 77.0434C92.4328 77.0059 92.4516 76.9758 92.4591 76.9533C92.4591 76.8856 92.4291 76.8481 92.369 76.8405C92.0083 76.7654 91.6552 76.8931 91.3096 77.2238C91.1067 77.3966 90.8437 77.7385 90.5207 78.2494L89.2359 80.2782C88.8677 80.8042 88.4507 81.2813 87.9849 81.7096C87.8797 81.7923 87.797 81.8336 87.7369 81.8336C87.6092 81.811 87.5378 81.7134 87.5228 81.5405C87.5153 81.4353 87.5453 81.3076 87.6129 81.1573L87.9849 80.4698C87.9999 80.4473 88.0187 80.4172 88.0412 80.3796V80.3571C88.0262 80.3421 88.0187 80.3233 88.0187 80.3007C88.0037 80.2782 87.9248 80.2707 87.782 80.2782C87.6167 80.2481 87.4063 80.3383 87.1509 80.5487L86.8015 80.8981C86.8841 80.7478 86.9668 80.56 87.0494 80.3345C87.1321 80.064 87.102 79.925 86.9593 79.9175C86.794 79.8649 86.6813 79.8461 86.6212 79.8612C86.5611 79.8461 86.3995 79.8912 86.1366 79.9964C85.851 80.064 85.6256 80.2782 85.4603 80.6389C85.2725 80.9845 85.1147 81.1874 84.987 81.2475C84.9494 81.24 84.8593 81.2963 84.7165 81.4166C85.017 81.0258 85.002 80.823 84.6714 80.8079C84.3408 80.7704 84.0816 80.8042 83.8938 80.9094C83.6759 80.9845 83.5219 81.1047 83.4317 81.27C83.3566 81.3452 83.2627 81.4879 83.15 81.6983C83.1349 81.7359 83.1199 81.7697 83.1049 81.7998C83.0974 81.7847 83.0861 81.7847 83.0711 81.7998C83.0861 81.5443 83.2138 81.2325 83.4542 80.8643C84.3709 79.369 85.8022 77.8887 87.7482 76.4235C87.7632 76.386 87.7858 76.3559 87.8158 76.3334C87.7933 76.2732 87.767 76.2357 87.7369 76.2206C87.5115 76.1004 87.2298 76.1868 86.8917 76.4799C86.4859 76.7729 86.1065 77.0885 85.7534 77.4266C85.6106 77.5018 85.4603 77.5995 85.3026 77.7197C85.0471 77.8775 84.709 78.148 84.2882 78.5312L83.6684 78.8355C83.4655 78.9332 83.3115 78.9895 83.2063 79.0046C83.0936 78.982 82.9245 78.8994 82.6991 78.7566C82.4437 78.5988 82.222 78.426 82.0342 78.2381C81.8238 78.0278 81.7374 77.8174 81.775 77.607C81.7675 77.3665 81.9741 77.0923 82.3948 76.7842C82.8156 76.4536 83.6158 76.153 84.7954 75.8825C84.8255 76.0553 84.8029 76.2319 84.7278 76.4123C84.6902 76.5174 84.6752 76.5888 84.6827 76.6264C84.6977 76.6715 84.724 76.7053 84.7616 76.7278C84.8818 76.803 84.9945 76.7729 85.0997 76.6377C85.1523 76.5625 85.2086 76.4273 85.2687 76.2319C85.2988 75.9389 85.265 75.766 85.1673 75.7135C85.1147 75.6684 85.0358 75.6458 84.9306 75.6458C84.4873 75.6533 83.9576 75.7773 83.3415 76.0178C82.4324 76.3559 81.7712 76.7354 81.358 77.1561C81.2528 77.2538 81.1964 77.3402 81.1889 77.4154C81.1514 77.4905 81.1589 77.6333 81.2115 77.8437C81.2415 78.0015 81.2828 78.1179 81.3354 78.1931C81.3655 78.2607 81.4181 78.3321 81.4932 78.4072C81.651 78.5274 81.9065 78.689 82.2596 78.8919C82.7254 79.1323 83.0936 79.2413 83.3641 79.2187C83.4092 79.2037 83.458 79.1962 83.5106 79.1962C83.3152 79.3465 83.1161 79.5155 82.9133 79.7034L79.6449 82.6789C79.4871 82.7841 79.4195 82.863 79.4421 82.9156C79.4421 82.9757 79.5397 83.0133 79.7351 83.0283C79.9154 83.0283 80.1859 82.848 80.5465 82.4873C81.4106 81.518 82.5038 80.4736 83.8262 79.354C83.8637 79.3014 83.9013 79.2638 83.9389 79.2413C83.5106 79.7372 83.1387 80.2331 82.8231 80.729C82.5977 81.0747 82.455 81.3865 82.3948 81.6645C82.3798 81.7622 82.3798 81.8373 82.3948 81.8899C82.4399 81.9651 82.5188 82.0214 82.6315 82.059C82.7292 82.0665 82.8306 82.0778 82.9358 82.0928C82.9058 82.1755 82.902 82.2619 82.9245 82.352C82.9922 82.5624 83.1762 82.6526 83.4768 82.6225C83.6045 82.585 83.7435 82.5324 83.8938 82.4648C83.736 82.9381 83.6458 83.4791 83.6233 84.0878C83.6083 84.2906 83.6195 84.471 83.6571 84.6288C83.7022 84.8392 83.7811 85.0007 83.8938 85.1134C84.014 85.2412 84.1981 85.3163 84.446 85.3388C84.5813 85.3238 84.6977 85.2975 84.7954 85.2599C84.8179 85.2449 84.8405 85.2224 84.863 85.1923C84.848 85.1548 84.8367 85.1285 84.8292 85.1134C84.709 85.0834 84.6263 85.0571 84.5813 85.0345C84.4986 84.9894 84.4385 84.9181 84.4009 84.8204C84.3258 84.6551 84.2958 84.4297 84.3108 84.1441C84.3483 83.1673 84.4498 82.5211 84.6151 82.2055C84.7653 81.8674 84.9119 81.6683 85.0546 81.6082C85.1748 81.4955 85.3702 81.2738 85.6407 80.9432C85.8961 80.575 86.1215 80.3984 86.3169 80.4134C86.5047 80.4285 86.5611 80.5562 86.4859 80.7967L86.2042 81.4842L85.8661 81.9463C85.8435 81.9688 85.836 81.9914 85.8435 82.0139C85.8435 82.0289 85.8586 82.044 85.8886 82.059L86.0351 82.1041C86.1779 82.0966 86.3056 82.0214 86.4183 81.8787C86.5085 81.6758 86.5911 81.5405 86.6663 81.4729C86.7038 81.3978 86.7639 81.3264 86.8466 81.2588C86.9292 81.1085 87.0382 80.9883 87.1734 80.8981L87.2636 80.8417C87.2335 80.8868 87.211 80.9469 87.1959 81.0221C87.1058 81.2625 87.0645 81.4015 87.072 81.4391C87.057 81.5518 87.0457 81.7284 87.0382 81.9688C87.0006 82.2018 87.0532 82.3783 87.1959 82.4986C87.3162 82.5887 87.5303 82.5211 87.8384 82.2957C88.1239 82.0477 88.3568 81.8298 88.5371 81.642C88.6348 81.5443 88.7137 81.4842 88.7738 81.4616C88.7212 81.5443 88.6761 81.6382 88.6385 81.7434L88.5371 81.9914C88.5221 82.0665 88.5183 82.1942 88.5258 82.3746C88.5183 82.4347 88.5221 82.4798 88.5371 82.5098C88.5596 82.5324 88.6197 82.5662 88.7174 82.6113C88.7775 82.6413 88.879 82.6301 89.0217 82.5775C89.1495 82.5174 89.296 82.4122 89.4613 82.2619L90.3629 81.2588C90.2577 81.5969 90.1863 81.8787 90.1487 82.1041C90.1037 82.2994 90.0849 82.6075 90.0924 83.0283C90.0698 83.4341 90.2164 83.6069 90.5319 83.5468C90.8325 83.4641 91.0428 83.3702 91.1631 83.265C91.2758 83.1523 91.4598 82.9607 91.7153 82.6902C91.9632 82.4122 92.1624 82.2168 92.3126 82.1041C92.3126 82.1191 92.3164 82.1417 92.3239 82.1717C92.3539 82.4046 92.4441 82.585 92.5944 82.7127C92.7597 82.848 93.0489 82.8555 93.4622 82.7353C93.8754 82.5775 94.1722 82.5587 94.3525 82.6789C94.5629 82.7991 94.6756 83.0245 94.6906 83.3552C94.7057 83.5956 94.6493 83.8624 94.5216 84.1554C94.2135 84.7715 93.62 85.2412 92.7409 85.5643C91.9895 85.8423 91.0353 86.0264 89.8783 86.1165C88.5784 86.2217 86.9781 86.1729 85.0772 85.97C83.1387 85.7221 81.6022 85.6131 80.4676 85.6432C79.3031 85.6507 78.4991 85.7822 78.0558 86.0376C77.5975 86.2706 77.3233 86.4359 77.2331 86.5336C77.1279 86.6087 77.1542 86.7327 77.312 86.9055C77.4698 87.0408 78.3751 87.1685 80.0281 87.2887C81.651 87.3789 83.2927 87.2925 84.9532 87.0295C86.5986 86.774 87.6317 86.6312 88.0525 86.6012C88.4282 86.5561 88.6348 86.5185 88.6723 86.4885C88.785 86.5561 89.2922 86.6312 90.1938 86.7139C91.0804 86.789 91.7303 86.8304 92.1436 86.8379C92.5268 86.8078 93.3082 86.8266 94.4878 86.8942C95.6223 86.9393 96.5878 86.8454 97.3842 86.6125C98.1506 86.372 98.639 86.0602 98.8493 85.677V85.6544ZM86.5874 79.9851L86.6212 80.064V80.0753C86.5986 80.0302 86.5836 80.0002 86.5761 79.9851H86.5874ZM83.8036 81.766C83.8337 81.6608 83.8788 81.5819 83.9389 81.5293C84.1042 81.2362 84.2882 81.1385 84.4911 81.2362C83.9426 81.9425 83.6684 82.198 83.6684 82.0026L83.8036 81.766ZM80.9185 86.1165C81.3993 86.109 81.7712 86.109 82.0342 86.1165C82.2972 86.109 82.8419 86.1541 83.6684 86.2518C84.4873 86.3119 85.1711 86.357 85.7196 86.387C86.2455 86.3795 87.0194 86.3795 88.0412 86.387C84.5249 86.8153 82.1507 87.0032 80.9185 86.9506C79.6712 86.8755 78.8861 86.8116 78.563 86.759C78.2474 86.6538 78.1685 86.5599 78.3263 86.4772C78.4691 86.372 78.6456 86.3081 78.856 86.2856C79.0213 86.2631 79.2843 86.233 79.6449 86.1954C79.983 86.1428 80.4075 86.1165 80.9185 86.1165Z" fill="#202020"/>
<path d="M82.0345 86.1165C81.7716 86.109 81.3996 86.109 80.9188 86.1165C80.4079 86.1165 79.9834 86.1428 79.6452 86.1954C79.2846 86.233 79.0216 86.263 78.8563 86.2856C78.646 86.3081 78.4694 86.372 78.3266 86.4772C78.1689 86.5598 78.2477 86.6538 78.5633 86.759C78.8864 86.8116 79.6715 86.8754 80.9188 86.9506C82.151 87.0032 84.5253 86.8153 88.0416 86.387C87.0197 86.3795 86.2458 86.3795 85.7199 86.387C85.1714 86.357 84.4877 86.3119 83.6687 86.2518C82.8422 86.1541 82.2975 86.109 82.0345 86.1165ZM83.9392 81.5292C83.8791 81.5818 83.834 81.6607 83.804 81.7659L83.6687 82.0026C83.6687 82.198 83.943 81.9425 84.4914 81.2362C84.2886 81.1385 84.1045 81.2362 83.9392 81.5292ZM86.6215 80.064L86.5877 79.9851H86.5764C86.5839 80.0001 86.599 80.0302 86.6215 80.0753V80.064Z" fill="url(#paint3_linear)"/>
<path d="M100.98 58.2895C100.972 57.5907 100.683 57.2413 100.112 57.2413L80.5693 56.689C79.9532 56.659 79.645 57.0121 79.645 57.7485V61.7722C79.6377 62.4936 79.9419 62.8693 80.5581 62.8993L100.112 63.2262C100.683 63.2262 100.972 62.8806 100.98 62.1893V58.2895Z" fill="white"/>
<path d="M14.5143 71.2388V74.3045L75.0917 74.1355V71.3741L14.5143 71.2388ZM14.5256 65.2427L14.5143 68.3084L56.6762 68.5789L56.6987 65.7273L14.5256 65.2427ZM14.5369 56.2147L14.5256 59.2465L56.6987 60.1031V57.2629L14.5369 56.2147Z" fill="#CEF8BE"/>
<defs>
<linearGradient id="paint0_linear" x1="66.6172" y1="36.1628" x2="66.1869" y2="42.7929" gradientUnits="userSpaceOnUse">
<stop stop-color="#749EC9"/>
<stop offset="1" stop-color="#4F7496"/>
</linearGradient>
<linearGradient id="paint1_linear" x1="57.6443" y1="25.6777" x2="57.6386" y2="28.4954" gradientUnits="userSpaceOnUse">
<stop offset="0.0901961" stop-color="#804F48"/>
<stop offset="1" stop-color="#C4806B"/>
</linearGradient>
<linearGradient id="paint2_linear" x1="55.9945" y1="63.5614" x2="55.9916" y2="71.5323" gradientUnits="userSpaceOnUse">
<stop stop-color="#DEFED2"/>
<stop offset="1" stop-color="#E9FEE3"/>
</linearGradient>
<linearGradient id="paint3_linear" x1="55.9947" y1="67.1695" x2="55.989" y2="83.2214" gradientUnits="userSpaceOnUse">
<stop stop-color="#ECECEC"/>
<stop offset="1" stop-color="#ECECEC"/>
</linearGradient>
</defs>
</svg>
