<svg width="151" height="23" viewBox="0 0 151 23" fill="none" xmlns="http://www.w3.org/2000/svg">
    <rect x=".87" y="1.091" width="30.557" height="20.728" rx="3.478" fill="#fff" stroke="#D9D9D9" stroke-width="1.739"/>
    <path fill-rule="evenodd" clip-rule="evenodd" d="M9.865 15.441H7.908L6.441 9.763c-.07-.261-.217-.492-.435-.601a6.306 6.306 0 0 0-1.793-.601v-.219h3.151c.435 0 .762.329.816.71l.761 4.096 1.956-4.806h1.902l-2.934 7.1zm4.021 0H12.04l1.521-7.099h1.848l-1.521 7.1zM17.8 10.31c.054-.382.38-.601.76-.601a3.4 3.4 0 0 1 1.794.327l.327-1.528a4.62 4.62 0 0 0-1.685-.328c-1.794 0-3.098.983-3.098 2.348 0 1.038.924 1.583 1.576 1.911.706.328.978.546.924.874 0 .491-.544.71-1.087.71a4.605 4.605 0 0 1-1.902-.438l-.326 1.53a5.264 5.264 0 0 0 2.01.382c2.012.054 3.261-.928 3.261-2.403 0-1.857-2.554-1.965-2.554-2.784zm9.021 5.132-1.467-7.099h-1.576a.818.818 0 0 0-.761.546l-2.717 6.553h1.902l.38-1.037h2.337l.217 1.037h1.685zm-2.771-5.187.543 2.676H23.07l.979-2.676z" fill="#172B85"/>
    <rect x="79.995" y="1.091" width="30.557" height="20.728" rx="3.478" fill="#fff" stroke="#D9D9D9" stroke-width="1.739"/>
    <path d="m92.255 21.331 17.786-5.383v2.687a2.696 2.696 0 0 1-2.695 2.696H92.255z" fill="#FD6020"/>
    <path fill-rule="evenodd" clip-rule="evenodd" d="M106.642 8.75c.978 0 1.516.453 1.516 1.308.049.654-.391 1.207-.978 1.308l1.321 1.86h-1.028l-1.125-1.81h-.098v1.81h-.832V8.75h1.224zm-.392 2.063h.245c.538 0 .782-.252.782-.705 0-.402-.244-.653-.782-.653h-.245v1.357zm-3.718 2.414h2.348v-.755h-1.516v-1.207h1.467v-.754h-1.467V9.505h1.516V8.75h-2.348v4.477zm-2.446-1.459L98.96 8.75h-.88l1.81 4.577h.44l1.81-4.577h-.88l-1.174 3.018zm-9.933-.754c0 1.257.979 2.313 2.202 2.313.391 0 .734-.1 1.076-.251V12.07c-.244.302-.587.503-.978.503a1.397 1.397 0 0 1-1.419-1.409v-.1a1.49 1.49 0 0 1 1.37-1.56c.391 0 .783.202 1.028.504V9.002c-.294-.201-.686-.252-1.028-.252-1.272-.1-2.25.956-2.25 2.264zm-1.516-.554c-.49-.2-.636-.301-.636-.553.049-.302.293-.553.587-.503.245 0 .49.151.685.352l.44-.603c-.342-.302-.782-.503-1.223-.503-.685-.05-1.272.503-1.32 1.207v.05c0 .604.244.956 1.027 1.207.195.05.391.151.587.252.146.1.244.251.244.452 0 .352-.293.654-.587.654h-.049a.967.967 0 0 1-.88-.603l-.538.553c.293.553.88.855 1.467.855.783.05 1.42-.553 1.468-1.358v-.15c-.049-.604-.294-.906-1.272-1.309zm-2.838 2.767h.832V8.75h-.832v4.477zM81.934 8.75h1.468c1.174.05 2.103 1.057 2.055 2.264 0 .653-.294 1.257-.783 1.71-.44.352-.979.553-1.517.503h-1.223V8.75zm1.076 3.722c.391.05.832-.1 1.125-.352.294-.302.44-.704.44-1.157 0-.402-.146-.804-.44-1.106-.293-.252-.734-.403-1.125-.352h-.245v2.967h.245z" fill="#000"/>
    <path fill-rule="evenodd" clip-rule="evenodd" d="M95.927 8.647c-1.224 0-2.251 1.005-2.251 2.313 0 1.257.978 2.314 2.25 2.364 1.273.05 2.251-1.006 2.3-2.313-.049-1.308-1.027-2.364-2.3-2.364z" fill="#FD6020"/>
    <rect x="119.688" y="1.222" width="30.296" height="20.467" rx="3.348" fill="#016FD0" stroke="#D9D9D9" stroke-width="2"/>
    <path d="M127.229 16.372v-4.205h4.543l.487.623.504-.623h16.478v3.915s-.43.285-.928.29h-9.126l-.551-.663v.663h-1.799V15.24s-.246.159-.777.159h-.614v.974h-2.724l-.487-.636-.493.636h-4.513zM121.111 10.861l1.841-4.208h1.772l.58 1.31v-1.31h2.202l.345.948.334-.948h9.882v.476s.52-.476 1.372-.476l3.206.011.572 1.295V6.653h1.843l.506.744v-.744h1.86v4.208h-1.86l-.484-.746v.746h-2.705l-.272-.663h-.728l-.268.663h-1.835c-.734 0-1.205-.467-1.205-.467v.467h-2.771l-.55-.663v.663h-10.287l-.271-.663h-.726l-.271.663h-2.082z" fill="#fff"/>
    <path d="m123.314 7.175-1.38 3.15h.898l.254-.631h1.482l.254.63h.92l-1.38-3.15h-1.048zm.512.73.451 1.101h-.903l.452-1.101zM125.836 10.322v-3.15l1.278.005.742 2.03.726-2.035h1.268v3.15h-.802v-2.32l-.852 2.32h-.704l-.854-2.32v2.32h-.802zM130.4 10.322v-3.15h2.62v.703h-1.807v.54h1.763v.663h-1.766v.559h1.808v.685H130.4zM133.483 7.175v3.15h.802v-1.12h.337l.964 1.12h.98l-1.057-1.16a.967.967 0 0 0 .882-.967c0-.664-.531-1.02-1.123-1.02l-1.785-.003zm.802.703h.918c.219 0 .38.17.38.33 0 .21-.208.33-.369.33h-.929v-.66zM137.538 10.322h-.819v-3.15h.819v3.15zM139.482 10.322h-.178c-.857 0-1.374-.66-1.374-1.56 0-.921.514-1.587 1.593-1.587h.887v.746h-.917c-.438 0-.75.336-.75.849 0 .61.356.864.865.864h.211l-.337.688zM141.229 7.174l-1.38 3.148h.898l.255-.631h1.481l.255.63h.917l-1.38-3.15-1.046.003zm.51.73.451 1.102h-.903l.452-1.101zM143.748 10.322v-3.15h1.022l1.303 1.979V7.17h.802v3.15h-.988l-1.336-2.03v2.03h-.803zM127.78 15.832v-3.15h2.62v.704h-1.807v.54h1.766v.663h-1.766v.559h1.807v.684h-2.62zM140.613 15.832v-3.15h2.621v.704h-1.807v.54h1.757v.663h-1.757v.559h1.807v.684h-2.621zM130.501 15.832l1.276-1.555-1.306-1.595h1.011l.777.986.781-.986h.972l-1.29 1.574 1.279 1.574h-1.011l-.755-.97-.737.97-.997.002zM134.096 12.685v3.15h.825v-.994h.846c.714 0 1.256-.373 1.256-1.095 0-.599-.424-1.058-1.152-1.058h-1.775v-.003zm.825.712h.89c.23 0 .397.14.397.362 0 .21-.165.363-.4.363h-.887v-.725zM137.369 12.682v3.15h.802v-1.12h.337l.964 1.12h.98l-1.057-1.16a.967.967 0 0 0 .882-.966c0-.664-.532-1.02-1.123-1.02l-1.785-.004zm.805.707h.917c.219 0 .381.169.381.33 0 .21-.209.33-.37.33h-.928v-.66zM143.606 15.832v-.684h1.607c.238 0 .34-.127.34-.264 0-.131-.102-.265-.34-.265h-.726c-.629 0-.983-.376-.983-.943 0-.505.323-.99 1.26-.99h1.563l-.336.708h-1.353c-.257 0-.337.134-.337.26 0 .132.099.274.296.274h.761c.704 0 1.008.392 1.008.905 0 .55-.34 1.002-1.046 1.002h-1.714v-.003zM146.552 15.832v-.684h1.608c.238 0 .339-.127.339-.264 0-.131-.101-.265-.339-.265h-.726c-.63 0-.983-.376-.983-.943 0-.505.323-.99 1.259-.99h1.564l-.337.708h-1.352c-.258 0-.337.134-.337.26 0 .132.098.274.295.274h.762c.703 0 1.007.392 1.007.905 0 .55-.339 1.002-1.046 1.002h-1.714v-.003z" fill="#016FD0"/>
    <rect x="40.433" y="1.091" width="30.557" height="20.728" rx="3.478" fill="#fff" stroke="#D9D9D9" stroke-width="1.739"/>
    <path fill-rule="evenodd" clip-rule="evenodd" d="M56.012 16.647a7.099 7.099 0 0 1-4.578 1.658c-3.897 0-7.057-3.108-7.057-6.94 0-3.834 3.16-6.942 7.057-6.942a7.1 7.1 0 0 1 4.578 1.659 7.1 7.1 0 0 1 4.578-1.659c3.897 0 7.057 3.108 7.057 6.941 0 3.833-3.16 6.94-7.057 6.94a7.1 7.1 0 0 1-4.578-1.657z" fill="#ED0006"/>
    <path fill-rule="evenodd" clip-rule="evenodd" d="M56.012 16.647a6.88 6.88 0 0 0 2.48-5.283 6.88 6.88 0 0 0-2.48-5.282 7.099 7.099 0 0 1 4.578-1.659c3.897 0 7.057 3.108 7.057 6.941 0 3.833-3.16 6.94-7.058 6.94a7.099 7.099 0 0 1-4.577-1.657z" fill="#F9A000"/>
    <path fill-rule="evenodd" clip-rule="evenodd" d="M56.012 16.647a6.88 6.88 0 0 0 2.48-5.283 6.88 6.88 0 0 0-2.48-5.282 6.88 6.88 0 0 0-2.48 5.282 6.88 6.88 0 0 0 2.48 5.283z" fill="#FF5E00"/>
</svg>
