<svg width="244" height="237" viewBox="0 0 244 237" fill="none" xmlns="http://www.w3.org/2000/svg">
    <path fill-rule="evenodd" clip-rule="evenodd" d="M185.053 151.619c0-.144-.107-.474-.32-.992.525.342.983.512 1.374.512.29 0 .556-.096.799-.288.118-.296.235-.606.351-.927.299-.841.575-1.598.831-2.271.262.994.507 2.231.735 3.71-.003.896-.29 2.048-.863 3.455a46.885 46.885 0 0 1-2.077 4.414 1.025 1.025 0 0 1-.16.224c.929 1.44-.732 6.665-4.984 15.674-2.407 5.16-5.272 10.832-8.594 17.017-13.006 22.093-22.176 33.139-27.509 33.138-.841 0-1.703-.096-2.588-.287a14.214 14.214 0 0 1-2.556-.864 19.26 19.26 0 0 1-2.46-1.248 7.744 7.744 0 0 0-.12-.082l-.072-.046c-.693-.42-1.395-.9-2.108-1.439a4.607 4.607 0 0 1-.256-.192 34.832 34.832 0 0 1-.767-.608 1277.688 1277.688 0 0 0-15.559-14.074c.747-3.025 1.226-5.306 1.438-6.845 6.273 5.777 11.417 10.234 15.431 13.37.49.374.959.715 1.406 1.024a26.093 26.093 0 0 0 2.716 1.759c2.058 1.134 3.72 1.571 4.984 1.312 2.051-.385 5.267-3.328 9.649-8.829 4.4-5.505 9.991-13.747 16.773-24.726 6.807-10.955 10.396-17.865 10.767-20.727.313-2.271.355-3.635.128-4.095a4.817 4.817 0 0 1-.223-.16 22.753 22.753 0 0 1-1.183-.959c-3.027-2.598-4.592-5.187-4.694-7.766.027.05.218-.262.573-.935.254 1.708 1.063 3.5 2.428 5.374 1.47 2.004 2.545 3.007 3.227 3.007 1.086 0 1.992-.917 2.716-2.751.511-1.301.767-2.261.767-2.879zm-9.711-1.816-.002-.071v.064l.002.007zM38.499 208.524l-.383 2.495v.064a94.771 94.771 0 0 0-1.502 4.03c-1.943 5.784-3.53 12.693-4.76 20.728l-8.243.352c3.012-14.639 5.355-24.598 7.029-29.876 2.629-8.222 5.685-14.438 9.17-18.649.502 9.135.065 16.087-1.31 20.856z" fill="#E88E57"/>
    <path d="m40.416 186.965-.607.704c.502 9.135.066 16.086-1.31 20.855l-.383 2.495v.064a94.317 94.317 0 0 0-1.502 4.031c2.327 8.229 4.371 14.989 6.134 20.279l11.79-.479a195.165 195.165 0 0 0-2.045-6.494 9723.324 9723.324 0 0 1-5.304-15.386c-3.568-10.49-5.826-19.18-6.773-26.069z" fill="#742222"/>
    <path fill-rule="evenodd" clip-rule="evenodd" d="M52.812 50.316c.715 1.536 1.31 3.37 1.79 5.502.474 2.156.751 3.82.83 4.99.104 1.17.082 2.204-.064 3.102-.147.894-.925 2.984-2.332 6.27.765 1.553 1.457 3.28 2.077 5.182 1.49 4.649 2.236 9.138 2.236 13.467 0 1.298-.106 2.503-.32 3.614 1.773 3.382 4.329 6.037 7.669 7.965.962-.685 2.123-1.144 3.482-1.376a.306.306 0 0 0 .16-.032 30.801 30.801 0 0 1 4.313-.287h.511c1.418.065 2.835.374 4.25.927-.141.115-.29.222-.448.32-.656.516-1.327.932-2.012 1.248-.699-.17-1.487-.32-2.365-.448-2.194-.384-4.09-.299-5.687.256a9.064 9.064 0 0 0-.607.224 6.008 6.008 0 0 0-.99.575 12.318 12.318 0 0 1-1.95-.799l-.063-.032a15.214 15.214 0 0 1-2.78-1.856c-1.425-1.188-2.767-2.712-4.025-4.574-.15-.206-.3-.43-.448-.672a29.116 29.116 0 0 1-1.757-3.102c.023-.137.044-.276.064-.416.306-2.163.295-4.7-.032-7.613-.42-3.548-1.271-6.736-2.556-9.564a63.033 63.033 0 0 0-.48-.96c-.189-.367-.38-.708-.574-1.023v-.032c.3-.898.737-1.879 1.31-2.943.132-.241.27-.487.415-.736 1.47-2.538 2.205-4.787 2.205-6.75 0-1.112-.16-2.712-.48-4.797a24.84 24.84 0 0 0-.479-2.495 39.488 39.488 0 0 0-.48-1.888 18.482 18.482 0 0 0-.255-.831 2.796 2.796 0 0 0-.128-.416zm19.746 58.441c.06.633.134 1.347.223 2.143.064.554.128 1.151.192 1.791-4.033-.028-7.314-1.052-9.84-3.071a13.423 13.423 0 0 1-1.247-1.151 16.7 16.7 0 0 1-.67-.736 19.188 19.188 0 0 1-.416-.512c.015-.439.015-.898 0-1.375a54.43 54.43 0 0 0-.032-2.271c.218.117.431.223.64.319.662.331 1.333.619 2.012.864.268.104.534.2.799.288a.17.17 0 0 1 .032.064c.199.625.614 1.18 1.246 1.663 1.086.83 2.64 1.416 4.664 1.76.825.153 1.624.228 2.397.224z" fill="#AF714F"/>
    <path d="M77.414 102.199a7.879 7.879 0 0 1-.224-.128c-.584-.323-1.33-.61-2.236-.863a25.76 25.76 0 0 0-2.364-.448c-2.194-.384-4.09-.299-5.688.256a9.061 9.061 0 0 0-.606.224 6.009 6.009 0 0 0-.991.575c-.368.299-.656.64-.863 1.024-.12.259-.204.536-.255.832a4.182 4.182 0 0 0-.064.863c.03.18.062.35.096.512a.17.17 0 0 1 .032.064c.199.625.614 1.18 1.246 1.663 1.086.83 2.64 1.416 4.664 1.76.825.153 1.624.228 2.397.224a11.64 11.64 0 0 0 3.386-.416c1.803-.476 2.761-1.457 2.876-2.943.055-.671-.02-1.257-.224-1.759-.213-.596-.607-1.076-1.182-1.44z" fill="#333"/>
    <path fill-rule="evenodd" clip-rule="evenodd" d="M37.7 143.43c1.501-.72 2.896-1.455 4.186-2.207a136.868 136.868 0 0 0 1.758 8.381c3.398 14.018 14.644 27.559 33.738 40.623a243.025 243.025 0 0 1 5.943 4.223c.648 1.053 2.406-1.858 5.272-8.733 2.887-6.853 4.368-15.02 4.44-24.502.094-9.463.02-15.178-.223-17.145-.416-3.314-.81-6.267-1.182-8.861 1.656.515 3.36.792 5.112.832 2.344.078 4.293.11 5.847.096.227 3.858.887 8.347 1.981 13.467 1.528 7.102 3.903 15.429 7.124 24.982a518.069 518.069 0 0 0 7.956 21.975c.043.531.064 1.064.064 1.599 0 .368-.043.848-.128 1.44-.212 1.539-.691 3.82-1.438 6.845-.6 2.42-1.367 5.31-2.3 8.668-.774 2.794-1.317 6.238-1.63 10.332a125.31 125.31 0 0 0-.255 7.069l-59.427 2.4a194.662 194.662 0 0 0-2.044-6.494 9643.124 9643.124 0 0 1-5.304-15.386c-3.569-10.49-5.827-19.18-6.773-26.069-.202.234-.404.469-.608.703a178.725 178.725 0 0 0-.287-4.19c-.896-11.218-3.228-21.902-6.997-32.051-.23-.62-.464-1.228-.703-1.823a80.575 80.575 0 0 0-1.342-3.263 62.535 62.535 0 0 0 7.22-2.911zm47.861 72.227c-.404-.136-.33-.349.224-.64a9.872 9.872 0 0 1-.224.64z" fill="#933"/>
    <path fill-rule="evenodd" clip-rule="evenodd" d="M47.797 137.257a.421.421 0 0 1-.096.032c-1.644 1.357-3.582 2.668-5.815 3.934.499 2.815 1.085 5.609 1.757 8.381 3.398 14.018 14.644 27.559 33.739 40.624a243.125 243.125 0 0 1 5.943 4.222c.648 1.053 2.405-1.858 5.271-8.733 2.888-6.853 4.368-15.02 4.441-24.502.093-9.463.019-15.178-.223-17.145-.417-3.314-.81-6.267-1.182-8.86a20.1 20.1 0 0 1-5.017-2.303c-.033-.021-.065-.043-.095-.064a.488.488 0 0 0 0 .064c.234 5.331-.416 9.425-1.95 12.283-2.704 5.032-8.285 7.549-16.74 7.549-3.771 0-7.605-1.269-11.503-3.807-4.494-2.921-7.252-6.813-8.275-11.675a1.138 1.138 0 0 0-.032-.128 3.306 3.306 0 0 1-.223.128zm37.988 77.761c-.553.29-.628.504-.224.639.081-.207.156-.421.224-.639zm-55.4-68.869c.038.075.07.139.095.192.46 1.049.907 2.136 1.342 3.263.24.595.473 1.203.703 1.823 3.769 10.149 6.101 20.833 6.997 32.051.116 1.449.212 2.846.287 4.191-3.483 4.21-6.54 10.426-9.17 18.648-1.673 5.279-4.016 15.237-7.028 29.876l-15.496.64c-2.08.06-4.007-.356-5.783-1.248A11.818 11.818 0 0 1 0 234.082c6.873-35.063 11.367-56.729 13.483-64.998 1.954-7.635 4.105-13.68 6.454-18.137.247-.461.492-.909.735-1.343.115-.185.222-.366.319-.544 1.759-.456 3.442-.936 5.048-1.439a73.736 73.736 0 0 0 4.345-1.472zm151.601-5.278c-.442-.373-.804-.437-1.087-.192-.261.245-.687.778-1.278 1.6-.591.845-1.453 2.338-2.588 4.478-.46.912-.833 1.616-1.118 2.111.254 1.708 1.064 3.5 2.428 5.374 1.47 2.004 2.546 3.007 3.227 3.007 1.087 0 1.992-.917 2.716-2.751.511-1.301.767-2.261.767-2.879 0-.144-.107-.474-.32-.992a8.012 8.012 0 0 1-1.246-.927 34.847 34.847 0 0 1-.766-.768c-1.527-1.599-2.252-3.39-2.173-5.374.401-.674.795-1.389 1.182-2.143.093-.177.178-.358.256-.544zm-68.788.128c1.548 1.771 3.54 4.639 5.974 8.605 2.498 4.076 5.469 9.311 8.914 15.705.905 1.68 1.81 3.311 2.716 4.894l.119.191.041.065 1.789 3.039c.083.144.168.282.255.416a152.614 152.614 0 0 0 5.879 9.02 127.618 127.618 0 0 0 4.697 6.27c6.804-7.561 12.331-14.15 16.582-19.768 4.249-5.623 7.679-10.443 10.287-14.458 2.631-4.014 4.26-5.762 4.889-5.246.075 2.603 1.641 5.215 4.696 7.837.42.362.814.682 1.183.959.077.058.151.112.223.16.227.46.185 1.824-.128 4.094-.371 2.863-3.96 9.772-10.767 20.728-6.782 10.979-12.373 19.221-16.773 24.726-4.382 5.501-7.598 8.444-9.649 8.829-1.264.259-2.926-.178-4.984-1.312a26.093 26.093 0 0 1-2.716-1.759c-.447-.309-.916-.65-1.406-1.024-4.014-3.136-9.158-7.593-15.431-13.37.085-.592.127-1.072.127-1.44 0-.535-.021-1.068-.064-1.599a519.478 519.478 0 0 1-7.955-21.975c-3.222-9.553-5.597-17.88-7.125-24.982-1.094-5.12-1.754-9.609-1.981-13.467 2.285.019 3.734-.045 4.345-.192 1.063-.221 3.151 1.463 6.263 5.054z" fill="url(#a)"/>
    <path d="M188.57 117.104c-.08.79.157 1.711.71 2.764.61.993 1.201 2.573 1.77 4.74.57 2.167-.139 3.821-2.128 4.963-2.017 1.171-3.079 3.12-3.186 5.847l-4.79 7.406-.688 1.069v.689c.459 1.376 1.652 4.268 2.754 4.819 1.101.551 2.754 2.754 3.442 2.065l.689-.688.688-2.066 1.835-4.13 2.205-3.222 1.152-.557a39.136 39.136 0 0 1 8.07-2.954c2.797-.707 7.085-1.016 12.865-.925 5.808.061 8.955-.656 9.441-2.15-.523-.447-1.323-.785-2.398-1.014.443-.035 1-.046 1.67-.034a10.272 10.272 0 0 1 1.68.061c.729-.047 1.314-.089 1.757-.123a2.869 2.869 0 0 0 1.775-.886c.456-.542-.149-1.472-1.812-2.788-1.663-1.316-5.041-2.093-10.134-2.329-5.086-.173-9.802.791-14.148 2.891-3.462.76-5.44.901-5.934.424-.566-.545-.955-1.556-1.168-3.032-.196-.998-.337-2.231-.422-3.699-.183-3.698-.981-6.23-2.394-7.593-.883-.852-1.618-1.186-2.205-1.002-.587.184-.952.669-1.096 1.454z" fill="#D39468"/>
    <path d="M193.339 140.451c-2.553 1.231-4.338 2.392-4.517 2.507-.342.22-2.63 8.019-2.368 8.508.143.266 2.754-6.196 2.948-6.562 4.849-3.116 11.317-5.362 19.404-6.738 9.023-.012 13.81-.445 14.361-1.299.58-.884.626-1.533.137-1.946-.486 1.494-4.189 2.151-9.999 2.087-5.781-.093-8.906-.018-11.704.689-2.769.676-5.651 1.463-8.262 2.754zM184.389 137.697l1.377-2.066s.308 2.138 0 2.754c-.689 1.377 0 3.442 0 3.442l-1.377-2.065v-2.065z" fill="#AF714F"/>
    <path fill-rule="evenodd" clip-rule="evenodd" d="M70.737 55.498c5.521-.796 9.568.057 12.14 2.559 1.82 1.772 3.024 3.542 3.61 5.31.25.756.39 1.513.416 2.27.063 2.325.074 4.51.032 6.558-.125 8.148-1.02 14.204-2.684 18.169-.085.23-.18.455-.287.671-.185.41-.387.793-.607 1.152a.59.59 0 0 1-.096.16c-1.891 3.237-3.84 5.668-5.847 7.293-1.415-.553-2.832-.863-4.25-.928h-.51c-1.532.001-2.97.097-4.314.288a.306.306 0 0 1-.16.032c-1.358.232-2.52.69-3.482 1.375-3.34-1.928-5.896-4.583-7.668-7.964.213-1.112.32-2.317.32-3.615 0-4.329-.746-8.818-2.237-13.466-.62-1.902-1.312-3.629-2.077-5.182 1.408-3.286 2.185-5.376 2.333-6.27.146-.898.167-1.932.064-3.103-.08-1.17-.356-2.833-.831-4.99-.479-2.131-1.075-3.965-1.79-5.501a53.05 53.05 0 0 0-.702-2.24c-1.068-3.163-2.633-5.413-4.697-6.749 1.867.206 3.529 1.517 4.985 3.935.762 1.272 1.465 2.711 2.108 4.318.18.396.393.78.64 1.151.185.282.387.56.606.832a13.533 13.533 0 0 0 1.917 1.887c.446.355.926.696 1.438 1.024 2.236 1.478 6.113 1.82 11.63 1.024zM47.7 137.288a25.635 25.635 0 0 0 2.716-2.527c.045-.048.088-.101.128-.159 3.218-3.51 5.646-7.264 7.285-11.26 1.788-4.381 2.917-9.584 3.386-15.61.21.245.434.49.671.736.393.413.809.797 1.246 1.152 2.527 2.019 5.807 3.042 9.84 3.07.055.31.097.63.128.96.604 4.677 3.256 9.539 7.956 14.586 1.745 1.875 3.566 3.411 5.463 4.606a.526.526 0 0 0 0 .064c.235 5.331-.415 9.426-1.949 12.283-2.705 5.033-8.285 7.549-16.741 7.549-3.77 0-7.604-1.269-11.502-3.806-4.494-2.922-7.253-6.813-8.275-11.676a1.18 1.18 0 0 0-.032-.127 3.299 3.299 0 0 1-.224.127.341.341 0 0 1-.096.032z" fill="#D39468"/>
    <path fill-rule="evenodd" clip-rule="evenodd" d="M85.178 46.67a45.369 45.369 0 0 0-1.662-2.975c1.81 2.41 3.226 4.755 4.25 7.037.127.278.244.555.351.831.047.097.09.192.128.288.216.54.419 1.074.607 1.6.317.86.594 1.703.83 2.527.576 1.89.97 3.68 1.183 5.373.098.79.173 1.472.224 2.048a5.136 5.136 0 0 0-.416 0h-1.342c.043-.507.064-1.008.064-1.504 0-2.68-.468-5.496-1.406-8.444a30.688 30.688 0 0 0-.639-1.888 45.363 45.363 0 0 0-2.172-4.894zm4.09 17.752a.466.466 0 0 1-.032.128 27.42 27.42 0 0 1-.608 3.55c-.075.33-.16.64-.255.928-.392 1.466-.872 2.522-1.438 3.167-.125 8.148-1.02 14.204-2.684 18.169-.085.231-.18.455-.287.672-.185.409-.387.793-.607 1.151a.59.59 0 0 1-.096.16c.346.173.708.27 1.086.288h.639c1.107-1.83 2.033-4.474 2.78-7.933.724-3.39 1.086-6.27 1.086-8.636 0-.789-.032-1.716-.096-2.783 1.008-1.62 1.69-3.294 2.045-5.022.043-.201.075-.404.096-.608.026-.095.047-.19.064-.288a9.869 9.869 0 0 0-.895-1.887 8.163 8.163 0 0 0-.799-1.056zM54.41 91.036a3.764 3.764 0 0 1-.031-.064 41.775 41.775 0 0 0-.512 1.631c-.115.386-.243.749-.383 1.088.228.345.463.686.703 1.023a25.847 25.847 0 0 0 2.716 3.231 20.36 20.36 0 0 0 3.738 3.039c.895.57 1.811 1.05 2.747 1.439.36.154.711.292 1.055.416.207-.384.494-.725.862-1.024a12.313 12.313 0 0 1-1.949-.799l-.022-.012-.041-.02a15.16 15.16 0 0 1-2.78-1.855c-1.425-1.189-2.767-2.713-4.026-4.575-.15-.206-.299-.43-.447-.671a29.104 29.104 0 0 1-1.63-2.847z" fill="#6D6D6D"/>
    <path d="M49.043 79.424c-.566-2.287-1.333-4.345-2.3-6.174-.81-1.556-1.64-2.686-2.493-3.39-.724-.619-1.448-.939-2.172-.96a3.277 3.277 0 0 0-.32-.032l-.064.032c-.085 0-.16.01-.223.032a2.44 2.44 0 0 0-.863.352c.26 1.155.568 2.35.927 3.583.977 3.357 2.649 6.844 5.016 10.46l-1.534 1.567-3.195.064c-1.674-2.204-2.877-4.369-3.61-6.494l-.16-.448a47.969 47.969 0 0 0 .192 4.99.493.493 0 0 1 0 .097c.23 2.642.688 5.062 1.373 7.26.081.227.156.45.224.672.338.972.721 1.9 1.15 2.783 1.449 3.07 3.025 4.51 4.729 4.318l.447-.063c.682-.214 1.278-.63 1.79-1.248.596-.746 1.086-1.802 1.47-3.167.176-.622.314-1.272.414-1.951.047-.22.079-.445.096-.672.041-.22.073-.444.096-.671.126-1.386.126-2.889 0-4.51a30.055 30.055 0 0 0-.224-2.336c-.136-1.02-.306-2-.51-2.942-.082-.387-.167-.771-.256-1.152z" fill="url(#b)"/>
    <path d="M91.76 70.82a22.947 22.947 0 0 0-.575-2.272 9.425 9.425 0 0 0-.287-.895c-.021.204-.053.406-.096.607-.356 1.728-1.038 3.402-2.045 5.022a47.36 47.36 0 0 1 .096 2.783c0 2.367-.362 5.246-1.087 8.637-.746 3.459-1.673 6.103-2.78 7.933h1.087c.49-.192.97-.47 1.438-.832.247-.219.492-.474.735-.768.172-.205.342-.43.51-.671.29-.424.578-.904.864-1.44 1.341-2.602 2.161-5.886 2.46-9.852.258-3.024.152-5.775-.32-8.253z" fill="url(#c)"/>
    <path fill-rule="evenodd" clip-rule="evenodd" d="M21.246 24.406c.122-6.744 1.996-11.52 5.623-14.33 3.651-2.782 7.89-3.752 12.717-2.91 4.822.857 8.507 3.661 11.054 8.412 1.632 3.046 1.94 6.948.927 11.707.16-.042.32-.084.479-.128a22.76 22.76 0 0 1 5.112-.416c2.562.07 4.84.39 6.837.96a23.892 23.892 0 0 0-3.163-.256c-4.153-.065-7.817.895-10.99 2.879-3.153 1.983-5.773 4.34-7.86 7.069-.216.274-.429.552-.64.832a.211.211 0 0 1-.031.096c-2.601 3.623-4.401 7.76-5.4 12.41-.06.276-.124.553-.191.832-.09.527-.175 1.06-.256 1.6a3.124 3.124 0 0 1-.064.288 54.18 54.18 0 0 0-.32 2.526 46.06 46.06 0 0 0-.16 3.007c-.084 2.602.043 5.32.384 8.157.29 2.872 1.205 6.497 2.748 10.876a47.913 47.913 0 0 0 .192 4.99.492.492 0 0 1 0 .096c-4.098-8.768-6.004-17.212-5.72-25.334.065-1.478.171-2.917.32-4.319.388-3.188 1.048-6.152 1.981-8.892-3.156-.091-6.074-1.605-8.754-4.542a16.746 16.746 0 0 1-1.758-2.303c-2.14-3.421-3.162-7.857-3.067-13.307zm49.522 8.38c.463.202.92.415 1.374.64 2.774 1.367 5.384 3.35 7.828 5.95.49.527.969 1.071 1.437 1.631a46.598 46.598 0 0 1 2.109 2.687c.56.917 1.114 1.908 1.661 2.975.857 1.669 1.58 3.3 2.173 4.894.238.635.45 1.264.639 1.887.937 2.949 1.406 5.764 1.406 8.445 0 .495-.022.996-.064 1.503-.01.34-.03.68-.064 1.024a.467.467 0 0 1-.032.128 27.444 27.444 0 0 1-.607 3.55c-.076.33-.161.64-.256.928-.392 1.466-.871 2.521-1.437 3.167.041-2.047.03-4.233-.032-6.558a8.143 8.143 0 0 0-.416-2.27c-.587-1.768-1.79-3.538-3.61-5.31-2.572-2.502-6.62-3.355-12.14-2.56-5.518.797-9.394.455-11.63-1.023a17.186 17.186 0 0 1-1.438-1.024 13.522 13.522 0 0 1-1.917-1.887c-.22-.273-.422-.55-.607-.832a8.232 8.232 0 0 1-.64-1.151c-.642-1.607-1.345-3.046-2.108-4.319-1.456-2.417-3.117-3.728-4.984-3.934 2.063 1.336 3.629 3.586 4.696 6.75.265.784.499 1.53.703 2.239.056.144.1.283.128.415.094.283.18.56.256.832.184.66.344 1.29.479 1.887.217.903.377 1.735.48 2.495.32 2.086.48 3.685.478 4.798 0 1.962-.735 4.212-2.204 6.75-.145.249-.283.494-.416.735-.572 1.065-1.009 2.046-1.31 2.943v.032c-1.443-2.318-3.083-3.3-4.92-2.943l-4.025.608-.064.032c-.086 0-.16.01-.224.032a2.44 2.44 0 0 0-.863.352c-.437-1.988-.724-3.865-.862-5.63-.17-2.203-.096-4.762.224-7.677.08-.734.175-1.491.287-2.27.012-.086.023-.172.032-.257.098-.64.204-1.268.32-1.887.073-.28.136-.556.191-.832.843-3.559 2.248-6.768 4.218-9.628a27.913 27.913 0 0 1 2.076-2.687c1.36-1.575 2.82-2.897 4.377-3.966 3.245-2.175 6.92-3.263 11.023-3.263h.351a21.78 21.78 0 0 1 7.924 1.6z" fill="#000"/>
    <path d="M72.526 30.9c-2.69-1.662-5.534-2.728-8.53-3.2a23.857 23.857 0 0 0-3.164-.255c-4.153-.065-7.817.895-10.99 2.879-3.152 1.983-5.772 4.34-7.86 7.069-.215.274-.428.552-.639.832a.211.211 0 0 1-.032.096c-2.6 3.623-4.4 7.76-5.4 12.41-.06.276-.123.553-.191.832-.09.527-.174 1.06-.256 1.6a3.129 3.129 0 0 1-.064.288 54.197 54.197 0 0 0-.32 2.526 46.06 46.06 0 0 0-.159 3.007c-.085 2.602.043 5.32.384 8.157.288 2.872 1.204 6.497 2.747 10.876l.16.448c.733 2.124 1.937 4.289 3.61 6.493l3.195-.064c-1.915-2.355-3.31-4.658-4.185-6.91-.81-2.111-1.47-4.052-1.981-5.821-.547-1.864-.92-3.527-1.118-4.99-.563-3.985-.722-7.717-.48-11.196a76.4 76.4 0 0 1 .224-2.27 1.03 1.03 0 0 0 .032-.257 57.706 57.706 0 0 1 .48-2.718c.891-4.237 2.489-8.033 4.792-11.388.208-.303.41-.602.607-.895.045-.048.088-.101.128-.16 1.928-2.598 4.058-4.688 6.39-6.27 3.561-2.367 7.587-3.55 12.077-3.55 1.853 0 3.653.202 5.4.607a23.79 23.79 0 0 1 5.143 1.824z" fill="url(#d)"/>
    <path d="M80.417 67.173c-.703.341-1.288.885-1.757 1.631-.447.64-.799 1.44-1.054 2.4-.575 2.047-.703 3.646-.384 4.797.022-.405.086-.831.192-1.279.15-.704.405-1.471.767-2.303.149-.341.32-.65.511-.928.511-.81 1.129-1.365 1.853-1.663 1.001-.427 1.896-.128 2.684.895.745 1.003 1.193 2.378 1.342 4.127.064-.81.085-1.567.064-2.271-.086-1.642-.394-2.954-.927-3.935-.873-1.62-1.97-2.11-3.29-1.471zM63.26 68.965c-1.832-.086-3.344.778-4.537 2.59-1.129 1.685-1.523 3.807-1.182 6.366a4.36 4.36 0 0 1-.032-.384c0-1.749.554-3.21 1.661-4.382 1.108-1.194 2.46-1.76 4.058-1.695 1.576.064 2.918.746 4.026 2.047.894 1.023 1.501 1.844 1.82 2.463-.063-1.322-.478-2.645-1.245-3.967-1.214-1.962-2.737-2.975-4.569-3.038z" fill="#000"/>
    <path d="M66.583 82.143c-1.022-1.3-2.439-2.197-4.25-2.687-1.746-.49-3.396-.427-4.951.192-1.491.618-2.386 1.589-2.684 2.91-.32 1.408.053 2.752 1.118 4.031 1.129 1.322 2.556 2.218 4.281 2.687 1.79.49 3.419.437 4.889-.16 1.512-.618 2.428-1.61 2.747-2.975.277-1.343-.106-2.676-1.15-3.998z" fill="url(#e)"/>
    <path d="M77.446 85.438c.256 1.322 1.001 2.153 2.237 2.495 1.214.32 2.556.064 4.025-.768a8.9 8.9 0 0 0 1.95-1.535c.52-2.369.881-5.152 1.086-8.349a3.224 3.224 0 0 0-.767-.32c-1.3-.32-2.673-.064-4.122.768-1.47.832-2.63 2.004-3.482 3.518-.852 1.514-1.161 2.911-.927 4.19z" fill="url(#f)"/>
    <path fill-rule="evenodd" clip-rule="evenodd" d="M239.112 4.83c3.261 3.27 4.891 7.204 4.888 11.803v43.919c-.002 4.592-1.632 8.506-4.888 11.74-3.23 3.26-7.139 4.89-11.726 4.893h-77.638c-4.593.003-8.523-1.629-11.789-4.894-1.793-1.797-3.092-3.812-3.898-6.045a26.61 26.61 0 0 1-.447-1.504 17.827 17.827 0 0 1-.48-4.19V47.725l-23.387 5.598c-6.219 1.642-6.762.842-1.629-2.4l25.016-16.729v-17.56c-.001-4.594 1.608-8.518 4.825-11.772l.032-.032C141.241 1.61 145.16 0 149.748 0h77.638c4.595-.002 8.503 1.608 11.726 4.83zm-1.822 1.823c-2.72-2.728-6.021-4.092-9.904-4.094h-77.638c-3.882.001-7.204 1.366-9.968 4.094-2.726 2.767-4.089 6.094-4.09 9.98v18.265a.498.498 0 0 1-.032.16.995.995 0 0 1-.128.416 1.49 1.49 0 0 1-.415.48L112.91 50.092l21.215-5.278a1.11 1.11 0 0 1 .735.064c.255.085.457.245.607.48.149.213.223.448.223.704v14.49c.001 1.48.193 2.877.575 4.19.167.514.359 1.015.575 1.504.685 1.54 1.665 2.947 2.94 4.222 2.762 2.77 6.084 4.156 9.968 4.158h77.638c3.883.002 7.184-1.373 9.904-4.126l.032-.032c2.75-2.724 4.124-6.03 4.122-9.916V16.633c-.003-3.888-1.387-7.215-4.154-9.98z" fill="#92194A"/>
    <path d="M237.29 6.653c-2.72-2.727-6.021-4.092-9.904-4.094h-77.638c-3.882.001-7.204 1.366-9.968 4.094-2.726 2.768-4.089 6.094-4.09 9.98v18.265a.498.498 0 0 1-.032.16.994.994 0 0 1-.128.416 1.49 1.49 0 0 1-.415.48L112.91 50.092l21.215-5.278a1.11 1.11 0 0 1 .735.064c.255.085.457.245.607.48.149.213.223.448.223.704v14.49c.001 1.48.193 2.877.575 4.19.167.514.359 1.015.575 1.504.685 1.54 1.665 2.947 2.94 4.222 2.762 2.77 6.084 4.156 9.968 4.158h77.638c3.883.002 7.184-1.373 9.904-4.126l.032-.032c2.75-2.724 4.124-6.029 4.122-9.916V16.633c-.003-3.888-1.387-7.214-4.154-9.98z" fill="#fff"/>
    <path d="M182.646 46.993h8.613l3.912-30.47-14.913.153 2.388 30.317zm5.081 3.121c-1.829 0-3.387.524-4.674 1.573-1.305 1.049-1.957 2.309-1.957 3.78 0 1.489.652 2.766 1.957 3.831 1.287 1.049 2.845 1.573 4.674 1.573 1.829 0 3.388-.524 4.675-1.573 1.304-1.065 1.956-2.342 1.956-3.83 0-1.472-.652-2.732-1.956-3.781-1.287-1.049-2.846-1.573-4.675-1.573z" fill="#C82164"/>
    <defs>
        <linearGradient id="a" x1="126.805" y1="239.606" x2="124.932" y2="128.75" gradientUnits="userSpaceOnUse">
            <stop stop-color="#F96"/>
            <stop offset=".922" stop-color="#FFE28A"/>
        </linearGradient>
        <linearGradient id="b" x1="54.661" y1="79.216" x2="37.525" y2="74.166" gradientUnits="userSpaceOnUse">
            <stop stop-color="#CCC"/>
            <stop offset="1" stop-color="#fff"/>
        </linearGradient>
        <linearGradient id="c" x1="95.609" y1="79.629" x2="80.584" y2="74.915" gradientUnits="userSpaceOnUse">
            <stop stop-color="#CCC"/>
            <stop offset="1" stop-color="#fff"/>
        </linearGradient>
        <linearGradient id="d" x1="78.382" y1="55.774" x2="45.34" y2="31.306" gradientUnits="userSpaceOnUse">
            <stop stop-color="#CCC"/>
            <stop offset="1" stop-color="#fff"/>
        </linearGradient>
        <radialGradient id="e" cx="0" cy="0" r="1" gradientUnits="userSpaceOnUse" gradientTransform="matrix(6.94905 1.88723 -1.5553 5.72682 61.152 84.318)">
            <stop offset=".447" stop-color="#CC755F"/>
            <stop offset=".922" stop-color="#CC7560" stop-opacity=".01"/>
        </radialGradient>
        <radialGradient id="f" cx="0" cy="0" r="1" gradientUnits="userSpaceOnUse" gradientTransform="matrix(-5.711 3.2067 -3.56424 -6.34777 82.814 82.367)">
            <stop offset=".447" stop-color="#CC755F"/>
            <stop offset=".922" stop-color="#CC7560" stop-opacity=".01"/>
        </radialGradient>
    </defs>
</svg>
