<svg xmlns="http://www.w3.org/2000/svg" width="121" height="100" fill="none" viewBox="0 0 121 100">
    <path fill="url(#paint0_linear)" fill-rule="evenodd" d="M64.14 39.913c.015 1.386-.46 2.573-1.426 3.564-.968.99-2.142 1.492-3.523 1.507-1.385.017-2.571-.457-3.559-1.422-.993-.968-1.496-2.144-1.511-3.526-.018-1.383.458-2.57 1.426-3.56.965-.99 2.14-1.494 3.522-1.511 1.383-.015 2.57.462 3.563 1.43.988.965 1.49 2.138 1.508 3.518zm-1.796 3.2c.864-.886 1.289-1.95 1.274-3.192-.015-1.237-.465-2.288-1.352-3.152-.889-.87-1.952-1.298-3.189-1.285-1.242.017-2.295.469-3.16 1.355-.866.887-1.292 1.95-1.277 3.19.015 1.239.467 2.293 1.355 3.162.887.865 1.949 1.29 3.186 1.274 1.242-.014 2.296-.465 3.163-1.351z" clip-rule="evenodd"/>
    <path fill="#B87E1B" fill-rule="evenodd" d="M63.617 39.92c.015 1.243-.41 2.307-1.274 3.194-.866.886-1.92 1.337-3.163 1.352-1.237.014-2.299-.41-3.185-1.275-.889-.869-1.34-1.923-1.356-3.163-.015-1.24.411-2.302 1.278-3.189.864-.886 1.917-1.338 3.16-1.355 1.237-.013 2.3.416 3.189 1.285.886.864 1.337 1.915 1.352 3.152zm-.789 2.001c.316-.6.47-1.264.46-1.992-.015-1.151-.432-2.126-1.252-2.927-.825-.805-1.812-1.2-2.96-1.185-1.15.015-2.127.434-2.93 1.256-.802.82-1.196 1.805-1.181 2.956.012 1.15.43 2.128 1.256 2.933.82.8 1.805 1.193 2.955 1.178h.045c1.538-.114 2.74-.853 3.607-2.219z" clip-rule="evenodd"/>
    <path fill="url(#paint1_linear)" d="M62.828 41.92c.316-.6.47-1.263.46-1.992-.015-1.15-.432-2.126-1.252-2.926-.825-.805-1.812-1.2-2.96-1.185-1.15.015-2.127.433-2.93 1.255-.802.82-1.196 1.805-1.181 2.956.012 1.15.43 2.129 1.256 2.934.82.8 1.805 1.192 2.955 1.177h.045c1.538-.113 2.74-.853 3.607-2.218z"/>
    <path fill="url(#paint2_linear)" fill-rule="evenodd" d="M36.934 91.587c-.037.15-.063.3-.076.448l5.298.069c-.086-.787-.433-1.247-1.042-1.382l-3.44-.028v.04c-.372.146-.618.43-.74.853zm34.856.763c.006.043.01.087.012.133l-5.16-.069v-.064c-.006-.054-.009-.106-.009-.158.006-.061.012-.125.02-.19.051-.484.279-.835.683-1.053l3.849.032c.32.073.518.476.593 1.211l.012.158zm9.91-.303c.051-.433.256-.757.614-.97l3.877.033c.294.04.483.206.57.497.048.18.068.375.06.585l-.008.158c-.01.092-.024.183-.04.275l-5.08-.061c-.003-.078-.005-.15-.005-.214-.002-.057-.002-.11 0-.158.003-.053.007-.102.012-.145zm-29.133-1.208v-.016l3.59.029c.622.03.934.476.937 1.34-.003.033-.004.066-.004.101l-5.34-.068v-.033c-.002-.04-.002-.08 0-.12.012-.437.199-.848.562-1.233h.255z" clip-rule="evenodd"/>
    <path fill="#A0A7B1" fill-rule="evenodd" d="M85.174 58.734l.024 1.563-2.584-.056-.13 30.203-1.63-.012.451-31.633 3.87-.065zm-13.715.59l.016-.573-4.018.008-.029.569-.044.735-1.373 27.57-.105 2.674 1.7.012 1.276-30.038 2.553.008.024-.965zm-6.44 33.07v-.044c-.003-.054-.003-.106 0-.157.01-.797.249-1.216.715-1.256l1.603.012c-.404.218-.632.57-.683 1.054-.008.064-.014.128-.02.19 0 .05.003.103.008.157v.065l-1.623-.02zm15.95-1.328l1.346.012c-.358.213-.563.536-.614.97-.006.042-.01.09-.012.144-.003.049-.003.102 0 .158 0 .065 0 .136.004.214l-1.543-.02c.005-.067.01-.132.012-.194l.008-.157c.038-.544.141-.871.311-.982.119-.075.22-.124.307-.145.065-.014.125-.014.182 0zm-46.138.945l2.027.024c.014-.148.04-.297.077-.448.121-.423.367-.707.739-.852v-.04l-1.898-.017c-.544.089-.859.533-.945 1.333zm15.148.194v-.012c-.083-.854.14-1.315.667-1.385l1.922.016v.016h-.254c-.364.385-.55.795-.562 1.232-.002.04-.002.08 0 .12v.033l-1.773-.02zm-9.749-32l-.036-1.374-3.853.008-.33 31.213 1.655.012-.396-29.872 2.96.012zm14.418-1.41l.052 1.445-2.839-.008.695 29.953-1.6-.012-.654-31.366 4.346-.012z" clip-rule="evenodd"/>
    <path fill="url(#paint3_linear)" fill-rule="evenodd" d="M59.231 39.612L88.025 51.36l-56.082 1.094 27.288-12.842zM37.427 50.903l2.27-.052 40.077-.961 1.417-.033-21.646-8.682-22.118 9.728z" clip-rule="evenodd"/>
    <path fill="url(#paint4_linear)" fill-rule="evenodd" d="M39.697 50.851l40.077-.961-20.24-7.718-19.837 8.679zm19.97-5.327c-.323.043-.626.138-.909.283-.064.032-.17.097-.315.194-.31.231-.531.55-.666.957-.035.1-.062.206-.08.319-.012.14-.006.277.015.412.278 1.055.984 1.825 2.12 2.31-1.036.04-1.879-.238-2.527-.836-.65-.598-.955-1.218-.917-1.862.005-.129.02-.253.044-.371.027-.148.065-.295.113-.44.248-.693.521-1.178.82-1.458.302-.28.61-.493.925-.638.487-.213.888-.306 1.203-.28 1.15-.088 1.991.201 2.524.87.194.236.352.49.473.762.167.404.231.81.194 1.216v.13c0 .527-.186 1.002-.557 1.425-.426.479-.97.719-1.632.719-.42 0-.821-.104-1.203-.311-.569-.315-.853-.796-.853-1.442 0-.089.013-.164.037-.226v-.02c.019-.21.091-.416.218-.618.032-.054.06-.104.085-.15.072-.094.156-.177.25-.25.161-.127.343-.218.545-.275.329-.089.625-.077.889.037.04.016.122.061.246.137.121.07.209.17.262.303.044.11.062.218.057.323l.016.093c.01.043.012.146.004.31-.01.162-.082.32-.214.473-.135.151-.323.226-.565.226-.175 0-.32-.044-.436-.133-.135-.105-.202-.257-.202-.456 0-.073.016-.142.048-.206 0-.035.003-.06.008-.077.003-.005.004-.01.004-.016-.089.032-.176.089-.262.17-.162.15-.242.33-.242.537 0 .083.014.167.044.25.083.124.2.227.351.311.022.005.042.01.06.016.197.092.4.128.61.11.466-.044.842-.242 1.127-.594.108-.138.192-.276.25-.416.02-.049.037-.097.053-.146-.003-.056-.01-.109-.024-.157-.003-.068-.012-.13-.028-.19 0-.003-.002-.005-.004-.008-.07-.21-.16-.401-.27-.574-.033-.043-.068-.085-.106-.125-.143-.159-.31-.292-.505-.4-.32-.183-.68-.255-1.078-.218zm1.405 1.426l.004.093.008.048-.012-.141z" clip-rule="evenodd"/>
    <path fill="#8A909A" fill-rule="evenodd" d="M39.698 50.85l-2.27.053 22.119-9.728 21.646 8.682-1.418.032-20.24-7.717-19.837 8.679zm20.019-5.71c-.326.043-.629.138-.909.283-.065.032-.17.098-.315.198-.396.293-.649.73-.76 1.312-.002.008-.003.016-.003.025-.016.107-.027.214-.033.319.02-.114.046-.22.081-.32.135-.406.357-.725.667-.957.145-.096.25-.161.315-.193.282-.146.585-.24.908-.283.399-.038.758.035 1.078.218.194.108.363.24.505.4.038.04.073.082.105.125.11.172.2.363.27.573.004.003.005.006.005.008.016.06.026.123.028.19.014.049.022.101.024.158.049-.178.057-.358.025-.541-.003-.065-.012-.127-.029-.186 0-.003-.001-.007-.004-.012-.07-.21-.161-.4-.274-.57-.03-.045-.065-.087-.105-.125-.143-.159-.31-.292-.501-.4-.32-.183-.68-.257-1.078-.222zm.173 1.583l-.032-.012c-.081-.021-.158-.026-.23-.012-.114.027-.221.096-.324.206-.019.03-.039.06-.06.089-.1.143-.15.3-.15.473-.002.032-.001.066.004.1.003.044.008.085.016.126.027.083.066.157.117.222-.03-.084-.044-.167-.044-.25 0-.208.08-.387.242-.538.087-.08.174-.137.263-.17.024-.067.069-.136.133-.206.022-.01.043-.02.065-.028zm-.21.328c-.003.024-.004.052-.004.084 0 .11.036.22.11.328.093.132.217.198.37.198.267 0 .483-.096.647-.287.014-.022.029-.04.045-.057.105-.15.163-.324.173-.52v-.05c0-.013.003-.014.008-.003l.017.093c.01.043.012.146.004.31-.011.162-.082.32-.214.473-.135.151-.324.227-.566.227-.175 0-.32-.045-.436-.134-.135-.105-.202-.257-.202-.456 0-.073.016-.142.048-.206zm1.397-.008c0-.017-.001-.047-.004-.093l.013.141-.009-.048zm-2.6.213c-.006.043-.007.085-.004.126.002.083.014.168.036.254.113.48.338.837.674 1.074.078.057.163.105.255.146.12.045.237.083.347.113.283.067.561.08.836.036.603-.073 1.082-.29 1.438-.654.14-.146.26-.313.36-.501.058-.119.107-.237.145-.355.032-.103.059-.201.08-.295.02-.081.033-.16.04-.239v.13c0 .527-.185 1.003-.557 1.425-.425.48-.969.72-1.631.72-.42 0-.821-.104-1.204-.312-.568-.315-.852-.795-.852-1.441 0-.09.012-.165.037-.227zM31.6 96.986h.303l.868-3.037 55.787.727.254 2.31h.53l-.291-3.122-56.716-.428-.735 3.55zm.953-39.852l-1.022.013.436-2.597 57.285-.844.033 2.83-.8.005-.182-2.322-55.79.832.04 2.084z" clip-rule="evenodd"/>
    <path fill="url(#paint5_linear)" d="M58.807 45.423c.28-.145.583-.24.909-.282.398-.035.758.039 1.078.222.191.108.358.24.5.4.041.037.076.08.106.125.113.17.204.36.274.57l.005.011c.016.06.025.122.028.186.032.183.024.364-.025.541-.016.049-.033.097-.052.146-.06.14-.143.278-.25.416-.286.352-.661.55-1.127.593-.21.02-.413-.017-.61-.109l-.06-.016c-.151-.083-.268-.187-.352-.31-.051-.065-.09-.14-.117-.223-.008-.04-.013-.082-.016-.125-.005-.035-.007-.069-.004-.101 0-.172.05-.33.15-.473l.06-.088c.102-.11.21-.18.323-.206.073-.014.15-.01.23.012.008.002.019.006.032.012-.021.008-.043.017-.064.028-.065.07-.11.139-.133.206 0 .006-.002.01-.005.016-.005.016-.008.042-.008.077-.002.024-.004.052-.004.085 0 .11.037.22.11.327.094.132.218.198.371.198.267 0 .482-.096.646-.287.014-.022.028-.04.044-.056.106-.151.163-.325.174-.521v-.049c0-.013.003-.015.008-.004.006-.105-.013-.213-.056-.323-.054-.132-.142-.233-.263-.303-.124-.075-.206-.121-.246-.137-.264-.113-.56-.125-.889-.037-.201.057-.383.148-.545.275-.094.073-.177.156-.25.25-.024.046-.053.096-.085.15-.127.202-.2.408-.218.618v.02c-.005.043-.007.085-.004.125.003.084.015.168.036.255.113.479.338.837.675 1.074.078.056.163.105.254.145.121.046.237.084.347.113.283.067.562.08.836.037.604-.073 1.083-.291 1.438-.655.14-.145.26-.312.36-.5.059-.119.107-.237.145-.356.032-.102.06-.2.08-.295.02-.08.033-.16.041-.238.038-.406-.027-.812-.194-1.216-.121-.271-.279-.526-.472-.763-.533-.667-1.375-.957-2.524-.868-.315-.027-.716.066-1.204.279-.315.145-.623.358-.925.638-.298.28-.572.766-.82 1.458-.048.145-.086.292-.113.44-.024.118-.038.242-.044.371-.038.644.268 1.264.917 1.862.649.598 1.491.876 2.528.836-1.136-.485-1.843-1.255-2.12-2.31-.022-.135-.027-.272-.016-.412.005-.105.016-.211.032-.319 0-.008.001-.016.004-.024.11-.582.363-1.02.76-1.313.145-.1.25-.165.314-.198z"/>
    <path fill="url(#paint6_linear)" d="M67.43 59.327h-.017l-.028.736.045-.736z"/>
    <path fill="url(#paint7_linear)" fill-rule="evenodd" d="M71.46 59.324h.133l-.836 31.019-3.15-.025 1.276-30.037 2.552.008.024-.965zm11.152.916l2.585.057.468 30.18-3.182-.033.13-30.204zm-42.382-.036l-2.96-.012.396 29.872 3.194.02-.63-29.88zm11.63.028l2.84.008 1.106 29.977-3.251-.032-.695-29.953z" clip-rule="evenodd"/>
    <path fill="url(#paint8_linear)" fill-rule="evenodd" d="M30.587 97.822l1.086-5.23 57.948.521.666 4.709h-59.7zm1.014-.835h57.742l-.29-3.122-56.717-.428-.735 3.55z" clip-rule="evenodd"/>
    <path fill="url(#paint9_linear)" d="M32.772 93.95l-.869 3.036h56.91l-.254-2.31-55.787-.727z"/>
    <path fill="url(#paint10_linear)" fill-rule="evenodd" d="M30.643 57.955l.388-4.418 59.417-1.014-.161 4.96-59.644.472zm.889-.807l1.021-.013 55.933-.593.8-.004-.033-2.831-57.285.844-.436 2.597z" clip-rule="evenodd"/>
    <path fill="url(#paint11_linear)" d="M32.514 55.05l.04 2.085 55.932-.594-.181-2.322-55.791.832z"/>
    <path fill="#8A909A" fill-rule="evenodd" d="M71.78 44.733l.617.965c-.027.038-.051.077-.073.117-.126.202-.207.328-.242.38-.06.094-.078.187-.056.278-.014.035-.026.072-.037.11v.153h-.04c-.084.317-.125.655-.125 1.013 0 .078.001.158.004.239.043.654.113 1.069.21 1.243.107.342.26.65.46.925.156.21.335.39.537.541.48.367 1.085.55 1.818.55.503 0 .95-.087 1.34-.259.455-.202.91-.548 1.365-1.038.47-.507.996-1.247 1.575-2.217l-7.354-3zm-25.604 1.276l-.04-.234-7.625 3.59c.75.315 1.395.552 1.934.71.919.272 1.958.426 3.118.46 1.158.028 2.064-.311 2.718-1.017.083-.091.13-.358.141-.8.003-.112.004-.22.004-.322 0-.302-.01-.55-.028-.743-.024-.27-.035-.407-.032-.412-.008-.06-.018-.122-.029-.186-.018-.146-.04-.292-.064-.44-.03-.202-.062-.404-.097-.606zm-9.312 5.314c.097-.463.209-.91.335-1.34l-5.254 2.471 4.73-.093c.031-.198.065-.393.1-.585.027-.151.057-.302.089-.453zm51.163.037l-8.816.17c.405-1.247.7-2.382.884-3.405l7.931 3.235zm-51.49 2.08c-.03.281-.053.566-.074.856v.052l.008.606V55.507l-.008.618c-.007.621-.025 1.215-.052 1.781l-5.767.049.388-4.418 5.504-.097zm53.76 2.128c-.041.18-.076.356-.106.529-.163-1.15-.292-2.34-.388-3.566l-10.992.19c-.702 2.058-1.268 3.68-1.696 4.866l13.173-.105.069-2.193c-.022.091-.043.184-.06.279zm-9.245 42.205c.044-.17-.045-.14-.266.09.464-.61 1.164-1.496 2.1-2.658.935-1.162 1.403-1.876 1.405-2.14l.687.004.028.218c.064.406.111.651.141.735-.23.747-1.03 1.864-2.403 3.352-.132.145-.259.278-.38.4h-1.312zM84.8 65.777c.113.609.285 1.322.517 2.14l-.141-9.183-3.87.065-.242 16.985c.352 1.668.74 3.432 1.163 5.29.87 3.802 1.384 6.075 1.543 6.817.214 1.025.374 1.882.48 2.573l.497.004c-.063-1.034-.14-2.622-.23-4.765-.097-2.23-.22-3.912-.367-5.048-.146-1.123-.537-2.234-1.175-3.332-.025-.248-.042-.497-.053-.747-.01-.259-.016-.922-.016-1.991 0-.01.083-1.33.25-3.958.146-2.25.228-3.834.247-4.749 0-.051.004-.1.012-.145.54.024 1.003.039 1.385.044zm-.461 25.317l.448.004c.037.539.081 1.04.133 1.502l-.54-.004c.02-.18.031-.366.031-.561 0-.24-.024-.553-.072-.941zm-48-32.04c.006-.07.012-.142.016-.215h-.012l-.005.214zM31.41 93.852l.263-1.26 1.046.007c-.115.205-.233.394-.355.566-.337.466-.632.699-.885.699-.022 0-.045-.004-.069-.012z" clip-rule="evenodd"/>
    <path fill="#000" fill-rule="evenodd" d="M33.277 18.6c.02.023.04.046.059.071.178.232.26.547.244.944-.012.346-.097.62-.255.823-.022.03-.047.059-.074.089.02-.141.02-.26.003-.36-.042-.207-.17-.322-.385-.344-.254-.037-.471.078-.652.344-.143.215-.261.529-.355.941l-.011.04c-.17.732-.293 1.248-.367 1.55-.025.088-.043.16-.056.214l-.014-.119c-.03-.21-.062-.384-.097-.522.037-.244.092-.632.163-1.163.003-.03.006-.062.011-.096.04-.29.09-.57.149-.845.056-.269.124-.533.203-.792.153-.516.38-.818.678-.904.296-.089.533-.06.711.089.03-.035.068-.068.115-.1.05-.035.104-.06.163-.078.077-.027.162-.04.256-.04.088 0 .177.013.266.04.267.077.539.263.815.56.077.083.145.155.204.214.094.097.164.162.21.197.161.125.322.188.482.188.213 0 .355-.053.426-.159.07-.101.1-.242.093-.422-.007-.18-.085-.287-.233-.319-.149-.034-.252-.024-.312.03-.051.05-.077.104-.077.163 0 .081.026.146.078.192.044.035.095.052.151.052.03 0 .051-.003.063-.01.01-.016.021-.028.034-.038-.047.062-.08.103-.1.122-.04.042-.076.063-.108.063-.099 0-.184-.045-.255-.137-.074-.091-.111-.205-.111-.34 0-.114.055-.236.166-.367.131-.156.331-.23.6-.226.358.005.678.186.96.544.281.358.306.886.074 1.582-.074.217-.168.401-.282.552-.062.079-.127.147-.196.204-.032.03-.067.056-.104.081-.079.054-.162.096-.248.126-.156.062-.328.094-.519.096-.303.005-.568-.022-.792-.081-.136-.032-.257-.08-.363-.14-.104-.058-.195-.126-.274-.205-.03-.027-.057-.054-.082-.081-.252-.24-.486-.36-.703-.36-.018.04 0-.055.055-.285.054-.222.082-.375.082-.459 0-.291-.056-.55-.167-.778-.091-.192-.199-.306-.322-.34zm-3.642 71.3c-.056.077-.117.138-.181.182.18.482.295.895.345 1.24l.007.045c.022.193.033.56.033 1.104 0 .343-.017.68-.052 1.008-.066.642-.202 1.257-.407 1.844-.002.005-.004.01-.004.015-.168.482-.273.803-.315.963-.093.38-.14.781-.14 1.204 0 .05.005.117.015.203.064.042.12.063.17.063.279 0 .605-.258.978-.774.242-.338.469-.733.681-1.185.104-.22.205-.454.304-.704.311-.795.522-1.569.633-2.322.057-.38.03-.819-.081-1.315.242.262.385.405.43.43.049-.111.108-.29.177-.534.02-.056.038-.117.056-.181l.06-.222c.056-.245.084-.452.084-.623 0-.123-.028-.263-.085-.418-.047-.129-.111-.27-.193-.426-.185-.336-.458-.574-.818-.715-.383-.126-.682-.238-.896-.337-.02-.007-.038-.015-.052-.022-.037.145-.104.325-.2.537-.17.358-.353.672-.549.94zm-4.403 4.26c-.21.01-.348.044-.415.104-.02.017-.035.037-.045.059l-.022.148c0 .027.005.062.015.104-.012-.003-.023-.004-.033-.004-.025.106-.06.219-.108.337-.079.19-.19.391-.333.604-.237.348-.337.765-.3 1.252.037.491.078.82.122.985.04.166.189.287.448.363.252.077.431.101.537.074.107-.03.149-.137.126-.322.131.323.316.547.556.67.24.119.56.201.963.248.4.047.901.015 1.504-.096.605-.109.774-.29.507-.544-.215-.21-.579-.388-1.093-.534-.513-.148-.907-.316-1.181-.503-.274-.193-.45-.445-.526-.756-.082-.311-.11-.791-.085-1.44-.005-.003-.005-.005 0-.005.002-.088.006-.175.01-.259.003-.024.007-.045.012-.063.035-.232-.011-.363-.137-.392-.136-.032-.31-.042-.522-.03zm9.82-71.24c-.045-.067-.09-.1-.138-.097-.074.005-.133.104-.178.296-.044.195-.056.431-.037.708.02.264.062.49.126.677.064.188.136.278.215.27h.011c.074-.011.132-.109.174-.292.045-.195.057-.426.037-.692-.017-.277-.059-.506-.126-.69-.027-.078-.055-.139-.085-.18zm-1.835-.193c.037-.045.073-.08.107-.108.087-.064.16-.082.219-.055.091.034.13.153.115.355-.013.2-.07.426-.17.678-.05.119-.105.225-.164.319-.061.108-.13.202-.207.281-.131.15-.242.208-.334.17-.084-.032-.118-.151-.103-.359.012-.2.069-.423.17-.67.106-.252.228-.456.367-.611z" clip-rule="evenodd"/>
    <path fill="#B89E86" fill-rule="evenodd" d="M29.039 86.982c.109-.08.257-.05.444.085.186.138.38.315.586.53.064.064.12.127.166.189.018.024.035.05.052.077.072.112.113.213.123.304.004.07-.004.154-.026.256-.038.145-.104.324-.2.537-.17.358-.354.671-.549.94-.056.077-.117.137-.181.182-.101.064-.225.085-.37.063.14-.089.345-.353.614-.793.092-.153.172-.299.241-.437-.022-.163-.132-.358-.33-.585-.212-.242-.363-.363-.452-.363-.024 0-.067.019-.13.056.097-.225.017-.494-.24-.808.064-.079.148-.157.252-.233zm-2.5 5.948c.045.09.068.274.07.556.003.279-.02.484-.066.615-.03.094-.058.171-.085.233l-.034.07c-.037.072-.098.115-.185.13-.126.022-.242.038-.348.048.035-.232-.011-.363-.137-.392-.136-.032-.31-.042-.522-.03-.21.01-.348.044-.415.104-.02.017-.035.037-.044.059l-.023.148c-.005.032-.01.066-.018.1-.232-.022-.419-.091-.56-.207-.012-.01-.023-.024-.033-.041-.002-.005-.003-.012-.003-.022 0-.106.075-.185.225-.237.183-.06.497-.09.941-.09.148 0 .288.013.419.038l.044.007c.156.018.253-.065.293-.248.042-.2.06-.42.055-.663-.007-.247-.092-.413-.255-.5.113.015.216.032.307.052.042.01.105.035.19.074.08.04.142.105.184.196z" clip-rule="evenodd"/>
    <path fill="#DCC2A9" fill-rule="evenodd" d="M29.028 88.023c.062-.037.105-.056.13-.056.089 0 .24.121.452.363.197.227.307.422.33.585-.07.138-.15.284-.242.437-.269.44-.474.704-.614.793-.102-.017-.215-.053-.341-.108-.306-.138-.506-.256-.6-.355-.099-.104-.19-.248-.274-.433-.084-.186-.031-.43.159-.734.207.218.391.275.552.174.04-.022.075-.056.107-.103.09-.114.195-.283.319-.508 0-.005.001-.008.004-.011l.018-.044zm-3.863 4.559c.11-.002.233-.001.367.004l.166.007.16.015c.162.086.248.253.255.5.005.242-.014.463-.056.663-.04.183-.137.265-.292.248l-.045-.007c-.13-.025-.27-.037-.418-.037-.445 0-.758.03-.941.089-.15.051-.226.13-.226.237 0 .01.001.017.004.022-.111-.136-.146-.408-.104-.815.047-.452.166-.722.356-.811.091-.042.22-.073.389-.093.054-.007.112-.012.174-.015l.21-.007z" clip-rule="evenodd"/>
    <path fill="#A47344" fill-rule="evenodd" d="M32.635 54.936c.007-.005.016-.008.025-.008.188.003.377.002.567-.003-.022.13-.044.27-.067.418l-.044.233c-.044.265-.089.51-.133.738.126-.008.263-.018.41-.03-.142 1.605-.21 2.546-.203 2.822.01.274-.037 1.031-.14 2.27-.1 1.24-.259 2.558-.478 3.953-.218 1.395-.583 3.24-1.097 5.537-.516 2.294-.86 3.828-1.03 4.6-.172.768-.376 1.639-.61 2.612-.378.75-.835 1.627-1.371 2.63-.556 1.118-.985 2.203-1.289 3.255-.032.114-.083.346-.152.697-.047-.08-.089-.159-.126-.238-.279-.553-.568-1.164-.866-1.833l-.004-.411c-.003-.252.066-.685.207-1.3.133-.62.504-1.388 1.111-2.304.433-2.052.683-3.85.752-5.397.064-1.548.187-3.412.367-5.593.178-2.18.15-3.79-.085-4.83-.018-1.422-.65-.829-1.9 1.779-1.252 2.607-2.325 4.7-3.22 6.278-.898 1.58-1.476 2.71-1.733 3.389-.256.681-.436 1.361-.54 2.04-.099.672-.077 1.12.066 1.341.09.136.182.239.278.308.052.022.103.047.152.074.793.417 1.521 1.03 2.185 1.84.655.798 1.273 1.83 1.856 3.097.388.842.787 1.577 1.196 2.204.408.62.828 1.193 1.26 1.719l1.007 1.233.04-.033c-.004.014-.01.03-.018.044-.002.003-.003.006-.003.011-.124.225-.23.394-.319.508-.032.046-.068.081-.107.103-.16.102-.345.044-.552-.174l-.53-.603-.13-.149c-.002-.005-.006-.008-.01-.01-.08-.095-.157-.185-.234-.271-.175-.203-.35-.401-.522-.597-.195-.222-.387-.44-.574-.655-.148-.173-.297-.343-.445-.511-.605-.692-1.176-1.343-1.715-1.956-2.674-3.06-4.391-5.088-5.152-6.085-.19-1.96.274-4.522 1.393-7.682 1.121-3.163 2.021-5.761 2.7-7.793.267-.795.509-1.524.726-2.186.336-1.042.612-1.925.83-2.652.217-.745.392-1.674.526-2.785.202.109.412.215.63.319.096.044.193.086.292.126-.003-.02-.003-.037 0-.052.017-.319.099-.792.244-1.419.17.082.347.157.53.226-.012.07-.027.135-.044.196-.092.477-.155.9-.19 1.267.139.057.287.11.445.16.264.09.537.176.819.255l.226.056c.143.04.289.076.437.11.318.077.652.146 1 .208.397.077.786.135 1.166.174.692.087 1.349.127 1.971.122.064-.284.121-.612.17-.985.018-.13.034-.267.049-.407zm-7.008 31.65c.055-.072.137-.108.248-.108.11 0 .24.158.393.474.128.26.195.484.2.674l-.022.137c-.022.112-.043.227-.063.345-.452 2.538-.68 4.033-.685 4.485l-.167-.007c-.133-.005-.255-.006-.367-.004l-.21.008c-.063.002-.12.007-.175.014l.682-4.648c.012-.289.027-.574.044-.856 0-.03.001-.057.004-.085l.003-.022c.015-.188.054-.323.115-.407z" clip-rule="evenodd"/>
    <path fill="#835B32" fill-rule="evenodd" d="M33.191 59.106c-.007-.276.06-1.217.204-2.822.052-.008.106-.014.163-.019.148-.014.499-.07 1.052-.166-.02 1.434-.084 2.74-.193 3.918-.093 1.025-.222 1.955-.385 2.79-.46 2.345-.815 4.12-1.067 5.326-1.479 6.691-2.371 10.325-2.678 10.9-.306.578-.688 1.35-1.148 2.315-.464.963-.82 1.83-1.066 2.6-.203.63-.34 1.123-.412 1.478-.017.077-.03.15-.037.219l.252.359c.146.212.304.434.474.667l.137.174c.092.12.192.244.3.37.257.314.337.583.241.807l-.04.034-1.008-1.234c-.432-.526-.852-1.098-1.26-1.718-.41-.627-.808-1.362-1.196-2.204-.582-1.267-1.201-2.299-1.855-3.096-.665-.81-1.393-1.424-2.186-1.841-.05-.027-.1-.052-.152-.074-.096-.07-.189-.172-.277-.308-.144-.222-.166-.669-.067-1.34.104-.68.284-1.36.54-2.041.258-.68.835-1.81 1.734-3.39.894-1.577 1.967-3.67 3.219-6.278 1.25-2.607 1.883-3.2 1.9-1.777-.304.654-.928 1.846-1.874 3.577-.95 1.727-1.805 3.286-2.563 4.678-.763 1.393-1.384 2.59-1.863 3.59-.484 1-.574 1.887-.27 2.663.513.264 1.052.655 1.618 1.174.56.511 1.04 1.117 1.44 1.818.398.702.761 1.423 1.09 2.163l.074.17c.299.67.587 1.281.866 1.834.037.08.08.158.126.237.07-.35.12-.582.152-.696.304-1.052.734-2.137 1.29-3.256.535-1.002.992-1.879 1.37-2.63.234-.972.438-1.843.61-2.61.171-.774.514-2.307 1.03-4.6.514-2.297.88-4.143 1.097-5.538.22-1.395.379-2.713.478-3.952.103-1.24.15-1.997.14-2.27zm-6.068 28.376c-.032.13-.064.265-.096.404-.299 1.271-.577 2.792-.834 4.563l-.03.21c-.09-.019-.193-.036-.307-.051l-.159-.015c.005-.452.233-1.947.685-4.485.02-.119.041-.234.063-.345l.023-.137c-.005-.19-.072-.415-.2-.674-.154-.316-.284-.474-.393-.474-.111 0-.194.036-.248.108-.062.084-.1.22-.115.407.022-.437.046-.862.07-1.274.148.168.297.338.445.51.187.216.379.434.574.656.173.196.347.394.522.597z" clip-rule="evenodd"/>
    <path fill="#5E2E19" fill-rule="evenodd" d="M25.613 53.347c.143.072.291.14.444.207-.145.627-.227 1.1-.244 1.419-.003.015-.003.032 0 .052-.099-.04-.196-.082-.293-.126-.217-.104-.427-.21-.63-.319.013-.086.024-.174.034-.263.042-.405.08-.834.115-1.289l.115.07c.145.087.298.17.459.249zm.974.433c.089.035.18.072.27.112.01.002.02.006.03.01.319.114.65.222.997.323l-.267 1.433c-.282-.079-.555-.164-.819-.255-.158-.05-.306-.103-.444-.16.034-.367.097-.79.189-1.266.017-.062.032-.127.044-.197zm7.074 1.163c-.091.005-.173.006-.244.004-.074-.003-.137-.01-.19-.023-.021.131-.044.27-.066.42l-.044.232c-.045.265-.09.51-.134.737.126-.007.263-.017.411-.03.052-.007.107-.013.163-.018.149-.014.5-.07 1.052-.166l.008-.685v-.615c-.39.081-.709.13-.956.144zm-3.034.4c.013-.047.024-.096.034-.148.034-.138.065-.27.092-.396.657.084 1.284.13 1.882.137-.015.14-.031.276-.048.407-.05.373-.107.701-.17.985-.623.005-1.28-.036-1.971-.122.04-.198.1-.485.181-.863z" clip-rule="evenodd"/>
    <path fill="#E5A44D" d="M30.628 55.343c.012-.047.023-.096.033-.148.034-.138.065-.27.092-.396-.31-.037-.632-.087-.963-.148-.496-.08-.969-.178-1.418-.297l-.37-.096c-.04-.012-.08-.024-.12-.033l-.266 1.433.226.056c.143.04.29.076.437.11.319.077.652.146 1 .208.398.077.787.135 1.167.174.04-.197.1-.485.181-.863z"/>
    <path fill="#8BCCEB" d="M38.935 44.117c-.007 0-.016.001-.025.004.014.032.03.06.048.084-.01-.03-.018-.059-.023-.088z"/>
    <path fill="#5C97B4" d="M39.055 43.295c.079.163.204.287.374.374.025.002.052.003.082.003.061 0 .122-.003.181-.01l-.074-.156-.2-.46c-.225-.506-.398-.903-.518-1.192-.003.04-.004.157-.004.352 0 .5.053.864.159 1.089z"/>
    <path fill="#7EBCDA" fill-rule="evenodd" d="M23.008 36.594c.044-.271.147-.615.308-1.03.251-.659.58-1.295.985-1.907-.235.815-.466 1.778-.693 2.889-.057.437-.105.863-.144 1.278-.134-.462-.286-.872-.456-1.23zm14.075.267c-.04.175-.071.352-.096.53-.178 1.205-.167 2.081.033 2.63.025.066.05.13.078.192.042.64-.101 1.52-.43 2.644-.138.46-.302.96-.492 1.5l.137-.007c.291-.015.599-.04.922-.078l.33-.033c.257-.704.48-1.48.67-2.33.136.198.24.374.315.53l.244.507c.06.129.12.263.182.404.101.166.232.268.392.307.02.005.04.01.06.012-.17-.087-.295-.211-.374-.374-.107-.225-.16-.588-.16-1.09 0-.194.002-.312.004-.351l-.015-.034c.035-.227.088-.479.16-.755.024-.111.061-.224.11-.337-.11-.274-.23-.52-.359-.737-.158-.272-.432-.621-.822-1.049-.316-.35-.536-.684-.66-1-.113-.291-.19-.651-.229-1.081zm-2.13 10.908l-.066-.033c-.067.175-.13.348-.193.518-.36 1.005-.614 1.89-.763 2.656-.02.101-.04.23-.059.389-.086.701-.157 1.916-.211 3.644.247-.014.566-.063.956-.144l-.008-.663v-.063c.07-.98.184-1.908.345-2.782.03-.165.061-.33.096-.496.195-.94.447-1.819.756-2.634-.183-.081-.37-.166-.56-.255-.064-.032-.13-.063-.196-.093-.03-.015-.062-.03-.096-.044z" clip-rule="evenodd"/>
    <path fill="#DA9A6D" fill-rule="evenodd" d="M30.599 21.734c-.05.025-.1.064-.148.119-.183.192-.275.518-.275.977 0 .46.072.86.215 1.2.141.336.341.55.6.641-.064.215-.154.607-.27 1.175-.017.064-.032.13-.045.196l-.007.044c-.104.55-.026 1.037.233 1.46.06.09.128.181.204.27 0 .005.003.011.007.018.438.494.931.844 1.482 1.049.55.2 1.089.22 1.615.063.333-.107.614-.214.84-.323l.012-.003c.123-.065.23-.129.322-.193.254-.185.428-.364.522-.537.013-.025.025-.05.037-.078-.024.025-.145.137-.363.337-.113.099-.29.187-.53.263-.231.067-.523.124-.873.17-.724.095-1.333-.014-1.826-.325-.497-.311-.847-.616-1.052-.915-.205-.301-.278-.794-.219-1.478.055-.687.087-1.1.097-1.24.007-.08.023-.213.048-.4.03-.248.075-.593.137-1.038-.1.378-.185.72-.26 1.026-.16.156-.354-.014-.581-.507-.23-.497-.204-1.153.078-1.97zm8.556 18.994c-.05.113-.086.226-.11.337-.073.276-.126.528-.16.755l.015.034c.12.289.294.686.518 1.192l.2.46c.025.05.05.1.074.155.07.16.14.32.211.478.18.022.39.057.626.104.102.017.206.037.315.059.193.037.403.081.63.133.17.04.334.094.493.163.061.025.123.053.185.086-.233-.378-.71-.678-1.434-.9-.022-.008-.047-.014-.074-.019-.089-.03-.201-.062-.337-.096-.04-.094-.074-.185-.104-.274l-.748-1.897c.022-.155.062-.316.119-.481.034-.111.076-.225.126-.341.205-.467.5-.906.885-1.319.395-.424.828-.76 1.3-1.007.511-.264 1.014-.396 1.508-.396.165 0 .316.02.451.063-.192-.228-.554-.319-1.085-.275-.733.06-1.5.48-2.3 1.26-.519.506-.9.973-1.145 1.4-.064.111-.117.22-.159.326zm-1.552-17.479c.037.136.043.313.019.53-.035.34-.204.718-.508 1.133l-.085.111c-.27.341-.516.542-.74.604l.014-.207c0-.045.003-.09.008-.137.002-.06.007-.121.014-.186.294-.138.553-.377.778-.718.27-.418.436-.794.5-1.13zm-10.44 21.272v-.075c0-.004.002-.012.007-.022.123.035.268.068.433.1.121.025.274.072.46.141.11.042.172.057.184.044.01-.01.015-.023.015-.04 0-.042-.11-.111-.333-.208-.188-.086-.363-.155-.526-.207-.192-.067-.33-.135-.415-.204-.052-.042-.095-.09-.13-.144-.066-.109-.1-.24-.1-.393 0-.076.008-.132.023-.166.007-.023.017-.041.03-.056l-.067-.063-.019-.019c-.022.013-.044.028-.066.045-.032.02-.058.043-.078.07-.087.109-.106.266-.06.47.06.257.17.427.33.508.003.005.005.008.008.008.022.012.048.023.077.033-.027.447.108.732.404.855-.168.27-.089.532.237.79.012.004.025.014.037.029-.007-.007-.016-.015-.026-.022-.084.126-.06.316.07.57.131.26.461.448.99.567.523.12.996.166 1.418.137.425-.03.753-.121.985-.274.228-.153.48-.214.756-.182.274.027.68.115 1.219.263.538.143 1.159.363 1.863.66l.066.033.097.044c.066.03.132.06.196.093.19.089.377.174.56.255 1.293.59 2.36 1.01 3.2 1.256 1.012.299 2.159.467 3.44.504 1.28.032 2.28-.342 3.004-1.122.092-.1.143-.394.156-.886l.003-.351c-.066.676-.517 1.11-1.351 1.303-.84.195-1.57.262-2.19.2-.627-.059-1.382-.184-2.266-.374-.887-.192-1.846-.463-2.878-.811-.711-.24-1.336-.47-1.874-.689-.245-.101-.472-.199-.682-.293-.67-.308-1.357-.487-2.063-.537-.711-.049-1.227.018-1.548.2-.324.183-.62.288-.89.315-.263.023-.526.018-.788-.014-.262-.033-.472-.064-.63-.093-.165-.03-.34-.103-.522-.219-.146-.091-.216-.245-.211-.463.113.065.252.111.415.141.143.027.101-.022-.126-.148-.153-.06-.282-.146-.385-.26-.116-.12-.177-.222-.182-.303-.005-.08.004-.13.026-.156.02-.027.043-.042.07-.044l.078.04c.096.038.246.09.448.16.015 0 .029.002.041.007.027 0 .04-.01.04-.03 0-.041-.051-.083-.155-.125-.14-.054-.253-.101-.337-.141-.326-.163-.489-.399-.489-.707zm1.966-2.256c-.366-.003-.535.073-.508.226.032.182.099.31.2.381.101.07.219.095.352.078.131-.017.337-.016.619.004.284.015.468.08.552.196-.08-.007-.177-.011-.293-.011-.227 0-.528.055-.904.167-.101.032-.195.058-.281.077l-.741-1.43c.042.01.088.028.137.053.17.086.275.135.315.148.103.034.287.071.552.11zm-7.857-6.879c.013-.002.029-.003.049-.003h.014c.44 0 .868.426 1.286 1.278.306.634.558 1.412.755 2.333.02-.38.05-.77.09-1.17-.134-.462-.286-.872-.456-1.23-.09-.183-.182-.352-.278-.508-.4-.644-.822-.966-1.267-.966-.025 0-.048.001-.07.003-.042.084-.083.172-.122.263zm-8.815-1.977c.18-.338.452-.506.815-.504.358 0 .596.057.715.17.116.114.173.222.17.323-.002.103-.03.18-.081.23-.05.049-.122.086-.219.11-.103.005-.235-.013-.396-.055-.215-.057-.315-.154-.3-.293l-.04.008c-.164.032-.29.086-.382.163-.06.108-.077.242-.052.4.027.155.165.279.415.37.244.09.355.188.333.296-.025.104-.018.239.019.404.232.385.502 1.241.81 2.567.505 2.158.822 3.453.953 3.885.259.875.818 1.787 1.678 2.738.363.402.71.727 1.044.974.338.254.601.381.789.381.346 0 .857-.25 1.533-.748 1.159-.852 2.202-1.85 3.13-2.993.005.097.013.193.022.29.03.315.067.62.111.914-.442.509-.95 1.015-1.526 1.519-.148.126-.295.247-.44.363-1.563 1.093-2.605 1.622-3.126 1.585-.521-.035-1.153-.38-1.897-1.034-.745-.651-1.323-1.565-1.733-2.74-.412-1.176-.726-2.573-.94-4.193-.22-1.618-.447-2.753-.679-3.408-.365-.185-.643-.373-.833-.563-.19-.19-.305-.32-.345-.392-.076-.131-.143-.248-.2-.352.166.16.383.022.652-.415zm3.03-6.297c-.037-.042-.082-.072-.137-.089v.093c0 .005-.064.262-.192.77-.131.506-.197.845-.197 1.015 0 .235.05.572.152 1.011.099.44.148.733.148.882 0 .148-.035.432-.107.852-.05.264-.178.586-.385.966.066.183.13.407.192.67 0 .033-.014.166-.044.4-.03.235-.045.371-.045.408 0 .536.22 1.083.66 1.641-.223-.442-.38-.901-.47-1.378.177-.578.235-1.017.173-1.319-.069-.306-.108-.462-.118-.47.222-.306.353-.76.392-1.363.042-.709.016-1.252-.077-1.63-.1-.377-.149-.653-.149-.826 0-.234.05-.52.149-.859.093-.294.14-.447.14-.46 0-.083-.01-.155-.033-.214-.012-.04-.03-.073-.052-.1zm-2.574 5.252c-.234.057-.38.131-.437.223-.01-.01-.016-.019-.018-.026-.003-.008-.004-.026-.004-.056 0-.086.08-.175.237-.267.188-.103.415-.155.682-.155.202 0 .418.052.648.155.25.116.374.236.374.36 0 .024-.002.049-.007.074l-.041-.052c-.136-.163-.35-.26-.64-.289-.295-.035-.559-.024-.794.033zm1.333-.852c-.197-.17-.44-.263-.73-.277-.29-.02-.53.005-.718.074-.19.064-.318.179-.385.344.25-.148.546-.223.89-.226.342-.005.605.047.788.156.18.106.3.202.36.289l.01.018c-.002-.007-.003-.015-.003-.022-.018-.13-.088-.25-.212-.356zm.104-.933c.232.176.348.355.348.537v.019c0 .05-.002.082-.007.1-.005.02-.013.04-.023.063-.007-.05-.02-.095-.04-.137-.052-.121-.14-.232-.263-.334-.205-.17-.473-.261-.804-.274-.33-.012-.583.006-.756.056-.172.044-.333.106-.481.185.069-.163.227-.29.474-.381.24-.092.496-.134.77-.126.272.007.533.105.782.292z" clip-rule="evenodd"/>
    <path fill="url(#paint12_linear)" d="M41.62 33.198c-.239-.218-.532-.405-.877-.563-.832-.247-1.623.184-2.37 1.292-.369.541-.667 1.097-.897 1.667-.166.417-.296.84-.393 1.267.04.43.116.79.23 1.081.123.316.343.65.66 1 .39.428.663.777.822 1.048.128.218.248.463.359.738.042-.107.095-.215.159-.326.244-.428.626-.894 1.145-1.4.8-.78 1.566-1.2 2.3-1.26.53-.044.892.047 1.085.274.052.057.092.125.122.204-.012-.047-.026-.093-.04-.137-.003-.007-.004-.014-.004-.018-.003-.003-.004-.005-.004-.008-.003-.007-.004-.015-.004-.022-.005-.012-.008-.025-.01-.037-.04-.153-.085-.315-.134-.485-.022-.097-.047-.195-.074-.297-.136-.479-.288-.932-.456-1.359-.178-.442-.376-.85-.596-1.222-.437-.741-.778-1.22-1.023-1.437z"/>
    <path fill="url(#paint13_linear)" d="M35.05 28.846c.003-.072.006-.147.011-.226-.002 0-.006 0-.01.003-.228.109-.508.216-.842.323-.526.158-1.064.137-1.614-.063-.551-.205-1.045-.555-1.482-1.049-.005-.007-.007-.013-.007-.018-.077.32-.152.6-.226.837-.141.47-.273.77-.397.904-.076.086-.202.153-.378.2-.375.503-.528 1.066-.459 1.689.072.622.383 1.192.934 1.71.55.522 1.168.782 1.852.782 1.096 0 1.969-.395 2.618-1.185.003 0 .004-.001.004-.004.089-.113.174-.292.255-.537.08-.249.14-.547.182-.892.037-.348-.019-.646-.167-.893-.037-.05-.068-.099-.092-.148l-.011-.03c-.023-.037-.04-.072-.052-.107-.062-.163-.101-.39-.119-.682-.01-.18-.01-.385 0-.614z"/>
    <path fill="#F7BA7F" fill-rule="evenodd" d="M33.336 18.67l-.06-.07c.124.035.231.148.323.341.111.227.167.486.167.778 0 .084-.028.237-.082.46-.054.229-.073.324-.055.284.217 0 .451.12.703.36.025.027.052.054.082.081.079.08.17.147.274.204.106.062.227.108.363.14.224.06.489.087.792.082.19-.002.363-.034.519-.096.002.143.006.278.011.403.015.485.021.852.019 1.104-.005.129-.008.252-.008.37-.005.169-.008.33-.01.482l-.008.411.081-.703c.139-.292.321-.445.548-.46h.034c.207-.005.368.063.481.204.042.054.073.122.093.204-.064.335-.231.712-.5 1.13-.225.34-.484.58-.778.718-.008.064-.012.126-.015.185-.005.047-.007.093-.007.137l-.015.208-.019.192c-.01.099-.03.345-.059.737-.025.247-.048.45-.07.608-.003.005-.004.01-.004.018-.012.082-.025.15-.037.204-.032.138-.084.28-.156.426-.024.025-.145.137-.362.337-.114.099-.29.186-.53.263-.232.067-.524.123-.874.17-.724.094-1.333-.015-1.826-.326-.497-.31-.847-.616-1.052-.915-.205-.3-.278-.793-.219-1.477.055-.687.087-1.1.097-1.241.007-.08.023-.213.048-.4.03-.247.075-.593.137-1.037-.099.378-.185.72-.26 1.026-.16.155-.354-.014-.581-.508-.23-.496-.204-1.153.078-1.97.047-.027.095-.04.144-.04.227 0 .385.094.474.284.015.032.03.07.045.115.02.052.038.111.055.178.035.138.067.312.097.522l.014.119c.013-.055.031-.126.056-.215.074-.301.196-.817.367-1.548.002-.013.006-.026.01-.041.095-.413.213-.726.356-.94.18-.268.398-.382.652-.345.215.022.343.137.385.344.018.099.017.219-.003.36.027-.03.052-.06.074-.09.158-.202.243-.476.255-.822.015-.397-.066-.712-.244-.944zM11.713 31.242c0-.069-.019-.185-.056-.348-.037-.163-.056-.271-.056-.326 0-.175.156-.39.467-.644.311-.254.854-.368 1.63-.34.153.017.3.051.44.103.1-.116.164-.311.193-.585.005-.529.017-.87.037-1.026.047-.316.153-.576.319-.778.158-.195.336-.293.533-.293.047 0 .09.006.13.019v.092c0 .005-.064.262-.193.77-.13.507-.196.845-.196 1.016 0 .234.05.571.152 1.01.098.44.148.734.148.882 0 .149-.036.433-.108.852-.049.265-.177.587-.385.967.067.183.131.406.193.67 0 .033-.015.166-.045.4-.03.235-.044.37-.044.408 0 .536.22 1.083.66 1.64.283.564.677 1.098 1.18 1.604.897.9 1.469 1.526 1.716 1.882.242.356.38.568.415.637.642-1.022 1.241-2.083 1.8-3.182.187-.37.37-.744.548-1.122.027-.057.054-.111.081-.163.013-.002.029-.004.048-.004h.015c.44 0 .868.426 1.285 1.278.307.635.558 1.413.756 2.334-.015.232-.025.462-.03.689-.014.491-.014.966 0 1.426.008.247.023.489.045.726-.929 1.143-1.972 2.14-3.13 2.992-.677.5-1.188.749-1.533.749-.188 0-.451-.128-.79-.382-.333-.247-.68-.572-1.044-.974-.86-.95-1.418-1.863-1.678-2.737-.13-.432-.448-1.727-.951-3.886-.31-1.326-.58-2.181-.812-2.566-.037-.166-.043-.3-.018-.404.022-.109-.09-.208-.334-.296-.249-.092-.387-.215-.414-.37-.025-.159-.008-.292.052-.4.09-.077.218-.132.381-.164l.04-.007c-.014.138.086.236.3.292.161.042.293.06.397.056.096-.025.17-.062.219-.111.051-.05.079-.126.081-.23.002-.101-.054-.209-.17-.322-.119-.114-.357-.17-.715-.17-.363-.003-.635.165-.815.503-.27.437-.487.576-.652.415-.106-.202-.176-.362-.211-.478-.012-.04-.022-.076-.03-.11l-.007-.038c-.005-.022-.009-.043-.011-.063-.01-.05-.015-.091-.015-.126 0-.042.02-.128.06-.259.039-.136.059-.217.059-.244 0-.04-.02-.126-.06-.26-.04-.133-.059-.222-.059-.266 0-.104.03-.234.093-.39.059-.16.088-.276.088-.348zm18.045 11.03c-.173.013-.383.01-.63-.007-.365-.002-.534.073-.507.226.032.183.099.31.2.382.101.07.219.095.352.078.13-.018.337-.016.619.003.284.015.467.08.551.197-.079-.008-.176-.011-.292-.011-.227 0-.529.055-.904.166-.101.032-.195.058-.281.078-.18.05-.308.085-.382.107l-.107.03c-.02 0-.037.001-.052.004-.047 0-.096.002-.148.007-.208.01-.445.006-.712-.01-.251-.02-.454-.086-.607-.197-.015-.012-.03-.024-.048-.033-.012.014-.022.033-.03.055-.015.035-.022.09-.022.167 0 .153.033.284.1.392.035.055.078.103.13.145.084.069.222.137.415.204.163.051.338.12.525.207.223.096.334.165.334.207 0 .018-.005.031-.015.041-.012.012-.074-.002-.185-.044-.185-.07-.338-.116-.46-.141-.165-.032-.31-.066-.433-.1-.005.01-.007.017-.007.022v.074c0 .309.163.545.489.708.084.04.196.086.337.14.103.042.155.084.155.126 0 .02-.013.03-.04.03-.013-.005-.026-.008-.041-.008-.203-.069-.352-.122-.448-.159l-.078-.04c-.027.002-.05.017-.07.044-.023.025-.031.077-.027.156.006.081.066.182.182.303.104.114.232.2.385.26.227.126.27.175.126.148-.163-.03-.301-.077-.415-.141-.005.217.066.372.211.463.183.116.357.189.523.219.158.03.368.06.63.092.261.032.524.037.788.015.27-.027.566-.132.89-.315.32-.183.836-.25 1.547-.2.707.05 1.394.228 2.064.537.21.094.437.191.681.293.538.22 1.163.45 1.874.689 1.032.348 1.992.618 2.878.81.884.19 1.64.316 2.267.375.62.062 1.35-.005 2.189-.2.834-.193 1.285-.627 1.352-1.304 0-.336-.01-.61-.03-.822-.027-.296-.04-.448-.037-.456l-.03-.2c-.022-.163-.046-.326-.074-.489-.032-.224-.066-.447-.103-.666-.045-.247-.09-.492-.137-.734l-.49-2.54c-.194-.983-.324-1.62-.388-1.912-.104-.499-.204-.932-.3-1.3-.01-.027-.017-.056-.022-.085l-.008-.037-.026-.1c-.03-.08-.07-.147-.122-.204-.136-.042-.286-.063-.452-.063-.494 0-.996.132-1.507.396-.472.247-.905.583-1.3 1.008-.386.412-.68.852-.886 1.319-.049.116-.09.23-.125.34-.057.166-.097.326-.119.482l.748 1.896c.03.09.064.18.104.274.136.035.248.067.337.097.027.005.052.01.074.018.723.222 1.201.522 1.433.9-.061-.032-.123-.06-.185-.085-.158-.07-.322-.123-.492-.163-.228-.052-.438-.096-.63-.133-.109-.023-.214-.042-.315-.06-.237-.046-.446-.081-.626-.103-.076-.01-.148-.018-.215-.023l-.1-.007h-.003c-.16-.007-.377-.005-.649.008.005.03.013.059.023.088-.018-.024-.034-.053-.049-.085-.355.018-.803.057-1.344.119-.109.01-.219.02-.33.033-.323.037-.63.063-.922.078-.264.052-.483.09-.656.115-.167.022-.37.044-.607.066-.222.018-.475.036-.76.056-.59.027-1.11-.019-1.562-.137-.455-.121-.646-.209-.574-.263-.16-.27-.329-.562-.504-.878-.294-.521-.64-.827-1.04-.918-.401-.094-.685-.134-.853-.12zm-2.17 3.723c.01.007.018.015.026.022-.012-.015-.025-.024-.037-.03.001.002.003.004.006.005l.005.003zM14.35 30.58c.233.175.349.354.349.537v.018c0 .05-.003.083-.008.1-.005.02-.012.041-.022.063-.007-.049-.021-.095-.04-.137-.053-.12-.14-.232-.264-.333-.205-.17-.473-.262-.803-.274-.331-.012-.583.006-.756.055-.173.045-.333.107-.481.186.069-.163.227-.29.474-.382.24-.091.496-.133.77-.126.272.008.532.105.781.293zm-.104.933c-.197-.17-.44-.263-.73-.278-.29-.02-.53.005-.718.074-.19.064-.319.18-.385.345.25-.148.546-.224.889-.226.343-.005.606.047.789.155.18.107.3.203.359.29l.011.018c-.002-.008-.004-.015-.004-.023-.017-.13-.087-.249-.21-.355zm-1.334.852c-.235.057-.38.13-.437.222-.01-.01-.016-.018-.019-.026-.002-.007-.003-.026-.003-.056 0-.086.079-.175.237-.266.187-.104.415-.156.681-.156.203 0 .419.052.648.156.25.116.374.236.374.36 0 .024-.002.049-.007.073l-.04-.052c-.136-.163-.35-.259-.642-.288-.293-.035-.558-.024-.792.033zm20.306-9.637c.036-.045.072-.08.107-.108.086-.064.16-.083.218-.055.092.034.13.153.115.355-.012.2-.069.426-.17.678-.05.118-.104.225-.163.319-.062.108-.13.202-.208.281-.13.15-.241.207-.333.17-.084-.032-.118-.152-.104-.359.013-.2.07-.423.17-.67.107-.252.23-.456.367-.611zm1.833.192c-.045-.067-.09-.099-.137-.096-.074.005-.134.104-.178.296-.044.195-.057.431-.037.708.02.264.062.49.126.677.064.188.136.278.215.27h.01c.075-.012.133-.109.175-.292.044-.195.057-.426.037-.692-.017-.277-.06-.507-.126-.69-.027-.078-.056-.139-.085-.18z" clip-rule="evenodd"/>
    <path fill="#71B2D1" d="M21.19 35.55c.027-.057.054-.112.081-.163.04-.092.08-.18.123-.264-.237.013-.438.098-.604.256-.012.01-.023.021-.033.033-.074.077-.13.16-.167.252l-.007.019c-.035.086-.052.179-.052.278 0 .103.016.242.048.414.022.124.043.223.063.297.188-.37.37-.745.548-1.122z"/>
    <path fill="#666" d="M26.857 40.487c-.012-.01-.026-.017-.04-.022l-1.467-.53c-.067-.022-.115-.025-.145-.007-.007.002-.01.006-.01.01-.063.075.119.522.544 1.341l.985 1.93.018.019c.023.02.045.04.067.063.017.01.033.02.048.033.153.111.356.177.608.196.266.018.503.021.71.011.053-.005.102-.007.149-.007.015-.002.032-.004.052-.004l.107-.03-1.148-2.31c-.099-.23-.199-.405-.3-.526-.06-.077-.119-.133-.178-.167z"/>
    <path fill="#CCC" d="M25.852 39.783c-.232-.089-.381-.099-.448-.03l-.2.175c.03-.018.078-.015.145.007l1.466.53c.015.004.029.012.041.022.06.034.119.09.178.166.101.121.201.297.3.526l1.148 2.312c.074-.023.201-.058.382-.108l-.741-1.43-.111-.218-.019-.033c-.046-.092-.09-.176-.13-.252l-.077-.141c-.089-.197-.173-.37-.252-.515-.13-.24-.255-.412-.374-.518-.042-.04-.084-.07-.126-.09-.012-.004-.025-.01-.037-.018l-1.145-.385z"/>
    <path fill="url(#paint14_linear)" d="M22.768 32.238c-.042.092-.083.185-.123.282-.427 1.054-.806 1.738-1.137 2.052-.33.313-.581.593-.752.84.01-.012.021-.023.034-.033.165-.158.366-.243.603-.255.023-.003.046-.004.07-.004.445 0 .867.322 1.267.967.097.155.19.324.278.507.045-.272.147-.615.308-1.03.252-.659.58-1.295.985-1.907-.235.815-.465 1.778-.693 2.889-.056.437-.105.863-.144 1.278-.04.4-.07.79-.089 1.17-.015.232-.025.462-.03.689-.014.491-.014.967 0 1.426.008.247.023.489.045.726.005.096.012.193.022.289.03.316.067.62.111.915.101.679.246 1.308.433 1.889l.038.126c.723 2.158 1.098 4.047 1.125 5.667v.077c.006.534-.008 1.061-.04 1.582-.008.14-.016.279-.026.415l-.015.233.115.07c.146.087.299.17.46.249.142.071.29.14.444.207.17.082.347.157.53.226.088.035.178.072.27.111.01.003.02.006.03.011.318.114.65.221.996.322.04.01.079.022.118.034l.37.096c.45.119.923.217 1.42.297.33.061.651.11.962.148.657.084 1.284.13 1.882.137.007-.005.016-.008.026-.008.187.003.376.002.566-.003.052.012.115.02.19.022.07.002.152.001.244-.004.054-1.728.124-2.943.21-3.645.02-.158.04-.287.06-.389.148-.765.403-1.65.763-2.655.062-.17.126-.343.193-.519-.704-.296-1.325-.516-1.863-.659-.539-.148-.945-.236-1.219-.263-.276-.032-.528.028-.756.181-.232.154-.56.245-.985.275-.422.03-.895-.016-1.418-.137-.529-.119-.858-.308-.99-.567-.13-.255-.154-.445-.07-.57-.005-.003-.008-.005-.01-.008-.327-.257-.406-.52-.238-.789-.296-.123-.43-.409-.404-.855-.03-.01-.055-.022-.077-.034-.003 0-.005-.002-.008-.007-.16-.082-.27-.25-.33-.508-.046-.205-.027-.361.06-.47.02-.027.046-.05.078-.07.022-.018.044-.032.066-.045l-.985-1.93c-.425-.82-.606-1.266-.544-1.34 0-.005.003-.009.01-.011l.2-.175c.067-.069.217-.059.449.03l1.144.385c.013.008.025.014.037.019.042.02.084.05.126.089.119.106.244.279.375.518.078.146.162.318.251.515l.078.14.13.253.018.033.111.218c.042.01.088.028.137.052.17.087.276.136.315.148.104.035.288.072.552.112.247.017.457.02.63.007.168-.015.452.025.852.119.4.09.747.397 1.04.918.176.316.344.609.504.878-.071.054.12.142.574.263.452.118.973.164 1.563.137.284-.02.537-.038.76-.056.237-.022.44-.044.607-.066.173-.025.392-.063.656-.115l-.137.007c.19-.54.354-1.04.492-1.5.329-1.123.472-2.005.43-2.644-.027-.062-.053-.126-.078-.193-.2-.548-.211-1.425-.033-2.63.024-.178.057-.354.096-.53.096-.426.227-.849.393-1.266.23-.57.528-1.126.896-1.667.748-1.108 1.538-1.54 2.37-1.292l-.059-.023c-.237-.074-.61-.147-1.118-.218-.511-.072-1.135-.22-1.87-.445-.74-.227-1.316-.512-1.73-.855-.284-.235-.498-.457-.641-.667.148.247.204.544.166.893-.041.345-.102.643-.181.892-.081.245-.167.424-.256.537 0 .003 0 .004-.003.004-.65.79-1.523 1.185-2.619 1.185-.684 0-1.301-.26-1.852-.781-.55-.519-.862-1.09-.933-1.711-.07-.623.084-1.186.459-1.69-.257.07-.62.1-1.089.09-1.007-.112-1.694-.225-2.06-.341l-.1-.037c-.029-.01-.054-.02-.073-.03-.344-.165-.708-.217-1.093-.155-.393.059-.782.233-1.167.522-.412.338-.997 1.15-1.755 2.433z"/>
    <path fill="#FDF992" d="M72.571 31.478v.022c0 .01.002.02.008.03.01.077.053.154.13.233v-.585c-.092.094-.138.194-.138.3z"/>
    <path fill="#DA9A6D" fill-rule="evenodd" d="M79.52.57h1.371l-3.778 5.248c-.627 1.005-.899 1.938-.815 2.8.245 1.32.288 2.591.13 3.811-.158 1.217-.397 2.354-.715 3.411-.319 1.055-1.106 2.147-2.363 3.278-.738.662-1.215 1.097-1.43 1.304-.514.501-.927.977-1.24 1.426-.769 1.079-1.174 2.306-1.216 3.682l.037.2c.121.837-.039 1.312-.481 1.426-.126.034-.247.045-.363.033.044-.198.06-.398.048-.6-.103-.593-.155-1.083-.155-1.47 0-1.354.337-2.545 1.01-3.575.265-.405.61-.83 1.038-1.274.185-.197.58-.585 1.185-1.163 1.045-1.005 1.785-1.89 2.222-2.656.675-1.192 1.012-2.602 1.012-4.23 0-.965-.1-1.769-.3-2.41-.126-.393-.197-.62-.212-.682-.061-.27-.092-.567-.092-.893 0-.617.088-1.136.263-1.555.165-.393.5-.898 1.004-1.515.33-.405 1.02-1.216 2.066-2.434.59-.704 1.182-1.425 1.775-2.163zM60.894 11.68c.54-.397 1.058-.635 1.552-.714.491-.084 1.68-.077 3.566.022 1.885.099 2.948.793 3.19 2.082.242 1.291.372 2.508.392 3.652-.081-.882-.494-2.046-1.237-3.493-.133-.21-.304-.39-.511-.537-.647-.474-1.901-.727-3.763-.76-1.867-.037-3.287.7-4.26 2.208-.968 1.506-1.383 2.72-1.244 3.64.133.92.18 1.865.14 2.838-.12.65-.38 1.42-.777 2.311-.4.89-.888 1.403-1.463 1.541-.578.134-.932.12-1.063-.04-.087-.104-.16-.22-.223-.349 1.447-.365 2.255-1.275 2.423-2.73.168-1.456.232-2.63.192-3.518-.042-.892-.005-1.525.111-1.9.117-.376.576-1.184 1.378-2.426.524-.825 1.056-1.434 1.597-1.826z" clip-rule="evenodd"/>
    <path fill="#F7BA7F" d="M77.746 2.732c.59-.704 1.181-1.425 1.774-2.163h-6.086c-.31.578-.575 1.026-.792 1.344-.615.9-1.541 1.546-2.778 1.941-1.237.398-2.824.984-4.76 1.76-1.936.775-3.286 1.317-4.052 1.626-.869.355-1.517.812-1.944 1.37-.158.284-.311.567-.46.848-.73 2.015-1.362 3.552-1.892 4.611-.534 1.057-.863 1.839-.99 2.345-.12.501-.113 1.103.023 1.804.136.701.218 1.379.248 2.033.027.657-.144 1.365-.515 2.123-.37.753-.513 1.243-.43 1.47.03.084.064.163.1.237 1.448-.365 2.255-1.275 2.423-2.73.168-1.456.232-2.63.193-3.518-.042-.892-.005-1.525.11-1.9.117-.376.576-1.184 1.379-2.426.523-.825 1.055-1.434 1.596-1.826.54-.398 1.058-.636 1.552-.715.491-.084 1.68-.077 3.567.022 1.884.099 2.947.793 3.189 2.082.242 1.29.373 2.508.392 3.651.023.228.021.438-.003.63-.008.07-.02.137-.037.204-.208.913-.463 1.643-.767 2.189-.309.54-.645 1.067-1.008 1.578-.365.508-.563 1.099-.592 1.77-.035.672-.052 1.27-.052 1.797 0 .526.2 1.075.6 1.648.277.395.584.612.922.652.045-.198.06-.398.048-.6-.103-.593-.155-1.083-.155-1.47 0-1.354.337-2.545 1.011-3.575.264-.405.61-.83 1.037-1.274.185-.198.58-.585 1.185-1.163 1.045-1.005 1.786-1.89 2.223-2.656.674-1.193 1.01-2.603 1.01-4.23 0-.965-.1-1.769-.3-2.41-.125-.394-.196-.62-.21-.682-.062-.27-.093-.567-.093-.893 0-.617.088-1.136.263-1.556.166-.392.5-.897 1.004-1.515.33-.405 1.02-1.216 2.067-2.433z"/>
    <path fill="url(#paint15_linear)" fill-rule="evenodd" d="M62.27 20.19c1.382-.015 2.57.462 3.563 1.43.987.965 1.49 2.138 1.507 3.519.015 1.385-.46 2.573-1.426 3.563-.968.99-2.142 1.492-3.522 1.507-1.385.018-2.572-.456-3.56-1.422-.992-.968-1.496-2.143-1.51-3.526-.018-1.383.457-2.57 1.425-3.56.966-.99 2.14-1.493 3.523-1.51zm3.196 1.804c-.89-.87-1.952-1.297-3.19-1.285-1.241.017-2.294.469-3.159 1.355-.866.887-1.292 1.95-1.277 3.19.014 1.24.466 2.293 1.355 3.163.887.864 1.948 1.289 3.185 1.274 1.242-.015 2.297-.466 3.164-1.352.864-.887 1.289-1.95 1.274-3.193-.015-1.237-.466-2.288-1.352-3.152z" clip-rule="evenodd"/>
    <path fill="#B87E1B" fill-rule="evenodd" d="M62.276 20.709c1.237-.012 2.3.416 3.19 1.285.886.864 1.336 1.915 1.351 3.152.015 1.242-.41 2.307-1.274 3.193-.867.887-1.921 1.337-3.163 1.352-1.237.015-2.299-.41-3.185-1.274-.89-.87-1.341-1.924-1.356-3.163-.015-1.24.411-2.303 1.278-3.19.864-.886 1.917-1.338 3.16-1.355zm2.96 1.519c-.825-.805-1.811-1.2-2.96-1.186-1.15.015-2.127.434-2.93 1.256-.802.82-1.196 1.805-1.18 2.956.012 1.15.43 2.128 1.255 2.933.82.8 1.805 1.193 2.956 1.178h.044c1.538-.112 2.74-.852 3.607-2.219.317-.6.47-1.264.46-1.992-.015-1.15-.432-2.126-1.252-2.926z" clip-rule="evenodd"/>
    <path fill="url(#paint16_linear)" d="M65.236 22.227c-.824-.805-1.81-1.2-2.959-1.185-1.15.015-2.127.433-2.93 1.256-.802.82-1.196 1.805-1.181 2.956.012 1.15.43 2.128 1.255 2.933.82.8 1.805 1.193 2.956 1.178h.044c1.538-.113 2.741-.852 3.608-2.219.316-.6.47-1.264.46-1.992-.016-1.151-.433-2.127-1.253-2.927z"/>
    <path fill="url(#paint17_linear)" d="M73.84 45.77v-.046l-.05.004c-.09.352-.135.724-.135 1.115 0 .09.001.179.004.266.05.724.126 1.181.23 1.373.125.38.296.72.516 1.023.172.234.367.434.585.6.533.402 1.203.603 2.011.603.556 0 1.05-.094 1.48-.284.506-.223 1.008-.605 1.508-1.146.679-.731 1.46-1.898 2.346-3.5.238-.515.472-1.06.7-1.635-.02-.4-.069-.774-.146-1.123.716-.877 1.214-1.9 1.492-3.069.028-.114.054-.23.077-.35-.005-.012-.007-.026-.007-.042-.22.53-.457 1.038-.708 1.523-.395.762-.941 1.672-1.638 2.73-.936 1.421-1.84 2.622-2.712 3.604-.229.259-.453.498-.673.72-.667.476-1.302.715-1.904.715-.936 0-1.676-.312-2.223-.935-.502-.572-.753-1.287-.753-2.146z"/>
    <path fill="url(#paint18_linear)" d="M86.734 35.686c-.033-.013-.065-.023-.096-.03-.246-.129-.465-.242-.657-.34-.505-.245-.841-.37-1.008-.376-.118-.008-.225.003-.323.03.02.265.03.435.03.512 0 .11-.044.718-.134 1.823-.097 1.103-.146 1.706-.146 1.812 0 .128.017.275.05.442 0 .015.003.03.008.042-.024.119-.05.236-.077.35-.279 1.17-.776 2.192-1.492 3.07.077.348.125.722.146 1.122 0 .06.002.117.007.173l.004.127c.005.17.008.344.008.523-.013.264-.032.539-.058.823-.143 1.577-.58 3.45-1.307 5.62-1.234 3.635-2.122 6.163-2.666 7.583-.543 1.416-.605 2.427-.184 3.035.387.549.89 1.127 1.511 1.734.085-.348.634-.636 1.646-.861 1.06-.241 2.839-.328 5.339-.262h.134c2.054.057 3.495.147 4.323.27.026 0 .051.003.077.011 0-.054.004-.106.011-.158.07-.14.115-.26.135-.357.085-.303.162-.696.23-1.18.08-.511.12-.898.12-1.162 0-.46-.095-1.46-.285-3.004-.18-1.53-.269-2.953-.269-4.265 0-2.556.164-5.12.492-7.692.229-1.761.488-3.233.777-4.415-.013-.08-.019-.141-.019-.185 0-.038.003-.077.008-.115.013-.428.11-.962.292-1.6.033-.136.072-.268.115-.396.118-.4.267-.836.447-1.308l.153-.4c-.069.008-.14.018-.211.03-.141.027-.32.04-.535.04-.187 0-.406-.007-.657-.02-.018-.008-.038-.011-.058-.011h-.058c-.169-.018-.443-.057-.823-.116V36.828c.013.234-.004.395-.05.485-.097.225-.536.338-1.315.338-.62 0-1.23-.096-1.83-.288-.778-.246-1.166-.58-1.166-1 0-.123.03-.285.088-.485-.233-.064-.475-.128-.727-.192z"/>
    <path fill="url(#paint19_linear)" d="M73.84 45.724v.046c0 .86.25 1.575.753 2.146.546.623 1.287.935 2.223.935.602 0 1.237-.239 1.904-.715.22-.222.444-.461.673-.72.872-.982 1.776-2.183 2.712-3.603.697-1.06 1.243-1.97 1.638-2.73.251-.486.487-.993.708-1.524-.034-.166-.05-.314-.05-.442 0-.105.048-.71.146-1.812.09-1.105.134-1.712.134-1.822 0-.077-.01-.248-.03-.512l-.02.004c-.246.073-.84 1.001-1.78 2.784-.96 1.826-1.643 3.045-2.05 3.658-.406.612-.797 1.158-1.173 1.638s-.692.835-.946 1.065c-.255.231-.454.284-.6.158l-.116-.111c-.126-.125-.231-.226-.315-.304-.428-.405-.922-.608-1.48-.608-.593 0-1.15.342-1.674 1.027-.298.39-.517.815-.657 1.273v.17z"/>
    <path fill="#603" fill-rule="evenodd" d="M86.455 66.435v.273c-.008.051-.012.105-.012.161-.017 1.008-.107 2.755-.269 5.242-.187 2.9-.28 4.356-.28 4.37 0 1.181.006 1.915.019 2.2.013.276.032.55.057.822.705 1.215 1.139 2.442 1.3 3.68.162 1.254.296 3.112.404 5.573.105 2.467.192 4.268.262 5.404.066 1.13.16 2.122.28 2.973.131.846.197 1.063.197.65.038.51-.302.995-1.02 1.454-.715.45-1.396.7-2.042.746-.654.051-1.122-.01-1.404-.185 1.536-.561 2.543-1.188 3.02-1.88.394-.58.592-1.303.592-2.17 0-.787-.236-2.311-.708-4.573-.174-.82-.742-3.329-1.704-7.526-1.577-6.93-2.707-12.658-3.392-17.184-.205-.646.144-.975 1.046-.988.91-.013 2.116 0 3.615.038.026.244.039.55.039.92zm5.102-.677c.195.03.36.075.497.134.128.06.205.295.23.708 0 .018.004.04.012.065.14 3.115.292 5.17.454 6.161.615 3.903 1.442 7.859 2.48 11.869 1.028 4.018 2.075 7.357 3.139 10.019 1.053 2.661 2.875 4.146 5.465 4.453-.511.531-1.299.69-2.366.477-1.071-.22-2.117-1.509-3.138-3.865-1.02-2.364-1.973-4.363-2.857-5.996-.885-1.628-1.638-3.407-2.258-5.338-.613-1.938-.89-3.301-.83-4.088l.084-1.212c-1.072-2.028-2.095-4.476-3.07-7.345-.71-2.093-1.181-3.775-1.414-5.046-.077-.464-.129-.875-.154-1.231 1.561.013 2.675.065 3.342.158.077.013.147.028.211.046.064.008.122.018.173.03z" clip-rule="evenodd"/>
    <path fill="url(#paint20_linear)" d="M87.469 62.639h-.135c-2.5-.067-4.279.02-5.338.261-1.013.226-1.561.513-1.646.862-.005.012-.008.025-.008.038v.677c0 .582.013.928.039 1.038.09.323.338.575.746.754.161.072.37.137.627.196-.205-.646.143-.975 1.046-.988.91-.013 2.115 0 3.615.038.026.244.038.55.038.92v.273c.6.025 1.11.04 1.531.046-.077-.464-.128-.875-.154-1.23 1.562.012 2.676.064 3.342.157.077.013.148.028.212.046.064.008.122.018.173.03.195.031.36.076.496.135.128.06.205.295.23.708l.332.008c.684-.09.946-.473.784-1.15v-1.523c-.005-.123-.018-.23-.038-.32-.013-.076-.026-.14-.039-.192-.033-.092-.282-.206-.746-.342-.09-.026-.183-.051-.28-.077-.11-.03-.253-.059-.427-.085-.026-.007-.052-.011-.077-.011-.829-.123-2.27-.213-4.323-.27z"/>
    <path fill="url(#paint21_linear)" d="M101.334 44.132c-.141.118-.277.228-.408.33-.056.208-.112.48-.165.816-.052.341-.09.737-.116 1.189-.005.135-.001.258.012.369.031.246.107.424.231.534.135.103.348.084.638-.057.118-.06.245-.14.381-.243.477-.356.754-.676.83-.961.077-.277.156-.596.235-.958-.213.285-.378.527-.496.727-.174.218-.262.205-.262-.038-.038.03-.077.069-.115.115-.29.315-.555.473-.796.473-.09 0-.163-.054-.219-.161-.054-.098-.081-.215-.081-.35 0-.357.11-.952.331-1.785z"/>
    <path fill="url(#paint22_linear)" d="M102.833 43.328c.013-.03.027-.056.042-.077-.053-.025-.121-.047-.203-.065-.085-.02-.312.118-.681.415-.18.141-.354.286-.523.435-.044.033-.089.065-.135.096-.22.833-.331 1.428-.331 1.784 0 .136.027.253.081.35.057.108.13.162.219.162.241 0 .507-.158.797-.473.038-.046.076-.085.115-.115-.013-.162.013-.41.077-.747v-.019c.149-.872.329-1.454.542-1.746z"/>
    <path fill="#E69595" d="M93.342 42.059c-.115-.503-.194-.892-.235-1.17-.013-.079-.021-.147-.027-.203-.29 1.182-.548 2.654-.776 4.415-.329 2.572-.493 5.136-.493 7.692 0 1.313.09 2.734.27 4.265.19 1.543.284 2.545.284 3.004 0 .264-.04.65-.12 1.161-.068.485-.145.878-.23 1.18-.02.098-.065.217-.135.358-.007.052-.011.104-.011.158.174.026.317.054.427.085.097.025.19.051.28.077.465.136.713.25.747.342.013.051.025.115.038.192.472-.548.82-1.01 1.046-1.384.187-.323.307-.608.358-.854.013-.103.02-.286.02-.55 0-.059-.078-.456-.232-1.192-.194-.957-.362-1.894-.503-2.812-.498-3.21-.746-6.694-.746-10.453-.034-.78-.044-1.483-.031-2.111.02-.69.075-1.29.165-1.8-.038-.131-.07-.264-.096-.4z"/>
    <path fill="url(#paint23_linear)" fill-rule="evenodd" d="M94.485 36.655h.058c.194 0 .33.062.407.185.072.115.133.23.185.346v.011c.315 1.247.653 2.338 1.015 3.273.041.118.083.229.127.331.09.22.18.43.273.63.005.019.012.038.02.059.179.387.366.742.56 1.065.111.187.224.364.34.53.607.86 1.147 1.29 1.618 1.29.472 0 .866-.09 1.181-.27.323-.174.568-.262.735-.262.13 0 .257.039.38.116.026.02.054.046.085.077-.044.033-.088.065-.135.096-.141.118-.277.228-.407.33-.057.208-.112.48-.166.816-.051.34-.089.737-.115 1.188-.005.136-.001.26.011.37-.284.658-.582 1.224-.892 1.695-.505.736-.948 1.104-1.327 1.104-.08 0-.16-.01-.243-.03-.885-.219-1.931-1.614-3.137-4.185-.757-1.613-1.407-3.243-1.95-4.892-.005.054-.014.106-.027.157-.013-.08-.02-.14-.02-.184 0-.038.003-.077.008-.115.013-.428.11-.962.293-1.6.033-.136.072-.268.115-.396.118-.4.267-.836.446-1.308.052-.13.103-.264.154-.4.149-.018.285-.027.408-.027zm-1.404 4.03c.005.057.014.125.027.205.04.276.119.666.234 1.169.026.136.058.269.096.4.587 2.453 1.227 4.435 1.92 5.945.948 2.08 1.933 3.12 2.953 3.12 1.008 0 1.841-.666 2.5-1.996.233-.47.42-.983.561-1.539.065-.264.116-.49.154-.677-.289.141-.502.16-.638.058-.123-.11-.2-.288-.231-.534-.284.659-.582 1.224-.892 1.696-.505.735-.947 1.103-1.327 1.103-.08 0-.16-.01-.243-.03-.885-.218-1.932-1.613-3.137-4.185-.757-1.612-1.407-3.243-1.95-4.891-.005.053-.014.106-.027.157v-.001z" clip-rule="evenodd"/>
    <path fill="#994118" d="M96.15 40.47c.04.118.082.229.126.331.13.013.267.02.408.02.349 0 .678-.026.988-.078-.543-.02-1.051-.111-1.523-.273z"/>
    <path fill="#fff" fill-rule="evenodd" d="M109.618 33.787v.011l-.012.008h-.007c.005.013.005.03 0 .05v.008l-.02-.047c-.012-.046-.046-.078-.1-.096l-.076-.038c-.206-.054-.354-.09-.447-.108l-.907-.196c-.187-.03-.353-.018-.496.038-.141.054-.267.21-.377.466l-1.627 3.665c-.008.013-.014.026-.019.038-.026.077-.043.148-.05.212h-.008c-.026-.085-.006-.198.058-.339.515-1.24 1.051-2.487 1.607-3.738.111-.254.255-.396.435-.427.174-.033.385-.024.631.027.238.06.619.15 1.142.273.169.031.26.095.273.193zM99.03 36.479c.013.054.016.102.008.146-.005.038-.015.084-.03.138-.026.044-.071.091-.135.143-.065.046-.17.063-.32.05-.14-.013-.273-.081-.396-.204-.123-.116-.182-.258-.177-.427.008-.167.06-.315.158-.446.123-.154.304-.267.542-.339h.135c.208.008.414.089.62.243.225.174.337.433.337.777.008.323-.111.646-.357.969-.303.392-.694.588-1.173.588-.677-.005-1.186-.26-1.527-.765-.241-.354-.362-.754-.362-1.2 0-.123.01-.236.031-.339v-.011c0-.013.007-.022.02-.027.012-.008.021-.012.026-.012.013 0 .027.007.043.02.005.007.007.014.007.019.039-.005.077-.012.116-.02.007-.004.011-.013.011-.026 0-.008.007-.018.02-.031.012-.008.025-.008.038 0-.051.136-.068.352-.05.65.02.29.154.613.4.97.244.353.611.536 1.104.55.49.012.851-.133 1.084-.436.234-.317.35-.608.35-.873-.007-.271-.092-.478-.254-.619-.174-.148-.361-.219-.561-.211-.136.013-.242.06-.32.142-.05.038-.093.08-.126.127-.034.038-.056.074-.07.108-.025.064-.038.138-.038.223 0 .102.036.192.108.269v.011c.072.09.172.139.3.147.026.005.049.007.07.007.012-.005.025-.007.037-.007h.008c.06-.008.105-.038.139-.089.03-.038.046-.09.046-.154 0-.046-.013-.086-.039-.119-.038-.03-.09-.046-.153-.046-.034 0-.066.015-.097.046l-.03.03c-.005.014-.012.023-.02.028l-.019.023c-.018 0-.027-.017-.027-.05 0-.039.016-.08.046-.127.008-.005.014-.008.02-.008.038-.038.087-.057.146-.057.038 0 .07.002.096.007.046.013.085.036.115.07.052.05.085.098.1.142z" clip-rule="evenodd"/>
    <path fill="url(#paint24_linear)" d="M102.06 37.69c0-.413-.038-.787-.115-1.123-.182.697-.456 1.367-.823 2.008-.841 1.445-1.917 2.169-3.227 2.169h-.223c-.31.05-.64.077-.988.077-.141 0-.277-.007-.408-.02.09.22.18.431.273.631.005.018.012.037.02.058.179.387.366.742.56 1.065.898-.149 1.719-.504 2.462-1.065l.077-.058c.328-.259.648-.563.958-.912.446-.51.805-1.062 1.077-1.657.238-.503.357-.894.357-1.173z"/>
    <path fill="url(#paint25_linear)" d="M90.854 34.59c-.034-.005-.067-.014-.1-.027 0 .115.006.203.019.262.026.097.03.125.011.084.06.234-.24.35-.9.35-.666-.005-.961-.169-.884-.492.033-.162.06-.342.08-.542-.305-.047-.553-.067-.745-.062-.144 0-.254.01-.331.03-.182.06-.286.147-.312.262-.025.11-.04.191-.046.243-.033.382-.072.692-.115.93-.013.077-.03.141-.05.193l-.02.057c-.058.2-.088.362-.088.485 0 .42.388.754 1.165 1 .6.192 1.21.288 1.831.288.78 0 1.218-.112 1.315-.338.047-.09.063-.251.05-.485v-.046-.177c.039-.515.073-.805.104-.869.072-.143.072-.328 0-.554-.077-.225-.405-.423-.984-.592z"/>
    <path fill="url(#paint26_linear)" d="M90.88 33.825c-.071.059-.145.107-.222.146-.026.008-.052.02-.077.038-.167.077-.338.116-.512.116-.046 0-.088-.003-.127-.008-.207-.033-.405-.133-.592-.3-.09-.077-.173-.17-.25-.28 0 .25-.006.48-.02.688-.02.2-.047.38-.08.542-.077.323.218.487.885.492.658 0 .959-.116.9-.35.017.041.014.013-.012-.084-.013-.06-.02-.146-.02-.262v-.223c.013-.233.056-.405.128-.515z"/>
    <path fill="#B24F19" fill-rule="evenodd" d="M92.043 27.664h-.008c-.013.046-.042.13-.088.253.033-.05.063-.106.088-.165-.046.82-.246 1.348-.6 1.58-.387.252-.982.442-1.784.57-.8.136-1.2.724-1.2 1.765 0 .064.006.184.02.358.012.077.025.145.037.204.052.18.103.334.154.465.123.336.27.617.439.842 0 .252-.007.481-.02.689-.305-.046-.553-.067-.746-.062-.143 0-.253.01-.33.031-.182.059-.286.146-.312.262-.025.11-.04.19-.046.242-.033.382-.072.692-.115.93-.041-.22-.081-.479-.12-.776-.09-.677-.134-1.12-.134-1.327 0-.626.045-1.185.134-1.677.11-.6.363-1.123.758-1.57.387-.455.758-.726 1.112-.81.356-.085.685-.166.988-.243.297-.09.527-.187.688-.292.157-.11.329-.278.516-.504.187-.226.325-.63.415-1.211.013.025.026.055.039.088.05.123.09.233.115.33v.028zm-.455 5.35c.008.153.02.304.038.453.052.485.158.946.32 1.385.046.118.094.23.146.338.297.667.71 1.187 1.238 1.562-.187 0-.406-.007-.658-.02-.018-.007-.037-.011-.057-.011h-.058c-.17-.018-.444-.056-.823-.115.038-.516.073-.806.104-.87.072-.143.072-.328 0-.553-.077-.226-.405-.424-.985-.593-.033-.005-.066-.014-.1-.027v-.223c.013-.233.055-.405.127-.515.195-.149.382-.349.562-.6.051-.072.1-.142.146-.212z" clip-rule="evenodd"/>
    <path fill="#DA9A6D" fill-rule="evenodd" d="M92.035 27.752c0-.026.002-.051.007-.077.034.154.05.305.05.454 0 .451-.116.845-.35 1.18-.238.344-.583.607-1.034.789-.175.07-.404.13-.689.18-.277.047-.468.093-.573.14-.361.153-.57.508-.627 1.065-.059.548.031 1.087.27 1.615.233.53.517.87.853 1.019-.207-.033-.405-.133-.592-.3-.09-.077-.173-.17-.25-.28-.17-.226-.315-.507-.438-.843-.052-.13-.103-.286-.154-.465-.013-.06-.026-.127-.039-.204-.012-.175-.019-.294-.019-.358 0-1.04.4-1.63 1.2-1.765.803-.128 1.397-.318 1.785-.57.353-.233.553-.76.6-1.58zm17.136 7.672c.077.29.067.554-.03.793-.136.31-.265.76-.385 1.35-.123.592-.382 1.173-.777 1.742l-2.277 2.607c-.097.116-.191.222-.28.32-1.08 1.2-1.881 2.148-2.404 2.846-.018.02-.034.043-.046.069-.213.284-.379.527-.496.727-.175.218-.262.205-.262-.039-.013-.161.013-.41.077-.746v-.02c.149-.87.329-1.453.542-1.745.013-.026.034-.048.062-.066.056-.059.12-.12.192-.184-.115.128-.206.347-.273.657-.082.37-.133.697-.154.981-.084.239.717-.582 2.404-2.461 1.672-1.887 2.614-2.973 2.827-3.258.207-.29.379-.619.515-.988.136-.367.206-.676.211-.927.013-.246.1-.514.262-.804.169-.292.267-.577.292-.854z" clip-rule="evenodd"/>
    <path fill="#F7BA7F" fill-rule="evenodd" d="M92.043 27.675c-.005-.007-.005-.011 0-.011v-.147c.007.008.014.018.019.031.013.013.026.03.038.05.498.736.666 1.653.504 2.75-.018.123-.04.249-.065.377 0 .013-.004.026-.012.038 0 .013-.002.026-.007.039-.013.067-.03.135-.05.204-.123.44-.298.9-.523 1.377-.013.005-.022.018-.027.038-.093.182-.186.35-.281.504-.013.026-.03.055-.05.088-.046.07-.095.14-.146.212-.18.251-.367.451-.562.6-.072.059-.146.108-.223.146-.026.008-.051.02-.077.039-.166.076-.337.115-.511.115-.046 0-.089-.003-.127-.008-.336-.148-.62-.488-.854-1.019-.238-.528-.328-1.067-.27-1.615.057-.557.266-.912.628-1.066.105-.046.296-.092.573-.138.284-.051.514-.112.688-.18.451-.183.796-.446 1.035-.79.233-.335.35-.729.35-1.18 0-.149-.017-.3-.05-.454zm16.953 7.323c.008.02.018.044.031.07l.031.045c0 .008.002.018.007.031l.012.008c.038.097.07.188.096.273-.026.277-.123.561-.292.854-.162.29-.249.557-.262.803-.005.252-.075.56-.211.927-.136.37-.308.699-.516.989-.212.284-1.155 1.37-2.826 3.257-1.687 1.88-2.489 2.7-2.404 2.462.02-.285.072-.612.154-.981.066-.31.157-.53.273-.658.013-.02.029-.04.05-.058.349-.343.784-.77 1.307-1.28l.627-.589c.964-.918 1.653-1.609 2.066-2.073l.765-.853c-.033-.11-.059-.243-.077-.397 0-.046-.004-.088-.012-.126v-.05c-.005-.026-.007-.054-.007-.085-.008-.144-.012-.367-.012-.67 0-.304-.116-.657-.35-1.057-.243-.4-.352-.664-.327-.792.026-.13.1-.164.223-.1.013.015.022.03.027.042-.025-.11-.057-.208-.096-.292-.051-.11-.081-.22-.088-.33-.005-.116.063-.216.204-.3.135-.09.403-.032.803.176.085.044.163.089.235.135.238.161.428.368.569.619z" clip-rule="evenodd"/>
    <path fill="#D05E1F" d="M92.043 27.675c-.006-.007-.006-.011 0-.011h-.008c-.013.046-.042.13-.089.253.034-.05.063-.106.089-.165 0-.026.002-.051.008-.077z"/>
    <path fill="url(#paint27_linear)" fill-rule="evenodd" d="M93.061 27.248c.205 1.013.318 2.363.338 4.05.026 1.59.388 2.753 1.085 3.488.038.044.08.085.127.123.051.047.102.095.154.147.13.11.254.207.369.292.446.323.863.478 1.25.465-.02.103-.03.216-.03.339 0 .446.12.846.36 1.2.342.505.85.76 1.528.765.479 0 .87-.196 1.173-.588.246-.324.365-.647.357-.97 0-.343-.113-.602-.338-.777-.205-.153-.412-.234-.62-.242h-.134c-.239.072-.42.185-.542.339-.098.13-.15.28-.158.446-.005.169.054.311.177.427.123.123.255.19.396.203.149.013.255-.003.32-.05.063-.05.108-.098.134-.142.015-.054.025-.1.03-.138.008-.044.006-.093-.007-.146-.015-.044-.049-.091-.1-.143-.03-.033-.07-.056-.115-.069-.026-.005-.058-.008-.097-.008-.059 0-.107.02-.146.058-.005 0-.011.003-.019.008-.03.046-.046.088-.046.127 0 .033.009.05.027.05l.02-.023c.007-.006.013-.014.018-.027l.031-.031c.03-.03.063-.046.096-.046.064 0 .116.015.154.046.026.033.038.073.038.12 0 .063-.015.115-.046.153-.033.051-.08.08-.138.088h-.008c-.013 0-.025.003-.038.008-.02 0-.044-.002-.07-.008-.128-.007-.228-.056-.3-.146v-.011c-.071-.077-.107-.167-.107-.27 0-.084.013-.158.038-.223.013-.033.036-.069.07-.107.033-.046.075-.089.126-.127.077-.082.184-.13.32-.143.2-.007.387.063.561.212.162.141.246.348.254.62 0 .263-.117.554-.35.872-.233.303-.595.448-1.085.435-.492-.013-.86-.196-1.103-.55-.246-.357-.38-.68-.4-.97-.018-.297-.002-.513.05-.65.102-.368.328-.668.677-.9.42-.279.956-.418 1.607-.418.93 0 1.658.236 2.181.707.097.093.191.193.281.3.246.31.424.695.534 1.154-.182.697-.456 1.367-.823 2.008-.841 1.446-1.916 2.169-3.227 2.169h-.223c-.543-.02-1.05-.112-1.523-.273-.361-.936-.7-2.027-1.015-3.273v-.012c-.051-.115-.113-.23-.185-.346-.076-.123-.212-.184-.407-.184h-.058c-.123 0-.259.008-.408.026-.069.008-.14.018-.211.031-.141.026-.32.039-.535.039-.528-.375-.94-.895-1.238-1.562-.051-.107-.1-.22-.146-.338-.162-.439-.268-.9-.32-1.385-.017-.148-.03-.3-.038-.454.02-.033.037-.062.05-.088.095-.154.188-.322.28-.504.006-.02.015-.033.028-.038.225-.477.4-.936.523-1.377.02-.07.037-.137.05-.204.005-.013.007-.026.007-.038.008-.013.012-.026.012-.039.026-.128.047-.254.065-.377.162-1.097-.006-2.014-.503-2.75-.013-.02-.026-.037-.039-.05-.005-.012-.011-.023-.02-.03v.119c-.025-.098-.063-.208-.114-.331-.013-.033-.026-.063-.039-.088-.09.582-.228.985-.415 1.211-.188.226-.36.394-.516.504-.161.105-.39.202-.688.292-.303.077-.632.158-.989.242-.353.085-.724.356-1.111.812-.395.446-.647.97-.758 1.57-.09.491-.134 1.05-.134 1.676 0 .208.045.65.134 1.327.039.297.079.556.12.777-.013.077-.03.14-.05.192-.008.02-.014.04-.02.058-.233-.064-.475-.129-.727-.193-.033-.013-.065-.023-.096-.03-.246-.129-.465-.242-.657-.339-.034-.128-.063-.254-.089-.377-.123-.672-.197-1.233-.223-1.684.187-2.739.889-4.712 2.104-5.92 1.208-1.214 2.334-1.784 3.38-1.707 1.06.064 1.695.604 1.908 1.62zM87.5 28.544c.076 0 .109.04.096.12-.005.064-.02.138-.046.223-.026.077.002.192.084.346.093.161.235.19.427.088.187-.102.251-.073.192.089-.064.161-.118.274-.161.338-.02.026-.037.051-.05.077.361-.395.956-.74 1.784-1.038-.04-.146-.148-.204-.323-.173-.18.033-.292.062-.338.088-.213.005-.322-.027-.327-.096-.008-.072.037-.166.135-.28.097-.119.152-.21.165-.274.005-.064-.05-.115-.165-.154-.11-.038-.215-.036-.312.008-.103.038-.211.036-.327-.008-.118-.046-.111-.156.02-.33.135-.175.057-.192-.235-.05-.116.084-.218.175-.308.273-.259.29-.48.619-.661.988.02-.02.037-.04.05-.058.14-.118.24-.177.3-.177z" clip-rule="evenodd"/>
    <path fill="#FADEBC" d="M87.5 28.544c.076 0 .108.04.095.12-.005.064-.02.138-.046.223-.026.076.003.192.085.346.092.161.234.19.427.088.187-.102.25-.073.192.089-.064.161-.118.274-.162.338-.02.026-.037.051-.05.077.362-.395.957-.741 1.785-1.038-.041-.147-.149-.204-.323-.174-.18.034-.292.063-.339.089-.212.005-.321-.027-.326-.096-.008-.072.037-.166.134-.28.098-.119.153-.21.166-.274.005-.064-.05-.115-.166-.154-.11-.038-.214-.036-.311.008-.103.038-.212.036-.327-.008-.118-.046-.112-.156.019-.33.136-.175.058-.192-.235-.05-.115.084-.218.175-.307.273-.26.29-.48.619-.662.988.02-.02.037-.04.05-.058.141-.118.241-.177.3-.177z"/>
    <path fill="#D84677" fill-rule="evenodd" d="M109.511 33.525c.059.072.098.137.116.196.02.057.014.12-.02.192.008-.02.012-.04.012-.057V33.786c-.013-.097-.104-.161-.273-.192-.523-.123-.904-.214-1.142-.273-.247-.051-.457-.06-.631-.027-.18.031-.324.173-.435.427-.556 1.251-1.092 2.497-1.607 3.738-.064.141-.084.254-.058.339-.008.033-.012.063-.012.088 0 .026.007.051.02.077l-.116-.108c-.11-.135-.133-.297-.069-.484l.115-.288v-.012l1.543-3.546c.166-.387.451-.551.853-.492.311.043.604.098.881.165.285.064.478.115.581.154.102.038.183.096.242.173zm-3.973 4.485h.012c.03.02.098.04.204.061-.047-.008-.093-.018-.139-.03-.038-.006-.067-.016-.085-.031h.008z" clip-rule="evenodd"/>
    <path fill="#9C254D" d="M109.599 33.863l-.019-.046c-.013-.046-.046-.078-.1-.096l-.077-.039c-.205-.053-.354-.09-.446-.107l-.908-.196c-.187-.031-.353-.018-.496.038-.141.054-.267.209-.377.465l-1.627 3.666c-.008.012-.014.025-.019.038-.026.077-.042.148-.05.212h-.008c-.007.033-.011.062-.011.088 0 .026.006.051.019.077.008.005.014.011.019.02.013.012.026.021.039.026h.011c.031.02.099.041.204.062.051.012.105.021.162.027.123.02.194.03.215.03h.008l.903.116c.354.046.616-.093.785-.416 0-.046-.004-.088-.012-.127v-.05c-.005-.025-.007-.053-.007-.084-.008-.144-.012-.367-.012-.67 0-.304-.116-.657-.35-1.057-.243-.4-.352-.664-.327-.792.026-.131.1-.164.223-.1.013.015.022.03.027.042-.025-.11-.057-.208-.096-.292-.051-.11-.081-.22-.088-.331-.005-.115.062-.215.204-.3.135-.09.403-.03.803.177.085.044.163.088.235.135.238.161.428.367.569.619.008.02.018.043.031.069l.031.046c0 .008.002.018.007.03l.477-1.026c.013-.026.022-.051.027-.077.008-.013.012-.026.012-.038.013-.054.019-.1.019-.139z"/>
    <path fill="#8C2A53" d="M98.805 57.908c-.336.118-.792.177-1.369.177-1.187 0-2.084-.346-2.692-1.038-.528-.608-.66-1.503-.396-2.685-.059.175-.114.37-.165.585-.013.038-.022.08-.027.123-.041.136-.075.272-.1.408.013 1.046.323 1.794.93 2.246.6.453 1.32.709 2.162.765.833.046 1.556-.101 2.169-.442.608-.349 1.182-1.61 1.723-3.78-.431 1.117-.672 1.734-.723 1.849-.228.523-.445.914-.65 1.173-.233.29-.52.496-.862.62z"/>
    <path fill="#A43262" d="M101.746 53.985c-.005.02-.007.04-.007.058v.03c-.09.4-.158.892-.204 1.474-.013.038-.02.073-.02.104-.033.433-.056.879-.069 1.338-.013.361-.019.733-.019 1.115 0 .97.068 1.663.204 2.08.123.396.414.596.873.6.038 0 .07-.002.096-.007.518-.026.896-.123 1.135-.292.251-.167.36-.454.326-.862-.025-.392-.164-1.221-.415-2.488-.005-.046-.015-.095-.031-.146l-.261-1.338c-.095-.47-.168-.818-.219-1.047-.059-.25-.102-.438-.127-.561-.013-.018-.02-.037-.02-.058-.012-.043-.023-.075-.03-.096-.085-.2-.172-.345-.262-.434-.031-.026-.069-.05-.115-.07-.013-.012-.026-.019-.039-.019h-.077c-.394-.051-.634.155-.719.62z"/>
    <path fill="#CF5085" d="M99.162 44.394h.008c.033-.006.063-.008.088-.008v-.02c-.033-.058-.15-.056-.35.008l-.096.039c-.064.04-.125.096-.184.165-.064.08-.122.17-.173.273-.02.039-.04.077-.058.116-.11.264-.259.757-.446 1.48l-.127.485c-.174.705-.31 1.396-.408 2.073-.018.161-.037.32-.057.477l-.039.319v.211c-.038.408-.058.818-.058 1.231-.005.118-.007.235-.007.35 0 .033.002.078.007.135 0 .148.007.384.02.707.007.077.011.143.011.197.005.115.008.221.008.319h-.542c-.162-.008-.317-.008-.466 0-.097 0-.401.021-.911.065-.405.033-.75.482-1.035 1.346-.264 1.182-.132 2.077.396 2.685.608.692 1.505 1.038 2.692 1.038.577 0 1.034-.059 1.37-.177.34-.123.628-.33.861-.62.205-.258.422-.649.65-1.172.051-.115.292-.732.723-1.85-.541 2.172-1.115 3.432-1.723 3.78-.613.342-1.336.489-2.169.443-.841-.056-1.562-.312-2.161-.765-.608-.452-.918-1.2-.931-2.246-.251 1.143-.341 2.106-.27 2.888.078.871.233 1.45.466 1.734.226.277.83.435 1.811.473l1.793.096c.025 0 .053.004.084.012 2.126.103 3.647.137 4.565.104-.459-.005-.75-.205-.873-.6-.136-.418-.203-1.111-.203-2.08 0-.383.006-.755.019-1.116.013-.459.036-.905.069-1.338 0-.031.006-.066.019-.104.046-.582.114-1.073.204-1.473v-.031c0-.018.003-.037.008-.058.084-.464.324-.67.719-.619h.077c-.4-.102-.949-.194-1.646-.273-.369-.03-.771-.056-1.204-.077-.03-.14-.059-.286-.085-.434-.038-.247-.087-.715-.146-1.404l-.03.007-.27.135c-.013.008-.023.015-.03.023l.011.385c.038.33.073.615.104.853.02.162.043.3.07.416-.15-.005-.298-.008-.447-.008-.051-.013-.103-.019-.154-.019-.149-.008-.297-.012-.446-.012-.187-.005-.372-.007-.554-.007-.005-.093-.014-.199-.027-.32-.012-.19-.023-.49-.03-.903v-.02c-.006-.097-.008-.19-.008-.28-.008-.328-.005-.645.008-.95.007-.128.017-.257.03-.385.013-.208.03-.411.05-.611.013-.047.02-.095.02-.146.017-.116.037-.226.057-.331.026-.239.052-.452.077-.639.03-.25.133-.723.308-1.415l.127-.504c.118-.456.221-.827.311-1.111.057-.2.112-.362.166-.485.038-.123.073-.216.103-.28.026-.052.062-.094.108-.127.039-.026.087-.043.146-.05z"/>
    <path fill="#994118" fill-rule="evenodd" d="M89.386 30.864c0-.17.026-.312.077-.427.054-.123.113-.189.177-.197.082.008.15.063.204.166.018.038.03.074.039.108.025.102.044.209.057.319.005.167-.014.312-.057.435-.052.118-.117.183-.197.196-.069-.008-.13-.067-.184-.177-.064-.123-.096-.264-.096-.423h-.02zm2.316.327c-.043.161-.111.294-.204.396-.077.098-.157.137-.242.12-.07-.014-.108-.085-.115-.216-.018-.123-.008-.272.03-.446.052-.162.126-.284.223-.366.09-.11.165-.156.224-.138.09.025.134.1.134.223.018.123.002.265-.05.427z" clip-rule="evenodd"/>
    <path fill="#DA9A6D" fill-rule="evenodd" d="M68.053 34.374c-.026-.01-.05-.028-.07-.054.058-.108.151-.194.281-.257.144-.072.314-.108.512-.108.277 0 .484.055.623.166.092.071.138.143.138.215l-.008.027c-.023-.025-.053-.048-.088-.07-.13-.076-.327-.115-.588-.115-.293 0-.503.027-.631.08-.069.03-.125.069-.17.116zm-.054.481c.026.052.057.079.092.08l.016-.007c.047-.066.18-.128.396-.184.21-.057.392-.085.546-.085.213 0 .363.044.45.13l.011.012c.01-.031.016-.066.016-.104 0-.05-.053-.1-.158-.15-.102-.046-.248-.068-.438-.065-.19.004-.362.03-.516.08-.153.052-.291.15-.415.293zm.165.63c-.008.008-.016.019-.023.032-.038-.022-.07-.048-.096-.077.046-.117.163-.223.35-.32.223-.115.44-.173.654-.173.11 0 .211.023.303.07.1.048.15.105.15.169 0 .004 0 .01-.003.02-.003.004-.007.01-.012.014-.065-.044-.133-.075-.204-.092-.072-.02-.161-.03-.269-.03-.164 0-.335.043-.511.13-.15.074-.263.16-.339.258zm1.03-.041c.093 0 .173.019.243.057.048.029.08.063.1.104.039.125-.021.207-.181.246-.16.039-.256.058-.289.058-.069 0-.132-.012-.188-.035-.08-.03-.12-.077-.12-.138 0-.01.006-.026.016-.046-.035.017-.07.038-.104.061-.046.033-.083.063-.111.089-.003.02-.004.042-.004.065 0 .015.001.029.004.042.025.111.149.198.369.262.18.053.32.12.42.204.035.044.077.1.126.169.016.018.031.037.046.058.172.223.382.529.631.919.256.369.885 1.316 1.885 2.842 1.015 1.525 1.697 2.524 2.045 2.996.35.47.533.719.55.75.041.046.084.065.127.058.02-.008.068-.048.143-.12.148-.151.234-.316.257-.496.02-.092.025-.188.012-.288.13.212.152.401.065.565-.015.036-.14.227-.373.573-.007.01-.014.02-.019.03-.149.211-.274.312-.377.305-.036-.008-.067-.026-.092-.054l-.02-.02-.065-.119-4.453-6.992c-.257-.546-.544-.878-.862-.996-.34-.128-.523-.198-.546-.211-.123-.074-.216-.157-.277-.25.01-.107.055-.208.135-.304.048-.054.108-.106.18-.158.213-.15.456-.227.727-.227z" clip-rule="evenodd"/>
    <path fill="#F7BA7F" d="M70.19 31.532h-.138c-.16 0-.293.122-.4.365l-.023.031c-.139.162-.228.364-.27.608-.01.138-.019.364-.026.677-.01.232-.027.398-.054.5-.12-.066-.285-.093-.496-.081-.252.014-.447.065-.585.154-.135.09-.215.176-.238.261-.02.085-.027.144-.02.177.01.035.022.064.039.089l.004.007c.057-.109.15-.195.28-.257.144-.072.315-.108.512-.108.277 0 .485.055.623.165.092.072.139.144.139.216l-.008.027c-.024-.025-.054-.048-.089-.07-.13-.077-.327-.115-.588-.115-.292 0-.503.027-.63.08-.07.03-.126.068-.17.116-.015.017-.029.035-.042.054-.02.034-.037.07-.05.111-.013.051-.02.098-.02.139.004.041.02.095.05.162l.008.015c.124-.144.262-.242.415-.292.154-.05.326-.078.516-.081.19-.003.336.018.438.065.105.049.158.099.158.15 0 .038-.005.072-.015.104l-.012-.012c-.087-.087-.237-.13-.45-.13-.154 0-.336.028-.546.084-.216.057-.348.118-.396.185l-.016.008c-.03.02-.055.05-.077.092-.008.016-.016.034-.023.054-.017.054-.026.108-.026.161 0 .044.008.085.026.123.014.027.032.052.054.073.047-.116.163-.222.35-.319.223-.115.441-.173.654-.173.11 0 .212.023.304.07.1.048.15.104.15.169 0 .004-.001.01-.004.019l-.011.015c-.066-.044-.134-.075-.204-.092-.072-.02-.162-.03-.27-.03-.164 0-.334.043-.511.13-.15.074-.263.16-.338.258-.009.007-.017.018-.024.03 0 .004 0 .007-.003.008l-.02.065-.027.104c-.003.017-.007.03-.011.043-.008.052-.012.085-.012.1 0 .035.003.07.008.103.014.068.04.132.077.193.01-.107.055-.209.135-.304.048-.054.108-.107.18-.158.213-.151.455-.227.727-.227.093 0 .173.02.242.058.048.028.082.063.1.104.04.125-.02.207-.18.246-.16.038-.256.058-.289.058-.069 0-.132-.012-.188-.035-.08-.03-.12-.077-.12-.138 0-.01.006-.026.016-.047-.035.018-.07.039-.104.062-.046.033-.083.063-.111.088-.003.021-.004.043-.004.066 0 .015.001.029.004.042.025.11.148.198.369.262.18.053.32.12.419.203.036.045.078.101.127.17.016.018.031.037.046.057.172.223.382.53.63.92.257.369.885 1.316 1.885 2.842 1.016 1.525 1.698 2.524 2.046 2.996.35.469.532.719.55.75.041.046.084.065.127.057.02-.007.068-.047.143-.119.148-.151.234-.316.257-.496.02-.092.025-.188.012-.288-.041-.06-.09-.121-.146-.185l-4.273-5.68c-.285-.441-.442-.685-.473-.731-.044-.067-.066-.214-.066-.442.129-.939.193-1.45.193-1.535 0-.19-.094-.422-.281-.696-.19-.272-.285-.546-.285-.823 0-.208.08-.48.239-.82.156-.338.234-.562.234-.672 0-.105-.04-.167-.123-.185z"/>
    <path fill="url(#paint28_linear)" d="M76.398 44.158c-.134.21-.279.442-.435.696-.172.267-.328.472-.47.616l-.018.023c-.198.195-.476.114-.835-.243-.151-.153-.209-.312-.173-.476-.036-.008-.067-.026-.092-.054l-.02-.02-.065-.119c-.187.298-.303.48-.346.546-.115.195-.094.381.065.558l.223.254c.103.1.22.211.35.334.16.147.344.153.554.02.051-.034.104-.075.158-.123.12-.108.242-.253.365-.435.033-.051.07-.102.108-.154.495-.751.722-1.186.68-1.304-.007-.038-.024-.078-.05-.119z"/>
    <path fill="url(#paint29_linear)" d="M75.409 43.012c-.082-.072-.18-.063-.293.027-.028.018-.059.044-.092.077.056.064.105.125.146.184.13.213.153.402.066.566-.016.036-.14.227-.374.573-.007.01-.014.02-.019.03-.148.21-.274.312-.377.304-.035.164.022.323.173.477.36.357.638.438.835.243l.02-.024c.14-.143.297-.348.469-.615.156-.254.3-.486.434-.696-.074-.13-.217-.312-.427-.542l-.1-.123c-.223-.241-.377-.401-.461-.481z"/>
    <defs>
        <linearGradient id="paint0_linear" x1="62.136" x2="54.404" y1="34.082" y2="37.828" gradientUnits="userSpaceOnUse">
            <stop offset=".145" stop-color="#F9BA3B"/>
            <stop offset=".267" stop-color="#FBD661"/>
            <stop offset=".365" stop-color="#FF9"/>
            <stop offset=".486" stop-color="#FDF992"/>
            <stop offset=".584" stop-color="#F3E176"/>
            <stop offset=".788" stop-color="#D18D14"/>
        </linearGradient>
        <linearGradient id="paint1_linear" x1="61.117" x2="53.385" y1="34.233" y2="37.98" gradientUnits="userSpaceOnUse">
            <stop offset=".145" stop-color="#F9BA3B"/>
            <stop offset=".267" stop-color="#FBD661"/>
            <stop offset=".365" stop-color="#FF9"/>
            <stop offset=".486" stop-color="#FDF992"/>
            <stop offset=".584" stop-color="#F3E176"/>
            <stop offset=".788" stop-color="#D18D14"/>
        </linearGradient>
        <linearGradient id="paint2_linear" x1="74.54" x2="74.54" y1="92.282" y2="91.319" gradientUnits="userSpaceOnUse">
            <stop offset=".09" stop-color="#A8AFB7"/>
            <stop offset="1" stop-color="#D1D4D8"/>
        </linearGradient>
        <linearGradient id="paint3_linear" x1="94.06" x2="94.056" y1="52.62" y2="37.183" gradientUnits="userSpaceOnUse">
            <stop offset=".09" stop-color="#BDC2C9"/>
            <stop offset="1" stop-color="#DFE1E4"/>
        </linearGradient>
        <linearGradient id="paint4_linear" x1="77.409" x2="77.41" y1="51.574" y2="43.14" gradientUnits="userSpaceOnUse">
            <stop offset=".145" stop-color="#AFB5BD"/>
            <stop offset=".855" stop-color="#DFE1E4"/>
        </linearGradient>
        <linearGradient id="paint5_linear" x1="63.427" x2="63.431" y1="52.231" y2="46.333" gradientUnits="userSpaceOnUse">
            <stop offset=".145" stop-color="#B5BAC2"/>
            <stop offset=".855" stop-color="#EDEEF0"/>
        </linearGradient>
        <linearGradient id="paint6_linear" x1="54.323" x2="63.047" y1="97.967" y2="95.786" gradientUnits="userSpaceOnUse">
            <stop offset=".09" stop-color="#A8AFB7"/>
            <stop offset="1" stop-color="#DFE1E4"/>
        </linearGradient>
        <linearGradient id="paint7_linear" x1="76.746" x2="77.368" y1="91.607" y2="60.53" gradientUnits="userSpaceOnUse">
            <stop offset=".09" stop-color="#B8BDC4"/>
            <stop offset=".314" stop-color="#DFE1E4"/>
        </linearGradient>
        <linearGradient id="paint8_linear" x1="102.267" x2="102.27" y1="99.239" y2="91.952" gradientUnits="userSpaceOnUse">
            <stop offset=".09" stop-color="#B5BBC2"/>
            <stop offset="1" stop-color="#DFE1E4"/>
        </linearGradient>
        <linearGradient id="paint9_linear" x1="128.953" x2="128.954" y1="99.234" y2="91.946" gradientUnits="userSpaceOnUse">
            <stop offset=".09" stop-color="#A8AFB7"/>
            <stop offset="1" stop-color="#DFE1E4"/>
        </linearGradient>
        <linearGradient id="paint10_linear" x1="99.645" x2="99.645" y1="58.769" y2="51.73" gradientUnits="userSpaceOnUse">
            <stop offset=".09" stop-color="#BABFC6"/>
            <stop offset="1" stop-color="#DFE1E4"/>
        </linearGradient>
        <linearGradient id="paint11_linear" x1="112.25" x2="112.25" y1="58.869" y2="53.471" gradientUnits="userSpaceOnUse">
            <stop offset=".145" stop-color="#A0A7B1"/>
            <stop offset=".855" stop-color="#DFE1E4"/>
        </linearGradient>
        <linearGradient id="paint12_linear" x1="41.261" x2="47.209" y1="57.328" y2="32.06" gradientUnits="userSpaceOnUse">
            <stop offset=".09" stop-color="#80C6E8"/>
            <stop offset=".478" stop-color="#9ADCFE"/>
            <stop offset=".867" stop-color="#AAE2FE"/>
        </linearGradient>
        <linearGradient id="paint13_linear" x1="35.687" x2="35.302" y1="33.736" y2="27.558" gradientUnits="userSpaceOnUse">
            <stop offset=".549" stop-color="#F7BA7F"/>
            <stop offset=".957" stop-color="#DA8B66"/>
        </linearGradient>
        <linearGradient id="paint14_linear" x1="44.128" x2="39.317" y1="52.99" y2="27.473" gradientUnits="userSpaceOnUse">
            <stop offset=".09" stop-color="#80C6E8"/>
            <stop offset=".478" stop-color="#9ADCFE"/>
            <stop offset=".867" stop-color="#AAE2FE"/>
        </linearGradient>
        <linearGradient id="paint15_linear" x1="65.337" x2="57.605" y1="19.307" y2="23.053" gradientUnits="userSpaceOnUse">
            <stop offset=".145" stop-color="#F9BA3B"/>
            <stop offset=".267" stop-color="#FBD661"/>
            <stop offset=".365" stop-color="#FF9"/>
            <stop offset=".486" stop-color="#FDF992"/>
            <stop offset=".584" stop-color="#F3E176"/>
            <stop offset=".788" stop-color="#D18D14"/>
        </linearGradient>
        <linearGradient id="paint16_linear" x1="64.318" x2="56.586" y1="19.459" y2="23.205" gradientUnits="userSpaceOnUse">
            <stop offset=".145" stop-color="#F9BA3B"/>
            <stop offset=".267" stop-color="#FBD661"/>
            <stop offset=".365" stop-color="#FF9"/>
            <stop offset=".486" stop-color="#FDF992"/>
            <stop offset=".584" stop-color="#F3E176"/>
            <stop offset=".788" stop-color="#D18D14"/>
        </linearGradient>
        <linearGradient id="paint17_linear" x1="68.668" x2="79.502" y1="42.694" y2="51.796" gradientUnits="userSpaceOnUse">
            <stop offset=".212" stop-color="#FCC"/>
            <stop offset=".6" stop-color="#F6B7B7"/>
            <stop offset="1" stop-color="#E59292"/>
        </linearGradient>
        <linearGradient id="paint18_linear" x1="79.81" x2="79.81" y1="36.212" y2="62.474" gradientUnits="userSpaceOnUse">
            <stop offset=".333" stop-color="#FCC"/>
            <stop offset=".824" stop-color="#F6B7B7"/>
            <stop offset="1" stop-color="#E59292"/>
        </linearGradient>
        <linearGradient id="paint19_linear" x1="80.232" x2="66.472" y1="32.563" y2="40.148" gradientUnits="userSpaceOnUse">
            <stop offset=".333" stop-color="#FCC"/>
            <stop offset=".824" stop-color="#F6B7B7"/>
            <stop offset="1" stop-color="#E59292"/>
        </linearGradient>
        <linearGradient id="paint20_linear" x1="80.575" x2="80.575" y1="62.607" y2="66.593" gradientUnits="userSpaceOnUse">
            <stop offset=".059" stop-color="#FCC"/>
            <stop offset=".498" stop-color="#F6B7B7"/>
            <stop offset=".831" stop-color="#E59292"/>
        </linearGradient>
        <linearGradient id="paint21_linear" x1="100.144" x2="102.474" y1="45.205" y2="46.996" gradientUnits="userSpaceOnUse">
            <stop offset=".263" stop-color="#F6B7B7"/>
            <stop offset=".831" stop-color="#E59292"/>
        </linearGradient>
        <linearGradient id="paint22_linear" x1="100.94" x2="103.215" y1="45.714" y2="46.888" gradientUnits="userSpaceOnUse">
            <stop offset=".059" stop-color="#FCC"/>
            <stop offset=".498" stop-color="#F6B7B7"/>
            <stop offset=".831" stop-color="#E59292"/>
        </linearGradient>
        <linearGradient id="paint23_linear" x1="103.691" x2="93.328" y1="33.18" y2="36.21" gradientUnits="userSpaceOnUse">
            <stop offset=".204" stop-color="#FCC"/>
            <stop offset=".612" stop-color="#F6B7B7"/>
            <stop offset="1" stop-color="#E59292"/>
        </linearGradient>
        <linearGradient id="paint24_linear" x1="82.756" x2="89.854" y1="29.544" y2="45.383" gradientUnits="userSpaceOnUse">
            <stop offset=".263" stop-color="#D05E1F"/>
            <stop offset=".831" stop-color="#994118"/>
        </linearGradient>
        <linearGradient id="paint25_linear" x1="87.369" x2="87.369" y1="34.152" y2="37.644" gradientUnits="userSpaceOnUse">
            <stop offset=".333" stop-color="#FCC"/>
            <stop offset=".824" stop-color="#F6B7B7"/>
            <stop offset="1" stop-color="#E59292"/>
        </linearGradient>
        <linearGradient id="paint26_linear" x1="90.6" x2="90.682" y1="35.39" y2="34.011" gradientUnits="userSpaceOnUse">
            <stop offset=".549" stop-color="#F7BA7F"/>
            <stop offset=".957" stop-color="#DA8B66"/>
        </linearGradient>
        <linearGradient id="paint27_linear" x1="84.862" x2="85.929" y1="25.316" y2="41.123" gradientUnits="userSpaceOnUse">
            <stop offset=".227" stop-color="#D05E1F"/>
            <stop offset=".831" stop-color="#B24F19"/>
        </linearGradient>
        <linearGradient id="paint28_linear" x1="75.008" x2="73.398" y1="42.858" y2="45.015" gradientUnits="userSpaceOnUse">
            <stop offset=".263" stop-color="#F6B7B7"/>
            <stop offset=".831" stop-color="#E59292"/>
        </linearGradient>
        <linearGradient id="paint29_linear" x1="75.411" x2="73.12" y1="42.385" y2="43.631" gradientUnits="userSpaceOnUse">
            <stop offset=".333" stop-color="#FCC"/>
            <stop offset=".824" stop-color="#F6B7B7"/>
            <stop offset="1" stop-color="#E59292"/>
        </linearGradient>
    </defs>
</svg>
