<svg width="68" height="87" viewBox="0 0 68 87" fill="none" xmlns="http://www.w3.org/2000/svg">
<path d="M64.6402 76.3686H64.6979V75.3647L64.6748 75.9878L64.6402 76.3686Z" fill="#854D2D"/>
<path d="M62.4378 59.2351V59.2582H64.6979V59.2351H62.4378Z" fill="url(#paint0_linear)"/>
<path d="M61.0433 59.2351V59.2582H62.3232V59.2351H61.0433Z" fill="#975935"/>
<path d="M56.4879 59.6847C56.5647 59.6539 56.6493 59.627 56.7415 59.6039C57.4795 59.3962 58.3943 59.2809 59.4859 59.2578C59.5474 59.2578 59.6089 59.2578 59.6704 59.2578H61.0426V59.2347H62.3226H62.4379H64.698H65.1015C65.778 59.1962 66.2393 59.1116 66.4853 58.9809C66.7313 58.8424 66.8235 58.6732 66.762 58.4732C66.6851 58.2655 66.2239 58.1578 65.3783 58.1501H64.7787V58.704H58.6442C57.3604 58.7886 56.1804 59.1155 55.1041 59.6847C54.3123 60.0847 53.5782 60.6039 52.9017 61.2423C51.1644 62.9422 50.2765 64.9805 50.238 67.3573V67.4727C50.238 67.4958 50.238 67.515 50.238 67.5304V67.5535C50.3149 69.9302 51.2028 71.9609 52.9017 73.6454C53.7704 74.5146 54.7236 75.1838 55.7614 75.653C56.607 76.0145 57.5218 76.2414 58.5058 76.3337L62.4379 76.2183L64.6403 76.3683L64.6749 75.9876V74.6377L58.9901 74.6607C56.9299 74.6223 55.1541 73.8569 53.6628 72.3647C52.2483 70.9571 51.4949 69.288 51.4027 67.3573C51.4027 67.3342 51.4027 67.3073 51.4027 67.2766C51.4027 67.2612 51.4027 67.2419 51.4027 67.2189V67.1612C51.4027 67.0843 51.4027 67.0112 51.4027 66.942C51.4027 64.8036 52.156 62.9806 53.6628 61.473C54.1163 61.0346 54.5968 60.6577 55.1041 60.3423C55.5423 60.0731 56.0036 59.8539 56.4879 59.6847Z" fill="#9C184D"/>
<path d="M56.7417 60.2273C56.6494 60.2581 56.5649 60.285 56.488 60.3081C56.0037 60.4773 55.5424 60.6965 55.1043 60.9658C54.5969 61.2811 54.1164 61.658 53.6629 62.0965C52.233 63.5272 51.4797 65.2347 51.4028 67.2192C51.4028 67.2423 51.4028 67.2616 51.4028 67.2769C51.4028 67.3077 51.4028 67.3346 51.4028 67.3577C51.4951 69.2884 52.2484 70.9575 53.6629 72.3651C55.1542 73.8573 56.93 74.6227 58.9902 74.6611L64.675 74.6381L66.3701 74.6265C66.6699 74.6496 66.9236 74.5842 67.1312 74.4304C67.3156 74.2996 67.431 74.0265 67.4771 73.6112L67.5001 73.5073V73.4958C67.4771 69.3884 67.4502 65.2771 67.4194 61.1619L67.4079 59.1543C67.3618 59.2236 67.3156 59.2966 67.2695 59.3735C67.0235 59.6581 66.5623 59.8389 65.8858 59.9158L62.438 59.8812V59.8581H62.3227V59.8812H59.6706C59.6091 59.8812 59.5476 59.8812 59.4861 59.8812C58.3945 59.9043 57.4797 60.0197 56.7417 60.2273ZM15.8641 49.1511C14.9801 49.0357 14.5111 48.8318 14.4573 48.5396V84.6298C14.565 85.1528 14.7418 85.6067 14.9878 85.9912C15.4798 86.7758 17.0634 87.1027 19.7386 86.972H59.3592C61.3579 86.972 62.7916 86.4181 63.6603 85.3105C63.8986 85.0105 64.0946 84.6798 64.2484 84.3183C64.2638 84.2644 64.283 84.2067 64.306 84.1452C64.5674 83.4452 64.6981 82.6145 64.6981 81.653V76.3687H64.6404L62.438 76.2187L58.5059 76.3341C57.5219 76.2418 56.6072 76.0149 55.7615 75.6534C54.7237 75.1842 53.7705 74.515 52.9018 73.6458C51.2029 71.9613 50.315 69.9306 50.2382 67.5538V67.5308C50.2382 67.5154 50.2382 67.4962 50.2382 67.4731V67.3577C50.2766 64.9809 51.1645 62.9426 52.9018 61.2427C53.5783 60.6042 54.3125 60.085 55.1043 59.6851C56.1805 59.1159 57.3605 58.789 58.6443 58.7044H64.7788V58.1505H64.6981V57.5967V54.2854C64.675 53.7777 64.6174 53.3124 64.5251 52.8893C64.5482 53.1047 64.5674 53.3431 64.5828 53.6046C64.5828 53.7354 64.5828 53.8662 64.5828 53.9969V54.2854C64.5059 52.5239 63.9716 51.2317 62.98 50.4087L62.4611 50.0395C62.3688 49.9933 62.2689 49.9433 62.1613 49.8895C61.554 49.6126 60.8429 49.4241 60.028 49.3241H19.6232C19.5694 49.3241 19.5272 49.3241 19.4964 49.3241C19.4349 49.3241 19.3849 49.3241 19.3465 49.3241C17.9551 49.3241 16.7943 49.2664 15.8641 49.1511ZM59.1055 79.7839C59.0825 79.6147 59.0594 79.4378 59.0364 79.2532V78.7109C59.0748 78.934 59.0979 79.1416 59.1055 79.3339C59.1055 79.4878 59.1055 79.6378 59.1055 79.7839Z" fill="#C82164"/>
<path d="M56.488 60.308C56.5649 60.2849 56.6494 60.258 56.7417 60.2272C57.4797 60.0195 58.3944 59.9041 59.486 59.8811C59.5476 59.8811 59.6091 59.8811 59.6706 59.8811H62.3227V59.858H62.438V59.8811L65.8858 59.9157C66.5623 59.8387 67.0235 59.658 67.2695 59.3734C67.3156 59.2965 67.3618 59.2234 67.4079 59.1542V58.6927C67.4079 58.6619 67.4079 58.635 67.4079 58.6119C67.3925 58.5504 67.3771 58.485 67.3618 58.4158C67.3233 58.3234 67.2772 58.2388 67.2234 58.1619C66.939 57.8773 66.3893 57.6889 65.5745 57.5966H64.6981V58.1504H64.7788H65.3784C66.224 58.1581 66.6853 58.2658 66.7621 58.4734C66.8236 58.6734 66.7314 58.8426 66.4854 58.9811C66.2394 59.1119 65.7782 59.1965 65.1017 59.2349H64.6981V59.258H62.438V59.2349H62.3227V59.258H61.0427H59.6706C59.6091 59.258 59.5476 59.258 59.486 59.258C58.3944 59.2811 57.4797 59.3965 56.7417 59.6041C56.6494 59.6272 56.5649 59.6541 56.488 59.6849C56.0037 59.8541 55.5424 60.0733 55.1043 60.3426C54.5969 60.6579 54.1164 61.0348 53.6629 61.4733C52.1562 62.9809 51.4028 64.8038 51.4028 66.9422C51.4028 67.0114 51.4028 67.0845 51.4028 67.1614V67.2191C51.4797 65.2346 52.233 63.527 53.6629 62.0963C54.1164 61.6579 54.5969 61.281 55.1043 60.9656C55.5424 60.6964 56.0037 60.4772 56.488 60.308ZM14.4573 48.5394C14.5111 48.8317 14.9801 49.0355 15.8641 49.1509C16.7943 49.2663 17.9551 49.324 19.3465 49.324C19.3849 49.324 19.4349 49.324 19.4964 49.324C19.5271 49.324 19.5694 49.324 19.6232 49.324H60.028C60.8429 49.424 61.554 49.6124 62.1613 49.8893C62.2689 49.9432 62.3688 49.9932 62.4611 50.0393L62.98 50.4085C63.9716 51.2315 64.5059 52.5238 64.5828 54.2852V53.9968C64.5828 53.866 64.5828 53.7352 64.5828 53.6045C64.5674 53.343 64.5482 53.1045 64.5251 52.8891C64.3022 51.1508 63.5604 49.9508 62.2996 49.2893C62.2228 49.1663 62.1382 49.0547 62.0459 48.9548C61.6846 48.524 61.2465 48.1856 60.7314 47.9394C59.9089 47.5471 58.9326 47.351 57.8025 47.351H19.4964C16.2985 47.1972 14.6188 47.5164 14.4573 48.3086C14.4496 48.3625 14.4458 48.4202 14.4458 48.4817C14.4458 48.4971 14.4496 48.5163 14.4573 48.5394ZM16.1985 48.5394C15.4682 48.4625 15.2453 48.3586 15.5297 48.2279C15.8142 48.0894 17.1364 48.024 19.4964 48.0317H58.6097C59.4092 48.1394 60.1164 48.3356 60.7314 48.6202C60.8852 48.6971 61.0466 48.7817 61.2157 48.874C60.6161 48.7202 59.9588 48.6432 59.2439 48.6432H19.4964C18.005 48.6509 16.9058 48.6163 16.1985 48.5394Z" fill="#DE7FA6"/>
<path d="M15.5301 48.228C15.2456 48.3588 15.4686 48.4626 16.1989 48.5395C16.9061 48.6164 18.0054 48.6511 19.4967 48.6434H59.2442C59.9592 48.6434 60.6164 48.7203 61.216 48.8741C61.0469 48.7818 60.8855 48.6972 60.7317 48.6203C60.1168 48.3357 59.4095 48.1395 58.61 48.0319H19.4967C17.1367 48.0242 15.8145 48.0895 15.5301 48.228Z" fill="#6A1135"/>
<path d="M52.3132 48.2055C52.3034 48.23 52.2958 48.2569 52.2902 48.2862C52.2959 48.2593 52.3036 48.2362 52.3132 48.217C52.3517 48.1016 52.3863 47.9863 52.417 47.8709C52.3786 47.9709 52.344 48.0824 52.3132 48.2055ZM35.0282 48.6439V48.667H51.4369V48.6439C51.4523 48.6055 51.4676 48.567 51.483 48.5285C51.5214 48.4285 51.5522 48.3209 51.5753 48.2055C51.8597 47.2825 52.0019 46.321 52.0019 45.321C51.9635 42.8827 51.0833 40.8174 49.3613 39.1252C47.6163 37.41 45.533 36.5792 43.1115 36.6331C40.6823 36.6485 38.6182 37.533 36.9193 39.2868C35.2358 41.0097 34.4055 43.0865 34.4286 45.5172C34.4516 46.4633 34.6016 47.3594 34.8783 48.2055C34.9167 48.3593 34.9667 48.5055 35.0282 48.6439ZM34.1749 48.2862C34.1712 48.2615 34.1635 48.2346 34.1518 48.2055C34.1365 48.1593 34.1249 48.117 34.1172 48.0786C34.1249 48.1247 34.1365 48.1709 34.1518 48.217C34.1634 48.2401 34.1711 48.2632 34.1749 48.2862Z" fill="url(#paint1_linear)"/>
<path d="M33.748 45.5169V45.5285C33.748 46.3515 33.8518 47.1399 34.0594 47.8937L34.117 48.0783C34.1247 48.1168 34.1363 48.1591 34.1516 48.2053C34.1633 48.2344 34.1709 48.2613 34.1747 48.286L34.1862 48.3091L34.1978 48.3322L34.2093 48.3783L34.2324 48.436C34.2324 48.4745 34.24 48.5052 34.2554 48.5283C34.2631 48.5668 34.2746 48.6052 34.29 48.6437H35.028C34.9665 48.5052 34.9165 48.3591 34.8781 48.2053C34.6013 47.3591 34.4514 46.463 34.4284 45.5169C34.4053 43.0863 35.2356 41.0095 36.9191 39.2865C38.618 37.5328 40.682 36.6482 43.1113 36.6328C45.5328 36.579 47.616 37.4097 49.3611 39.125C51.083 40.8172 51.9632 42.8825 52.0017 45.3208C52.0017 46.3207 51.8595 47.2822 51.575 48.2053C51.552 48.3206 51.5212 48.4283 51.4828 48.5283C51.4674 48.5668 51.452 48.6052 51.4367 48.6437H52.1631C52.1708 48.5975 52.19 48.5475 52.2208 48.4937L52.2784 48.3322L52.29 48.286C52.2955 48.2567 52.3032 48.2297 52.313 48.2053C52.3438 48.0822 52.3784 47.9706 52.4168 47.8707L52.682 45.2977V45.2747C52.682 45.0593 52.6782 44.8324 52.6705 44.5939C52.6551 44.5555 52.6474 44.517 52.6474 44.4785C52.5552 43.3478 52.2746 42.3056 51.8057 41.3518L50.4219 39.2865C50.2297 39.0635 50.0299 38.8481 49.8223 38.6404C47.9697 36.7944 45.7326 35.8867 43.1113 35.9175C40.4899 35.9637 38.2682 36.9174 36.4463 38.7789C34.6859 40.5788 33.7865 42.7402 33.748 45.2631C33.748 45.34 33.748 45.4246 33.748 45.5169Z" fill="#D19236"/>
<path d="M33.7485 45.5284V45.5169C33.7485 45.4246 33.7485 45.34 33.7485 45.2631C33.7869 42.7401 34.6863 40.5787 36.4467 38.7788C38.2686 36.9174 40.4903 35.9636 43.1117 35.9175C45.7331 35.8867 47.9701 36.7943 49.8227 38.6404C50.0303 38.8481 50.2302 39.0634 50.4224 39.2865L51.8061 41.3518C52.275 42.3055 52.5556 43.3478 52.6478 44.4785C52.6478 44.517 52.6555 44.5554 52.6709 44.5939C52.6786 44.8323 52.6824 45.0592 52.6824 45.2746V45.2977L52.4172 47.8706C52.3865 47.986 52.3519 48.1014 52.3134 48.2167C52.3038 48.236 52.2961 48.259 52.2904 48.286L52.2789 48.3321L52.2212 48.4937C52.2058 48.5475 52.1904 48.5975 52.1751 48.6436C52.1674 48.6436 52.1635 48.6513 52.1635 48.6667H53.3051C53.3051 48.6513 53.3128 48.6436 53.3282 48.6436C53.3435 48.5975 53.3551 48.5475 53.3628 48.4937C53.4012 48.4013 53.4281 48.309 53.4435 48.2167C53.6895 47.286 53.8048 46.3053 53.7894 45.2746C53.7894 45.0054 53.7779 44.74 53.7548 44.4785C53.5319 41.9094 52.4864 39.7018 50.6184 37.8558C48.5197 35.8175 46.0098 34.8137 43.0886 34.8444C40.1828 34.8829 37.7036 35.9482 35.6511 38.0404C33.8599 39.8557 32.8759 42.0017 32.6991 44.4785C32.6684 44.8323 32.653 45.19 32.653 45.5515C32.6684 46.4899 32.7875 47.3783 33.0105 48.2167C33.0335 48.3244 33.0566 48.4283 33.0797 48.5283C33.095 48.5667 33.1104 48.6129 33.1258 48.6667H34.2904V48.6436C34.275 48.6052 34.2635 48.5667 34.2558 48.5283C34.2405 48.5052 34.2328 48.4744 34.2328 48.436L34.2097 48.3783L34.1982 48.3321L34.1866 48.309L34.1751 48.286C34.1713 48.2629 34.1636 48.2398 34.1521 48.2167C34.1367 48.1706 34.1251 48.1244 34.1175 48.0783L34.0598 47.8937C33.8522 47.1399 33.7485 46.3515 33.7485 45.5284Z" fill="url(#paint2_linear)"/>
<path d="M40.1944 16.6144C39.933 16.4837 39.6832 16.4644 39.4448 16.5567C39.1912 16.6567 38.999 16.8375 38.8683 17.099C38.7376 17.3221 38.7222 17.5644 38.8222 17.8259C39.4372 19.6027 39.8215 21.4949 39.9753 23.5025C40.0137 23.764 40.129 23.9794 40.3212 24.1486C40.5211 24.3409 40.7632 24.4255 41.0477 24.4024C41.309 24.364 41.5243 24.2486 41.6934 24.0563C41.8856 23.8563 41.9625 23.6294 41.924 23.3756C41.7703 21.1911 41.3475 19.1297 40.6556 17.1913C40.5634 16.9375 40.4096 16.7452 40.1944 16.6144ZM23.7626 1.01533C23.4782 0.923024 23.2168 0.953791 22.9785 1.10763C22.7633 1.23839 22.6211 1.43453 22.5519 1.69606C22.4519 1.95758 22.4865 2.20372 22.6556 2.43448C22.7863 2.65754 22.9747 2.81907 23.2207 2.91906C25.0118 3.40365 26.703 4.09207 28.2943 4.98433C28.5173 5.13048 28.7594 5.18432 29.0208 5.14586C29.2745 5.03817 29.4628 4.8728 29.5858 4.64973C29.7242 4.43436 29.7741 4.19591 29.7357 3.93439C29.6358 3.67287 29.4743 3.47672 29.2514 3.34596C27.5371 2.30756 25.7075 1.53068 23.7626 1.01533ZM7.38855 2.60754C7.27323 2.34602 7.08489 2.19218 6.82352 2.14603C6.56984 1.99989 6.32385 1.99989 6.08554 2.14603C4.27132 2.92291 2.54166 3.95362 0.896568 5.23816C0.658259 5.392 0.527574 5.61891 0.504512 5.91889C0.48145 6.18041 0.546793 6.40732 0.70054 6.59962C0.854287 6.83807 1.08106 6.96883 1.38087 6.99191C1.64224 7.01498 1.88055 6.9496 2.0958 6.79576C3.58714 5.6266 5.17074 4.67281 6.84659 3.93439C7.10796 3.80363 7.28861 3.60749 7.38855 3.34596C7.49617 3.09213 7.49617 2.84599 7.38855 2.60754ZM11.8741 0.426899C11.5743 0.465358 11.3591 0.59612 11.2284 0.819184C11.0746 1.01148 11.0285 1.24993 11.09 1.53453C11.1284 1.79605 11.2591 2.01142 11.4821 2.18064C11.6742 2.31141 11.9126 2.35756 12.197 2.3191C13.5653 2.05757 14.976 1.92681 16.4289 1.92681C16.8517 1.92681 17.2706 1.94604 17.6858 1.9845C17.9471 2.02296 18.1816 1.94604 18.3892 1.75375C18.5737 1.58452 18.6851 1.36915 18.7236 1.10763C18.762 0.807646 18.6774 0.569198 18.4699 0.392285C18.3161 0.192297 18.1086 0.0730727 17.8472 0.0346134C17.3936 0.0115378 16.9209 0 16.4289 0C14.8453 0 13.327 0.1423 11.8741 0.426899ZM36.9772 13.2223C37.2386 13.2531 37.4807 13.2031 37.7037 13.0723C37.9343 12.9108 38.0803 12.7031 38.1418 12.4493C38.1803 12.1878 38.1303 11.9378 37.9919 11.6993C36.9926 10.2071 35.8318 8.79949 34.5096 7.47649C34.3635 7.34573 34.2328 7.21497 34.1175 7.08421C33.9253 6.89191 33.6985 6.79576 33.4372 6.79576C33.1758 6.79576 32.949 6.89191 32.7568 7.08421C32.557 7.2842 32.457 7.51495 32.457 7.77648C32.457 8.03031 32.557 8.25722 32.7568 8.45721C32.8875 8.58028 33.0105 8.70719 33.1258 8.83795C34.3942 10.0994 35.482 11.4109 36.3891 12.7723C36.5198 12.9954 36.7158 13.1454 36.9772 13.2223Z" fill="#CCCCCC"/>
<path d="M37.7152 25.6836C37.5077 25.5066 37.2694 25.4374 37.0003 25.4759C36.7389 25.4913 36.5237 25.5874 36.3546 25.7643C36.1701 25.9874 36.0932 26.2335 36.124 26.5027C36.1316 26.7797 36.2393 27.0027 36.4468 27.1719L40.8748 30.9448C41.0823 31.0986 41.3206 31.1717 41.5897 31.164C41.8664 31.1486 42.0932 31.0371 42.27 30.8294C42.4391 30.6371 42.5045 30.3987 42.466 30.1141C42.443 29.8218 42.3392 29.5987 42.1547 29.4449L37.7152 25.6836Z" fill="#CCCCCC"/>
<path d="M45.914 25.0834C45.7065 24.9142 45.4528 24.845 45.153 24.8758C44.8916 24.8758 44.6764 24.9796 44.5073 25.1873L40.7366 29.6178C40.5829 29.8178 40.5098 30.0678 40.5175 30.3678C40.5483 30.6216 40.6597 30.8331 40.8519 31.0023C41.0441 31.1716 41.2824 31.2369 41.5668 31.1985C41.859 31.1985 42.0819 31.0869 42.2356 30.8639L45.9948 26.4449C46.1716 26.2372 46.2484 25.9988 46.2254 25.7296C46.1869 25.468 46.0832 25.2527 45.914 25.0834Z" fill="#CCCCCC"/>
<path d="M34.2559 60.9544C34.1406 60.9159 34.0291 60.8852 33.9215 60.8621C33.9907 60.9159 34.0714 60.9736 34.1636 61.0352C34.3174 61.1813 34.498 61.389 34.7056 61.6582C35.0515 62.1505 35.2245 62.7274 35.2245 63.3889C35.2399 64.0504 35.1591 64.585 34.9823 64.9926C34.8978 65.1618 34.7978 65.3311 34.6825 65.5003C34.6595 65.508 34.6326 65.5311 34.6018 65.5695C34.5557 65.608 34.5172 65.6541 34.4865 65.708C33.9561 66.2541 33.268 66.5002 32.4224 66.4464C32.138 66.4233 31.8536 66.3464 31.5691 66.2156C31.0541 65.9464 30.712 65.581 30.5429 65.1195C30.4891 64.958 30.4545 64.8426 30.4391 64.7734C30.3776 64.4503 30.3738 64.1273 30.4276 63.8042C30.4891 63.4119 30.6505 63.085 30.9119 62.8235C31.0656 62.6697 31.2271 62.5466 31.3962 62.4543C31.45 62.4312 31.5 62.4043 31.5461 62.3735C31.746 62.312 31.9497 62.2735 32.1572 62.2582H32.1688C32.2379 62.2582 32.2994 62.2659 32.3533 62.2812C32.7146 62.3351 33.0297 62.5428 33.2988 62.9043C33.5602 63.2812 33.6524 63.6965 33.5755 64.1504C33.5217 64.358 33.4295 64.5388 33.2988 64.6926C33.2911 64.7234 33.2873 64.7503 33.2873 64.7734C33.1028 64.9657 32.8952 65.0618 32.6646 65.0618C32.4032 65.0618 32.1957 64.9657 32.0419 64.7734C32.0112 64.7349 31.9843 64.7042 31.9612 64.6811C31.8843 64.5503 31.8497 64.4273 31.8574 64.3119C31.8574 64.2273 31.892 64.1465 31.9612 64.0696C31.9612 64.2004 32.0265 64.3234 32.1572 64.4388C32.2879 64.5696 32.4609 64.6157 32.6761 64.5773C33.0144 64.5157 33.1989 64.258 33.2296 63.8042C33.2296 63.6042 33.1758 63.4273 33.0682 63.2735C32.9375 63.0504 32.7107 62.9004 32.3878 62.8235C32.0265 62.8389 31.7229 62.9697 31.4769 63.2158C31.254 63.4466 31.1425 63.7658 31.1425 64.1734C31.1425 64.3811 31.1809 64.5811 31.2578 64.7734C31.2962 64.8657 31.3539 64.9619 31.4308 65.0618C31.4615 65.1003 31.4961 65.1465 31.5345 65.2003C31.7959 65.4849 32.0996 65.6272 32.4455 65.6272C33.0297 65.6657 33.491 65.4772 33.8292 65.0618C33.9061 64.9619 33.9714 64.8657 34.0253 64.7734C34.1636 64.5119 34.2482 64.2465 34.2789 63.9773C34.4096 63.1312 34.2059 62.4505 33.6678 61.9351C33.0989 61.4121 32.4455 61.2044 31.7075 61.3121C31.4077 61.3505 31.1271 61.4274 30.8657 61.5428C30.1201 61.9582 29.5973 62.5928 29.2975 63.4466C29.2207 63.7312 29.1822 64.0311 29.1822 64.3465C29.1668 64.4003 29.1592 64.4465 29.1592 64.485C29.1592 64.6926 29.1707 64.8849 29.1937 65.0618C29.3091 66.0003 29.705 66.8079 30.3814 67.4848C30.7043 67.8232 31.1732 68.1001 31.7882 68.3155C32.3955 68.5386 33.1143 68.6386 33.9445 68.6155C34.6979 68.577 35.309 68.4193 35.778 68.1424C35.8164 68.104 35.8625 68.0655 35.9163 68.0271C35.9163 68.0809 35.9163 68.1271 35.9163 68.1655C35.8856 68.2194 35.8587 68.2694 35.8356 68.3155C35.8203 68.3155 35.8126 68.3232 35.8126 68.3386C35.7511 68.4001 35.6742 68.4847 35.5819 68.5924C35.5281 68.6463 35.4705 68.6963 35.409 68.7424C35.163 68.9424 34.8747 69.1078 34.5442 69.2385C34.4827 69.2462 34.4212 69.2655 34.3597 69.2962C34.1598 69.3347 33.9561 69.3731 33.7485 69.4116C33.6178 69.4347 33.4871 69.4462 33.3565 69.4462C33.2181 69.4616 33.0759 69.4693 32.9298 69.4693C32.9067 69.4693 32.8875 69.4693 32.8722 69.4693C32.8337 69.4693 32.803 69.4693 32.7799 69.4693H32.7568C31.5807 69.4693 30.5698 69.0616 29.7242 68.2463L29.6781 68.1771C29.6396 68.1386 29.5973 68.0963 29.5512 68.0501C29.4282 67.9271 29.3244 67.804 29.2399 67.6809C29.2091 67.6502 29.1899 67.6309 29.1822 67.6232C29.1822 67.6079 29.1745 67.6002 29.1592 67.6002V67.5771C29.1284 67.554 29.1092 67.5271 29.1015 67.4963C29.0861 67.4579 29.0669 67.4348 29.0438 67.4271L28.9401 67.2656V67.2886C29.3321 68.5347 30.1393 69.727 31.3616 70.8654C31.4 70.8961 31.4308 70.9307 31.4538 70.9692C32.6069 72.0076 33.6178 72.7537 34.4865 73.2075C34.8555 73.3998 35.1937 73.5344 35.5012 73.6114C35.5397 73.6267 35.5743 73.6421 35.605 73.6575C35.6819 73.6652 35.7588 73.6844 35.8356 73.7152V73.6921C35.851 73.7075 35.8625 73.7152 35.8702 73.7152H35.9163C35.9778 73.6844 36.0547 73.6652 36.147 73.6575C36.1854 73.6421 36.2162 73.6267 36.2392 73.6114C36.5621 73.5344 36.9003 73.3998 37.2539 73.2075C38.138 72.7537 39.1489 72.0076 40.2866 70.9692C40.3251 70.9307 40.3596 70.8961 40.3904 70.8654C41.9586 69.3885 42.835 67.8386 43.0195 66.2156C43.0656 65.8157 43.0887 65.4311 43.0887 65.0618C43.0502 63.9388 42.7581 63.0004 42.2123 62.2466C41.9971 61.9313 41.7587 61.6697 41.4974 61.4621L41.4743 61.439C41.1514 61.1928 40.794 61.0121 40.4019 60.8967C40.4019 60.889 40.3981 60.8852 40.3904 60.8852C40.2597 60.8544 40.1213 60.8275 39.9753 60.8044C39.8446 60.7659 39.7101 60.7467 39.5717 60.7467C39.4794 60.7313 39.3872 60.7236 39.2949 60.7236H39.2604C39.245 60.7236 39.2181 60.7236 39.1796 60.7236H39.1566C39.072 60.7236 38.9759 60.7236 38.8683 60.7236C38.3609 60.739 37.8997 60.8159 37.4846 60.9544C37.1848 61.0621 36.9195 61.1928 36.6889 61.3467C36.6505 61.3621 36.6236 61.3813 36.6082 61.4044C36.5851 61.4197 36.5621 61.4313 36.539 61.439C36.4545 61.5082 36.3814 61.5736 36.3199 61.6351L36.2969 61.6582C36.2507 61.6813 36.2123 61.712 36.1816 61.7505C36.1585 61.7813 36.1316 61.8043 36.1008 61.8197C36.0393 61.9043 35.9778 61.9928 35.9163 62.0851L35.8933 62.1082L35.8702 62.0851C35.7395 61.9159 35.6511 61.8043 35.605 61.7505C35.4359 61.5736 35.2399 61.4313 35.0169 61.3236C35.0016 61.3005 34.9823 61.2813 34.9593 61.2659C34.7363 61.1351 34.5019 61.0313 34.2559 60.9544Z" fill="white"/>
<defs>
<linearGradient id="paint0_linear" x1="38.9086" y1="59.2552" x2="38.9086" y2="59.2789" gradientUnits="userSpaceOnUse">
<stop stop-color="#B1764A"/>
<stop offset="1" stop-color="#925331"/>
</linearGradient>
<linearGradient id="paint1_linear" x1="51.3245" y1="42.1283" x2="36.7906" y2="49.1622" gradientUnits="userSpaceOnUse">
<stop offset="0.145098" stop-color="#FACA51"/>
<stop offset="0.266667" stop-color="#FBD661"/>
<stop offset="0.364706" stop-color="#FFFF99"/>
<stop offset="0.486275" stop-color="#FDF992"/>
<stop offset="0.584314" stop-color="#F3E176"/>
<stop offset="0.788235" stop-color="#DEAE3B"/>
</linearGradient>
<linearGradient id="paint2_linear" x1="53.4694" y1="41.4794" x2="38.9509" y2="48.5058" gradientUnits="userSpaceOnUse">
<stop offset="0.145098" stop-color="#FACF58"/>
<stop offset="0.266667" stop-color="#FBD661"/>
<stop offset="0.364706" stop-color="#FFFF99"/>
<stop offset="0.486275" stop-color="#FDF992"/>
<stop offset="0.584314" stop-color="#F3E176"/>
<stop offset="0.788235" stop-color="#DEAE3B"/>
</linearGradient>
</defs>
</svg>
