<svg width="40" height="40" viewBox="0 0 40 40" fill="none" xmlns="http://www.w3.org/2000/svg">
<path d="M25.5 8.35C25.141 8.35 24.85 8.64101 24.85 9C24.85 9.35899 25.141 9.65 25.5 9.65V8.35ZM31.85 16.5C31.85 16.859 32.141 17.15 32.5 17.15C32.859 17.15 33.15 16.859 33.15 16.5H31.85ZM29.9596 14.0404C29.7058 13.7865 29.2942 13.7865 29.0404 14.0404C28.7865 14.2942 28.7865 14.7058 29.0404 14.9596L29.9596 14.0404ZM32.5 17.5L32.0404 17.9596C32.2942 18.2135 32.7058 18.2135 32.9596 17.9596L32.5 17.5ZM35.9596 14.9596C36.2135 14.7058 36.2135 14.2942 35.9596 14.0404C35.7058 13.7865 35.2942 13.7865 35.0404 14.0404L35.9596 14.9596ZM25.5 9.65C27.5149 9.65 29.0628 10.0194 30.115 10.98C31.1562 11.9306 31.85 13.5893 31.85 16.5H33.15C33.15 13.4107 32.4149 11.3194 30.9916 10.02C29.5793 8.73065 27.6272 8.35 25.5 8.35V9.65ZM29.0404 14.9596L32.0404 17.9596L32.9596 17.0404L29.9596 14.0404L29.0404 14.9596ZM32.9596 17.9596L35.9596 14.9596L35.0404 14.0404L32.0404 17.0404L32.9596 17.9596Z" fill="black"/>
<path d="M15 32.15C15.359 32.15 15.65 31.859 15.65 31.5C15.65 31.141 15.359 30.85 15 30.85L15 32.15ZM8.65 24C8.65 23.641 8.35899 23.35 8 23.35C7.64102 23.35 7.35 23.641 7.35 24L8.65 24ZM10.5404 26.4596C10.7942 26.7135 11.2058 26.7135 11.4596 26.4596C11.7135 26.2058 11.7135 25.7942 11.4596 25.5404L10.5404 26.4596ZM8 23L8.45962 22.5404C8.20578 22.2865 7.79422 22.2865 7.54038 22.5404L8 23ZM4.54038 25.5404C4.28654 25.7942 4.28654 26.2058 4.54038 26.4596C4.79422 26.7135 5.20578 26.7135 5.45962 26.4596L4.54038 25.5404ZM15 30.85C12.9851 30.85 11.4372 30.4806 10.385 29.52C9.34382 28.5694 8.65 26.9107 8.65 24L7.35 24C7.35 27.0893 8.08511 29.1806 9.50844 30.48C10.9207 31.7694 12.8728 32.15 15 32.15L15 30.85ZM11.4596 25.5404L8.45962 22.5404L7.54038 23.4596L10.5404 26.4596L11.4596 25.5404ZM7.54038 22.5404L4.54038 25.5404L5.45962 26.4596L8.45962 23.4596L7.54038 22.5404Z" fill="black"/>
<rect x="2" y="5" width="19" height="14" rx="2" stroke="black"/>
<rect width="19" height="14" rx="2" transform="matrix(-1 0 0 1 38 24)" stroke="black"/>
<path d="M16 5.23077V4C16 2.89543 15.1046 2 14 2H4C2.89543 2 2 2.89543 2 4V8" stroke="black"/>
<path d="M24 24.2308V23C24 21.8954 24.8954 21 26 21H36C37.1046 21 38 21.8954 38 23V27" stroke="black"/>
<circle cx="17.5" cy="11.5" r="1.15" stroke="black" stroke-width="0.7"/>
<circle r="1.15" transform="matrix(-1 0 0 1 22.5 30.5)" stroke="black" stroke-width="0.7"/>
</svg>
