<svg width="28" height="28" viewBox="0 0 28 28" fill="none" xmlns="http://www.w3.org/2000/svg">
<path fill-rule="evenodd" clip-rule="evenodd" d="M20.4459 2.80005C19.2082 2.80005 18.1654 3.7425 18.0251 4.9438C18.0132 4.94198 18.0009 4.93924 17.9886 4.93651L17.9886 4.93651L17.9886 4.9365C17.9763 4.93377 17.964 4.93104 17.9522 4.92922C14.3639 4.31723 12.1061 7.55266 10.776 9.45868C10.3668 10.0451 10.0454 10.5056 9.80008 10.6896C9.4354 10.9572 8.62037 11.0582 7.70636 11.1714C7.41875 11.2071 7.12134 11.2439 6.82508 11.2875C6.20529 11.3787 5.58732 11.5154 5.04591 11.8271C4.5045 12.1389 4.04695 12.662 3.87924 13.3875H3.89383C3.68237 13.8816 3.71883 14.4521 3.90841 15.0209C4.12169 15.6589 4.5282 16.3297 5.08966 17.0188C6.17794 18.355 7.85867 19.7678 9.93133 21.0438C10.3597 22.6334 11.8053 23.8 13.5334 23.8C14.0511 23.8 14.5451 23.6961 14.9917 23.5084C16.4464 23.9969 17.7443 24.2667 18.8563 24.2667C19.9373 24.2667 20.8433 23.9823 21.3063 23.2605H21.3209C21.3307 23.2487 21.3379 23.2348 21.345 23.2211C21.3511 23.2093 21.3571 23.1977 21.3647 23.1875C21.7675 22.6717 22.0829 22.0683 22.0501 21.3063C22.0154 20.5115 21.649 19.6 20.8834 18.3313C20.5954 17.8519 20.6738 17.0954 21.0001 16.1C21.1642 15.5994 21.3828 15.0535 21.6124 14.48L21.6124 14.48L21.6124 14.48L21.6125 14.4799C21.8393 13.9134 22.0769 13.32 22.2834 12.7167C22.699 11.5027 23.0035 10.2266 22.7647 8.98338C22.6425 8.34718 22.3709 7.72739 21.9188 7.16047C22.4949 6.69927 22.8667 6.00474 22.8667 5.22088C22.8667 3.89015 21.7766 2.80005 20.4459 2.80005ZM20.4459 3.73338C21.2626 3.73338 21.9334 4.40422 21.9334 5.22088C21.9334 5.75317 21.6818 6.19979 21.2626 6.48963C20.9363 6.2089 20.5516 5.94276 20.1105 5.70213H20.0959C19.6967 5.4852 19.3139 5.32114 18.9438 5.19172C18.9602 4.38963 19.6402 3.73338 20.4459 3.73338ZM19.6584 6.5188C18.6193 5.95369 17.7225 5.71854 16.9313 5.71671C14.6352 5.71061 13.2546 7.68351 12.0642 9.38456C11.4769 10.2237 10.936 10.9968 10.3542 11.4334C9.65314 11.9471 8.71787 12.035 7.80687 12.1207H7.80687C7.61877 12.1383 7.43172 12.1559 7.24797 12.1771C9.24771 12.374 11.8691 13.3073 14.5542 14.8605C16.8784 16.2112 18.8016 17.748 20.0521 19.1917C20.3238 19.5071 20.5589 19.8206 20.7667 20.125C20.6045 19.7495 20.3912 19.3248 20.0813 18.8125C19.5527 17.9375 19.7568 16.8857 20.1105 15.8084C20.2935 15.2508 20.5293 14.6717 20.7688 14.0835L20.7688 14.0835C20.992 13.5352 21.2184 12.9791 21.4084 12.425C21.8021 11.2766 22.0336 10.1391 21.8459 9.15838C21.6581 8.17765 21.0857 7.29901 19.6584 6.5188ZM6.48967 13.0667C8.25061 13.0667 11.1527 13.9654 14.0876 15.6625C16.3371 16.9714 18.1983 18.4717 19.3522 19.8042C19.9282 20.4696 20.3274 21.0857 20.5188 21.598C20.7066 22.1029 20.6884 22.4675 20.548 22.7209C20.3438 23.0727 19.7988 23.3334 18.8563 23.3334C18.0707 23.3334 17.1173 23.1566 16.0272 22.8375C16.7855 22.1558 17.2668 21.1714 17.2668 20.0667C17.2668 17.9995 15.6006 16.3334 13.5334 16.3334C11.5355 16.3334 9.92223 17.892 9.81467 19.8625C8.09566 18.7323 6.69566 17.5146 5.80426 16.4209C5.29202 15.792 4.95842 15.2086 4.79801 14.7292C4.63759 14.2498 4.66129 13.918 4.79801 13.6792C5.00582 13.3329 5.55452 13.0667 6.48967 13.0667ZM16.3334 20.0667C16.3334 18.4935 15.1066 17.2667 13.5334 17.2667C11.9602 17.2667 10.7334 18.4935 10.7334 20.0667C10.7334 21.6399 11.9602 22.8667 13.5334 22.8667C15.1066 22.8667 16.3334 21.6399 16.3334 20.0667Z" fill="black"/>
</svg>
