<svg xmlns="http://www.w3.org/2000/svg" width="40" height="40" fill="none" viewBox="0 0 40 40">
    <circle cx="20" cy="20" r="20" fill="#D92E76"/>
    <path fill="#fff" fill-rule="evenodd" d="M23.927 27.156C23.842 29.21 22.242 31 19.995 31c-2.237 0-3.837-1.8-3.922-3.844H11.6c-1.006 0-1.6-.522-1.6-1.289 0-.953.858-1.82 1.699-2.672l.294-.299c.7-.734.89-2.246.975-3.471.074-4.196 1.155-6.911 3.974-7.933C17.292 10.107 18.437 9 19.995 9c1.568 0 2.702 1.107 3.063 2.492 2.82 1.022 3.9 3.737 3.974 7.933.085 1.225.276 2.737.975 3.471.108.113.218.225.33.337.823.84 1.663 1.695 1.663 2.634 0 .767-.604 1.289-1.6 1.289h-4.473zm-11.87-1.608v-.128c.121-.204.424-.53.771-.902.197-.21.407-.436.606-.663.763-.852 1.123-2.215 1.219-4.302.085-4.643 1.463-6.134 3.275-6.624.265-.064.413-.202.424-.468.032-1.118.668-1.896 1.643-1.896.985 0 1.61.778 1.653 1.896.01.266.149.404.413.468 1.823.49 3.201 1.981 3.286 6.624.095 2.087.456 3.45 1.208 4.302.18.2.365.4.541.589.376.403.707.759.837.976v.128H12.056zm10.216 1.608c-.084 1.437-.996 2.353-2.278 2.353-1.272 0-2.194-.916-2.268-2.353h4.546z" clip-rule="evenodd"/>
</svg>
