<svg width="28" height="28" viewBox="0 0 28 28" fill="none" xmlns="http://www.w3.org/2000/svg">
<path d="M7.01465 19.4639H16.0938C16.0234 20.7119 15.2412 21.5029 14.1602 21.5029C13.0791 21.5029 12.2969 20.7119 12.2266 19.4639H11.1719C11.2246 21.1074 12.4463 22.4609 14.1602 22.4609C15.874 22.4609 17.0957 21.1162 17.1484 19.4639H21.3057C21.9385 19.4639 22.334 19.1211 22.334 18.6113C22.334 17.7236 21.4727 16.959 20.7344 16.1768C20.0225 15.4033 19.9521 13.8213 19.8027 12.4414C19.6621 9.43555 18.7744 7.37891 16.542 6.64941C16.2871 5.47168 15.3818 4.61035 14.1602 4.61035C12.9385 4.61035 12.0332 5.47168 11.7871 6.64941C9.5459 7.37891 8.66699 9.43555 8.51758 12.4414C8.36816 13.8213 8.29785 15.4033 7.58594 16.1768C6.84766 16.959 5.99512 17.7236 5.99512 18.6113C5.99512 19.1211 6.38184 19.4639 7.01465 19.4639ZM7.28711 18.4355V18.3389C7.39258 17.9873 7.98145 17.3633 8.49121 16.8184C9.28223 15.957 9.43164 14.3926 9.58984 12.5469C9.75684 9.28613 10.7676 8.02051 12.2969 7.60742C12.5518 7.53711 12.6924 7.42285 12.7188 7.18555C12.7803 6.28027 13.3076 5.6123 14.1602 5.6123C15.0127 5.6123 15.54 6.28027 15.6016 7.18555C15.6279 7.42285 15.7686 7.53711 16.0234 7.60742C17.5527 8.02051 18.5635 9.28613 18.7305 12.5469C18.8887 14.3926 19.0381 15.957 19.8291 16.8184C20.3389 17.3633 20.9277 17.9873 21.0332 18.3389V18.4355H7.28711Z" fill="black"/>
</svg>
