<svg width="41" height="23" viewBox="0 0 41 23" fill="none" xmlns="http://www.w3.org/2000/svg">
    <path d="M27.486 17.672s1.769 1.42 3.003 1.324c1.05-.082 1.452-1.243 2.503-1.324 1.234-.096 3.003 1.324 3.003 1.324" stroke="#000" stroke-width="1.3"/>
    <rect x="14.65" y="7.65" width="24.7" height="14.3" rx="1.95" stroke="#000" stroke-width="1.3"/>
    <path stroke="#000" stroke-width="1.3" d="M28.3 10.25h7.8M16.6 12.85h19.5"/>
    <path stroke="#000" stroke-width="1.083" stroke-linecap="round" d="M11.542 9.542h-9.75M11.291 12.958h-6.5M11.291 16.208h-3.25"/>
    <circle cx="9" cy="9" r="9" fill="#20C298"/>
    <path d="M9 3.17a5.83 5.83 0 0 0-5.774 5.071.486.486 0 1 0 .963.126A4.849 4.849 0 0 1 9 4.142a4.82 4.82 0 0 1 3.428 1.429l-1 1 2.915.486-.486-2.915-.743.743A5.802 5.802 0 0 0 9 3.171zm5.3 6.032a.486.486 0 0 0-.49.43A4.849 4.849 0 0 1 9 13.857a4.824 4.824 0 0 1-3.66-1.683l.746-.746-2.915-.486.486 2.915.995-.995A5.805 5.805 0 0 0 9 14.827a5.83 5.83 0 0 0 5.774-5.07.486.486 0 0 0-.474-.556z" fill="#fff"/>
</svg>
