<svg width="35" height="35" fill="none" xmlns="http://www.w3.org/2000/svg">
    <path fill-rule="evenodd" clip-rule="evenodd" d="M18.132 30.127a.632.632 0 0 0 0 1.263H30.76a.631.631 0 1 0 0-1.263H18.132z" fill="#D92E76"/>
    <mask id="a" style="mask-type:alpha" maskUnits="userSpaceOnUse" x="17" y="17" width="15" height="15">
        <path fill-rule="evenodd" clip-rule="evenodd" d="M17.5 31.39h13.897V17.5H17.5v13.89z" fill="#fff"/>
    </mask>
    <g mask="url(#a)" fill-rule="evenodd" clip-rule="evenodd" fill="#D92E76">
        <path d="M20.341 28.485h1.894v-5.683h-1.894v5.683zm3.157 0h1.894v-5.683h-1.894v5.683zm3.158 0h1.894v-5.683h-1.894v5.683zm-7.735 0a.632.632 0 1 0 0 1.264h11.05a.632.632 0 0 0 0-1.264h-.158v-5.683h.157a.315.315 0 1 0 0-.63H18.92a.315.315 0 1 0 0 .63h.159v5.683h-.158zM18.131 21.604h12.635a.631.631 0 0 0 .205-1.23l-6.266-2.819a.633.633 0 0 0-.518 0l-6.315 2.842a.631.631 0 0 0 .26 1.207z"/>
    </g>
    <path fill-rule="evenodd" clip-rule="evenodd" d="M2.914 14.91a.632.632 0 0 0 0 1.263H15.54a.631.631 0 1 0 0-1.263H2.915z" fill="#D92E76"/>
    <mask id="b" style="mask-type:alpha" maskUnits="userSpaceOnUse" x="2" y="2" width="15" height="15">
        <path fill-rule="evenodd" clip-rule="evenodd" d="M2.283 16.173H16.18V2.283H2.283v13.89z" fill="#fff"/>
    </mask>
    <g mask="url(#b)" fill-rule="evenodd" clip-rule="evenodd" fill="#D92E76">
        <path d="M5.123 13.268h1.894V7.585H5.123v5.683zm3.156 0h1.894V7.585H8.28v5.683zm3.158 0h1.894V7.585h-1.894v5.683zm-7.734 0a.632.632 0 1 0 0 1.264h11.05a.632.632 0 0 0 0-1.263h-.158V7.586h.157a.315.315 0 1 0 0-.631H3.702a.315.315 0 1 0 0 .63h.159v5.683h-.158zM2.914 6.387h12.634a.631.631 0 0 0 .205-1.23L9.488 2.338a.633.633 0 0 0-.518 0L2.655 5.18a.631.631 0 0 0 .26 1.208z"/>
    </g>
    <path d="M19.402 7.875a.495.495 0 0 0 0 .99v-.99zm4.832 6.201a.495.495 0 0 0 .989 0h-.99zm-1.439-1.871a.495.495 0 0 0-.699.7l.7-.7zm1.933 2.632-.35.35a.494.494 0 0 0 .7 0l-.35-.35zm2.633-1.933a.494.494 0 1 0-.7-.7l.7.7zm-7.959-4.04c1.533 0 2.711.281 3.512 1.012.792.723 1.32 1.986 1.32 4.2h.989c0-2.35-.56-3.942-1.642-4.93-1.075-.981-2.56-1.27-4.179-1.27v.988zm2.694 4.04 2.283 2.283.699-.7-2.283-2.282-.699.7zm2.982 2.283 2.283-2.283-.7-.7-2.282 2.283.699.7zM14.457 25.984a.495.495 0 1 0 0-.99v.99zm-4.832-6.201a.495.495 0 0 0-.99 0h.99zm1.438 1.871a.495.495 0 0 0 .7-.7l-.7.7zM9.13 19.022l.35-.35a.494.494 0 0 0-.7 0l.35.35zm-2.632 1.933a.495.495 0 1 0 .7.7l-.7-.7zm7.958 4.04c-1.532 0-2.71-.281-3.51-1.012-.793-.724-1.321-1.986-1.321-4.2h-.99c0 2.35.56 3.941 1.643 4.93 1.075.981 2.56 1.27 4.178 1.27v-.988zm-2.693-4.04L9.48 18.672l-.7.7 2.283 2.282.7-.7zM8.78 18.672l-2.283 2.283.7.7 2.282-2.283-.7-.7z" fill="#D92E76"/>
</svg>
