<svg width="28" height="28" viewBox="0 0 28 28" fill="none" xmlns="http://www.w3.org/2000/svg">
<path fill-rule="evenodd" clip-rule="evenodd" d="M3.73334 8.86654C3.73334 7.5832 4.78334 6.5332 6.06667 6.5332H22.8667C24.15 6.5332 25.2 7.5832 25.2 8.86654V19.1332C25.2 20.4165 24.15 21.4665 22.8667 21.4665H6.06667C4.78334 21.4665 3.73334 20.4165 3.73334 19.1332V8.86654ZM22.8667 7.46654H6.06667C5.28829 7.46654 4.66667 8.08815 4.66667 8.86654V9.79987H24.2667V8.86654C24.2667 8.08815 23.6451 7.46654 22.8667 7.46654ZM4.66667 12.1332H24.2667V19.1332C24.2667 19.9116 23.6451 20.5332 22.8667 20.5332H6.06667C5.28829 20.5332 4.66667 19.9116 4.66667 19.1332V12.1332ZM7 14.4665V13.5332H14.4667V14.4665H7Z" fill="#D83275"/>
</svg>
