<svg width="28" height="28" viewBox="0 0 28 28" fill="none" xmlns="http://www.w3.org/2000/svg">
<path d="M9.86667 18.2C9.86667 20.8141 7.74748 22.9333 5.13333 22.9333C2.51919 22.9333 0.4 20.8141 0.4 18.2C0.4 15.5858 2.51919 13.4667 5.13333 13.4667C7.74748 13.4667 9.86667 15.5858 9.86667 18.2Z" stroke="black" stroke-width="0.8"/>
<path d="M4.37817 21.6917C4.51099 21.6917 4.61255 21.5979 4.61255 21.4573V20.9573C5.53442 20.887 6.30005 20.3752 6.30005 19.4338C6.30005 18.6135 5.73755 18.1995 4.73364 17.9573L4.61255 17.9299V16.1526C5.07739 16.2151 5.37817 16.469 5.55005 16.9221C5.60474 17.0901 5.71411 17.1995 5.89771 17.1995C6.08521 17.1995 6.21802 17.0706 6.21802 16.8831C6.21802 16.8245 6.21021 16.7659 6.19458 16.7073C6.01489 16.0432 5.38989 15.6096 4.61255 15.5393V15.0393C4.61255 14.8987 4.51099 14.8049 4.37817 14.8049C4.24536 14.8049 4.1438 14.8987 4.1438 15.0393V15.5432C3.21802 15.6252 2.55786 16.1799 2.55786 17.0198C2.55786 17.7893 3.0813 18.2229 4.05396 18.4573L4.1438 18.4807V20.344C3.54614 20.2776 3.24927 19.9729 3.12036 19.5706C3.05396 19.3752 2.93286 19.2932 2.77271 19.2932C2.58521 19.2932 2.45239 19.4221 2.45239 19.6096C2.45239 19.6682 2.46021 19.7268 2.47583 19.7854C2.65942 20.4768 3.34692 20.8831 4.1438 20.9534V21.4573C4.1438 21.5979 4.24536 21.6917 4.37817 21.6917ZM3.23755 16.9729C3.23755 16.594 3.55005 16.2346 4.1438 16.1565V17.8167C3.47192 17.6526 3.23755 17.3557 3.23755 16.9729ZM4.63599 18.5979C5.40942 18.7854 5.62036 19.0588 5.62036 19.4885C5.62036 19.9377 5.33911 20.2932 4.61255 20.3479V18.594L4.63599 18.5979Z" fill="black"/>
<path d="M12.3667 6.23337C12.5876 6.23337 12.7667 6.05429 12.7667 5.83337C12.7667 5.61246 12.5876 5.43337 12.3667 5.43337V6.23337ZM4.50002 11.2C4.50002 11.421 4.67911 11.6 4.90002 11.6C5.12094 11.6 5.30002 11.421 5.30002 11.2H4.50002ZM10.2667 6.23337H11.9V5.43337H10.2667V6.23337ZM11.9 6.23337H12.3667V5.43337H11.9V6.23337ZM5.30002 11.2C5.30002 8.45703 7.52368 6.23337 10.2667 6.23337V5.43337C7.08185 5.43337 4.50002 8.0152 4.50002 11.2H5.30002Z" fill="black"/>
<path d="M12.014 4.0015C11.9044 3.80969 11.66 3.74305 11.4682 3.85265C11.2764 3.96226 11.2098 4.2066 11.3194 4.39841L12.014 4.0015ZM12.6 5.83328L12.8603 6.13699C13.006 6.01212 13.0425 5.80141 12.9473 5.63483L12.6 5.83328ZM10.7064 6.92958C10.5386 7.07335 10.5192 7.32587 10.663 7.4936C10.8067 7.66133 11.0593 7.68076 11.227 7.53699L10.7064 6.92958ZM11.3194 4.39841L12.2527 6.03174L12.9473 5.63483L12.014 4.0015L11.3194 4.39841ZM12.3397 5.52958L10.7064 6.92958L11.227 7.53699L12.8603 6.13699L12.3397 5.52958Z" fill="black"/>
<path d="M10.5 9.56669H27.5333M10.5 9.56669L19.1333 4.90002L27.5333 9.56669M10.5 9.56669V10.7334H27.5333V9.56669M10.5 10.9667C10.5 11.3556 10.6867 12.1334 11.4333 12.1334C12.18 12.1334 14.4667 12.1334 13.7667 12.1334C14.1556 12.1334 14.9333 11.9 14.9333 10.9667M10.5 22.4C10.5 22.0111 10.6867 21.2334 11.4333 21.2334C12.18 21.2334 13.3778 21.2334 14 21.2334C14.3111 21.2334 14.9333 21.4667 14.9333 22.4M16.8 10.9667C16.8 11.3556 16.9867 12.1334 17.7333 12.1334C18.48 12.1334 20.7667 12.1334 20.0667 12.1334C20.4556 12.1334 21.2333 11.9 21.2333 10.9667M16.5667 22.4C16.5667 22.0111 16.7533 21.2334 17.5 21.2334C18.2467 21.2334 19.6778 21.2334 20.3 21.2334C20.6111 21.2334 21.2333 21.4667 21.2333 22.4M23.1 10.9667C23.1 11.3556 23.2867 12.1334 24.0333 12.1334C24.78 12.1334 27.0667 12.1334 26.3667 12.1334C26.7556 12.1334 27.5333 11.9 27.5333 10.9667M22.8667 22.4C22.8667 22.0111 23.0533 21.2334 23.8 21.2334C24.5467 21.2334 25.9778 21.2334 26.6 21.2334C26.9111 21.2334 27.5333 21.4667 27.5333 22.4M11.6667 12.3667V21H13.7667V12.3667H11.6667ZM17.9667 12.3667V21H20.0667V12.3667H17.9667ZM24.2667 12.3667V21H26.3667V12.3667H24.2667ZM10.5 22.6334H27.5333V23.8H10.5V22.6334Z" stroke="black" stroke-width="0.8" stroke-linecap="round" stroke-linejoin="round"/>
</svg>
