<svg width="28" height="28" viewBox="0 0 28 28" fill="none" xmlns="http://www.w3.org/2000/svg">
<path fill-rule="evenodd" clip-rule="evenodd" d="M14.926 3.26075C14.9034 3.26124 14.8809 3.26337 14.8586 3.26713H5.59998V24.7338H22.4V24.2671V3.26713H18.745C18.6946 3.2588 18.6432 3.2588 18.5928 3.26713H15.0053C14.9791 3.26275 14.9526 3.26061 14.926 3.26075ZM6.53331 4.20046H14.4666V9.80046C14.4666 9.97721 14.5664 10.1388 14.7244 10.2179C14.8825 10.2971 15.0717 10.2801 15.2131 10.1742L16.8 8.9838L18.3868 10.1742C18.5283 10.2801 18.7175 10.2971 18.8755 10.2179C19.0336 10.1388 19.1334 9.97721 19.1333 9.80046V4.20046H21.4666V23.8005H6.53331V4.20046ZM18.2 4.20046H15.4V8.86713L16.5202 8.02676C16.686 7.90252 16.9139 7.90252 17.0798 8.02676L18.2 8.86713V4.20046ZM9.33329 13.0671C9.16499 13.0647 9.00845 13.1532 8.92361 13.2985C8.83877 13.4439 8.83877 13.6237 8.92361 13.7691C9.00845 13.9144 9.16499 14.0028 9.33329 14.0005H18.6666C18.8349 14.0028 18.9915 13.9144 19.0763 13.7691C19.1611 13.6237 19.1611 13.4439 19.0763 13.2985C18.9915 13.1532 18.8349 13.0647 18.6666 13.0671H9.33329ZM8.92361 15.6319C9.00845 15.4865 9.16499 15.3981 9.33329 15.4005H16.3333C16.5016 15.3981 16.6581 15.4865 16.743 15.6319C16.8278 15.7772 16.8278 15.957 16.743 16.1024C16.6581 16.2478 16.5016 16.3362 16.3333 16.3338H9.33329C9.16499 16.3362 9.00845 16.2478 8.92361 16.1024C8.83877 15.957 8.83877 15.7772 8.92361 15.6319ZM9.33329 17.7338C9.16499 17.7314 9.00845 17.8198 8.92361 17.9652C8.83877 18.1106 8.83877 18.2904 8.92361 18.4357C9.00845 18.5811 9.16499 18.6695 9.33329 18.6671H18.6666C18.8349 18.6695 18.9915 18.5811 19.0763 18.4357C19.1611 18.2904 19.1611 18.1106 19.0763 17.9652C18.9915 17.8198 18.8349 17.7314 18.6666 17.7338H9.33329ZM8.92361 20.2985C9.00845 20.1532 9.16499 20.0647 9.33329 20.0671H16.3333C16.5016 20.0647 16.6581 20.1532 16.743 20.2985C16.8278 20.4439 16.8278 20.6237 16.743 20.7691C16.6581 20.9144 16.5016 21.0028 16.3333 21.0005H9.33329C9.16499 21.0028 9.00845 20.9144 8.92361 20.7691C8.83877 20.6237 8.83877 20.4439 8.92361 20.2985Z" fill="#D83275"/>
</svg>
