<svg width="20" height="20" viewBox="0 0 20 20" fill="none" xmlns="http://www.w3.org/2000/svg">
<rect width="20" height="20" fill="#F2F2F2"/>
<g clip-path="url(#clip0)">
<rect width="1440" height="1024" transform="translate(-622 -381)" fill="white"/>
<g filter="url(#filter0_d)">
<path d="M-188 -141.82C-188 -145.785 -184.785 -149 -180.82 -149H604.82C608.785 -149 612 -145.785 612 -141.82V323.32C612 327.285 608.785 330.5 604.82 330.5H-180.82C-184.785 330.5 -188 327.285 -188 323.32V-141.82Z" fill="white"/>
<rect width="20" height="19.9997" fill="white"/>
<path d="M8 11V10H15V11H8Z" fill="black"/>
<path d="M15 8V9H8V8H15Z" fill="black"/>
<path d="M8 13V12H15V13H8Z" fill="black"/>
<path d="M8 15V14H15V15H8Z" fill="black"/>
<mask id="path-7-outside-1" maskUnits="userSpaceOnUse" x="2" y="0" width="14" height="17" fill="black">
<rect fill="white" x="2" width="14" height="17"/>
<path d="M4.96661 15.9802C4.96661 15.7742 4.96661 15.5668 4.96661 15.3568H4.75234C4.01468 15.3568 3.64917 14.9976 3.64784 14.2686C3.64784 13.08 3.64784 11.8914 3.64784 10.7028C3.64784 9.10749 3.65514 7.5128 3.64254 5.9181C3.64254 5.62294 3.73541 5.53379 4.02198 5.54898C4.42 5.57011 4.81802 5.55558 5.21604 5.55426C6.31059 5.5503 6.94476 4.91903 6.94609 3.83345C6.94609 3.12029 6.94609 2.4078 6.94609 1.6471H13.2043C13.857 1.6471 14.2026 1.8452 14.328 2.31799H15C14.86 1.51305 14.263 1.01252 13.3661 1.00724C11.2991 0.996235 9.23205 0.997776 7.165 1.01186C7.01759 1.02215 6.8796 1.08776 6.77892 1.19543C5.56275 2.58388 4.35764 3.9774 3.16359 5.37597C3.06854 5.49229 3.01406 5.63621 3.00836 5.78604C2.99907 8.63514 2.99752 11.4849 3.00371 14.3353C3.00703 15.3575 3.67438 15.9993 4.69861 16H4.9686C4.96727 15.9947 4.96661 15.9868 4.96661 15.9802ZM6.2814 2.71419C6.2814 3.27019 6.31523 3.72911 6.27145 4.18078C6.23231 4.5849 5.83695 4.89129 5.40908 4.9144C5.12383 4.92959 4.83725 4.9144 4.44255 4.9144L6.2814 2.71419Z"/>
</mask>
<path d="M4.96661 15.9802C4.96661 15.7742 4.96661 15.5668 4.96661 15.3568H4.75234C4.01468 15.3568 3.64917 14.9976 3.64784 14.2686C3.64784 13.08 3.64784 11.8914 3.64784 10.7028C3.64784 9.10749 3.65514 7.5128 3.64254 5.9181C3.64254 5.62294 3.73541 5.53379 4.02198 5.54898C4.42 5.57011 4.81802 5.55558 5.21604 5.55426C6.31059 5.5503 6.94476 4.91903 6.94609 3.83345C6.94609 3.12029 6.94609 2.4078 6.94609 1.6471H13.2043C13.857 1.6471 14.2026 1.8452 14.328 2.31799H15C14.86 1.51305 14.263 1.01252 13.3661 1.00724C11.2991 0.996235 9.23205 0.997776 7.165 1.01186C7.01759 1.02215 6.8796 1.08776 6.77892 1.19543C5.56275 2.58388 4.35764 3.9774 3.16359 5.37597C3.06854 5.49229 3.01406 5.63621 3.00836 5.78604C2.99907 8.63514 2.99752 11.4849 3.00371 14.3353C3.00703 15.3575 3.67438 15.9993 4.69861 16H4.9686C4.96727 15.9947 4.96661 15.9868 4.96661 15.9802ZM6.2814 2.71419C6.2814 3.27019 6.31523 3.72911 6.27145 4.18078C6.23231 4.5849 5.83695 4.89129 5.40908 4.9144C5.12383 4.92959 4.83725 4.9144 4.44255 4.9144L6.2814 2.71419Z" fill="black"/>
<path d="M4.96661 15.9802C4.96661 15.7742 4.96661 15.5668 4.96661 15.3568H4.75234C4.01468 15.3568 3.64917 14.9976 3.64784 14.2686C3.64784 13.08 3.64784 11.8914 3.64784 10.7028C3.64784 9.10749 3.65514 7.5128 3.64254 5.9181C3.64254 5.62294 3.73541 5.53379 4.02198 5.54898C4.42 5.57011 4.81802 5.55558 5.21604 5.55426C6.31059 5.5503 6.94476 4.91903 6.94609 3.83345C6.94609 3.12029 6.94609 2.4078 6.94609 1.6471H13.2043C13.857 1.6471 14.2026 1.8452 14.328 2.31799H15C14.86 1.51305 14.263 1.01252 13.3661 1.00724C11.2991 0.996235 9.23205 0.997776 7.165 1.01186C7.01759 1.02215 6.8796 1.08776 6.77892 1.19543C5.56275 2.58388 4.35764 3.9774 3.16359 5.37597C3.06854 5.49229 3.01406 5.63621 3.00836 5.78604C2.99907 8.63514 2.99752 11.4849 3.00371 14.3353C3.00703 15.3575 3.67438 15.9993 4.69861 16H4.9686C4.96727 15.9947 4.96661 15.9868 4.96661 15.9802ZM6.2814 2.71419C6.2814 3.27019 6.31523 3.72911 6.27145 4.18078C6.23231 4.5849 5.83695 4.89129 5.40908 4.9144C5.12383 4.92959 4.83725 4.9144 4.44255 4.9144L6.2814 2.71419Z" stroke="black" stroke-width="0.4" mask="url(#path-7-outside-1)"/>
<mask id="path-8-outside-2" maskUnits="userSpaceOnUse" x="5" y="2" width="13" height="17" fill="black">
<rect fill="white" x="5" y="2" width="13" height="17"/>
<path d="M16.9999 16.2864C16.9999 17.3473 16.4069 17.9993 15.4362 18C12.8088 18 10.1814 18 7.55401 18C6.61785 18 6.0079 17.3566 6.00486 16.3346C5.99718 13.4834 5.9986 10.6322 6.00911 7.78099C6.01441 7.63132 6.0642 7.48757 6.15099 7.37141C7.24519 5.97223 8.34647 4.57966 9.45483 3.19369C9.54682 3.08583 9.67292 3.01997 9.80771 3.00938C11.697 2.99837 13.5863 2.99705 15.4756 3.00542C16.4166 3.0107 16.9975 3.67066 16.9981 4.69461C16.9981 6.62095 16.9981 8.5473 16.9981 10.4736C16.9997 12.411 17.0003 14.3486 16.9999 16.2864ZM9.60944 5.83218C9.60944 6.91889 9.02858 7.54977 8.02816 7.55374C7.66436 7.55374 7.30057 7.57025 6.93678 7.54911C6.67485 7.53392 6.58814 7.6231 6.58996 7.91773C6.60148 9.51311 6.59481 11.1092 6.59481 12.7052C6.59481 13.8943 6.59481 15.0834 6.59481 16.2725C6.59481 16.9992 6.93011 17.3612 7.60434 17.3612H15.3937C16.088 17.3612 16.4099 17.0097 16.4099 16.2507C16.4099 12.4429 16.4099 8.63516 16.4099 4.82739C16.4099 3.97652 16.1068 3.64753 15.3313 3.64753H9.60944C9.60944 4.40592 9.61005 5.12202 9.60944 5.83218ZM8.20338 6.91162C8.59567 6.88916 8.95704 6.58132 8.9916 6.17768C9.03162 5.72648 9.00069 5.26736 9.00069 4.71112L7.31815 6.91492C7.68073 6.91492 7.94266 6.92682 8.20338 6.91162Z"/>
</mask>
<path d="M16.9999 16.2864C16.9999 17.3473 16.4069 17.9993 15.4362 18C12.8088 18 10.1814 18 7.55401 18C6.61785 18 6.0079 17.3566 6.00486 16.3346C5.99718 13.4834 5.9986 10.6322 6.00911 7.78099C6.01441 7.63132 6.0642 7.48757 6.15099 7.37141C7.24519 5.97223 8.34647 4.57966 9.45483 3.19369C9.54682 3.08583 9.67292 3.01997 9.80771 3.00938C11.697 2.99837 13.5863 2.99705 15.4756 3.00542C16.4166 3.0107 16.9975 3.67066 16.9981 4.69461C16.9981 6.62095 16.9981 8.5473 16.9981 10.4736C16.9997 12.411 17.0003 14.3486 16.9999 16.2864ZM9.60944 5.83218C9.60944 6.91889 9.02858 7.54977 8.02816 7.55374C7.66436 7.55374 7.30057 7.57025 6.93678 7.54911C6.67485 7.53392 6.58814 7.6231 6.58996 7.91773C6.60148 9.51311 6.59481 11.1092 6.59481 12.7052C6.59481 13.8943 6.59481 15.0834 6.59481 16.2725C6.59481 16.9992 6.93011 17.3612 7.60434 17.3612H15.3937C16.088 17.3612 16.4099 17.0097 16.4099 16.2507C16.4099 12.4429 16.4099 8.63516 16.4099 4.82739C16.4099 3.97652 16.1068 3.64753 15.3313 3.64753H9.60944C9.60944 4.40592 9.61005 5.12202 9.60944 5.83218ZM8.20338 6.91162C8.59567 6.88916 8.95704 6.58132 8.9916 6.17768C9.03162 5.72648 9.00069 5.26736 9.00069 4.71112L7.31815 6.91492C7.68073 6.91492 7.94266 6.92682 8.20338 6.91162Z" fill="black"/>
<path d="M16.9999 16.2864C16.9999 17.3473 16.4069 17.9993 15.4362 18C12.8088 18 10.1814 18 7.55401 18C6.61785 18 6.0079 17.3566 6.00486 16.3346C5.99718 13.4834 5.9986 10.6322 6.00911 7.78099C6.01441 7.63132 6.0642 7.48757 6.15099 7.37141C7.24519 5.97223 8.34647 4.57966 9.45483 3.19369C9.54682 3.08583 9.67292 3.01997 9.80771 3.00938C11.697 2.99837 13.5863 2.99705 15.4756 3.00542C16.4166 3.0107 16.9975 3.67066 16.9981 4.69461C16.9981 6.62095 16.9981 8.5473 16.9981 10.4736C16.9997 12.411 17.0003 14.3486 16.9999 16.2864ZM9.60944 5.83218C9.60944 6.91889 9.02858 7.54977 8.02816 7.55374C7.66436 7.55374 7.30057 7.57025 6.93678 7.54911C6.67485 7.53392 6.58814 7.6231 6.58996 7.91773C6.60148 9.51311 6.59481 11.1092 6.59481 12.7052C6.59481 13.8943 6.59481 15.0834 6.59481 16.2725C6.59481 16.9992 6.93011 17.3612 7.60434 17.3612H15.3937C16.088 17.3612 16.4099 17.0097 16.4099 16.2507C16.4099 12.4429 16.4099 8.63516 16.4099 4.82739C16.4099 3.97652 16.1068 3.64753 15.3313 3.64753H9.60944C9.60944 4.40592 9.61005 5.12202 9.60944 5.83218ZM8.20338 6.91162C8.59567 6.88916 8.95704 6.58132 8.9916 6.17768C9.03162 5.72648 9.00069 5.26736 9.00069 4.71112L7.31815 6.91492C7.68073 6.91492 7.94266 6.92682 8.20338 6.91162Z" stroke="black" stroke-width="0.4" mask="url(#path-8-outside-2)"/>
<path d="M-180.82 -148H604.82V-150H-180.82V-148ZM611 -141.82V323.32H613V-141.82H611ZM604.82 329.5H-180.82V331.5H604.82V329.5ZM-187 323.32V-141.82H-189V323.32H-187ZM-180.82 329.5C-184.233 329.5 -187 326.733 -187 323.32H-189C-189 327.838 -185.338 331.5 -180.82 331.5V329.5ZM611 323.32C611 326.733 608.233 329.5 604.82 329.5V331.5C609.338 331.5 613 327.838 613 323.32H611ZM604.82 -148C608.233 -148 611 -145.233 611 -141.82H613C613 -146.338 609.338 -150 604.82 -150V-148ZM-180.82 -150C-185.338 -150 -189 -146.338 -189 -141.82H-187C-187 -145.233 -184.233 -148 -180.82 -148V-150Z" fill="#D3D8DA"/>
</g>
</g>
<defs>
<filter id="filter0_d" x="-194" y="-154" width="812" height="491.5" filterUnits="userSpaceOnUse" color-interpolation-filters="sRGB">
<feFlood flood-opacity="0" result="BackgroundImageFix"/>
<feColorMatrix in="SourceAlpha" type="matrix" values="0 0 0 0 0 0 0 0 0 0 0 0 0 0 0 0 0 0 127 0" result="hardAlpha"/>
<feOffset dy="1"/>
<feGaussianBlur stdDeviation="2.5"/>
<feColorMatrix type="matrix" values="0 0 0 0 0.435294 0 0 0 0 0.494118 0 0 0 0 0.509804 0 0 0 0.25 0"/>
<feBlend mode="normal" in2="BackgroundImageFix" result="effect1_dropShadow"/>
<feBlend mode="normal" in="SourceGraphic" in2="effect1_dropShadow" result="shape"/>
</filter>
<clipPath id="clip0">
<rect width="1440" height="1024" fill="white" transform="translate(-622 -381)"/>
</clipPath>
</defs>
</svg>
