<svg width="28" height="28" viewBox="0 0 28 28" fill="none" xmlns="http://www.w3.org/2000/svg">
<path fill-rule="evenodd" clip-rule="evenodd" d="M14.926 3.26026C14.9034 3.26075 14.8809 3.26288 14.8586 3.26664H5.59998V24.7333H22.4V24.2666V3.26664H18.745C18.6946 3.25831 18.6432 3.25831 18.5928 3.26664H15.0053C14.9791 3.26226 14.9526 3.26013 14.926 3.26026ZM6.53331 4.19997H14.4666V9.79997C14.4666 9.97672 14.5664 10.1383 14.7244 10.2174C14.8825 10.2966 15.0717 10.2796 15.2131 10.1737L16.8 8.98331L18.3868 10.1737C18.5283 10.2796 18.7175 10.2966 18.8755 10.2174C19.0336 10.1383 19.1334 9.97672 19.1333 9.79997V4.19997H21.4666V23.8H6.53331V4.19997ZM18.2 4.19997H15.4V8.86664L16.5202 8.02628C16.686 7.90203 16.9139 7.90203 17.0798 8.02628L18.2 8.86664V4.19997ZM9.33329 13.0666C9.16499 13.0643 9.00845 13.1527 8.92361 13.298C8.83877 13.4434 8.83877 13.6232 8.92361 13.7686C9.00845 13.9139 9.16499 14.0024 9.33329 14H18.6666C18.8349 14.0024 18.9915 13.9139 19.0763 13.7686C19.1611 13.6232 19.1611 13.4434 19.0763 13.298C18.9915 13.1527 18.8349 13.0643 18.6666 13.0666H9.33329ZM8.92361 15.6314C9.00845 15.486 9.16499 15.3976 9.33329 15.4H16.3333C16.5016 15.3976 16.6581 15.486 16.743 15.6314C16.8278 15.7767 16.8278 15.9565 16.743 16.1019C16.6581 16.2473 16.5016 16.3357 16.3333 16.3333H9.33329C9.16499 16.3357 9.00845 16.2473 8.92361 16.1019C8.83877 15.9565 8.83877 15.7767 8.92361 15.6314ZM9.33329 17.7333C9.16499 17.7309 9.00845 17.8193 8.92361 17.9647C8.83877 18.1101 8.83877 18.2899 8.92361 18.4352C9.00845 18.5806 9.16499 18.669 9.33329 18.6666H18.6666C18.8349 18.669 18.9915 18.5806 19.0763 18.4352C19.1611 18.2899 19.1611 18.1101 19.0763 17.9647C18.9915 17.8193 18.8349 17.7309 18.6666 17.7333H9.33329ZM8.92361 20.298C9.00845 20.1527 9.16499 20.0643 9.33329 20.0666H16.3333C16.5016 20.0643 16.6581 20.1527 16.743 20.298C16.8278 20.4434 16.8278 20.6232 16.743 20.7686C16.6581 20.9139 16.5016 21.0023 16.3333 21H9.33329C9.16499 21.0023 9.00845 20.9139 8.92361 20.7686C8.83877 20.6232 8.83877 20.4434 8.92361 20.298Z" fill="black"/>
</svg>
