<svg width="21" height="20" viewBox="0 0 21 20" fill="none" xmlns="http://www.w3.org/2000/svg">
<path d="M11.238 2C11.238 1.63181 10.9395 1.33333 10.5713 1.33333C10.2031 1.33333 9.90462 1.63181 9.90462 2L11.238 2ZM10.5713 15.1421L10.0999 15.6135L10.5713 16.0849L11.0427 15.6135L10.5713 15.1421ZM15.7567 10.8995C16.0171 10.6391 16.0171 10.217 15.7567 9.95669C15.4964 9.69634 15.0743 9.69634 14.8139 9.95669L15.7567 10.8995ZM6.32865 9.95669C6.0683 9.69634 5.64619 9.69634 5.38584 9.95669C5.12549 10.217 5.12549 10.6391 5.38584 10.8995L6.32865 9.95669ZM9.90462 2L9.90462 15.1421L11.238 15.1421L11.238 2L9.90462 2ZM11.0427 15.6135L15.7567 10.8995L14.8139 9.95669L10.0999 14.6707L11.0427 15.6135ZM11.0427 14.6707L6.32865 9.95669L5.38584 10.8995L10.0999 15.6135L11.0427 14.6707Z" fill="white"/>
<path d="M18.9016 12.6668V17.8681C18.9016 18.6044 18.3046 19.2014 17.5682 19.2014H3.4349C2.69852 19.2014 2.10156 18.6044 2.10156 17.8681V12.6665" stroke="white" stroke-width="1.33333" stroke-linecap="round"/>
</svg>
