<svg width="30" height="30" viewBox="0 0 30 30" fill="none" xmlns="http://www.w3.org/2000/svg">
<path d="M16.1069 3C16.1069 2.44772 15.6592 2 15.1069 2C14.5546 2 14.1069 2.44772 14.1069 3L16.1069 3ZM15.1069 22.7132L14.3998 23.4203L15.1069 24.1274L15.814 23.4203L15.1069 22.7132ZM22.8851 16.3492C23.2756 15.9587 23.2756 15.3256 22.8851 14.935C22.4946 14.5445 21.8614 14.5445 21.4709 14.935L22.8851 16.3492ZM8.74297 14.935C8.35245 14.5445 7.71928 14.5445 7.32876 14.935C6.93823 15.3256 6.93823 15.9587 7.32876 16.3492L8.74297 14.935ZM14.1069 3L14.1069 22.7132L16.1069 22.7132L16.1069 3L14.1069 3ZM15.814 23.4203L22.8851 16.3492L21.4709 14.935L14.3998 22.0061L15.814 23.4203ZM15.814 22.0061L8.74297 14.935L7.32876 16.3492L14.3998 23.4203L15.814 22.0061Z" fill="black"/>
<path d="M27.6023 19.0005V26.8023C27.6023 27.9069 26.7069 28.8023 25.6023 28.8023H4.40234C3.29777 28.8023 2.40234 27.9069 2.40234 26.8023V19" stroke="black" stroke-width="2" stroke-linecap="round"/>
</svg>
