<svg width="80" height="80" viewBox="0 0 80 80" fill="none" xmlns="http://www.w3.org/2000/svg">
<circle cx="40" cy="40" r="40" fill="#E3E9EA"/>
<g opacity="0.3">
<path d="M43.2065 21.0006C43.1712 21.0069 43.1358 21.0163 43.1037 21.0257H28.8806C27.3053 21.0257 26 22.2785 26 23.8139V54.7095C26 56.5212 27.5368 58 29.395 58H50.5881C52.4464 58 53.9831 56.5212 53.9831 54.7095V31.6257C54.0056 31.5189 54.0056 31.4059 53.9831 31.2991V31.0731C53.9896 30.8596 53.906 30.6492 53.7516 30.4954L44.2868 21.2518C44.1292 21.1011 43.9138 21.0194 43.6952 21.0257H43.438C43.3641 21.0069 43.2837 20.9975 43.2065 21.0006ZM28.8806 22.6333H42.4607V29.3399C42.4607 30.9569 43.8142 32.2788 45.4699 32.2788H52.3371V54.7095C52.3371 55.6483 51.559 56.3924 50.5881 56.3924H29.395C28.4241 56.3924 27.6461 55.6483 27.6461 54.7095V23.8139C27.6461 23.1514 28.1894 22.6333 28.8806 22.6333ZM44.1067 23.3868L51.5655 30.6712H45.4699C44.7015 30.6712 44.1067 30.0903 44.1067 29.3399V23.3868ZM33.4073 39.5129C32.954 39.5129 32.5843 39.8739 32.5843 40.3166C32.5843 40.7594 32.954 41.1204 33.4073 41.1204C33.8606 41.1204 34.2303 40.7594 34.2303 40.3166C34.2303 39.8739 33.8606 39.5129 33.4073 39.5129ZM36.6994 39.5129V41.1204H46.5758V39.5129H36.6994ZM33.4073 43.5318C32.954 43.5318 32.5843 43.8929 32.5843 44.3356C32.5843 44.7783 32.954 45.1394 33.4073 45.1394C33.8606 45.1394 34.2303 44.7783 34.2303 44.3356C34.2303 43.8929 33.8606 43.5318 33.4073 43.5318ZM36.6994 43.5318V45.1394H46.5758V43.5318H36.6994ZM33.4073 47.5507C32.954 47.5507 32.5843 47.9118 32.5843 48.3545C32.5843 48.7972 32.954 49.1583 33.4073 49.1583C33.8606 49.1583 34.2303 48.7972 34.2303 48.3545C34.2303 47.9118 33.8606 47.5507 33.4073 47.5507ZM36.6994 47.5507V49.1583H46.5758V47.5507H36.6994Z" fill="black"/>
</g>
</svg>
