<svg xmlns="http://www.w3.org/2000/svg" width="31" height="30" fill="none" viewBox="0 0 31 30">
    <path fill="#000" fill-rule="evenodd" d="M8.386 1C5.683 1 3.477 3.205 3.477 5.91c0 2.703 2.206 4.908 4.91 4.908 2.703 0 4.909-2.205 4.909-4.909C13.296 3.205 11.09 1 8.386 1zm0 1.227c2.04 0 3.682 1.642 3.682 3.682s-1.642 3.682-3.682 3.682-3.681-1.642-3.681-3.682 1.641-3.682 3.681-3.682zm8.79 2.68c.12-.026.242-.043.367-.05.376-.022.774.04 1.17.216.913.405 1.785 1.31 2.598 2.888.956-1.532 1.889-2.4 2.807-2.788.525-.22 1.05-.254 1.513-.148.462.103.867.342 1.155.666.58.652.79 1.575.494 2.414-.101.278-.271.534-.497.755.008.038.012.079.012.117v6.137c0 .338-.275.613-.613.613h-1.285c-.292 1.736-1.807 3.069-3.624 3.069-.35 0-.658-.109-.965-.217l-.157-.054-3.459 3.456c-.954.954-2.517.954-3.47 0l-4.34-4.339c-.16-.153-.225-.383-.167-.596.055-.216.223-.384.438-.439.214-.058.444.007.597.168l4.339 4.338c.484.485 1.251.485 1.735 0l3.474-3.47c.028-.03.067-.077.12-.152.174-.242.5-.323.771-.189.336.168.698.266 1.084.266 1.143 0 2.056-.786 2.332-1.84h-4.399c-.49 0-.867.016-1.143.078-.273.065-.448.151-.652.355l-.012.012-2.02 1.915c-.12.113-.279.173-.444.168-.163-.007-.319-.077-.431-.199l-2.448-2.663c-.096-.046-.177-.113-.24-.199-.834-1.165-2.19-1.922-3.736-1.922-2.457 0-4.447 1.912-4.588 4.331-.003.031-.008.065-.015.096v9.073h9.205v-3.069c-.003-.22.112-.426.304-.539.192-.11.427-.11.619 0 .191.113.306.319.304.54v3.681c0 .338-.276.614-.614.614H2.865c-.338 0-.614-.276-.614-.614v-9.818c0-.113.031-.22.089-.316.318-2.913 2.744-5.206 5.74-5.206 1.726 0 3.28.757 4.346 1.953.034.026.067.055.094.086l2.466 2.683 1.149-1.086c-.233-.094-.384-.32-.384-.568V8.977c0-.017 0-.033.002-.048-.278-.26-.47-.575-.556-.92-.213-.88.115-1.798.755-2.438.32-.319.746-.56 1.225-.664zm.415 1.15c.184-.006.39.034.623.137.499.22 1.16.976 1.834 2.17h-2.45c-.918 0-1.12-.288-1.208-.648-.089-.36.08-.927.43-1.277.174-.175.368-.305.596-.357.055-.012.115-.022.175-.024zm7.783.13c-.05-.012-.105-.019-.16-.019-.173-.007-.374.034-.619.137-.51.215-1.225.944-1.992 2.059h2.234c.882 0 1.158-.31 1.287-.672.127-.361.022-.877-.254-1.186-.136-.153-.292-.273-.496-.319zm-8.397 3.404h3.682V14.5h-3.682V9.59zm8.591 0h-3.682V14.5h3.682V9.59z" clip-rule="evenodd"/>
</svg>
