<svg width="25" height="25" viewBox="0 0 25 25" fill="none" xmlns="http://www.w3.org/2000/svg">
<path fill-rule="evenodd" clip-rule="evenodd" d="M6.78029 0.833252C4.52709 0.833252 2.68938 2.67097 2.68938 4.92416C2.68938 7.17736 4.52709 9.01507 6.78029 9.01507C9.03349 9.01507 10.8712 7.17736 10.8712 4.92416C10.8712 2.67097 9.03349 0.833252 6.78029 0.833252ZM6.78029 1.85598C8.48017 1.85598 9.84847 3.22427 9.84847 4.92416C9.84847 6.62404 8.48017 7.99234 6.78029 7.99234C5.0804 7.99234 3.7121 6.62404 3.7121 4.92416C3.7121 3.22427 5.0804 1.85598 6.78029 1.85598ZM14.1052 4.08921C14.2051 4.06723 14.3069 4.05325 14.4108 4.04726C14.7244 4.02928 15.056 4.08122 15.3856 4.22704C16.1466 4.56462 16.8737 5.31968 17.5509 6.63404C18.3479 5.35763 19.1249 4.63453 19.89 4.31093C20.3274 4.12716 20.7649 4.09919 21.1504 4.18708C21.5359 4.27298 21.8735 4.47273 22.1132 4.74239C22.5966 5.28572 22.7724 6.05476 22.5247 6.75389C22.4408 6.9856 22.299 7.19934 22.1112 7.38311C22.1172 7.41507 22.1212 7.44903 22.1212 7.48099V12.5946C22.1212 12.8763 21.8915 13.106 21.6098 13.106H20.5392C20.2955 14.5522 19.033 15.6628 17.5189 15.6628C17.2273 15.6628 16.9706 15.5725 16.7152 15.4827C16.6715 15.4673 16.6279 15.452 16.5841 15.4371L13.7017 18.3175C12.9067 19.1125 11.6043 19.1125 10.8093 18.3175L7.19378 14.702C7.05995 14.5742 7.00601 14.3824 7.05395 14.2046C7.0999 14.0248 7.23972 13.885 7.4195 13.8391C7.59728 13.7911 7.78904 13.8451 7.91688 13.9789L11.5324 17.5944C11.9359 17.9979 12.5751 17.9979 12.9786 17.5944L15.873 14.702C15.8969 14.678 15.9289 14.6381 15.9729 14.5762C16.1187 14.3744 16.3903 14.3065 16.6161 14.4184C16.8957 14.5582 17.1973 14.6401 17.5189 14.6401C18.4717 14.6401 19.2328 13.9849 19.4625 13.106H15.7971C15.3876 13.106 15.074 13.12 14.8443 13.1719C14.6165 13.2258 14.4707 13.2977 14.3009 13.4675L14.2909 13.4775L12.607 15.0735C12.5072 15.1674 12.3753 15.2174 12.2375 15.2134C12.1017 15.2074 11.9718 15.1494 11.8779 15.0476L9.83849 12.8283C9.75859 12.7904 9.69067 12.7344 9.63874 12.6625C8.9436 11.6917 7.81301 11.0605 6.52461 11.0605C4.47716 11.0605 2.81922 12.6545 2.70137 14.67C2.69937 14.696 2.69538 14.724 2.68938 14.7499V22.3105H10.3598V19.7537C10.3578 19.5699 10.4537 19.3982 10.6135 19.3043C10.7733 19.2124 10.9691 19.2124 11.1289 19.3043C11.2887 19.3982 11.3846 19.5699 11.3826 19.7537V22.8219C11.3826 23.1035 11.1529 23.3333 10.8712 23.3333H2.17802C1.89637 23.3333 1.66666 23.1035 1.66666 22.8219V14.6401C1.66666 14.5462 1.69262 14.4563 1.74056 14.3764C2.00623 11.9494 4.02772 10.0378 6.52461 10.0378C7.96282 10.0378 9.25721 10.669 10.1461 11.6658C10.1741 11.6877 10.202 11.7117 10.224 11.7377L12.2795 13.9729L13.2363 13.068C13.0425 12.9901 12.9167 12.8024 12.9167 12.5946V7.48099V7.48097C12.9167 7.46699 12.9167 7.45301 12.9187 7.44104C12.6869 7.22331 12.5271 6.96163 12.4552 6.67399C12.2775 5.9409 12.5511 5.17585 13.0844 4.64252C13.3501 4.37685 13.7057 4.1751 14.1052 4.08921ZM14.4507 5.04801C14.6045 5.04202 14.7763 5.07597 14.9701 5.16187C15.3856 5.34564 15.9369 5.97486 16.4982 6.96962H14.4567C13.6917 6.96962 13.5239 6.72992 13.45 6.43029C13.3761 6.13066 13.5159 5.65725 13.8075 5.36561C13.9533 5.2198 14.1151 5.11193 14.3049 5.06799C14.3509 5.058 14.4008 5.05001 14.4507 5.04801ZM20.9367 5.15588C20.8947 5.14589 20.8488 5.1399 20.8029 5.1399C20.659 5.13391 20.4912 5.16787 20.2875 5.25376C19.862 5.43354 19.2668 6.04078 18.6276 6.96962H20.4892C21.2243 6.96962 21.454 6.71194 21.5619 6.41032C21.6678 6.1087 21.5799 5.67923 21.3502 5.42155C21.2363 5.29371 21.1065 5.19383 20.9367 5.15588ZM13.9394 7.99234H17.0076V12.0832H13.9394V7.99234ZM21.0985 7.99234H18.0303V12.0832H21.0985V7.99234Z" fill="black"/>
</svg>
