<svg xmlns="http://www.w3.org/2000/svg" width="25" height="25" fill="none" viewBox="0 0 25 25">
    <path fill="#000" fill-rule="evenodd" d="M8.6 1.667c3.822 0 6.933 3.11 6.933 6.933 0 .85-.165 1.657-.447 2.41l8.126 8.112.121.135v2.952l-.121.136-.867.866-.136.122h-2.952l-.135-.122-1.3-1.3-.122-.135v-1.043h-1.043l-.135-.122-1.3-1.3-.122-.135v-.61h-.61l-.135-.121-.867-.867-.121-.135v-.61h-.61l-.135-.122-1.612-1.625c-.753.281-1.56.447-2.41.447-3.822 0-6.933-3.11-6.933-6.933 0-3.824 3.11-6.933 6.933-6.933zm0 .866c-3.353 0-6.067 2.712-6.067 6.067 0 3.353 2.714 6.067 6.067 6.067.833 0 1.622-.158 2.343-.46l.013-.014c2.179-.921 3.71-3.078 3.71-5.593 0-3.355-2.713-6.067-6.066-6.067zm3.372 2.695c-.93-.93-2.152-1.395-3.372-1.395-1.22 0-2.443.466-3.372 1.395-1.859 1.857-1.859 4.887 0 6.744l.312.311.297-.311 6.135-6.134.311-.298-.311-.312zM8.6 4.7c-.997 0-2 .374-2.763 1.138-1.418 1.418-1.462 3.627-.243 5.159l5.403-5.403C10.289 5.032 9.457 4.7 8.6 4.7zm3.264 10.02c1.211-.648 2.208-1.645 2.857-2.857l7.746 7.76v1.368l-6.744-6.758c-.06-.06-.134-.103-.217-.122-.196-.059-.408.027-.506.209-.098.179-.056.402.1.536l7.177 7.177-.433.434h-2.221l-1.056-1.057v-1.543h-1.544l-1.056-1.057V17.7h-1.11l-.624-.623v-1.11h-1.11l-1.26-1.246z" clip-rule="evenodd"/>
</svg>
