<svg width="31" height="30" viewBox="0 0 31 30" fill="none" xmlns="http://www.w3.org/2000/svg">
    <path fill-rule="evenodd" clip-rule="evenodd" d="M15.5 29.388c7.946 0 14.388-6.442 14.388-14.388S23.446.612 15.5.612 1.112 7.054 1.112 15 7.554 29.388 15.5 29.388zm0 .612c8.284 0 15-6.716 15-15 0-8.284-6.716-15-15-15C7.216 0 .5 6.716.5 15c0 8.284 6.716 15 15 15z" fill="#000"/>
    <path fill-rule="evenodd" clip-rule="evenodd" d="M19.844 8.571c-.752 0-1.505.287-2.078.86l-1.632 1.633a2.938 2.938 0 0 0-.704 3.012l1.172-1.173c.05-.335.197-.658.455-.916l1.632-1.633a1.63 1.63 0 0 1 2.31 0 1.634 1.634 0 0 1 0 2.309l-1.633 1.633c-.258.257-.58.405-.916.454l-1.174 1.174a2.93 2.93 0 0 0 3.013-.705l1.633-1.633a2.941 2.941 0 0 0 0-4.155 2.93 2.93 0 0 0-2.078-.86zm-1.971 4.237a.653.653 0 0 0-.45.198l-3.917 3.918a.653.653 0 1 0 .923.924l3.918-3.918a.653.653 0 0 0-.474-1.122zm-6.31 2.826a2.925 2.925 0 0 1 2.224-.853c.267.014.533.063.789.15l-1.173 1.172c-.335.05-.659.197-.917.455l-1.632 1.633a1.634 1.634 0 0 0 0 2.308 1.634 1.634 0 0 0 2.309 0l1.632-1.632c.258-.258.406-.581.455-.917l1.173-1.173a2.939 2.939 0 0 1-.705 3.012l-1.632 1.633a2.93 2.93 0 0 1-2.078.86 2.93 2.93 0 0 1-2.077-.86 2.942 2.942 0 0 1 0-4.155l1.632-1.633z" fill="#000"/>
</svg>
