<svg width="28" height="28" viewBox="0 0 28 28" fill="none" xmlns="http://www.w3.org/2000/svg">
<path fill-rule="evenodd" clip-rule="evenodd" d="M14 1.86621C13.0494 1.86621 12.2219 2.30618 11.1481 2.87713C10.9288 2.99373 10.6992 3.1158 10.4563 3.24069C9.02162 3.97897 7.10209 4.86855 4.09974 5.52663L3.73334 5.60866V5.98236C3.73334 13.1337 6.23256 17.9061 8.74271 20.8683C11.2547 23.8324 13.8031 25.0136 13.8031 25.0136L14.0091 25.1084L14.2115 25.0063C14.2115 25.0063 24.2667 19.8238 24.2667 5.98236V5.60866L23.9003 5.52663C20.8979 4.86855 18.9784 3.97897 17.5438 3.24069C17.3008 3.11581 17.0713 2.99376 16.852 2.87717L16.8519 2.87713C15.7781 2.30618 14.9507 1.86621 14 1.86621ZM14 2.79954C14.6721 2.79954 15.4351 3.19661 16.5987 3.80217L16.5989 3.80228C16.7639 3.88816 16.937 3.97822 17.119 4.07194C18.5081 4.78652 20.4695 5.65241 23.3042 6.32142C23.1383 18.9834 14.5961 23.7248 13.9927 24.042C13.701 23.9016 11.6813 22.8917 9.4573 20.2649C7.10938 17.4959 4.77969 13.048 4.69584 6.32142C7.53047 5.65241 9.49193 4.78652 10.881 4.07194C11.0631 3.97819 11.2362 3.88809 11.4013 3.80219L11.4013 3.80217C12.5649 3.19661 13.3279 2.79954 14 2.79954ZM12.1333 11.1995C12.1333 10.1678 12.9682 9.33288 14 9.33288C15.0318 9.33288 15.8667 10.1678 15.8667 11.1995C15.8667 11.8285 15.5477 12.4173 15.0208 12.76L15.8667 16.5662H12.1333L12.9792 12.76C12.4523 12.4154 12.1333 11.8285 12.1333 11.1995Z" fill="#D83275"/>
</svg>
