<svg width="28" height="28" viewBox="0 0 28 28" fill="none" xmlns="http://www.w3.org/2000/svg">
<path fill-rule="evenodd" clip-rule="evenodd" d="M13.9999 1.8667C13.0493 1.8667 12.2218 2.30667 11.148 2.87762C10.9287 2.99422 10.6992 3.11628 10.4562 3.24118C9.02156 3.97946 7.10203 4.86904 4.09968 5.52712L3.73328 5.60915V5.98285C3.73328 13.1341 6.2325 17.9065 8.74265 20.8688C11.2546 23.8328 13.8031 25.0141 13.8031 25.0141L14.0091 25.1089L14.2114 25.0068C14.2114 25.0068 24.2666 19.8243 24.2666 5.98285V5.60915L23.9002 5.52712C20.8979 4.86904 18.9783 3.97946 17.5437 3.24118C17.3007 3.1163 17.0712 2.99425 16.8519 2.87766L16.8519 2.87762C15.7781 2.30667 14.9506 1.8667 13.9999 1.8667ZM13.9999 2.80003C14.672 2.80003 15.435 3.19709 16.5987 3.80266L16.5989 3.80277C16.7639 3.88864 16.9369 3.97871 17.119 4.07243C18.508 4.78701 20.4695 5.6529 23.3041 6.32191C23.1382 18.9839 14.596 23.7253 13.9927 24.0425C13.701 23.9021 11.6812 22.8922 9.45723 20.2654C7.10932 17.4964 4.77963 13.0485 4.69578 6.32191C7.53041 5.6529 9.49187 4.78701 10.8809 4.07243C11.063 3.97867 11.2361 3.88858 11.4012 3.80268L11.4012 3.80266C12.5649 3.19709 13.3278 2.80003 13.9999 2.80003ZM12.1333 11.2C12.1333 10.1683 12.9682 9.33337 13.9999 9.33337C15.0317 9.33337 15.8666 10.1683 15.8666 11.2C15.8666 11.8289 15.5476 12.4177 15.0208 12.7604L15.8666 16.5667H12.1333L12.9791 12.7604C12.4523 12.4159 12.1333 11.8289 12.1333 11.2Z" fill="black"/>
</svg>
