<svg width="46" height="46" viewBox="0 0 46 46" fill="none" xmlns="http://www.w3.org/2000/svg">
<rect width="46" height="46"/>
<path fill-rule="evenodd" clip-rule="evenodd" d="M14.6233 31.5293L14.1611 31.8023C14.0287 31.8805 13.8532 31.8496 13.766 31.7232C13.634 31.532 13.5068 31.4007 13.3842 31.3296C13.2109 31.2189 12.9874 31.1638 12.7138 31.1638C12.3777 31.1638 12.0986 31.2588 11.877 31.4487C11.6554 31.6351 11.5443 31.87 11.5443 32.1531C11.5443 32.5433 11.8354 32.8574 12.4175 33.0957L13.2179 33.4219C13.8694 33.6843 14.3457 34.0046 14.6472 34.3828C14.9486 34.7608 15.0993 35.2244 15.0993 35.7734C15.0993 36.5088 14.8532 37.1165 14.3613 37.5964C13.8657 38.0799 13.2509 38.3214 12.5162 38.3214C11.8198 38.3214 11.2448 38.1161 10.7907 37.7052C10.4027 37.3483 10.1413 36.8654 10.0065 36.2562C9.9718 36.0992 10.0795 35.9425 10.2372 35.9079L10.8701 35.7689C11.0319 35.7335 11.1951 35.8377 11.2251 36.0001C11.2825 36.3111 11.3647 36.536 11.4715 36.6745C11.7211 37.0197 12.0849 37.1924 12.563 37.1924C12.9406 37.1924 13.2543 37.0663 13.5038 36.8144C13.7532 36.5624 13.878 36.2428 13.878 35.8562C13.878 35.7008 13.8564 35.5584 13.813 35.4289C13.7696 35.2994 13.702 35.1804 13.6103 35.0715C13.5186 34.9627 13.3998 34.861 13.2543 34.766C13.1088 34.671 12.9354 34.5803 12.7345 34.494L11.9601 34.173C10.8617 33.7102 10.3126 33.0335 10.3126 32.1427C10.3126 31.5419 10.543 31.0395 11.0038 30.6355C11.4645 30.2282 12.0381 30.0244 12.7241 30.0244C13.554 30.0244 14.2208 30.3855 14.7244 31.1079C14.8217 31.2475 14.7699 31.4427 14.6233 31.5293Z" fill="#D92E76"/>
<path fill-rule="evenodd" clip-rule="evenodd" d="M20.2863 35.6852C20.2863 35.2017 20.1545 34.8081 19.8913 34.5043C19.6244 34.1969 19.2884 34.0434 18.883 34.0434C18.4534 34.0434 18.1052 34.1918 17.8383 34.4888C17.5714 34.7859 17.4382 35.1758 17.4382 35.6593C17.4382 36.1324 17.5714 36.5224 17.8383 36.8298C18.1016 37.1302 18.4482 37.2803 18.8778 37.2803C19.2832 37.2803 19.6176 37.1284 19.8808 36.8247C20.1511 36.5208 20.2863 36.141 20.2863 35.6852ZM17.2042 40.9216H16.6381C16.4715 40.9216 16.3364 40.787 16.3364 40.6209V33.4313C16.3364 33.266 16.4709 33.132 16.6368 33.132H17.5059V33.681C17.9666 33.2218 18.49 32.9922 19.0754 32.9922C19.7719 32.9922 20.3454 33.2478 20.7957 33.7587C21.2531 34.2663 21.4818 34.9067 21.4818 35.6802C21.4818 36.4364 21.2549 37.0664 20.801 37.5706C20.3506 38.0712 19.7822 38.3216 19.0963 38.3216C18.5037 38.3216 17.9736 38.0852 17.5059 37.6121V40.6209C17.5059 40.787 17.3708 40.9216 17.2042 40.9216Z" fill="#D92E76"/>
<path fill-rule="evenodd" clip-rule="evenodd" d="M23.8881 33.5758V38.0172C23.8881 38.1804 23.7553 38.3127 23.5915 38.3127H23.0154C22.8515 38.3127 22.7187 38.1804 22.7187 38.0172V33.5758C22.7187 33.4059 22.8569 33.2682 23.0274 33.2682H23.5794C23.7499 33.2682 23.8881 33.4059 23.8881 33.5758ZM22.542 31.1709C22.542 30.9671 22.6166 30.7911 22.7655 30.6426C22.9144 30.4943 23.0929 30.4199 23.3008 30.4199C23.5121 30.4199 23.6924 30.4943 23.8413 30.6426C23.9902 30.7877 24.0648 30.9655 24.0648 31.176C24.0648 31.3866 23.9902 31.5664 23.8413 31.7147C23.6958 31.8632 23.5173 31.9375 23.306 31.9375C23.0948 31.9375 22.9144 31.8632 22.7655 31.7147C22.6166 31.5664 22.542 31.385 22.542 31.1709Z" fill="#D92E76"/>
<path fill-rule="evenodd" clip-rule="evenodd" d="M25.3691 33.4315C25.3691 33.2662 25.5037 33.132 25.6697 33.132H26.5385V33.5826C26.7535 33.358 26.9439 33.2045 27.1102 33.1216C27.2799 33.0354 27.4811 32.9922 27.7132 32.9922C27.9306 32.9922 28.1548 33.042 28.3859 33.1414C28.5487 33.2115 28.6262 33.3995 28.5469 33.5574L28.2861 34.0774C28.2137 34.2216 28.0397 34.2784 27.8922 34.212C27.7578 34.1515 27.6253 34.1212 27.4949 34.1212C26.8574 34.1212 26.5385 34.6011 26.5385 35.561V37.8737C26.5385 38.0409 26.4025 38.1765 26.2346 38.1765H25.6731C25.5053 38.1765 25.3691 38.0409 25.3691 37.8737V33.4315Z" fill="#D92E76"/>
<path fill-rule="evenodd" clip-rule="evenodd" d="M30.2341 35.6386C30.2341 36.2927 30.472 36.7824 30.9477 37.1076C31.0721 37.1926 31.2212 37.2452 31.3709 37.2636C31.9267 37.3323 32.3634 37.1896 32.682 36.835C32.9489 36.5275 33.0822 36.1375 33.0822 35.6644C33.0822 35.1913 32.9489 34.8013 32.682 34.4939C32.4151 34.1935 32.0687 34.0434 31.6426 34.0434C31.2406 34.0434 30.9045 34.1954 30.6343 34.4991C30.3674 34.8065 30.2341 35.1861 30.2341 35.6386ZM33.0094 33.132H33.8873C34.0511 33.132 34.1839 33.2644 34.1839 33.4276V37.8824C34.1839 38.0449 34.0517 38.1765 33.8888 38.1765H33.0094V37.6483C32.5278 38.097 32.0097 38.3215 31.4553 38.3215C30.7555 38.3215 30.1768 38.0696 29.7194 37.5654C29.2654 37.0509 29.0386 36.4086 29.0386 35.6388C29.0386 34.8394 29.2921 34.1809 29.7995 33.6631C30.0986 33.3578 30.4891 33.1428 30.9072 33.0507C31.7081 32.8744 32.4086 33.0964 33.0094 33.7172V33.132Z" fill="#D92E76"/>
<path fill-rule="evenodd" clip-rule="evenodd" d="M36.8295 29.7295V37.8765C36.8295 38.0422 36.6947 38.1764 36.5286 38.1764H35.9611C35.7949 38.1764 35.6602 38.0422 35.6602 37.8765V29.7295C35.6602 29.5634 35.7952 29.4287 35.9619 29.4287H36.5278C36.6944 29.4287 36.8295 29.5634 36.8295 29.7295Z" fill="#D92E76"/>
<path fill-rule="evenodd" clip-rule="evenodd" d="M27.6675 5.0111C24.8492 5.17006 22.967 6.96742 22.5788 7.38601C22.2814 7.06568 21.108 5.93772 19.3098 5.35489C19.351 5.38791 19.3914 5.42127 19.4326 5.45455C19.4883 5.49961 19.5431 5.54553 19.5957 5.5948C19.8126 5.78364 20.0091 5.99521 20.1982 6.21313C20.2886 6.32516 20.382 6.43566 20.4647 6.55364C20.5069 6.613 20.5507 6.66788 20.5911 6.73145C20.632 6.79375 20.6736 6.85572 20.7136 6.91902C21.0277 7.42826 21.2549 7.99464 21.3809 8.58316C21.5069 9.17161 21.5288 9.78191 21.451 10.3793C21.3725 10.9765 21.194 11.5623 20.9155 12.1001C20.6386 12.6382 20.2644 13.1281 19.8166 13.5351L19.6455 13.684L19.4676 13.8236C19.4076 13.87 19.3409 13.9147 19.2777 13.9596C19.2121 14.0025 19.1455 14.0444 19.0788 14.0853C18.8083 14.2446 18.5189 14.3726 18.2192 14.465C17.6199 14.6527 16.9793 14.6852 16.3736 14.579C15.7678 14.4697 15.1943 14.222 14.7146 13.8634C14.474 13.6854 14.2557 13.4816 14.0639 13.2597C13.9678 13.149 13.8791 13.0331 13.7959 12.9142C13.7538 12.8554 13.7155 12.7878 13.6761 12.725C13.6383 12.6602 13.5957 12.5987 13.5651 12.53C13.5327 12.4627 13.5002 12.3956 13.4681 12.3284C13.4512 12.2953 13.4378 12.2608 13.425 12.2258L13.3865 12.1215L13.3486 12.0171L13.3303 11.965L13.316 11.9116C13.2974 11.8402 13.2788 11.7694 13.2605 11.6983L13.2471 11.6449L13.2379 11.5909L13.2203 11.483L13.2034 11.3751L13.1953 11.3212L13.1911 11.267C13.1862 11.1948 13.1818 11.1228 13.1768 11.0507L13.1737 10.997L13.1749 10.9429L13.1772 10.8353L13.1806 10.7278L13.1824 10.6746L13.1884 10.6211C13.1968 10.5502 13.2053 10.4799 13.2137 10.4093L13.2203 10.3565L13.2309 10.3042L13.2529 10.2006L13.2753 10.0972C13.2823 10.0624 13.2903 10.0284 13.3019 9.99488C13.3437 9.86046 13.3818 9.72563 13.4401 9.59829C13.4681 9.53398 13.4918 9.46874 13.524 9.40684C13.5568 9.34567 13.5894 9.28444 13.622 9.22348C13.653 9.16131 13.6918 9.10402 13.7304 9.0466C13.7687 8.98938 13.8062 8.9319 13.8458 8.87588C13.8893 8.8226 13.9325 8.76959 13.9758 8.71658L14.0409 8.63777C14.0632 8.61224 14.0884 8.58877 14.1121 8.56464C14.1603 8.51651 14.2082 8.46865 14.2562 8.42106C14.3037 8.37319 14.3592 8.33382 14.4104 8.29044C14.4635 8.24866 14.5119 8.20481 14.5693 8.1659C14.6276 8.12767 14.6856 8.08943 14.7435 8.0514C14.9827 7.91049 15.2397 7.8026 15.505 7.7407C15.7708 7.68154 16.0405 7.66349 16.3035 7.68274C16.5663 7.70687 16.8197 7.77091 17.0564 7.86356C17.2919 7.96089 17.5068 8.0915 17.7 8.24184C17.7465 8.28128 17.7914 8.32212 17.8366 8.36243L17.9033 8.42346L17.9644 8.48957C18.0046 8.53389 18.0448 8.57728 18.0834 8.62206C18.1188 8.66919 18.1536 8.71612 18.1886 8.76277L18.2401 8.83323L18.2871 8.9103L18.3332 8.98751C18.3487 9.01305 18.3631 9.03905 18.3753 9.06626C18.4002 9.1202 18.4256 9.17348 18.4503 9.22695C18.47 9.2823 18.4898 9.33718 18.5095 9.39233C18.5795 9.61393 18.6145 9.84007 18.6186 10.0615C18.6184 10.2833 18.587 10.4986 18.5304 10.7023C18.4726 10.9058 18.383 11.0944 18.2777 11.2663C18.1693 11.4376 18.038 11.5869 17.8962 11.7166C17.8602 11.7485 17.8217 11.7771 17.7848 11.8067C17.7479 11.836 17.7112 11.8651 17.6688 11.8906C17.6271 11.9162 17.5879 11.9447 17.5445 11.966C17.5016 11.9875 17.4587 12.0089 17.4163 12.03C17.2411 12.1053 17.059 12.1487 16.8813 12.1622C16.7031 12.178 16.5296 12.1585 16.369 12.1184C16.2882 12.1006 16.2126 12.0701 16.138 12.0429C16.0661 12.0082 15.9941 11.9777 15.9305 11.9352C15.7984 11.8583 15.6876 11.7605 15.5911 11.6608C15.5462 11.6076 15.4984 11.5588 15.4625 11.503C15.4437 11.476 15.4251 11.449 15.4068 11.4225C15.3891 11.395 15.3734 11.3653 15.3577 11.3372L15.3342 11.2947L15.3147 11.2509C15.3022 11.2217 15.2895 11.1934 15.2782 11.1643C15.2599 11.1055 15.2385 11.0491 15.2283 10.9914C15.2004 10.8781 15.1959 10.767 15.1961 10.6645C15.2032 10.4576 15.257 10.2817 15.3245 10.1436C15.3577 10.0737 15.3976 10.0148 15.4341 9.96226C15.4752 9.91233 15.5107 9.86728 15.5502 9.83325C15.569 9.8156 15.5861 9.79903 15.6037 9.78499C15.6221 9.77175 15.6391 9.75965 15.6548 9.74836C15.671 9.73733 15.6855 9.7277 15.6994 9.71928C15.7138 9.71199 15.7274 9.70564 15.7396 9.70049C15.788 9.67984 15.8165 9.67663 15.8263 9.689C15.8482 9.71694 15.7817 9.79521 15.6992 9.94889C15.6771 9.98593 15.6599 10.0319 15.6381 10.0792C15.6209 10.129 15.6012 10.1818 15.588 10.2416C15.5605 10.3595 15.5471 10.4989 15.568 10.6485C15.5819 10.7229 15.5965 10.8002 15.6289 10.8756C15.6413 10.9142 15.6637 10.9502 15.6806 10.9882C15.6917 11.0064 15.703 11.0245 15.714 11.0426L15.7309 11.07L15.7509 11.0958C15.7646 11.1132 15.7763 11.1309 15.7913 11.1481C15.8068 11.165 15.8228 11.1823 15.839 11.1997C15.8686 11.2363 15.9077 11.2647 15.9425 11.2977C16.0182 11.3573 16.0995 11.4146 16.1927 11.4537C16.2374 11.4774 16.2877 11.49 16.3357 11.5081C16.3865 11.5192 16.436 11.5349 16.4887 11.5393C16.5929 11.5534 16.7017 11.5545 16.8089 11.533C16.9161 11.5128 17.0216 11.476 17.1211 11.4216C17.145 11.4065 17.1692 11.3913 17.1934 11.3761C17.2181 11.3613 17.2393 11.3407 17.2627 11.3238C17.286 11.3081 17.3086 11.2855 17.3312 11.2635C17.3535 11.2415 17.3777 11.2213 17.399 11.1981C17.484 11.104 17.5608 10.9999 17.6217 10.8835C17.6792 10.7656 17.7279 10.6401 17.754 10.5062C17.7794 10.3722 17.7883 10.2334 17.7785 10.0936C17.7642 9.95424 17.7312 9.81614 17.6792 9.68452L17.6365 9.58699C17.6189 9.55597 17.6015 9.52482 17.5836 9.49367C17.5757 9.47763 17.566 9.46265 17.5549 9.44835L17.5239 9.4045L17.4934 9.35991L17.4555 9.31653C17.4306 9.28725 17.4056 9.25797 17.3808 9.22843C17.353 9.20162 17.3251 9.17515 17.2971 9.14861L17.2558 9.10804L17.2099 9.07287C17.1796 9.04894 17.1492 9.02521 17.1187 9.00135C16.9897 8.91625 16.8514 8.84326 16.7031 8.79232C16.5541 8.74613 16.3985 8.71685 16.2405 8.71117C16.0823 8.7107 15.9239 8.73136 15.7701 8.77427C15.6169 8.82026 15.4718 8.89292 15.3358 8.98257C15.3031 9.00716 15.2702 9.03176 15.2368 9.05576C15.2037 9.08043 15.1719 9.11432 15.1388 9.14273C15.107 9.17348 15.0711 9.19975 15.0422 9.23351L14.9532 9.33271C14.9388 9.34942 14.9224 9.36486 14.909 9.38251L14.8696 9.43685L14.79 9.54454L14.7211 9.66059C14.6979 9.69909 14.6736 9.73733 14.6565 9.77931C14.3267 10.4243 14.3342 11.2658 14.7141 11.9099C14.7333 11.9523 14.7639 11.9887 14.789 12.0279C14.8165 12.0666 14.8385 12.1058 14.8692 12.1447C14.9296 12.2233 14.9933 12.2995 15.0612 12.3713C15.1969 12.5151 15.3478 12.6438 15.5105 12.7542C15.8353 12.9771 16.213 13.1197 16.6023 13.1752C16.9915 13.2268 17.3932 13.1914 17.7632 13.0601C17.9482 12.9951 18.1261 12.9088 18.293 12.8028L18.4159 12.7191C18.4552 12.6879 18.4947 12.6607 18.5349 12.6274L18.6557 12.5255L18.7712 12.4182C19.0722 12.125 19.3198 11.7783 19.501 11.3984C19.6834 11.0186 19.7955 10.6054 19.838 10.1877C19.8801 9.76995 19.8536 9.34701 19.7562 8.94573C19.6584 8.54419 19.4942 8.16423 19.2739 7.82486L19.1878 7.70005C19.1606 7.65834 19.1246 7.61663 19.0936 7.57465C19.0318 7.48922 18.9613 7.41134 18.8943 7.33113C18.7531 7.17705 18.6094 7.02671 18.4507 6.89563C18.4126 6.86087 18.3724 6.82898 18.3318 6.79783C18.2911 6.76661 18.2521 6.73352 18.2105 6.70378C18.127 6.64529 18.0455 6.58439 17.9588 6.53205C17.8748 6.4755 17.7853 6.42864 17.6986 6.37804C17.6542 6.3543 17.6088 6.33271 17.5641 6.30972L17.4974 6.27596L17.4287 6.24568C17.0658 6.07957 16.6841 5.97268 16.3028 5.91452C16.1117 5.88892 15.9209 5.87228 15.7314 5.87134C15.5422 5.87228 15.3542 5.8793 15.1703 5.9061C14.432 5.99942 13.7585 6.29354 13.21 6.70231C13.1406 6.7499 13.072 6.80933 13.0035 6.86414C12.9697 6.89235 12.9347 6.91902 12.9018 6.9477C12.8691 6.97698 12.8369 7.00612 12.8045 7.0354C12.7725 7.06421 12.7401 7.09309 12.7081 7.12197C12.6761 7.15078 12.647 7.1824 12.6164 7.21228C12.5565 7.27344 12.4933 7.33066 12.4385 7.3945C12.3828 7.4578 12.3238 7.51736 12.2711 7.5814C12.2183 7.64564 12.166 7.70921 12.1141 7.77231C12.0652 7.83776 12.0171 7.90273 11.969 7.96744C11.9209 8.03174 11.8791 8.09979 11.8342 8.1645C11.6609 8.42901 11.5091 8.70562 11.3789 8.99025C11.25 9.27602 11.1459 9.57054 11.0618 9.86861C11.0428 9.94375 11.0185 10.0173 11.003 10.0931C10.9861 10.1684 10.9694 10.244 10.9524 10.3188C10.9391 10.3948 10.9257 10.4702 10.9125 10.546C10.8975 10.6213 10.8916 10.6978 10.8806 10.7733C10.8444 11.0768 10.8244 11.3805 10.8328 11.6817C10.8547 12.8877 11.234 14.0327 11.8514 14.9571C11.8869 15.0162 11.9315 15.0737 11.9716 15.1315C12.0131 15.1895 12.0542 15.2475 12.0951 15.3049C12.1807 15.4167 12.2688 15.5261 12.355 15.6356C12.4479 15.7392 12.536 15.8463 12.6298 15.9466C12.6773 15.9961 12.725 16.0455 12.7725 16.0946C12.8195 16.1441 12.8663 16.1936 12.9166 16.2386C13.3065 16.6153 13.7254 16.9397 14.1584 17.2106C15.0253 17.754 15.9455 18.0798 16.8126 18.2353C17.247 18.3136 17.6684 18.3507 18.0697 18.3584C18.471 18.3626 18.8503 18.3346 19.2052 18.2908C19.9135 18.194 20.5181 18.0253 21.0037 17.8525C21.491 17.6799 21.8586 17.5045 22.124 17.4032C22.382 17.2908 22.5395 17.2526 22.5786 17.3033C22.6175 17.3534 22.5353 17.4906 22.3348 17.7092C22.127 17.9166 21.7984 18.2057 21.3156 18.4989C20.8342 18.7921 20.1978 19.0878 19.4098 19.3011C19.0153 19.4026 18.5843 19.4856 18.1202 19.5298C17.656 19.5703 17.16 19.5748 16.6412 19.5274C15.6054 19.4338 14.4745 19.1263 13.3872 18.531C12.3755 17.9787 11.4052 17.1787 10.6201 16.1509C11.3237 18.1041 12.4065 19.4993 13.169 20.462C15.3913 23.2672 17.897 24.6458 19.0457 25.2627C20.4223 26.002 22.1322 26.7466 22.5788 26.7466C23.0552 26.7466 24.7349 26.002 26.1121 25.2627C27.2602 24.6458 29.7661 23.2672 31.9887 20.462C32.9645 19.2298 34.4648 17.2901 35.023 14.378C35.2602 13.1394 35.5329 11.6167 34.8945 9.83018C34.0561 7.48361 32.2438 6.32208 31.8214 6.06533C31.2429 5.71325 29.887 5.00007 28.0611 5C27.9321 5 27.801 5.00361 27.6675 5.0111Z" fill="#D92E76"/>
<mask id="mask0" mask-type="alpha" maskUnits="userSpaceOnUse" x="10" y="5" width="26" height="22">
<path fill-rule="evenodd" clip-rule="evenodd" d="M27.6675 5.0111C24.8492 5.17006 22.967 6.96742 22.5788 7.38601C22.2814 7.06568 21.108 5.93772 19.3098 5.35489C19.351 5.38791 19.3914 5.42127 19.4326 5.45455C19.4883 5.49961 19.5431 5.54553 19.5957 5.5948C19.8126 5.78364 20.0091 5.99521 20.1982 6.21313C20.2886 6.32516 20.382 6.43566 20.4647 6.55364C20.5069 6.613 20.5507 6.66788 20.5911 6.73145C20.632 6.79375 20.6736 6.85572 20.7136 6.91902C21.0277 7.42826 21.2549 7.99464 21.3809 8.58316C21.5069 9.17161 21.5288 9.78191 21.451 10.3793C21.3725 10.9765 21.194 11.5623 20.9155 12.1001C20.6386 12.6382 20.2644 13.1281 19.8166 13.5351L19.6455 13.684L19.4676 13.8236C19.4076 13.87 19.3409 13.9147 19.2777 13.9596C19.2121 14.0025 19.1455 14.0444 19.0788 14.0853C18.8083 14.2446 18.5189 14.3726 18.2192 14.465C17.6199 14.6527 16.9793 14.6852 16.3736 14.579C15.7678 14.4697 15.1943 14.222 14.7146 13.8634C14.474 13.6854 14.2557 13.4816 14.0639 13.2597C13.9678 13.149 13.8791 13.0331 13.7959 12.9142C13.7538 12.8554 13.7155 12.7878 13.6761 12.725C13.6383 12.6602 13.5957 12.5987 13.5651 12.53C13.5327 12.4627 13.5002 12.3956 13.4681 12.3284C13.4512 12.2953 13.4378 12.2608 13.425 12.2258L13.3865 12.1215L13.3486 12.0171L13.3303 11.965L13.316 11.9116C13.2974 11.8402 13.2788 11.7694 13.2605 11.6983L13.2471 11.6449L13.2379 11.5909L13.2203 11.483L13.2034 11.3751L13.1953 11.3212L13.1911 11.267C13.1862 11.1948 13.1818 11.1228 13.1768 11.0507L13.1737 10.997L13.1749 10.9429L13.1772 10.8353L13.1806 10.7278L13.1824 10.6746L13.1884 10.6211C13.1968 10.5502 13.2053 10.4799 13.2137 10.4093L13.2203 10.3565L13.2309 10.3042L13.2529 10.2006L13.2753 10.0972C13.2823 10.0624 13.2903 10.0284 13.3019 9.99488C13.3437 9.86046 13.3818 9.72563 13.4401 9.59829C13.4681 9.53398 13.4918 9.46874 13.524 9.40684C13.5568 9.34567 13.5894 9.28444 13.622 9.22348C13.653 9.16131 13.6918 9.10402 13.7304 9.0466C13.7687 8.98938 13.8062 8.9319 13.8458 8.87588C13.8893 8.8226 13.9325 8.76959 13.9758 8.71658L14.0409 8.63777C14.0632 8.61224 14.0884 8.58877 14.1121 8.56464C14.1603 8.51651 14.2082 8.46865 14.2562 8.42106C14.3037 8.37319 14.3592 8.33382 14.4104 8.29044C14.4635 8.24866 14.5119 8.20481 14.5693 8.1659C14.6276 8.12767 14.6856 8.08943 14.7435 8.0514C14.9827 7.91049 15.2397 7.8026 15.505 7.7407C15.7708 7.68154 16.0405 7.66349 16.3035 7.68274C16.5663 7.70687 16.8197 7.77091 17.0564 7.86356C17.2919 7.96089 17.5068 8.0915 17.7 8.24184C17.7465 8.28128 17.7914 8.32212 17.8366 8.36243L17.9033 8.42346L17.9644 8.48957C18.0046 8.53389 18.0448 8.57728 18.0834 8.62206C18.1188 8.66919 18.1536 8.71612 18.1886 8.76277L18.2401 8.83323L18.2871 8.9103L18.3332 8.98751C18.3487 9.01305 18.3631 9.03905 18.3753 9.06626C18.4002 9.1202 18.4256 9.17348 18.4503 9.22695C18.47 9.2823 18.4898 9.33718 18.5095 9.39233C18.5795 9.61393 18.6145 9.84007 18.6186 10.0615C18.6184 10.2833 18.587 10.4986 18.5304 10.7023C18.4726 10.9058 18.383 11.0944 18.2777 11.2663C18.1693 11.4376 18.038 11.5869 17.8962 11.7166C17.8602 11.7485 17.8217 11.7771 17.7848 11.8067C17.7479 11.836 17.7112 11.8651 17.6688 11.8906C17.6271 11.9162 17.5879 11.9447 17.5445 11.966C17.5016 11.9875 17.4587 12.0089 17.4163 12.03C17.2411 12.1053 17.059 12.1487 16.8813 12.1622C16.7031 12.178 16.5296 12.1585 16.369 12.1184C16.2882 12.1006 16.2126 12.0701 16.138 12.0429C16.0661 12.0082 15.9941 11.9777 15.9305 11.9352C15.7984 11.8583 15.6876 11.7605 15.5911 11.6608C15.5462 11.6076 15.4984 11.5588 15.4625 11.503C15.4437 11.476 15.4251 11.449 15.4068 11.4225C15.3891 11.395 15.3734 11.3653 15.3577 11.3372L15.3342 11.2947L15.3147 11.2509C15.3022 11.2217 15.2895 11.1934 15.2782 11.1643C15.2599 11.1055 15.2385 11.0491 15.2283 10.9914C15.2004 10.8781 15.1959 10.767 15.1961 10.6645C15.2032 10.4576 15.257 10.2817 15.3245 10.1436C15.3577 10.0737 15.3976 10.0148 15.4341 9.96226C15.4752 9.91233 15.5107 9.86728 15.5502 9.83325C15.569 9.8156 15.5861 9.79903 15.6037 9.78499C15.6221 9.77175 15.6391 9.75965 15.6548 9.74836C15.671 9.73733 15.6855 9.7277 15.6994 9.71928C15.7138 9.71199 15.7274 9.70564 15.7396 9.70049C15.788 9.67984 15.8165 9.67663 15.8263 9.689C15.8482 9.71694 15.7817 9.79521 15.6992 9.94889C15.6771 9.98593 15.6599 10.0319 15.6381 10.0792C15.6209 10.129 15.6012 10.1818 15.588 10.2416C15.5605 10.3595 15.5471 10.4989 15.568 10.6485C15.5819 10.7229 15.5965 10.8002 15.6289 10.8756C15.6413 10.9142 15.6637 10.9502 15.6806 10.9882C15.6917 11.0064 15.703 11.0245 15.714 11.0426L15.7309 11.07L15.7509 11.0958C15.7646 11.1132 15.7763 11.1309 15.7913 11.1481C15.8068 11.165 15.8228 11.1823 15.839 11.1997C15.8686 11.2363 15.9077 11.2647 15.9425 11.2977C16.0182 11.3573 16.0995 11.4146 16.1927 11.4537C16.2374 11.4774 16.2877 11.49 16.3357 11.5081C16.3865 11.5192 16.436 11.5349 16.4887 11.5393C16.5929 11.5534 16.7017 11.5545 16.8089 11.533C16.9161 11.5128 17.0216 11.476 17.1211 11.4216C17.145 11.4065 17.1692 11.3913 17.1934 11.3761C17.2181 11.3613 17.2393 11.3407 17.2627 11.3238C17.286 11.3081 17.3086 11.2855 17.3312 11.2635C17.3535 11.2415 17.3777 11.2213 17.399 11.1981C17.484 11.104 17.5608 10.9999 17.6217 10.8835C17.6792 10.7656 17.7279 10.6401 17.754 10.5062C17.7794 10.3722 17.7883 10.2334 17.7785 10.0936C17.7642 9.95424 17.7312 9.81614 17.6792 9.68452L17.6365 9.58699C17.6189 9.55597 17.6015 9.52482 17.5836 9.49367C17.5757 9.47763 17.566 9.46265 17.5549 9.44835L17.5239 9.4045L17.4934 9.35991L17.4555 9.31653C17.4306 9.28725 17.4056 9.25797 17.3808 9.22843C17.353 9.20162 17.3251 9.17515 17.2971 9.14861L17.2558 9.10804L17.2099 9.07287C17.1796 9.04894 17.1492 9.02521 17.1187 9.00135C16.9897 8.91625 16.8514 8.84326 16.7031 8.79232C16.5541 8.74613 16.3985 8.71685 16.2405 8.71117C16.0823 8.7107 15.9239 8.73136 15.7701 8.77427C15.6169 8.82026 15.4718 8.89292 15.3358 8.98257C15.3031 9.00716 15.2702 9.03176 15.2368 9.05576C15.2037 9.08043 15.1719 9.11432 15.1388 9.14273C15.107 9.17348 15.0711 9.19975 15.0422 9.23351L14.9532 9.33271C14.9388 9.34942 14.9224 9.36486 14.909 9.38251L14.8696 9.43685L14.79 9.54454L14.7211 9.66059C14.6979 9.69909 14.6736 9.73733 14.6565 9.77931C14.3267 10.4243 14.3342 11.2658 14.7141 11.9099C14.7333 11.9523 14.7639 11.9887 14.789 12.0279C14.8165 12.0666 14.8385 12.1058 14.8692 12.1447C14.9296 12.2233 14.9933 12.2995 15.0612 12.3713C15.1969 12.5151 15.3478 12.6438 15.5105 12.7542C15.8353 12.9771 16.213 13.1197 16.6023 13.1752C16.9915 13.2268 17.3932 13.1914 17.7632 13.0601C17.9482 12.9951 18.1261 12.9088 18.293 12.8028L18.4159 12.7191C18.4552 12.6879 18.4947 12.6607 18.5349 12.6274L18.6557 12.5255L18.7712 12.4182C19.0722 12.125 19.3198 11.7783 19.501 11.3984C19.6834 11.0186 19.7955 10.6054 19.838 10.1877C19.8801 9.76995 19.8536 9.34701 19.7562 8.94573C19.6584 8.54419 19.4942 8.16423 19.2739 7.82486L19.1878 7.70005C19.1606 7.65834 19.1246 7.61663 19.0936 7.57465C19.0318 7.48922 18.9613 7.41134 18.8943 7.33113C18.7531 7.17705 18.6094 7.02671 18.4507 6.89563C18.4126 6.86087 18.3724 6.82898 18.3318 6.79783C18.2911 6.76661 18.2521 6.73352 18.2105 6.70378C18.127 6.64529 18.0455 6.58439 17.9588 6.53205C17.8748 6.4755 17.7853 6.42864 17.6986 6.37804C17.6542 6.3543 17.6088 6.33271 17.5641 6.30972L17.4974 6.27596L17.4287 6.24568C17.0658 6.07957 16.6841 5.97268 16.3028 5.91452C16.1117 5.88892 15.9209 5.87228 15.7314 5.87134C15.5422 5.87228 15.3542 5.8793 15.1703 5.9061C14.432 5.99942 13.7585 6.29354 13.21 6.70231C13.1406 6.7499 13.072 6.80933 13.0035 6.86414C12.9697 6.89235 12.9347 6.91902 12.9018 6.9477C12.8691 6.97698 12.8369 7.00612 12.8045 7.0354C12.7725 7.06421 12.7401 7.09309 12.7081 7.12197C12.6761 7.15078 12.647 7.1824 12.6164 7.21228C12.5565 7.27344 12.4933 7.33066 12.4385 7.3945C12.3828 7.4578 12.3238 7.51736 12.2711 7.5814C12.2183 7.64564 12.166 7.70921 12.1141 7.77231C12.0652 7.83776 12.0171 7.90273 11.969 7.96744C11.9209 8.03174 11.8791 8.09979 11.8342 8.1645C11.6609 8.42901 11.5091 8.70562 11.3789 8.99025C11.25 9.27602 11.1459 9.57054 11.0618 9.86861C11.0428 9.94375 11.0185 10.0173 11.003 10.0931C10.9861 10.1684 10.9694 10.244 10.9524 10.3188C10.9391 10.3948 10.9257 10.4702 10.9125 10.546C10.8975 10.6213 10.8916 10.6978 10.8806 10.7733C10.8444 11.0768 10.8244 11.3805 10.8328 11.6817C10.8547 12.8877 11.234 14.0327 11.8514 14.9571C11.8869 15.0162 11.9315 15.0737 11.9716 15.1315C12.0131 15.1895 12.0542 15.2475 12.0951 15.3049C12.1807 15.4167 12.2688 15.5261 12.355 15.6356C12.4479 15.7392 12.536 15.8463 12.6298 15.9466C12.6773 15.9961 12.725 16.0455 12.7725 16.0946C12.8195 16.1441 12.8663 16.1936 12.9166 16.2386C13.3065 16.6153 13.7254 16.9397 14.1584 17.2106C15.0253 17.754 15.9455 18.0798 16.8126 18.2353C17.247 18.3136 17.6684 18.3507 18.0697 18.3584C18.471 18.3626 18.8503 18.3346 19.2052 18.2908C19.9135 18.194 20.5181 18.0253 21.0037 17.8525C21.491 17.6799 21.8586 17.5045 22.124 17.4032C22.382 17.2908 22.5395 17.2526 22.5786 17.3033C22.6175 17.3534 22.5353 17.4906 22.3348 17.7092C22.127 17.9166 21.7984 18.2057 21.3156 18.4989C20.8342 18.7921 20.1978 19.0878 19.4098 19.3011C19.0153 19.4026 18.5843 19.4856 18.1202 19.5298C17.656 19.5703 17.16 19.5748 16.6412 19.5274C15.6054 19.4338 14.4745 19.1263 13.3872 18.531C12.3755 17.9787 11.4052 17.1787 10.6201 16.1509C11.3237 18.1041 12.4065 19.4993 13.169 20.462C15.3913 23.2672 17.897 24.6458 19.0457 25.2627C20.4223 26.002 22.1322 26.7466 22.5788 26.7466C23.0552 26.7466 24.7349 26.002 26.1121 25.2627C27.2602 24.6458 29.7661 23.2672 31.9887 20.462C32.9645 19.2298 34.4648 17.2901 35.023 14.378C35.2602 13.1394 35.5329 11.6167 34.8945 9.83018C34.0561 7.48361 32.2438 6.32208 31.8214 6.06533C31.2429 5.71325 29.887 5.00007 28.0611 5C27.9321 5 27.801 5.00361 27.6675 5.0111Z" fill="white"/>
</mask>
<g mask="url(#mask0)">
</g>
</svg>
