<svg xmlns="http://www.w3.org/2000/svg" width="25" height="25" fill="none" viewBox="0 0 25 25">
    <g clip-path="url(#clip0)">
        <path fill-rule="evenodd" stroke="#000" stroke-width="1.5" d="M18.021 10.243c-.345 4.61-4.373 8.067-8.998 7.723-4.627-.345-8.095-4.361-7.75-8.97.346-4.61 4.374-8.067 9.002-7.723 4.625.345 8.092 4.361 7.746 8.97z" clip-rule="evenodd"/>
        <path stroke="#000" stroke-width="2" d="M15.762 15.275l8.74 8.74"/>
        <path fill="#000" d="M9.352 11.918c.336 0 .476-.241.476-.585v-.198c0-.813.27-1.23 1.23-1.846 1.004-.644 1.546-1.399 1.546-2.483 0-1.53-1.26-2.637-3.003-2.637-1.377 0-2.447.674-2.85 1.75-.11.272-.16.499-.16.755 0 .293.16.462.446.462.256 0 .381-.11.469-.454.212-1.018.974-1.641 2.058-1.641 1.172 0 2.007.74 2.007 1.81 0 .768-.36 1.288-1.275 1.896-1.025.667-1.442 1.274-1.442 2.256v.344c0 .315.153.572.498.572zm0 2.981c.388 0 .688-.3.688-.68 0-.389-.3-.69-.688-.69-.381 0-.682.301-.682.69 0 .38.3.68.682.68z"/>
    </g>
    <defs>
        <clipPath id="clip0">
            <path fill="#fff" d="M0 0H24.167V23.333H0z" transform="translate(0.833252 0.833496)"/>
        </clipPath>
    </defs>
</svg>
