<svg width="31" height="30" viewBox="0 0 31 30" fill="none" xmlns="http://www.w3.org/2000/svg">
<path d="M16.064 7C13.5394 7 11.8412 8.43978 11.5 10.5773C11.5 10.7026 11.5773 10.8329 11.7133 10.8329L13.2701 11.0884C13.4061 11.0884 13.5474 11.0171 13.5474 10.8918C13.8193 9.50856 14.6991 8.76901 16.064 8.76901C17.4982 8.76901 18.4526 9.5749 18.4526 10.8329C18.4526 11.651 18.1887 12.1621 17.3009 13.2309L15.6588 15.2947C15.1123 15.9237 14.9123 16.4396 14.9123 17.3192V18.2627C14.9123 18.388 15.0563 18.5182 15.1256 18.5182H16.7464C16.9517 18.5182 17.0237 18.388 17.0237 18.2627V17.5748C17.0237 16.8205 17.165 16.4937 17.6422 15.8647L19.2844 13.8009C20.1028 12.7321 20.5 11.9016 20.5 10.8329C20.5 8.56754 18.7245 7 16.064 7ZM15.1256 20.2086C14.9203 20.2086 14.8483 20.3388 14.8483 20.4642V22.4101C14.8483 22.5993 14.9896 22.6656 15.1256 22.6656H16.9597C17.165 22.6656 17.237 22.5354 17.237 22.4101V20.4642C17.237 20.275 17.0957 20.2086 16.9597 20.2086H15.1256Z" fill="black"/>
</svg>
