<svg xmlns="http://www.w3.org/2000/svg" width="82" height="64" fill="none" viewBox="0 0 82 64">
    <path fill="#854D2D" d="M41.975 57.043h.035v-.612l-.014.38-.021.232z"/>
    <path fill="url(#paint0_linear)" d="M40.633 46.595v.014h1.379v-.014h-1.38z"/>
    <path fill="#975935" d="M39.78 46.595v.014h.782v-.014h-.781z"/>
    <path fill="#9C184D" d="M37.002 46.869c.047-.019.099-.035.155-.05.45-.126 1.009-.196 1.675-.21h.949v-.015h2.476c.413-.023.695-.075.845-.154.15-.085.206-.188.169-.31-.047-.127-.329-.192-.845-.197h-.365v.338h-3.743c-.783.051-1.503.25-2.16.598-.483.244-.93.56-1.343.95-1.06 1.036-1.602 2.28-1.625 3.729V51.667c.046 1.45.588 2.688 1.625 3.715.53.53 1.111.938 1.744 1.224.516.22 1.074.36 1.675.415l2.398-.07 1.344.091.021-.232v-.823l-3.468.014c-1.257-.023-2.34-.49-3.25-1.4-.863-.858-1.323-1.876-1.379-3.053v-.05-.07-.134c0-1.304.46-2.415 1.379-3.335.276-.267.57-.497.88-.69.267-.163.548-.297.843-.4z"/>
    <path fill="#C82164" d="M37.157 47.2l-.155.05c-.296.102-.577.236-.844.4-.31.193-.603.422-.88.69-.872.872-1.332 1.913-1.379 3.124v.084c.057 1.177.516 2.195 1.38 3.054.91.91 1.992 1.376 3.25 1.4l3.468-.014 1.034-.007c.183.014.337-.026.464-.12.113-.08.183-.246.211-.5l.014-.063v-.007c-.014-2.505-.03-5.012-.049-7.521l-.007-1.224c-.028.042-.056.086-.084.133-.15.174-.432.284-.845.331l-2.103-.021v-.014h-.07v.014H38.83c-.666.014-1.224.084-1.674.211zm-24.94-6.754c-.539-.07-.825-.195-.858-.373V62.08c.066.319.174.595.324.83.3.478 1.266.678 2.898.598h24.172c1.22 0 2.095-.338 2.625-1.013.145-.183.265-.385.358-.605.01-.033.022-.068.036-.106.159-.427.239-.933.239-1.52v-3.222h-.035l-1.344-.091-2.399.07c-.6-.056-1.158-.195-1.674-.415-.633-.286-1.215-.694-1.745-1.224-1.036-1.028-1.578-2.266-1.625-3.715v-.014V51.548c.023-1.45.565-2.692 1.625-3.729.413-.39.86-.706 1.344-.95.656-.347 1.376-.546 2.16-.598h3.742v-.337h-.05v-2.358c-.013-.309-.048-.593-.105-.85.014.13.026.276.035.435v.416c-.046-1.075-.372-1.863-.977-2.364l-.317-.226-.183-.091c-.37-.169-.804-.284-1.301-.345h-24.82c-.849 0-1.557-.035-2.124-.105zM38.6 59.126l-.042-.324v-.33c.023.135.037.262.042.38v.274z"/>
    <path fill="#DE7FA6" d="M37.002 47.25c.046-.014.098-.03.154-.05.45-.126 1.009-.197 1.675-.21H40.56v-.015h.07v.014l2.104.022c.413-.047.694-.158.844-.331.028-.047.056-.092.085-.134v-.281-.05c-.01-.037-.02-.077-.029-.12-.023-.055-.051-.107-.084-.154-.173-.174-.509-.288-1.006-.345h-.535v.338h.415c.516.005.798.07.845.197.037.122-.02.225-.17.31-.15.08-.43.13-.843.154h-.247v.014h-1.378v-.014h-.07v.014H38.83c-.666.014-1.224.085-1.675.212-.056.014-.108.03-.154.049-.296.103-.577.237-.845.4-.31.193-.602.423-.879.69-.92.92-1.379 2.031-1.379 3.335v.169c.047-1.21.507-2.251 1.379-3.124.277-.267.57-.497.88-.69.267-.163.548-.297.843-.4zm-25.643-7.177c.033.178.319.303.858.373.568.07 1.276.106 2.125.106H39.16c.497.06.931.176 1.302.344l.183.092.316.225c.605.502.931 1.29.978 2.364v-.176-.24c-.01-.159-.021-.304-.035-.435-.136-1.06-.589-1.792-1.358-2.195-.047-.075-.098-.143-.155-.204-.22-.263-.487-.47-.802-.62-.501-.239-1.097-.358-1.787-.358h-23.37c-1.95-.094-2.975.1-3.074.584-.005.032-.007.068-.007.105 0 .01.002.021.007.035zm1.062 0c-.445-.047-.581-.11-.408-.19.174-.084.98-.124 2.42-.12h23.863c.488.066.92.186 1.294.36.094.046.193.098.296.154-.366-.093-.767-.14-1.203-.14h-24.25c-.91.004-1.58-.017-2.012-.064z"/>
    <path fill="#6A1135" d="M12.013 39.882c-.174.08-.038.143.408.19.431.047 1.102.068 2.012.063h24.25c.436 0 .837.047 1.202.141-.103-.056-.201-.108-.295-.155-.375-.173-.807-.293-1.295-.358H14.433c-1.44-.005-2.247.035-2.42.12z"/>
    <path fill="url(#paint1_linear)" d="M34.456 39.87c-.006.014-.011.03-.014.049.003-.017.008-.03.014-.043.023-.07.044-.14.063-.21-.023.06-.045.128-.063.203zm-10.546.267v.014h10.011v-.014l.028-.07c.024-.062.042-.127.056-.198.174-.563.26-1.149.26-1.759-.023-1.486-.56-2.746-1.61-3.778-1.065-1.046-2.336-1.552-3.813-1.52-1.482.01-2.741.55-3.778 1.619-1.027 1.05-1.534 2.317-1.52 3.8.014.576.106 1.122.275 1.638.023.094.054.183.091.268zm-.52-.218c-.003-.015-.007-.032-.014-.05-.01-.028-.017-.054-.021-.077.004.028.011.056.02.084.008.015.012.029.015.043z"/>
    <path fill="#D19236" d="M23.127 38.23v.007c0 .502.063.983.19 1.442l.035.113c.004.024.011.05.02.078.008.017.012.034.015.049l.007.014.007.014.007.028.014.035c0 .024.005.042.014.056.005.024.012.047.021.07h.45c-.037-.084-.068-.173-.091-.267-.169-.516-.26-1.062-.274-1.639-.015-1.482.492-2.748 1.52-3.8 1.036-1.069 2.295-1.608 3.777-1.617 1.477-.033 2.748.473 3.813 1.52 1.05 1.031 1.587 2.29 1.61 3.778 0 .61-.086 1.196-.26 1.759-.014.07-.032.136-.056.197l-.028.07h.443c.005-.028.017-.059.036-.092l.035-.098.007-.028c.003-.018.008-.035.014-.05.018-.075.04-.143.063-.203l.162-1.57v-.014c0-.13-.002-.27-.007-.415-.01-.023-.014-.047-.014-.07-.056-.69-.228-1.325-.514-1.907l-.844-1.26c-.117-.135-.24-.267-.366-.393-1.13-1.126-2.495-1.68-4.094-1.66-1.6.028-2.955.61-4.066 1.744-1.074 1.098-1.623 2.416-1.646 3.954v.155z"/>
    <path fill="url(#paint2_linear)" d="M23.13 38.237v-.007-.155c.023-1.538.571-2.856 1.645-3.954 1.112-1.135 2.467-1.716 4.067-1.745 1.599-.018 2.964.535 4.094 1.66.127.127.249.259.366.395l.844 1.26c.286.58.457 1.216.514 1.906 0 .023.004.047.014.07.004.146.007.284.007.415v.014l-.162 1.57c-.019.07-.04.14-.063.21-.006.012-.011.026-.015.043l-.007.028-.035.098-.028.092c-.005 0-.007.005-.007.014h.697c0-.01.004-.014.014-.014.009-.028.016-.059.02-.092.024-.056.04-.112.05-.169.15-.567.22-1.165.211-1.794 0-.164-.007-.326-.021-.485-.136-1.567-.774-2.913-1.914-4.039-1.28-1.243-2.811-1.855-4.593-1.836-1.773.024-3.286.673-4.538 1.949-1.093 1.107-1.693 2.416-1.8 3.926-.02.216-.03.434-.03.654.01.573.083 1.114.219 1.626l.042.19c.01.023.019.051.028.084h.71v-.014c-.008-.024-.015-.047-.02-.07-.01-.015-.014-.033-.014-.057l-.014-.035-.007-.028-.007-.014-.007-.014c-.003-.014-.008-.028-.015-.042-.009-.029-.016-.057-.02-.085l-.036-.113c-.126-.46-.19-.94-.19-1.442z"/>
    <path fill="#CCC" d="M27.061 20.606c-.16-.08-.311-.092-.457-.036-.155.061-.272.172-.352.331-.08.136-.089.284-.028.443.375 1.084.61 2.238.704 3.462.023.16.093.29.21.394.123.117.27.169.444.155.16-.024.29-.094.394-.211.117-.122.164-.26.14-.415-.093-1.333-.351-2.59-.773-3.772-.056-.154-.15-.272-.282-.351zm-10.024-9.513c-.174-.056-.334-.037-.479.057-.131.08-.218.199-.26.358-.061.16-.04.31.063.45.08.137.195.235.345.296 1.093.296 2.124.716 3.095 1.26.136.089.284.122.444.098.154-.066.27-.167.344-.303.085-.13.115-.276.092-.436-.061-.16-.16-.279-.296-.358-1.046-.634-2.162-1.107-3.349-1.422zm-9.99.971c-.07-.16-.185-.253-.345-.281-.155-.09-.305-.09-.45 0-1.107.474-2.162 1.102-3.166 1.885-.145.094-.225.232-.239.416-.014.159.026.297.12.415.093.145.232.225.415.239.16.014.304-.026.436-.12.91-.713 1.876-1.294 2.898-1.745.16-.08.27-.199.33-.358.067-.155.067-.305 0-.45zm2.736-1.33c-.182.024-.314.104-.393.24-.094.117-.122.262-.085.436.024.16.103.29.24.394.117.08.262.108.435.084.835-.16 1.696-.239 2.582-.239.258 0 .514.012.767.035.16.024.303-.023.43-.14.112-.104.18-.235.203-.394.024-.183-.028-.329-.155-.437-.093-.122-.22-.194-.38-.218-.276-.014-.565-.02-.865-.02-.966 0-1.892.086-2.779.26zM25.1 18.537c.16.019.307-.012.443-.091.14-.099.23-.226.267-.38.024-.16-.007-.312-.091-.458-.61-.91-1.318-1.768-2.125-2.575-.089-.08-.169-.16-.24-.239-.116-.117-.255-.176-.414-.176-.16 0-.298.059-.415.176-.122.122-.183.263-.183.422 0 .155.06.293.183.415.08.075.155.153.225.232.774.77 1.437 1.57 1.99 2.4.08.136.2.227.36.274zM25.549 26.136c-.127-.108-.272-.15-.437-.127-.16.01-.29.068-.394.176-.112.136-.159.286-.14.45.004.17.07.305.197.409l2.701 2.3c.127.094.272.139.436.134.17-.01.308-.078.415-.204.104-.117.143-.263.12-.436-.014-.179-.077-.315-.19-.409l-2.708-2.293z"/>
    <path fill="#CCC" d="M30.551 25.77c-.127-.103-.281-.145-.464-.127-.16 0-.291.064-.394.19l-2.3 2.702c-.095.122-.14.275-.134.457.018.155.086.284.204.387.117.104.262.143.436.12.178 0 .314-.068.408-.204L30.6 26.6c.108-.126.155-.272.14-.436-.022-.16-.086-.29-.189-.394z"/>
    <path fill="#AE6E4C" d="M52.108 33.593l-.014-.014h-.02c.01 0 .02.005.034.014z"/>
    <path fill="#F7BA7F" d="M57.961 28.52c-.14-.183-.314-.389-.52-.619-.516-.384-1.082-.645-1.696-.78-.628-.184-1.414-.275-2.357-.275-1.43 0-2.905.38-4.425 1.14-1.322.652-2.305 1.416-2.947 2.293-.085.038-.153.13-.204.275-.014-.009-.026.015-.035.07-.061.14-.132.324-.212.549-.032.244-.1.546-.203.908-.029.112-.057.243-.085.393-.094.413-.136.69-.127.83v.036c-.009.075-.004.15.014.225.015.216.045.434.092.654.094.563.319 1.12.675 1.668.047-.943.42-1.818 1.119-2.624.427-.484.957-.953 1.59-1.408 1.843-1.313 3.953-1.972 6.331-1.977.793.005 1.501.167 2.125.486.403.267.708.58.914.936.047.239.075.457.085.654 0 .39-.099.73-.296 1.02.188-.206.38-.49.577-.851.127-.24.225-.443.296-.612.056-.165.093-.305.112-.422.052-.446-.005-.901-.169-1.365-.103-.287-.246-.58-.429-.88-.07-.089-.145-.197-.225-.324zm-12.417-3.145c-.08.024-.13.052-.154.085-.3.333-.512.593-.633.78-.132.184-.254.43-.366.74-.113.3-.16.682-.141 1.146-.01.179.002.357.035.535.047.202.11.392.19.57.014.019.026.04.035.063.108.183.251.385.43.605.393-1.036 1.406-1.974 3.038-2.814 1.97-1.022 3.877-1.534 5.72-1.534.957-.009 1.843.19 2.66.598.857.427 1.289.922 1.294 1.485-.005.028-.008.066-.008.113.188-.174.338-.376.45-.606.015-.06.029-.124.043-.19.042-.117.087-.358.134-.724.065-.554.018-1.016-.141-1.386-.024-.047-.045-.092-.063-.134-.094-.14-.204-.279-.331-.415v.035c-.033-.056-.073-.096-.12-.12-.004-.014-.011-.025-.02-.035-.043-.047-.087-.086-.134-.12-.76-.67-2.017-1-3.771-.991-1.332 0-2.917.232-4.756.696-1.876.502-3.006 1.041-3.39 1.618zm-.548-4.819v.021c-.118.164-.226.307-.324.43-.206.313-.352.642-.436.984-.136.441-.188.85-.155 1.224 0 .212.045.465.134.76.051.197.133.41.246.64.038.048.061.094.07.141 1.084-1.243 2.296-2.09 3.637-2.54 1.328-.46 2.82-.7 4.475-.724 1.66-.024 2.954.178 3.883.605.877.394 1.316.818 1.316 1.273 0 .23-.015.472-.043.725.174-.16.307-.406.401-.739.08-.342.127-.553.141-.633l.014-.042c.08-.582.047-1.081-.098-1.499-.024-.089-.059-.176-.106-.26-.06-.174-.155-.333-.281-.479-.047-.047-.096-.093-.148-.14-.14-.136-.31-.27-.507-.401-.042-.033-.077-.054-.105-.064-.183-.117-.394-.227-.633-.33-.99-.483-2.413-.77-4.27-.859-1.862-.084-3.436.106-4.721.57-1.294.479-2.124.924-2.49 1.337zm1.554-5.48c-1.228.642-1.993 1.355-2.293 2.138-.31.779-.408 1.384-.295 1.815.093.436.225.774.393 1.013.024.014.052.033.085.057.127.178.279.314.457.408-.037-.043-.06-.082-.07-.12-.014-.042-.01-.157.014-.345.01-.033.014-.068.014-.105.023-.169.106-.404.246-.704.09-.16.176-.29.26-.394.122-.126.254-.244.394-.351.333-.24.697-.458 1.09-.655 1.244-.624 2.726-.936 4.447-.936 2.41 0 4.23.479 5.46 1.436.15.112.28.227.393.344.488.465.76.936.816 1.415.22-.249.343-.467.366-.655.131-.966-.03-1.829-.485-2.589-.3-.492-.709-.957-1.225-1.393.662.146 1.218.589 1.668 1.33.473.811.654 1.672.541 2.582-.037.277-.12.56-.246.851.183.207.326.596.43 1.168.093.554.124.974.09 1.26-.06.506-.234.99-.52 1.449.164.29.296.65.394 1.076.103.45.134.852.092 1.204-.047.37-.214.809-.5 1.315-.005.033-.016.061-.035.085.422.46.722 1.048.9 1.766.155.652.193 1.301.113 1.948-.15 1.14-.771 1.947-1.864 2.42-.976.414-2.2.529-3.672.346-.46-.052-1.086-.273-1.879-.662h-.021c-.014-.009-.025-.014-.035-.014-.024-.014-.04-.026-.05-.035-.393-.164-.654-.385-.78-.661-.047-.136-.07-.289-.07-.458.004-.047.016-.105.035-.176-.047.033-.092.061-.134.085-.047.014-.094.033-.14.056-.428.24-.772.493-1.035.76-.164.202-.303.38-.415.535-.14.201-.232.38-.274.534-.136.32-.115.657.063 1.014.028.056.059.11.091.161.015.024.026.045.036.064.286.436 1.16.89 2.624 1.365 1.458.445 2.92.694 4.382.745 1.459.057 2.988-.429 4.587-1.456 1.58-1.037 2.573-2.331 2.976-3.884l.028-.183c.052.596.052 1.135 0 1.619-.08.619-.21 1.193-.394 1.723.357-.112.765-.215 1.224-.31 1.304-.271 2.72-.407 4.25-.407 1.13 0 2.32.063 3.573.19 1.07.112 1.916.248 2.54.408 2.002.567 3.013-.964 3.032-4.595.005-3.635-.847-5.44-2.554-5.417-.173.023-.352.042-.535.056-1.463.136-3.449.204-5.958.204-1.403 0-2.35-.08-2.842-.239-.024.249-.052.502-.085.76-.051.516-.293 1.372-.724 2.568.126-.69.138-1.53.035-2.519-.178-1.862-.532-3.405-1.062-4.63-.535-1.219-1.288-2.582-2.259-4.087-.966-1.45-1.615-2.671-1.948-3.666-.52-1.6-.648-3.457-.38-5.572.14-1.13.462-2.338.964-3.624.004-.023.018-.051.042-.084.01-.037.023-.08.042-.127.023-.286.113-.635.267-1.048.23-.544.368-1.015.415-1.414.075-.544.045-.943-.091-1.196-.066-.17-.18-.284-.345-.345-.094-.047-.192-.075-.295-.084-.07-.01-.174.007-.31.049-.192.06-.377.164-.555.31-.526.23-1.082.597-1.668 1.104-.806.68-1.451 1.52-1.934 2.519-.465.961-.777 2.078-.936 3.349-.15 1.224-.127 2.284.07 3.18.22.976.28 2.312.176 4.01-.014.028-.021.054-.021.078-.033-.024-.066-.04-.099-.05-1.073-.572-2.546-.823-4.417-.752-1.876.065-3.431.422-4.665 1.07z"/>
    <path fill="#E8A06F" d="M57.643 27.81v-.064c0-.047.002-.085.007-.113-.005-.563-.436-1.057-1.294-1.484-.817-.408-1.703-.608-2.66-.598-1.843 0-3.75.51-5.72 1.533-1.631.84-2.644 1.778-3.038 2.815.225.206.516.424.872.654.052-.145.12-.237.204-.274.643-.878 1.625-1.642 2.948-2.294 1.52-.76 2.994-1.14 4.425-1.14.943 0 1.728.092 2.356.275.615.136 1.18.396 1.696.78.023.02.042.031.056.036l.148-.127zm6.352 4.235l-.028.182c-.403 1.553-1.395 2.848-2.975 3.884-1.6 1.028-3.129 1.513-4.587 1.457-1.464-.052-2.924-.3-4.383-.746-1.463-.474-2.338-.929-2.624-1.365-.01-.019-.021-.04-.035-.063-.033-.052-.063-.106-.092-.162-.178-.357-.199-.694-.063-1.013.042-.155.134-.333.274-.535.113-.155.251-.333.416-.535.262-.267.607-.52 1.034-.76.046-.023.093-.042.14-.056.042-.023.087-.051.134-.084-.019.07-.03.129-.035.175 0 .17.023.322.07.458.127.277.387.497.781.661.01.01.026.021.05.035h.02l.014.014h.021c.596.22 1.25.355 1.963.401.704.047 1.609-.091 2.716-.415.356-.126.642-.293.858-.5.056-.046.1-.081.134-.105.197-.29.295-.63.295-1.02-.01-.197-.037-.415-.084-.654-.207-.357-.511-.669-.915-.936-.623-.319-1.332-.48-2.124-.485-2.378.004-4.489.663-6.332 1.977-.633.455-1.163.924-1.59 1.407-.699.806-1.071 1.681-1.118 2.624.398.647.98 1.24 1.744 1.78 1.14.657 2.613 1.187 4.418 1.59 1.806.413 3.91.322 6.31-.274 2.407-.591 4.14-1.79 5.2-3.595.183-.53.314-1.105.394-1.724.051-.483.051-1.023 0-1.618zm-8.765.204c-.01.065-.026.138-.05.218-.3.53-.874.743-1.723.64-.037 0-.068-.005-.091-.014.6-.16.884-.298.85-.415-.023-.117-.105-.244-.245-.38-.164-.15-.366-.242-.605-.275-.23-.023-.626-.007-1.19.05-.313.033-.562.063-.745.091.863-.38 1.75-.513 2.66-.4.459.06.822.217 1.09.47.019.01.035.015.049.015zM61.203.292c.164.061.279.176.344.345.136.253.167.652.092 1.196-.047.399-.185.87-.415 1.414-.155.413-.244.763-.268 1.049-.018.047-.032.089-.042.126-.023.033-.037.061-.042.085-.502 1.285-.823 2.493-.964 3.623-.267 2.115-.14 3.973.38 5.572.333.995.983 2.217 1.949 3.666.97 1.506 1.723 2.868 2.258 4.088.53 1.224.884 2.767 1.062 4.63.103.989.092 1.829-.035 2.518.432-1.196.673-2.052.725-2.568.033-.258.06-.511.084-.76.117-1.487.007-2.765-.33-3.834-.277-.91-.84-1.895-1.689-2.955-1.276-1.647-2.03-2.646-2.265-2.997-.296-.456-.56-.936-.795-1.443-.46-1.22-.69-2.448-.69-3.687 0-1.805.697-4.176 2.09-7.113.103-.23.206-.455.31-.675 0-.014.002-.033.006-.056.057-.516-.002-.974-.175-1.372-.23-.488-.629-.772-1.196-.852-.127-.014-.258-.014-.394 0zM45.388 25.46c.023-.033.075-.06.155-.084.384-.577 1.515-1.117 3.39-1.619 1.84-.464 3.424-.696 4.756-.696 1.754-.01 3.011.321 3.771.992.047.033.091.073.134.12.01.009.016.02.02.035.048.023.088.063.12.12v-.036c-.023-.037-.053-.068-.091-.091.047-.043.099-.078.155-.106.028-.253.042-.495.042-.725 0-.454-.439-.879-1.316-1.273-.928-.427-2.223-.628-3.883-.605-1.655.023-3.147.265-4.474.725-1.342.45-2.554 1.297-3.637 2.54.215.445.502.68.858.703zm1.456-7.627c-.394.197-.757.415-1.09.655-.14.108-.272.225-.394.352-.084.103-.171.234-.26.394-.141.3-.223.534-.247.703 0 .038-.004.073-.014.106-.023.187-.028.302-.014.344.01.038.033.078.07.12.033.005.066.021.1.05.365-.414 1.195-.86 2.49-1.338 1.285-.464 2.858-.654 4.72-.57 1.857.09 3.28.376 4.27.859.24.103.45.213.633.33.028.01.064.031.106.064.197.131.366.265.506.4.052.048.101.095.148.142-.023-.052-.063-.104-.12-.155.07-.075.141-.14.212-.197-.057-.479-.329-.95-.816-1.414-.113-.118-.244-.232-.395-.345-1.228-.957-3.048-1.435-5.459-1.435-1.72 0-3.203.312-4.446.935z"/>
    <path fill="#C17F5D" d="M55.183 32.468c.023-.08.04-.153.049-.218-.014 0-.03-.005-.05-.014-.267-.254-.63-.41-1.09-.472-.91-.112-1.796.021-2.659.401.183-.028.432-.058.746-.091.563-.056.959-.073 1.189-.05.239.033.44.125.605.275.14.136.223.263.246.38.033.117-.251.255-.851.415.023.01.054.014.091.014.85.103 1.424-.11 1.724-.64z"/>
    <path fill="#D7905F" d="M58.285 16.784c-.45-.74-1.006-1.184-1.667-1.33.516.437.924.901 1.224 1.394.455.76.617 1.623.485 2.589-.023.187-.145.405-.366.654-.07.056-.14.122-.21.197.056.052.096.103.119.155.127.145.22.305.281.478.047.085.082.172.106.26.145.418.178.918.098 1.5l-.014.041c-.014.08-.06.291-.14.634-.094.333-.228.579-.401.738-.057.029-.108.064-.155.106.037.024.068.054.091.091.127.136.237.275.33.416.02.042.04.086.064.133.16.37.207.833.14 1.386-.046.366-.09.608-.133.725l-.042.19c-.112.23-.263.432-.45.605v.063c-.042.038-.092.08-.148.127-.014-.005-.033-.016-.056-.035.206.23.38.436.52.619.08.127.155.235.226.324.182.3.326.593.429.88.164.463.22.918.169 1.364-.02.117-.057.258-.113.422-.07.169-.169.373-.295.612-.198.361-.39.645-.577.852-.033.023-.078.058-.134.105-.216.206-.502.373-.858.5-1.107.323-2.012.462-2.716.415-.713-.047-1.367-.18-1.963-.401.793.389 1.42.61 1.879.661 1.472.183 2.697.068 3.672-.345 1.093-.473 1.714-1.28 1.864-2.42.08-.647.043-1.297-.112-1.949-.178-.717-.479-1.306-.9-1.766.018-.023.03-.051.034-.084.286-.507.453-.945.5-1.316.042-.352.012-.753-.092-1.203-.098-.427-.23-.786-.393-1.076.286-.46.46-.943.52-1.45.033-.286.002-.706-.091-1.26-.104-.572-.247-.96-.43-1.167.127-.291.21-.575.247-.852.112-.91-.068-1.77-.542-2.582z"/>
    <path fill="#fff" d="M23.438 47.644c-.07-.023-.138-.042-.204-.056.042.033.091.068.148.105.093.09.204.216.33.38.211.3.317.652.317 1.056.01.403-.04.729-.148.978-.051.103-.112.206-.183.31-.014.004-.03.018-.049.041-.028.024-.052.052-.07.085-.324.333-.744.483-1.26.45-.173-.014-.347-.06-.52-.14-.314-.165-.523-.388-.626-.669-.033-.098-.054-.169-.064-.211-.037-.197-.04-.394-.007-.591.038-.24.136-.439.296-.598.094-.094.192-.169.295-.225.033-.014.064-.03.092-.05.122-.037.246-.06.373-.07h.007c.042 0 .08.005.112.014.22.033.413.16.577.38.16.23.216.483.169.76-.033.127-.09.237-.169.33-.005.02-.007.036-.007.05-.113.117-.24.176-.38.176-.16 0-.286-.059-.38-.176-.018-.023-.035-.042-.049-.056-.047-.08-.068-.155-.063-.226 0-.051.02-.1.063-.147 0 .08.04.155.12.225.08.08.185.108.316.084.206-.037.32-.194.338-.471 0-.122-.033-.23-.099-.324-.08-.136-.218-.227-.415-.274-.22.01-.405.089-.555.24-.136.14-.204.334-.204.583 0 .127.023.249.07.366.023.056.058.115.105.176.02.023.04.051.064.084.16.174.344.26.556.26.356.024.637-.09.844-.344.047-.061.086-.12.12-.176.084-.16.135-.321.154-.486.08-.516-.045-.93-.373-1.245-.347-.319-.745-.445-1.196-.38-.183.024-.354.07-.513.141-.455.253-.774.64-.957 1.16-.047.174-.07.357-.07.55-.01.032-.015.06-.015.084 0 .127.008.244.022.352.07.572.311 1.065.724 1.477.197.207.483.376.858.507.371.136.81.197 1.316.183.46-.024.832-.12 1.119-.289.023-.023.051-.047.084-.07v.084l-.05.092c-.009 0-.013.005-.013.014-.038.038-.085.09-.141.155-.033.033-.068.063-.106.091-.15.122-.325.223-.527.303-.038.005-.075.016-.113.035l-.373.07c-.08.014-.16.021-.239.021-.084.01-.171.014-.26.014h-.106c-.717 0-1.334-.248-1.85-.745l-.028-.043-.077-.077c-.075-.075-.139-.15-.19-.225l-.035-.035c0-.01-.005-.014-.015-.014v-.014c-.018-.014-.03-.03-.035-.05-.01-.023-.02-.037-.035-.042l-.063-.098v.014c.239.76.732 1.487 1.477 2.18.024.02.042.04.056.064.704.633 1.32 1.088 1.85 1.365.226.117.432.2.62.246l.063.029c.047.004.094.016.14.035v-.014c.01.009.017.014.022.014h.028c.037-.02.084-.03.14-.035.024-.01.043-.02.057-.029.197-.047.403-.129.619-.246.54-.277 1.156-.732 1.85-1.365l.063-.063c.957-.9 1.492-1.846 1.605-2.836.028-.243.042-.478.042-.703-.024-.685-.202-1.257-.535-1.717-.131-.192-.277-.352-.436-.478l-.014-.014c-.197-.15-.415-.26-.654-.331 0-.005-.003-.007-.008-.007-.08-.019-.164-.035-.253-.05-.08-.023-.162-.035-.246-.035-.056-.009-.113-.014-.169-.014h-.26c-.31.01-.591.057-.844.141-.183.066-.345.145-.486.24-.023.009-.04.02-.049.035-.014.009-.028.016-.042.02-.052.043-.096.083-.134.12l-.014.014c-.028.014-.052.033-.07.057-.014.018-.03.032-.05.042-.037.051-.075.105-.112.162l-.014.014-.014-.014c-.08-.104-.134-.172-.162-.204-.103-.108-.223-.195-.359-.26-.01-.015-.02-.026-.035-.036-.136-.08-.279-.143-.43-.19z"/>
    <defs>
        <linearGradient id="paint0_linear" x1="26.278" x2="26.278" y1="46.608" y2="46.622" gradientUnits="userSpaceOnUse">
            <stop stop-color="#B1764A"/>
            <stop offset="1" stop-color="#925331"/>
        </linearGradient>
        <linearGradient id="paint1_linear" x1="33.852" x2="24.987" y1="36.163" y2="40.456" gradientUnits="userSpaceOnUse">
            <stop offset=".145" stop-color="#FACA51"/>
            <stop offset=".267" stop-color="#FBD661"/>
            <stop offset=".365" stop-color="#FF9"/>
            <stop offset=".486" stop-color="#FDF992"/>
            <stop offset=".584" stop-color="#F3E176"/>
            <stop offset=".788" stop-color="#DEAE3B"/>
        </linearGradient>
        <linearGradient id="paint2_linear" x1="35.161" x2="26.305" y1="35.768" y2="40.056" gradientUnits="userSpaceOnUse">
            <stop offset=".145" stop-color="#FACF58"/>
            <stop offset=".267" stop-color="#FBD661"/>
            <stop offset=".365" stop-color="#FF9"/>
            <stop offset=".486" stop-color="#FDF992"/>
            <stop offset=".584" stop-color="#F3E176"/>
            <stop offset=".788" stop-color="#DEAE3B"/>
        </linearGradient>
    </defs>
</svg>
