<svg width="60" height="60" viewBox="0 0 60 60" fill="none" xmlns="http://www.w3.org/2000/svg">
<path fill-rule="evenodd" clip-rule="evenodd" d="M19.6916 7.06006C16.0844 7.06006 12.4773 8.44187 9.70942 11.2097C4.17368 16.7455 4.17368 25.6383 9.70942 31.174L13.0368 34.5014C12.9902 34.7303 12.9647 34.9592 12.9647 35.1923C12.9647 36.057 13.2869 36.8157 13.9396 37.4685L15.4571 38.9902C15.9827 39.6175 16.8135 39.9354 17.657 39.9566C17.7121 40.7026 18.0215 41.4401 18.6064 42.0251L20.1281 43.5425C20.7216 44.1402 21.4167 44.4496 22.1966 44.5005C22.2178 45.3312 22.5357 46.0645 23.163 46.6919L24.6805 48.2136C25.2061 48.8409 26.0369 49.1588 26.8761 49.18C26.9228 49.9599 27.2322 50.6508 27.8298 51.2485L29.3515 52.7659C30.0001 53.4187 30.7588 53.7451 31.6277 53.7451C32.3864 53.7451 33.2554 53.4187 33.9039 52.7659L37.1592 49.5106C37.7187 49.002 38.0197 48.3322 38.1045 47.6286C38.8038 47.5439 39.4354 47.2387 39.9822 46.6919L41.9362 44.7378C42.5212 44.1529 42.8306 43.4154 42.8857 42.6693C43.7292 42.6482 44.56 42.3303 45.0856 41.7029L46.603 40.1812C47.2134 39.6217 47.5228 38.8715 47.5652 38.1C48.3621 38.0534 49.1463 37.7355 49.7481 37.0319L51.2656 35.5144C52.4779 34.4039 52.5499 32.5516 51.5072 31.2461C54.0292 28.6562 55.5001 25.1381 55.5001 21.408C55.5001 17.6102 54.0886 13.9225 51.3758 11.3157C45.8401 5.78421 36.8371 5.78421 31.3013 11.2097L30.4875 12.0236L29.6737 11.2097C26.9058 8.44187 23.2987 7.06006 19.6916 7.06006ZM19.6913 9.25586C22.7305 9.25586 25.7696 10.4469 28.156 12.7274L28.9147 13.4861L23.3832 19.0218C21.4292 20.9759 21.4292 24.121 23.3832 26.075C24.3582 27.0499 25.6594 27.5967 26.9607 27.5967C28.262 27.5967 29.4573 27.1601 30.4364 26.181L36.9386 19.6788L49.6377 32.5856C50.0743 33.018 50.0743 33.6708 49.6377 34.1073L48.1203 35.6248C47.6879 36.0571 47.0352 36.0571 46.6028 35.6248L39.982 29.1142C39.5496 28.6818 38.8969 28.6818 38.4645 29.1142C38.0322 29.5465 38.0322 30.1993 38.4645 30.6316L45.0854 37.1423C45.5177 37.5746 45.5177 38.2274 45.0854 38.6597L43.5637 40.1814C43.1313 40.6137 42.4786 40.6137 42.042 40.1814L35.5314 33.6708C35.3025 33.4376 35.01 33.3401 34.7175 33.3529C34.4293 33.3401 34.1368 33.4376 33.9037 33.6708C33.4713 34.1031 33.4713 34.7559 33.9037 35.1924L40.4143 41.7031C40.6347 41.9193 40.745 42.1354 40.745 42.4576C40.745 42.784 40.6347 43.0044 40.4143 43.2205L38.4645 45.1703C38.2145 45.4204 37.8965 45.5094 37.5914 45.4755C37.4684 45.2933 37.3243 45.1195 37.159 44.9584L35.6416 43.4367C35.0651 42.8602 34.264 42.572 33.4544 42.5508C33.412 41.7794 33.1026 41.0037 32.4964 40.3976L30.979 38.8801C30.4195 38.274 29.6735 37.9603 28.9063 37.9222C28.8851 37.0914 28.5672 36.3623 27.9356 35.735L26.4182 34.2133C25.8417 33.6368 25.0406 33.3486 24.231 33.3274C24.1886 32.556 23.8792 31.7803 23.273 31.1742L21.7556 29.6567C20.5603 28.3554 18.496 28.3554 17.1948 29.6567L14.2107 32.6408L11.2267 29.6567C6.55986 24.9899 6.55986 17.3942 11.2267 12.7274C13.6131 10.4469 16.6522 9.25586 19.6913 9.25586ZM49.7484 12.8372C47.362 10.5568 44.3229 9.36572 41.288 9.36572C38.2488 9.36572 35.0995 10.5568 32.819 12.8372L31.1914 14.3547L31.1405 14.3038L24.9012 20.5432C24.3586 21.0857 24.0322 21.8444 24.0322 22.6032C24.0322 23.3619 24.3586 24.1206 24.9012 24.6632C25.9863 25.7483 27.8301 25.7483 28.9152 24.6632L36.1846 17.3938C36.6169 16.9615 37.2697 16.9615 37.702 17.3938C37.7132 17.4028 37.7197 17.4141 37.7265 17.426C37.7325 17.4365 37.7387 17.4474 37.7486 17.4574C37.758 17.4667 37.7699 17.4735 37.7822 17.4805C37.7923 17.4862 37.8027 17.4921 37.8122 17.4998L50.0112 29.703C52.1856 27.4438 53.3301 24.4809 53.3301 21.4079C53.3301 18.1525 52.139 15.2236 49.8586 12.9432L49.7484 12.8372ZM19.5855 30.7417C19.8017 30.7417 20.1239 30.8477 20.34 31.0638L21.8617 32.5855C22.2941 33.0179 22.2941 33.6706 21.8617 34.1072L18.6064 37.3625C18.1741 37.7949 17.5213 37.7949 17.0847 37.3625L15.5673 35.8409C15.3511 35.6247 15.2451 35.4085 15.2451 35.0821C15.2451 34.7557 15.3511 34.5396 15.5673 34.3192L18.8226 31.0638C19.0388 30.8477 19.2592 30.7417 19.5855 30.7417ZM24.901 35.7349C24.6848 35.5145 24.4644 35.4043 24.138 35.4043C23.8159 35.4043 23.5997 35.5145 23.3835 35.7349L20.1282 38.9902C19.6916 39.4226 19.6916 40.0753 20.1282 40.5077L21.6457 42.0251C22.078 42.4575 22.7308 42.4575 23.1631 42.0251L26.4184 38.7698C26.6346 38.5536 26.7448 38.3375 26.7448 38.0111C26.7448 37.6847 26.6346 37.4685 26.4184 37.2524L24.901 35.7349ZM28.7412 39.9648C29.0252 39.9648 29.2965 40.0708 29.4576 40.287L30.9792 41.8087C31.4116 42.241 31.4116 42.8938 30.9792 43.3304L27.7239 46.5857C27.2873 47.018 26.6346 47.018 26.2022 46.5857L24.6805 45.064C24.4644 44.8478 24.3584 44.6316 24.3584 44.3053C24.3584 43.9789 24.4644 43.7627 24.6805 43.5423L27.9359 40.287C28.1563 40.0708 28.453 39.9648 28.7412 39.9648ZM34.1239 44.9581C33.9077 44.7376 33.6873 44.6274 33.3609 44.6274C33.0388 44.6274 32.8226 44.7376 32.6064 44.9581L29.3511 48.2134C29.1307 48.4296 29.0205 48.6457 29.0205 48.9679C29.0205 49.2942 29.1307 49.5147 29.3511 49.7308L30.8686 51.2483C31.3009 51.6806 31.9537 51.6806 32.386 51.2483L35.6413 47.993C35.8575 47.7768 35.9677 47.5606 35.9677 47.2342C35.9677 46.9079 35.8575 46.6917 35.6413 46.4755L34.1239 44.9581Z" fill="black"/>
</svg>
