<svg width="20" height="20" fill="none" xmlns="http://www.w3.org/2000/svg">
    <g clip-path="url(#a)" fill="#000" stroke="#000" stroke-width=".1">
        <path d="m-.042 10.306-.017.028.017.026.158.244c.144.226 3.551 5.446 9.882 5.446 3.166 0 5.605-1.306 7.267-2.639 1.655-1.327 2.543-2.683 2.616-2.807l.16-.243.019-.027-.018-.028-.162-.248c-.146-.23-3.553-5.441-9.882-5.441-3.166 0-5.605 1.305-7.267 2.636C1.074 8.581.186 9.937.115 10.06l-.157.248zm10.04 4.772c-5.032 0-8.152-3.694-8.936-4.745.784-1.054 3.891-4.745 8.936-4.745 5.044 0 8.152 3.69 8.94 4.745-.788 1.055-3.896 4.745-8.94 4.745z"/>
        <path d="M9.998 6.36c-.731 0-1.445.234-2.052.67a3.925 3.925 0 0 0-1.359 1.784 4.256 4.256 0 0 0-.21 2.294c.142.77.493 1.478 1.01 2.033a3.619 3.619 0 0 0 1.89 1.089c.717.154 1.46.075 2.135-.226a3.765 3.765 0 0 0 1.656-1.465c.405-.653.622-1.42.622-2.206a4.132 4.132 0 0 0-1.08-2.808c-.692-.745-1.632-1.165-2.612-1.165zm0 6.975a2.64 2.64 0 0 1-1.544-.505 2.964 2.964 0 0 1-1.026-1.347 3.221 3.221 0 0 1-.159-1.736 3.08 3.08 0 0 1 .763-1.537c.39-.42.885-.705 1.424-.82a2.594 2.594 0 0 1 1.606.17c.508.227.942.61 1.248 1.105.307.493.47 1.074.47 1.668 0 .797-.294 1.561-.816 2.124a2.683 2.683 0 0 1-1.966.878z"/>
    </g>
    <defs>
        <clipPath id="a">
            <path fill="#fff" d="M0 0h20v20H0z"/>
        </clipPath>
    </defs>
</svg>
