<svg xmlns="http://www.w3.org/2000/svg" width="106" height="78" fill="none" viewBox="0 0 106 78">
    <path fill="#D92E76" d="M103.375.625c-.031.008-.062.02-.094.031-.261.067-.488.235-.625.47L82.219 32.812 68.156 20.125c-.246-.312-.656-.449-1.043-.347-.386.101-.671.425-.73.82-.059.394.121.785.461.996l14.906 13.5c.219.191.512.277.801.234.29-.043.543-.207.7-.453l21.093-32.687c.23-.328.242-.762.031-1.102-.211-.34-.605-.52-1-.46z"/>
    <path fill="#000" fill-rule="evenodd" d="M13.697 23.908c.884-.622 1.842-.87 2.704-.8.858.07 1.614.463 2.1 1.132v.005c.365.507 1.754 2.604 3.235 4.84l.077.116c1.505 2.28 2.997 4.55 3.325 5.071.783 1.225.415 2.638-.24 3.885-.526 1.002-2.048 3.653-2.486 4.415.363.573 1.807 2.747 6.488 7.424 4.677 4.677 6.852 6.125 7.425 6.488.761-.438 3.425-1.964 4.41-2.485 1.251-.66 2.651-.998 3.867-.254 1.199.735 9.166 6.038 10.032 6.646 1.378.967 1.584 3.05.346 4.812-.543.78-1.877 2.46-3.382 4.03-.753.783-1.536 1.527-2.306 2.108-.77.582-1.474 1.09-2.494 1.06-.918-.031-3.64-.123-7.8-2.079-4.16-1.956-9.87-5.749-17.273-13.151-7.398-7.403-11.19-13.112-13.147-17.273-1.955-4.165-2.047-6.882-2.078-7.8-.03-1.024.477-1.728 1.06-2.498.577-.77 1.325-1.553 2.108-2.306 1.57-1.51 3.25-2.844 4.03-3.386zm2.988 1.65s-.183-.123-.49-.163c-.306-.035-.73.009-1.216.35v-.004c-.59.411-2.297 1.759-3.762 3.163-.731.704-1.41 1.43-1.869 2.043-.314.42-.481.81-.557.987-.034.081-.05.117-.05.09 0 .023 0 .048.002.073.03.983.095 3.077 1.861 6.843 1.816 3.868 5.443 9.38 12.705 16.643 7.267 7.271 12.78 10.898 16.643 12.71 3.767 1.77 5.861 1.834 6.848 1.865l.073.002c-.028-.001.008-.016.09-.051.175-.076.563-.243.982-.557.612-.46 1.334-1.142 2.038-1.872 1.405-1.462 2.752-3.172 3.164-3.763h.004c.682-.971.214-1.68.197-1.693-.53-.372-9.135-6.09-9.91-6.567-.087-.052-.83-.11-1.658.324-.95.499-4.97 2.8-4.97 2.8l-.564.32-.56-.329s-2.9-1.724-8.374-7.192c-5.469-5.47-7.188-8.37-7.188-8.37l-.328-.56.32-.564s2.305-4.03 2.8-4.97v-.005c.437-.826.375-1.57.332-1.636-.267-.424-1.803-2.76-3.308-5.04-1.505-2.275-3.075-4.628-3.255-4.878z" clip-rule="evenodd"/>
</svg>
