<svg xmlns="http://www.w3.org/2000/svg" width="25" height="25" fill="none" viewBox="0 0 25 25">
    <path fill="#000" fill-rule="evenodd" d="M5.499 2.461c.368-.258.767-.362 1.126-.333.358.029.673.193.875.472v.002c.153.211.731 1.085 1.348 2.017l.032.048c.627.95 1.249 1.896 1.386 2.113.326.51.173 1.1-.1 1.619-.22.417-.854 1.522-1.036 1.839.151.239.753 1.145 2.703 3.094 1.949 1.948 2.855 2.551 3.094 2.703.317-.182 1.427-.819 1.837-1.036.522-.275 1.105-.415 1.612-.105.5.306 3.819 2.515 4.18 2.769.574.403.66 1.27.144 2.005-.226.324-.782 1.024-1.41 1.679-.313.326-.64.636-.96.878-.32.243-.614.454-1.04.442-.382-.013-1.516-.051-3.25-.866-1.733-.815-4.112-2.396-7.196-5.48-3.083-3.084-4.663-5.463-5.478-7.197-.815-1.735-.853-2.867-.866-3.25-.013-.427.199-.72.441-1.041.24-.32.553-.647.879-.96.654-.63 1.354-1.186 1.679-1.412zm1.245.688s-.077-.051-.204-.068c-.128-.014-.305.004-.507.146v-.002c-.246.172-.957.733-1.568 1.318-.304.294-.587.596-.778.851-.131.175-.201.338-.232.412-.015.034-.021.048-.022.037l.001.03c.013.41.04 1.283.776 2.852.756 1.611 2.268 3.908 5.294 6.934 3.027 3.03 5.324 4.541 6.934 5.296 1.57.738 2.442.765 2.853.777l.03.001c-.01 0 .004-.007.038-.021.073-.032.235-.101.41-.232.255-.192.556-.476.849-.78.585-.61 1.147-1.322 1.318-1.568h.002c.284-.405.09-.7.082-.706-.22-.154-3.806-2.537-4.13-2.736-.036-.022-.345-.045-.69.135-.396.208-2.07 1.167-2.07 1.167l-.236.133-.233-.137s-1.209-.718-3.49-2.997c-2.278-2.278-2.994-3.487-2.994-3.487l-.137-.233.133-.235s.96-1.68 1.167-2.071v-.002c.182-.345.156-.654.138-.682-.111-.177-.75-1.15-1.378-2.1-.627-.948-1.281-1.928-1.356-2.032z" clip-rule="evenodd"/>
</svg>
