<svg width="60" height="60" viewBox="0 0 60 60" fill="none" xmlns="http://www.w3.org/2000/svg">
<path fill-rule="evenodd" clip-rule="evenodd" d="M15.45 14.4648C15.45 10.1295 18.9855 6.58984 23.325 6.58984C27.6603 6.58984 31.1999 10.1254 31.1999 14.4648H29.1C29.1 11.2615 26.5242 8.68984 23.325 8.68984C20.1175 8.68984 17.55 11.2615 17.55 14.4648C17.55 15.3631 17.7427 16.2121 18.1078 16.9586L16.2375 17.8773C15.7371 16.852 15.45 15.683 15.45 14.4648ZM42.8156 11.2167C42.8566 11.2044 42.9018 11.1921 42.9469 11.1839C43.3078 11.1552 43.6605 11.3192 43.8738 11.6146C44.0871 11.9058 44.1322 12.2913 43.9969 12.6276C42.951 15.4495 42.4752 17.1599 42.4219 19.3214C46.9172 21.2409 48.9557 25.0267 49.4766 28.0495C49.5012 28.0618 49.5709 28.0823 49.8375 28.0823H51.5437C53.0572 28.0823 54.3 29.3292 54.3 30.8386V35.9573C54.3 37.4667 53.0531 38.7136 51.5437 38.7136H49.8375C49.5161 38.7136 49.4623 38.7648 49.3831 38.8401L49.3781 38.8448C49.2961 38.9228 49.1977 39.095 49.0828 39.337C47.8441 41.9169 45.8918 44.0538 43.3406 45.4401C43.1953 45.5189 43.1382 45.5551 43.1204 45.5704L43.1109 45.5714L43.1145 45.5766C43.1127 45.5794 43.1141 45.5804 43.1171 45.5804C43.1515 45.6307 43.1823 45.6813 43.2094 45.7355L43.7344 47.1464C44.2963 48.6107 43.558 50.2677 42.0938 50.8214V50.8542L38.7141 52.1011C37.2662 52.6507 35.642 51.9288 35.0719 50.4933C35.068 50.4855 35.0613 50.4814 35.0549 50.4775C35.0479 50.4732 35.0412 50.4691 35.0391 50.4605L35.0371 50.456L35.0371 50.456C35.0042 50.3795 34.6113 49.4686 34.2844 48.4917C34.2823 48.4835 34.2834 48.4794 34.2844 48.4753C34.2854 48.4712 34.2864 48.4671 34.2844 48.4589C34.274 48.4362 34.27 48.4187 34.2664 48.4032C34.2628 48.388 34.2597 48.3747 34.2516 48.3605C34.239 48.3605 34.2257 48.3598 34.2104 48.3591C34.1706 48.3572 34.1165 48.3545 34.0219 48.3605C33.8519 48.3709 33.6303 48.3951 33.3528 48.4254H33.3528H33.3527C32.5386 48.5143 31.2437 48.6558 29.3625 48.6558C27.3109 48.6558 25.9395 48.3566 25.1499 48.1844L25.1496 48.1843L25.1492 48.1842C24.9872 48.1489 24.8497 48.1189 24.7359 48.098C24.6901 48.0892 24.6675 48.0817 24.6502 48.0759C24.635 48.0708 24.6239 48.0671 24.6047 48.0652C24.599 48.0729 24.5931 48.0804 24.587 48.0883C24.5573 48.1263 24.521 48.1726 24.4734 48.2948C24.1043 49.2792 23.6859 50.4605 23.6859 50.4605C23.1281 51.9247 21.4424 52.6589 19.9781 52.1011L16.5984 50.8542V50.8214C15.1383 50.2636 14.4 48.6107 14.9578 47.1464V47.1136C14.9578 47.1136 15.5607 45.6534 15.8766 44.6855C15.9551 44.4465 15.9396 44.4401 15.9218 44.4326C15.9173 44.4307 15.9127 44.4288 15.9094 44.423C15.893 44.3942 15.8273 44.2958 15.6141 44.1276H15.5812C13.2023 42.2245 10.0359 38.7956 9.83906 34.1198C9.76113 32.2782 9.90879 30.5556 10.2656 29.0011C9.81445 28.8575 9.19102 28.6114 8.46094 28.1151C7.27969 27.3112 6 25.8183 6 23.6198C6 21.7823 6.94746 19.9735 8.69063 19.223C8.81367 19.1655 8.94902 19.1327 9.08438 19.1245C9.60527 19.0917 10.0729 19.4444 10.1795 19.9571C10.2861 20.4698 10.0031 20.9784 9.51094 21.1589C8.6291 21.5403 8.1 22.4878 8.1 23.6198C8.1 25.0431 8.81777 25.8142 9.64219 26.3761C10.1344 26.7083 10.565 26.8888 10.8891 26.9995C11.8078 24.555 13.2639 22.5698 15.1219 21.1261C18.76 18.2919 23.3906 16.4339 29.3625 16.4339C31.3805 16.4339 33.2631 16.7292 35.1047 17.123C37.0406 13.5136 40.0881 11.9181 42.75 11.2495C42.7705 11.2372 42.7951 11.2249 42.8156 11.2167ZM43.1171 45.5804L43.1145 45.5766C43.1155 45.5751 43.1174 45.573 43.1204 45.5704C43.1301 45.5695 43.1438 45.5688 43.1438 45.5714C43.1438 45.5729 43.125 45.5803 43.1171 45.5804ZM41.3062 14.1367C40.6705 16.1137 40.2193 17.8896 40.2562 19.9445C40.2603 20.3916 40.5515 20.7895 40.9781 20.9289C45.3709 22.4629 46.991 25.8795 47.4094 28.5086C47.5693 29.5094 48.6357 30.182 49.8375 30.182H51.5437C51.9129 30.182 52.2 30.465 52.2 30.8383V35.957C52.2 36.3262 51.917 36.6133 51.5437 36.6133H49.8375C49.0664 36.6133 48.3691 36.9004 47.9344 37.3023C47.5229 37.6828 47.3282 38.0999 47.2007 38.373L47.1797 38.418C46.1133 40.6369 44.5137 42.3965 42.3562 43.5695C41.5154 44.0248 41.0642 44.8697 41.0437 45.5055C41.0285 46.0127 41.187 46.3 41.2587 46.4302L41.2734 46.457H41.2406L41.3062 46.6211L41.7656 47.9008C41.9174 48.2945 41.741 48.7334 41.339 48.8852L37.9594 50.1648C37.5574 50.3166 37.1226 50.1033 36.975 49.7055V49.6727C36.975 49.6727 36.5648 48.7334 36.2531 47.8023C36.0972 47.3471 35.8758 46.8385 35.3672 46.5227C34.8586 46.2068 34.3582 46.2314 33.8906 46.2602C33.6264 46.2775 33.3405 46.3087 33.0125 46.3444H33.0124C32.1796 46.4351 31.075 46.5555 29.3625 46.5555C27.5614 46.5555 26.4898 46.3246 25.6713 46.1482C25.4664 46.104 25.2775 46.0633 25.0969 46.0305C24.6457 45.9484 24.092 45.8746 23.5219 46.1945C22.9517 46.5145 22.7385 47.0353 22.5375 47.5727C22.1765 48.5406 21.7172 49.7055 21.7172 49.7055C21.5654 50.1033 21.1306 50.3166 20.7328 50.1648L17.3531 48.8852C16.9553 48.7334 16.7748 48.2986 16.9265 47.9008C16.9286 47.8952 16.9391 47.8688 16.9568 47.8247L16.9569 47.8245L16.9569 47.8244C17.082 47.5115 17.5619 46.3116 17.8781 45.3414C18.1201 44.5949 18.0176 43.8402 17.714 43.3398C17.4438 42.8943 17.0922 42.6341 16.9402 42.5216C16.9215 42.5078 16.9059 42.4962 16.8937 42.4867C14.7691 40.7887 12.0949 37.7699 11.939 34.0211C11.7176 28.7014 13.5427 24.9936 16.4015 22.7664C19.7156 20.1865 23.8172 18.5336 29.3625 18.5336C31.4789 18.5336 33.4804 18.792 35.3672 19.2555C35.8635 19.3785 36.372 19.1283 36.5812 18.6648C37.7584 16.0686 39.5015 14.9201 41.3062 14.1367ZM40.1907 30.149C40.1907 29.0416 41.0807 28.1475 42.1922 28.1475C43.2997 28.1475 44.1938 29.0416 44.1938 30.149C44.1938 31.2564 43.2997 32.1834 42.1922 32.1834C41.0807 32.1834 40.1907 31.2605 40.1907 30.149Z" fill="black"/>
</svg>
