<?xml version="1.0" encoding="utf-8"?>
<!-- Generator: Adobe Illustrator 25.2.0, SVG Export Plug-In . SVG Version: 6.00 Build 0)  -->
<svg version="1.1" id="Layer_1" xmlns="http://www.w3.org/2000/svg" xmlns:xlink="http://www.w3.org/1999/xlink" x="0px" y="0px"
	 viewBox="0 0 25 25" style="enable-background:new 0 0 25 25;" xml:space="preserve">
<style type="text/css">
	.st0{fill-rule:evenodd;clip-rule:evenodd;fill:#D92E76;}
</style>
<path class="st0" d="M12.5,1.7c-6,0-10.8,4.9-10.8,10.8s4.8,10.8,10.8,10.8h0c6,0,10.8-4.9,10.8-10.8S18.5,1.7,12.5,1.7z M17.9,13
	H13v4.9c0,0.3-0.2,0.5-0.5,0.5c-0.3,0-0.5-0.2-0.5-0.5V13H7.1c-0.3,0-0.5-0.2-0.5-0.5c0-0.3,0.2-0.5,0.5-0.5H12V7.1
	c0-0.3,0.2-0.5,0.5-0.5c0.3,0,0.5,0.2,0.5,0.5V12h4.9c0.3,0,0.5,0.2,0.5,0.5C18.4,12.8,18.2,13,17.9,13z"/>
</svg>
