<svg xmlns="http://www.w3.org/2000/svg" width="31" height="30" fill="none" viewBox="0 0 31 30">
    <path fill="#000" d="M11.5 2.25c-5.376 0-9.75 4.374-9.75 9.75s4.374 9.75 9.75 9.75 9.75-4.374 9.75-9.75h-1.5c0 4.564-3.686 8.25-8.25 8.25S3.25 16.564 3.25 12s3.686-8.25 8.25-8.25c2.906 0 5.446 1.488 6.914 3.75H14.5V9h6V3H19v2.79c-1.787-2.157-4.485-3.54-7.5-3.54z"/>
    <path fill="#fff" fill-rule="evenodd" d="M23.8 12.75c-1.27 0-2.421.17-3.304.47-.44.151-.819.333-1.115.571-.26.211-.462.494-.512.82-.013.045-.019.092-.019.139v3.107c-.518-.068-1.068-.107-1.65-.107-1.27 0-2.421.17-3.304.47-.44.151-.819.333-1.115.571-.26.211-.462.494-.512.82-.013.045-.019.092-.019.139v6c0 .387.234.719.53.959.297.238.675.42 1.116.57.883.301 2.034.471 3.304.471s2.421-.17 3.304-.47c.44-.151.819-.333 1.115-.571.297-.24.531-.572.531-.959v-1.105c.516.068 1.07.105 1.65.105 1.27 0 2.421-.17 3.304-.47.44-.151.819-.333 1.115-.571.297-.24.531-.572.531-.959v-8c0-.047-.006-.096-.02-.14-.049-.327-.25-.608-.51-.819-.297-.238-.675-.42-1.116-.57-.883-.301-2.034-.471-3.304-.471z" clip-rule="evenodd"/>
    <path fill="#000" fill-rule="evenodd" d="M23.575 12.075c-1.212 0-2.311.179-3.154.494-.42.158-.782.349-1.065.6-.248.22-.44.518-.488.86-.012.048-.018.097-.018.146v3.263c-.494-.072-1.02-.113-1.575-.113-1.212 0-2.311.178-3.154.494-.42.158-.782.349-1.065.6-.248.22-.44.518-.488.86-.012.048-.018.097-.018.146v6.3c0 .406.223.755.506 1.007.283.25.644.441 1.065.599.843.316 1.942.494 3.154.494s2.311-.178 3.154-.494c.42-.158.781-.349 1.064-.599.283-.252.507-.6.507-1.007v-1.16c.492.071 1.021.11 1.575.11 1.212 0 2.311-.178 3.154-.494.42-.158.781-.349 1.064-.599.283-.252.507-.6.507-1.007v-8.4c0-.05-.006-.1-.019-.148-.047-.342-.24-.637-.488-.859-.283-.25-.644-.44-1.064-.599-.843-.316-1.942-.494-3.154-.494zm0 1.05c1.107 0 2.108.174 2.787.427.338.127.593.276.734.402.142.127.154.192.154.221 0 .029-.012.094-.154.221-.142.126-.396.275-.734.402-.679.253-1.68.427-2.787.427-1.108 0-2.108-.174-2.787-.427-.338-.127-.593-.276-.734-.402-.142-.127-.154-.192-.154-.221 0-.029.012-.094.154-.222.141-.125.396-.274.734-.401.679-.253 1.68-.427 2.787-.427zm-3.154 2.656c-.189-.07-.36-.15-.521-.236v.73c0 .029.012.094.154.222.141.125.398.274.736.401.679.253 1.677.427 2.785.427 1.107 0 2.106-.174 2.785-.427.338-.127.595-.276.736-.401.142-.128.154-.193.154-.222v-.73c-.162.086-.332.166-.521.236-.843.316-1.942.494-3.154.494s-2.311-.178-3.154-.494zm-.521 1.864c.011.006.024.011.037.016.013.005.025.01.037.017-.025-.008-.05-.017-.074-.023v-.01zm7.35.73v-.73c-.162.086-.332.166-.521.236-.843.316-1.942.494-3.154.494-1.01 0-1.93-.13-2.699-.353.23.115.443.242.617.396.248.222.441.517.488.86 0 .008.002.016.004.024.484.078 1.022.123 1.59.123 1.107 0 2.106-.174 2.785-.427.338-.127.595-.276.736-.402.142-.127.154-.192.154-.22zm-9.975 0c1.107 0 2.108.174 2.787.427.338.127.592.276.734.401.142.128.154.193.154.222 0 .029-.012.094-.154.221-.142.126-.396.275-.734.402-.679.253-1.68.427-2.787.427-1.108 0-2.108-.174-2.787-.427-.339-.127-.593-.276-.734-.401-.142-.128-.154-.193-.154-.222 0-.029.012-.094.154-.222.141-.125.395-.274.734-.401.679-.253 1.68-.427 2.787-.427zm9.975 2.1v-.73c-.162.086-.332.166-.521.236-.843.316-1.942.494-3.154.494-.554 0-1.083-.039-1.575-.11v1.037c.48.078 1.013.123 1.575.123 1.107 0 2.106-.174 2.785-.426.338-.128.595-.277.736-.402.142-.128.154-.193.154-.222zm-13.65.32c.162.086.332.166.52.236.844.316 1.943.494 3.155.494 1.212 0 2.311-.178 3.154-.494.189-.07.359-.15.52-.236v.73c0 .029-.012.094-.153.222-.142.125-.398.274-.736.401-.679.253-1.678.427-2.785.427-1.108 0-2.106-.174-2.785-.427-.338-.127-.595-.276-.736-.401-.142-.128-.154-.193-.154-.222v-.73zm13.65 1.78v-.73c-.162.086-.332.166-.521.236-.843.316-1.942.494-3.154.494-.554 0-1.083-.039-1.575-.11v1.037c.48.078 1.013.123 1.575.123 1.107 0 2.106-.174 2.785-.426.338-.128.595-.277.736-.402.142-.128.154-.193.154-.222zm-13.65.32c.162.086.332.166.52.236.844.316 1.943.494 3.155.494 1.212 0 2.311-.178 3.154-.494.189-.07.359-.15.52-.236v.73c0 .029-.012.094-.153.221-.142.126-.398.275-.736.402-.679.253-1.678.427-2.785.427-1.108 0-2.106-.174-2.785-.427-.338-.127-.595-.276-.736-.402-.142-.127-.154-.192-.154-.22v-.731zm.52 2.336c-.188-.07-.358-.15-.52-.236v.73c0 .029.012.094.154.222.141.125.398.274.736.402.679.252 1.677.426 2.785.426 1.107 0 2.106-.174 2.785-.426.338-.128.595-.277.736-.402.142-.128.154-.193.154-.222v-.73c-.162.086-.332.166-.521.236-.843.316-1.942.494-3.154.494s-2.311-.178-3.154-.494z" clip-rule="evenodd"/>
</svg>
