<svg width="40" height="40" viewBox="0 0 40 40" fill="none" xmlns="http://www.w3.org/2000/svg">
<path d="M5.99999 8C4.16666 8 2.66666 9.5 2.66666 11.3333V26C2.66666 27.8333 4.16666 29.3333 5.99999 29.3333H30C31.8333 29.3333 33.3333 27.8333 33.3333 26V11.3333C33.3333 9.5 31.8333 8 30 8H5.99999ZM5.99999 9.33333H30C31.112 9.33333 32 10.2214 32 11.3333V12.6667H3.99999V11.3333C3.99999 10.2214 4.88801 9.33333 5.99999 9.33333ZM3.99999 16H32V26C32 27.112 31.112 28 30 28H5.99999C4.88801 28 3.99999 27.112 3.99999 26V16ZM7.33332 18V19.3333H18V18H7.33332Z" fill="black"/>
<path fill-rule="evenodd" clip-rule="evenodd" d="M37.3759 18.117C36.9073 17.8397 35.7645 17.2579 34.2327 17.3414C32.1002 17.4584 30.6761 18.7807 30.3822 19.0888C30.1572 18.853 29.2693 18.0232 27.9087 17.5944C27.9398 17.6187 27.9704 17.6432 28.0015 17.6677C28.0437 17.7008 28.0851 17.7346 28.125 17.7709C28.2892 17.9098 28.4378 18.0655 28.5808 18.2258C28.6493 18.3083 28.7199 18.3895 28.7825 18.4763C28.8146 18.52 28.8476 18.5604 28.8782 18.6071C28.9092 18.653 28.9407 18.6986 28.9709 18.7452C29.2085 19.1198 29.3805 19.5366 29.4758 19.9695C29.5712 20.4025 29.5877 20.8515 29.5288 21.291C29.4694 21.7304 29.3344 22.1614 29.1237 22.5571C28.9142 22.953 28.631 23.3135 28.2922 23.6129L28.1627 23.7225L28.0281 23.8251C27.9827 23.8593 27.9322 23.8923 27.8843 23.9252C27.8347 23.9568 27.7844 23.9877 27.7339 24.0177C27.5291 24.1349 27.3102 24.2291 27.0834 24.2971C26.6299 24.4351 26.1452 24.4591 25.6869 24.381C25.2285 24.3005 24.7945 24.1183 24.4315 23.8545C24.2496 23.7235 24.0843 23.5735 23.9392 23.4103C23.8664 23.3288 23.7994 23.2436 23.7364 23.1561C23.7046 23.1128 23.6756 23.0631 23.6457 23.0168C23.6171 22.9692 23.5849 22.924 23.5618 22.8734C23.5372 22.8239 23.5127 22.7746 23.4883 22.725C23.4755 22.7007 23.4654 22.6753 23.4558 22.6496L23.4266 22.5728L23.398 22.496L23.3841 22.4577L23.3732 22.4184C23.3592 22.3659 23.3451 22.3138 23.3313 22.2615L23.3211 22.2222L23.3142 22.1825L23.3008 22.1031L23.288 22.0237L23.282 21.984L23.2788 21.9442C23.2751 21.891 23.2717 21.8381 23.2679 21.7851L23.2656 21.7456L23.2665 21.7057L23.2683 21.6265L23.2708 21.5475L23.2722 21.5083L23.2767 21.4689C23.2831 21.4168 23.2895 21.3651 23.2959 21.3131L23.3008 21.2743L23.3089 21.2358L23.3256 21.1595L23.3425 21.0834C23.3478 21.0579 23.3539 21.0329 23.3626 21.0082C23.3942 20.9093 23.423 20.8101 23.4671 20.7164C23.4883 20.6691 23.5063 20.6211 23.5306 20.5756C23.5555 20.5305 23.5801 20.4855 23.6048 20.4406C23.6283 20.3949 23.6576 20.3528 23.6868 20.3105C23.7158 20.2684 23.7443 20.2261 23.7741 20.1849C23.807 20.1457 23.8398 20.1067 23.8725 20.0677L23.9218 20.0097C23.9387 19.9909 23.9577 19.9737 23.9757 19.9559C24.0121 19.9205 24.0484 19.8853 24.0847 19.8503C24.1206 19.8151 24.1626 19.7861 24.2014 19.7542C24.2416 19.7234 24.2782 19.6912 24.3216 19.6625C24.3657 19.6344 24.4096 19.6063 24.4534 19.5783C24.6345 19.4746 24.8289 19.3952 25.0297 19.3497C25.2308 19.3062 25.4348 19.2929 25.6339 19.3071C25.8327 19.3248 26.0244 19.3719 26.2035 19.4401C26.3818 19.5117 26.5443 19.6078 26.6905 19.7184C26.7257 19.7474 26.7597 19.7775 26.7939 19.8071L26.8444 19.852L26.8906 19.9007C26.921 19.9333 26.9515 19.9652 26.9806 19.9982C27.0075 20.0329 27.0338 20.0674 27.0603 20.1017L27.0993 20.1535L27.1348 20.2103L27.1697 20.267C27.1814 20.2858 27.1923 20.305 27.2015 20.325C27.2204 20.3647 27.2396 20.4039 27.2583 20.4432C27.2732 20.4839 27.2881 20.5243 27.3031 20.5649C27.3561 20.7279 27.3826 20.8943 27.3856 21.0572C27.3854 21.2204 27.3618 21.3789 27.3189 21.5286C27.2752 21.6784 27.2074 21.8172 27.1277 21.9437C27.0457 22.0696 26.9463 22.1796 26.839 22.275C26.8118 22.2985 26.7827 22.3195 26.7547 22.3412C26.7268 22.3628 26.6991 22.3842 26.6669 22.403C26.6354 22.4218 26.6057 22.4427 26.573 22.4584C26.5404 22.4743 26.508 22.49 26.4759 22.5055C26.3433 22.5609 26.2055 22.5928 26.071 22.6029C25.9362 22.6144 25.805 22.6001 25.6835 22.5706C25.6223 22.5575 25.565 22.535 25.5086 22.515C25.4542 22.4895 25.3998 22.467 25.3516 22.4358C25.2516 22.3792 25.1679 22.3073 25.0948 22.2339C25.0608 22.1947 25.0247 22.1588 24.9975 22.1178C24.9832 22.0979 24.9692 22.0781 24.9553 22.0586C24.942 22.0384 24.9301 22.0165 24.9181 21.9958L24.9004 21.9645L24.8856 21.9323C24.8762 21.9109 24.8666 21.89 24.858 21.8686C24.8442 21.8253 24.828 21.7839 24.8203 21.7414C24.7992 21.6581 24.7958 21.5763 24.796 21.5009C24.8013 21.3487 24.842 21.2192 24.8931 21.1176C24.9181 21.0662 24.9484 21.0229 24.9759 20.9842C25.0071 20.9474 25.0339 20.9143 25.0638 20.8893C25.078 20.8764 25.091 20.8641 25.1044 20.8537C25.1182 20.8441 25.131 20.8351 25.143 20.8268C25.1552 20.8187 25.1663 20.8116 25.1768 20.8054C25.1876 20.8001 25.1979 20.7954 25.2072 20.7916C25.2438 20.7764 25.2653 20.774 25.2728 20.7832C25.2893 20.8037 25.239 20.8613 25.1766 20.9744C25.1599 21.0016 25.1469 21.0355 25.1303 21.0703C25.1173 21.1069 25.1024 21.1457 25.0924 21.1897C25.0716 21.2765 25.0615 21.379 25.0773 21.4891C25.0878 21.5438 25.0988 21.6008 25.1234 21.6562C25.1328 21.6846 25.1497 21.711 25.1625 21.739C25.1709 21.7525 25.1794 21.7657 25.1878 21.779L25.2006 21.7992L25.2157 21.8182C25.226 21.831 25.2349 21.8441 25.2463 21.8567C25.258 21.8691 25.2701 21.8819 25.2824 21.8947C25.3048 21.9216 25.3343 21.9425 25.3607 21.9668C25.4179 22.0106 25.4795 22.0527 25.5501 22.0815C25.5839 22.099 25.6219 22.1083 25.6582 22.1216C25.6966 22.1297 25.7342 22.1412 25.774 22.1445C25.8528 22.1549 25.9352 22.1557 26.0163 22.1399C26.0974 22.125 26.1772 22.0979 26.2525 22.0579C26.2706 22.0469 26.2889 22.0356 26.3072 22.0244C26.3259 22.0136 26.3419 21.9984 26.3597 21.9859C26.3773 21.9744 26.3944 21.9578 26.4115 21.9416C26.4284 21.9254 26.4467 21.9105 26.4629 21.8934C26.5271 21.8242 26.5852 21.7476 26.6313 21.662C26.6749 21.5752 26.7117 21.4829 26.7314 21.3844C26.7506 21.2858 26.7574 21.1837 26.7499 21.0808C26.7391 20.9783 26.7142 20.8767 26.6749 20.7799L26.6425 20.7081C26.6292 20.6853 26.616 20.6624 26.6025 20.6394C26.5964 20.6277 26.5892 20.6166 26.5808 20.6061L26.5573 20.5738L26.5342 20.5411L26.5056 20.5091C26.4867 20.4876 26.4678 20.466 26.449 20.4443C26.428 20.4246 26.4068 20.4051 26.3857 20.3856L26.3544 20.3557L26.3197 20.3298C26.2967 20.3122 26.2738 20.2948 26.2507 20.2772C26.153 20.2146 26.0485 20.1609 25.9362 20.1235C25.8235 20.0895 25.7057 20.0679 25.5862 20.0637C25.4665 20.0634 25.3466 20.0786 25.2303 20.1102C25.1143 20.144 25.0046 20.1975 24.9016 20.2634C24.8769 20.2815 24.852 20.2996 24.8267 20.3172C24.8016 20.3354 24.7776 20.3604 24.7526 20.3813C24.7285 20.4039 24.7013 20.4232 24.6795 20.448L24.612 20.521C24.6012 20.5333 24.5887 20.5447 24.5786 20.5576L24.5489 20.5977L24.4886 20.6769L24.4365 20.7623C24.4189 20.7906 24.4006 20.8187 24.3876 20.8496C24.138 21.3242 24.1437 21.9433 24.4312 22.4172C24.4457 22.4484 24.4689 22.4752 24.4879 22.504C24.5087 22.5325 24.5252 22.5613 24.5485 22.5899C24.5943 22.6477 24.6425 22.7038 24.6939 22.7566C24.7965 22.8624 24.9107 22.9571 25.0338 23.0384C25.2796 23.2023 25.5654 23.3073 25.8599 23.3482C26.1545 23.3861 26.4584 23.3601 26.7384 23.2634C26.8784 23.2156 27.013 23.1521 27.1393 23.0741L27.2323 23.0125C27.262 22.9896 27.2919 22.9696 27.3223 22.9451L27.4137 22.8702L27.501 22.7911C27.7289 22.5754 27.9162 22.3204 28.0533 22.0408C28.1913 21.7614 28.2762 21.4574 28.3084 21.15C28.3402 20.8427 28.3201 20.5316 28.2465 20.2363C28.1725 19.9409 28.0481 19.6613 27.8815 19.4116L27.8164 19.3198C27.7958 19.2891 27.7686 19.2584 27.7451 19.2275C27.6983 19.1647 27.6449 19.1074 27.5942 19.0484C27.4874 18.935 27.3787 18.8244 27.2586 18.7279C27.2298 18.7024 27.1994 18.6789 27.1686 18.656C27.1379 18.633 27.1083 18.6087 27.0768 18.5868C27.0137 18.5438 26.952 18.4989 26.8864 18.4605C26.8229 18.4189 26.7551 18.3844 26.6895 18.3471C26.6558 18.3296 26.6215 18.3138 26.5877 18.2969L26.5372 18.272L26.4853 18.2498C26.2107 18.1276 25.9218 18.0489 25.6333 18.0061C25.4887 17.9873 25.3443 17.975 25.2009 17.9743C25.0578 17.975 24.9155 17.9802 24.7764 17.9999C24.2177 18.0686 23.7082 18.285 23.293 18.5857C23.2406 18.6208 23.1886 18.6644 23.1369 18.7048C23.1112 18.7255 23.0847 18.7452 23.0598 18.7662C23.0351 18.7878 23.0108 18.8092 22.9862 18.8308C22.962 18.852 22.9375 18.8732 22.9133 18.8945C22.8891 18.9157 22.867 18.939 22.8439 18.9609C22.7986 19.0059 22.7507 19.048 22.7093 19.095C22.6671 19.1416 22.6225 19.1854 22.5826 19.2325C22.5426 19.2798 22.5031 19.3266 22.4638 19.373C22.4268 19.4211 22.3904 19.4689 22.3541 19.5165C22.3176 19.5638 22.286 19.6139 22.252 19.6615C22.1209 19.8562 22.006 20.0596 21.9075 20.2691C21.81 20.4793 21.7312 20.696 21.6675 20.9154C21.6531 20.9706 21.6348 21.0248 21.6231 21.0805C21.6103 21.1359 21.5976 21.1915 21.5848 21.2465C21.5747 21.3024 21.5646 21.358 21.5546 21.4137C21.5432 21.4691 21.5388 21.5254 21.5304 21.5809C21.503 21.8042 21.4879 22.0277 21.4943 22.2493C21.5108 23.1366 21.7979 23.9791 22.265 24.6591C22.2918 24.7026 22.3256 24.7449 22.356 24.7875C22.3874 24.8301 22.4185 24.8728 22.4494 24.915C22.5142 24.9974 22.5809 25.0778 22.6461 25.1584C22.7164 25.2346 22.7831 25.3133 22.8541 25.3872C22.89 25.4236 22.9261 25.46 22.962 25.4961C22.9976 25.5325 23.033 25.5689 23.0711 25.602C23.3661 25.8792 23.6831 26.1178 24.0107 26.3171C24.6666 26.717 25.363 26.9567 26.0191 27.0711C26.3478 27.1287 26.6667 27.156 26.9703 27.1617C27.2739 27.1648 27.561 27.1441 27.8296 27.112C28.3655 27.0407 28.8229 26.9166 29.1904 26.7894C29.5591 26.6624 29.8373 26.5334 30.0381 26.4588C30.2334 26.3761 30.3525 26.348 30.382 26.3853C30.4116 26.4222 30.3493 26.5232 30.1976 26.684C30.0404 26.8365 29.7917 27.0493 29.4264 27.265C29.0621 27.4807 28.5807 27.6983 27.9843 27.8552C27.6858 27.9299 27.3596 27.991 27.0085 28.0234C26.6573 28.0533 26.282 28.0566 25.8894 28.0217C25.1056 27.9529 24.2499 27.7266 23.4271 27.2887C22.6616 26.8823 21.9274 26.2937 21.3333 25.5375C21.8657 26.9746 22.6851 28.001 23.2621 28.7094C24.9436 30.7733 26.8396 31.7876 27.7088 32.2414C28.7505 32.7854 30.0443 33.3332 30.3822 33.3332C30.7428 33.3332 32.0137 32.7854 33.0558 32.2414C33.9245 31.7876 35.8207 30.7733 37.5026 28.7094C38.2409 27.8027 39.3761 26.3756 39.7986 24.2331C39.978 23.3218 40.1843 22.2015 39.7013 20.8871C39.0668 19.1605 37.6955 18.306 37.3759 18.117Z" fill="#D92E76"/>
</svg>
