<svg width="51" height="29" viewBox="0 0 51 29" fill="none" xmlns="http://www.w3.org/2000/svg">
    <path d="M34.357 22.09s2.212 1.775 3.754 1.655c1.314-.103 1.815-1.553 3.129-1.655 1.542-.12 3.754 1.655 3.754 1.655" stroke="#000" stroke-width="1.625"/>
    <rect x="18.313" y="9.563" width="30.875" height="17.875" rx="2.438" stroke="#000" stroke-width="1.625"/>
    <path stroke="#000" stroke-width="1.625" d="M35.375 12.813h9.75M20.75 16.063h24.374"/>
    <path stroke="#000" stroke-width="1.354" stroke-linecap="round" d="M14.427 11.927H2.24M14.114 16.197H5.989M14.114 20.26h-4.062"/>
    <circle cx="11.25" cy="11.25" r="11.25" fill="#20C298"/>
    <path d="M11.25 3.964c-3.696 0-6.752 2.765-7.217 6.338a.607.607 0 1 0 1.204.157 6.061 6.061 0 0 1 6.013-5.28c1.68 0 3.188.685 4.285 1.785l-1.25 1.25 3.643.607-.607-3.642-.928.928a7.253 7.253 0 0 0-5.143-2.143zm6.625 7.54a.608.608 0 0 0-.612.537 6.06 6.06 0 0 1-6.013 5.28 6.03 6.03 0 0 1-4.575-2.103l.932-.932-3.643-.607.607 3.642 1.244-1.244a7.256 7.256 0 0 0 5.435 2.459c3.695 0 6.751-2.765 7.217-6.339a.608.608 0 0 0-.592-.693z" fill="#fff"/>
    <circle cx="11.25" cy="11.25" r="11.25" fill="#0A97B0"/>
    <path d="m16.928 5.83-.03.01a.332.332 0 0 0-.205.154L9.986 16.392l-4.614-4.164a.33.33 0 0 0-.582.155c-.019.13.04.258.152.327l4.89 4.43a.326.326 0 0 0 .493-.072l6.921-10.725a.328.328 0 0 0-.318-.513z" fill="#fff" stroke="#fff" stroke-width="1.25"/>
</svg>
