<svg width="40" height="40" viewBox="0 0 40 40" fill="none" xmlns="http://www.w3.org/2000/svg">
<path d="M35.5 20H37C37.5523 20 38 20.4477 38 21V37C38 37.5523 37.5523 38 37 38H4C3.44772 38 3 37.5523 3 37V21C3 20.4477 3.44772 20 4 20H23.5" stroke="black"/>
<path d="M12.0244 35.0093C12.2275 35.0093 12.3799 34.8696 12.3799 34.6475V33.8477C13.9985 33.7334 15.2681 32.8574 15.2681 31.2959C15.2681 29.9438 14.354 29.2583 12.6846 28.8711L12.3799 28.7949V26.1479C13.0845 26.2368 13.5415 26.6177 13.8081 27.2778C13.9414 27.5825 14.1509 27.7666 14.481 27.7666C14.8491 27.7666 15.103 27.5317 15.103 27.189C15.103 27.0747 15.0903 26.9731 15.0586 26.8652C14.7603 25.8179 13.7319 25.1006 12.3799 24.9927V24.1865C12.3799 23.9644 12.2275 23.8247 12.0244 23.8247C11.8149 23.8247 11.6626 23.9644 11.6626 24.1865V24.9927C10.063 25.1133 8.92041 26.0464 8.92041 27.4746C8.92041 28.7632 9.79004 29.4868 11.4023 29.8613L11.6626 29.9248V32.6924C10.7549 32.5972 10.3042 32.1528 10.0947 31.5562C9.96143 31.2197 9.73926 31.061 9.43457 31.061C9.04736 31.061 8.7998 31.3086 8.7998 31.6704C8.7998 31.772 8.81885 31.8862 8.85059 31.9941C9.15527 33.0542 10.2598 33.7461 11.6626 33.8477V34.6475C11.6626 34.8696 11.8149 35.0093 12.0244 35.0093ZM10.2661 27.3667C10.2661 26.7827 10.7485 26.2559 11.6626 26.1479V28.6299C10.647 28.3696 10.2661 27.9443 10.2661 27.3667ZM13.9224 31.4229C13.9224 32.1021 13.4653 32.6162 12.3799 32.6987V30.0962C13.5605 30.3755 13.9224 30.7627 13.9224 31.4229Z" fill="black"/>
<path d="M25.0755 4.38849L25.066 4.38074L25.056 4.37365C22.905 2.85275 21.0435 2.07082 19.6224 1.77848C18.9129 1.63251 18.3017 1.60628 17.8143 1.6794C17.3388 1.75071 16.924 1.92635 16.6909 2.24173C16.4436 2.57625 16.4685 2.96751 16.5699 3.29028C16.6702 3.60966 16.8624 3.92401 17.0573 4.19024C16.884 4.138 16.6739 4.1102 16.4584 4.1702C16.1838 4.24663 15.9669 4.4464 15.8247 4.75158C15.5609 5.31774 15.5844 5.87592 15.8651 6.45852C16.1331 7.01444 16.6366 7.5972 17.3295 8.26331C17.2177 8.2505 17.1016 8.24366 16.9804 8.24366C16.7767 8.24366 16.5514 8.28223 16.3846 8.43451C16.1983 8.60457 16.1704 8.83324 16.1972 9.01716C16.2228 9.19338 16.3017 9.37241 16.3947 9.53738C16.4904 9.70724 16.6155 9.88712 16.7572 10.0692C17.3196 10.7924 18.2218 11.6508 18.9117 12.2378C18.9349 12.2576 18.9585 12.2773 18.9825 12.2971C18.7095 12.2993 18.4487 12.3639 18.2187 12.524C17.9982 12.6774 17.8795 12.9001 17.8831 13.1555C17.8863 13.3818 17.9852 13.5933 18.0972 13.7673C18.3236 14.1189 18.7095 14.4765 19.0766 14.7702C19.3057 14.9535 19.8667 15.3154 20.5336 15.729C20.5295 15.729 20.5254 15.729 20.5213 15.729C20.3362 15.729 20.082 15.7756 19.9411 16.0063C19.8103 16.2204 19.8651 16.4574 19.9186 16.6043C20.0326 16.9172 20.3181 17.2983 20.6504 17.6741C21.3333 18.4464 22.3704 19.3669 23.2302 19.9933C24.1134 20.6367 25.7402 21.4441 27.5721 21.9028C29.4006 22.3607 31.4939 22.4862 33.2749 21.6907C34.1323 21.3078 34.9767 20.7565 35.5046 19.9303C36.0423 19.0887 36.2214 18.0095 35.8321 16.6451C35.4466 15.2945 34.5037 13.6573 32.7957 11.6532C31.0849 9.64598 28.5905 7.25198 25.0755 4.38849Z" fill="white" stroke="black" stroke-width="0.72"/>
<path d="M23 32.5666C24.2353 31.5121 28.1863 34.2306 29 33.1033C29.8255 31.9596 25.3987 29.9132 25.2998 31.709C25.1943 33.6238 29.7956 35.1249 31.4123 32.7714C31.532 32.5971 29.536 32.7658 29.98 33.6148C30.424 34.4637 31.8298 33.2413 32.6982 33.3519C33.5666 33.4625 32.6982 33.9776 32.6982 33.9776C33.3148 34.0561 34.4252 33.9123 35 33.7885" stroke="black" stroke-width="0.5" stroke-linecap="round"/>
<rect x="23.25" y="35.25" width="12.5" height="0.5" stroke="black" stroke-width="0.5"/>
<rect x="4" y="5" width="9" height="1" rx="0.5" fill="black"/>
<rect x="7" y="7" width="6" height="1" rx="0.5" fill="black"/>
<rect x="10" y="9" width="3" height="1" rx="0.5" fill="black"/>
</svg>
