<svg width="151" height="95" viewBox="0 0 151 95" fill="none" xmlns="http://www.w3.org/2000/svg">
<circle cx="120.438" cy="30" r="30" fill="#0A97B0"/>
<path d="M135.578 15.5468C135.551 15.5537 135.523 15.5639 135.496 15.5742C135.267 15.6323 135.069 15.7792 134.949 15.9843L117.066 43.7109L104.762 32.6093C104.546 32.3359 104.187 32.2163 103.849 32.3051C103.511 32.394 103.261 32.6777 103.21 33.0229C103.159 33.3681 103.316 33.7099 103.613 33.8945L116.656 45.707C116.847 45.8745 117.104 45.9496 117.357 45.9121C117.61 45.8745 117.832 45.7309 117.969 45.5156L136.426 16.914C136.627 16.6269 136.638 16.2475 136.453 15.9501C136.268 15.6528 135.923 15.4955 135.578 15.5468Z" fill="white" stroke="white"/>
<path d="M81.29 77.8362C81.29 77.8362 86.7334 82.2056 90.5307 81.9101C93.7641 81.6586 94.998 78.0878 98.2313 77.8362C102.029 77.5408 107.472 81.9101 107.472 81.9101" stroke="#0A97B0" stroke-width="4"/>
<rect x="41.793" y="47" width="76" height="44" rx="6" stroke="#0A97B0" stroke-width="4"/>
<line x1="83.793" y1="55.0012" x2="107.793" y2="55.0012" stroke="#0A97B0" stroke-width="4"/>
<line x1="47.792" y1="63" x2="107.792" y2="63" stroke="#0A97B0" stroke-width="4"/>
<line x1="32.2279" y1="52.8205" x2="2.22786" y2="52.8205" stroke="#0A97B0" stroke-width="3.33333" stroke-linecap="round"/>
<line x1="31.4593" y1="63.3313" x2="11.4593" y2="63.3313" stroke="#0A97B0" stroke-width="3.33333" stroke-linecap="round"/>
<line x1="31.4593" y1="73.3313" x2="21.4593" y2="73.3313" stroke="#0A97B0" stroke-width="3.33333" stroke-linecap="round"/>
</svg>
