<svg xmlns="http://www.w3.org/2000/svg" width="18" height="18" fill="none" viewBox="0 0 18 18">
    <path stroke="#000" stroke-linejoin="round" stroke-miterlimit="10" stroke-width="1.2" d="M13.98 15.475l1.495-1.495-.814-1.954.482-1.162 1.957-.807V7.943l-1.957-.806-.482-1.163.814-1.954-1.495-1.495-1.954.814-1.162-.482L10.056.9H7.943l-.806 1.957-1.163.482-1.954-.814L2.525 4.02l.814 1.954-.482 1.163L.9 7.943v2.114l1.957.806.482 1.163-.814 1.954 1.495 1.495 1.954-.814 1.163.482.806 1.957h2.114l.806-1.957 1.163-.482 1.954.814z"/>
    <path stroke="#000" stroke-linejoin="round" stroke-miterlimit="10" stroke-width="1.2" d="M9 12.282c1.813 0 3.283-1.47 3.283-3.282 0-1.813-1.47-3.283-3.283-3.283S5.718 7.187 5.718 9 7.188 12.282 9 12.282z"/>
</svg>
