<svg xmlns="http://www.w3.org/2000/svg" width="25" height="25" fill="none" viewBox="0 0 25 25">
    <path fill="#000" fill-rule="evenodd" d="M12.534.833c-.024.001-.049.004-.073.008C6.5.88 1.667 5.729 1.667 11.7c0 5.997 4.87 10.867 10.867 10.867 5.997 0 10.868-4.87 10.868-10.867C23.402 5.73 18.57.882 12.609.841c-.025-.005-.05-.007-.075-.008zm0 .945c5.486 0 9.923 4.437 9.923 9.923s-4.437 9.922-9.923 9.922-9.922-4.436-9.922-9.922c0-5.486 4.436-9.923 9.922-9.923zM7.337 9.811c0-.783.634-1.418 1.417-1.418s1.418.635 1.418 1.418c0 .783-.635 1.418-1.418 1.418-.783 0-1.417-.635-1.417-1.418zm8.977-1.418c-.783 0-1.417.635-1.417 1.418 0 .783.634 1.418 1.417 1.418s1.418-.635 1.418-1.418c0-.783-.635-1.418-1.418-1.418zM5.962 13.852c.076-.158.234-.26.41-.267.16-.005.313.071.405.204 0 0 2.253 3.11 5.757 3.11 3.505 0 5.758-3.11 5.758-3.11.152-.213.447-.262.66-.11.212.152.261.447.11.66 0 0-2.472 3.504-6.528 3.504-4.055 0-6.527-3.505-6.527-3.505-.104-.14-.122-.328-.045-.486z" clip-rule="evenodd"/>
</svg>
