<svg xmlns="http://www.w3.org/2000/svg" width="47" height="48" fill="none" viewBox="0 0 47 48">
    <circle cx="23.5" cy="24.182" r="22.954" stroke="#D92E76" stroke-width="1.092"/>
    <path stroke="#D92E76" stroke-width="1.17" d="M11.345 19.353c-1.52-3.789 1.9-6.63 3.798-7.578 2.849-.947 4.685 3.629 5.697 5.684.036.072.05.271.053.515.008.83-.628 1.524-1.192 2.134-.404.438-.76 1.102-.76 2.087 0 2.841 6.517 7.47 7.597 6.63.342-.265.913-.743 1.517-1.162.787-.547 1.793-.404 2.573.152l4.566 3.254c.526.375.856.993.646 1.605-.378 1.104-1.38 2.62-3.605 3.73-3.038 1.515-10.445-2.843-13.293-5.684-4.043-4.032-6.078-7.578-7.597-11.367z"/>
</svg>
