<svg width="28" height="28" viewBox="0 0 28 28" fill="none" xmlns="http://www.w3.org/2000/svg">
<path d="M8.2998 23.6982C9.38965 23.6982 11.6133 22.6699 13.3535 21.5098C19.2334 21.8613 24.1904 18.4336 24.1904 13.6436C24.1904 9.27539 19.8398 5.74219 14.3818 5.74219C8.92383 5.74219 4.57324 9.27539 4.57324 13.6436C4.57324 16.5088 6.41016 19.0312 9.1875 20.3496C8.79199 21.1055 8.10645 22.0107 7.71973 22.5029C7.28027 23.0654 7.50879 23.6982 8.2998 23.6982ZM8.94141 22.5732C8.87109 22.5908 8.84473 22.5469 8.89746 22.4854C9.35449 21.9316 10.0576 21.0527 10.3828 20.4111C10.5762 20.0508 10.5146 19.7432 10.1016 19.541C7.3418 18.2666 5.69824 16.1221 5.69824 13.6436C5.69824 9.89941 9.54785 6.8584 14.3818 6.8584C19.2158 6.8584 23.0742 9.89941 23.0742 13.6436C23.0742 17.3965 19.2158 20.4375 14.3818 20.4375C14.1006 20.4375 13.7578 20.4199 13.3623 20.3936C13.0723 20.3936 12.8262 20.4814 12.5713 20.6748C11.3232 21.4746 9.71484 22.3623 8.94141 22.5732Z" fill="black"/>
<path d="M14.2363 15.0225C14.5391 15.0225 14.6562 14.8125 14.6562 14.5049C14.6562 13.9922 14.832 13.7188 15.4521 13.3525C16.0771 12.9766 16.4727 12.4492 16.4727 11.6826C16.4727 10.6377 15.6133 9.90039 14.4023 9.90039C13.4648 9.90039 12.7471 10.3057 12.459 10.999C12.3711 11.1895 12.332 11.3555 12.332 11.5654C12.332 11.8193 12.4688 11.9658 12.7178 11.9658C12.9375 11.9658 13.0449 11.873 13.1279 11.5752C13.2891 10.9893 13.7188 10.6621 14.3682 10.6621C15.0859 10.6621 15.5645 11.0918 15.5645 11.7266C15.5645 12.2246 15.3447 12.542 14.7783 12.8887C14.1094 13.2891 13.8018 13.7236 13.8018 14.3828V14.5195C13.8018 14.7979 13.9336 15.0225 14.2363 15.0225ZM14.2314 17.0488C14.5488 17.0488 14.7881 16.8047 14.7881 16.4922C14.7881 16.1748 14.5488 15.9355 14.2314 15.9355C13.9189 15.9355 13.6748 16.1748 13.6748 16.4922C13.6748 16.8047 13.9189 17.0488 14.2314 17.0488Z" fill="black"/>
</svg>
