<svg xmlns="http://www.w3.org/2000/svg" width="47" height="48" fill="none" viewBox="0 0 47 48">
    <circle cx="23.5" cy="24.42" r="22.954" stroke="#D92E76" stroke-width="1.092"/>
    <path fill="#D92E76" d="M20.426 18.505c0 1.98 1.348 3.157 3.218 3.157.477 0 .9-.06 1.181-.156.229-.076.309-.179.309-.312 0-.134-.088-.217-.244-.217-.038 0-.088.003-.149.015-.343.084-.605.137-.979.137-1.637 0-2.742-.952-2.742-2.601 0-1.596 1.025-2.697 2.582-2.697 1.36 0 2.46.834 2.46 2.37 0 .799-.289 1.359-.711 1.359-.275 0-.423-.149-.423-.408v-1.889c0-.213-.122-.343-.328-.343-.202 0-.327.13-.327.343v.19h-.038c-.156-.338-.51-.532-.93-.532-.758 0-1.294.64-1.294 1.58 0 .956.537 1.611 1.321 1.611.442 0 .785-.22.952-.61h.038c.069.385.427.61.9.61.887 0 1.435-.819 1.435-1.957 0-1.737-1.276-2.853-3.047-2.853-1.881 0-3.184 1.26-3.184 3.203zm3.04 1.013c-.473 0-.75-.38-.75-1.013 0-.628.28-1.002.75-1.002.48 0 .784.389.784.998 0 .625-.308 1.017-.785 1.017z"/>
    <path stroke="#D92E76" stroke-width="1.014" d="M10.14 34.85V19.64l3.9-3.009m-3.9 18.219h26.52V19.64l-3.9-3.191m-22.62 18.4l10.281-7.637M36.27 34.46l-9.277-7.248m-6.572 0l3.369-2.502 3.203 2.502m-6.572 0L11.7 18.47m15.293 8.742l8.497-8.352m-21.45 1.956V16.63m18.72 4.959v-5.141m0 0v-3.83h-4.68m0 0l-3.06-2.503c-.72-.59-1.752-.604-2.488-.035L19.24 12.62m8.84 0h-8.84m0 0h-5.2v4.011"/>
</svg>
