<svg width="28" height="28" viewBox="0 0 28 28" fill="none" xmlns="http://www.w3.org/2000/svg">
<path fill-rule="evenodd" clip-rule="evenodd" d="M3.73328 2.80005V23.3334H4.19994H4.66661H18.9328L18.0942 22.4H13.6663H4.66661V3.73338H14.9333V8.40005H19.5999V9.80005V10.2667V12.2874L20.5333 13.2208V10.2667V9.80005V7.74015L15.5932 2.80005H3.73328ZM15.8666 4.39328L18.94 7.46672H15.8666V4.39328ZM14.3718 10.171C14.617 9.92613 14.942 9.80369 15.2668 9.80369C15.592 9.80369 15.9175 9.9257 16.1628 10.171L20.1623 14.1714C20.6536 14.662 20.6536 15.4718 20.1623 15.9624C19.9167 16.2081 19.5893 16.3334 19.2663 16.3334C18.9431 16.3334 18.6166 16.2077 18.3713 15.9624L18.3485 15.9396L17.5236 16.7645L23.3743 21.9972L23.3834 22.0063C23.9966 22.6195 23.9372 23.6312 23.3178 24.2512C22.6979 24.8717 21.6861 24.9301 21.0728 24.3168L21.0637 24.3077L15.831 18.4571L15.0062 19.2819L15.029 19.3047C15.5203 19.7954 15.5203 20.6051 15.029 21.0958C14.7833 21.3414 14.456 21.4667 14.133 21.4667C13.8098 21.4667 13.4833 21.3411 13.2379 21.0958L9.23846 17.0963C8.74711 16.6057 8.74711 15.795 9.23846 15.3043C9.4837 15.0595 9.80866 14.937 10.1335 14.937C10.4587 14.937 10.7842 15.059 11.0295 15.3043L11.0805 15.3554L14.4228 12.014L14.3718 11.9629C13.8804 11.4723 13.8804 10.6616 14.3718 10.171ZM15.2678 10.7306C15.3519 10.7306 15.4356 10.7645 15.5029 10.8318L19.5024 14.8313C19.6364 14.9651 19.6364 15.1687 19.5024 15.3025C19.4354 15.3695 19.3521 15.4001 19.2663 15.4001C19.1798 15.4001 19.0985 15.3699 19.0312 15.3025L15.0308 11.3021C14.8968 11.1684 14.8968 10.9656 15.0308 10.8318H15.0317C15.0991 10.7645 15.1836 10.7306 15.2678 10.7306ZM17.6886 15.2797L15.0828 12.6739L11.7404 16.0162L14.3463 18.6221L17.6886 15.2797ZM10.1344 15.864C10.2186 15.864 10.3022 15.8978 10.3696 15.9652L14.3691 19.9646C14.503 20.0984 14.503 20.3021 14.3691 20.4359C14.302 20.5029 14.2188 20.5334 14.133 20.5334C14.0465 20.5334 13.9652 20.5032 13.8978 20.4359L9.89745 16.4355C9.76347 16.3017 9.76347 16.0989 9.89745 15.9652H9.89836C9.96572 15.8978 10.0503 15.864 10.1344 15.864ZM22.7244 22.6689L16.8628 17.4253L16.4919 17.7963L21.7355 23.6579C21.9618 23.8816 22.3677 23.8818 22.6579 23.5913C22.9485 23.3004 22.9482 22.8952 22.7244 22.6689Z" fill="black"/>
</svg>
