<svg xmlns="http://www.w3.org/2000/svg" width="76" height="57" fill="none" viewBox="0 0 76 57">
    <circle cx="37.719" cy="28" r="25" fill="#D83275"/>
    <mask id="eklk7dgsja" width="51" height="50" x="12" y="3" maskUnits="userSpaceOnUse">
        <circle cx="37.719" cy="28" r="25" fill="#fff"/>
    </mask>
    <g mask="url(#eklk7dgsja)">
        <path fill="#fff" fill-rule="evenodd" d="M48.205 17.29c-.683-.42-2.35-1.3-4.583-1.174-3.11.177-5.186 2.177-5.614 2.642-.328-.356-1.623-1.61-3.606-2.26l.135.112c.061.05.122.1.18.156.24.21.456.445.665.688.1.124.202.247.294.378.046.066.094.127.14.198.044.07.09.138.134.209.347.566.597 1.196.736 1.851.14.655.164 1.334.078 1.998-.087.665-.284 1.316-.591 1.915-.306.598-.718 1.143-1.212 1.596l-.19.166-.195.155c-.066.051-.14.101-.21.151-.072.048-.146.095-.22.14-.298.177-.617.32-.948.422-.661.21-1.368.245-2.036.127-.668-.121-1.3-.397-1.83-.796-.265-.198-.506-.425-.718-.671-.106-.124-.204-.253-.296-.385-.046-.065-.088-.14-.132-.21-.042-.072-.088-.14-.122-.217l-.107-.225c-.019-.036-.034-.075-.048-.114l-.042-.116-.042-.116-.02-.058-.016-.06-.061-.236-.015-.06-.01-.06-.02-.12-.018-.12-.01-.06-.004-.06-.016-.24-.003-.06.001-.06.003-.12.004-.12.002-.06.006-.059.028-.235.007-.06.012-.057.024-.116.025-.115c.008-.038.017-.076.03-.114.046-.149.087-.299.152-.44.03-.072.057-.145.092-.214l.108-.204c.035-.069.077-.133.12-.196.042-.064.084-.128.127-.19l.144-.178.072-.087c.024-.029.052-.055.078-.082l.16-.16c.051-.052.113-.096.17-.145.058-.046.111-.095.175-.138l.192-.127c.264-.157.547-.277.84-.346.293-.066.59-.086.88-.065.29.027.57.098.832.202.26.108.496.253.71.42l.15.134.074.068.067.074c.045.05.089.098.131.147l.117.157.056.078.052.086.051.086c.017.028.033.057.047.088l.082.178.066.184c.077.247.116.498.12.745 0 .246-.035.486-.097.712-.064.227-.163.437-.28.628-.119.19-.264.357-.42.5-.04.036-.082.068-.123.101-.04.033-.081.065-.128.094-.046.028-.09.06-.137.083l-.142.071c-.193.084-.394.133-.59.148-.196.017-.388-.005-.565-.05-.089-.019-.172-.053-.255-.083-.08-.039-.158-.073-.229-.12-.145-.085-.268-.194-.374-.305-.05-.06-.102-.114-.142-.176l-.061-.09c-.02-.03-.037-.063-.055-.094l-.026-.047-.021-.05c-.014-.032-.028-.063-.04-.096-.02-.065-.044-.128-.055-.192-.031-.126-.036-.25-.036-.364.008-.23.067-.425.142-.58.036-.077.08-.142.12-.2.046-.056.085-.106.129-.144.02-.02.04-.038.059-.054l.056-.04c.018-.013.034-.024.05-.033.015-.008.03-.015.044-.02.053-.024.084-.028.095-.014.024.031-.049.119-.14.29-.024.04-.043.092-.067.144-.02.056-.041.114-.055.181-.03.131-.046.286-.023.453.016.082.032.168.068.252.013.043.038.083.057.125l.037.061.018.03.022.03c.015.019.028.038.045.057l.052.058c.033.04.076.072.114.109.084.066.174.13.277.173.049.027.104.04.157.061.056.012.111.03.17.035.114.015.234.017.352-.007.119-.023.235-.064.345-.124l.08-.05c.027-.017.05-.04.076-.06.026-.017.05-.042.076-.066.024-.025.05-.047.075-.073.093-.105.178-.22.245-.35.064-.131.117-.27.146-.42.028-.149.038-.303.027-.459-.016-.155-.052-.308-.11-.455l-.046-.108-.059-.104c-.009-.018-.02-.035-.032-.05l-.034-.05-.033-.049-.042-.048-.083-.098-.092-.089-.046-.045-.05-.04-.1-.079c-.143-.094-.296-.176-.46-.232-.164-.052-.335-.084-.51-.09-.174-.001-.349.022-.519.07-.169.05-.329.132-.479.231l-.109.082c-.037.027-.072.065-.108.097-.035.034-.075.063-.107.1l-.098.11c-.016.02-.034.037-.049.056l-.043.06-.088.12-.076.13c-.026.042-.052.085-.071.132-.364.717-.356 1.653.063 2.37.022.047.055.088.083.131.03.043.054.087.088.13.067.088.137.172.212.252.15.16.316.303.496.426.358.248.775.407 1.204.469.43.057.873.018 1.281-.129.204-.072.4-.168.585-.286l.135-.093c.044-.035.087-.065.132-.102l.133-.113.127-.12c.332-.326.605-.712.805-1.134.202-.423.325-.882.372-1.347.047-.465.017-.935-.09-1.382-.108-.446-.29-.869-.532-1.246l-.095-.14c-.03-.046-.07-.092-.104-.139-.068-.095-.146-.181-.22-.27-.156-.172-.314-.34-.49-.485-.041-.039-.086-.074-.13-.11-.045-.034-.088-.07-.134-.104-.092-.065-.182-.133-.278-.19-.093-.064-.191-.116-.287-.172-.05-.026-.1-.05-.148-.076l-.074-.038-.076-.033c-.4-.185-.821-.304-1.242-.369-.21-.028-.421-.047-.63-.048-.21.001-.417.01-.62.039-.814.104-1.557.431-2.162.886-.077.053-.152.119-.228.18-.037.031-.076.06-.112.093l-.107.097-.107.097c-.035.032-.067.067-.1.1-.067.068-.137.132-.197.203-.062.07-.127.136-.185.208l-.173.212-.16.217c-.053.072-.1.147-.149.22-.191.294-.358.601-.502.918-.142.318-.257.646-.35.977-.021.084-.048.166-.065.25l-.056.25-.044.254c-.016.083-.023.168-.035.252-.04.338-.062.676-.053 1.011.024 1.342.443 2.616 1.124 3.644.04.066.089.13.133.194l.136.193c.094.124.192.246.287.368.102.115.2.234.303.346l.157.164c.052.055.104.11.16.16.43.42.892.78 1.37 1.082.956.604 1.97.967 2.927 1.14.48.087.945.128 1.387.137.443.004.862-.027 1.253-.076.782-.107 1.448-.295 1.984-.487.538-.192.943-.387 1.236-.5.285-.125.459-.168.502-.111.043.055-.048.208-.27.451-.228.231-.591.553-1.124.879-.53.326-1.233.655-2.102.892-.435.113-.911.206-1.423.255-.512.045-1.06.05-1.631-.003-1.143-.104-2.39-.446-3.59-1.108-1.117-.615-2.187-1.505-3.053-2.648.776 2.173 1.97 3.725 2.812 4.796 2.451 3.12 5.216 4.654 6.483 5.34 1.519.823 3.405 1.651 3.898 1.651.526 0 2.379-.828 3.898-1.65 1.267-.687 4.031-2.22 6.483-5.341 1.077-1.371 2.732-3.529 3.348-6.768.262-1.378.563-3.072-.142-5.06-.925-2.61-2.924-3.902-3.39-4.188z" clip-rule="evenodd"/>
    </g>
    <path fill="#F7FAFB" fill-rule="evenodd" d="M7.925 46.182C-.652 36.302.435 25.092 1.28 21.6c1.363-5.634 3.71-10.473 8.51-14.558 10.906-9.285 39.355-8.483 49.308-2.825 4.968 2.825 13.765 9.011 15.688 20.33.047.276.074.483.099.664.24 1.75 1.513 12.6-8.124 21.448-1.38 1.267-3.868 3.305-7.663 5.195-13.877 6.91-35.368 6.932-47.146-1.856-1.982-1.48-3.147-2.802-4.027-3.816z" clip-rule="evenodd"/>
    <ellipse cx="38.313" cy="28.416" fill="#5CC0F0" rx="20.886" ry="20.297"/>
    <path stroke="#fff" stroke-linecap="round" stroke-linejoin="round" stroke-width="1.3" d="M33.456 24.736l9.12-9.202 8.85 8.836-6.468 6.459m-15.65-1.953l-2.705 2.608 8.85 8.836 5.375-5.463"/>
    <path stroke="#fff" stroke-linecap="round" stroke-linejoin="round" d="M38.677 40.91l5.843-5.646-2.045-1.975 8.471-1.13-.876 8.75-2.337-2.257-1.753 1.693M36.048 19.034l-5.842 5.646 2.045 1.975-8.472 1.13.877-8.75 2.337 2.258 1.752-1.694"/>
    <mask id="ouv7vy871b" fill="#fff">
        <path fill-rule="evenodd" d="M31.938 30.118l8.938-9.625c.813.875 1.897.583 2.71-.584l2.708 2.917c-.361.486-.813 1.692.27 2.625l-9.48 10.209c-.361-.584-1.408-1.4-2.709 0l-2.708-2.625c.541-.487 1.354-1.75.27-2.917zm7.508.139c1.527 0 2.765-1.236 2.765-2.76 0-1.525-1.238-2.761-2.765-2.761-1.527 0-2.765 1.236-2.765 2.76 0 1.525 1.238 2.76 2.765 2.76zm-2.765.92c0 .508-.412.92-.921.92-.51 0-.922-.412-.922-.92s.413-.92.922-.92c.509 0 .921.412.921.92zm6.451-6.441c.51 0 .922-.412.922-.92s-.413-.92-.922-.92c-.509 0-.921.412-.921.92s.412.92.921.92z" clip-rule="evenodd"/>
    </mask>
    <path fill="#fff" fill-rule="evenodd" d="M31.938 30.118l8.938-9.625c.813.875 1.897.583 2.71-.584l2.708 2.917c-.361.486-.813 1.692.27 2.625l-9.48 10.209c-.361-.584-1.408-1.4-2.709 0l-2.708-2.625c.541-.487 1.354-1.75.27-2.917zm7.508.139c1.527 0 2.765-1.236 2.765-2.76 0-1.525-1.238-2.761-2.765-2.761-1.527 0-2.765 1.236-2.765 2.76 0 1.525 1.238 2.76 2.765 2.76zm-2.765.92c0 .508-.412.92-.921.92-.51 0-.922-.412-.922-.92s.413-.92.922-.92c.509 0 .921.412.921.92zm6.451-6.441c.51 0 .922-.412.922-.92s-.413-.92-.922-.92c-.509 0-.921.412-.921.92s.412.92.921.92z" clip-rule="evenodd"/>
    <path fill="#fff" d="M40.876 20.493l.733-.68c-.19-.204-.455-.32-.733-.32-.278 0-.543.116-.732.32l.732.68zm-8.938 9.625l-.733-.68c-.357.383-.357.977 0 1.36l.733-.68zm11.647-10.209l.733-.68c-.206-.222-.501-.338-.803-.317-.302.021-.578.178-.75.426l.82.571zm2.709 2.917l.803.596c.287-.386.258-.923-.07-1.276l-.733.68zm.27 2.625l.733.68c.185-.198.281-.464.266-.736-.015-.27-.14-.524-.346-.702l-.652.758zm-9.48 10.209l-.85.526c.164.265.443.439.753.469.31.03.618-.086.83-.315l-.733-.68zm-2.709 0l-.696.718c.194.187.454.288.723.281.268-.007.523-.122.706-.319l-.733-.68zm-2.708-2.625l-.668-.745c-.207.185-.327.448-.332.725-.006.278.105.545.304.738l.696-.718zm8.477-13.223l-8.94 9.625 1.466 1.361 8.94-9.625-1.466-1.36zm2.62-.474c-.323.464-.61.62-.758.654-.065.015-.112.01-.157-.004-.048-.017-.132-.06-.24-.176l-1.465 1.361c.618.666 1.446.968 2.312.768.8-.184 1.46-.758 1.95-1.46l-1.642-1.143zm4.263 2.808l-2.71-2.917-1.465 1.36 2.71 2.918 1.465-1.361zm.19 2.547c-.294-.253-.34-.483-.33-.675.01-.244.123-.48.21-.596L45.49 22.23c-.275.37-.569.98-.602 1.694-.037.766.233 1.605 1.023 2.285l1.305-1.516zm-9.4 11.647l9.48-10.208-1.465-1.361-9.48 10.208 1.465 1.361zm-2.709 0c.249-.268.437-.377.55-.42.104-.041.168-.036.211-.027.121.026.275.147.365.293l1.7-1.053c-.27-.437-.821-1.017-1.64-1.194-.908-.198-1.833.16-2.651 1.04l1.465 1.361zm-4.137-2.587l2.708 2.625 1.392-1.437-2.708-2.625-1.392 1.437zm.234-2.955c.29.314.295.563.239.783-.074.285-.28.56-.445.71l1.335 1.488c.377-.338.849-.937 1.046-1.697.214-.825.083-1.791-.71-2.645l-1.465 1.361zm10.006-3.302c0 .971-.789 1.76-1.765 1.76v2c2.078 0 3.765-1.681 3.765-3.76h-2zm-1.765-1.76c.976 0 1.765.79 1.765 1.76h2c0-2.078-1.687-3.76-3.765-3.76v2zm-1.765 1.76c0-.97.789-1.76 1.765-1.76v-2c-2.078 0-3.765 1.682-3.765 3.76h2zm1.765 1.76c-.976 0-1.765-.789-1.765-1.76h-2c0 2.079 1.687 3.76 3.765 3.76v-2zm-3.686 3.841c1.06 0 1.921-.858 1.921-1.92h-2c0-.046.037-.08.079-.08v2zm-1.922-1.92c0 1.062.862 1.92 1.922 1.92v-2c.042 0 .078.034.078.08h-2zm1.922-1.92c-1.06 0-1.922.858-1.922 1.92h2c0 .046-.036.08-.078.08v-2zm1.921 1.92c0-1.062-.861-1.92-1.921-1.92v2c-.042 0-.079-.035-.079-.08h2zm5.373-7.361c0-.046.036-.08.078-.08v2c1.06 0 1.922-.858 1.922-1.92h-2zm.078.08c-.042 0-.078-.035-.078-.08h2c0-1.062-.862-1.92-1.922-1.92v2zm.079-.08c0 .045-.037.08-.079.08v-2c-1.06 0-1.921.858-1.921 1.92h2zm-.079-.08c.042 0 .079.034.079.08h-2c0 1.062.861 1.92 1.921 1.92v-2z" mask="url(#ouv7vy871b)"/>
</svg>
