<svg width="40" height="40" viewBox="0 0 40 40" fill="none" xmlns="http://www.w3.org/2000/svg">
<path d="M6.35 25C6.35 24.641 6.64101 24.35 7 24.35C7.35899 24.35 7.65 24.641 7.65 25L6.35 25ZM14.9412 31.35C15.3002 31.35 15.5912 31.641 15.5912 32C15.5912 32.359 15.3002 32.65 14.9412 32.65L14.9412 31.35ZM12.3772 29.4726C12.1162 29.2261 12.1045 28.8147 12.351 28.5537C12.5975 28.2927 13.0088 28.281 13.2698 28.5274L12.3772 29.4726ZM16 32L16.4463 31.5274C16.5763 31.6502 16.65 31.8212 16.65 32C16.65 32.1788 16.5763 32.3498 16.4463 32.4726L16 32ZM13.2698 35.4726C13.0088 35.719 12.5975 35.7073 12.351 35.4463C12.1045 35.1853 12.1162 34.7739 12.3772 34.5274L13.2698 35.4726ZM7.65 25C7.65 27.0077 8.03855 28.5495 9.05557 29.6015C10.0706 30.6515 11.8448 31.35 14.9412 31.35L14.9412 32.65C11.6846 32.65 9.48825 31.9196 8.1209 30.5051C6.75557 29.0927 6.35 27.1344 6.35 25L7.65 25ZM13.2698 28.5274L16.4463 31.5274L15.5537 32.4726L12.3772 29.4726L13.2698 28.5274ZM16.4463 32.4726L13.2698 35.4726L12.3772 34.5274L15.5537 31.5274L16.4463 32.4726Z" fill="black"/>
<ellipse cx="16" cy="2.5" rx="6" ry="2.5" stroke="black"/>
<path d="M22 2.5V13.6562C22 14.9507 19.3137 16 16 16C14.9071 16 13.8825 15.8859 13 15.6864M10 2.5V8" stroke="black"/>
<path d="M22 11C22 12.3807 19.3137 13.5 16 13.5C14.9071 13.5 13.8825 13.3783 13 13.1655" stroke="black"/>
<path d="M22 8C22 9.38071 19.3137 10.5 16 10.5C14.9071 10.5 13.8825 10.3783 13 10.1655" stroke="black"/>
<path d="M22 5C22 6.38071 19.3137 7.5 16 7.5C12.6863 7.5 10 6.38071 10 5" stroke="black"/>
<ellipse cx="7" cy="10.5" rx="6" ry="2.5" stroke="black"/>
<path d="M13 10.5V18.6562C13 19.9507 10.3137 21 7 21C3.68629 21 1 19.9507 1 18.6562V10.5" stroke="black"/>
<path d="M13 16C13 17.3807 10.3137 18.5 7 18.5C3.68629 18.5 1 17.3807 1 16" stroke="black"/>
<path d="M13 13C13 14.3807 10.3137 15.5 7 15.5C3.68629 15.5 1 14.3807 1 13" stroke="black"/>
<circle cx="29" cy="22" r="5.5" stroke="black"/>
<path d="M39.4918 39.5H18.5082C18.7296 32.7535 23.4133 27.5 29 27.5C34.5867 27.5 39.2704 32.7535 39.4918 39.5Z" stroke="black"/>
<path d="M34 36V39.5M24 36V39.5" stroke="black" stroke-linecap="round"/>
</svg>
