<svg width="118" height="80" viewBox="0 0 118 80" fill="none" xmlns="http://www.w3.org/2000/svg">
<g opacity="0.5" clip-path="url(#clip0)">
<path d="M24.4475 26.6658C27.6922 26.6658 30.3308 24.0338 30.3308 20.8007C30.3308 17.5676 27.6922 14.9385 24.4475 14.9385C21.2028 14.9385 18.5642 17.5676 18.5642 20.8007C18.5642 24.0338 21.2028 26.6658 24.4475 26.6658Z" fill="#A0B2B8"/>
<path d="M111.458 43.0964C110.946 42.5702 110.411 42.0732 109.856 41.6054V12.06C109.856 5.40991 104.427 0 97.753 0H12.4828C5.80878 0 0.379395 5.40991 0.379395 12.06V63.9434C0.379395 70.5954 5.80878 76.0063 12.4828 76.0063H15.5352H20.4726H83.178C86.7449 78.5313 90.9863 79.929 95.4552 79.9961C95.5694 79.9981 95.6826 79.999 95.7958 79.999C101.501 79.999 106.885 77.8261 110.99 73.8586C115.175 69.8124 117.53 64.384 117.619 58.5734C117.707 52.7637 115.519 47.2672 111.458 43.0964ZM3.42012 63.9434V12.06C3.42012 7.08094 7.48582 3.02982 12.4828 3.02982H97.753C102.751 3.02982 106.816 7.08094 106.816 12.06V39.4646C103.603 37.5844 99.9445 36.5485 96.118 36.4911C90.467 36.4065 85.2738 38.4841 81.337 41.9546L74.1017 30.5239C72.8161 28.4959 70.6129 27.2859 68.193 27.2859C65.7771 27.2898 63.5709 28.5124 62.2912 30.555L49.3698 51.1831L45.8947 46.6457C44.5408 44.8764 42.4859 43.8619 40.23 43.8619C37.9878 43.8697 35.9291 44.8998 34.5839 46.6875L14.7689 72.9774H12.4818C7.48484 72.9774 3.42012 68.9253 3.42012 63.9434ZM18.5711 72.9774L37.0146 48.5064C37.7838 47.4841 38.9591 46.8966 40.2554 46.8918C41.5283 46.8918 42.7026 47.4715 43.4767 48.483L48.2863 54.7625C48.5889 55.1584 49.0711 55.3782 49.566 55.3568C50.0648 55.3334 50.5197 55.0679 50.7843 54.6458L64.8692 32.1589C65.5916 31.0063 66.8352 30.3167 68.2067 30.3148C69.5626 30.3148 70.8052 30.9976 71.5295 32.1404L79.1475 44.1761C75.9789 47.8878 74.0334 52.6732 73.9543 57.9129C73.8684 63.5349 75.9193 68.8592 79.7293 72.9764H20.4726H18.5711V72.9774ZM108.872 71.6848C105.269 75.1669 100.53 77.0441 95.501 76.9682C90.4816 76.8924 85.7922 74.8731 82.2975 71.2831C78.8019 67.693 76.9189 62.961 76.9951 57.9596C77.1512 47.7312 85.5501 39.518 95.7822 39.518C95.8778 39.518 95.9755 39.519 96.0721 39.52C101.091 39.5959 105.781 41.6151 109.276 45.2052C112.771 48.7952 114.654 53.5272 114.578 58.5286C114.502 63.53 112.475 68.2027 108.872 71.6848Z" fill="#A0B2B8"/>
<path d="M107.345 56.9043L97.3303 56.7526L97.4826 46.7741C97.4953 45.9376 96.8247 45.249 95.9861 45.2363C95.9783 45.2363 95.9705 45.2363 95.9627 45.2363C95.134 45.2363 94.4555 45.8997 94.4428 46.7284L94.2906 56.7069L84.2761 56.5551C84.2683 56.5551 84.2605 56.5551 84.2527 56.5551C83.424 56.5551 82.7455 57.2185 82.7328 58.0472C82.7202 58.8837 83.3908 59.5723 84.2293 59.5849L94.2437 59.7367L94.0914 69.7152C94.0787 70.5516 94.7494 71.2403 95.5879 71.2529C95.5957 71.2529 95.6035 71.2529 95.6113 71.2529C96.4401 71.2529 97.1185 70.5896 97.1312 69.7609L97.1663 67.4284C97.1663 67.4216 97.1683 67.4148 97.1683 67.407V67.4012C97.1683 67.3963 97.1673 67.3915 97.1663 67.3866L97.2825 59.7824L107.297 59.9341C107.305 59.9341 107.313 59.9341 107.32 59.9341C108.149 59.9341 108.827 59.2708 108.84 58.4421C108.854 57.6056 108.183 56.9169 107.345 56.9043Z" fill="#A0B2B8"/>
</g>
<defs>
<clipPath id="clip0">
<rect width="117.241" height="80" fill="white" transform="translate(0.379395)"/>
</clipPath>
</defs>
</svg>
