<svg width="15" height="15" viewBox="0 0 15 15" fill="none" xmlns="http://www.w3.org/2000/svg">
<path d="M6.32981 0.754883C3.117 0.754883 0.5 3.37188 0.5 6.5847C0.5 9.79751 3.117 12.4145 6.32981 12.4145C7.72693 12.4145 9.01 11.9184 10.0156 11.0948L13.4964 14.5756C13.5501 14.6316 13.6144 14.6763 13.6856 14.707C13.7568 14.7378 13.8335 14.7541 13.911 14.7549C13.9886 14.7556 14.0655 14.7409 14.1373 14.7116C14.2091 14.6823 14.2744 14.639 14.3292 14.5841C14.3841 14.5293 14.4274 14.464 14.4567 14.3922C14.4861 14.3204 14.5008 14.2435 14.5 14.1659C14.4992 14.0883 14.4829 14.0117 14.4522 13.9405C14.4214 13.8693 14.3767 13.805 14.3208 13.7513L10.8399 10.2705C11.6635 9.26488 12.1596 7.98181 12.1596 6.5847C12.1596 3.37188 9.54262 0.754883 6.32981 0.754883ZM6.32981 1.92085C8.91249 1.92085 10.9937 4.00202 10.9937 6.5847C10.9937 9.16737 8.91249 11.2485 6.32981 11.2485C3.74713 11.2485 1.66596 9.16737 1.66596 6.5847C1.66596 4.00202 3.74713 1.92085 6.32981 1.92085ZM6.3207 3.66182C6.16629 3.66423 6.01913 3.72781 5.91155 3.8386C5.80396 3.9494 5.74472 4.09835 5.74683 4.25277V6.00171H3.99789C3.92064 6.00062 3.84394 6.01489 3.77225 6.0437C3.70056 6.07251 3.63531 6.11528 3.5803 6.16952C3.52528 6.22376 3.4816 6.2884 3.45178 6.35967C3.42196 6.43095 3.4066 6.50744 3.4066 6.5847C3.4066 6.66196 3.42196 6.73844 3.45178 6.80972C3.4816 6.88099 3.52528 6.94563 3.5803 6.99987C3.63531 7.05411 3.70056 7.09688 3.77225 7.12569C3.84394 7.1545 3.92064 7.16877 3.99789 7.16768H5.74683V8.91662C5.74574 8.99387 5.76001 9.07057 5.78882 9.14226C5.81763 9.21395 5.86039 9.2792 5.91464 9.33421C5.96888 9.38923 6.03352 9.43291 6.10479 9.46273C6.17606 9.49255 6.25255 9.50791 6.32981 9.50791C6.40707 9.50791 6.48356 9.49255 6.55484 9.46273C6.62611 9.43291 6.69075 9.38923 6.74499 9.33421C6.79923 9.2792 6.842 9.21395 6.87081 9.14226C6.89961 9.07057 6.91389 8.99387 6.91279 8.91662V7.16768H8.66174C8.73899 7.16877 8.81569 7.1545 8.88738 7.12569C8.95907 7.09688 9.02431 7.05411 9.07933 6.99987C9.13435 6.94563 9.17803 6.88099 9.20785 6.80972C9.23767 6.73844 9.25302 6.66196 9.25302 6.5847C9.25302 6.50744 9.23767 6.43095 9.20785 6.35967C9.17803 6.2884 9.13435 6.22376 9.07933 6.16952C9.02431 6.11528 8.95907 6.07251 8.88738 6.0437C8.81569 6.01489 8.73899 6.00062 8.66174 6.00171H6.91279V4.25277C6.91386 4.17477 6.89927 4.09736 6.86988 4.0251C6.84049 3.95285 6.79689 3.88722 6.74168 3.83212C6.68647 3.77702 6.62077 3.73355 6.54846 3.7043C6.47614 3.67505 6.3987 3.6606 6.3207 3.66182Z" fill="black"/>
</svg>
