<svg width="210" height="146" viewBox="0 0 210 146" fill="none" xmlns="http://www.w3.org/2000/svg">
<mask id="mask0" mask-type="alpha" maskUnits="userSpaceOnUse" x="0" y="0" width="176" height="110">
<path fill-rule="evenodd" clip-rule="evenodd" d="M0.00949097 0H175.573V109.007H0.00949097V0Z" fill="white"/>
</mask>
<g mask="url(#mask0)">
<path fill-rule="evenodd" clip-rule="evenodd" d="M87.7919 0H168.781C172.533 0 175.573 2.99901 175.573 6.69748V102.311C175.573 106.009 172.533 109.008 168.781 109.008H6.80105C3.05063 109.008 0.00949097 106.009 0.00949097 102.311V6.69748C0.00949097 2.99901 3.05063 0 6.80105 0H87.7919Z" fill="#D93076"/>
</g>
<mask id="mask1" mask-type="alpha" maskUnits="userSpaceOnUse" x="0" y="0" width="176" height="110">
<path fill-rule="evenodd" clip-rule="evenodd" d="M0 109.008H175.573V0H0V109.008Z" fill="white"/>
</mask>
<g mask="url(#mask1)">
<path fill-rule="evenodd" clip-rule="evenodd" d="M0 26.1552H175.563V9.22656H0V26.1552Z" fill="#231F20"/>
<path fill-rule="evenodd" clip-rule="evenodd" d="M98.481 52.6662H125.591V38.8845H98.481V52.6662Z" fill="#D93076"/>
<path fill-rule="evenodd" clip-rule="evenodd" d="M7.89038 59.5353H99.9377V38.707H7.89038V59.5353Z" fill="#EAEFF8"/>
<path fill-rule="evenodd" clip-rule="evenodd" d="M7.89038 42.4962H99.9377V40.6016H7.89038V42.4962Z" fill="#FEF6EB"/>
<path fill-rule="evenodd" clip-rule="evenodd" d="M7.89038 46.2815H99.9377V44.3882H7.89038V46.2815Z" fill="#FEF6EB"/>
<path fill-rule="evenodd" clip-rule="evenodd" d="M7.89038 50.0694H99.9377V48.176H7.89038V50.0694Z" fill="#FEF6EB"/>
<path fill-rule="evenodd" clip-rule="evenodd" d="M7.89038 53.8548H99.9377V51.9614H7.89038V53.8548Z" fill="#FEF6EB"/>
<path fill-rule="evenodd" clip-rule="evenodd" d="M7.89038 57.6429H99.9377V55.7483H7.89038V57.6429Z" fill="#FEF6EB"/>
</g>
<path d="M9.00794 104.58H11.1996C13.5721 104.58 14.9474 103.128 14.9474 100.624C14.9474 98.1256 13.5666 96.6736 11.1996 96.6736H9.00794C8.77781 96.6736 8.63535 96.8215 8.63535 97.0626V104.191C8.63535 104.432 8.77781 104.58 9.00794 104.58ZM9.386 103.901V97.353H11.1558C13.1009 97.353 14.1858 98.5256 14.1858 100.63C14.1858 102.728 13.1009 103.901 11.1558 103.901H9.386ZM17.6431 104.673C18.4924 104.673 19.2759 104.202 19.5937 103.495H19.6102V104.306C19.6102 104.525 19.7526 104.673 19.9554 104.673C20.1581 104.673 20.3005 104.525 20.3005 104.306V100.679C20.3005 99.5173 19.4896 98.7886 18.1856 98.7886C17.1993 98.7886 16.4048 99.2488 16.109 99.9282C16.0487 100.054 16.0103 100.186 16.0103 100.295C16.0103 100.493 16.1418 100.624 16.3336 100.624C16.4761 100.624 16.5747 100.558 16.6404 100.427C16.9199 99.731 17.4294 99.4296 18.1691 99.4296C19.0568 99.4296 19.5773 99.9228 19.5773 100.745V101.238L17.7966 101.347C16.4761 101.435 15.7528 102.032 15.7528 103.002C15.7528 103.999 16.5199 104.673 17.6431 104.673ZM17.7911 104.049C17.024 104.049 16.487 103.627 16.487 102.991C16.487 102.377 16.9856 101.983 17.8842 101.923L19.5773 101.808V102.438C19.5773 103.342 18.7883 104.049 17.7911 104.049ZM21.8785 104.673C22.0922 104.673 22.2402 104.514 22.2402 104.284V101.205C22.2402 100.147 22.8977 99.4351 23.8949 99.4351C24.8373 99.4351 25.3907 100.005 25.3907 101.002V104.284C25.3907 104.514 25.5386 104.673 25.7523 104.673C25.966 104.673 26.114 104.514 26.114 104.284V100.887C26.114 99.594 25.3414 98.7886 24.1031 98.7886C23.1771 98.7886 22.5141 99.2379 22.2183 99.9337H22.2018V99.1557C22.2018 98.9365 22.0594 98.7886 21.8566 98.7886C21.6594 98.7886 21.5169 98.9365 21.5169 99.1557V104.284C21.5169 104.514 21.6649 104.673 21.8785 104.673ZM27.6974 104.673C27.9111 104.673 28.0591 104.514 28.0591 104.284V101.205C28.0591 100.147 28.7166 99.4351 29.7138 99.4351C30.6562 99.4351 31.2096 100.005 31.2096 101.002V104.284C31.2096 104.514 31.3575 104.673 31.5712 104.673C31.7849 104.673 31.9329 104.514 31.9329 104.284V100.887C31.9329 99.594 31.1603 98.7886 29.922 98.7886C28.996 98.7886 28.333 99.2379 28.0372 99.9337H28.0207V99.1557C28.0207 98.9365 27.8783 98.7886 27.6755 98.7886C27.4783 98.7886 27.3358 98.9365 27.3358 99.1557V104.284C27.3358 104.514 27.4838 104.673 27.6974 104.673ZM33.6259 106.64C34.4971 106.64 34.9026 106.251 35.4012 104.925L37.5381 99.3146C37.5655 99.2488 37.5764 99.1776 37.5764 99.1228C37.5764 98.9256 37.4285 98.7886 37.2203 98.7886C37.0395 98.7886 36.9463 98.8653 36.8751 99.0571L35.1437 103.857H35.1272L33.4013 99.0571C33.3355 98.8653 33.2259 98.7886 33.0561 98.7886C32.8424 98.7886 32.689 98.9201 32.689 99.1228C32.689 99.1776 32.6999 99.2488 32.7273 99.3146L34.7546 104.618L34.6012 105.046C34.3437 105.775 34.0259 106.016 33.6204 106.016C33.4835 106.016 33.4451 105.999 33.33 105.999C33.1492 105.999 33.0396 106.109 33.0396 106.273C33.0396 106.514 33.2643 106.64 33.6259 106.64ZM41.1488 104.58H43.6364C45.3075 104.58 46.3102 103.758 46.3102 102.41C46.3102 101.314 45.5486 100.575 44.4528 100.443V100.405C45.2966 100.252 45.8993 99.5009 45.8993 98.6242C45.8993 97.4571 44.9788 96.6736 43.62 96.6736H41.1488C40.9187 96.6736 40.7763 96.8215 40.7763 97.0626V104.191C40.7763 104.432 40.9187 104.58 41.1488 104.58ZM41.5214 100.186V97.3366H43.4611C44.5131 97.3366 45.1432 97.8462 45.1432 98.7064C45.1432 99.6379 44.4418 100.186 43.2419 100.186H41.5214ZM41.5214 103.917V100.832H43.4337C44.798 100.832 45.5432 101.386 45.5432 102.372C45.5432 103.353 44.8254 103.917 43.5323 103.917H41.5214ZM47.68 104.673C47.8937 104.673 48.0417 104.514 48.0417 104.284V96.9695C48.0417 96.7394 47.8937 96.5805 47.68 96.5805C47.4663 96.5805 47.3184 96.7394 47.3184 96.9695V104.284C47.3184 104.514 47.4663 104.673 47.68 104.673ZM51.3182 104.673C52.2223 104.673 52.9072 104.224 53.2085 103.523H53.225V104.306C53.225 104.514 53.362 104.673 53.5702 104.673C53.7784 104.673 53.9099 104.514 53.9099 104.306V99.1776C53.9099 98.9475 53.7619 98.7886 53.5482 98.7886C53.3346 98.7886 53.1866 98.9475 53.1866 99.1776V102.262C53.1866 103.331 52.5182 104.027 51.5264 104.027C50.573 104.027 50.0361 103.468 50.0361 102.46V99.1776C50.0361 98.9475 49.8827 98.7886 49.6745 98.7886C49.4608 98.7886 49.3074 98.9475 49.3074 99.1776V102.586C49.3074 103.868 50.0799 104.673 51.3182 104.673ZM55.5208 104.673C55.7399 104.673 55.8824 104.509 55.8824 104.284V101.079C55.8824 100.109 56.4851 99.4351 57.3234 99.4351C58.1015 99.4351 58.6275 99.9666 58.6275 100.783V104.284C58.6275 104.509 58.7699 104.673 58.9946 104.673C59.2137 104.673 59.3562 104.509 59.3562 104.284V100.991C59.3562 100.082 59.937 99.4351 60.7808 99.4351C61.6081 99.4351 62.1013 99.9666 62.1013 100.849V104.284C62.1013 104.509 62.2437 104.673 62.4629 104.673C62.6821 104.673 62.8245 104.509 62.8245 104.284V100.684C62.8245 99.5337 62.0958 98.7886 60.9835 98.7886C60.1233 98.7886 59.4548 99.2872 59.1863 99.9885H59.1699C58.9562 99.2707 58.3535 98.7886 57.5207 98.7886C56.6933 98.7886 56.107 99.2653 55.8605 99.9337H55.844V99.1557C55.844 98.9365 55.7016 98.7886 55.4988 98.7886C55.3016 98.7886 55.1591 98.9365 55.1591 99.1557V104.284C55.1591 104.509 55.3016 104.673 55.5208 104.673ZM66.3915 104.673C67.4544 104.673 68.2818 104.186 68.605 103.375C68.6379 103.292 68.6598 103.21 68.6598 103.15C68.6598 102.953 68.5283 102.832 68.3366 102.832C68.216 102.832 68.1338 102.882 68.0626 102.991C67.69 103.703 67.1531 104.038 66.3586 104.038C65.2244 104.038 64.5066 103.243 64.5066 101.906H68.3475C68.616 101.906 68.7749 101.742 68.7749 101.468C68.7749 99.8844 67.7667 98.7886 66.3093 98.7886C64.7696 98.7886 63.7614 99.9502 63.7614 101.758C63.7614 103.588 64.7532 104.673 66.3915 104.673ZM64.5121 101.331C64.5724 100.18 65.2847 99.4242 66.3038 99.4242C67.3174 99.4242 68.0133 100.186 68.0297 101.331H64.5121ZM70.1063 104.673C70.32 104.673 70.468 104.514 70.468 104.284V101.205C70.468 100.147 71.1255 99.4351 72.1227 99.4351C73.0651 99.4351 73.6185 100.005 73.6185 101.002V104.284C73.6185 104.514 73.7664 104.673 73.9801 104.673C74.1938 104.673 74.3418 104.514 74.3418 104.284V100.887C74.3418 99.594 73.5692 98.7886 72.3309 98.7886C71.4049 98.7886 70.7419 99.2379 70.4461 99.9337H70.4296V99.1557C70.4296 98.9365 70.2872 98.7886 70.0844 98.7886C69.8872 98.7886 69.7447 98.9365 69.7447 99.1557V104.284C69.7447 104.514 69.8927 104.673 70.1063 104.673ZM76.2211 104.673C76.4403 104.673 76.5827 104.525 76.5827 104.29V99.4844H77.5635C77.7553 99.4844 77.8758 99.3749 77.8758 99.1886C77.8758 99.0023 77.7553 98.8817 77.5635 98.8817H76.5773V98.1913C76.5773 97.5448 76.8512 97.2818 77.3882 97.2818C77.5087 97.2818 77.6183 97.2763 77.6895 97.2599C77.8265 97.227 77.8977 97.1448 77.8977 97.0024C77.8977 96.7832 77.6786 96.6572 77.2348 96.6572C76.3691 96.6572 75.854 97.1339 75.854 98.1585V98.8817H75.3006C75.1088 98.8817 74.9883 99.0023 74.9883 99.1886C74.9883 99.3749 75.1088 99.4844 75.3006 99.4844H75.854V104.29C75.854 104.525 75.9965 104.673 76.2211 104.673ZM80.7688 104.673C81.8318 104.673 82.6592 104.186 82.9824 103.375C83.0153 103.292 83.0372 103.21 83.0372 103.15C83.0372 102.953 82.9057 102.832 82.714 102.832C82.5934 102.832 82.5112 102.882 82.44 102.991C82.0674 103.703 81.5305 104.038 80.736 104.038C79.6018 104.038 78.884 103.243 78.884 101.906H82.7249C82.9934 101.906 83.1523 101.742 83.1523 101.468C83.1523 99.8844 82.1441 98.7886 80.6867 98.7886C79.147 98.7886 78.1388 99.9502 78.1388 101.758C78.1388 103.588 79.1306 104.673 80.7688 104.673ZM78.8895 101.331C78.9498 100.18 79.662 99.4242 80.6812 99.4242C81.6948 99.4242 82.3907 100.186 82.4071 101.331H78.8895ZM84.533 104.673C84.7467 104.673 84.8947 104.514 84.8947 104.284V96.9695C84.8947 96.7394 84.7467 96.5805 84.533 96.5805C84.3194 96.5805 84.1714 96.7394 84.1714 96.9695V104.284C84.1714 104.514 84.3194 104.673 84.533 104.673ZM88.3466 104.673C89.3109 104.673 89.9958 104.125 90.2807 103.347H90.2971V104.317C90.2971 104.531 90.467 104.673 90.6697 104.673C90.8779 104.673 91.0259 104.525 91.0259 104.317V96.9695C91.0259 96.7394 90.8725 96.5805 90.6588 96.5805C90.4451 96.5805 90.2971 96.7394 90.2971 96.9695V100.054H90.2807C89.9794 99.3146 89.2506 98.7886 88.3301 98.7886C86.9001 98.7886 85.9083 99.9556 85.9083 101.731C85.9083 103.501 86.9055 104.673 88.3466 104.673ZM88.4726 104.032C87.3767 104.032 86.6535 103.123 86.6535 101.731C86.6535 100.339 87.3767 99.4296 88.4726 99.4296C89.5575 99.4296 90.3026 100.356 90.3026 101.731C90.3026 103.112 89.5575 104.032 88.4726 104.032Z" fill="white"/>
<path d="M12.6845 83.8336C12.8927 83.8336 13.0461 83.6747 13.0461 83.4446V81.9543H13.9173C14.12 81.9543 14.268 81.8228 14.268 81.62C14.268 81.4173 14.12 81.2913 13.9173 81.2913H13.0461V76.3271C13.0461 75.9436 12.8324 75.7409 12.4379 75.7409C12.1146 75.7409 11.9174 75.8833 11.5941 76.3491C10.3942 78.0312 9.24902 79.6859 8.47098 80.9571C8.334 81.1981 8.29016 81.3296 8.29016 81.5214C8.29016 81.7844 8.46002 81.9543 8.7285 81.9543H12.3174V83.4446C12.3174 83.6747 12.4708 83.8336 12.6845 83.8336ZM12.3174 81.2913H9.05725V81.2694C9.85173 79.9708 10.8763 78.4914 12.3064 76.5025H12.3174V81.2913ZM17.8952 83.8665C19.6923 83.8665 20.7553 82.2775 20.7553 79.779C20.7553 77.297 19.6869 75.708 17.8952 75.708C16.109 75.708 15.0296 77.3024 15.0296 79.7845C15.0296 82.283 16.098 83.8665 17.8952 83.8665ZM17.8952 83.209C16.5583 83.209 15.7857 81.8776 15.7857 79.779C15.7857 77.7189 16.5747 76.371 17.8952 76.371C19.2211 76.371 20.0047 77.7079 20.0047 79.7845C20.0047 81.8776 19.2321 83.209 17.8952 83.209ZM24.5907 83.8665C26.3879 83.8665 27.4509 82.2775 27.4509 79.779C27.4509 77.297 26.3824 75.708 24.5907 75.708C22.8045 75.708 21.7251 77.3024 21.7251 79.7845C21.7251 82.283 22.7936 83.8665 24.5907 83.8665ZM24.5907 83.209C23.2538 83.209 22.4813 81.8776 22.4813 79.779C22.4813 77.7189 23.2703 76.371 24.5907 76.371C25.9167 76.371 26.7002 77.7079 26.7002 79.7845C26.7002 81.8776 25.9277 83.209 24.5907 83.209ZM28.8809 83.7405H33.3903C33.5985 83.7405 33.741 83.609 33.741 83.4062C33.741 83.2035 33.5985 83.072 33.3903 83.072H29.5713V83.0501L31.752 80.7762C33.0835 79.3955 33.4835 78.7435 33.4835 77.8942C33.4835 76.6285 32.4643 75.708 31.0617 75.708C29.5713 75.708 28.6782 76.6778 28.5522 77.5928C28.5412 77.6695 28.5358 77.7243 28.5358 77.7901C28.5358 77.9873 28.6618 78.1298 28.8809 78.1298C29.0892 78.1298 29.1768 78.0202 29.2207 77.8558C29.4289 76.9737 30.0699 76.3655 31.0726 76.3655C32.026 76.3655 32.7383 77.0394 32.7383 77.9325C32.7383 78.6284 32.4424 79.1051 31.3192 80.2886L28.722 83.0117C28.5467 83.198 28.5084 83.2693 28.5084 83.4227C28.5084 83.6199 28.6563 83.7405 28.8809 83.7405ZM39.7023 83.8665C41.2475 83.8665 42.4091 82.9131 42.4091 81.5707C42.4091 80.4475 41.6146 79.7188 40.4365 79.6256V79.6037C41.4502 79.401 42.1241 78.7161 42.1241 77.7353C42.1241 76.6011 41.1817 75.708 39.6749 75.708C38.5681 75.708 37.7024 76.2285 37.3463 77.0613C37.2531 77.2531 37.2148 77.4285 37.2148 77.6093C37.2148 77.8339 37.3353 77.9599 37.549 77.9599C37.7517 77.9599 37.8175 77.8613 37.8942 77.6312C38.1189 76.8422 38.7325 76.3655 39.6749 76.3655C40.7434 76.3655 41.368 76.9682 41.368 77.823C41.368 78.6996 40.6393 79.3243 39.5818 79.3243H38.9298C38.727 79.3243 38.5901 79.4558 38.5901 79.6475C38.5901 79.8393 38.727 79.9653 38.9298 79.9653H39.6147C40.8749 79.9653 41.6529 80.5571 41.6474 81.5926C41.642 82.5241 40.8475 83.209 39.7023 83.209C38.6449 83.209 37.96 82.694 37.7408 81.9378C37.6641 81.7022 37.5655 81.6036 37.3901 81.6036C37.1764 81.6036 37.0449 81.7461 37.0449 81.9597C37.0449 82.1406 37.0833 82.3104 37.1874 82.5077C37.5874 83.3624 38.4914 83.8665 39.7023 83.8665ZM45.9431 83.8336C46.1568 83.8336 46.3048 83.6747 46.3048 83.4446V76.1518C46.3048 75.8943 46.1513 75.7409 45.9048 75.7409C45.7349 75.7409 45.6363 75.7792 45.4171 75.9381L43.5432 77.2148C43.3844 77.3298 43.335 77.4175 43.335 77.5545C43.335 77.7408 43.4556 77.8668 43.6364 77.8668C43.7295 77.8668 43.8063 77.8394 43.8884 77.7791L45.5651 76.6559H45.5815V83.4446C45.5815 83.6747 45.7294 83.8336 45.9431 83.8336ZM50.9895 83.8665C52.7866 83.8665 53.8496 82.2775 53.8496 79.779C53.8496 77.297 52.7812 75.708 50.9895 75.708C49.2032 75.708 48.1239 77.3024 48.1239 79.7845C48.1239 82.283 49.1923 83.8665 50.9895 83.8665ZM50.9895 83.209C49.6525 83.209 48.88 81.8776 48.88 79.779C48.88 77.7189 49.669 76.371 50.9895 76.371C52.3154 76.371 53.099 77.7079 53.099 79.7845C53.099 81.8776 52.3264 83.209 50.9895 83.209ZM57.685 83.8665C59.4822 83.8665 60.5452 82.2775 60.5452 79.779C60.5452 77.297 59.4767 75.708 57.685 75.708C55.8988 75.708 54.8194 77.3024 54.8194 79.7845C54.8194 82.283 55.8879 83.8665 57.685 83.8665ZM57.685 83.209C56.3481 83.209 55.5755 81.8776 55.5755 79.779C55.5755 77.7189 56.3645 76.371 57.685 76.371C59.011 76.371 59.7945 77.7079 59.7945 79.7845C59.7945 81.8776 59.022 83.209 57.685 83.209ZM66.6819 83.8665C68.479 83.8665 69.542 82.2775 69.542 79.779C69.542 77.297 68.4735 75.708 66.6819 75.708C64.8956 75.708 63.8162 77.3024 63.8162 79.7845C63.8162 82.283 64.8847 83.8665 66.6819 83.8665ZM66.6819 83.209C65.3449 83.209 64.5724 81.8776 64.5724 79.779C64.5724 77.7189 65.3614 76.371 66.6819 76.371C68.0078 76.371 68.7913 77.7079 68.7913 79.7845C68.7913 81.8776 68.0188 83.209 66.6819 83.209ZM73.3774 83.8665C75.1746 83.8665 76.2376 82.2775 76.2376 79.779C76.2376 77.297 75.1691 75.708 73.3774 75.708C71.5912 75.708 70.5118 77.3024 70.5118 79.7845C70.5118 82.283 71.5803 83.8665 73.3774 83.8665ZM73.3774 83.209C72.0405 83.209 71.2679 81.8776 71.2679 79.779C71.2679 77.7189 72.0569 76.371 73.3774 76.371C74.7034 76.371 75.4869 77.7079 75.4869 79.7845C75.4869 81.8776 74.7143 83.209 73.3774 83.209ZM80.073 83.8665C81.8702 83.8665 82.9331 82.2775 82.9331 79.779C82.9331 77.297 81.8647 75.708 80.073 75.708C78.2868 75.708 77.2074 77.3024 77.2074 79.7845C77.2074 82.283 78.2758 83.8665 80.073 83.8665ZM80.073 83.209C78.7361 83.209 77.9635 81.8776 77.9635 79.779C77.9635 77.7189 78.7525 76.371 80.073 76.371C81.399 76.371 82.1825 77.7079 82.1825 79.7845C82.1825 81.8776 81.4099 83.209 80.073 83.209ZM86.7686 83.8665C88.5657 83.8665 89.6287 82.2775 89.6287 79.779C89.6287 77.297 88.5602 75.708 86.7686 75.708C84.9823 75.708 83.9029 77.3024 83.9029 79.7845C83.9029 82.283 84.9714 83.8665 86.7686 83.8665ZM86.7686 83.209C85.4316 83.209 84.6591 81.8776 84.6591 79.779C84.6591 77.7189 85.4481 76.371 86.7686 76.371C88.0945 76.371 88.878 77.7079 88.878 79.7845C88.878 81.8776 88.1055 83.209 86.7686 83.209ZM95.7654 83.8665C97.5626 83.8665 98.6255 82.2775 98.6255 79.779C98.6255 77.297 97.5571 75.708 95.7654 75.708C93.9792 75.708 92.8998 77.3024 92.8998 79.7845C92.8998 82.283 93.9682 83.8665 95.7654 83.8665ZM95.7654 83.209C94.4285 83.209 93.6559 81.8776 93.6559 79.779C93.6559 77.7189 94.4449 76.371 95.7654 76.371C97.0913 76.371 97.8749 77.7079 97.8749 79.7845C97.8749 81.8776 97.1023 83.209 95.7654 83.209ZM102.461 83.8665C104.258 83.8665 105.321 82.2775 105.321 79.779C105.321 77.297 104.253 75.708 102.461 75.708C100.675 75.708 99.5953 77.3024 99.5953 79.7845C99.5953 82.283 100.664 83.8665 102.461 83.8665ZM102.461 83.209C101.124 83.209 100.351 81.8776 100.351 79.779C100.351 77.7189 101.14 76.371 102.461 76.371C103.787 76.371 104.57 77.7079 104.57 79.7845C104.57 81.8776 103.798 83.209 102.461 83.209ZM109.157 83.8665C110.954 83.8665 112.017 82.2775 112.017 79.779C112.017 77.297 110.948 75.708 109.157 75.708C107.37 75.708 106.291 77.3024 106.291 79.7845C106.291 82.283 107.359 83.8665 109.157 83.8665ZM109.157 83.209C107.82 83.209 107.047 81.8776 107.047 79.779C107.047 77.7189 107.836 76.371 109.157 76.371C110.482 76.371 111.266 77.7079 111.266 79.7845C111.266 81.8776 110.493 83.209 109.157 83.209ZM115.852 83.8665C117.649 83.8665 118.712 82.2775 118.712 79.779C118.712 77.297 117.644 75.708 115.852 75.708C114.066 75.708 112.986 77.3024 112.986 79.7845C112.986 82.283 114.055 83.8665 115.852 83.8665ZM115.852 83.209C114.515 83.209 113.743 81.8776 113.743 79.779C113.743 77.7189 114.532 76.371 115.852 76.371C117.178 76.371 117.962 77.7079 117.962 79.7845C117.962 81.8776 117.189 83.209 115.852 83.209Z" fill="white"/>
<g filter="url(#filter0_d)">
<circle cx="139.466" cy="75.3436" r="48.0916" fill="#D8D8D8"/>
</g>
<mask id="mask2" mask-type="alpha" maskUnits="userSpaceOnUse" x="91" y="27" width="97" height="97">
<circle cx="139.466" cy="75.3436" r="48.0916" fill="white"/>
</mask>
<g mask="url(#mask2)">
<path fill-rule="evenodd" clip-rule="evenodd" d="M116.251 -142.671H352.154C363.082 -142.671 371.936 -133.851 371.936 -122.973V158.245C371.936 169.119 363.082 177.939 352.154 177.939H-119.656C-130.58 177.939 -139.438 169.119 -139.438 158.245V-122.973C-139.438 -133.851 -130.58 -142.671 -119.656 -142.671H116.251Z" fill="#D83275"/>
<path d="M-103.837 85.3384C-103.301 85.3384 -102.907 84.9298 -102.907 84.3381V80.5058H-100.667C-100.145 80.5058 -99.7648 80.1676 -99.7648 79.6463C-99.7648 79.125 -100.145 78.8009 -100.667 78.8009H-102.907V66.036C-102.907 65.0498 -103.456 64.5284 -104.471 64.5284C-105.302 64.5284 -105.809 64.8948 -106.64 66.0924C-109.726 70.4178 -112.671 74.6728 -114.671 77.9415C-115.024 78.5614 -115.136 78.8996 -115.136 79.3927C-115.136 80.069 -114.7 80.5058 -114.009 80.5058H-104.781V84.3381C-104.781 84.9298 -104.386 85.3384 -103.837 85.3384ZM-104.781 78.8009H-113.164V78.7446C-111.121 75.4054 -108.486 71.6013 -104.809 66.4869H-104.781V78.8009ZM-90.4377 85.4229C-85.8164 85.4229 -83.0831 81.337 -83.0831 74.9123C-83.0831 68.5298 -85.8305 64.4439 -90.4377 64.4439C-95.0308 64.4439 -97.8064 68.5439 -97.8064 74.9264C-97.8064 81.3511 -95.059 85.4229 -90.4377 85.4229ZM-90.4377 83.7322C-93.8755 83.7322 -95.8621 80.3085 -95.8621 74.9123C-95.8621 69.6147 -93.8332 66.1487 -90.4377 66.1487C-87.0281 66.1487 -85.0133 69.5865 -85.0133 74.9264C-85.0133 80.3085 -86.9999 83.7322 -90.4377 83.7322ZM-73.2205 85.4229C-68.5992 85.4229 -65.8659 81.337 -65.8659 74.9123C-65.8659 68.5298 -68.6133 64.4439 -73.2205 64.4439C-77.8136 64.4439 -80.5892 68.5439 -80.5892 74.9264C-80.5892 81.3511 -77.8418 85.4229 -73.2205 85.4229ZM-73.2205 83.7322C-76.6583 83.7322 -78.6449 80.3085 -78.6449 74.9123C-78.6449 69.6147 -76.616 66.1487 -73.2205 66.1487C-69.8109 66.1487 -67.7961 69.5865 -67.7961 74.9264C-67.7961 80.3085 -69.7827 83.7322 -73.2205 83.7322ZM-56.0033 85.4229C-51.382 85.4229 -48.6487 81.337 -48.6487 74.9123C-48.6487 68.5298 -51.3961 64.4439 -56.0033 64.4439C-60.5965 64.4439 -63.3721 68.5439 -63.3721 74.9264C-63.3721 81.3511 -60.6247 85.4229 -56.0033 85.4229ZM-56.0033 83.7322C-59.4411 83.7322 -61.4277 80.3085 -61.4277 74.9123C-61.4277 69.6147 -59.3989 66.1487 -56.0033 66.1487C-52.5937 66.1487 -50.579 69.5865 -50.579 74.9264C-50.579 80.3085 -52.5656 83.7322 -56.0033 83.7322ZM-32.8687 85.4229C-28.2474 85.4229 -25.514 81.337 -25.514 74.9123C-25.514 68.5298 -28.2614 64.4439 -32.8687 64.4439C-37.4618 64.4439 -40.2374 68.5439 -40.2374 74.9264C-40.2374 81.3511 -37.49 85.4229 -32.8687 85.4229ZM-32.8687 83.7322C-36.3065 83.7322 -38.2931 80.3085 -38.2931 74.9123C-38.2931 69.6147 -36.2642 66.1487 -32.8687 66.1487C-29.459 66.1487 -27.4443 69.5865 -27.4443 74.9264C-27.4443 80.3085 -29.4309 83.7322 -32.8687 83.7322ZM-15.6515 85.4229C-11.0302 85.4229 -8.29686 81.337 -8.29686 74.9123C-8.29686 68.5298 -11.0443 64.4439 -15.6515 64.4439C-20.2446 64.4439 -23.0202 68.5439 -23.0202 74.9264C-23.0202 81.3511 -20.2728 85.4229 -15.6515 85.4229ZM-15.6515 83.7322C-19.0893 83.7322 -21.0759 80.3085 -21.0759 74.9123C-21.0759 69.6147 -19.047 66.1487 -15.6515 66.1487C-12.2419 66.1487 -10.2271 69.5865 -10.2271 74.9264C-10.2271 80.3085 -12.2137 83.7322 -15.6515 83.7322ZM1.56568 85.4229C6.18698 85.4229 8.92031 81.337 8.92031 74.9123C8.92031 68.5298 6.17289 64.4439 1.56568 64.4439C-3.02745 64.4439 -5.80305 68.5439 -5.80305 74.9264C-5.80305 81.3511 -3.05563 85.4229 1.56568 85.4229ZM1.56568 83.7322C-1.87212 83.7322 -3.85872 80.3085 -3.85872 74.9123C-3.85872 69.6147 -1.82985 66.1487 1.56568 66.1487C4.9753 66.1487 6.99007 69.5865 6.99007 74.9264C6.99007 80.3085 5.00348 83.7322 1.56568 83.7322ZM18.7828 85.4229C23.4042 85.4229 26.1375 81.337 26.1375 74.9123C26.1375 68.5298 23.3901 64.4439 18.7828 64.4439C14.1897 64.4439 11.4141 68.5439 11.4141 74.9264C11.4141 81.3511 14.1615 85.4229 18.7828 85.4229ZM18.7828 83.7322C15.345 83.7322 13.3585 80.3085 13.3585 74.9123C13.3585 69.6147 15.3873 66.1487 18.7828 66.1487C22.1925 66.1487 24.2072 69.5865 24.2072 74.9264C24.2072 80.3085 22.2206 83.7322 18.7828 83.7322ZM41.9175 85.4229C46.5388 85.4229 49.2722 81.337 49.2722 74.9123C49.2722 68.5298 46.5248 64.4439 41.9175 64.4439C37.3244 64.4439 34.5488 68.5439 34.5488 74.9264C34.5488 81.3511 37.2962 85.4229 41.9175 85.4229ZM41.9175 83.7322C38.4797 83.7322 36.4932 80.3085 36.4932 74.9123C36.4932 69.6147 38.522 66.1487 41.9175 66.1487C45.3272 66.1487 47.3419 69.5865 47.3419 74.9264C47.3419 80.3085 45.3553 83.7322 41.9175 83.7322ZM59.1347 85.4229C63.756 85.4229 66.4893 81.337 66.4893 74.9123C66.4893 68.5298 63.7419 64.4439 59.1347 64.4439C54.5416 64.4439 51.766 68.5439 51.766 74.9264C51.766 81.3511 54.5134 85.4229 59.1347 85.4229ZM59.1347 83.7322C55.6969 83.7322 53.7103 80.3085 53.7103 74.9123C53.7103 69.6147 55.7392 66.1487 59.1347 66.1487C62.5443 66.1487 64.5591 69.5865 64.5591 74.9264C64.5591 80.3085 62.5725 83.7322 59.1347 83.7322ZM76.3519 85.4229C80.9732 85.4229 83.7065 81.337 83.7065 74.9123C83.7065 68.5298 80.9591 64.4439 76.3519 64.4439C71.7587 64.4439 68.9831 68.5439 68.9831 74.9264C68.9831 81.3511 71.7306 85.4229 76.3519 85.4229ZM76.3519 83.7322C72.9141 83.7322 70.9275 80.3085 70.9275 74.9123C70.9275 69.6147 72.9563 66.1487 76.3519 66.1487C79.7615 66.1487 81.7763 69.5865 81.7763 74.9264C81.7763 80.3085 79.7897 83.7322 76.3519 83.7322ZM93.569 85.4229C98.1904 85.4229 100.924 81.337 100.924 74.9123C100.924 68.5298 98.1763 64.4439 93.569 64.4439C88.9759 64.4439 86.2003 68.5439 86.2003 74.9264C86.2003 81.3511 88.9477 85.4229 93.569 85.4229ZM93.569 83.7322C90.1313 83.7322 88.1447 80.3085 88.1447 74.9123C88.1447 69.6147 90.1735 66.1487 93.569 66.1487C96.9787 66.1487 98.9934 69.5865 98.9934 74.9264C98.9934 80.3085 97.0068 83.7322 93.569 83.7322ZM116.704 85.4229C121.325 85.4229 124.058 81.337 124.058 74.9123C124.058 68.5298 121.311 64.4439 116.704 64.4439C112.111 64.4439 109.335 68.5439 109.335 74.9264C109.335 81.3511 112.082 85.4229 116.704 85.4229ZM116.704 83.7322C113.266 83.7322 111.279 80.3085 111.279 74.9123C111.279 69.6147 113.308 66.1487 116.704 66.1487C120.113 66.1487 122.128 69.5865 122.128 74.9264C122.128 80.3085 120.142 83.7322 116.704 83.7322ZM133.921 85.4229C138.542 85.4229 141.276 81.337 141.276 74.9123C141.276 68.5298 138.528 64.4439 133.921 64.4439C129.328 64.4439 126.552 68.5439 126.552 74.9264C126.552 81.3511 129.3 85.4229 133.921 85.4229ZM133.921 83.7322C130.483 83.7322 128.497 80.3085 128.497 74.9123C128.497 69.6147 130.525 66.1487 133.921 66.1487C137.331 66.1487 139.345 69.5865 139.345 74.9264C139.345 80.3085 137.359 83.7322 133.921 83.7322ZM151.138 85.4229C155.759 85.4229 158.493 81.337 158.493 74.9123C158.493 68.5298 155.745 64.4439 151.138 64.4439C146.545 64.4439 143.769 68.5439 143.769 74.9264C143.769 81.3511 146.517 85.4229 151.138 85.4229ZM151.138 83.7322C147.7 83.7322 145.714 80.3085 145.714 74.9123C145.714 69.6147 147.743 66.1487 151.138 66.1487C154.548 66.1487 156.562 69.5865 156.562 74.9264C156.562 80.3085 154.576 83.7322 151.138 83.7322ZM168.355 85.4229C172.977 85.4229 175.71 81.337 175.71 74.9123C175.71 68.5298 172.962 64.4439 168.355 64.4439C163.762 64.4439 160.987 68.5439 160.987 74.9264C160.987 81.3511 163.734 85.4229 168.355 85.4229ZM168.355 83.7322C164.917 83.7322 162.931 80.3085 162.931 74.9123C162.931 69.6147 164.96 66.1487 168.355 66.1487C171.765 66.1487 173.78 69.5865 173.78 74.9264C173.78 80.3085 171.793 83.7322 168.355 83.7322Z" fill="white"/>
</g>
<defs>
<filter id="filter0_d" x="68.9313" y="4.8092" width="141.069" height="141.069" filterUnits="userSpaceOnUse" color-interpolation-filters="sRGB">
<feFlood flood-opacity="0" result="BackgroundImageFix"/>
<feColorMatrix in="SourceAlpha" type="matrix" values="0 0 0 0 0 0 0 0 0 0 0 0 0 0 0 0 0 0 127 0" result="hardAlpha"/>
<feMorphology radius="6.41221" operator="dilate" in="SourceAlpha" result="effect1_dropShadow"/>
<feOffset/>
<feGaussianBlur stdDeviation="8.01527"/>
<feColorMatrix type="matrix" values="0 0 0 0 0.254902 0 0 0 0 0.301961 0 0 0 0 0.329412 0 0 0 0.2 0"/>
<feBlend mode="normal" in2="BackgroundImageFix" result="effect1_dropShadow"/>
<feBlend mode="normal" in="SourceGraphic" in2="effect1_dropShadow" result="shape"/>
</filter>
</defs>
</svg>
