<svg width="220" height="268" viewBox="0 0 220 268" fill="none" xmlns="http://www.w3.org/2000/svg">
<mask id="mask0" mask-type="alpha" maskUnits="userSpaceOnUse" x="0" y="0" width="220" height="268">
<rect width="219.941" height="268" fill="#C4C4C4"/>
</mask>
<g mask="url(#mask0)">
<path fill-rule="evenodd" clip-rule="evenodd" d="M123.166 56.8337C118.195 53.7719 106.073 47.3472 89.8258 48.2693C67.2055 49.5612 52.0994 64.1616 48.9828 67.5626C46.5962 64.9599 37.1783 55.7973 22.7458 51.0625C23.076 51.3312 23.4005 51.6017 23.7306 51.8723C24.1777 52.2381 24.6173 52.6116 25.0399 53.0117C26.7812 54.5455 28.3584 56.2641 29.8753 58.0341C30.6016 58.9448 31.3506 59.8422 32.0147 60.8006C32.3543 61.2827 32.7052 61.7285 33.0297 62.2448C33.3579 62.7517 33.6919 63.2547 34.0126 63.7691C36.5331 67.9055 38.3574 72.5069 39.3687 77.2873C40.3799 82.0678 40.5553 87.0254 39.9309 91.8782C39.3007 96.7292 37.8688 101.489 35.6332 105.858C33.4108 110.228 30.4073 114.209 26.8133 117.514L25.4399 118.724L24.0117 119.858C23.5306 120.235 22.9948 120.599 22.4873 120.963C21.961 121.312 21.4271 121.653 20.8913 121.984C18.7198 123.278 16.3974 124.318 13.992 125.069C9.18113 126.593 4.04014 126.858 -0.821636 125.995C-5.68341 125.107 -10.2867 123.095 -14.1373 120.182C-16.0673 118.736 -17.8199 117.08 -19.3594 115.277C-20.131 114.378 -20.8423 113.437 -21.5101 112.471C-21.8478 111.993 -22.1553 111.444 -22.4723 110.933C-22.776 110.407 -23.1175 109.908 -23.3628 109.35C-23.6231 108.803 -23.8835 108.258 -24.1419 107.711C-24.2778 107.443 -24.3853 107.163 -24.4872 106.879L-24.7966 106.031L-25.1003 105.183L-25.2475 104.76L-25.3626 104.326C-25.5116 103.746 -25.6606 103.171 -25.8078 102.594L-25.9153 102.159L-25.9889 101.721L-26.1304 100.845L-26.2662 99.9682L-26.3304 99.53L-26.3643 99.0899C-26.404 98.503 -26.4398 97.9181 -26.4794 97.3332L-26.504 96.8968L-26.4945 96.4567L-26.4757 95.5822L-26.4492 94.7095L-26.4341 94.277L-26.387 93.8426C-26.3191 93.2672 -26.2511 92.6956 -26.1832 92.1221L-26.1304 91.6934L-26.0455 91.2685L-25.8682 90.4264L-25.6889 89.5861C-25.6323 89.3041 -25.5682 89.0279 -25.4758 88.7554C-25.1399 87.6637 -24.8343 86.5681 -24.3664 85.5335C-24.1419 85.0115 -23.9514 84.4818 -23.6929 83.9788C-23.4288 83.4815 -23.1684 82.9842 -22.9062 82.4888C-22.6572 81.9839 -22.3459 81.519 -22.0365 81.0522C-21.729 80.5873 -21.4271 80.1205 -21.1102 79.6652C-20.7611 79.2327 -20.414 78.802 -20.0669 78.3714L-19.5443 77.7313C-19.365 77.5236 -19.1632 77.333 -18.9726 77.1368C-18.5859 76.7462 -18.201 76.3575 -17.8161 75.9707C-17.4351 75.5821 -16.9898 75.262 -16.5785 74.9095C-16.1522 74.5703 -15.7635 74.214 -15.3032 73.8978C-14.8353 73.5872 -14.3693 73.2766 -13.9052 72.968C-11.9847 71.8229 -9.9226 70.9464 -7.79263 70.4434C-5.65888 69.9633 -3.49495 69.8166 -1.38384 69.9728C0.725376 70.1691 2.75914 70.6892 4.65894 71.4418C6.54932 72.2325 8.27368 73.2938 9.82446 74.5151C10.198 74.8352 10.5583 75.1667 10.9206 75.4944L11.4564 75.9898L11.9469 76.5271C12.2695 76.8872 12.5921 77.2397 12.9015 77.6036C13.1864 77.9866 13.4656 78.3676 13.7467 78.7468L14.1599 79.3184L14.5372 79.9452L14.907 80.5721C15.0315 80.7798 15.1466 80.9913 15.2447 81.2123C15.4447 81.6505 15.6484 82.083 15.8465 82.5174C16.005 82.9671 16.1634 83.4129 16.3219 83.8607C16.8841 85.6612 17.1652 87.4979 17.1973 89.2965C17.1954 91.099 16.9445 92.848 16.4898 94.5019C16.0257 96.1557 15.3069 97.6875 14.4617 99.0841C13.592 100.475 12.5374 101.689 11.3998 102.742C11.1111 103.001 10.8017 103.234 10.5055 103.474C10.2093 103.712 9.91502 103.948 9.57354 104.156C9.23962 104.364 8.92455 104.594 8.57742 104.768C8.23217 104.943 7.88881 105.116 7.54734 105.288C6.14182 105.899 4.6797 106.252 3.25343 106.362C1.82338 106.49 0.431068 106.332 -0.857479 106.006C-1.50647 105.861 -2.11396 105.614 -2.71201 105.393C-3.28931 105.111 -3.86661 104.863 -4.37788 104.518C-5.43815 103.893 -6.32674 103.099 -7.10213 102.289C-7.46247 101.856 -7.84546 101.46 -8.13411 101.007C-8.28503 100.787 -8.43407 100.568 -8.58123 100.353C-8.72272 100.13 -8.84913 99.8882 -8.97553 99.6595L-9.16419 99.3147L-9.32078 98.9584C-9.42077 98.7221 -9.52264 98.4916 -9.6132 98.2553C-9.76036 97.7771 -9.93204 97.3198 -10.0132 96.8511C-10.2377 95.9308 -10.2735 95.0277 -10.2716 94.1951C-10.215 92.5146 -9.78299 91.0856 -9.24154 89.9634C-8.97553 89.3956 -8.65481 88.9174 -8.36238 88.4906C-8.03223 88.0847 -7.74735 87.7189 -7.4304 87.4427C-7.27948 87.2998 -7.14175 87.1645 -7.00026 87.0502C-6.8531 86.9435 -6.71727 86.8444 -6.59087 86.7529C-6.46069 86.6634 -6.34372 86.5853 -6.23241 86.5167C-6.11733 86.4576 -6.0079 86.4062 -5.9098 86.3643C-5.52116 86.1966 -5.29288 86.1699 -5.21365 86.2709C-5.03819 86.4976 -5.5721 87.134 -6.23429 88.382C-6.41164 88.683 -6.54936 89.0565 -6.72481 89.4413C-6.86253 89.8453 -7.02101 90.274 -7.12666 90.7598C-7.34739 91.7182 -7.45493 92.8499 -7.28702 94.0655C-7.17571 94.6695 -7.05874 95.2983 -6.79839 95.9099C-6.6984 96.2243 -6.51917 96.5158 -6.38334 96.8244C-6.29467 96.9731 -6.20411 97.1198 -6.11544 97.2665L-5.97961 97.4894L-5.81924 97.699C-5.70982 97.84 -5.61549 97.9848 -5.49475 98.1239C-5.37023 98.261 -5.24194 98.402 -5.11177 98.543C-4.87406 98.8403 -4.56088 99.0708 -4.28167 99.3395C-3.67418 99.8234 -3.02141 100.288 -2.27243 100.606C-1.91398 100.799 -1.51024 100.902 -1.12538 101.049C-0.717869 101.138 -0.319794 101.266 0.102802 101.302C0.938568 101.416 1.81206 101.426 2.67235 101.25C3.53264 101.087 4.37973 100.787 5.17776 100.345C5.37019 100.224 5.56452 100.1 5.75884 99.9758C5.95693 99.8558 6.12672 99.6881 6.31538 99.5509C6.50216 99.4233 6.68327 99.2404 6.86438 99.0613C7.04361 98.8822 7.23793 98.7183 7.40961 98.5297C8.09068 97.7657 8.70759 96.9197 9.19622 95.9747C9.65844 95.0163 10.049 93.9969 10.2584 92.909C10.4621 91.8211 10.5338 90.6931 10.4546 89.5576C10.3395 88.4258 10.0754 87.3036 9.65844 86.2347L9.31508 85.4421C9.17358 85.1906 9.03397 84.9372 8.89059 84.6838C8.82645 84.5542 8.7491 84.4323 8.66042 84.316L8.4114 83.9597L8.16614 83.5977L7.8624 83.2452C7.66241 83.0071 7.46244 82.7689 7.26245 82.5288C7.03984 82.3116 6.81533 82.0963 6.59083 81.881L6.25878 81.5514L5.89089 81.2656C5.64752 81.0713 5.40416 80.8788 5.1589 80.6845C4.12315 79.9929 3.01383 79.4003 1.82338 78.9869C0.627274 78.6115 -0.621655 78.3734 -1.88945 78.3276C-3.15913 78.3238 -4.43071 78.4915 -5.66454 78.8402C-6.89461 79.2136 -8.05864 79.8042 -9.15098 80.5321C-9.41322 80.7321 -9.67735 80.9322 -9.94524 81.1265C-10.2113 81.3266 -10.4659 81.6029 -10.732 81.8334C-10.9866 82.083 -11.2753 82.2964 -11.5074 82.5708L-12.2224 83.3767C-12.3375 83.512 -12.4695 83.6377 -12.5771 83.7806L-12.8921 84.2227L-13.5317 85.0972L-14.0844 86.0403C-14.2712 86.3528 -14.4655 86.6634 -14.6033 87.0044C-17.2502 92.2441 -17.1898 99.0803 -14.141 104.312C-13.9863 104.657 -13.7411 104.953 -13.5392 105.271C-13.3185 105.585 -13.143 105.903 -12.8959 106.22C-12.411 106.858 -11.8998 107.477 -11.3545 108.06C-10.266 109.228 -9.05477 110.274 -7.74924 111.171C-5.14195 112.982 -2.11018 114.14 1.01403 114.592C4.13824 115.011 7.36245 114.723 10.332 113.656C11.8167 113.128 13.2449 112.427 14.5844 111.566L15.5711 110.886C15.8861 110.632 16.2031 110.411 16.5257 110.141L17.4954 109.314L18.4217 108.441C20.8384 106.06 22.825 103.243 24.2796 100.157C25.7436 97.0721 26.6435 93.715 26.985 90.3216C27.3227 86.9282 27.1095 83.4929 26.3285 80.2329C25.5436 76.971 24.2249 73.8844 22.4572 71.1274L21.7667 70.1138C21.5478 69.7747 21.2592 69.4355 21.0101 69.0945C20.5139 68.4009 19.948 67.7684 19.4103 67.1167C18.2764 65.8649 17.1237 64.6436 15.8503 63.5786C15.5446 63.2966 15.222 63.0375 14.8956 62.784C14.5693 62.5306 14.2561 62.262 13.9222 62.02C13.2524 61.5456 12.5978 61.0502 11.9016 60.6253C11.2281 60.1661 10.5093 59.7851 9.81314 59.3735C9.45658 59.1811 9.09246 59.0058 8.734 58.8191L8.19821 58.5447L7.64732 58.2989C4.73441 56.95 1.67057 56.0811 -1.3895 55.6086C-2.92331 55.4009 -4.45523 55.2657 -5.97583 55.258C-7.49455 55.2657 -9.00383 55.3228 -10.4792 55.54C-16.405 56.2984 -21.8101 58.6876 -26.2134 62.0086C-26.77 62.3954 -27.3209 62.8774 -27.8699 63.3233C-28.1415 63.5519 -28.4226 63.7691 -28.6868 64.0015C-28.949 64.2397 -29.2075 64.476 -29.4678 64.7141C-29.7244 64.9485 -29.9847 65.1828 -30.2413 65.4172C-30.4979 65.6516 -30.7318 65.9088 -30.9771 66.1507C-31.4582 66.648 -31.9657 67.1129 -32.4052 67.6312C-32.8524 68.1456 -33.3259 68.6296 -33.7485 69.1497C-34.173 69.6718 -34.5918 70.1881 -35.0088 70.7006C-35.4012 71.2322 -35.7879 71.76 -36.1728 72.2859C-36.5595 72.8079 -36.8954 73.3605 -37.2557 73.8863C-38.6461 76.0355 -39.8649 78.2819 -40.91 80.5949C-41.9439 82.9156 -42.7797 85.3087 -43.4551 87.7304C-43.6079 88.3401 -43.8022 88.9383 -43.9267 89.5537C-44.0626 90.1654 -44.1965 90.7789 -44.3323 91.3867C-44.4399 92.004 -44.5474 92.6175 -44.6531 93.2329C-44.7738 93.8445 -44.821 94.4657 -44.9096 95.0792C-45.2002 97.5446 -45.3605 100.012 -45.2926 102.458C-45.1172 112.256 -42.0722 121.557 -37.118 129.066C-36.8331 129.546 -36.4746 130.013 -36.152 130.484C-35.82 130.954 -35.4898 131.425 -35.1616 131.892C-34.4748 132.801 -33.7674 133.688 -33.075 134.578C-32.3298 135.42 -31.6223 136.289 -30.8696 137.105C-30.4885 137.507 -30.1055 137.909 -29.7244 138.307C-29.3471 138.709 -28.9716 139.111 -28.5679 139.477C-25.438 142.537 -22.0761 145.172 -18.601 147.372C-11.6432 151.787 -4.25714 154.434 2.70254 155.697C6.18898 156.333 9.57166 156.634 12.7921 156.697C16.0125 156.731 19.0575 156.503 21.9063 156.148C27.5906 155.361 32.4429 153.992 36.3407 152.587C40.2516 151.185 43.2022 149.76 45.3322 148.937C47.4037 148.024 48.6677 147.714 48.9809 148.125C49.2941 148.533 48.6338 149.647 47.0245 151.423C45.3567 153.107 42.7193 155.457 38.8442 157.838C34.9804 160.22 29.8734 162.623 23.5476 164.355C20.3819 165.18 16.9219 165.854 13.1977 166.212C9.47166 166.542 5.49094 166.578 1.32721 166.193C-6.98705 165.433 -16.0635 162.935 -24.7909 158.099C-32.9109 153.612 -40.6987 147.113 -47 138.764C-41.3534 154.632 -32.6618 165.965 -26.5417 173.786C-8.70575 196.573 11.4054 207.773 20.6253 212.784C31.6751 218.789 45.3982 224.839 48.9828 224.839C52.8069 224.839 66.2886 218.789 77.3422 212.784C86.5564 207.773 106.669 196.573 124.509 173.786C132.34 163.775 144.383 148.018 148.863 124.362C150.767 114.3 152.955 101.931 147.831 87.4179C141.102 68.3552 126.556 58.9201 123.166 56.8337Z" fill="white" fill-opacity="0.2"/>
</g>
</svg>
