<svg width="128" height="39" viewBox="0 0 128 39" fill="none" xmlns="http://www.w3.org/2000/svg">
<path fill-rule="evenodd" clip-rule="evenodd" d="M27.9682 0.11555C23.3466 0.37713 20.2602 3.33481 19.6236 4.02363C19.1359 3.49651 17.2118 1.64037 14.263 0.68128C14.3306 0.73562 14.3968 0.79051 14.4643 0.84529C14.5556 0.91943 14.6455 0.995 14.7319 1.07607C15.0875 1.38682 15.4098 1.73497 15.7198 2.09357C15.8681 2.27793 16.0212 2.45976 16.1568 2.65391C16.2261 2.75159 16.2979 2.8419 16.3642 2.94651C16.4313 3.04903 16.4995 3.151 16.565 3.25517C17.08 4.09315 17.4527 5.02518 17.6593 5.99362C17.8659 6.96195 17.9017 7.96625 17.7742 8.94932C17.6454 9.93195 17.3528 10.896 16.8961 11.7809C16.442 12.6664 15.8283 13.4726 15.0941 14.1423L14.8135 14.3874L14.5218 14.6171C14.4234 14.6934 14.314 14.7671 14.2104 14.8409C14.1028 14.9114 13.9937 14.9805 13.8842 15.0477C13.4406 15.3098 12.966 15.5205 12.4747 15.6725C11.4918 15.9814 10.4414 16.035 9.44813 15.8602C8.45472 15.6803 7.51422 15.2728 6.72761 14.6826C6.33315 14.3897 5.97521 14.0543 5.66072 13.6891C5.50298 13.5071 5.35767 13.3163 5.22116 13.1206C5.15219 13.0238 5.08938 12.9126 5.0247 12.8092C4.96266 12.7026 4.89281 12.6015 4.84276 12.4885C4.78952 12.3777 4.73628 12.2673 4.68359 12.1566C4.65587 12.1021 4.63387 12.0454 4.61297 11.9879L4.54983 11.8161L4.48768 11.6443L4.45765 11.5587L4.43422 11.4707C4.40364 11.3534 4.37328 11.2368 4.34314 11.1198L4.32125 11.0318L4.30618 10.9431L4.27725 10.7655L4.24953 10.588L4.23633 10.4992L4.2294 10.4101C4.22137 10.2912 4.21411 10.1727 4.20597 10.0542L4.20091 9.96583L4.20289 9.87673L4.20663 9.69963L4.21213 9.52275L4.21521 9.43519L4.22489 9.34719C4.23875 9.23059 4.25261 9.11476 4.26647 8.9986L4.27725 8.91181L4.29463 8.82568L4.33082 8.65518L4.36745 8.48501C4.379 8.42781 4.39209 8.37193 4.41101 8.31671C4.47965 8.0955 4.54213 7.87363 4.63772 7.66408C4.68359 7.55826 4.72242 7.4509 4.77533 7.34904C4.82912 7.24839 4.88247 7.14763 4.93604 7.04731C4.98686 6.94501 5.05044 6.85074 5.11369 6.75625C5.1765 6.66209 5.2381 6.56749 5.303 6.47531C5.37428 6.38764 5.44512 6.30041 5.51618 6.21318L5.62288 6.08349C5.65951 6.04147 5.70076 6.00286 5.7397 5.96315C5.81868 5.88395 5.89733 5.80519 5.97598 5.72687C6.05386 5.64811 6.14483 5.58332 6.22887 5.51193C6.31588 5.44318 6.3953 5.37102 6.48935 5.307C6.58494 5.24408 6.6802 5.18116 6.77502 5.11857C7.16739 4.88669 7.58869 4.70915 8.02385 4.60729C8.45967 4.50994 8.90198 4.48024 9.33318 4.51192C9.76416 4.55163 10.1796 4.65701 10.5678 4.80947C10.954 4.96963 11.3064 5.18457 11.6232 5.43196C11.6995 5.49686 11.7731 5.56407 11.8472 5.6304L11.9566 5.73083L12.0568 5.83962C12.1227 5.91255 12.1887 5.98394 12.2519 6.05764C12.31 6.13519 12.3671 6.21241 12.4245 6.28919L12.5089 6.40513L12.586 6.53196L12.6616 6.65901C12.687 6.70103 12.7105 6.74382 12.7305 6.78859C12.7714 6.87736 12.813 6.96503 12.8535 7.05303C12.8858 7.14411 12.9183 7.23442 12.9506 7.32517C13.0655 7.68982 13.1229 8.06195 13.1295 8.42627C13.1292 8.79136 13.0778 9.14567 12.985 9.48073C12.8901 9.81568 12.7433 10.126 12.5706 10.4089C12.3928 10.6907 12.1774 10.9365 11.945 11.15C11.8859 11.2024 11.8228 11.2495 11.7623 11.2982C11.7018 11.3464 11.6416 11.3943 11.572 11.4363C11.5037 11.4784 11.4393 11.5252 11.3683 11.5603C11.2979 11.5957 11.2276 11.6309 11.158 11.6656C10.8708 11.7895 10.5721 11.8609 10.2806 11.8832C9.98845 11.9092 9.70399 11.8771 9.44065 11.8111C9.3081 11.7818 9.18413 11.7316 9.06181 11.6868C8.94389 11.6297 8.82586 11.5795 8.72147 11.5096C8.50488 11.3831 8.32327 11.2221 8.16498 11.0581C8.09128 10.9706 8.01296 10.8902 7.95411 10.7984C7.9232 10.754 7.89273 10.7095 7.8627 10.666C7.83377 10.6208 7.80803 10.5718 7.78218 10.5255L7.74368 10.4557L7.71167 10.3835C7.69121 10.3355 7.67042 10.2889 7.65183 10.241C7.6218 10.1442 7.58671 10.0515 7.5701 9.95659C7.52423 9.77014 7.51697 9.58721 7.5173 9.41869C7.52896 9.07813 7.61718 8.78872 7.72784 8.56135C7.78218 8.4464 7.84763 8.34949 7.90747 8.26303C7.9749 8.18086 8.03309 8.10672 8.09788 8.05073C8.12868 8.02169 8.15684 7.99441 8.18566 7.97131C8.2158 7.94953 8.24363 7.92962 8.26937 7.91103C8.29599 7.89288 8.31986 7.87704 8.34263 7.86318C8.36617 7.85119 8.3885 7.84074 8.40852 7.83227C8.48794 7.79828 8.53458 7.793 8.55075 7.81335C8.58661 7.85933 8.47749 7.98814 8.34219 8.24103C8.306 8.30197 8.27784 8.37765 8.24198 8.45553C8.21393 8.53748 8.18148 8.62427 8.15992 8.72272C8.11482 8.91676 8.09282 9.14611 8.12714 9.39229C8.14991 9.51472 8.17378 9.64199 8.22691 9.76596C8.24737 9.82954 8.284 9.88872 8.31183 9.9512C8.32987 9.98123 8.34846 10.011 8.3665 10.0407L8.39422 10.0859L8.427 10.1284C8.44944 10.1569 8.46869 10.1862 8.49333 10.2144C8.51874 10.2423 8.54492 10.2708 8.57154 10.2993C8.62005 10.3595 8.68418 10.4063 8.74116 10.4606C8.86535 10.5586 8.99867 10.6529 9.15157 10.7174C9.22483 10.7563 9.30733 10.7771 9.38598 10.8068C9.46925 10.825 9.55054 10.8509 9.63689 10.8582C9.80772 10.8814 9.98614 10.8832 10.1619 10.8478C10.3377 10.8146 10.5107 10.754 10.6739 10.6644C10.7131 10.6397 10.7528 10.6146 10.7925 10.5895C10.833 10.5652 10.8677 10.5313 10.9062 10.5035C10.9443 10.4777 10.9813 10.4405 11.0184 10.4043C11.055 10.3681 11.0947 10.3349 11.1297 10.2966C11.269 10.1418 11.3949 9.97045 11.4948 9.77905C11.5892 9.5849 11.669 9.37843 11.7118 9.1581C11.7534 8.93766 11.768 8.70919 11.752 8.47918C11.7284 8.24983 11.6744 8.02257 11.5892 7.80598L11.5191 7.64549C11.4902 7.59445 11.4617 7.54319 11.4324 7.49193C11.4193 7.46553 11.4035 7.44089 11.3853 7.41735L11.3344 7.34519L11.2844 7.27182L11.2223 7.20043C11.1814 7.15225 11.1405 7.10407 11.0998 7.05545C11.0542 7.01134 11.0084 6.96778 10.9625 6.92411L10.8947 6.85734L10.8195 6.79948C10.7698 6.7601 10.7201 6.72105 10.67 6.68178C10.4584 6.54175 10.2317 6.42163 9.98845 6.33781C9.74414 6.2618 9.48894 6.21362 9.22989 6.20427C8.9704 6.2035 8.71069 6.23749 8.45857 6.30811C8.20733 6.38379 7.9694 6.50336 7.74632 6.65087C7.69275 6.69135 7.63874 6.73183 7.58407 6.77132C7.52973 6.81191 7.47759 6.86768 7.42325 6.91443C7.37122 6.96503 7.31226 7.00826 7.26485 7.06381L7.11888 7.22705C7.09534 7.25455 7.06839 7.27996 7.04639 7.309L6.98193 7.39843L6.85125 7.57564L6.73839 7.7666C6.70022 7.82996 6.66051 7.89288 6.63235 7.96196C6.09159 9.02335 6.10391 10.4081 6.72684 11.468C6.75841 11.5378 6.80846 11.5977 6.84971 11.6621C6.89481 11.7258 6.93078 11.7903 6.98127 11.8543C7.08027 11.9837 7.18466 12.1091 7.29609 12.2272C7.51851 12.4638 7.76601 12.6757 8.03276 12.8574C8.56538 13.2241 9.18479 13.4589 9.82312 13.5502C10.4613 13.6351 11.1201 13.5768 11.7268 13.3608C12.0302 13.2538 12.322 13.1117 12.5957 12.9374L12.7972 12.7995C12.8616 12.7482 12.9263 12.7035 12.9923 12.6486L13.1904 12.4811L13.3797 12.3044C13.8734 11.822 14.2793 11.2515 14.5765 10.6263C14.8756 10.0014 15.0594 9.32134 15.1292 8.63395C15.1983 7.94656 15.1547 7.25059 14.9951 6.59026C14.8347 5.92949 14.5653 5.30425 14.2042 4.74578L14.063 4.54041C14.0183 4.47177 13.9593 4.40313 13.9085 4.33405C13.8071 4.19347 13.6915 4.06532 13.5817 3.93332C13.35 3.67977 13.1145 3.43238 12.8543 3.21667C12.7918 3.15947 12.7259 3.107 12.6592 3.05574C12.5926 3.00437 12.5286 2.94992 12.4604 2.90097C12.3234 2.80472 12.1898 2.70451 12.0475 2.61838C11.9099 2.52532 11.7631 2.44821 11.6208 2.36494C11.548 2.32589 11.4737 2.29036 11.4004 2.25252L11.291 2.19697L11.1783 2.14714C10.5832 1.87379 9.95732 1.6979 9.33208 1.6022C9.01869 1.56007 8.70574 1.53268 8.3951 1.53114C8.08479 1.53268 7.77646 1.54423 7.47495 1.58834C6.26429 1.7419 5.15989 2.2259 4.26031 2.89855C4.14657 2.97687 4.03404 3.07466 3.92184 3.16486C3.8664 3.21128 3.80887 3.25517 3.75497 3.30236C3.7014 3.35054 3.6486 3.3985 3.59547 3.44668C3.543 3.49409 3.48976 3.54161 3.43729 3.58913C3.38493 3.63654 3.33719 3.68857 3.28703 3.73774C3.18869 3.83839 3.08507 3.93255 2.99531 4.0376C2.9039 4.14177 2.80721 4.23978 2.72075 4.34516C2.63418 4.45087 2.54849 4.55548 2.46335 4.65932C2.38316 4.76701 2.30418 4.87393 2.22542 4.98041C2.14644 5.08623 2.07791 5.19821 2.00432 5.30469C1.72019 5.73996 1.47115 6.19514 1.25764 6.66352C1.04633 7.13377 0.875608 7.61843 0.737668 8.10892C0.706538 8.23256 0.666718 8.35367 0.641308 8.4783C0.613588 8.60227 0.586198 8.72657 0.558368 8.84966C0.536478 8.97473 0.514478 9.09892 0.492918 9.22366C0.468278 9.34752 0.458598 9.47336 0.440558 9.59766C0.381158 10.0971 0.348378 10.5969 0.362238 11.0925C0.398098 13.0771 1.02015 14.9613 2.03248 16.4823C2.09067 16.5796 2.16393 16.6742 2.22971 16.7694C2.29769 16.8648 2.36501 16.9602 2.43211 17.0547C2.57247 17.2387 2.71701 17.4187 2.85836 17.5989C3.0106 17.7694 3.15514 17.9456 3.30903 18.1107C3.3868 18.1921 3.46512 18.2735 3.543 18.3542C3.62011 18.4356 3.69678 18.5171 3.77928 18.5912C4.41871 19.211 5.10555 19.7448 5.8156 20.1907C7.23713 21.0849 8.74622 21.621 10.1681 21.8769C10.8803 22.0058 11.5715 22.0668 12.2295 22.0795C12.8875 22.0864 13.5095 22.0402 14.0916 21.9683C15.2529 21.8089 16.2444 21.5313 17.0407 21.247C17.8398 20.963 18.4426 20.6742 18.8778 20.5076C19.3009 20.3225 19.5592 20.2597 19.6232 20.3431C19.6871 20.4256 19.5523 20.6515 19.2235 21.0112C18.8827 21.3524 18.3438 21.8282 17.5522 22.3106C16.7627 22.7931 15.7192 23.2798 14.4269 23.6307C13.7801 23.7978 13.0733 23.9344 12.3123 24.007C11.5511 24.0737 10.7378 24.081 9.88703 24.0032C8.18841 23.849 6.33403 23.343 4.55093 22.3635C2.89191 21.4547 1.30087 20.1382 0.0134277 18.4468C1.16711 21.661 2.94284 23.9568 4.19321 25.5411C7.83729 30.1572 11.9462 32.4257 13.8299 33.4409C16.0874 34.6574 18.8912 35.8828 19.6236 35.8828C20.4049 35.8828 23.1593 34.6574 25.4176 33.4409C27.3002 32.4257 31.4095 30.1572 35.0543 25.5411C36.6543 23.5133 39.1146 20.3214 40.03 15.5294C40.419 13.4912 40.8661 10.9855 39.8192 8.04567C38.4443 4.18423 35.4726 2.27287 34.7798 1.85036C33.8312 1.27099 31.6077 0.0974 28.6136 0.09729C28.4021 0.09729 28.1872 0.10323 27.9682 0.11555Z" fill="#D92E76"/>
<mask id="mask0" mask-type="alpha" maskUnits="userSpaceOnUse" x="0" y="0" width="41" height="36">
<path fill-rule="evenodd" clip-rule="evenodd" d="M27.9682 0.11555C23.3466 0.37713 20.2602 3.33481 19.6236 4.02363C19.1359 3.49651 17.2118 1.64037 14.263 0.68128C14.3306 0.73562 14.3968 0.79051 14.4643 0.84529C14.5556 0.91943 14.6455 0.995 14.7319 1.07607C15.0875 1.38682 15.4098 1.73497 15.7198 2.09357C15.8681 2.27793 16.0212 2.45976 16.1568 2.65391C16.2261 2.75159 16.2979 2.8419 16.3642 2.94651C16.4313 3.04903 16.4995 3.151 16.565 3.25517C17.08 4.09315 17.4527 5.02518 17.6593 5.99362C17.8659 6.96195 17.9017 7.96625 17.7742 8.94932C17.6454 9.93195 17.3528 10.896 16.8961 11.7809C16.442 12.6664 15.8283 13.4726 15.0941 14.1423L14.8135 14.3874L14.5218 14.6171C14.4234 14.6934 14.314 14.7671 14.2104 14.8409C14.1028 14.9114 13.9937 14.9805 13.8842 15.0477C13.4406 15.3098 12.966 15.5205 12.4747 15.6725C11.4918 15.9814 10.4414 16.035 9.44813 15.8602C8.45472 15.6803 7.51422 15.2728 6.72761 14.6826C6.33315 14.3897 5.97521 14.0543 5.66072 13.6891C5.50298 13.5071 5.35767 13.3163 5.22116 13.1206C5.15219 13.0238 5.08938 12.9126 5.0247 12.8092C4.96266 12.7026 4.89281 12.6015 4.84276 12.4885C4.78952 12.3777 4.73628 12.2673 4.68359 12.1566C4.65587 12.1021 4.63387 12.0454 4.61297 11.9879L4.54983 11.8161L4.48768 11.6443L4.45765 11.5587L4.43422 11.4707C4.40364 11.3534 4.37328 11.2368 4.34314 11.1198L4.32125 11.0318L4.30618 10.9431L4.27725 10.7655L4.24953 10.588L4.23633 10.4992L4.2294 10.4101C4.22137 10.2912 4.21411 10.1727 4.20597 10.0542L4.20091 9.96583L4.20289 9.87673L4.20663 9.69963L4.21213 9.52275L4.21521 9.43519L4.22489 9.34719C4.23875 9.23059 4.25261 9.11476 4.26647 8.9986L4.27725 8.91181L4.29463 8.82568L4.33082 8.65518L4.36745 8.48501C4.379 8.42781 4.39209 8.37193 4.41101 8.31671C4.47965 8.0955 4.54213 7.87363 4.63772 7.66408C4.68359 7.55826 4.72242 7.4509 4.77533 7.34904C4.82912 7.24839 4.88247 7.14763 4.93604 7.04731C4.98686 6.94501 5.05044 6.85074 5.11369 6.75625C5.1765 6.66209 5.2381 6.56749 5.303 6.47531C5.37428 6.38764 5.44512 6.30041 5.51618 6.21318L5.62288 6.08349C5.65951 6.04147 5.70076 6.00286 5.7397 5.96315C5.81868 5.88395 5.89733 5.80519 5.97598 5.72687C6.05386 5.64811 6.14483 5.58332 6.22887 5.51193C6.31588 5.44318 6.3953 5.37102 6.48935 5.307C6.58494 5.24408 6.6802 5.18116 6.77502 5.11857C7.16739 4.88669 7.58869 4.70915 8.02385 4.60729C8.45967 4.50994 8.90198 4.48024 9.33318 4.51192C9.76416 4.55163 10.1796 4.65701 10.5678 4.80947C10.954 4.96963 11.3064 5.18457 11.6232 5.43196C11.6995 5.49686 11.7731 5.56407 11.8472 5.6304L11.9566 5.73083L12.0568 5.83962C12.1227 5.91255 12.1887 5.98394 12.2519 6.05764C12.31 6.13519 12.3671 6.21241 12.4245 6.28919L12.5089 6.40513L12.586 6.53196L12.6616 6.65901C12.687 6.70103 12.7105 6.74382 12.7305 6.78859C12.7714 6.87736 12.813 6.96503 12.8535 7.05303C12.8858 7.14411 12.9183 7.23442 12.9506 7.32517C13.0655 7.68982 13.1229 8.06195 13.1295 8.42627C13.1292 8.79136 13.0778 9.14567 12.985 9.48073C12.8901 9.81568 12.7433 10.126 12.5706 10.4089C12.3928 10.6907 12.1774 10.9365 11.945 11.15C11.8859 11.2024 11.8228 11.2495 11.7623 11.2982C11.7018 11.3464 11.6416 11.3943 11.572 11.4363C11.5037 11.4784 11.4393 11.5252 11.3683 11.5603C11.2979 11.5957 11.2276 11.6309 11.158 11.6656C10.8708 11.7895 10.5721 11.8609 10.2806 11.8832C9.98845 11.9092 9.70399 11.8771 9.44065 11.8111C9.3081 11.7818 9.18413 11.7316 9.06181 11.6868C8.94389 11.6297 8.82586 11.5795 8.72147 11.5096C8.50488 11.3831 8.32327 11.2221 8.16498 11.0581C8.09128 10.9706 8.01296 10.8902 7.95411 10.7984C7.9232 10.754 7.89273 10.7095 7.8627 10.666C7.83377 10.6208 7.80803 10.5718 7.78218 10.5255L7.74368 10.4557L7.71167 10.3835C7.69121 10.3355 7.67042 10.2889 7.65183 10.241C7.6218 10.1442 7.58671 10.0515 7.5701 9.95659C7.52423 9.77014 7.51697 9.58721 7.5173 9.41869C7.52896 9.07813 7.61718 8.78872 7.72784 8.56135C7.78218 8.4464 7.84763 8.34949 7.90747 8.26303C7.9749 8.18086 8.03309 8.10672 8.09788 8.05073C8.12868 8.02169 8.15684 7.99441 8.18566 7.97131C8.2158 7.94953 8.24363 7.92962 8.26937 7.91103C8.29599 7.89288 8.31986 7.87704 8.34263 7.86318C8.36617 7.85119 8.3885 7.84074 8.40852 7.83227C8.48794 7.79828 8.53458 7.793 8.55075 7.81335C8.58661 7.85933 8.47749 7.98814 8.34219 8.24103C8.306 8.30197 8.27784 8.37765 8.24198 8.45553C8.21393 8.53748 8.18148 8.62427 8.15992 8.72272C8.11482 8.91676 8.09282 9.14611 8.12714 9.39229C8.14991 9.51472 8.17378 9.64199 8.22691 9.76596C8.24737 9.82954 8.284 9.88872 8.31183 9.9512C8.32987 9.98123 8.34846 10.011 8.3665 10.0407L8.39422 10.0859L8.427 10.1284C8.44944 10.1569 8.46869 10.1862 8.49333 10.2144C8.51874 10.2423 8.54492 10.2708 8.57154 10.2993C8.62005 10.3595 8.68418 10.4063 8.74116 10.4606C8.86535 10.5586 8.99867 10.6529 9.15157 10.7174C9.22483 10.7563 9.30733 10.7771 9.38598 10.8068C9.46925 10.825 9.55054 10.8509 9.63689 10.8582C9.80772 10.8814 9.98614 10.8832 10.1619 10.8478C10.3377 10.8146 10.5107 10.754 10.6739 10.6644C10.7131 10.6397 10.7528 10.6146 10.7925 10.5895C10.833 10.5652 10.8677 10.5313 10.9062 10.5035C10.9443 10.4777 10.9813 10.4405 11.0184 10.4043C11.055 10.3681 11.0947 10.3349 11.1297 10.2966C11.269 10.1418 11.3949 9.97045 11.4948 9.77905C11.5892 9.5849 11.669 9.37843 11.7118 9.1581C11.7534 8.93766 11.768 8.70919 11.752 8.47918C11.7284 8.24983 11.6744 8.02257 11.5892 7.80598L11.5191 7.64549C11.4902 7.59445 11.4617 7.54319 11.4324 7.49193C11.4193 7.46553 11.4035 7.44089 11.3853 7.41735L11.3344 7.34519L11.2844 7.27182L11.2223 7.20043C11.1814 7.15225 11.1405 7.10407 11.0998 7.05545C11.0542 7.01134 11.0084 6.96778 10.9625 6.92411L10.8947 6.85734L10.8195 6.79948C10.7698 6.7601 10.7201 6.72105 10.67 6.68178C10.4584 6.54175 10.2317 6.42163 9.98845 6.33781C9.74414 6.2618 9.48894 6.21362 9.22989 6.20427C8.9704 6.2035 8.71069 6.23749 8.45857 6.30811C8.20733 6.38379 7.9694 6.50336 7.74632 6.65087C7.69275 6.69135 7.63874 6.73183 7.58407 6.77132C7.52973 6.81191 7.47759 6.86768 7.42325 6.91443C7.37122 6.96503 7.31226 7.00826 7.26485 7.06381L7.11888 7.22705C7.09534 7.25455 7.06839 7.27996 7.04639 7.309L6.98193 7.39843L6.85125 7.57564L6.73839 7.7666C6.70022 7.82996 6.66051 7.89288 6.63235 7.96196C6.09159 9.02335 6.10391 10.4081 6.72684 11.468C6.75841 11.5378 6.80846 11.5977 6.84971 11.6621C6.89481 11.7258 6.93078 11.7903 6.98127 11.8543C7.08027 11.9837 7.18466 12.1091 7.29609 12.2272C7.51851 12.4638 7.76601 12.6757 8.03276 12.8574C8.56538 13.2241 9.18479 13.4589 9.82312 13.5502C10.4613 13.6351 11.1201 13.5768 11.7268 13.3608C12.0302 13.2538 12.322 13.1117 12.5957 12.9374L12.7972 12.7995C12.8616 12.7482 12.9263 12.7035 12.9923 12.6486L13.1904 12.4811L13.3797 12.3044C13.8734 11.822 14.2793 11.2515 14.5765 10.6263C14.8756 10.0014 15.0594 9.32134 15.1292 8.63395C15.1983 7.94656 15.1547 7.25059 14.9951 6.59026C14.8347 5.92949 14.5653 5.30425 14.2042 4.74578L14.063 4.54041C14.0183 4.47177 13.9593 4.40313 13.9085 4.33405C13.8071 4.19347 13.6915 4.06532 13.5817 3.93332C13.35 3.67977 13.1145 3.43238 12.8543 3.21667C12.7918 3.15947 12.7259 3.107 12.6592 3.05574C12.5926 3.00437 12.5286 2.94992 12.4604 2.90097C12.3234 2.80472 12.1898 2.70451 12.0475 2.61838C11.9099 2.52532 11.7631 2.44821 11.6208 2.36494C11.548 2.32589 11.4737 2.29036 11.4004 2.25252L11.291 2.19697L11.1783 2.14714C10.5832 1.87379 9.95732 1.6979 9.33208 1.6022C9.01869 1.56007 8.70574 1.53268 8.3951 1.53114C8.08479 1.53268 7.77646 1.54423 7.47495 1.58834C6.26429 1.7419 5.15989 2.2259 4.26031 2.89855C4.14657 2.97687 4.03404 3.07466 3.92184 3.16486C3.8664 3.21128 3.80887 3.25517 3.75497 3.30236C3.7014 3.35054 3.6486 3.3985 3.59547 3.44668C3.543 3.49409 3.48976 3.54161 3.43729 3.58913C3.38493 3.63654 3.33719 3.68857 3.28703 3.73774C3.18869 3.83839 3.08507 3.93255 2.99531 4.0376C2.9039 4.14177 2.80721 4.23978 2.72075 4.34516C2.63418 4.45087 2.54849 4.55548 2.46335 4.65932C2.38316 4.76701 2.30418 4.87393 2.22542 4.98041C2.14644 5.08623 2.07791 5.19821 2.00432 5.30469C1.72019 5.73996 1.47115 6.19514 1.25764 6.66352C1.04633 7.13377 0.875608 7.61843 0.737668 8.10892C0.706538 8.23256 0.666718 8.35367 0.641308 8.4783C0.613588 8.60227 0.586198 8.72657 0.558368 8.84966C0.536478 8.97473 0.514478 9.09892 0.492918 9.22366C0.468278 9.34752 0.458598 9.47336 0.440558 9.59766C0.381158 10.0971 0.348378 10.5969 0.362238 11.0925C0.398098 13.0771 1.02015 14.9613 2.03248 16.4823C2.09067 16.5796 2.16393 16.6742 2.22971 16.7694C2.29769 16.8648 2.36501 16.9602 2.43211 17.0547C2.57247 17.2387 2.71701 17.4187 2.85836 17.5989C3.0106 17.7694 3.15514 17.9456 3.30903 18.1107C3.3868 18.1921 3.46512 18.2735 3.543 18.3542C3.62011 18.4356 3.69678 18.5171 3.77928 18.5912C4.41871 19.211 5.10555 19.7448 5.8156 20.1907C7.23713 21.0849 8.74622 21.621 10.1681 21.8769C10.8803 22.0058 11.5715 22.0668 12.2295 22.0795C12.8875 22.0864 13.5095 22.0402 14.0916 21.9683C15.2529 21.8089 16.2444 21.5313 17.0407 21.247C17.8398 20.963 18.4426 20.6742 18.8778 20.5076C19.3009 20.3225 19.5592 20.2597 19.6232 20.3431C19.6871 20.4256 19.5523 20.6515 19.2235 21.0112C18.8827 21.3524 18.3438 21.8282 17.5522 22.3106C16.7627 22.7931 15.7192 23.2798 14.4269 23.6307C13.7801 23.7978 13.0733 23.9344 12.3123 24.007C11.5511 24.0737 10.7378 24.081 9.88703 24.0032C8.18841 23.849 6.33403 23.343 4.55093 22.3635C2.89191 21.4547 1.30087 20.1382 0.0134277 18.4468C1.16711 21.661 2.94284 23.9568 4.19321 25.5411C7.83729 30.1572 11.9462 32.4257 13.8299 33.4409C16.0874 34.6574 18.8912 35.8828 19.6236 35.8828C20.4049 35.8828 23.1593 34.6574 25.4176 33.4409C27.3002 32.4257 31.4095 30.1572 35.0543 25.5411C36.6543 23.5133 39.1146 20.3214 40.03 15.5294C40.419 13.4912 40.8661 10.9855 39.8192 8.04567C38.4443 4.18423 35.4726 2.27287 34.7798 1.85036C33.8312 1.27099 31.6077 0.0974 28.6136 0.09729C28.4021 0.09729 28.1872 0.10323 27.9682 0.11555Z" fill="white"/>
</mask>
<g mask="url(#mask0)">
</g>
<path fill-rule="evenodd" clip-rule="evenodd" d="M60.6051 9.87961L59.2109 10.7059C58.8118 10.9424 58.2823 10.8489 58.0194 10.4666C57.6212 9.88775 57.2375 9.49043 56.8679 9.27505C56.3452 8.94021 55.6711 8.77345 54.8459 8.77345C53.8324 8.77345 52.9906 9.06099 52.3221 9.63563C51.6537 10.1999 51.3189 10.9108 51.3189 11.7674C51.3189 12.9484 52.1967 13.8992 53.9523 14.6204L56.3663 15.6078C58.3311 16.4017 59.7677 17.3713 60.677 18.5157C61.586 19.6599 62.0408 21.0629 62.0408 22.7245C62.0408 24.9503 61.2985 26.7897 59.8148 28.2421C58.3201 29.7054 56.466 30.4364 54.2501 30.4364C52.1496 30.4364 50.4153 29.8149 49.046 28.5713C47.8756 27.4913 47.0874 26.0296 46.6808 24.1858C46.5761 23.7106 46.901 23.2365 47.3767 23.1318L49.2854 22.7111C49.7734 22.6038 50.2655 22.9192 50.3559 23.4107C50.5291 24.3521 50.7772 25.0328 51.0993 25.4519C51.8519 26.4967 52.9491 27.0194 54.3912 27.0194C55.5301 27.0194 56.4761 26.6377 57.2285 25.8752C57.9809 25.1124 58.3571 24.1453 58.3571 22.9751C58.3571 22.505 58.292 22.074 58.1611 21.682C58.0302 21.2901 57.8265 20.9298 57.5497 20.6002C57.2732 20.2711 56.915 19.9631 56.4761 19.6756C56.0372 19.388 55.5143 19.1137 54.9084 18.8525L52.5729 17.8808C49.2599 16.4803 47.6039 14.4321 47.6039 11.736C47.6039 9.91767 48.2989 8.39725 49.6887 7.17449C51.0782 5.94183 52.808 5.32495 54.8771 5.32495C57.3801 5.32495 59.3911 6.41791 60.91 8.60427C61.2035 9.02667 61.0473 9.61759 60.6051 9.87961Z" fill="#D92E76"/>
<path fill-rule="evenodd" clip-rule="evenodd" d="M77.6847 22.4579C77.6847 20.9947 77.2874 19.8034 76.4934 18.884C75.6884 17.9536 74.6751 17.489 73.4523 17.489C72.1568 17.489 71.1067 17.938 70.3017 18.8369C69.4967 19.736 69.0948 20.9161 69.0948 22.3796C69.0948 23.8113 69.4967 24.9918 70.3017 25.9222C71.0957 26.8313 72.1411 27.2858 73.4367 27.2858C74.6595 27.2858 75.668 26.8258 76.4619 25.9066C77.277 24.987 77.6847 23.8375 77.6847 22.4579ZM68.3886 38.3056H66.6814C66.1789 38.3056 65.7715 37.8984 65.7715 37.3957V15.6359C65.7715 15.1356 66.1772 14.7299 66.6774 14.7299H69.2985V16.3916C70.688 15.0019 72.2665 14.3069 74.0323 14.3069C76.1328 14.3069 77.8627 15.0804 79.2207 16.6268C80.6001 18.163 81.2901 20.1012 81.2901 22.4423C81.2901 24.7309 80.6056 26.6377 79.2366 28.1638C77.8783 29.6787 76.1641 30.4366 74.0952 30.4366C72.3081 30.4366 70.7092 29.7212 69.2985 28.2892V37.3957C69.2985 37.8984 68.8911 38.3056 68.3886 38.3056Z" fill="#D92E76"/>
<path fill-rule="evenodd" clip-rule="evenodd" d="M88.5474 15.661V29.103C88.5474 29.5972 88.147 29.9976 87.6529 29.9976H85.9153C85.4212 29.9976 85.0206 29.5972 85.0206 29.103V15.661C85.0206 15.1469 85.4375 14.73 85.9516 14.73H87.6164C88.1305 14.73 88.5474 15.1469 88.5474 15.661ZM84.4875 8.38146C84.4875 7.76458 84.7126 7.23196 85.1616 6.78272C85.6106 6.3337 86.1492 6.10864 86.7762 6.10864C87.4135 6.10864 87.9572 6.3337 88.4064 6.78272C88.8554 7.22162 89.0805 7.75996 89.0805 8.39708C89.0805 9.03442 88.8554 9.57848 88.4064 10.0275C87.9675 10.4767 87.4292 10.7016 86.7918 10.7016C86.1547 10.7016 85.6106 10.4767 85.1616 10.0275C84.7126 9.57848 84.4875 9.02958 84.4875 8.38146Z" fill="#D92E76"/>
<path fill-rule="evenodd" clip-rule="evenodd" d="M93.0149 15.6366C93.0149 15.1361 93.4208 14.7299 93.9215 14.7299H96.5417V16.0937C97.1901 15.4141 97.7645 14.9495 98.2661 14.6987C98.7778 14.4378 99.3846 14.3069 100.085 14.3069C100.74 14.3069 101.416 14.4576 102.113 14.7585C102.604 14.9706 102.838 15.5395 102.599 16.0176L101.812 17.5913C101.594 18.0277 101.069 18.1998 100.624 17.9987C100.219 17.8157 99.8195 17.7239 99.4261 17.7239C97.5036 17.7239 96.5417 19.1764 96.5417 22.0817V29.081C96.5417 29.5872 96.1314 29.9975 95.6252 29.9975H93.9316C93.4254 29.9975 93.0149 29.5872 93.0149 29.081V15.6366Z" fill="#D92E76"/>
<path fill-rule="evenodd" clip-rule="evenodd" d="M107.687 22.3168C107.687 24.2966 108.404 25.7785 109.839 26.7628C110.214 27.0202 110.664 27.1793 111.116 27.2352C112.792 27.4431 114.109 27.011 115.07 25.9378C115.875 25.0072 116.277 23.8269 116.277 22.3949C116.277 20.9632 115.875 19.7827 115.07 18.8525C114.265 17.9432 113.22 17.4889 111.935 17.4889C110.722 17.4889 109.709 17.949 108.894 18.8681C108.089 19.7985 107.687 20.9473 107.687 22.3168ZM116.057 14.7299H118.705C119.199 14.7299 119.6 15.1305 119.6 15.6247V29.1071C119.6 29.5991 119.201 29.9975 118.71 29.9975H116.057V28.3987C114.605 29.7568 113.042 30.4364 111.37 30.4364C109.26 30.4364 107.514 29.6739 106.135 28.1479C104.766 26.5906 104.082 24.6469 104.082 22.3168C104.082 19.8975 104.846 17.9045 106.376 16.3372C107.279 15.4135 108.456 14.7625 109.717 14.484C112.133 13.9502 114.246 14.6221 116.057 16.5011V14.7299Z" fill="#D92E76"/>
<path fill-rule="evenodd" clip-rule="evenodd" d="M127.579 4.43245V29.0898C127.579 29.5912 127.172 29.9976 126.671 29.9976H124.96C124.458 29.9976 124.052 29.5912 124.052 29.0898V4.43245C124.052 3.92975 124.459 3.52209 124.962 3.52209H126.669C127.171 3.52209 127.579 3.92975 127.579 4.43245Z" fill="#D92E76"/>
</svg>
