<svg width="28" height="28" viewBox="0 0 28 28" fill="none" xmlns="http://www.w3.org/2000/svg">
<path d="M5.20532 15.72C5.07429 15.8389 5 16.0013 5 16.1707V21.6653C5 22.9546 6.15139 24 7.57138 24H11.6805V18.2221H16.3195V24H20.4287C21.8486 24 23 22.9546 23 21.6653V16.1707C23 16.0013 22.9264 15.8389 22.7947 15.72" stroke="#D92E76"/>
<path d="M21.4598 9.93569V9.71027V5.99739C21.4598 5.65874 21.1282 5.28198 20.5833 5.28198C20.0407 5.28198 19.7086 5.65836 19.7086 5.99739V7.27915V8.38825L18.8775 7.65382L16.1693 5.26064C16.1693 5.26061 16.1693 5.26058 16.1692 5.26055C15.606 4.76319 14.8137 4.49953 13.998 4.5C13.1822 4.50047 12.3905 4.7651 11.8287 5.2624L11.8284 5.2627L2.73411 13.2988C2.73399 13.2989 2.73386 13.299 2.73374 13.2991C2.42179 13.5756 2.42235 13.9936 2.73383 14.269L2.73398 14.2691C3.08196 14.577 3.66974 14.5769 4.01744 14.2692L4.01772 14.2689L13.1115 6.2323L13.1125 6.23142C13.3679 6.00696 13.6969 5.91169 13.9995 5.91155C14.302 5.91141 14.6312 6.00632 14.8862 6.23102L14.8868 6.23151L23.9816 14.2684L21.4598 9.93569ZM21.4598 9.93569L21.6287 10.0849M21.4598 9.93569L21.6287 10.0849M21.6287 10.0849L25.2658 13.2988M21.6287 10.0849L25.2658 13.2988M25.2658 13.2988C25.5782 13.5754 25.5778 13.9934 25.2662 14.2688C25.0982 14.4172 24.8675 14.4994 24.6239 14.4994C24.3816 14.4994 24.1513 14.4178 23.9821 14.2689L25.2658 13.2988Z" stroke="#D92E76"/>
</svg>
