<svg width="28" height="28" viewBox="0 0 28 28" fill="none" xmlns="http://www.w3.org/2000/svg">
<path fill-rule="evenodd" clip-rule="evenodd" d="M13.9908 1.86656C13.9085 1.86782 13.8277 1.88828 13.7548 1.92632L2.67655 7.72922C2.50275 7.82048 2.39399 8.00069 2.39424 8.19699V9.7796C2.39426 10.0709 2.63043 10.3071 2.92177 10.3071H3.44931V11.0459C3.44931 11.6852 3.90525 12.23 4.50438 12.3761V21.9191H3.01126C2.38388 21.846 1.8667 22.3903 1.8667 22.9845V24.4342C1.8667 25.0568 2.35945 25.6057 2.97432 25.6057H24.9732C25.5881 25.6057 26.0808 25.0979 26.0808 24.4878V23.0381C26.0808 22.4279 25.5881 21.9191 24.9732 21.9191H23.4957V12.3761C24.0948 12.23 24.5508 11.6852 24.5508 11.0459V10.3071H25.0783C25.3696 10.3071 25.6058 10.0709 25.6058 9.7796V8.19699C25.6061 8.00069 25.4973 7.82048 25.3235 7.72922L14.2453 1.92632C14.1668 1.88536 14.0793 1.86481 13.9908 1.86656ZM14.0001 2.99063L24.5508 8.51636V9.25203H24.1119C24.0549 9.24261 23.9968 9.24261 23.9398 9.25203H18.8293C18.7997 9.24708 18.7697 9.24466 18.7396 9.24481C18.7141 9.24537 18.6886 9.24778 18.6634 9.25203H16.7263C16.6694 9.24261 16.6112 9.24261 16.5543 9.25203H11.4438C11.4142 9.24708 11.3842 9.24466 11.3541 9.24481C11.3286 9.24537 11.3031 9.24778 11.2779 9.25203H9.34084C9.28387 9.24261 9.22574 9.24261 9.16877 9.25203H4.05826C4.02864 9.24708 3.99865 9.24466 3.96862 9.24481C3.94307 9.24537 3.91759 9.24778 3.89238 9.25203H3.44933V8.51636L14.0001 2.99063ZM8.72466 10.3071H4.50437V11.0459C4.50437 11.2471 4.61944 11.3622 4.82069 11.3622H8.40835C8.60959 11.3622 8.72466 11.2471 8.72466 11.0459V10.3071ZM9.77975 10.3071H10.8348V11.0459C10.8348 11.6852 11.2908 12.23 11.8899 12.376V21.9191H8.72468V12.376C9.32381 12.23 9.77975 11.6852 9.77975 11.0459V10.3071ZM16.1102 10.3071H11.8899V11.0459C11.8899 11.2471 12.0049 11.3622 12.2062 11.3622H15.7939C15.9951 11.3622 16.1102 11.2471 16.1102 11.0459V10.3071ZM17.1653 10.3071H18.2203V11.0459C18.2203 11.6852 18.6763 12.23 19.2754 12.376V21.9191H16.1102V12.376C16.7093 12.23 17.1653 11.6852 17.1653 11.0459V10.3071ZM23.4957 10.3071H19.2754V11.0459C19.2754 11.2471 19.3905 11.3622 19.5917 11.3622H23.1794C23.3806 11.3622 23.4957 11.2471 23.4957 11.0459V10.3071ZM5.55948 12.4173H7.66963V21.9129H5.55948V12.4173ZM15.0551 12.4173H12.945V21.9129H15.0551V12.4173ZM20.3305 12.4173H22.4406V21.9129H20.3305V12.4173ZM2.97429 22.9742C2.95396 22.974 2.93366 22.9726 2.9135 22.97C2.914 22.9703 2.91452 22.9706 2.91504 22.9708C2.91833 22.9724 2.92174 22.9739 2.92174 22.9845V24.4342C2.92174 24.553 2.9511 24.5516 2.96989 24.5507C2.97144 24.5507 2.97291 24.5506 2.97429 24.5506H24.9732C24.9913 24.5506 25.0257 24.5223 25.0257 24.4877V23.038C25.0257 23.0035 24.9913 22.9742 24.9732 22.9742H2.97429Z" fill="black"/>
</svg>
