<svg width="28" height="28" viewBox="0 0 28 28" fill="none" xmlns="http://www.w3.org/2000/svg">
<path fill-rule="evenodd" clip-rule="evenodd" d="M13.9907 1.86631C13.9085 1.86757 13.8277 1.88804 13.7547 1.92607L2.67649 7.72897C2.50269 7.82023 2.39393 8.00044 2.39417 8.19675V9.77936C2.3942 10.0707 2.63037 10.3069 2.92171 10.3069H3.44925V11.0456C3.44925 11.685 3.90519 12.2298 4.50432 12.3758V21.9189H3.01119C2.38382 21.8458 1.86664 22.39 1.86664 22.9842V24.4339C1.86664 25.0565 2.35939 25.6054 2.97426 25.6054H24.9731C25.588 25.6054 26.0808 25.0976 26.0808 24.4875V23.0378C26.0808 22.4277 25.588 21.9189 24.9731 21.9189H23.4956V12.3758C24.0948 12.2298 24.5507 11.685 24.5507 11.0456V10.3069H25.0782C25.3696 10.3069 25.6057 10.0707 25.6058 9.77936V8.19675C25.606 8.00044 25.4973 7.82023 25.3235 7.72897L14.2452 1.92607C14.1667 1.88512 14.0792 1.86457 13.9907 1.86631ZM14 2.99038L24.5507 8.51612V9.25178H24.1118C24.0548 9.24237 23.9967 9.24237 23.9397 9.25178H18.8292C18.7996 9.24683 18.7696 9.24442 18.7396 9.24457C18.714 9.24512 18.6885 9.24753 18.6633 9.25178H16.7263C16.6693 9.24237 16.6112 9.24237 16.5542 9.25178H11.4437C11.4141 9.24683 11.3841 9.24442 11.3541 9.24457C11.3285 9.24512 11.303 9.24753 11.2778 9.25178H9.34078C9.28381 9.24237 9.22568 9.24237 9.16871 9.25178H4.0582C4.02858 9.24683 3.99859 9.24442 3.96856 9.24457C3.94301 9.24512 3.91752 9.24753 3.89232 9.25178H3.44927V8.51612L14 2.99038ZM8.7246 10.3069H4.50431V11.0456C4.50431 11.2469 4.61938 11.3619 4.82063 11.3619H8.40829C8.60953 11.3619 8.7246 11.2469 8.7246 11.0456V10.3069ZM9.77969 10.3069H10.8348V11.0456C10.8348 11.6849 11.2907 12.2298 11.8898 12.3758V21.9188H8.72462V12.3758C9.32375 12.2298 9.77969 11.6849 9.77969 11.0456V10.3069ZM16.1101 10.3069H11.8898V11.0456C11.8898 11.2469 12.0049 11.3619 12.2061 11.3619H15.7938C15.995 11.3619 16.1101 11.2469 16.1101 11.0456V10.3069ZM17.1652 10.3069H18.2203V11.0456C18.2203 11.6849 18.6762 12.2298 19.2753 12.3758V21.9188H16.1101V12.3758C16.7093 12.2298 17.1652 11.6849 17.1652 11.0456V10.3069ZM23.4956 10.3069H19.2753V11.0456C19.2753 11.2469 19.3904 11.3619 19.5916 11.3619H23.1793C23.3805 11.3619 23.4956 11.2469 23.4956 11.0456V10.3069ZM5.55942 12.417H7.66957V21.9127H5.55942V12.417ZM15.0551 12.417H12.9449V21.9127H15.0551V12.417ZM20.3304 12.417H22.4406V21.9127H20.3304V12.417ZM2.97423 22.9739C2.9539 22.9737 2.9336 22.9723 2.91344 22.9698C2.91394 22.9701 2.91446 22.9703 2.91498 22.9706C2.91827 22.9721 2.92168 22.9737 2.92168 22.9842V24.4339C2.92168 24.5528 2.95104 24.5514 2.96983 24.5505C2.97138 24.5504 2.97285 24.5503 2.97423 24.5503H24.9731C24.9913 24.5503 25.0257 24.522 25.0257 24.4875V23.0378C25.0257 23.0033 24.9913 22.9739 24.9731 22.9739H2.97423Z" fill="#D83275"/>
</svg>
