<svg xmlns="http://www.w3.org/2000/svg" width="25" height="26" fill="none" viewBox="0 0 25 26">
    <path fill="#000" fill-rule="evenodd" d="M6.656 3.625c-2.633 0-4.781 2.106-4.781 4.688v8.333c0 .287.239.52.531.52H12.5v5.209h1.063v-5.208h1.062v5.208h1.063v-5.208h6.906c.292 0 .531-.234.531-.521V8.312c0-2.581-2.148-4.687-4.781-4.687H6.656zm0 1.042c2.06 0 3.719 1.625 3.719 3.645v7.813H2.937V8.312c0-2.02 1.659-3.645 3.72-3.645zm11.688 0h-8.7c1.09.86 1.793 2.172 1.793 3.645v7.813h10.626V8.312c0-2.02-1.659-3.645-3.72-3.645zm-3.72 2.604c-.586 0-1.062.466-1.062 1.042 0 .575.476 1.041 1.063 1.041.392 0 .728-.21.913-.52h2.806v2.083h2.125V7.792h-4.931c-.185-.311-.52-.521-.913-.521zM4.457 9.428c-.041-.287.164-.554.457-.595H8.25c.19-.002.37.096.467.259.095.163.095.362 0 .525-.098.162-.276.26-.467.258H5.062c-.292.04-.564-.16-.606-.447z" clip-rule="evenodd"/>
</svg>
