<svg xmlns="http://www.w3.org/2000/svg" width="25" height="25" fill="none" viewBox="0 0 25 25">
    <path stroke="#1A1A1A" stroke-linecap="round" stroke-linejoin="round" d="M2.867 2.897l-.367-.34c-.313.34-.5.8-.5 1.3v1.976c0 .276.224.5.5.5H5c.276 0 .5-.224.5-.5V3.856C5.5 2.87 4.753 2 3.75 2c-.496 0-.94.22-1.25.558l.367.34zm0 0c.225-.245.539-.397.884-.397C4.44 2.5 5 3.107 5 3.856v1.977H2.5V3.856c0-.374.14-.713.367-.959z"/>
    <path fill="#fff" stroke="#1A1A1A" stroke-linecap="round" stroke-linejoin="round" d="M19.998 20.918c.133 0 .26-.052.355-.146.094-.094.147-.221.147-.354V3.685C20.5 2.741 19.715 2 18.776 2H4.166c-.275 0-.5.224-.5.5s.225.5.5.5c.407 0 .717.32.717.685v18.463c0 .942.782 1.685 1.717 1.685s1.717-.743 1.717-1.685v-.002h0v-.276l-.003-.604v-.359h.112c.35-.003.838-.005 1.415-.006 1.154-.002 2.668 0 4.173.002s3 .006 4.12.01l1.353.003.378.001h.133l.002-.5-.002.5z"/>
    <path fill="#fff" stroke="#1A1A1A" stroke-linecap="round" stroke-linejoin="round" d="M23 20.833c0-.276-.224-.5-.5-.5H7.884c-.277 0-.5.224-.5.5v1.484c0 .203-.235.516-.717.516-.276 0-.5.224-.5.5s.224.5.5.5h14.616c.859 0 1.717-.6 1.717-1.516v-1.484z"/>
    <path stroke="#1A1A1A" stroke-linecap="round" stroke-linejoin="round" d="M17.5 12.084h-3.333M11.667 12.084H8.333M11.667 14.584H8.333M11.667 17.084H8.333M17.5 14.584h-3.333M17.5 17.084h-3.333M7.833 9.166c0 .276.224.5.5.5H17.5c.276 0 .5-.224.5-.5V5.833c0-.276-.224-.5-.5-.5H8.333c-.276 0-.5.224-.5.5v3.333z"/>
</svg>
