<svg width="40" height="40" viewBox="0 0 40 40" fill="none" xmlns="http://www.w3.org/2000/svg">
<path d="M13 35H7C5.89543 35 5 34.1046 5 33V7C5 5.89543 5.89543 5 7 5H25C26.1046 5 27 5.89543 27 7V14.5M9 9.5H23M9 13.5H17M9 16.5H17" stroke="black"/>
<ellipse cx="29" cy="18.5" rx="6" ry="2.5" stroke="black"/>
<path d="M35 18.5V29.6562C35 30.9507 32.3137 32 29 32C27.9071 32 26.8825 31.8859 26 31.6864M23 18.5V24" stroke="black"/>
<path d="M35 27C35 28.3807 32.3137 29.5 29 29.5C27.9071 29.5 26.8825 29.3783 26 29.1655" stroke="black"/>
<path d="M35 24C35 25.3807 32.3137 26.5 29 26.5C27.9071 26.5 26.8825 26.3783 26 26.1655" stroke="black"/>
<path d="M35 21C35 22.3807 32.3137 23.5 29 23.5C25.6863 23.5 23 22.3807 23 21" stroke="black"/>
<ellipse cx="20" cy="26.5" rx="6" ry="2.5" stroke="black"/>
<path d="M26 26.5V34.6562C26 35.9507 23.3137 37 20 37C16.6863 37 14 35.9507 14 34.6562V26.5" stroke="black"/>
<path d="M26 32C26 33.3807 23.3137 34.5 20 34.5C16.6863 34.5 14 33.3807 14 32" stroke="black"/>
<path d="M26 29C26 30.3807 23.3137 31.5 20 31.5C16.6863 31.5 14 30.3807 14 29" stroke="black"/>
</svg>
