<svg xmlns="http://www.w3.org/2000/svg" width="30" height="30" fill="none" viewBox="0 0 30 30">
    <path fill="#000" fill-rule="evenodd" d="M6.3 16.576c.136-.046.255-.114.356-.204.101-.09.18-.202.234-.338.056-.136.083-.297.083-.482 0-.168-.029-.308-.087-.421-.058-.113-.136-.21-.234-.29-.099-.081-.217-.15-.356-.204-.139-.055-.287-.106-.443-.152v2.178c.162-.012.311-.041.447-.087zM4.67 11.86c-.195.17-.292.42-.292.75 0 .15.025.279.074.386.05.108.12.197.208.269.09.073.196.135.317.187.121.053.254.099.4.139v-2.03c-.279.029-.514.128-.708.299zm-.157 4.378c.228.225.516.367.863.425v-2.3c-.306-.075-.57-.157-.794-.247-.222-.09-.407-.196-.555-.321-.147-.124-.256-.276-.325-.456-.07-.18-.105-.396-.105-.65 0-.261.046-.5.14-.716.092-.217.218-.405.377-.564.16-.16.347-.286.563-.377.217-.093.45-.148.7-.165v-.573h.476v.58c.47.059.842.232 1.12.522.278.289.474.688.59 1.197h-.738c-.115-.573-.44-.908-.972-1.007v2.136l.521.138c.116.029.252.08.408.152.156.072.307.172.451.299.145.128.267.286.37.477.1.19.151.42.151.686 0 .283-.048.535-.143.755-.096.22-.228.409-.395.568-.168.159-.368.285-.599.378-.232.092-.486.15-.764.173v.712h-.477v-.712c-.578-.058-1.038-.26-1.379-.603-.342-.344-.536-.82-.582-1.427h.738c.011.387.131.694.36.92z" clip-rule="evenodd"/>
    <mask id="9k3b6dkgza" width="30" height="26" x="0" y="1" maskUnits="userSpaceOnUse">
        <path fill="#fff" fill-rule="evenodd" d="M0 26.39h30V2H0v24.39z" clip-rule="evenodd"/>
    </mask>
    <g fill="#000" fill-rule="evenodd" clip-rule="evenodd" mask="url(#9k3b6dkgza)">
        <path d="M23.6 12.063h4.284V2.748H23.6v9.314zm4.658.747h-5.031c-.207 0-.374-.168-.374-.373V2.373c0-.206.167-.374.374-.374h5.031c.206 0 .374.168.374.374v10.063c0 .206-.168.373-.374.373z"/>
        <path d="M24.154 22.125h3.177v-9.316h-3.177v9.316zm3.55.747H23.78c-.206 0-.373-.166-.373-.373V12.437c0-.207.167-.374.373-.374h3.924c.207 0 .374.166.374.373V22.5c0 .207-.167.373-.374.373z"/>
        <path d="M24.418 22.872l1.333 2.38 1.332-2.38h-2.665zm1.333 3.518c-.136 0-.261-.073-.327-.19l-1.97-3.518c-.065-.116-.063-.258.004-.372.067-.114.189-.185.322-.185h3.94c.133 0 .255.07.323.184.066.114.068.256.003.372L26.077 26.2c-.067.118-.191.191-.326.191z"/>
        <path d="M.748 22.204h22.659V12.81h-.18c-.207 0-.374-.167-.374-.373V8.552H.748v13.652zm23.077.748H.374c-.206 0-.374-.168-.374-.374v-14.4c0-.207.168-.374.374-.374h22.853c.207 0 .374.167.374.374v3.885h.18c.206 0 .373.167.373.374v9.965c.062.114.059.253-.007.365-.067.114-.19.185-.322.185zM30 12.613h-.748V4.115h-.994v-.747h1.368c.207 0 .374.167.374.373v8.872z"/>
        <path d="M2.875 19.886h10.18v-.748H2.875v.747zM14.959 19.886h6.056v-.748h-6.056v.747zM10.167 12.374h10.474v-1.398H10.167v1.398zm10.848.748H9.793c-.206 0-.374-.166-.374-.373v-2.146c0-.207.168-.373.374-.373h11.222c.206 0 .373.166.373.373v2.146c0 .207-.167.373-.373.373z"/>
    </g>
</svg>
