<svg width="51" height="29" viewBox="0 0 51 29" fill="none" xmlns="http://www.w3.org/2000/svg">
    <path d="M34.357 22.09s2.212 1.775 3.754 1.655c1.314-.102 1.815-1.553 3.129-1.655 1.542-.12 3.754 1.655 3.754 1.655" stroke="#000" stroke-width="1.625"/>
    <rect x="18.313" y="9.563" width="30.875" height="17.875" rx="2.438" stroke="#000" stroke-width="1.625"/>
    <path stroke="#000" stroke-width="1.625" d="M35.375 12.813h9.75M20.75 16.063h24.375"/>
    <path stroke="#000" stroke-width="1.354" stroke-linecap="round" d="M14.427 11.927H2.24M14.114 16.197H5.989M14.114 20.26h-4.063"/>
    <circle cx="11.25" cy="11.25" r="11.25" fill="#E30000"/>
    <path d="M11.368 14.018c.624 0 .967-.387.985-1.028l.114-6.495c0-.062.009-.123.009-.167 0-.686-.44-1.108-1.099-1.108-.66 0-1.107.422-1.107 1.108 0 .044.008.105.008.167l.115 6.495c.017.641.351 1.028.975 1.028zm0 4.236c.72 0 1.283-.553 1.283-1.248 0-.694-.562-1.239-1.283-1.239-.712 0-1.274.545-1.274 1.24 0 .694.562 1.247 1.274 1.247z" fill="#fff"/>
</svg>
