<svg xmlns="http://www.w3.org/2000/svg" width="186" height="200" fill="none" viewBox="0 0 186 200">
    <path fill="#DE4586" fill-rule="evenodd" d="M20.685 67.322c.425.66.873 1.275 1.342 1.849.888 1.08 1.916 2.086 3.083 3.018.047.038.091.076.132.113 2.215 1.573 4.686 2.667 7.413 3.283 2.257.515 4.387 1.333 6.392 2.452 2.055 1.144 3.883 2.553 5.484 4.226.858.905 1.973 3.056 3.348 6.451 1.323 3.283 2.546 6.861 3.668 10.734.858 2.943 2.339 6.056 4.444 9.339 1.185 1.842 2.452 3.528 3.801 5.055.118.133.231.259.34.378-.023.034-.048.065-.075.094-.47.508-1.006 1.005-1.607 1.49-.973.801-2.12 1.574-3.442 2.321-.764.443-1.59.877-2.477 1.301-1.452.686-2.877 1.258-4.274 1.717l-.057-.113c-.817.305-1.674.594-2.572.868-.95.297-1.947.58-2.988.849-.057.104-.12.211-.189.32-.144.256-.289.521-.435.793-1.39 2.628-2.663 6.193-3.82 10.696-1.252 4.877-3.912 17.654-7.98 38.333-.312-.244-.614-.521-.908-.83-.033-.034-.064-.072-.095-.113-1.368-1.463-2.232-3.186-2.59-5.169-.063-.391-.114-.8-.152-1.226.004-.065.004-.134 0-.208l-5.786-98.021zM49.07 173.927l6.448-.264c-1.043-3.12-2.253-7.107-3.63-11.961-1.15 3.411-2.09 7.486-2.818 12.225zm58.037-3.754c-.197-.138-.399-.27-.605-.396-1.721-1.066-4.615-1.727-8.68-1.981-.086 1.283-.136 2.673-.151 4.169l5.541-.227c1.497-.074 2.795-.596 3.895-1.565z" clip-rule="evenodd"/>
    <path fill="#D83275" fill-rule="evenodd" d="M95.817 24.291l.02.02c1.588 1.622 2.502 3.628 2.741 6.017l9.059 104.888c-.536-.933-1.072-1.895-1.608-2.886-2.039-3.771-3.797-6.859-5.276-9.263-1.44-2.339-2.62-4.03-3.536-5.074-1.842-2.118-3.078-3.111-3.707-2.981-.362.087-1.22.124-2.572.113-.92.009-2.073-.01-3.46-.056-1.037-.024-2.046-.187-3.026-.491-1.022-.302-2.012-.755-2.97-1.358l-.021-.014-.035-.024c-1.123-.705-2.2-1.61-3.234-2.716-2.781-2.977-4.351-5.844-4.708-8.603-.019-.194-.044-.383-.076-.566-.038-.377-.076-.729-.114-1.056-.053-.469-.097-.89-.132-1.264.694.015 1.362-.067 2.005-.245 1.067-.28 1.634-.86 1.702-1.736.032-.395-.012-.741-.133-1.037-.126-.352-.36-.635-.7-.85l-.062-.034-.07-.04c-.346-.191-.787-.36-1.324-.51.406-.186.803-.431 1.192-.736.093-.058.181-.12.264-.188 1.188-.959 2.342-2.392 3.461-4.302.205.102.42.16.643.17h1.021c2.37-.749 3.612-1.195 3.726-1.34.251-.314.491-.685.718-1.112.757-1.409 1.249-3.289 1.475-5.64.215-2.34.057-4.46-.472-6.358-.335-1.182-.814-1.993-1.438-2.434v-.113c-.165-1.606-.448-3.146-.85-4.622-.116-.452-.248-.899-.398-1.34-.01-.05-.022-.1-.037-.15-.126-.376-.258-.747-.398-1.113-.06-.165-.124-.328-.189-.49-.856-2.108-1.978-4.064-3.366-5.868-.201-.256-.41-.514-.624-.773-.036-.04-.073-.085-.113-.132-1.869-2.22-3.886-3.86-6.052-4.924-1.593-.98-3.276-1.608-5.05-1.886-1.18-.336-2.53-.525-4.046-.566-1.057-.029-2.066.053-3.026.245-.094.026-.188.05-.283.075.6-2.806.417-5.108-.549-6.904-1.507-2.802-3.688-4.456-6.543-4.962-2.857-.496-5.366.077-7.527 1.717-2.147 1.657-3.256 4.474-3.328 8.452-.056 3.214.549 5.83 1.816 7.847.315.494.662.946 1.04 1.359 1.586 1.732 3.313 2.625 5.181 2.678-.552 1.616-.943 3.364-1.172 5.245-.088.826-.151 1.675-.19 2.547-.168 4.79.96 9.77 3.386 14.94.136 1.559.407 2.987.813 4.283.048.133.092.265.132.396.2.573.427 1.12.681 1.641.857 1.811 1.79 2.66 2.799 2.547l.265-.038 2.477-.453c.444-.161.834-.457 1.172-.886.005.014.012.027.02.038.823 1.16 1.718 2.153 2.685 2.98.724.617 1.486 1.139 2.288 1.566.016.464.022.91.019 1.34.008.281.008.551 0 .81.081.104.163.205.246.302-.278 3.554-.946 6.623-2.005 9.206-.97 2.357-2.407 4.571-4.312 6.641-.11-.119-.223-.245-.34-.377-1.35-1.528-2.617-3.214-3.801-5.056-2.105-3.283-3.587-6.395-4.444-9.338-1.122-3.874-2.345-7.452-3.669-10.734-1.374-3.396-2.49-5.547-3.347-6.452-1.601-1.673-3.43-3.081-5.484-4.226-2.005-1.12-4.136-1.937-6.392-2.452-2.727-.616-5.198-1.71-7.413-3.283-.041-.037-.085-.075-.133-.113-1.167-.932-2.194-1.938-3.082-3.018-.47-.573-.917-1.19-1.343-1.849L18.85 36.553c0-.314-.007-.943-.02-1.886-.012-.478-.018-.968-.018-1.471 0-2.365.013-3.73.038-4.094.126-1.773.479-3.258 1.059-4.452.053-.112.11-.225.17-.34.078-.092.153-.186.227-.283.03-.026.055-.05.076-.075l.018-.02c.529-.642 1.115-1.158 1.76-1.546.96-.556 2.05-.826 3.27-.811l65.149.264c1.954.025 3.7.843 5.238 2.452zm2.97 137.412c.552-1.981 1.006-3.685 1.361-5.113 2.879 2.549 5.949 5.316 9.21 8.301.155.126.306.245.454.358-.255 1.334-.779 2.554-1.57 3.66-.002.022-.008.041-.019.056l-.019.019c-.34.456-.706.852-1.097 1.189-.197-.138-.399-.27-.605-.396-1.721-1.066-4.614-1.726-8.68-1.981.185-2.415.507-4.446.965-6.093z" clip-rule="evenodd"/>
    <path fill="#999" fill-rule="evenodd" d="M95.837 24.31l-.02-.019c-1.537-1.61-3.284-2.427-5.238-2.452l-65.148-.264c-1.22-.015-2.31.255-3.271.81-.645.389-1.231.905-1.76 1.548l-.018.019c-.021.024-.046.05-.076.075-.073.097-.15.19-.227.283.054-.093.11-.187.17-.283 1.01-1.71 2.604-2.905 4.785-3.584.044-.015.088-.034.132-.057.094-.045.188-.095.284-.15l65.697.471c1.34.236 2.62.607 3.838 1.113 2.689 2.218 4.303 5.374 4.842 9.47v-.038l9.115 106.153-.095-.155-.056-.091-1.06-1.792-.094-.151-9.058-104.888c-.24-2.39-1.154-4.395-2.742-6.018zm-84.475 8.376c.041-3.52.457-5.973 1.248-7.357.8-1.374 1.973-2.839 3.517-4.396-.016.025-.035.05-.057.076-2.042 2.352-2.962 5.213-2.76 8.583l8.453 138.034c.423 3.481 1.91 6.518 4.463 9.112 2.987 2.77 7.11 4.103 12.367 3.999 20.907-.615 42.692-1.772 65.357-3.471 2.436-.258 4.296-.798 5.578-1.622 1.296-.812 2.078-1.397 2.345-1.755.266-.363.512-.734.738-1.113-.533 1.113-1.062 2.013-1.589 2.698l-.037.047c-.019.024-.038.046-.057.066-1.607 2.028-4.299 3.304-8.075 3.83-22.113 1.539-36.113 2.338-42.001 2.395-5.88.073-11.439.274-16.68.604-5.225.342-9.77.071-13.635-.811-1.741-.628-3.336-1.59-4.784-2.886-3.637-2.483-5.61-6.551-5.92-12.206L11.363 32.686zm49.206 44.747c-.113-.216-.226-.417-.34-.603-.855-1.368-1.826-1.946-2.913-1.736l-2.383.359c.055.002.118.008.19.018.428.013.856.202 1.285.566.504.415.996 1.082 1.475 2 .573 1.078 1.027 2.292 1.362 3.64.053.225.103.452.151.68.121.556.222 1.134.303 1.736.064.478.108.937.132 1.377.074.956.074 1.843 0 2.66-.014.134-.033.266-.057.396-.01.134-.03.266-.056.396-.06.4-.142.784-.246 1.15-.227.806-.517 1.428-.87 1.868-.303.365-.656.61-1.06.736l2.478-.453c.444-.161.835-.457 1.173-.886.261-.33.488-.746.68-1.245.083-.2.159-.414.227-.642.085-.293.186-.613.303-.962l-.057-.113c.014-.08.026-.163.038-.245.18-1.276.174-2.772-.019-4.49-.248-2.093-.752-3.973-1.513-5.64-.092-.188-.186-.377-.283-.567zm-5.05 96.23l-6.448.264-4.879.207-9.172.378c-1.23.035-2.371-.21-3.422-.736-.479-.231-.939-.527-1.381-.887-.311-.244-.614-.521-.908-.83-.032-.034-.064-.072-.094-.113-1.369-1.463-2.233-3.186-2.591-5.169.312 2.32 1.03 4.018 2.156 5.094 1.613 2.716 4.683 4.037 9.21 3.961l66.207-2.528c3.484-.197 5.823-2.562 7.016-7.093-.411-.248-.827-.531-1.249-.849-.047-.033-.098-.071-.151-.113-.255 1.334-.778 2.553-1.569 3.66-.002.022-.008.041-.019.056l-.019.019c-.341.456-.707.852-1.097 1.189-1.1.969-2.398 1.491-3.896 1.566l-5.54.226-35.175 1.415-6.978.283zM73.145 53.06c-.98-.477-1.994-.835-3.045-1.075-1.033-.24-2.099-.359-3.196-.359-2.657 0-5.04.698-7.148 2.094-1.38.933-2.64 2.166-3.782 3.698-.024.035-.049.066-.076.094-.116.173-.236.35-.36.528-1.362 1.979-2.308 4.218-2.836 6.716-.034.163-.065.326-.094.49-.069.366-.132.737-.19 1.114 0 .05-.006.1-.018.15-.05.44-.095.886-.133 1.34-.143 2.051-.049 4.252.284 6.603.117.862.338 1.843.662 2.943.302 1.043.693 2.188 1.172 3.433.518 1.328 1.344 2.686 2.478 4.075l.907-.924c-1.4-2.133-2.39-4.19-2.969-6.17-.212-.727-.394-1.431-.548-2.112-.259-1.173-.429-2.28-.51-3.32-.102-1.3-.058-2.81.132-4.528.047-.433.104-.88.17-1.34l.019-.15c.058-.377.12-.748.189-1.113.043-.165.081-.329.113-.49.499-2.1 1.331-3.992 2.497-5.68.391-.57.801-1.099 1.229-1.584.805-.929 1.669-1.708 2.59-2.339 1.921-1.283 4.096-1.924 6.525-1.924h.208c1.642.027 3.205.341 4.69.943.274.119.545.245.813.377 1.642.807 3.187 1.976 4.633 3.51.29.31.574.631.851.961.45.532.867 1.06 1.248 1.585 1.07 1.421 1.91 2.805 2.515 4.15.076.164.145.328.209.49.027.057.052.114.075.17.128.319.248.633.36.944.187.508.351 1.004.491 1.49.34 1.114.574 2.17.7 3.17.058.465.102.867.132 1.207-.079-.004-.16-.004-.246 0h-.794c-.005.2-.018.4-.038.603.185.208.342.416.473.623.198.315.375.686.53 1.113-.01.057-.023.114-.038.17.063.165.12.341.17.528.134.431.247.878.34 1.34.28 1.46.342 3.083.19 4.866-.177 2.34-.663 4.276-1.457 5.81-.169.317-.339.6-.51.85-.1.143-.201.275-.303.396-.143.173-.288.324-.435.453-.277.213-.56.377-.85.49 2.37-.749 3.611-1.195 3.725-1.34.251-.314.49-.685.718-1.112.757-1.409 1.248-3.29 1.475-5.64.215-2.34.057-4.46-.472-6.358-.336-1.182-.815-1.993-1.438-2.434v-.113c-.165-1.606-.449-3.147-.85-4.622-.116-.453-.248-.899-.398-1.34-.01-.05-.022-.1-.038-.15-.125-.376-.257-.747-.397-1.113-.06-.165-.124-.328-.189-.49-.857-2.108-1.979-4.064-3.366-5.868-.201-.257-.41-.514-.624-.773l-.114-.132c-1.868-2.22-3.885-3.861-6.051-4.924z" clip-rule="evenodd"/>
    <path fill="#E88E57" fill-rule="evenodd" d="M139.748 124.256c0-.085-.063-.28-.189-.585.311.201.582.302.813.302.172 0 .329-.057.473-.17.07-.175.139-.357.208-.547.177-.496.341-.943.492-1.339.155.586.3 1.315.435 2.188-.002.528-.172 1.208-.511 2.037-.336.829-.746 1.697-1.229 2.604-.026.048-.058.092-.095.132.55.849-.433 3.93-2.95 9.243-1.425 3.044-3.12 6.389-5.087 10.036-7.698 13.03-13.125 19.545-16.282 19.544-.498 0-1.008-.056-1.532-.169-.491-.112-.995-.282-1.513-.51-.475-.196-.96-.441-1.456-.735-.033-.024-.071-.049-.113-.076-.411-.248-.827-.531-1.249-.849-.047-.033-.098-.071-.151-.113-.147-.113-.299-.232-.454-.358-3.261-2.985-6.331-5.752-9.209-8.301.442-1.784.725-3.129.851-4.037 3.713 3.407 6.758 6.036 9.134 7.885.29.221.567.422.832.604.348.255.682.482 1.002.679.211.131.413.25.605.359 1.219.668 2.202.926 2.95.773 1.214-.227 3.118-1.962 5.711-5.207 2.605-3.246 5.914-8.107 9.929-14.582 4.029-6.461 6.153-10.536 6.373-12.224.184-1.339.21-2.144.075-2.415-.042-.029-.086-.06-.132-.094-.218-.164-.451-.353-.7-.566-1.792-1.532-2.718-3.059-2.778-4.58.016.029.129-.155.339-.552.15 1.008.629 2.064 1.437 3.17.87 1.182 1.506 1.773 1.91 1.773.643 0 1.179-.541 1.607-1.622.303-.768.454-1.334.454-1.698zm-5.747-1.071l-.002-.042v.037l.002.005zm-80.997 34.631l-.227 1.472v.037c-.302.753-.599 1.545-.89 2.377-1.15 3.411-2.089 7.486-2.817 12.225l-4.879.207c1.783-8.633 3.17-14.506 4.16-17.619 1.557-4.849 3.366-8.515 5.428-10.999.297 5.388.039 9.488-.775 12.3z" clip-rule="evenodd"/>
    <path fill="#742222" d="M54.138 145.102l-.36.415c.298 5.387.04 9.487-.775 12.299l-.227 1.472v.038c-.302.752-.598 1.544-.889 2.377 1.378 4.853 2.588 8.84 3.631 11.96l6.978-.283c-.354-1.198-.757-2.474-1.21-3.83-1.4-4.037-2.446-7.061-3.139-9.074-2.112-6.186-3.449-11.311-4.01-15.374z"/>
    <path fill="#AF714F" fill-rule="evenodd" d="M62.534 67.755c-.283-1.257-.636-2.338-1.059-3.244.034.085.059.167.076.245.056.167.106.33.151.49.11.39.204.761.284 1.114.129.532.223 1.023.284 1.47.19 1.231.284 2.174.283 2.83 0 1.158-.435 2.484-1.304 3.981-.086.147-.168.292-.246.434-.34.628-.598 1.206-.776 1.736v.018c.115.187.229.388.34.604.098.19.192.379.284.566.76 1.668 1.265 3.548 1.513 5.64.194 1.719.2 3.215.02 4.49-.013.083-.025.165-.039.246l.057.113.019.038c.291.58.613 1.14.964 1.679.088.142.177.274.265.396.745 1.098 1.54 1.997 2.383 2.697.533.442 1.081.807 1.645 1.095l.038.019c.38.193.765.35 1.154.471.169-.123.364-.236.586-.34.112-.045.232-.09.36-.132.945-.326 2.067-.377 3.365-.15.52.075.987.163 1.4.264.406-.186.803-.431 1.191-.736.093-.058.181-.12.265-.189-.838-.326-1.676-.508-2.515-.547h-.303c-.906 0-1.757.057-2.553.17-.024.014-.055.02-.094.019-.805.137-1.492.407-2.062.811-1.977-1.137-3.49-2.703-4.538-4.697.126-.656.189-1.366.189-2.132 0-2.553-.442-5.2-1.324-7.942-.367-1.121-.777-2.14-1.23-3.056.834-1.938 1.294-3.17 1.381-3.698.087-.53.1-1.14.038-1.83-.047-.69-.21-1.67-.492-2.942zm10.76 32.486c-.052-.47-.096-.89-.132-1.264-.457.002-.93-.042-1.418-.132-1.198-.203-2.118-.549-2.761-1.038-.374-.285-.62-.612-.738-.98-.002-.012-.008-.025-.019-.039-.156-.051-.314-.108-.472-.17-.402-.144-.8-.314-1.192-.509-.123-.056-.249-.12-.378-.188.016.463.022.91.019 1.339.009.281.009.552 0 .811.082.104.164.204.246.302.124.144.256.289.397.434.233.243.479.47.737.679 1.496 1.191 3.438 1.795 5.825 1.811-.037-.377-.075-.729-.113-1.056zm67.815 8.017c-.227-.277-.34-.71-.34-1.302 0-.276.019-.465.056-.565.048-.15.161-.326.341-.529-.063.157-.095.395-.095.717 0 .34.114.623.341.849.22.208.497.322.832.34l.094-.076c.44-.316 1.064-.567 1.872-.754.618-.139 1.11-.208 1.476-.208.756 0 1.21.013 1.361.038.378.063.687.245.927.547-.089 0-.271-.019-.549-.057-.277-.05-.485-.075-.624-.075-1.361 0-2.439.289-3.234.868-.68.49-1.021 1.075-1.021 1.754 0 .126.019.214.057.264.059.094.216.195.473.302.301-.359.837-.661 1.607-.905.744-.252 1.374-.378 1.891-.378.66 0 1.171.101 1.532.302-.157-.013-.321-.019-.492-.019-.794 0-1.601.151-2.42.453-1.185.453-1.778 1.107-1.778 1.962 0 .163.013.277.038.339.028.057.104.183.227.378.51-.438 1.071-.721 1.683-.849.24-.05.719-.076 1.437-.076.58 0 1.059.114 1.437.34.184.109.323.235.417.377-.553-.188-1.025-.283-1.419-.283-.744 0-1.475.151-2.193.453-.423.178-.757.386-1.003.623-.315.324-.473.701-.473 1.131 0 .026.019.17.057.434.113.236.346.38.7.434-.029.047-.054.091-.076.132.033-.042.064-.086.095-.132.039-.045.07-.096.094-.151.081-.099.182-.193.303-.283.529-.39 1.336-.584 2.421-.584.474 0 .877.056 1.21.169-.157-.012-.315-.019-.473-.019-.857 0-1.544.202-2.061.604-.479.365-.649.748-.511 1.151l-.019.075c.013.051.095.076.246.076.126 0 .309-.051.549-.151.239-.101.422-.151.548-.151h.208c1.285.05 1.991.559 2.118 1.528-.263.518-.717 1.04-1.362 1.566-1.033.83-2.363 1.251-3.99 1.264-.415-.007-.805-.051-1.172-.132-.254.391-.557 1.013-.908 1.867-.151.397-.315.844-.492 1.34-.068.189-.138.372-.208.547-.143.113-.301.17-.472.17-.232 0-.503-.101-.814-.302-.222-.129-.468-.311-.737-.547.085-.147.173-.304.265-.472.445-.776 1.056-1.77 1.834-2.981.565-.889.993-1.569 1.286-2.037.53-.343 1.053-.52 1.569-.528.404-.013.801.05 1.192.188.179 0 .355-.037.529-.113-.727-.217-1.193-.519-1.399-.905-.155-.065-.319-.16-.492-.283-.617-.44-.926-1.038-.926-1.792 0-.176.019-.302.056-.378l.36-.566c-.196-.091-.373-.229-.53-.415-.214-.251-.321-.503-.321-.754 0-.265.056-.548.17-.849-.706-.104-1.059-.582-1.059-1.434 0-.314.019-.497.057-.547.044-.061.189-.231.435-.509-.35-.167-.596-.33-.738-.491z" clip-rule="evenodd"/>
    <path fill="#333" d="M76.037 95.11l-.133-.076c-.346-.19-.787-.36-1.323-.51-.414-.1-.88-.188-1.4-.264-1.298-.226-2.42-.176-3.366.151-.127.043-.247.087-.36.132-.22.104-.416.217-.585.34-.218.176-.389.377-.511.604-.07.152-.121.316-.151.49-.031.18-.044.35-.038.51.018.106.037.206.057.301.01.014.016.027.019.038.117.369.363.696.737.981.643.49 1.563.835 2.761 1.038.488.09.96.134 1.418.132.694.015 1.362-.067 2.005-.246 1.067-.28 1.634-.859 1.702-1.735.033-.396-.011-.741-.132-1.038-.127-.351-.36-.634-.7-.849z"/>
    <path fill="#933" fill-rule="evenodd" d="M52.53 119.426c.889-.424 1.715-.858 2.478-1.301.295 1.66.642 3.307 1.04 4.942 2.011 8.267 8.668 16.254 19.97 23.959 1.275.876 2.447 1.706 3.517 2.49.384.621 1.424-1.096 3.12-5.15 1.71-4.042 2.586-8.859 2.63-14.451.054-5.581.01-8.951-.133-10.111-.246-1.955-.48-3.696-.7-5.226.98.304 1.99.467 3.026.491 1.388.046 2.541.065 3.46.056.135 2.275.526 4.923 1.173 7.942.905 4.189 2.31 9.1 4.217 14.734 1.53 4.515 3.1 8.835 4.709 12.96.025.313.038.627.038.943 0 .217-.025.5-.076.849-.125.908-.408 2.253-.851 4.037-.355 1.427-.809 3.132-1.361 5.112-.458 1.648-.78 3.679-.965 6.094-.085 1.283-.136 2.673-.15 4.169l-35.175 1.415c-.354-1.198-.758-2.474-1.21-3.83-1.4-4.037-2.446-7.062-3.14-9.074-2.112-6.186-3.448-11.311-4.009-15.375l-.36.415c-.044-.793-.1-1.617-.17-2.471-.53-6.616-1.91-12.917-4.14-18.902-.137-.366-.275-.725-.417-1.076-.258-.664-.522-1.305-.794-1.924 1.398-.459 2.822-1.031 4.274-1.717zm28.329 42.597c-.24-.08-.195-.206.132-.377-.04.129-.084.255-.132.377z" clip-rule="evenodd"/>
    <path fill="url(#paint0_linear)" fill-rule="evenodd" d="M58.506 115.785c-.018.009-.037.015-.057.019-.972.801-2.12 1.574-3.442 2.321.296 1.66.643 3.307 1.04 4.942 2.012 8.267 8.669 16.254 19.97 23.959 1.275.876 2.448 1.706 3.518 2.49.384.621 1.424-1.096 3.12-5.15 1.71-4.042 2.585-8.859 2.629-14.451.055-5.581.01-8.951-.133-10.111-.246-1.955-.48-3.696-.7-5.226-1.021-.303-2.011-.755-2.968-1.358-.02-.012-.039-.025-.057-.038v.038c.139 3.144-.246 5.559-1.154 7.244-1.6 2.968-4.904 4.452-9.909 4.452-2.231 0-4.5-.748-6.808-2.245-2.66-1.723-4.293-4.018-4.898-6.886-.004-.024-.01-.049-.019-.075-.042.026-.086.052-.132.075zm22.485 45.861c-.328.171-.372.297-.132.377.047-.122.092-.248.132-.377zM48.2 121.03c.023.044.042.082.056.113.272.619.537 1.26.795 1.924.141.351.28.71.416 1.076 2.23 5.985 3.611 12.286 4.141 18.902.069.854.126 1.678.17 2.471-2.062 2.484-3.87 6.15-5.427 10.999-.99 3.113-2.378 8.986-4.16 17.619l-9.172.378c-1.231.035-2.372-.21-3.423-.736-.478-.231-.939-.527-1.38-.887 4.067-20.679 6.727-33.456 7.98-38.333 1.157-4.503 2.43-8.068 3.82-10.696.146-.272.291-.537.435-.793.068-.109.131-.216.189-.32 1.04-.269 2.037-.552 2.988-.849.898-.274 1.755-.563 2.572-.868zm89.732-3.113c-.261-.22-.476-.258-.643-.113-.154.144-.407.459-.756.943-.35.499-.861 1.379-1.532 2.641-.272.539-.493.954-.662 1.245.151 1.008.63 2.064 1.437 3.17.87 1.182 1.507 1.773 1.91 1.773.643 0 1.179-.541 1.608-1.622.302-.768.454-1.333.454-1.698 0-.085-.063-.28-.189-.585-.223-.128-.469-.311-.738-.547-.141-.136-.293-.287-.454-.453-.904-.943-1.332-1.999-1.286-3.169.237-.398.471-.819.7-1.264.055-.104.105-.211.151-.321zm-40.715.076c.916 1.044 2.095 2.735 3.536 5.074 1.479 2.404 3.237 5.492 5.276 9.263.536.99 1.072 1.953 1.608 2.886l.094.151 1.059 1.792c.049.085.1.167.151.245.584.965 1.17 1.895 1.759 2.792.571.873 1.145 1.715 1.721 2.528.922 1.306 1.849 2.538 2.78 3.698 4.027-4.459 7.299-8.345 9.815-11.659 2.515-3.316 4.545-6.158 6.089-8.526 1.557-2.367 2.521-3.399 2.893-3.094.045 1.535.972 3.075 2.78 4.622.249.213.482.402.7.566.046.034.09.065.132.094.135.271.11 1.076-.075 2.415-.22 1.688-2.344 5.763-6.373 12.224-4.014 6.475-7.324 11.336-9.928 14.582-2.594 3.245-4.498 4.98-5.712 5.207-.748.153-1.731-.105-2.95-.773-.192-.109-.394-.228-.605-.359-.32-.197-.654-.424-1.002-.679-.265-.182-.542-.383-.832-.604-2.376-1.85-5.421-4.478-9.134-7.885.05-.349.075-.632.075-.849 0-.316-.012-.63-.037-.943-1.61-4.125-3.18-8.445-4.71-12.96-1.906-5.634-3.312-10.545-4.216-14.734-.648-3.019-1.039-5.667-1.173-7.942 1.353.011 2.21-.027 2.572-.113.63-.131 1.865.863 3.707 2.981z" clip-rule="evenodd"/>
    <path fill="#D39468" fill-rule="evenodd" d="M79.27 69.076c-1.522-1.475-3.917-1.978-7.185-1.509-3.266.47-5.56.268-6.884-.604-.303-.193-.587-.394-.851-.603-.44-.357-.817-.728-1.135-1.113-.13-.161-.25-.325-.359-.49-.146-.22-.272-.446-.378-.68-.38-.947-.797-1.796-1.248-2.547-.862-1.425-1.845-2.199-2.95-2.32 1.22.788 2.148 2.115 2.78 3.98.156.463.295.903.415 1.321.423.906.776 1.988 1.06 3.245.28 1.272.444 2.253.491 2.943.061.69.049 1.3-.038 1.83-.087.527-.547 1.76-1.38 3.697.453.916.862 1.935 1.23 3.056.882 2.742 1.323 5.39 1.323 7.942 0 .766-.063 1.476-.19 2.132 1.05 1.994 2.563 3.56 4.54 4.697.57-.404 1.256-.674 2.06-.81.04 0 .071-.006.095-.02.796-.112 1.647-.17 2.553-.17h.303c.839.039 1.677.221 2.515.547 1.188-.958 2.341-2.391 3.46-4.3.026-.032.045-.064.057-.095.13-.211.25-.438.36-.68.063-.127.12-.259.17-.395.985-2.338 1.514-5.91 1.588-10.715.025-1.208.019-2.497-.019-3.868-.016-.446-.098-.893-.245-1.34-.348-1.041-1.06-2.085-2.137-3.13zm-19.212 45.238c-.47.508-1.007 1.005-1.608 1.49.02-.004.04-.01.057-.018.046-.024.09-.049.132-.076.008.026.015.051.02.076.604 2.867 2.237 5.162 4.897 6.885 2.307 1.497 4.577 2.245 6.808 2.245 5.005 0 8.308-1.484 9.91-4.452.907-1.685 1.292-4.1 1.153-7.244v-.038c-1.123-.705-2.2-1.61-3.234-2.716-2.782-2.977-4.351-5.844-4.709-8.603-.018-.194-.043-.383-.075-.566-2.388-.016-4.33-.62-5.825-1.81-.259-.21-.504-.436-.737-.68-.14-.145-.273-.29-.397-.434-.278 3.554-.946 6.623-2.005 9.206-.97 2.357-2.407 4.571-4.312 6.641-.024.034-.049.065-.075.094zm80.768-18.393c.24 0 .524.327.851.98.341.68.498 1.365.473 2.057-.038.692-.246 1.83-.624 3.415-.124.531-.086 1.543.114 3.037.008.023.015.049.018.075.142-.155.294-.294.454-.415l.038-.037c.034-.018.065-.037.095-.057.246-.163.517-.296.813-.396.542-.201 1.336-.277 2.383-.226 1.033.062 1.91.308 2.628.735.719.39 1.211.824 1.475 1.302.202.377.076 1.063-.378 2.056.051.101.139.296.265.585.189.428.283.667.283.717l-.245.434c-.177.314-.265.553-.265.717 0 .037.076.213.227.528.139.327.208.629.208.905-.013.277-.101.56-.265.849-.164.302-.252.579-.265.83 0 .078.013.185.038.321.032.116.07.248.114.396.01.037.016.075.019.113.067.344.067.879 0 1.604-.029.303-.13.605-.303.905-.127-.968-.833-1.478-2.118-1.528h-.208c-.126 0-.309.051-.548.151-.24.101-.423.151-.549.151-.151 0-.233-.025-.246-.075l.019-.076c-.139-.402.032-.786.511-1.151.517-.402 1.204-.603 2.061-.603.158 0 .316.006.473.019-.333-.114-.736-.17-1.21-.17-1.085 0-1.892.195-2.421.585-.121.089-.222.184-.303.283-.024.055-.055.105-.094.151-.031.046-.062.09-.095.132.022-.042.047-.086.076-.132-.354-.054-.587-.199-.7-.434-.038-.264-.057-.409-.057-.434 0-.43.158-.808.473-1.132.246-.237.58-.444 1.002-.623.719-.301 1.45-.452 2.194-.452.394 0 .866.094 1.418.283-.093-.143-.232-.269-.416-.378-.378-.226-.857-.339-1.437-.339-.718 0-1.197.025-1.437.075-.612.129-1.173.412-1.683.849-.123-.195-.199-.321-.227-.377-.025-.063-.038-.176-.038-.34 0-.855.593-1.509 1.778-1.962.819-.302 1.626-.452 2.42-.452.171 0 .335.006.492.018-.362-.201-.872-.301-1.532-.301-.517 0-1.147.125-1.891.377-.77.244-1.306.546-1.607.905-.257-.107-.414-.208-.473-.301-.038-.051-.057-.139-.057-.265 0-.679.341-1.263 1.021-1.754.795-.579 1.873-.868 3.234-.868.139 0 .347.025.624.076.278.037.46.056.549.056-.24-.302-.549-.484-.927-.547-.151-.025-.605-.038-1.362-.038-.365 0-.857.07-1.475.208-.808.187-1.432.438-1.872.755l-.094.075c-.335-.018-.613-.131-.832-.34-.227-.226-.341-.509-.341-.848 0-.322.032-.561.095-.717-.18.203-.293.379-.341.528-.037.101-.056.289-.056.566 0 .591.113 1.025.34 1.302.142.16.388.324.738.49-.246.278-.391.448-.435.509-.038.051-.057.233-.057.547 0 .852.353 1.33 1.059 1.434-.114.302-.17.585-.17.849 0 .252.107.503.321.755.157.185.334.324.53.415l-.36.566c-.037.075-.056.201-.056.377 0 .755.309 1.352.926 1.792.173.124.337.218.492.283.206.387.672.688 1.399.906-.174.075-.35.113-.529.113-.391-.139-.788-.201-1.192-.189-.516.009-1.039.185-1.569.528-.293.469-.721 1.148-1.286 2.038-.778 1.21-1.389 2.204-1.834 2.98-.092.169-.18.326-.265.472-.142-.136-.293-.287-.454-.453-.904-.943-1.332-1.999-1.286-3.169.237-.398.47-.819.7-1.264.055-.104.105-.211.151-.321.64-1.24 1.081-2.397 1.324-3.471-.944-3.513-1.253-5.865-.927-7.055.303-1.182.46-2.044.473-2.585.025-.553.246-1.496.662-2.829.428-1.346.693-2.365.794-3.056.101-.705.126-1.378.076-2.02-.051-.666.113-.993.491-.98z" clip-rule="evenodd"/>
    <path fill="#CCC" fill-rule="evenodd" d="M98.787 21.273v-.02c2.206 2.24 3.473 5 3.801 8.282l9.834 113.189c-.576-.813-1.15-1.655-1.721-2.528L101.34 31.12l-.019-.038c-.602-4.571-2.43-8.074-5.484-10.507-.056-.046-.119-.084-.19-.113-1.355-.575-2.78-.997-4.273-1.264h-.132l-65.867-.472h-.076c-3.869.32-6.642 1.565-8.32 3.735-1.538 1.98-2.062 6.766-1.57 14.356l7.64 128.489v.018c.545 7.324 4.1 11.77 10.666 13.338l.094.019c1.635.178 3.526.253 5.673.226h.038l64.713-3.207c.034-.001.066-.007.095-.019 5.106-.934 7.924-3.82 8.453-8.659.518.228 1.022.398 1.513.51-.186 1.897-.747 3.645-1.683 5.244-.226.379-.472.75-.738 1.113-.267.358-1.049.943-2.344 1.754-1.283.824-3.143 1.365-5.579 1.623-22.664 1.698-44.45 2.855-65.356 3.471-5.258.103-9.38-1.23-12.368-3.999-2.552-2.594-4.04-5.632-4.463-9.112L13.31 29.592c-.202-3.37.718-6.232 2.76-8.583.022-.026.041-.052.057-.076l1.135-.924c.712-.566 1.765-1.126 3.158-1.68 1.395-.542 2.946-.844 4.652-.905l65.848.264c2.925-.012 5.547 1.183 7.867 3.585zm-73.62-.887c.093-.045.187-.095.283-.15-3.595.219-6.022 1.376-7.28 3.47-1.258 2.109-1.674 6.448-1.249 13.017l7.64 128.488c.49 6.538 3.642 10.525 9.456 11.96 1.562.174 3.37.249 5.427.227h.02l64.618-3.207c4.52-.842 6.935-3.476 7.243-7.905-.034-.023-.071-.048-.114-.075-1.193 4.531-3.531 6.896-7.016 7.093l-66.207 2.528c-4.526.075-7.596-1.245-9.21-3.962-1.125-1.075-1.843-2.773-2.155-5.093-.063-.391-.114-.8-.152-1.226.004-.065.004-.134 0-.208l-5.786-98.021-1.835-30.769c0-.314-.006-.943-.019-1.886-.012-.478-.019-.969-.019-1.472 0-2.364.013-3.729.038-4.093.126-1.774.48-3.258 1.06-4.453.052-.111.109-.225.17-.34.053-.092.11-.186.17-.282 1.008-1.71 2.603-2.905 4.784-3.584.044-.015.089-.034.132-.057zm36.025 70.95c.005.015.011.028.019.038.824 1.16 1.719 2.154 2.685 2.981.724.617 1.487 1.139 2.288 1.566.13.069.255.132.379.188.392.196.789.365 1.191.51.158.061.316.118.473.17-.02-.096-.039-.196-.057-.302-.006-.16.007-.33.038-.51.03-.174.08-.338.151-.49-.203-.073-.411-.155-.624-.245-.554-.23-1.096-.513-1.626-.85-.777-.484-1.515-1.081-2.213-1.791-.564-.564-1.1-1.199-1.607-1.906-.142-.199-.281-.4-.416-.603-.193.5-.42.914-.681 1.245z" clip-rule="evenodd"/>
    <path fill="#6D6D6D" fill-rule="evenodd" d="M80.633 62.36c-.324-.629-.652-1.213-.984-1.754 1.07 1.421 1.91 2.805 2.515 4.15.076.164.145.328.208.49.028.057.053.114.076.17.128.319.248.633.36.944.187.508.351 1.004.491 1.49.34 1.114.573 2.17.7 3.17.058.465.102.867.132 1.207-.079-.004-.16-.004-.246 0h-.794c.025-.3.038-.595.038-.887 0-1.581-.278-3.241-.832-4.98-.112-.368-.238-.739-.379-1.113-.35-.94-.779-1.902-1.285-2.887zm2.42 10.47c-.003.029-.01.054-.019.076-.07.685-.19 1.383-.36 2.094-.044.194-.095.376-.15.547-.233.864-.516 1.487-.852 1.868-.074 4.805-.603 8.377-1.588 10.715-.05.136-.107.268-.17.396-.11.241-.23.468-.36.679-.012.031-.03.063-.056.094.204.102.419.159.643.17h.378c.655-1.079 1.203-2.638 1.645-4.678.429-2 .643-3.698.643-5.094 0-.465-.019-1.012-.056-1.641.596-.956 1-1.943 1.21-2.962.025-.118.044-.238.056-.358.016-.056.028-.113.038-.17-.154-.427-.33-.798-.53-1.113-.13-.207-.288-.415-.472-.623zM62.422 88.526l-.02-.038c-.116.349-.217.67-.302.962-.069.228-.144.442-.227.642.135.203.274.404.416.603.508.708 1.044 1.343 1.608 1.906.697.71 1.435 1.307 2.212 1.792.53.336 1.072.619 1.626.849.213.09.421.172.624.245.123-.226.293-.428.511-.604-.389-.12-.773-.277-1.154-.471l-.037-.02c-.564-.287-1.113-.652-1.646-1.093-.843-.701-1.638-1.6-2.382-2.698-.089-.122-.177-.254-.265-.396-.352-.54-.673-1.1-.965-1.68z" clip-rule="evenodd"/>
    <path fill="url(#paint1_linear)" d="M59.244 81.678c-.335-1.349-.789-2.563-1.361-3.64-.48-.919-.971-1.585-1.475-2-.429-.365-.858-.554-1.286-.566-.072-.01-.135-.017-.19-.02l-.037.02c-.05 0-.095.006-.133.018-.181.036-.351.105-.51.208.153.681.336 1.385.548 2.113.579 1.98 1.568 4.036 2.97 6.168l-.909.925-1.89.038c-.991-1.3-1.704-2.577-2.138-3.83l-.094-.264c-.017.901.021 1.882.113 2.943.002.022.002.04 0 .056.137 1.559.408 2.986.814 4.283.047.133.092.265.132.396.2.573.427 1.12.68 1.641.858 1.811 1.79 2.66 2.8 2.547l.264-.038c.404-.126.757-.37 1.06-.736.352-.44.642-1.062.87-1.867.104-.367.186-.75.245-1.15.027-.131.046-.263.057-.397.024-.13.043-.262.056-.396.075-.817.075-1.704 0-2.66-.024-.44-.068-.899-.132-1.377-.08-.602-.181-1.18-.303-1.736-.048-.228-.098-.454-.15-.679z"/>
    <path fill="url(#paint2_linear)" d="M84.528 76.603c-.093-.461-.206-.907-.34-1.339-.05-.186-.107-.362-.17-.528-.013.12-.032.24-.057.358-.21 1.02-.614 2.007-1.21 2.962.037.63.056 1.176.056 1.641 0 1.396-.214 3.094-.643 5.094-.442 2.04-.99 3.6-1.645 4.678h.643c.29-.113.574-.276.851-.49.146-.13.291-.28.435-.453.102-.121.203-.253.303-.396.17-.25.341-.533.51-.85.794-1.533 1.28-3.47 1.456-5.81.153-1.783.09-3.406-.189-4.867z"/>
    <path fill="#000" fill-rule="evenodd" d="M42.792 49.23c.072-3.977 1.181-6.794 3.328-8.45 2.16-1.642 4.67-2.214 7.527-1.718 2.854.507 5.035 2.16 6.543 4.962.966 1.796 1.149 4.098.548 6.904.096-.024.19-.05.284-.075.96-.192 1.969-.274 3.026-.245 1.516.041 2.865.23 4.046.566-.61-.091-1.233-.141-1.872-.151-2.458-.038-4.626.527-6.505 1.698-1.866 1.17-3.416 2.559-4.652 4.169-.128.161-.254.325-.378.49-.003.023-.009.041-.02.057-1.539 2.137-2.604 4.577-3.195 7.32-.036.162-.074.325-.114.49-.052.31-.103.625-.15.943-.01.056-.023.113-.039.17-.073.487-.136.984-.189 1.49-.05.578-.082 1.17-.094 1.773-.05 1.535.025 3.138.226 4.811.171 1.694.714 3.832 1.627 6.414-.017.901.021 1.882.113 2.943.002.022.002.04 0 .056-2.425-5.17-3.553-10.15-3.385-14.94.038-.872.101-1.72.19-2.547.23-1.88.62-3.629 1.172-5.245-1.868-.053-3.595-.946-5.182-2.678-.378-.413-.724-.865-1.04-1.359-1.267-2.017-1.872-4.633-1.815-7.847zm29.312 4.943c.274.119.545.245.813.377 1.642.807 3.186 1.976 4.633 3.51.29.31.574.631.851.961.45.532.867 1.06 1.248 1.585.332.54.66 1.125.984 1.754.506.985.935 1.947 1.285 2.887.141.374.267.745.379 1.113.554 1.739.832 3.399.832 4.98 0 .292-.013.588-.038.887-.005.2-.018.401-.038.603-.003.029-.01.054-.019.076-.07.685-.19 1.383-.36 2.094-.044.194-.094.377-.15.547-.233.864-.516 1.487-.851 1.868.025-1.208.018-2.497-.02-3.868-.015-.446-.097-.893-.245-1.34-.348-1.041-1.06-2.085-2.137-3.13-1.523-1.476-3.918-1.979-7.186-1.51-3.266.47-5.56.268-6.884-.603-.303-.194-.587-.395-.85-.604-.44-.357-.818-.728-1.135-1.113-.13-.161-.25-.325-.36-.49-.145-.22-.272-.446-.378-.68-.38-.947-.796-1.796-1.248-2.547-.862-1.425-1.845-2.199-2.95-2.32 1.221.788 2.148 2.115 2.78 3.98.156.463.295.903.416 1.321.033.085.058.167.075.245.056.167.106.33.152.49.109.39.203.761.283 1.114.13.532.224 1.023.284 1.471.19 1.23.284 2.173.284 2.83 0 1.157-.435 2.484-1.305 3.98-.086.147-.168.292-.246.434-.339.628-.597 1.207-.775 1.736v.019c-.855-1.367-1.826-1.946-2.913-1.736l-2.382.359-.038.019c-.05 0-.095.006-.133.018-.181.036-.351.105-.51.208-.259-1.172-.43-2.28-.51-3.32-.102-1.3-.058-2.809.132-4.528.047-.433.104-.88.17-1.34l.019-.15c.057-.377.12-.748.189-1.113.043-.165.08-.329.113-.49.499-2.1 1.331-3.992 2.496-5.679.392-.572.802-1.1 1.23-1.585.805-.929 1.669-1.708 2.59-2.339 1.921-1.283 4.096-1.924 6.525-1.924h.208c1.642.027 3.205.341 4.69.943z" clip-rule="evenodd"/>
    <path fill="url(#paint3_linear)" d="M73.143 53.06c-1.592-.98-3.275-1.609-5.049-1.887-.61-.09-1.234-.14-1.872-.15-2.458-.039-4.627.527-6.505 1.697-1.866 1.17-3.417 2.56-4.652 4.17-.128.161-.254.325-.379.49-.002.022-.008.041-.019.056-1.54 2.138-2.604 4.577-3.196 7.32-.035.162-.073.326-.113.49-.053.311-.103.625-.151.944-.01.056-.023.113-.038.17-.074.486-.137.983-.19 1.49-.05.578-.081 1.169-.094 1.773-.05 1.534.026 3.138.227 4.81.171 1.694.713 3.832 1.627 6.415l.094.264c.434 1.253 1.146 2.53 2.137 3.83l1.891-.038c-1.133-1.39-1.96-2.748-2.477-4.075-.48-1.246-.87-2.39-1.173-3.434-.324-1.099-.544-2.08-.662-2.943-.332-2.35-.427-4.55-.283-6.602.038-.454.082-.9.132-1.34.013-.05.02-.1.019-.15.058-.377.12-.748.19-1.114.028-.164.06-.328.094-.49.527-2.499 1.473-4.737 2.836-6.716l.36-.528c.026-.028.052-.06.075-.095 1.142-1.531 2.402-2.764 3.782-3.697 2.108-1.396 4.491-2.094 7.149-2.094 1.097 0 2.162.12 3.196.358 1.05.24 2.065.599 3.044 1.076z"/>
    <path fill="#fff" d="M95.837 20.575c-.056-.046-.119-.084-.19-.114-1.355-.575-2.78-.996-4.273-1.263h-.132l-65.867-.472h-.076c-3.869.32-6.642 1.565-8.32 3.735-1.538 1.98-2.062 6.766-1.57 14.356l7.64 128.488v.019c.545 7.324 4.1 11.77 10.666 13.338l.094.019c1.635.177 3.526.253 5.673.226h.038l64.713-3.207c.034-.001.066-.007.095-.019 5.106-.934 7.924-3.821 8.453-8.659-.475-.196-.96-.441-1.456-.736-.308 4.429-2.722 7.063-7.243 7.905l-64.618 3.207h-.02c-2.056.022-3.865-.053-5.427-.227-5.814-1.435-8.966-5.422-9.455-11.96l-7.64-128.488c-.425-6.57-.01-10.908 1.248-13.017 1.258-2.095 3.685-3.252 7.28-3.47l65.697.47c1.34.237 2.62.608 3.839 1.114 2.688 2.217 4.302 5.374 4.841 9.47v-.038l9.115 106.152c.584.965 1.17 1.895 1.759 2.792L101.34 31.12l-.019-.038c-.602-4.571-2.43-8.074-5.484-10.507z"/>
    <path fill="#000" d="M77.815 74.453c-.416.2-.763.522-1.04.962-.265.377-.473.849-.625 1.415-.34 1.207-.416 2.15-.226 2.83.012-.24.05-.491.113-.755.088-.415.24-.868.454-1.359.088-.2.189-.383.302-.547.303-.477.669-.804 1.097-.98.593-.252 1.122-.076 1.589.528.441.59.706 1.402.794 2.433.038-.478.05-.924.038-1.34-.05-.968-.233-1.741-.549-2.32-.516-.955-1.166-1.245-1.947-.867zM67.66 75.51c-1.085-.051-1.98.458-2.686 1.527-.668.994-.901 2.245-.7 3.754-.012-.113-.019-.188-.019-.226 0-1.031.328-1.893.984-2.584.655-.705 1.456-1.038 2.401-1 .933.037 1.728.44 2.383 1.207.53.604.889 1.088 1.078 1.453-.038-.78-.284-1.56-.737-2.34-.719-1.157-1.62-1.754-2.705-1.792z"/>
    <path fill="url(#paint4_radial)" d="M69.626 83.281c-.605-.767-1.443-1.295-2.515-1.584-1.034-.29-2.01-.252-2.93.113-.883.365-1.413.937-1.59 1.717-.188.83.032 1.622.663 2.377.668.78 1.512 1.308 2.533 1.584 1.06.29 2.024.258 2.894-.094.895-.365 1.437-.95 1.626-1.755.164-.792-.063-1.578-.68-2.358z"/>
    <path fill="url(#paint5_radial)" d="M76.056 85.224c.15.78.592 1.27 1.323 1.472.719.188 1.513.037 2.383-.453.426-.247.81-.55 1.154-.906.307-1.397.522-3.038.643-4.923-.134-.079-.286-.142-.454-.189-.77-.189-1.582-.038-2.44.453-.87.49-1.557 1.182-2.061 2.075-.504.893-.687 1.717-.548 2.471z"/>
    <path fill="#92194A" fill-rule="evenodd" d="M171.745 37.685c1.931 1.928 2.895 4.249 2.894 6.961v25.901c-.001 2.709-.966 5.017-2.894 6.924-1.911 1.923-4.225 2.885-6.94 2.886h-45.953c-2.719.002-5.045-.96-6.979-2.886-1.061-1.06-1.83-2.249-2.307-3.566-.096-.289-.184-.585-.264-.886-.19-.783-.284-1.607-.284-2.472v-7.564l-13.843 3.301c-3.681.968-4.003.497-.964-1.415l14.807-9.866V44.646c-.001-2.709.951-5.023 2.855-6.942l.019-.019c1.924-1.9 4.244-2.85 6.96-2.849h45.953c2.72 0 5.033.949 6.94 2.849zm-1.078 1.075c-1.61-1.608-3.564-2.413-5.862-2.414h-45.954c-2.298 0-4.264.805-5.9 2.414-1.613 1.632-2.42 3.594-2.421 5.886v10.772c-.001.03-.007.062-.019.094-.006.085-.032.167-.075.245-.063.114-.145.208-.246.284l-13.143 8.338 12.556-3.113c.139-.038.284-.025.435.038.152.05.271.144.36.283.088.125.132.264.132.415v8.545c.001.874.114 1.697.341 2.472.098.303.212.599.34.886.405.909.985 1.739 1.74 2.49 1.634 1.634 3.601 2.452 5.9 2.453h45.954c2.298.001 4.252-.81 5.862-2.434l.019-.018c1.627-1.607 2.441-3.556 2.439-5.849v-25.9c-.001-2.294-.821-4.256-2.458-5.887z" clip-rule="evenodd"/>
    <path fill="#fff" d="M170.667 38.76c-1.61-1.608-3.564-2.413-5.862-2.414h-45.954c-2.298 0-4.264.805-5.9 2.414-1.613 1.632-2.42 3.594-2.421 5.886v10.772c-.001.03-.007.062-.019.094-.006.085-.032.167-.075.246-.063.113-.145.207-.246.283l-13.143 8.338 12.556-3.113c.139-.038.284-.025.435.038.152.05.272.145.36.283.088.126.132.264.132.415v8.546c.001.873.114 1.697.341 2.47.098.304.212.6.34.888.405.908.985 1.738 1.74 2.49 1.634 1.633 3.601 2.45 5.9 2.452h45.954c2.298.001 4.252-.81 5.862-2.433l.019-.02c1.627-1.606 2.441-3.555 2.439-5.847V44.646c-.001-2.293-.821-4.255-2.458-5.886z"/>
    <path fill="#C82164" d="M140.353 41.816l-.019.02c-.302-.39-.498-.636-.586-.737-.87-.867-1.935-1.364-3.196-1.49.378.277.782.704 1.21 1.283.769 1.044 1.16 2.264 1.173 3.66.012 1.383-.183 2.515-.586 3.395-.164.34-.379.68-.643 1.02-.051.05-.101.106-.152.169-.101.1-.189.207-.264.32-1.16 1.158-2.661 1.673-4.501 1.547-.605-.05-1.217-.22-1.835-.509-1.134-.553-1.884-1.314-2.25-2.282-.113-.353-.189-.61-.227-.774-.139-.654-.164-1.32-.076-2 .164-.83.524-1.521 1.078-2.075.328-.34.694-.603 1.097-.792.101-.063.208-.113.322-.151.416-.138.857-.214 1.323-.226h.038c.126 0 .252.012.378.037.795.076 1.482.503 2.062 1.283.567.78.763 1.66.586 2.641-.076.44-.265.83-.567 1.17l-.076.113c-.378.415-.826.635-1.343.66-.567-.025-1.027-.245-1.38-.66-.038-.05-.082-.107-.133-.17-.163-.264-.239-.522-.226-.773.012-.176.075-.346.189-.51.025.277.182.547.472.812.278.251.643.346 1.097.283.782-.164 1.192-.717 1.229-1.66.013-.428-.088-.8-.302-1.114-.328-.477-.832-.792-1.513-.943-.807.013-1.469.283-1.986.811-.517.516-.775 1.183-.775 2 0 .453.088.874.265 1.264.101.239.227.459.378.66.076.076.151.157.227.245.567.617 1.229.938 1.986.963 1.286.05 2.3-.352 3.044-1.208.152-.213.29-.434.416-.66.29-.528.473-1.082.549-1.66.264-1.773-.183-3.213-1.343-4.32-1.235-1.094-2.66-1.54-4.274-1.34-.63.088-1.242.265-1.834.529-1.614.855-2.755 2.194-3.423 4.018-.164.604-.252 1.239-.265 1.905-.012.113-.019.22-.019.32 0 .403.032.806.095 1.208.239 1.962 1.09 3.666 2.553 5.113.706.717 1.74 1.301 3.101 1.754 1.337.44 2.906.635 4.709.585 1.79-.05 3.202-.447 4.236-1.189.063.164 0 .378-.189.642-.189.239-.498.54-.927.905-1.235 1.006-3.139 1.51-5.711 1.51-2.597 0-4.809-.88-6.638-2.642-.642-.59-1.178-1.232-1.607-1.924.857 2.666 2.679 5.238 5.465 7.716 2.484 2.188 4.69 3.767 6.619 4.735.87.44 1.683.755 2.44.943.126.025.245.05.359.076.05.012.107.025.17.037.177-.037.359-.075.549-.113l.226-.075c.681-.176 1.419-.466 2.213-.868 1.929-.968 4.135-2.547 6.619-4.735 3.568-3.194 5.553-6.534 5.957-10.017.113-.868.164-1.686.151-2.453-.076-2.39-.706-4.395-1.891-6.018-1.588-2.125-3.807-3.188-6.657-3.188-2.861-.012-5.043.723-6.543 2.207-.214.214-.422.453-.624.717zM132.372 71.642c-.34.34-.51.742-.51 1.207 0 .478.17.887.51 1.226.341.34.751.51 1.23.51.466 0 .87-.17 1.21-.51.34-.34.511-.748.511-1.226 0-.465-.171-.868-.511-1.207-.34-.34-.744-.51-1.21-.51-.479 0-.889.17-1.23.51zM142.187 72.868c0-.478-.164-.88-.492-1.207-.353-.353-.762-.529-1.229-.529-.479 0-.882.176-1.21.528-.34.328-.511.73-.511 1.208 0 .465.171.868.511 1.207.328.34.731.51 1.21.51.467 0 .876-.17 1.229-.51.328-.34.492-.742.492-1.207zM146.121 71.66c-.34.328-.51.73-.51 1.208 0 .465.17.868.51 1.207.341.34.751.51 1.23.51.466 0 .87-.17 1.21-.51.34-.34.511-.742.511-1.207 0-.478-.171-.88-.511-1.207-.34-.353-.744-.529-1.21-.529-.479 0-.889.176-1.23.528z"/>
    <defs>
        <linearGradient id="paint0_linear" x1="105.271" x2="104.17" y1="176.147" y2="110.768" gradientUnits="userSpaceOnUse">
            <stop stop-color="#F96"/>
            <stop offset=".922" stop-color="#FFE28A"/>
        </linearGradient>
        <linearGradient id="paint1_linear" x1="62.57" x2="52.433" y1="81.555" y2="78.557" gradientUnits="userSpaceOnUse">
            <stop stop-color="#CCC"/>
            <stop offset="1" stop-color="#fff"/>
        </linearGradient>
        <linearGradient id="paint2_linear" x1="86.806" x2="77.919" y1="81.799" y2="79.001" gradientUnits="userSpaceOnUse">
            <stop stop-color="#CCC"/>
            <stop offset="1" stop-color="#fff"/>
        </linearGradient>
        <linearGradient id="paint3_linear" x1="76.609" x2="57.102" y1="67.73" y2="53.232" gradientUnits="userSpaceOnUse">
            <stop stop-color="#CCC"/>
            <stop offset="1" stop-color="#fff"/>
        </linearGradient>
        <radialGradient id="paint4_radial" cx="0" cy="0" r="1" gradientTransform="translate(66.4116 84.5643) rotate(15.1418) scale(4.26106 3.50068)" gradientUnits="userSpaceOnUse">
            <stop offset=".447" stop-color="#CC755F"/>
            <stop offset=".922" stop-color="#CC7560" stop-opacity=".01"/>
        </radialGradient>
        <radialGradient id="paint5_radial" cx="0" cy="0" r="1" gradientTransform="translate(79.2326 83.4132) rotate(150.774) scale(3.8734 4.29716)" gradientUnits="userSpaceOnUse">
            <stop offset=".447" stop-color="#CC755F"/>
            <stop offset=".922" stop-color="#CC7560" stop-opacity=".01"/>
        </radialGradient>
    </defs>
</svg>
