<svg width="80" height="80" viewBox="0 0 80 80" fill="none" xmlns="http://www.w3.org/2000/svg">
<circle cx="40" cy="40" r="38.5" stroke="#22CFA8" stroke-width="3"/>
<path d="M56.0665 22.006C55.9851 22.019 55.9069 22.045 55.8321 22.0841L22.495 36.4045C22.1988 36.5347 22.0067 36.8276 22.0002 37.1498C21.9937 37.4753 22.1792 37.7714 22.469 37.9146L34.8922 44.1115L41.0908 56.5312C41.2341 56.8208 41.5303 57.0063 41.8559 56.9998C42.1782 56.9933 42.4712 56.8013 42.6014 56.5051L56.9259 23.1776C57.0496 22.9042 57.0171 22.582 56.838 22.3412C56.6622 22.0971 56.366 21.9702 56.0665 22.006ZM52.5244 25.3127L35.335 42.4972L24.813 37.2377L52.5244 25.3127ZM53.6964 26.4844L41.768 54.1878L36.507 43.6688L53.6964 26.4844Z" fill="#22CFA8"/>
</svg>
