<svg xmlns="http://www.w3.org/2000/svg" width="106" height="78" fill="none" viewBox="0 0 106 78">
    <path fill="#D92E76" d="M103.375.625c-.031.008-.062.02-.094.031-.261.067-.488.235-.625.47L82.219 32.812 68.156 20.125c-.246-.312-.656-.449-1.043-.347-.386.101-.671.425-.73.82-.059.394.121.785.461.996l14.906 13.5c.219.191.512.277.801.234.29-.043.543-.207.7-.453l21.093-32.687c.23-.328.242-.762.031-1.102-.211-.34-.605-.52-1-.46z"/>
    <path fill="#000" fill-rule="evenodd" d="M4.5 48.496C4.5 33.876 16.376 22 30.996 22s26.496 11.876 26.496 26.496-11.876 26.496-26.496 26.496S4.5 63.116 4.5 48.496zm50.688 0c0-13.374-10.818-24.192-24.192-24.192-13.375 0-24.192 10.818-24.192 24.192 0 13.375 10.817 24.192 24.192 24.192 13.374 0 24.192-10.817 24.192-24.192zM30.996 27.76c-11.439 0-20.736 9.297-20.736 20.736s9.297 20.736 20.736 20.736c4.026 0 7.794-1.15 10.978-3.141.54-.337.704-1.048.368-1.587-.337-.54-1.048-.705-1.588-.368-2.83 1.77-6.17 2.792-9.758 2.792-10.194 0-18.432-8.239-18.432-18.432 0-10.194 8.238-18.432 18.432-18.432 10.193 0 18.432 8.238 18.432 18.432 0 6.272-5.222 10.368-10.368 10.368-1.91 0-2.535-.752-2.923-1.881-.374-1.09-.242-2.602.092-3.54l6.2-14.872c.156-.36.118-.775-.101-1.102-.22-.326-.59-.518-.982-.509-.463.01-.875.295-1.046.725l-.959 2.301c-.559-1.068-1.291-1.937-2.187-2.58-1.615-1.16-3.632-1.582-5.827-1.582-2.656 0-5.785 1.595-8.388 4.437-2.603 2.842-4.615 7.013-4.615 12.24 0 2.32.697 4.475 2.072 6.075 1.375 1.6 3.445 2.592 5.893 2.592 2.809 0 4.904-1.005 6.376-2.36.464-.427.854-.885 1.215-1.35.011.036.02.072.03.109.014.054.028.109.047.163.628 1.828 2.405 3.438 5.103 3.438 6.374 0 12.672-5.12 12.672-12.672 0-11.439-9.297-20.736-20.736-20.736zm4.815 11.516c-1.087-.78-2.585-1.148-4.484-1.148-1.645 0-4.44 1.236-6.687 3.69-2.248 2.455-4.012 6.044-4.012 10.684 0 1.858.56 3.461 1.517 4.574.956 1.112 2.292 1.788 4.144 1.788 2.288 0 3.699-.723 4.817-1.752 1.118-1.03 1.904-2.421 2.621-3.733.028-.052.06-.101.095-.148l.265-.64c.006-.015.01-.032.016-.049l.016-.052c.027-.077.061-.15.103-.22l.003-.005 3.793-9.103c-.4-1.956-1.16-3.134-2.207-3.886z" clip-rule="evenodd"/>
</svg>
