<svg width="31" height="30" viewBox="0 0 31 30" fill="none" xmlns="http://www.w3.org/2000/svg">
<mask id="path-1-inside-1" fill="white">
<path fill-rule="evenodd" clip-rule="evenodd" d="M13.603 21.9331C11.5051 21.3062 9.27278 17.348 9.27278 17.348C9.104 17.1693 9.104 16.8784 9.27284 16.6997C9.38315 16.5829 9.51206 16.5654 9.57893 16.5654C9.64593 16.5654 9.7749 16.5827 9.88527 16.6997L12.0721 19.0152C12.074 19.0172 12.0759 19.0193 12.0779 19.0212C12.4849 19.4442 13.0235 19.6772 13.5941 19.6772C14.1725 19.6772 14.7162 19.4386 15.1253 19.0058C15.9694 18.1119 15.9694 16.6575 15.1253 15.7635C15.1253 15.7635 12.6352 11.9946 10.3442 11.0633C8.05321 10.132 5.07709 10.5198 4.0464 11.3332C2.03925 12.917 2.14341 15.2204 3.75471 19.0883C5.366 22.9561 9.93805 26.1329 11.6825 26.384C15.1691 27.5387 21.8787 25.4638 21.8787 25.4638C23.1801 24.8269 24.5396 24.6071 23.5312 22.5941C22.5229 20.5811 15.7009 22.56 13.603 21.9331Z"/>
</mask>
<path fill-rule="evenodd" clip-rule="evenodd" d="M13.603 21.9331C11.5051 21.3062 9.27278 17.348 9.27278 17.348C9.104 17.1693 9.104 16.8784 9.27284 16.6997C9.38315 16.5829 9.51206 16.5654 9.57893 16.5654C9.64593 16.5654 9.7749 16.5827 9.88527 16.6997L12.0721 19.0152C12.074 19.0172 12.0759 19.0193 12.0779 19.0212C12.4849 19.4442 13.0235 19.6772 13.5941 19.6772C14.1725 19.6772 14.7162 19.4386 15.1253 19.0058C15.9694 18.1119 15.9694 16.6575 15.1253 15.7635C15.1253 15.7635 12.6352 11.9946 10.3442 11.0633C8.05321 10.132 5.07709 10.5198 4.0464 11.3332C2.03925 12.917 2.14341 15.2204 3.75471 19.0883C5.366 22.9561 9.93805 26.1329 11.6825 26.384C15.1691 27.5387 21.8787 25.4638 21.8787 25.4638C23.1801 24.8269 24.5396 24.6071 23.5312 22.5941C22.5229 20.5811 15.7009 22.56 13.603 21.9331Z" stroke="black" stroke-width="1.94" stroke-linejoin="round" mask="url(#path-1-inside-1)"/>
<path d="M12.4545 21.5523C12.4545 21.5523 15.5659 20.6132 17.2793 20.7839C18.9132 21.1281 19.2256 22.1346 19.2256 22.1346" stroke="black" stroke-width="0.97" stroke-linecap="round"/>
<mask id="path-3-inside-2" fill="white">
<path fill-rule="evenodd" clip-rule="evenodd" d="M23.8891 4.28571C22.649 4.28571 21.4133 4.87959 20.614 5.84347C19.8145 4.87959 18.5781 4.28571 17.3387 4.28571C15.0868 4.28571 13.3389 6.06777 13.3389 8.36457C13.3389 11.5553 15.811 13.4865 19.5946 16.8983L20.6141 17.7964L21.6336 16.8983C25.4167 13.4864 27.8889 11.1866 27.8889 8.36457C27.8888 6.06784 26.1412 4.28571 23.8891 4.28571Z"/>
</mask>
<path fill-rule="evenodd" clip-rule="evenodd" d="M23.8891 4.28571C22.649 4.28571 21.4133 4.87959 20.614 5.84347C19.8145 4.87959 18.5781 4.28571 17.3387 4.28571C15.0868 4.28571 13.3389 6.06777 13.3389 8.36457C13.3389 11.5553 15.811 13.4865 19.5946 16.8983L20.6141 17.7964L21.6336 16.8983C25.4167 13.4864 27.8889 11.1866 27.8889 8.36457C27.8888 6.06784 26.1412 4.28571 23.8891 4.28571Z" stroke="black" stroke-width="1.94" mask="url(#path-3-inside-2)"/>
</svg>
