<svg width="28" height="28" viewBox="0 0 28 28" fill="none" xmlns="http://www.w3.org/2000/svg">
<path fill-rule="evenodd" clip-rule="evenodd" d="M5.15785 10.5914C5.35358 6.79271 7.76175 2.80005 14 2.80005H14.1995L15.182 3.77396C19.2596 3.87097 21.6639 6.30576 21.8596 10.5914V12.5392C22.6674 12.5392 23.3333 13.1992 23.3333 14V15.9479C23.3333 16.7487 22.6674 17.4087 21.8596 17.4087V17.8957C21.8596 20.0528 20.1058 21.7914 17.9298 21.7914H15.8728C15.6674 22.3544 15.1263 22.7653 14.4912 22.7653H13.5087C12.7009 22.7653 12.035 22.1052 12.035 21.3044C12.035 20.5036 12.7009 19.8435 13.5087 19.8435H14.4912C15.1263 19.8435 15.6674 20.2544 15.8728 20.8174H17.9298C19.5858 20.8174 20.8772 19.5373 20.8772 17.8957V17.5457C20.7793 17.5875 20.6833 17.6275 20.5855 17.6522C20.5071 17.8385 20.4292 18.0304 20.3498 18.2259L20.3498 18.2259C20.1802 18.6433 20.0038 19.0774 19.8026 19.5087C19.4092 19.9462 18.8566 20.1878 18.2675 20.2848C18.7587 19.3604 19.25 18.2799 19.7412 17.0131L19.8486 16.724L20.1403 16.6783C20.2228 16.6783 20.3073 16.665 20.3859 16.6479V15.0348L19.6184 15.4153C19.4649 15.4895 19.2845 15.4799 19.1406 15.3886C18.9986 15.2992 18.9103 15.1433 18.9122 14.974V11.3979C18.4498 11.2457 16.7458 10.578 15.4276 8.85657C14.1823 10.0435 12.3824 10.7074 10.8223 11.0783C9.45067 11.4055 8.58278 11.4594 8.19133 11.4837L8.10522 11.4892V14.974C8.10714 15.1433 8.01887 15.2992 7.87688 15.3886C7.73296 15.4799 7.55259 15.4895 7.39908 15.4153L5.78724 14.6544C5.70281 14.8446 5.64908 15.0843 5.64908 15.3696C5.64908 16.1 6.19212 16.6783 6.8311 16.6783L7.12277 16.724L7.21487 17.0131C9.08192 21.8827 11.1044 24.2261 13.4627 24.2261C14.6907 24.2261 15.821 23.5927 16.9013 22.2783H18.1754C16.9972 23.9332 15.4736 25.2 13.5087 25.2C9.87441 25.2 7.75599 20.9639 6.47803 17.6522C5.39771 17.4087 4.66663 16.49 4.66663 15.3696C4.66663 14.7362 4.81438 14.2378 5.15785 13.8479V10.5914ZM14.7829 4.74784L13.8004 3.77393C10.2141 3.82339 6.38978 5.6723 6.09428 10.5913V13.7109L7.12279 14.1978V11.0783C7.12279 10.8215 7.32427 10.6065 7.58331 10.5913C7.58331 10.5913 8.96681 10.5247 10.6074 10.1348C12.2481 9.74486 14.1113 9.01632 15.0899 7.85219C15.1724 7.74757 15.2952 7.6829 15.4276 7.66958C15.6118 7.65437 15.7903 7.74187 15.8881 7.89784C17.0932 9.84377 19.5416 10.6065 19.5416 10.6065C19.7527 10.6674 19.8966 10.8595 19.8947 11.0783V14.1826L20.3859 13.9391V13.0261C20.384 12.7731 20.5778 12.562 20.8311 12.5391H20.8772V10.5913C20.7793 8.40002 19.8947 4.74784 14.9824 4.74784H14.7829ZM21.3684 13.5131H21.8596C22.1321 13.5131 22.3508 13.7299 22.3508 14V15.9479C22.3508 16.218 22.1321 16.4348 21.8596 16.4348H21.4605C21.4298 16.4272 21.3991 16.4215 21.3684 16.4196V14.3044C21.3761 14.253 21.3761 14.2036 21.3684 14.1522V13.5131ZM14.4912 20.8174H13.5087C13.2363 20.8174 13.0175 21.0343 13.0175 21.3044C13.0175 21.5745 13.2363 21.7913 13.5087 21.7913H14.4912C14.7637 21.7913 14.9824 21.5745 14.9824 21.3044C14.9824 21.0343 14.7637 20.8174 14.4912 20.8174Z" fill="black"/>
</svg>
