<svg width="28" height="28" viewBox="0 0 28 28" fill="none" xmlns="http://www.w3.org/2000/svg">
<path fill-rule="evenodd" clip-rule="evenodd" d="M5.15792 10.5911C5.35364 6.79247 7.76181 2.7998 14 2.7998H14.1996L15.182 3.77372C19.2596 3.87073 21.6639 6.30551 21.8597 10.5911V12.5389C22.6675 12.5389 23.3334 13.199 23.3334 13.9998V15.9476C23.3334 16.7484 22.6675 17.4085 21.8597 17.4085V17.8955C21.8597 20.0525 20.1058 21.7911 17.9298 21.7911H15.8728C15.6675 22.3542 15.1264 22.765 14.4912 22.765H13.5088C12.701 22.765 12.0351 22.105 12.0351 21.3042C12.0351 20.5033 12.701 19.8433 13.5088 19.8433H14.4912C15.1264 19.8433 15.6675 20.2542 15.8728 20.8172H17.9298C19.5858 20.8172 20.8772 19.537 20.8772 17.8955V17.5455C20.7794 17.5873 20.6834 17.6272 20.5855 17.652C20.5072 17.8382 20.4293 18.0301 20.3498 18.2256L20.3498 18.2256C20.1802 18.6431 20.0039 19.0771 19.8027 19.5085C19.4093 19.946 18.8567 20.1876 18.2676 20.2846C18.7588 19.3601 19.25 18.2797 19.7412 17.0128L19.8487 16.7237L20.1404 16.6781C20.2229 16.6781 20.3073 16.6648 20.386 16.6476V15.0346L19.6184 15.415C19.4649 15.4892 19.2846 15.4797 19.1406 15.3884C18.9986 15.299 18.9104 15.143 18.9123 14.9737V11.3976C18.4499 11.2455 16.7459 10.5778 15.4277 8.85633C14.1823 10.0433 12.3824 10.7071 10.8224 11.0781C9.45073 11.4052 8.58284 11.4591 8.19139 11.4835L8.10528 11.4889V14.9737C8.1072 15.143 8.01893 15.299 7.87694 15.3884C7.73302 15.4797 7.55265 15.4892 7.39914 15.415L5.7873 14.6542C5.70287 14.8444 5.64914 15.084 5.64914 15.3694C5.64914 16.0998 6.19218 16.6781 6.83116 16.6781L7.12283 16.7237L7.21493 17.0128C9.08198 21.8824 11.1045 24.2259 13.4627 24.2259C14.6908 24.2259 15.821 23.5925 16.9013 22.2781H18.1755C16.9973 23.933 15.4737 25.1998 13.5088 25.1998C9.87447 25.1998 7.75605 20.9637 6.47809 17.652C5.39777 17.4085 4.66669 16.4897 4.66669 15.3694C4.66669 14.7359 4.81444 14.2376 5.15792 13.8476V10.5911ZM14.7829 4.7476L13.8005 3.77369C10.2141 3.82314 6.38984 5.67206 6.09434 10.5911V13.7106L7.12285 14.1976V11.078C7.12285 10.8212 7.32433 10.6063 7.58337 10.5911C7.58337 10.5911 8.96687 10.5245 10.6075 10.1346C12.2481 9.74461 14.1113 9.01608 15.09 7.85195C15.1725 7.74733 15.2953 7.68265 15.4277 7.66934C15.6119 7.65412 15.7903 7.74162 15.8882 7.8976C17.0932 9.84352 19.5417 10.6063 19.5417 10.6063C19.7528 10.6672 19.8967 10.8593 19.8948 11.078V14.1824L20.386 13.9389V13.0259C20.3841 12.7729 20.5779 12.5617 20.8312 12.5389H20.8772V10.5911C20.7794 8.39977 19.8948 4.7476 14.9825 4.7476H14.7829ZM21.3685 13.5128H21.8597C22.1322 13.5128 22.3509 13.7297 22.3509 13.9998V15.9476C22.3509 16.2177 22.1322 16.4346 21.8597 16.4346H21.4606C21.4299 16.427 21.3992 16.4213 21.3685 16.4194V14.3041C21.3761 14.2528 21.3761 14.2033 21.3685 14.152V13.5128ZM14.4913 20.8172H13.5088C13.2363 20.8172 13.0176 21.034 13.0176 21.3041C13.0176 21.5742 13.2363 21.7911 13.5088 21.7911H14.4913C14.7637 21.7911 14.9825 21.5742 14.9825 21.3041C14.9825 21.034 14.7637 20.8172 14.4913 20.8172Z" fill="#D83275"/>
</svg>
