<svg xmlns="http://www.w3.org/2000/svg" width="25" height="25" fill="none" viewBox="0 0 25 25">
    <path fill="#000" fill-rule="evenodd" d="M12.5 1.667c-.849 0-1.588.392-2.546.902-.196.104-.401.213-.618.325-1.281.659-2.995 1.453-5.676 2.04l-.327.074v.334c0 6.385 2.232 10.646 4.473 13.29 2.243 2.647 4.518 3.702 4.518 3.702l.184.085.18-.092s8.979-4.627 8.979-16.985v-.334l-.328-.073c-2.68-.588-4.394-1.382-5.675-2.041-.217-.112-.422-.22-.618-.325-.958-.51-1.697-.902-2.546-.902zm0 .833c.6 0 1.281.354 2.32.895l.465.241c1.24.638 2.991 1.411 5.522 2.008-.148 11.306-7.775 15.54-8.313 15.822-.26-.125-2.064-1.027-4.05-3.372-2.096-2.472-4.176-6.444-4.251-12.45 2.53-.597 4.282-1.37 5.522-2.008l.465-.24c1.039-.542 1.72-.896 2.32-.896zM10.833 10c0-.921.746-1.667 1.667-1.667s1.667.746 1.667 1.667c0 .562-.285 1.087-.755 1.393l.755 3.399h-3.334l.755-3.399c-.47-.307-.755-.832-.755-1.393z" clip-rule="evenodd"/>
</svg>
