<svg xmlns="http://www.w3.org/2000/svg" width="30" height="30" viewBox="0 0 30 30">
    <g fill="none" fill-rule="evenodd">
        <g fill="#000" fill-rule="nonzero">
            <g>
                <g>
                    <g>
                        <path d="M6.136 0C3.433 0 1.227 2.205 1.227 4.91c0 2.703 2.206 4.908 4.91 4.908 2.703 0 4.908-2.205 4.908-4.909C11.045 2.205 8.84 0 6.136 0zm0 1.227c2.04 0 3.682 1.642 3.682 3.682S8.176 8.591 6.136 8.591 2.455 6.949 2.455 4.909s1.642-3.682 3.681-3.682zm9.157 2.63c-.125.007-.247.024-.367.05-.48.103-.906.345-1.225.664-.64.64-.968 1.558-.755 2.438.087.345.278.66.556.92-.002.015-.002.031-.002.048v6.137c0 .249.151.474.384.568l-1.149 1.086-2.466-2.683c-.027-.03-.06-.06-.094-.086-1.066-1.196-2.62-1.954-4.345-1.954-2.997 0-5.423 2.294-5.741 5.207-.058.096-.089.204-.089.316v9.818c0 .338.276.614.614.614h10.431c.338 0 .614-.276.614-.614v-3.681c.002-.221-.113-.427-.304-.54-.192-.11-.427-.11-.619 0-.192.113-.307.319-.304.54v3.068H1.227V16.7c.007-.031.012-.065.015-.096.141-2.418 2.13-4.331 4.588-4.331 1.546 0 2.902.757 3.736 1.922.063.086.144.154.24.2l2.448 2.662c.112.122.268.192.431.2.165.004.324-.056.443-.169l2.021-1.915.012-.012c.204-.204.379-.29.652-.355.276-.062.652-.079 1.143-.079h4.399c-.276 1.055-1.189 1.841-2.332 1.841-.386 0-.748-.098-1.084-.266-.27-.134-.597-.053-.772.19-.052.074-.09.122-.12.15l-3.473 3.471c-.484.485-1.25.485-1.735 0L7.5 15.775c-.153-.16-.383-.226-.597-.168-.215.055-.383.223-.438.439-.058.213.007.443.168.596l4.338 4.34c.954.953 2.517.953 3.471 0l3.459-3.457c.36.122.712.27 1.122.27 1.817 0 3.332-1.332 3.624-3.068h1.285c.338 0 .613-.275.613-.613V7.977c0-.038-.004-.079-.012-.117.226-.22.396-.477.497-.755.297-.84.086-1.762-.494-2.414-.288-.324-.693-.563-1.155-.666-.463-.106-.988-.072-1.513.148-.918.389-1.85 1.256-2.807 2.788-.813-1.577-1.685-2.483-2.598-2.888-.396-.175-.794-.238-1.17-.216zm.048 1.2c.184-.006.39.034.623.137.499.22 1.16.976 1.834 2.17h-2.45c-.918 0-1.12-.288-1.208-.648-.089-.36.08-.927.43-1.277.174-.175.368-.305.596-.357.055-.012.115-.022.175-.024zm7.622.111c.056 0 .11.007.161.02.204.045.36.165.496.318.276.31.381.825.254 1.186-.13.362-.405.672-1.287.672h-2.234c.767-1.115 1.481-1.844 1.992-2.06.244-.102.446-.143.618-.136zm-8.236 3.423h3.682V13.5h-3.682V8.59zm4.91 0h3.681V13.5h-3.682V8.59z" transform="translate(-105 -354) translate(0 343) translate(105 11) translate(2 1)"/>
                    </g>
                </g>
            </g>
        </g>
    </g>
</svg>
