<svg width="20" height="20" fill="none" xmlns="http://www.w3.org/2000/svg">
    <g clip-path="url(#a)" fill="#000" stroke="#000">
        <path d="M10.002 4.608c-3.166 0-5.605 1.307-7.267 2.64-1.66 1.33-2.548 2.69-2.62 2.809l-.157.248-.017.027.017.027.158.244v.002a13.144 13.144 0 0 0 4.09 3.833l.035.02.028-.03.61-.658.043-.046-.054-.031a13 13 0 0 1-3.806-3.362c.785-1.056 3.896-4.75 8.94-4.75.741 0 1.48.083 2.206.248l.028.006.02-.021.684-.738.056-.06-.08-.022a11.1 11.1 0 0 0-2.914-.386zm0 0v.05-.05zM19.884 10.056l.158.249.017.027-.017.027-.157.243c-.072.123-.96 1.481-2.618 2.811-1.662 1.334-4.1 2.642-7.265 2.642v-.05c-.96.002-1.915-.123-2.847-.37l12.73-5.579zm0 0v-.002a13.112 13.112 0 0 0-4.091-3.824l-.035-.02-.027.03-.607.654-.043.046.055.031c1.46.839 2.753 1.98 3.802 3.361l.946-.276z" stroke-width=".1"/>
        <path d="M6.31 10.332c-.002.512.092 1.02.275 1.493l.029.075.054-.06.64-.689.018-.02-.007-.027a2.907 2.907 0 0 1-.1-.772c0-.798.295-1.563.817-2.126a2.682 2.682 0 0 1 1.966-.88c.243 0 .484.035.718.104l.03.008.02-.022.636-.686.047-.05-.063-.03a3.337 3.337 0 0 0-1.388-.296M6.31 10.332A4.14 4.14 0 0 1 7.39 7.52c.692-.746 1.631-1.166 2.612-1.166M6.31 10.332h.05-.05zm3.692-3.978v.05-.05zM13.706 10.332a4.09 4.09 0 0 0-.275-1.493l-.029-.075-.054.059-.64.69-.018.02.007.026c.067.251.1.511.1.773 0 .396-.073.788-.214 1.154-.14.366-.347.697-.607.976-.26.28-.568.5-.907.65-.338.15-.701.226-1.067.225a2.5 2.5 0 0 1-.718-.103l-.03-.009-.021.023-.624.686-.046.05.063.029c.44.198.912.3 1.388.296m3.692-3.977a4.14 4.14 0 0 1-1.08 2.811c-.692.746-1.631 1.166-2.612 1.166m3.692-3.977h-.05.05zm-3.692 3.977v-.05.05zm3.37-5.452.02.052.017-.018-.037-.034zm0 0-.046.018.009.023.037-.041zm-4.738 5.11.021-.046.015.007-.036.04zm0 0 .037.034.012-.013a4.301 4.301 0 0 1-.049-.02z" stroke-width=".1"/>
        <path d="M17.678 2.06a.554.554 0 0 1 .144.375c0 .139-.05.274-.144.375L3.039 18.604a.478.478 0 0 1-.361.158m15-16.703-15 16.604m15-16.604a.49.49 0 0 0-.359-.159.49.49 0 0 0-.358.159L2.318 17.849l.073.067M17.678 2.06l-.644.068-14.643 15.79m.287.846v-.1m0 .1h.001v-.1m-.001.1a.48.48 0 0 1-.36-.159.54.54 0 0 1-.147-.378.566.566 0 0 1 .147-.378l.073.068m.287.747a.378.378 0 0 1-.155-.033.406.406 0 0 1-.132-.094.441.441 0 0 1-.12-.31.466.466 0 0 1 .12-.31" stroke-width=".2"/>
    </g>
    <defs>
        <clipPath id="a">
            <path fill="#fff" d="M0 0h20v20H0z"/>
        </clipPath>
    </defs>
</svg>
