<svg width="28" height="28" viewBox="0 0 28 28" fill="none" xmlns="http://www.w3.org/2000/svg">
<path d="M14 27.5C21.4558 27.5 27.5 21.4558 27.5 14C27.5 6.54416 21.4558 0.5 14 0.5C6.54416 0.5 0.5 6.54416 0.5 14C0.5 21.4558 6.54416 27.5 14 27.5Z" stroke="black"/>
<path d="M16.4001 10.4996C16.4001 11.8251 15.3255 12.8996 14.0001 12.8996C12.6746 12.8996 11.6001 11.8251 11.6001 10.4996C11.6001 9.17413 12.6746 8.09961 14.0001 8.09961C15.3255 8.09961 16.4001 9.17413 16.4001 10.4996Z" stroke="black" stroke-width="0.8"/>
<path d="M19.2999 20.2996H8.6428C8.11332 20.2996 7.6827 19.8846 7.75045 19.3595C7.96678 17.6826 9.02277 14.3496 13.9998 14.3496C18.6677 14.3496 19.877 17.616 20.1903 19.3085C20.2908 19.8516 19.8521 20.2996 19.2999 20.2996Z" stroke="black" stroke-width="0.8"/>
</svg>
