<svg xmlns="http://www.w3.org/2000/svg" width="31" height="30" fill="none" viewBox="0 0 31 30">
    <path fill-rule="evenodd" stroke="#000" d="M21.626 12.292c-.415 5.53-5.248 9.68-10.798 9.267-5.553-.414-9.714-5.233-9.3-10.764.415-5.531 5.249-9.68 10.802-9.267 5.55.414 9.711 5.233 9.296 10.764z" clip-rule="evenodd"/>
    <path fill-rule="evenodd" stroke="#000" d="M18.565 12.064c-.288 3.847-3.649 6.731-7.51 6.443-3.86-.287-6.755-3.638-6.466-7.484.288-3.847 3.65-6.732 7.511-6.444 3.86.287 6.754 3.638 6.465 7.485z" clip-rule="evenodd"/>
    <path stroke="#000" stroke-linecap="round" d="M11.577 7.534v4.01l-2.46 2.452"/>
    <path stroke="#000" stroke-width="2" d="M18.915 18.33l10.487 10.487"/>
</svg>
