<svg xmlns="http://www.w3.org/2000/svg" width="90" height="70" fill="none" viewBox="0 0 90 70">
    <path fill="#F7FAFB" fill-rule="evenodd" d="M83.703 59.2c6.998-7.782 4.075-19.415 2.632-25.156-2.656-10.562-9.203-17.363-10.633-18.805-3.469-3.5-11.895-12.001-24.572-13.945C29.468-2.026 2.44 14.88.94 33.954c-.863 10.997 7.05 19.028 8.627 20.568C27.812 72.329 71.003 73.325 83.703 59.2z" clip-rule="evenodd"/>
    <path fill="#C96FD9" fill-rule="evenodd" d="M45.778 10.011c-12.8-.389-23.887 9.164-25.562 21.7-1.832 13.704 8.248 26.036 20.652 28.01C56.296 62.18 71.26 47.967 69.916 32.55 68.903 20.933 58.79 10.406 45.778 10.011z" clip-rule="evenodd"/>
    <path fill="#fff" fill-rule="evenodd" d="M42.17 18.497c-.056.01-.113.014-.168.014-.48 0-.905-.326-.988-.787-.092-.514.275-1.001.822-1.089.373-.06.753-.109 1.128-.147.674-.069 1.357-.104 2.032-.105h.001c.553 0 1.002.422 1.003.943.001.522-.448.945-1.001.946-.605 0-1.216.032-1.82.094-.34.035-.676.078-1.009.131zm11.86 1.016l2.123-.12c.508-.028.896-.486.87-1.024-.027-.538-.478-.942-.967-.921l-4.875.273c-.268.016-.516.154-.68.38-.163.224-.226.514-.171.793l1.078 5.487c.09.46.473.776.9.776.062 0 .125-.007.188-.02.497-.11.816-.626.712-1.153l-.613-3.123c4.673 3 7.566 8.405 7.566 14.205 0 9.155-7.025 16.602-15.66 16.602-8.637 0-15.662-7.447-15.662-16.602 0-.538-.412-.974-.92-.974-.507 0-.919.436-.919.974 0 10.23 7.85 18.551 17.5 18.551S62 45.295 62 35.067c0-6.28-3.033-12.146-7.97-15.554zm-18.172 1.125c.155 0 .312-.046.454-.143.685-.473 1.411-.884 2.157-1.224.438-.2.647-.753.466-1.237-.18-.484-.68-.716-1.12-.514-.833.38-1.645.84-2.412 1.367-.4.277-.523.861-.273 1.306.162.287.442.445.728.445zm-5.44 5.13c.18.128.388.19.593.19.314 0 .623-.143.821-.412.558-.76 1.187-1.479 1.867-2.14.398-.386.402-1.016.01-1.408-.393-.391-1.034-.395-1.432-.01-.76.739-1.46 1.542-2.085 2.39-.327.445-.226 1.068.227 1.39zm-2.398 5.509c-.08 0-.16-.008-.241-.025-.547-.115-.883-.59-.75-1.06.252-.901.595-1.788 1.017-2.638.22-.446.819-.653 1.337-.461.516.191.756.708.534 1.153-.377.76-.683 1.553-.91 2.359-.112.401-.529.672-.987.672z" clip-rule="evenodd"/>
    <path fill="#fff" fill-rule="evenodd" d="M44.395 26.555v1.169c-1.717-.001-3.047.347-3.983 1.046-.94.702-1.412 1.704-1.412 3 0 1.255.435 2.286 1.303 3.09.863.802 2.178 1.408 3.934 1.817l-.012 3.642c-.77-.053-1.53-.173-2.279-.358-.481-.12-.956-.267-1.426-.44-.403-.15-.828.081-.866.48l-.176 1.843c-.028.307.19.593.509.679.527.144 1.068.26 1.62.35.748.123 1.53.202 2.346.236l.284.012v1.245c0 .337.285.62.637.633h.01c.352.013.636-.248.636-.583v-1.262c1.741-.097 3.088-.545 4.049-1.34C50.524 41.02 51 39.97 51 38.658c0-1.213-.43-2.223-1.294-3.033-.869-.815-2.211-1.463-4.04-1.944v-3.274l.178.013c.686.053 1.338.169 1.956.344.354.1.699.222 1.036.363.376.158.776-.065.816-.446l.148-1.433c.032-.3-.177-.592-.484-.687-.51-.158-1.025-.294-1.545-.409-.703-.155-1.405-.27-2.105-.343v-1.143c0-.336-.284-.633-.635-.664l-.06-.003c-.323 0-.576.238-.576.555zm-1.907 5.821c-.326-.261-.488-.586-.488-.975 0-.41.176-.738.529-.981.35-.243.842-.383 1.471-.42v3c-.682-.155-1.186-.364-1.511-.624zM45 40v-3c.694.169 1.2.384 1.52.646.32.262.48.59.48.987 0 .435-.172.772-.516 1.01-.343.238-.835.357-1.476.357H45z" clip-rule="evenodd"/>
</svg>
