<svg width="28" height="28" viewBox="0 0 28 28" fill="none" xmlns="http://www.w3.org/2000/svg">
<path d="M7.21817 6.96239L7.05831 7.05831C6.25289 7.54155 5.99173 8.58622 6.47498 9.39164C6.79812 9.93022 6.79812 10.6031 6.47498 11.1416L6.43008 11.2165C5.95466 12.0088 6.1383 13.0306 6.85986 13.6079L7.39459 14.0357C7.73509 14.3081 7.93331 14.7205 7.93331 15.1565C7.93331 15.8408 8.41627 16.4299 9.08722 16.5641L9.54881 16.6564C10.0125 16.7491 10.4286 17.0024 10.7239 17.3716L11.1254 17.8734C11.7026 18.595 12.7245 18.7786 13.5168 18.3032L13.5916 18.2583C14.1302 17.9352 14.8031 17.9352 15.3416 18.2583C16.1471 18.7416 17.1917 18.4804 17.675 17.675L17.6939 17.6435C18.0079 17.1202 18.5734 16.8 19.1837 16.8H19.4241C20.2944 16.8 21 16.0944 21 15.2241C21 14.7453 21.2176 14.2925 21.5914 13.9935L22.1324 13.5607C22.8202 13.0105 22.9952 12.0365 22.5421 11.2812L22.425 11.0862C22.1277 10.5906 22.16 9.96439 22.5067 9.50207C22.9674 8.88791 22.857 8.01896 22.2576 7.53938L21.5716 6.99061C21.2024 6.69523 20.9491 6.27913 20.8564 5.81548L20.804 5.55332C20.6466 4.7664 19.9557 4.19997 19.1532 4.19997C18.5618 4.19997 18.0138 3.8897 17.7096 3.38262L17.675 3.32497C17.1917 2.51956 16.1471 2.25839 15.3416 2.74164C14.8031 3.06479 14.1302 3.06479 13.5916 2.74164C12.7862 2.25839 11.7416 2.51956 11.2583 3.32497L11.2237 3.38262C10.9195 3.8897 10.3715 4.19997 9.78012 4.19997C8.97763 4.19997 8.28669 4.7664 8.12931 5.55332L8.09687 5.71551C7.9927 6.23636 7.67364 6.68911 7.21817 6.96239Z" stroke="black" stroke-width="1.2"/>
<path d="M7 22.8667L6.54602 22.6571C6.47457 22.8119 6.48693 22.9925 6.57883 23.1361C6.67073 23.2798 6.82949 23.3667 7 23.3667V22.8667ZM10.2667 22.8667L10.6202 22.5131L10.4738 22.3667H10.2667V22.8667ZM12.6 25.2L12.2464 25.5535C12.3618 25.6689 12.5261 25.7207 12.6868 25.6924C12.8474 25.6641 12.9841 25.5592 13.0531 25.4114L12.6 25.2ZM16.8 25.6667L16.3568 25.8982C16.4386 26.0547 16.597 26.1565 16.7734 26.1659C16.9498 26.1754 17.118 26.091 17.216 25.944L16.8 25.6667ZM18.6667 22.8667V22.3667H18.3991L18.2506 22.5893L18.6667 22.8667ZM22.4 22.8667V23.3667C22.5705 23.3667 22.7293 23.2798 22.8212 23.1361C22.9131 22.9925 22.9254 22.8119 22.854 22.6571L22.4 22.8667ZM9.34602 16.5905L6.54602 22.6571L7.45398 23.0762L10.254 17.0095L9.34602 16.5905ZM7 23.3667H10.2667V22.3667H7V23.3667ZM9.91311 23.2202L12.2464 25.5535L12.9536 24.8464L10.6202 22.5131L9.91311 23.2202ZM13.0531 25.4114L14.9198 21.4114L14.0136 20.9885L12.1469 24.9885L13.0531 25.4114ZM14.9198 21.4114L16.3198 18.4114L15.4136 17.9885L14.0136 20.9885L14.9198 21.4114ZM14.0235 21.4315L16.3568 25.8982L17.2432 25.4351L14.9098 20.9685L14.0235 21.4315ZM17.216 25.944L19.0827 23.144L18.2506 22.5893L16.384 25.3893L17.216 25.944ZM18.6667 23.3667H22.4V22.3667H18.6667V23.3667ZM22.854 22.6571L20.054 16.5905L19.146 17.0095L21.946 23.0762L22.854 22.6571Z" fill="black"/>
</svg>
