<svg width="106" height="78" fill="none" xmlns="http://www.w3.org/2000/svg">
    <path d="M103.375.625c-.031.008-.062.02-.094.031a1.014 1.014 0 0 0-.625.469L82.219 32.813 68.156 20.124a.997.997 0 0 0-1.773.473.997.997 0 0 0 .461.996l14.906 13.5a.999.999 0 0 0 1.5-.219l21.094-32.688a1 1 0 0 0-.969-1.562z" fill="#D92E76"/>
    <path fill-rule="evenodd" clip-rule="evenodd" d="M24.389 24.166C26.689 22.943 28.463 22 30.5 22s3.81.943 6.111 2.166c.47.25.962.512 1.483.78 3.074 1.581 7.187 3.488 13.62 4.898l.786.175v.801c0 29.66-21.547 40.766-21.547 40.766l-.433.219-.442-.203s-5.46-2.532-10.844-8.883C13.855 56.37 8.5 46.144 8.5 30.82v-.8l.785-.176c6.434-1.41 10.547-3.317 13.621-4.899.52-.267 1.013-.529 1.483-.779zm11.68 1.982C33.575 24.851 31.94 24 30.5 24c-1.44 0-3.075.85-5.569 2.148-.353.185-.724.378-1.115.579-2.976 1.53-7.18 3.386-13.253 4.82.18 14.414 5.171 23.945 10.203 29.879 4.765 5.629 9.093 7.793 9.718 8.093 1.293-.68 19.598-10.84 19.953-37.972-6.074-1.434-10.277-3.29-13.253-4.82-.39-.201-.762-.394-1.115-.579z" fill="#000"/>
    <path d="M24.5 43a1 1 0 0 1 1-1h10a1 1 0 0 1 1 1v10a1 1 0 0 1-1 1h-10a1 1 0 0 1-1-1V43z" fill="#000"/>
    <path d="M26.5 43v-5c0-1.333.8-4 4-4s4 2.667 4 4v5" stroke="#000" stroke-width=".8"/>
</svg>
