<svg xmlns="http://www.w3.org/2000/svg" width="11" height="11" fill="none" viewBox="0 0 11 11">
    <path fill="#fff" d="M2.854 2.146c-.196-.195-.512-.195-.708 0-.195.196-.195.512 0 .708l.708-.708zm5.292 6.708c.196.195.512.195.708 0 .195-.196.195-.512 0-.708l-.708.708zm.708-6c.195-.196.195-.512 0-.708-.196-.195-.512-.195-.708 0l.708.708zM2.146 8.146c-.195.196-.195.512 0 .708.196.195.512.195.708 0l-.708-.708zm0-5.292l.013.012.013.013.012.012.013.013.012.012.013.013.012.012.013.013.012.012.013.013.012.012.013.013.012.012.013.013.012.012.013.013.012.012.012.012.013.013.012.012.013.013.012.012.012.012.013.013.012.012.012.012.013.013.012.012.012.012.013.013.012.012.012.012.012.013.013.012.012.012.012.012.012.013.013.012.012.012.012.012.012.012.013.013.012.012.012.012.012.012.012.012.012.013.013.012.012.012.012.012.012.012.012.012.012.012.012.012.012.012.012.013.013.012.012.012.012.012.012.012.012.012.012.012.012.012.012.012.012.012.012.012.012.012.012.012.012.012.012.012.012.012.012.012.012.012.012.012.012.012.011.012.012.012.012.011.012.012.012.012.012.012.012.012.012.012.012.012.012.012.011.012.012.011.012.012.012.012.012.012.012.012.011.012.012.011.012.012.012.012.012.012.011.012.012.011.012.012.012.012.012.012.011.011.012.012.012.012.012.012.011.011.012.012.012.012.011.012.012.011.012.012.012.012.011.011.012.012.012.012.011.011.012.012.012.012.011.011.012.012.012.012.011.011.012.012.012.012.011.011.012.012.011.012.012.011.012.012.011.011.012.012.011.012.012.011.012.012.011.011.012.012.011.011.012.012.011.012.012.011.012.012.011.011.012.012.011.011.012.012.011.011.012.012.011.011.012.012.011.011.012.012.011.011.012.012.011.011.012.012.011.011.012.012.011.011.012.012.011.011.012.012.011.011.012.012.011.011.011.012.012.011.011.011.012.012.011.011.012.012.011.011.012.012.011.011.011.011.012.012.011.011.012.012.011.011.011.012.012.011.011.011.012.012.011.011.011.012.012.01.011.012.012.012.011.011.011.011.012.012.011.011.011.012.012.01.011.012.012.012.01.011.012.011.012.012.011.011.011.011.012.012.011.011.011.011.012.012.011.011.011.011.012.012.011.011.011.011.012.012.011.011.011.011.012.012.011.011.011.011.012.012.01.011.012.011.012.012.01.011.012.011.011.012.012.01.011.012.011.012.012.01c.003.005.007.008.011.012l.011.011.012.012.01.011.012.011.011.012.012.01.011.012.011.011.012.012.011.011.011.011.012.012.01.011.012.011.011.012.012.01c.003.005.007.008.011.012l.011.011.012.012.01.011.012.011.011.012.012.01c.003.005.007.008.011.012l.011.011.012.012.01.011.012.011.011.012.012.01c.003.005.007.008.011.012l.011.011.012.012.01.011.012.011.011.012.012.01c.003.005.007.008.011.012l.011.011.012.012.01.011.012.011.011.012.012.01.011.012.011.011.012.012.01.011.012.011.011.012.012.01.011.012.011.011.012.012.011.011.011.011.012.012.01.011.012.011.011.012.012.01.011.012.011.012.012.01c.003.005.007.008.011.012l.011.011.012.012.011.011.011.011.012.012.01.011.012.011.012.012.01.011.012.011.012.012.01.011.012.011.012.012.01.011.012.011.012.012.01.011.012.011.012.012.01.011.012.011.012.012.011.011.011.011.012.012.011.011.011.012.012.01.011.012.012.012.01.011.012.011.012.012.011.011.011.012.012.011.011.011.012.012.011.011.011.012.012.011.011.011.012.012.011.011.011.012.012.011.011.011.012.012.011.011.012.012.011.011.012.012.011.011.011.012.012.011.011.011.012.012.011.011.012.012.011.011.012.012.011.011.012.012.011.011.012.012.011.011.012.012.011.011.012.012.011.011.012.012.011.011.012.012.011.011.012.012.011.011.012.012.011.011.012.012.011.012.012.011.012.012.011.011.012.012.011.011.012.012.011.012.012.011.012.012.011.011.012.012.011.012.012.011.012.012.011.011.012.012.012.012.011.011.012.012.012.012.011.011.012.012.012.012.011.011.012.012.012.012.011.011.012.012.012.012.011.012.012.011.012.012.012.012.011.011.012.012.012.012.012.012.011.011.012.012.012.012.012.012.011.012.012.011.012.012.012.012.012.012.011.012.012.011.012.012.012.012.012.012.012.012.011.012.012.011.012.012.012.012.012.012.012.012.012.012.012.012.012.012.011.012.012.011.012.012.012.012.012.012.012.012.012.012.012.012.012.012.012.012.012.012.012.012.012.012.012.012.012.012.012.012.012.012.012.012.012.012.012.012.012.012.012.013.013.012.012.012.012.012.012.012.012.012.012.012.012.012.012.012.012.013.013.012.012.012.012.012.012.012.012.012.013.013.012.012.012.012.012.012.012.013.013.012.012.012.012.012.012.013.013.012.012.012.012.012.013.013.012.012.012.012.013.013.012.012.012.012.013.013.012.012.012.012.013.013.012.012.013.013.012.012.012.012.013.013.012.012.013.013.012.012.013.013.012.012.013.013.012.012.013.013.012.012.013.013.012.012.013.013.012.012.013.013.012.013.708-.708-.013-.012-.013-.013-.012-.012-.013-.013-.012-.012-.013-.013-.012-.012-.013-.013-.012-.012-.013-.013-.012-.012-.013-.013-.012-.012-.013-.013-.012-.012-.013-.013-.012-.012-.012-.012-.013-.013-.012-.012-.013-.013-.012-.012-.012-.012-.013-.013-.012-.012-.012-.012-.013-.013-.012-.012-.012-.012-.013-.013-.012-.012-.012-.012-.012-.013-.013-.012-.012-.012-.012-.012-.012-.013-.013-.012-.012-.012-.012-.012-.012-.012-.013-.013-.012-.012-.012-.012-.012-.012-.012-.012-.012-.013-.013-.012-.012-.012-.012-.012-.012-.012-.012-.012-.012-.012-.012-.012-.012-.012-.012-.013-.013-.012-.012-.012-.012-.012-.012-.012-.012-.012-.012-.012-.012-.012-.012-.012-.012-.012-.012-.012-.012-.012-.012-.012-.012-.012-.012-.012-.012-.012-.012-.012-.012-.012-.012-.012-.012-.012-.011-.012-.012-.012-.012-.011-.012-.012-.012-.012-.012-.012-.012-.012-.012-.012-.012-.012-.012-.012-.011-.012-.012-.011-.012-.012-.012-.012-.012-.012-.012-.012-.011-.012-.012-.011-.012-.012-.012-.012-.012-.012-.011-.012-.012-.011-.012-.012-.012-.012-.012-.012-.011-.011-.012-.012-.012-.012-.012-.012-.011-.011-.012-.012-.012-.012-.011-.012-.012-.011-.012-.012-.012-.012-.011-.011-.012-.012-.012-.012-.011-.011-.012-.012-.012-.012-.011-.011-.012-.012-.012-.012-.011-.011-.012-.012-.012-.012-.011-.011-.012-.012-.011-.012-.012-.011-.012-.012-.011-.011-.012-.012-.011-.012-.012-.011-.012-.012-.011-.011-.012-.012-.011-.011-.012-.012-.011-.012-.012-.011-.012-.012-.011-.011-.012-.012-.011-.011-.012-.012-.011-.011-.012-.012-.011-.011-.012-.012-.011-.011-.012-.012-.011-.011-.012-.012-.011-.011L7 6.293l-.011-.011-.012-.012-.011-.011-.012-.012-.011-.011-.012-.012-.011-.011-.012-.012-.011-.011-.011-.012-.012-.011-.011-.011-.012-.012-.011-.011-.012-.012-.011-.011-.012-.012-.011-.011-.011-.011-.012-.012-.011-.011-.012-.012-.011-.011-.011-.012-.012-.011-.011-.011-.012-.012-.011-.011-.011-.012-.012-.01-.011-.012-.012-.012-.011-.011-.011-.011-.012-.012-.011-.011-.011-.012-.012-.01-.011-.012-.012-.012-.01-.011-.012-.011-.012-.012-.011-.011-.011-.011-.012-.012-.011-.011-.011-.011-.012-.012-.011-.011-.011-.011-.012-.012-.011-.011-.011-.011-.012-.012-.011-.011-.011-.011-.012-.012-.011-.011-.011-.011-.012-.012-.01-.011-.012-.011-.012-.012-.01-.011-.012-.011-.011-.012-.012-.01-.011-.012-.011-.012-.012-.01c-.003-.005-.007-.008-.011-.012l-.011-.011-.012-.012-.01-.011-.012-.011-.011-.012-.012-.01-.011-.012-.011-.011-.012-.012-.011-.011-.011-.011-.012-.012-.01-.011-.012-.011-.011-.012L6 5.294c-.003-.005-.007-.008-.011-.012l-.011-.011-.012-.012-.01-.011-.012-.011-.011-.012-.012-.01c-.003-.005-.007-.008-.011-.012l-.011-.011-.012-.012-.01-.011-.012-.011-.011-.012-.012-.01c-.003-.005-.007-.008-.011-.012l-.011-.011-.012-.012-.01-.011-.012-.011-.011-.012-.012-.01c-.003-.005-.007-.008-.011-.012l-.011-.011-.012-.012-.01-.011L5.706 5l-.011-.012-.012-.01-.011-.012-.011-.011-.012-.012-.01-.011-.012-.011-.011-.012-.012-.01-.011-.012-.011-.011-.012-.012-.011-.011-.011-.011-.012-.012-.01-.011-.012-.011-.011-.012-.012-.01-.011-.012-.011-.012-.012-.01c-.003-.005-.007-.008-.011-.012l-.011-.011-.012-.012-.011-.011-.011-.011-.012-.012-.01-.011-.012-.011-.012-.012-.01-.011-.012-.011-.012-.012-.01-.011-.012-.011-.012-.012-.01-.011-.012-.011-.012-.012-.01-.011-.012-.011-.012-.012-.01-.011-.012-.011-.012-.012-.011-.011-.011-.011-.012-.012-.011-.011-.011-.012-.012-.01-.011-.012-.012-.012-.01-.011-.012-.011-.012-.012-.011-.011-.011-.012-.012-.011-.011-.011-.012-.012-.011-.011-.011-.012-.012-.011-.011-.011-.012-.012-.011-.011-.011-.012-.012-.011-.011-.011-.012-.012-.011-.011-.012-.012-.011-.011-.012-.012-.011-.011-.011-.012-.012-.011-.011-.011-.012-.012-.011-.011-.012-.012-.011-.011-.012-.012-.011-.011-.012-.012L4.707 4l-.012-.012-.011-.011-.012-.012-.011-.011-.012-.012-.011-.011-.012-.012-.011-.011-.012-.012-.011-.011-.012-.012-.011-.011-.012-.012-.011-.011-.012-.012-.011-.012-.012-.011-.012-.012-.011-.011-.012-.012-.011-.011-.012-.012-.011-.012-.012-.011-.012-.012-.011-.011-.012-.012-.011-.012-.012-.011-.012-.012-.011-.011-.012-.012-.012-.012-.011-.011-.012-.012-.012-.012-.011-.011-.012-.012-.012-.012-.011-.011-.012-.012-.012-.012-.011-.011-.012-.012-.012-.012-.011-.012-.012-.011-.012-.012-.012-.012-.011-.011-.012-.012-.012-.012-.012-.012-.011-.011-.012-.012-.012-.012-.012-.012-.011-.012-.012-.011-.012-.012-.012-.012-.012-.012-.011-.012-.012-.011-.012-.012-.012-.012-.012-.012-.012-.012-.011-.012-.012-.011-.012-.012-.012-.012-.012-.012-.012-.012-.012-.012-.012-.012-.012-.012-.011-.012-.012-.012-.012-.011-.012-.012-.012-.012-.012-.012-.012-.012-.012-.012-.012-.012-.012-.012-.012-.012-.012-.012-.012-.012-.012-.012-.012-.012-.012-.012-.012-.012-.012-.012-.012-.012-.012-.012-.012-.012-.012-.013-.013-.012-.012-.012-.012-.012-.012-.012-.012-.012-.012-.012-.012-.012-.012-.012-.012-.013-.013-.012-.012-.012-.012-.012-.012-.012-.012-.012-.013-.013-.012-.012-.012-.012-.012-.012-.012-.013-.013-.012-.012-.012-.012-.012-.012-.013-.013-.012-.012-.012-.012-.012-.013-.013-.012-.012-.012-.012-.013-.013-.012-.012-.012-.012-.013-.013-.012-.012-.012-.012-.013-.013-.012-.012-.013-.013-.012-.012-.012-.012-.013-.013-.012-.012-.013-.013-.012-.012-.013-.013-.012-.012-.013-.013-.012-.012-.013-.013-.012-.012-.013-.013-.012-.012-.013-.013-.012-.012-.013-.013-.012-.013-.708.708zm6-.708l-6 6 .708.708 6-6-.708-.708z"/>
</svg>
