<svg width="31" height="30" viewBox="0 0 31 30" fill="none" xmlns="http://www.w3.org/2000/svg">
    <path fill-rule="evenodd" clip-rule="evenodd" d="M15.5 29.388c7.946 0 14.388-6.442 14.388-14.388S23.446.612 15.5.612 1.112 7.054 1.112 15 7.554 29.388 15.5 29.388zm0 .612c8.284 0 15-6.716 15-15 0-8.284-6.716-15-15-15C7.216 0 .5 6.716.5 15c0 8.284 6.716 15 15 15z" fill="#000"/>
    <path d="M12.573 6h.864c.192.026.384.044.574.08 2.446.46 4.12 1.862 5.057 4.156a.297.297 0 0 0 .185.186c2.154.858 3.53 2.401 4.085 4.659.078.32.109.65.162.976v.862a1.242 1.242 0 0 0-.03.143 6.292 6.292 0 0 1-1.106 3.03c-.073.109-.073.188-.024.299.384.856.763 1.715 1.143 2.572a1.688 1.688 0 0 1-.171-.055c-.799-.355-1.597-.705-2.392-1.065-.128-.058-.218-.057-.342.026-1.389.937-2.922 1.325-4.574 1.039-2.459-.425-4.144-1.841-5.078-4.15a.351.351 0 0 0-.194-.2 40.882 40.882 0 0 1-1.351-.698c-.094-.05-.157-.063-.255-.02-.73.33-1.464.652-2.195.977L6.508 19c.037-.088.055-.14.077-.188.36-.813.718-1.626 1.083-2.437a.211.211 0 0 0-.019-.239c-.985-1.446-1.34-3.031-1.053-4.76.417-2.516 2.47-4.677 4.97-5.21.33-.07.67-.112 1.007-.167zm8.914 15.01.026-.03c-.084-.192-.153-.392-.257-.572-.126-.222-.093-.374.065-.581 1.167-1.531 1.502-3.23.892-5.065-.865-2.607-3.5-4.142-6.206-3.658-2.49.446-4.384 2.592-4.489 5.113-.066 1.592.446 2.987 1.569 4.124 1.283 1.297 2.85 1.835 4.666 1.596 1.024-.133 1.92-.576 2.717-1.22.095-.077.171-.089.28-.035.242.115.49.219.737.327zm-3.575-10.934c-.032-.065-.054-.114-.08-.162-1.73-3.237-6.047-3.915-8.67-1.346-1.28 1.253-1.819 2.798-1.628 4.579.115 1.064.563 2.002 1.237 2.83.083.102.089.18.034.295-.117.24-.218.488-.345.776.227-.1.417-.163.585-.263.247-.15.431-.117.654.073.257.218.562.379.875.584-.616-4.198 2.958-7.942 7.338-7.366z" fill="#000"/>
    <path d="M13.5 16.513C13.5 18.668 15 20 17.071 20c.57 0 1.078-.067 1.406-.168.207-.067.28-.151.28-.26 0-.101-.073-.169-.19-.169a.81.81 0 0 0-.163.03 5.11 5.11 0 0 1-1.238.151c-1.893 0-3.192-1.151-3.192-3.055 0-1.823 1.247-3.113 3.08-3.113 1.66 0 2.976 1.017 2.976 2.76 0 1.026-.375 1.702-.949 1.702-.392 0-.617-.23-.617-.622v-2.222c0-.164-.09-.265-.25-.265-.155 0-.25.1-.25.265v.411h-.03c-.168-.424-.6-.676-1.109-.676-.867 0-1.479.714-1.479 1.76 0 1.05.608 1.77 1.492 1.77.526 0 .932-.27 1.13-.753h.03c.07.48.466.756 1.005.756.928 0 1.497-.87 1.497-2.142 0-1.908-1.436-3.16-3.438-3.16-2.091 0-3.562 1.408-3.562 3.513zm3.412 1.327c-.63 0-1.031-.512-1.031-1.31 0-.795.405-1.312 1.03-1.312.643 0 1.044.5 1.044 1.29 0 .811-.41 1.332-1.043 1.332z" fill="#000"/>
</svg>
