<svg xmlns="http://www.w3.org/2000/svg" width="25" height="25" fill="none" viewBox="0 0 25 25">
    <path fill="#000" fill-rule="evenodd" d="M2.212 7.214C2.212 5.996 3.232 5 4.477 5H20.78c1.246 0 2.265.996 2.265 2.214v9.74c0 1.217-1.02 2.213-2.265 2.213H4.477c-1.246 0-2.265-.996-2.265-2.214v-9.74zm18.57-1.329H4.476c-.756 0-1.359.59-1.359 1.329v.885H22.14v-.885c0-.739-.603-1.329-1.359-1.329zM3.117 10.313H22.14v6.64c0 .739-.603 1.328-1.359 1.328H4.477c-.756 0-1.359-.59-1.359-1.328v-6.64zm2.265 2.213v-.885h7.246v.885H5.383z" clip-rule="evenodd"/>
    <path fill="#fff" fill-rule="evenodd" d="M5.833 5h2.5v.833h-2.5V5zM5.833 18.334h2.5v.833h-2.5v-.834zM23.333 6.667V7.5h-2.5v-.833h2.5zM3.333 6.667V7.5H2.5v-.833h.833zM10.833 5H12.5v.833h-1.667V5zM10.833 18.334H12.5v.833h-1.667v-.834zM23.333 10v.833h-2.5V10h2.5zM3.333 10v.833H1.667V10h1.666zM15 5h1.667v.833H15V5zM15 18.334h1.667v.833H15v-.834zM23.333 13.334v.833h-1.666v-.833h1.666zM3.333 13.334v.833H1.667v-.833h1.666zM23.333 15.834v.833h-1.666v-.834h1.666zM3.333 15.834v.833H1.667v-.834h1.666zM19.167 5h1.666v.833h-1.666V5zM19.167 18.334h1.666v.833h-1.666v-.834z" clip-rule="evenodd"/>
</svg>
