<svg width="31" height="30" viewBox="0 0 31 30" fill="none" xmlns="http://www.w3.org/2000/svg">
<path d="M14.9692 5C13.9938 5 13.1693 5.63115 12.8887 6.48828C12.5736 6.31794 12.2166 6.21241 11.8325 6.21241C10.6887 6.21241 9.75054 7.0783 9.66004 8.16244C9.64428 8.21677 9.63644 8.27296 9.63676 8.32939C9.63663 8.33649 9.63663 8.3436 9.63676 8.3507V8.85271C9.35015 8.71888 9.03327 8.63722 8.69574 8.63722C7.5402 8.63722 6.59318 9.52064 6.51962 10.6204C6.50619 10.6711 6.4996 10.7232 6.50002 10.7755V18.0867C6.50002 18.8168 6.61345 20.4828 7.56357 22.0436C8.51368 23.6044 10.3827 25 13.5307 25C15.5449 25 16.9726 24.6723 18.0692 24.086C19.1658 23.4997 19.8944 22.6751 20.5602 21.8032C21.862 20.0994 24.1172 16.8091 24.1172 16.8091C24.1189 16.8068 24.1205 16.8044 24.1221 16.802C24.7968 15.7876 24.5515 14.4212 23.5181 13.7888L23.5119 13.7852C22.4682 13.1626 21.0833 13.5344 20.4022 14.5501L20.4254 14.5181L20.3017 14.6791V8.93559C20.3021 8.87877 20.2943 8.82218 20.2784 8.76746C20.1873 7.68387 19.2494 6.81861 18.106 6.81861C17.7665 6.81861 17.4479 6.90118 17.16 7.03647C17.1561 7.00686 17.15 6.97758 17.1417 6.94885C17.0506 5.86526 16.1126 5 14.9692 5ZM14.9692 6.20294C15.4843 6.20294 15.8892 6.58397 15.9115 7.07554V7.07909C15.9106 7.0917 15.9102 7.10434 15.9102 7.11698V9.23869V14.0883C15.9126 14.2476 15.9797 14.3996 16.0971 14.5115C16.2145 14.6233 16.3727 14.686 16.5376 14.686C16.7025 14.686 16.8607 14.6233 16.9781 14.5115C17.0955 14.3996 17.1626 14.2476 17.1649 14.0883V9.23869V8.88586C17.1915 8.39841 17.5938 8.02155 18.106 8.02155C18.6223 8.02155 19.0277 8.40439 19.0482 8.8977C19.0474 8.91032 19.047 8.92295 19.047 8.93559V16.5131C19.0471 16.6406 19.0888 16.7647 19.1661 16.8679C19.2433 16.9712 19.3523 17.0482 19.4775 17.0882C19.6027 17.1282 19.7378 17.129 19.8635 17.0906C19.9892 17.0522 20.0993 16.9765 20.1779 16.8743L21.4326 15.2403C21.4407 15.2303 21.4485 15.2201 21.4559 15.2096C21.7927 14.7074 22.4334 14.5711 22.8491 14.8165C23.2667 15.0751 23.4002 15.6453 23.0672 16.1461C23.0607 16.1555 20.8028 19.4433 19.5506 21.0822C18.9197 21.9083 18.3306 22.5604 17.4615 23.0251C16.5923 23.4898 15.4055 23.7876 13.5307 23.7876C10.7465 23.7876 9.414 22.6903 8.6455 21.4279C7.877 20.1654 7.75471 18.6775 7.75471 18.0867V10.7755C7.7546 10.7589 7.75379 10.7423 7.75226 10.7258C7.76774 10.2278 8.176 9.84016 8.69574 9.84016C9.20787 9.84016 9.61019 10.217 9.63676 10.7045V14.6945C9.63909 14.8538 9.70621 15.0058 9.82361 15.1177C9.94101 15.2295 10.0992 15.2922 10.2641 15.2922C10.429 15.2922 10.5872 15.2295 10.7046 15.1177C10.822 15.0058 10.8891 14.8538 10.8915 14.6945V8.3507V8.32939C10.8914 8.31754 10.891 8.30569 10.8902 8.29387C10.9095 7.7994 11.3153 7.41534 11.8325 7.41534C12.3446 7.41534 12.7469 7.79221 12.7735 8.27966V8.63249V14.0883C12.7758 14.2476 12.843 14.3996 12.9603 14.5115C13.0777 14.6233 13.236 14.686 13.4008 14.686C13.5657 14.686 13.7239 14.6233 13.8413 14.5115C13.9587 14.3996 14.0259 14.2476 14.0282 14.0883V8.63249V7.11698C14.0281 7.10513 14.0277 7.09328 14.027 7.08146C14.0462 6.58699 14.452 6.20294 14.9692 6.20294Z" fill="black"/>
</svg>
