<svg xmlns="http://www.w3.org/2000/svg" width="47" height="48" fill="none" viewBox="0 0 47 48">
    <circle cx="23.5" cy="24.18" r="22.954" stroke="#D92E76" stroke-width="1.092"/>
    <path fill="#D92E76" d="M22.845 27.737c.7 0 .99-.503.99-1.219v-.411c0-1.691.564-2.56 2.56-3.84 2.087-1.34 3.214-2.909 3.214-5.164 0-3.184-2.62-5.484-6.246-5.484-2.864 0-5.088 1.402-5.926 3.641-.229.564-.336 1.036-.336 1.57 0 .609.336.959.93.959.533 0 .792-.229.975-.945.442-2.117 2.026-3.412 4.28-3.412 2.438 0 4.175 1.539 4.175 3.763 0 1.6-.747 2.681-2.651 3.945-2.133 1.387-3.001 2.651-3.001 4.693v.716c0 .655.32 1.188 1.036 1.188zm0 6.2c.807 0 1.432-.624 1.432-1.416 0-.808-.625-1.432-1.432-1.432-.792 0-1.417.624-1.417 1.432 0 .792.625 1.416 1.417 1.416z"/>
</svg>
