<svg width="21" height="20" viewBox="0 0 21 20" fill="none" xmlns="http://www.w3.org/2000/svg">
    <path d="M17.5 5.42a6.49 6.49 0 0 1-1.772.479 3.02 3.02 0 0 0 1.353-1.674 6.203 6.203 0 0 1-1.95.733A3.104 3.104 0 0 0 12.885 4c-1.703 0-3.073 1.36-3.073 3.029 0 .24.02.47.07.69a8.75 8.75 0 0 1-6.338-3.167c-.265.453-.42.972-.42 1.53A3.02 3.02 0 0 0 4.488 8.6 3.073 3.073 0 0 1 3.1 8.226v.033c0 1.471 1.066 2.694 2.464 2.975-.25.068-.523.1-.806.1-.197 0-.396-.011-.583-.052a3.099 3.099 0 0 0 2.874 2.11 6.24 6.24 0 0 1-3.813 1.29c-.252 0-.494-.01-.736-.04A8.755 8.755 0 0 0 7.218 16c5.658 0 8.752-4.615 8.752-8.616 0-.134-.005-.263-.011-.391A6.082 6.082 0 0 0 17.5 5.42z" fill="#fff"/>
</svg>
