<?xml version="1.0" encoding="utf-8"?>
<!-- Generator: Adobe Illustrator 25.2.0, SVG Export Plug-In . SVG Version: 6.00 Build 0)  -->
<svg version="1.1" id="Layer_1" xmlns="http://www.w3.org/2000/svg" xmlns:xlink="http://www.w3.org/1999/xlink" x="0px" y="0px"
	 viewBox="0 0 20 21" style="enable-background:new 0 0 20 21;" xml:space="preserve">
<style type="text/css">
	.st0{fill-rule:evenodd;clip-rule:evenodd;fill:#A0B2B8;}
</style>
<path class="st0" d="M10,1c-5,0-9,4-9,9s4,9,9,9s9-4,9-9S15,1,10,1z M13.6,13c0.1,0.1,0.2,0.3,0.2,0.5c0,0.4-0.3,0.8-0.7,0.8
	c-0.2,0-0.4-0.1-0.5-0.2v0L10,11.3l-2.6,2.7c-0.1,0.1-0.3,0.2-0.5,0.2c-0.4,0-0.7-0.3-0.7-0.8c0-0.2,0.1-0.4,0.2-0.5l2.6-2.7
	L6.3,7.6C6.2,7.4,6.1,7.2,6.1,7c0-0.4,0.3-0.8,0.7-0.8c0.2,0,0.4,0.1,0.5,0.2L10,9.2l2.7-2.7c0.2-0.2,0.3-0.2,0.5-0.2
	c0.4,0,0.7,0.3,0.7,0.8c0,0.2-0.1,0.4-0.2,0.5L11,10.3L13.6,13z"/>
</svg>
